<?xml version="1.0" encoding="utf-8" standalone="no"?>
<!DOCTYPE svg PUBLIC "-//W3C//DTD SVG 1.1//EN"
  "http://www.w3.org/Graphics/SVG/1.1/DTD/svg11.dtd">
<!-- Created with matplotlib (http://matplotlib.org/) -->
<svg height="302pt" version="1.1" viewBox="0 0 617 302" width="617pt" xmlns="http://www.w3.org/2000/svg" xmlns:xlink="http://www.w3.org/1999/xlink">
 <defs>
  <style type="text/css">
*{stroke-linecap:butt;stroke-linejoin:round;stroke-miterlimit:100000;}
  </style>
 </defs>
 <g id="figure_1">
  <g id="patch_1">
   <path d="M 0 302.254509 
L 617.334454 302.254509 
L 617.334454 0 
L 0 0 
z
" style="fill:#ffffff;"/>
  </g>
  <g id="axes_1">
   <g id="patch_2">
    <path d="M 37.12325 254.671 
L 557.243204 254.671 
L 557.243204 19.157 
L 37.12325 19.157 
z
" style="fill:#ffffff;"/>
   </g>
   <g id="PolyCollection_1">
    <defs>
     <path d="M 50.810617 -276.932723 
L 50.810617 -265.146263 
L 78.185352 -262.489952 
L 105.560086 -229.588482 
L 132.93482 -212.473667 
L 160.309555 -222.221026 
L 187.684289 -228.505618 
L 215.059024 -242.084419 
L 242.433758 -231.117365 
L 269.808493 -225.478439 
L 297.183227 -230.790927 
L 324.557961 -234.196754 
L 351.932696 -232.318496 
L 379.30743 -227.533159 
L 406.682165 -210.74887 
L 434.056899 -164.105603 
L 461.431634 -81.928113 
L 488.806368 -30.890161 
L 516.181102 -26.644478 
L 543.555837 -29.190313 
L 543.555837 -89.406124 
L 543.555837 -89.406124 
L 516.181102 -81.33903 
L 488.806368 -91.484176 
L 461.431634 -148.068127 
L 434.056899 -224.789759 
L 406.682165 -256.642637 
L 379.30743 -263.445442 
L 351.932696 -265.184638 
L 324.557961 -265.705645 
L 297.183227 -267.091302 
L 269.808493 -266.454043 
L 242.433758 -262.455049 
L 215.059024 -267.346685 
L 187.684289 -260.234208 
L 160.309555 -258.937668 
L 132.93482 -254.881825 
L 105.560086 -261.145823 
L 78.185352 -275.811239 
L 50.810617 -276.932723 
z
" id="m0f9a4ee217" style="stroke:#66c2a5;stroke-opacity:0.3;stroke-width:0.24;"/>
    </defs>
    <g clip-path="url(#p680daedb7f)">
     <use style="fill:#66c2a5;fill-opacity:0.3;stroke:#66c2a5;stroke-opacity:0.3;stroke-width:0.24;" x="0.0" xlink:href="#m0f9a4ee217" y="302.254509449"/>
    </g>
   </g>
   <g id="PolyCollection_2">
    <defs>
     <path d="M 50.810617 -123.985737 
L 50.810617 -42.715466 
L 78.185352 -40.854241 
L 105.560086 -62.417573 
L 132.93482 -66.352229 
L 160.309555 -115.153546 
L 187.684289 -123.714455 
L 215.059024 -120.042222 
L 242.433758 -128.199502 
L 269.808493 -121.367598 
L 297.183227 -117.319232 
L 324.557961 -110.432206 
L 351.932696 -116.632266 
L 379.30743 -141.528049 
L 406.682165 -140.206915 
L 434.056899 -157.356398 
L 461.431634 -186.32035 
L 488.806368 -185.356902 
L 516.181102 -183.230785 
L 543.555837 -162.303772 
L 543.555837 -211.126905 
L 543.555837 -211.126905 
L 516.181102 -224.564719 
L 488.806368 -227.255221 
L 461.431634 -223.668245 
L 434.056899 -202.2435 
L 406.682165 -183.203134 
L 379.30743 -175.581345 
L 351.932696 -154.605757 
L 324.557961 -146.705463 
L 297.183227 -152.507655 
L 269.808493 -158.17155 
L 242.433758 -149.838267 
L 215.059024 -146.037256 
L 187.684289 -165.293059 
L 160.309555 -158.861198 
L 132.93482 -153.587517 
L 105.560086 -149.741038 
L 78.185352 -125.678086 
L 50.810617 -123.985737 
z
" id="m6d814423e8" style="stroke:#fa8e63;stroke-opacity:0.3;stroke-width:0.24;"/>
    </defs>
    <g clip-path="url(#p680daedb7f)">
     <use style="fill:#fa8e63;fill-opacity:0.3;stroke:#fa8e63;stroke-opacity:0.3;stroke-width:0.24;" x="0.0" xlink:href="#m6d814423e8" y="302.254509449"/>
    </g>
   </g>
   <g id="matplotlib.axis_1">
    <g id="xtick_1">
     <g id="line2d_1">
      <defs>
       <path d="M 0 0 
L 0 0 
" id="m260ffde94d" style="stroke:#262626;stroke-width:0.8;"/>
      </defs>
      <g>
       <use style="fill:#262626;stroke:#262626;stroke-width:0.8;" x="50.8106172132" xlink:href="#m260ffde94d" y="254.671"/>
      </g>
     </g>
     <g id="text_1">
      <!-- conv1_1 -->
      <defs>
       <path d="M 29.9375 0 
L 19.53125 0 
L 0.34375 52.828125 
L 9.71875 52.828125 
L 21.34375 18.453125 
Q 21.6875 17.390625 22.140625 15.84375 
Q 22.609375 14.3125 23.09375 12.640625 
Q 23.578125 10.984375 24 9.4375 
Q 24.421875 7.90625 24.703125 6.890625 
Q 25 7.90625 25.453125 9.4375 
Q 25.921875 10.984375 26.40625 12.59375 
Q 26.90625 14.203125 27.421875 15.734375 
Q 27.9375 17.28125 28.328125 18.359375 
L 40.328125 52.828125 
L 49.65625 52.828125 
z
" id="LiberationSans-76"/>
       <path d="M 13.421875 26.65625 
Q 13.421875 22.125 14.078125 18.3125 
Q 14.75 14.5 16.3125 11.734375 
Q 17.875 8.984375 20.4375 7.46875 
Q 23 5.953125 26.765625 5.953125 
Q 31.453125 5.953125 34.59375 8.484375 
Q 37.75 11.03125 38.484375 16.3125 
L 47.359375 15.71875 
Q 46.921875 12.453125 45.453125 9.421875 
Q 44 6.390625 41.484375 4.09375 
Q 38.96875 1.8125 35.34375 0.40625 
Q 31.734375 -0.984375 27 -0.984375 
Q 20.796875 -0.984375 16.453125 1.109375 
Q 12.109375 3.21875 9.390625 6.90625 
Q 6.6875 10.59375 5.46875 15.59375 
Q 4.25 20.609375 4.25 26.46875 
Q 4.25 31.78125 5.125 35.859375 
Q 6 39.9375 7.59375 42.984375 
Q 9.1875 46.046875 11.328125 48.125 
Q 13.484375 50.203125 15.984375 51.4375 
Q 18.5 52.6875 21.28125 53.25 
Q 24.078125 53.8125 26.90625 53.8125 
Q 31.34375 53.8125 34.8125 52.59375 
Q 38.28125 51.375 40.796875 49.25 
Q 43.3125 47.125 44.875 44.234375 
Q 46.4375 41.359375 47.078125 38.03125 
L 38.03125 37.359375 
Q 37.359375 41.75 34.5625 44.328125 
Q 31.78125 46.921875 26.65625 46.921875 
Q 22.90625 46.921875 20.390625 45.671875 
Q 17.875 44.4375 16.3125 41.921875 
Q 14.75 39.40625 14.078125 35.59375 
Q 13.421875 31.78125 13.421875 26.65625 
" id="LiberationSans-63"/>
       <path d="M -1.515625 -19.875 
L -1.515625 -13.53125 
L 56.734375 -13.53125 
L 56.734375 -19.875 
z
" id="LiberationSans-5f"/>
       <path d="M 40.28125 0 
L 40.28125 33.5 
Q 40.28125 37.359375 39.71875 39.9375 
Q 39.15625 42.53125 37.890625 44.109375 
Q 36.625 45.703125 34.546875 46.359375 
Q 32.46875 47.015625 29.390625 47.015625 
Q 26.265625 47.015625 23.75 45.921875 
Q 21.234375 44.828125 19.453125 42.75 
Q 17.671875 40.671875 16.6875 37.625 
Q 15.71875 34.578125 15.71875 30.609375 
L 15.71875 0 
L 6.9375 0 
L 6.9375 41.546875 
Q 6.9375 43.21875 6.90625 45.046875 
Q 6.890625 46.875 6.828125 48.5 
Q 6.78125 50.140625 6.734375 51.3125 
Q 6.6875 52.484375 6.640625 52.828125 
L 14.9375 52.828125 
Q 14.984375 52.59375 15.03125 51.515625 
Q 15.09375 50.4375 15.15625 49.046875 
Q 15.234375 47.65625 15.28125 46.21875 
Q 15.328125 44.78125 15.328125 43.796875 
L 15.484375 43.796875 
Q 16.75 46.09375 18.265625 47.953125 
Q 19.78125 49.8125 21.78125 51.09375 
Q 23.78125 52.390625 26.359375 53.09375 
Q 28.953125 53.8125 32.375 53.8125 
Q 36.765625 53.8125 39.9375 52.734375 
Q 43.109375 51.65625 45.15625 49.40625 
Q 47.21875 47.171875 48.171875 43.625 
Q 49.125 40.09375 49.125 35.203125 
L 49.125 0 
z
" id="LiberationSans-6e"/>
       <path d="M 51.421875 26.46875 
Q 51.421875 12.59375 45.3125 5.796875 
Q 39.203125 -0.984375 27.59375 -0.984375 
Q 22.078125 -0.984375 17.71875 0.671875 
Q 13.375 2.34375 10.375 5.765625 
Q 7.375 9.1875 5.78125 14.328125 
Q 4.203125 19.484375 4.203125 26.46875 
Q 4.203125 53.8125 27.875 53.8125 
Q 34.03125 53.8125 38.5 52.09375 
Q 42.96875 50.390625 45.828125 46.96875 
Q 48.6875 43.5625 50.046875 38.421875 
Q 51.421875 33.296875 51.421875 26.46875 
M 42.1875 26.46875 
Q 42.1875 32.625 41.234375 36.625 
Q 40.28125 40.625 38.453125 43.015625 
Q 36.625 45.40625 33.984375 46.359375 
Q 31.34375 47.3125 28.03125 47.3125 
Q 24.65625 47.3125 21.9375 46.3125 
Q 19.234375 45.3125 17.328125 42.890625 
Q 15.4375 40.484375 14.421875 36.46875 
Q 13.421875 32.46875 13.421875 26.46875 
Q 13.421875 20.3125 14.5 16.28125 
Q 15.578125 12.25 17.453125 9.859375 
Q 19.34375 7.46875 21.90625 6.484375 
Q 24.46875 5.515625 27.484375 5.515625 
Q 30.859375 5.515625 33.59375 6.46875 
Q 36.328125 7.421875 38.234375 9.8125 
Q 40.140625 12.203125 41.15625 16.25 
Q 42.1875 20.3125 42.1875 26.46875 
" id="LiberationSans-6f"/>
       <path d="M 7.625 0 
L 7.625 7.46875 
L 25.140625 7.46875 
L 25.140625 60.40625 
L 9.625 49.3125 
L 9.625 57.625 
L 25.875 68.796875 
L 33.984375 68.796875 
L 33.984375 7.46875 
L 50.734375 7.46875 
L 50.734375 0 
z
" id="LiberationSans-31"/>
      </defs>
      <g style="fill:#262626;" transform="translate(23.7887614075 280.413657278)rotate(-30.0)scale(0.08 -0.08)">
       <use xlink:href="#LiberationSans-63"/>
       <use x="50.0" xlink:href="#LiberationSans-6f"/>
       <use x="105.615234375" xlink:href="#LiberationSans-6e"/>
       <use x="161.23046875" xlink:href="#LiberationSans-76"/>
       <use x="211.23046875" xlink:href="#LiberationSans-31"/>
       <use x="266.845703125" xlink:href="#LiberationSans-5f"/>
       <use x="322.4609375" xlink:href="#LiberationSans-31"/>
      </g>
     </g>
    </g>
    <g id="xtick_2">
     <g id="line2d_2">
      <g>
       <use style="fill:#262626;stroke:#262626;stroke-width:0.8;" x="78.1853516396" xlink:href="#m260ffde94d" y="254.671"/>
      </g>
     </g>
     <g id="text_2">
      <!-- conv1_2 -->
      <defs>
       <path d="M 5.03125 0 
L 5.03125 6.203125 
Q 7.515625 11.921875 11.109375 16.28125 
Q 14.703125 20.65625 18.65625 24.1875 
Q 22.609375 27.734375 26.484375 30.765625 
Q 30.375 33.796875 33.5 36.8125 
Q 36.625 39.84375 38.546875 43.15625 
Q 40.484375 46.484375 40.484375 50.6875 
Q 40.484375 53.609375 39.59375 55.828125 
Q 38.71875 58.0625 37.0625 59.5625 
Q 35.40625 61.078125 33.078125 61.828125 
Q 30.765625 62.59375 27.9375 62.59375 
Q 25.296875 62.59375 22.96875 61.859375 
Q 20.65625 61.140625 18.84375 59.671875 
Q 17.046875 58.203125 15.890625 56.03125 
Q 14.75 53.859375 14.40625 50.984375 
L 5.421875 51.8125 
Q 5.859375 55.515625 7.46875 58.78125 
Q 9.078125 62.0625 11.90625 64.53125 
Q 14.75 67 18.71875 68.40625 
Q 22.703125 69.828125 27.9375 69.828125 
Q 33.0625 69.828125 37.0625 68.609375 
Q 41.0625 67.390625 43.8125 64.984375 
Q 46.578125 62.59375 48.046875 59.078125 
Q 49.515625 55.5625 49.515625 50.984375 
Q 49.515625 47.515625 48.265625 44.390625 
Q 47.015625 41.265625 44.9375 38.421875 
Q 42.875 35.59375 40.140625 32.953125 
Q 37.40625 30.328125 34.421875 27.8125 
Q 31.453125 25.296875 28.421875 22.828125 
Q 25.390625 20.359375 22.71875 17.859375 
Q 20.0625 15.375 17.96875 12.8125 
Q 15.875 10.25 14.703125 7.46875 
L 50.59375 7.46875 
L 50.59375 0 
z
" id="LiberationSans-32"/>
      </defs>
      <g style="fill:#262626;" transform="translate(51.1634958339 280.413657278)rotate(-30.0)scale(0.08 -0.08)">
       <use xlink:href="#LiberationSans-63"/>
       <use x="50.0" xlink:href="#LiberationSans-6f"/>
       <use x="105.615234375" xlink:href="#LiberationSans-6e"/>
       <use x="161.23046875" xlink:href="#LiberationSans-76"/>
       <use x="211.23046875" xlink:href="#LiberationSans-31"/>
       <use x="266.845703125" xlink:href="#LiberationSans-5f"/>
       <use x="322.4609375" xlink:href="#LiberationSans-32"/>
      </g>
     </g>
    </g>
    <g id="xtick_3">
     <g id="line2d_3">
      <g>
       <use style="fill:#262626;stroke:#262626;stroke-width:0.8;" x="105.560086066" xlink:href="#m260ffde94d" y="254.671"/>
      </g>
     </g>
     <g id="text_3">
      <!-- conv2_1 -->
      <g style="fill:#262626;" transform="translate(78.5382302603 280.413657278)rotate(-30.0)scale(0.08 -0.08)">
       <use xlink:href="#LiberationSans-63"/>
       <use x="50.0" xlink:href="#LiberationSans-6f"/>
       <use x="105.615234375" xlink:href="#LiberationSans-6e"/>
       <use x="161.23046875" xlink:href="#LiberationSans-76"/>
       <use x="211.23046875" xlink:href="#LiberationSans-32"/>
       <use x="266.845703125" xlink:href="#LiberationSans-5f"/>
       <use x="322.4609375" xlink:href="#LiberationSans-31"/>
      </g>
     </g>
    </g>
    <g id="xtick_4">
     <g id="line2d_4">
      <g>
       <use style="fill:#262626;stroke:#262626;stroke-width:0.8;" x="132.934820492" xlink:href="#m260ffde94d" y="254.671"/>
      </g>
     </g>
     <g id="text_4">
      <!-- conv2_2 -->
      <g style="fill:#262626;" transform="translate(105.912964687 280.413657278)rotate(-30.0)scale(0.08 -0.08)">
       <use xlink:href="#LiberationSans-63"/>
       <use x="50.0" xlink:href="#LiberationSans-6f"/>
       <use x="105.615234375" xlink:href="#LiberationSans-6e"/>
       <use x="161.23046875" xlink:href="#LiberationSans-76"/>
       <use x="211.23046875" xlink:href="#LiberationSans-32"/>
       <use x="266.845703125" xlink:href="#LiberationSans-5f"/>
       <use x="322.4609375" xlink:href="#LiberationSans-32"/>
      </g>
     </g>
    </g>
    <g id="xtick_5">
     <g id="line2d_5">
      <g>
       <use style="fill:#262626;stroke:#262626;stroke-width:0.8;" x="160.309554919" xlink:href="#m260ffde94d" y="254.671"/>
      </g>
     </g>
     <g id="text_5">
      <!-- conv3_1 -->
      <defs>
       <path d="M 51.21875 19 
Q 51.21875 14.265625 49.671875 10.546875 
Q 48.140625 6.84375 45.1875 4.265625 
Q 42.234375 1.703125 37.859375 0.359375 
Q 33.5 -0.984375 27.875 -0.984375 
Q 21.484375 -0.984375 17.109375 0.609375 
Q 12.75 2.203125 9.90625 4.8125 
Q 7.078125 7.421875 5.65625 10.765625 
Q 4.25 14.109375 3.8125 17.671875 
L 12.890625 18.5 
Q 13.28125 15.765625 14.328125 13.515625 
Q 15.375 11.28125 17.1875 9.671875 
Q 19 8.0625 21.625 7.171875 
Q 24.265625 6.296875 27.875 6.296875 
Q 34.515625 6.296875 38.296875 9.5625 
Q 42.09375 12.84375 42.09375 19.28125 
Q 42.09375 23.09375 40.40625 25.40625 
Q 38.71875 27.734375 36.203125 29.03125 
Q 33.6875 30.328125 30.734375 30.765625 
Q 27.78125 31.203125 25.296875 31.203125 
L 20.3125 31.203125 
L 20.3125 38.8125 
L 25.09375 38.8125 
Q 27.59375 38.8125 30.265625 39.328125 
Q 32.953125 39.84375 35.171875 41.1875 
Q 37.40625 42.53125 38.84375 44.828125 
Q 40.28125 47.125 40.28125 50.6875 
Q 40.28125 56.203125 37.03125 59.390625 
Q 33.796875 62.59375 27.390625 62.59375 
Q 21.578125 62.59375 17.984375 59.609375 
Q 14.40625 56.640625 13.8125 51.21875 
L 4.984375 51.90625 
Q 5.515625 56.453125 7.46875 59.8125 
Q 9.421875 63.1875 12.421875 65.40625 
Q 15.4375 67.625 19.28125 68.71875 
Q 23.140625 69.828125 27.484375 69.828125 
Q 33.25 69.828125 37.390625 68.375 
Q 41.546875 66.9375 44.1875 64.46875 
Q 46.828125 62.015625 48.0625 58.6875 
Q 49.3125 55.375 49.3125 51.609375 
Q 49.3125 48.578125 48.484375 45.9375 
Q 47.65625 43.3125 45.890625 41.203125 
Q 44.140625 39.109375 41.421875 37.59375 
Q 38.71875 36.078125 34.90625 35.296875 
L 34.90625 35.109375 
Q 39.0625 34.671875 42.140625 33.21875 
Q 45.21875 31.78125 47.21875 29.625 
Q 49.21875 27.484375 50.21875 24.75 
Q 51.21875 22.015625 51.21875 19 
" id="LiberationSans-33"/>
      </defs>
      <g style="fill:#262626;" transform="translate(133.287699113 280.413657278)rotate(-30.0)scale(0.08 -0.08)">
       <use xlink:href="#LiberationSans-63"/>
       <use x="50.0" xlink:href="#LiberationSans-6f"/>
       <use x="105.615234375" xlink:href="#LiberationSans-6e"/>
       <use x="161.23046875" xlink:href="#LiberationSans-76"/>
       <use x="211.23046875" xlink:href="#LiberationSans-33"/>
       <use x="266.845703125" xlink:href="#LiberationSans-5f"/>
       <use x="322.4609375" xlink:href="#LiberationSans-31"/>
      </g>
     </g>
    </g>
    <g id="xtick_6">
     <g id="line2d_6">
      <g>
       <use style="fill:#262626;stroke:#262626;stroke-width:0.8;" x="187.684289345" xlink:href="#m260ffde94d" y="254.671"/>
      </g>
     </g>
     <g id="text_6">
      <!-- conv3_2 -->
      <g style="fill:#262626;" transform="translate(160.662433539 280.413657278)rotate(-30.0)scale(0.08 -0.08)">
       <use xlink:href="#LiberationSans-63"/>
       <use x="50.0" xlink:href="#LiberationSans-6f"/>
       <use x="105.615234375" xlink:href="#LiberationSans-6e"/>
       <use x="161.23046875" xlink:href="#LiberationSans-76"/>
       <use x="211.23046875" xlink:href="#LiberationSans-33"/>
       <use x="266.845703125" xlink:href="#LiberationSans-5f"/>
       <use x="322.4609375" xlink:href="#LiberationSans-32"/>
      </g>
     </g>
    </g>
    <g id="xtick_7">
     <g id="line2d_7">
      <g>
       <use style="fill:#262626;stroke:#262626;stroke-width:0.8;" x="215.059023772" xlink:href="#m260ffde94d" y="254.671"/>
      </g>
     </g>
     <g id="text_7">
      <!-- conv3_3 -->
      <g style="fill:#262626;" transform="translate(188.037167966 280.413657278)rotate(-30.0)scale(0.08 -0.08)">
       <use xlink:href="#LiberationSans-63"/>
       <use x="50.0" xlink:href="#LiberationSans-6f"/>
       <use x="105.615234375" xlink:href="#LiberationSans-6e"/>
       <use x="161.23046875" xlink:href="#LiberationSans-76"/>
       <use x="211.23046875" xlink:href="#LiberationSans-33"/>
       <use x="266.845703125" xlink:href="#LiberationSans-5f"/>
       <use x="322.4609375" xlink:href="#LiberationSans-33"/>
      </g>
     </g>
    </g>
    <g id="xtick_8">
     <g id="line2d_8">
      <g>
       <use style="fill:#262626;stroke:#262626;stroke-width:0.8;" x="242.433758198" xlink:href="#m260ffde94d" y="254.671"/>
      </g>
     </g>
     <g id="text_8">
      <!-- conv3_4 -->
      <defs>
       <path d="M 43.015625 15.578125 
L 43.015625 0 
L 34.71875 0 
L 34.71875 15.578125 
L 2.296875 15.578125 
L 2.296875 22.40625 
L 33.796875 68.796875 
L 43.015625 68.796875 
L 43.015625 22.515625 
L 52.6875 22.515625 
L 52.6875 15.578125 
z
M 34.71875 58.890625 
Q 34.625 58.640625 34.234375 57.9375 
Q 33.84375 57.234375 33.34375 56.34375 
Q 32.859375 55.46875 32.34375 54.5625 
Q 31.84375 53.65625 31.453125 53.078125 
L 13.8125 27.09375 
Q 13.578125 26.703125 13.109375 26.0625 
Q 12.640625 25.4375 12.15625 24.78125 
Q 11.671875 24.125 11.171875 23.484375 
Q 10.6875 22.859375 10.40625 22.515625 
L 34.71875 22.515625 
z
" id="LiberationSans-34"/>
      </defs>
      <g style="fill:#262626;" transform="translate(215.411902392 280.413657278)rotate(-30.0)scale(0.08 -0.08)">
       <use xlink:href="#LiberationSans-63"/>
       <use x="50.0" xlink:href="#LiberationSans-6f"/>
       <use x="105.615234375" xlink:href="#LiberationSans-6e"/>
       <use x="161.23046875" xlink:href="#LiberationSans-76"/>
       <use x="211.23046875" xlink:href="#LiberationSans-33"/>
       <use x="266.845703125" xlink:href="#LiberationSans-5f"/>
       <use x="322.4609375" xlink:href="#LiberationSans-34"/>
      </g>
     </g>
    </g>
    <g id="xtick_9">
     <g id="line2d_9">
      <g>
       <use style="fill:#262626;stroke:#262626;stroke-width:0.8;" x="269.808492624" xlink:href="#m260ffde94d" y="254.671"/>
      </g>
     </g>
     <g id="text_9">
      <!-- conv4_1 -->
      <g style="fill:#262626;" transform="translate(242.786636819 280.413657278)rotate(-30.0)scale(0.08 -0.08)">
       <use xlink:href="#LiberationSans-63"/>
       <use x="50.0" xlink:href="#LiberationSans-6f"/>
       <use x="105.615234375" xlink:href="#LiberationSans-6e"/>
       <use x="161.23046875" xlink:href="#LiberationSans-76"/>
       <use x="211.23046875" xlink:href="#LiberationSans-34"/>
       <use x="266.845703125" xlink:href="#LiberationSans-5f"/>
       <use x="322.4609375" xlink:href="#LiberationSans-31"/>
      </g>
     </g>
    </g>
    <g id="xtick_10">
     <g id="line2d_10">
      <g>
       <use style="fill:#262626;stroke:#262626;stroke-width:0.8;" x="297.183227051" xlink:href="#m260ffde94d" y="254.671"/>
      </g>
     </g>
     <g id="text_10">
      <!-- conv4_2 -->
      <g style="fill:#262626;" transform="translate(270.161371245 280.413657278)rotate(-30.0)scale(0.08 -0.08)">
       <use xlink:href="#LiberationSans-63"/>
       <use x="50.0" xlink:href="#LiberationSans-6f"/>
       <use x="105.615234375" xlink:href="#LiberationSans-6e"/>
       <use x="161.23046875" xlink:href="#LiberationSans-76"/>
       <use x="211.23046875" xlink:href="#LiberationSans-34"/>
       <use x="266.845703125" xlink:href="#LiberationSans-5f"/>
       <use x="322.4609375" xlink:href="#LiberationSans-32"/>
      </g>
     </g>
    </g>
    <g id="xtick_11">
     <g id="line2d_11">
      <g>
       <use style="fill:#262626;stroke:#262626;stroke-width:0.8;" x="324.557961477" xlink:href="#m260ffde94d" y="254.671"/>
      </g>
     </g>
     <g id="text_11">
      <!-- conv4_3 -->
      <g style="fill:#262626;" transform="translate(297.536105671 280.413657278)rotate(-30.0)scale(0.08 -0.08)">
       <use xlink:href="#LiberationSans-63"/>
       <use x="50.0" xlink:href="#LiberationSans-6f"/>
       <use x="105.615234375" xlink:href="#LiberationSans-6e"/>
       <use x="161.23046875" xlink:href="#LiberationSans-76"/>
       <use x="211.23046875" xlink:href="#LiberationSans-34"/>
       <use x="266.845703125" xlink:href="#LiberationSans-5f"/>
       <use x="322.4609375" xlink:href="#LiberationSans-33"/>
      </g>
     </g>
    </g>
    <g id="xtick_12">
     <g id="line2d_12">
      <g>
       <use style="fill:#262626;stroke:#262626;stroke-width:0.8;" x="351.932695904" xlink:href="#m260ffde94d" y="254.671"/>
      </g>
     </g>
     <g id="text_12">
      <!-- conv4_4 -->
      <g style="fill:#262626;" transform="translate(324.910840098 280.413657278)rotate(-30.0)scale(0.08 -0.08)">
       <use xlink:href="#LiberationSans-63"/>
       <use x="50.0" xlink:href="#LiberationSans-6f"/>
       <use x="105.615234375" xlink:href="#LiberationSans-6e"/>
       <use x="161.23046875" xlink:href="#LiberationSans-76"/>
       <use x="211.23046875" xlink:href="#LiberationSans-34"/>
       <use x="266.845703125" xlink:href="#LiberationSans-5f"/>
       <use x="322.4609375" xlink:href="#LiberationSans-34"/>
      </g>
     </g>
    </g>
    <g id="xtick_13">
     <g id="line2d_13">
      <g>
       <use style="fill:#262626;stroke:#262626;stroke-width:0.8;" x="379.30743033" xlink:href="#m260ffde94d" y="254.671"/>
      </g>
     </g>
     <g id="text_13">
      <!-- conv5_1 -->
      <defs>
       <path d="M 51.421875 22.40625 
Q 51.421875 17.234375 49.859375 12.9375 
Q 48.296875 8.640625 45.21875 5.53125 
Q 42.140625 2.4375 37.578125 0.71875 
Q 33.015625 -0.984375 27 -0.984375 
Q 21.578125 -0.984375 17.546875 0.28125 
Q 13.53125 1.5625 10.734375 3.78125 
Q 7.953125 6 6.3125 8.984375 
Q 4.6875 11.96875 4 15.375 
L 12.890625 16.40625 
Q 13.421875 14.453125 14.390625 12.625 
Q 15.375 10.796875 17.0625 9.34375 
Q 18.75 7.90625 21.21875 7.046875 
Q 23.6875 6.203125 27.203125 6.203125 
Q 30.609375 6.203125 33.390625 7.25 
Q 36.1875 8.296875 38.15625 10.34375 
Q 40.140625 12.40625 41.203125 15.375 
Q 42.28125 18.359375 42.28125 22.21875 
Q 42.28125 25.390625 41.25 28.046875 
Q 40.234375 30.71875 38.328125 32.640625 
Q 36.421875 34.578125 33.65625 35.640625 
Q 30.90625 36.71875 27.390625 36.71875 
Q 25.203125 36.71875 23.34375 36.328125 
Q 21.484375 35.9375 19.890625 35.25 
Q 18.3125 34.578125 17.015625 33.671875 
Q 15.71875 32.765625 14.59375 31.78125 
L 6 31.78125 
L 8.296875 68.796875 
L 47.40625 68.796875 
L 47.40625 61.328125 
L 16.3125 61.328125 
L 14.984375 39.5 
Q 17.328125 41.3125 20.84375 42.59375 
Q 24.359375 43.890625 29.203125 43.890625 
Q 34.328125 43.890625 38.421875 42.328125 
Q 42.53125 40.765625 45.40625 37.90625 
Q 48.296875 35.0625 49.859375 31.109375 
Q 51.421875 27.15625 51.421875 22.40625 
" id="LiberationSans-35"/>
      </defs>
      <g style="fill:#262626;" transform="translate(352.285574524 280.413657278)rotate(-30.0)scale(0.08 -0.08)">
       <use xlink:href="#LiberationSans-63"/>
       <use x="50.0" xlink:href="#LiberationSans-6f"/>
       <use x="105.615234375" xlink:href="#LiberationSans-6e"/>
       <use x="161.23046875" xlink:href="#LiberationSans-76"/>
       <use x="211.23046875" xlink:href="#LiberationSans-35"/>
       <use x="266.845703125" xlink:href="#LiberationSans-5f"/>
       <use x="322.4609375" xlink:href="#LiberationSans-31"/>
      </g>
     </g>
    </g>
    <g id="xtick_14">
     <g id="line2d_14">
      <g>
       <use style="fill:#262626;stroke:#262626;stroke-width:0.8;" x="406.682164756" xlink:href="#m260ffde94d" y="254.671"/>
      </g>
     </g>
     <g id="text_14">
      <!-- conv5_2 -->
      <g style="fill:#262626;" transform="translate(379.660308951 280.413657278)rotate(-30.0)scale(0.08 -0.08)">
       <use xlink:href="#LiberationSans-63"/>
       <use x="50.0" xlink:href="#LiberationSans-6f"/>
       <use x="105.615234375" xlink:href="#LiberationSans-6e"/>
       <use x="161.23046875" xlink:href="#LiberationSans-76"/>
       <use x="211.23046875" xlink:href="#LiberationSans-35"/>
       <use x="266.845703125" xlink:href="#LiberationSans-5f"/>
       <use x="322.4609375" xlink:href="#LiberationSans-32"/>
      </g>
     </g>
    </g>
    <g id="xtick_15">
     <g id="line2d_15">
      <g>
       <use style="fill:#262626;stroke:#262626;stroke-width:0.8;" x="434.056899183" xlink:href="#m260ffde94d" y="254.671"/>
      </g>
     </g>
     <g id="text_15">
      <!-- conv5_3 -->
      <g style="fill:#262626;" transform="translate(407.035043377 280.413657278)rotate(-30.0)scale(0.08 -0.08)">
       <use xlink:href="#LiberationSans-63"/>
       <use x="50.0" xlink:href="#LiberationSans-6f"/>
       <use x="105.615234375" xlink:href="#LiberationSans-6e"/>
       <use x="161.23046875" xlink:href="#LiberationSans-76"/>
       <use x="211.23046875" xlink:href="#LiberationSans-35"/>
       <use x="266.845703125" xlink:href="#LiberationSans-5f"/>
       <use x="322.4609375" xlink:href="#LiberationSans-33"/>
      </g>
     </g>
    </g>
    <g id="xtick_16">
     <g id="line2d_16">
      <g>
       <use style="fill:#262626;stroke:#262626;stroke-width:0.8;" x="461.431633609" xlink:href="#m260ffde94d" y="254.671"/>
      </g>
     </g>
     <g id="text_16">
      <!-- conv5_4 -->
      <g style="fill:#262626;" transform="translate(434.409777803 280.413657278)rotate(-30.0)scale(0.08 -0.08)">
       <use xlink:href="#LiberationSans-63"/>
       <use x="50.0" xlink:href="#LiberationSans-6f"/>
       <use x="105.615234375" xlink:href="#LiberationSans-6e"/>
       <use x="161.23046875" xlink:href="#LiberationSans-76"/>
       <use x="211.23046875" xlink:href="#LiberationSans-35"/>
       <use x="266.845703125" xlink:href="#LiberationSans-5f"/>
       <use x="322.4609375" xlink:href="#LiberationSans-34"/>
      </g>
     </g>
    </g>
    <g id="xtick_17">
     <g id="line2d_17">
      <g>
       <use style="fill:#262626;stroke:#262626;stroke-width:0.8;" x="488.806368036" xlink:href="#m260ffde94d" y="254.671"/>
      </g>
     </g>
     <g id="text_17">
      <!-- fc6 -->
      <defs>
       <path d="M 51.21875 22.515625 
Q 51.21875 17.328125 49.78125 13 
Q 48.34375 8.6875 45.53125 5.578125 
Q 42.71875 2.484375 38.5625 0.75 
Q 34.421875 -0.984375 29 -0.984375 
Q 23 -0.984375 18.5 1.3125 
Q 14.015625 3.609375 11.03125 7.921875 
Q 8.0625 12.25 6.5625 18.53125 
Q 5.078125 24.8125 5.078125 32.8125 
Q 5.078125 42 6.765625 48.921875 
Q 8.453125 55.859375 11.625 60.5 
Q 14.796875 65.140625 19.359375 67.484375 
Q 23.921875 69.828125 29.6875 69.828125 
Q 33.203125 69.828125 36.28125 69.09375 
Q 39.359375 68.359375 41.875 66.71875 
Q 44.390625 65.09375 46.28125 62.40625 
Q 48.1875 59.71875 49.3125 55.8125 
L 40.921875 54.296875 
Q 39.546875 58.734375 36.546875 60.71875 
Q 33.546875 62.703125 29.59375 62.703125 
Q 25.984375 62.703125 23.046875 60.984375 
Q 20.125 59.28125 18.0625 55.875 
Q 16.015625 52.484375 14.90625 47.359375 
Q 13.8125 42.234375 13.8125 35.40625 
Q 16.21875 39.84375 20.5625 42.15625 
Q 24.90625 44.484375 30.515625 44.484375 
Q 35.203125 44.484375 39.015625 42.96875 
Q 42.828125 41.453125 45.53125 38.59375 
Q 48.25 35.75 49.734375 31.671875 
Q 51.21875 27.59375 51.21875 22.515625 
M 42.28125 22.125 
Q 42.28125 25.6875 41.40625 28.5625 
Q 40.53125 31.453125 38.765625 33.46875 
Q 37.015625 35.5 34.421875 36.59375 
Q 31.84375 37.703125 28.421875 37.703125 
Q 26.03125 37.703125 23.578125 36.984375 
Q 21.140625 36.28125 19.15625 34.6875 
Q 17.1875 33.109375 15.9375 30.515625 
Q 14.703125 27.9375 14.703125 24.21875 
Q 14.703125 20.40625 15.671875 17.109375 
Q 16.65625 13.8125 18.484375 11.375 
Q 20.3125 8.9375 22.890625 7.515625 
Q 25.484375 6.109375 28.71875 6.109375 
Q 31.890625 6.109375 34.40625 7.203125 
Q 36.921875 8.296875 38.671875 10.375 
Q 40.4375 12.453125 41.359375 15.421875 
Q 42.28125 18.40625 42.28125 22.125 
" id="LiberationSans-36"/>
       <path d="M 17.625 46.4375 
L 17.625 0 
L 8.84375 0 
L 8.84375 46.4375 
L 1.421875 46.4375 
L 1.421875 52.828125 
L 8.84375 52.828125 
L 8.84375 58.796875 
Q 8.84375 61.671875 9.375 64.140625 
Q 9.90625 66.609375 11.34375 68.4375 
Q 12.796875 70.265625 15.28125 71.3125 
Q 17.78125 72.359375 21.734375 72.359375 
Q 23.296875 72.359375 24.96875 72.21875 
Q 26.65625 72.078125 27.9375 71.78125 
L 27.9375 65.09375 
Q 27.09375 65.234375 26 65.359375 
Q 24.90625 65.484375 24.03125 65.484375 
Q 22.078125 65.484375 20.828125 64.9375 
Q 19.578125 64.40625 18.875 63.40625 
Q 18.171875 62.40625 17.890625 60.9375 
Q 17.625 59.46875 17.625 57.5625 
L 17.625 52.828125 
L 27.9375 52.828125 
L 27.9375 46.4375 
z
" id="LiberationSans-66"/>
      </defs>
      <g style="fill:#262626;" transform="translate(483.470743036 266.0685)scale(0.08 -0.08)">
       <use xlink:href="#LiberationSans-66"/>
       <use x="27.783203125" xlink:href="#LiberationSans-63"/>
       <use x="77.783203125" xlink:href="#LiberationSans-36"/>
      </g>
     </g>
    </g>
    <g id="xtick_18">
     <g id="line2d_18">
      <g>
       <use style="fill:#262626;stroke:#262626;stroke-width:0.8;" x="516.181102462" xlink:href="#m260ffde94d" y="254.671"/>
      </g>
     </g>
     <g id="text_18">
      <!-- fc7 -->
      <defs>
       <path d="M 50.59375 61.671875 
Q 45.40625 53.765625 41.0625 46.453125 
Q 36.71875 39.15625 33.59375 31.75 
Q 30.46875 24.359375 28.734375 16.578125 
Q 27 8.796875 27 0 
L 17.828125 0 
Q 17.828125 8.25 19.78125 16.1875 
Q 21.734375 24.125 25.046875 31.765625 
Q 28.375 39.40625 32.765625 46.78125 
Q 37.15625 54.15625 42.09375 61.328125 
L 5.125 61.328125 
L 5.125 68.796875 
L 50.59375 68.796875 
z
" id="LiberationSans-37"/>
      </defs>
      <g style="fill:#262626;" transform="translate(510.845477462 266.0685)scale(0.08 -0.08)">
       <use xlink:href="#LiberationSans-66"/>
       <use x="27.783203125" xlink:href="#LiberationSans-63"/>
       <use x="77.783203125" xlink:href="#LiberationSans-37"/>
      </g>
     </g>
    </g>
    <g id="xtick_19">
     <g id="line2d_19">
      <g>
       <use style="fill:#262626;stroke:#262626;stroke-width:0.8;" x="543.555836888" xlink:href="#m260ffde94d" y="254.671"/>
      </g>
     </g>
     <g id="text_19">
      <!-- fc8 -->
      <defs>
       <path d="M 51.265625 19.1875 
Q 51.265625 14.796875 49.875 11.109375 
Q 48.484375 7.421875 45.625 4.734375 
Q 42.78125 2.046875 38.328125 0.53125 
Q 33.890625 -0.984375 27.828125 -0.984375 
Q 21.78125 -0.984375 17.359375 0.53125 
Q 12.9375 2.046875 10.03125 4.703125 
Q 7.125 7.375 5.734375 11.0625 
Q 4.34375 14.75 4.34375 19.09375 
Q 4.34375 22.859375 5.484375 25.78125 
Q 6.640625 28.71875 8.5625 30.828125 
Q 10.5 32.953125 12.96875 34.25 
Q 15.4375 35.546875 18.0625 35.984375 
L 18.0625 36.1875 
Q 15.1875 36.859375 12.90625 38.375 
Q 10.640625 39.890625 9.09375 42.015625 
Q 7.5625 44.140625 6.75 46.71875 
Q 5.953125 49.3125 5.953125 52.203125 
Q 5.953125 55.8125 7.34375 59 
Q 8.734375 62.203125 11.46875 64.625 
Q 14.203125 67.046875 18.25 68.4375 
Q 22.3125 69.828125 27.640625 69.828125 
Q 33.25 69.828125 37.375 68.40625 
Q 41.5 67 44.203125 64.578125 
Q 46.921875 62.15625 48.234375 58.9375 
Q 49.5625 55.71875 49.5625 52.09375 
Q 49.5625 49.265625 48.75 46.671875 
Q 47.953125 44.09375 46.40625 41.96875 
Q 44.875 39.84375 42.59375 38.34375 
Q 40.328125 36.859375 37.359375 36.28125 
L 37.359375 36.078125 
Q 40.328125 35.59375 42.859375 34.296875 
Q 45.40625 33.015625 47.265625 30.890625 
Q 49.125 28.765625 50.1875 25.828125 
Q 51.265625 22.90625 51.265625 19.1875 
M 40.4375 51.609375 
Q 40.4375 54.203125 39.765625 56.34375 
Q 39.109375 58.5 37.59375 60.03125 
Q 36.078125 61.578125 33.640625 62.421875 
Q 31.203125 63.28125 27.640625 63.28125 
Q 24.171875 63.28125 21.78125 62.421875 
Q 19.390625 61.578125 17.84375 60.03125 
Q 16.3125 58.5 15.625 56.34375 
Q 14.9375 54.203125 14.9375 51.609375 
Q 14.9375 49.5625 15.46875 47.40625 
Q 16.015625 45.265625 17.421875 43.5 
Q 18.84375 41.75 21.328125 40.625 
Q 23.828125 39.5 27.734375 39.5 
Q 31.890625 39.5 34.40625 40.625 
Q 36.921875 41.75 38.25 43.5 
Q 39.59375 45.265625 40.015625 47.40625 
Q 40.4375 49.5625 40.4375 51.609375 
M 42.140625 20.015625 
Q 42.140625 22.515625 41.453125 24.828125 
Q 40.765625 27.15625 39.109375 28.9375 
Q 37.453125 30.71875 34.640625 31.8125 
Q 31.84375 32.90625 27.640625 32.90625 
Q 23.78125 32.90625 21.0625 31.8125 
Q 18.359375 30.71875 16.671875 28.90625 
Q 14.984375 27.09375 14.203125 24.71875 
Q 13.421875 22.359375 13.421875 19.828125 
Q 13.421875 16.65625 14.203125 14.03125 
Q 14.984375 11.421875 16.6875 9.546875 
Q 18.40625 7.671875 21.1875 6.640625 
Q 23.96875 5.609375 27.9375 5.609375 
Q 31.9375 5.609375 34.671875 6.640625 
Q 37.40625 7.671875 39.0625 9.546875 
Q 40.71875 11.421875 41.421875 14.078125 
Q 42.140625 16.75 42.140625 20.015625 
" id="LiberationSans-38"/>
      </defs>
      <g style="fill:#262626;" transform="translate(538.220211888 266.0685)scale(0.08 -0.08)">
       <use xlink:href="#LiberationSans-66"/>
       <use x="27.783203125" xlink:href="#LiberationSans-63"/>
       <use x="77.783203125" xlink:href="#LiberationSans-38"/>
      </g>
     </g>
    </g>
    <g id="text_20">
     <!-- layer -->
     <defs>
      <path d="M 13.484375 24.5625 
Q 13.484375 20.40625 14.328125 16.90625 
Q 15.1875 13.421875 16.96875 10.90625 
Q 18.75 8.40625 21.53125 7 
Q 24.3125 5.609375 28.21875 5.609375 
Q 33.9375 5.609375 37.375 7.90625 
Q 40.828125 10.203125 42.046875 13.71875 
L 49.75 11.53125 
Q 48.921875 9.328125 47.4375 7.109375 
Q 45.953125 4.890625 43.453125 3.09375 
Q 40.96875 1.3125 37.234375 0.15625 
Q 33.5 -0.984375 28.21875 -0.984375 
Q 16.5 -0.984375 10.375 6 
Q 4.25 12.984375 4.25 26.765625 
Q 4.25 34.1875 6.09375 39.328125 
Q 7.953125 44.484375 11.171875 47.703125 
Q 14.40625 50.921875 18.703125 52.359375 
Q 23 53.8125 27.875 53.8125 
Q 34.515625 53.8125 38.984375 51.65625 
Q 43.453125 49.515625 46.15625 45.71875 
Q 48.875 41.9375 50.015625 36.8125 
Q 51.171875 31.6875 51.171875 25.734375 
L 51.171875 24.5625 
z
M 42.09375 31.296875 
Q 41.359375 39.65625 37.84375 43.484375 
Q 34.328125 47.3125 27.734375 47.3125 
Q 25.53125 47.3125 23.109375 46.609375 
Q 20.703125 45.90625 18.65625 44.09375 
Q 16.609375 42.28125 15.1875 39.171875 
Q 13.765625 36.078125 13.578125 31.296875 
z
" id="LiberationSans-65"/>
      <path d="M 29.5 0 
Q 27.640625 -4.78125 25.703125 -8.609375 
Q 23.78125 -12.453125 21.390625 -15.15625 
Q 19 -17.875 16.0625 -19.3125 
Q 13.140625 -20.75 9.328125 -20.75 
Q 7.671875 -20.75 6.25 -20.65625 
Q 4.828125 -20.5625 3.265625 -20.21875 
L 3.265625 -13.625 
Q 4.203125 -13.765625 5.375 -13.84375 
Q 6.546875 -13.921875 7.375 -13.921875 
Q 11.234375 -13.921875 14.546875 -11.03125 
Q 17.875 -8.15625 20.359375 -1.859375 
L 21.1875 0.25 
L 0.25 52.828125 
L 9.625 52.828125 
L 20.75 23.640625 
Q 21.234375 22.3125 21.984375 20.109375 
Q 22.75 17.921875 23.5 15.71875 
Q 24.265625 13.53125 24.84375 11.765625 
Q 25.4375 10.015625 25.53125 9.578125 
Q 25.6875 10.109375 26.25 11.6875 
Q 26.8125 13.28125 27.515625 15.234375 
Q 28.21875 17.1875 28.953125 19.1875 
Q 29.6875 21.1875 30.171875 22.65625 
L 40.53125 52.828125 
L 49.8125 52.828125 
z
" id="LiberationSans-79"/>
      <path d="M 6.9375 0 
L 6.9375 40.53125 
Q 6.9375 42.1875 6.90625 43.921875 
Q 6.890625 45.65625 6.828125 47.265625 
Q 6.78125 48.875 6.734375 50.28125 
Q 6.6875 51.703125 6.640625 52.828125 
L 14.9375 52.828125 
Q 14.984375 51.703125 15.0625 50.265625 
Q 15.140625 48.828125 15.203125 47.3125 
Q 15.28125 45.796875 15.296875 44.40625 
Q 15.328125 43.015625 15.328125 42.046875 
L 15.53125 42.046875 
Q 16.453125 45.0625 17.5 47.28125 
Q 18.5625 49.515625 19.96875 50.953125 
Q 21.390625 52.390625 23.34375 53.09375 
Q 25.296875 53.8125 28.078125 53.8125 
Q 29.15625 53.8125 30.125 53.640625 
Q 31.109375 53.46875 31.640625 53.328125 
L 31.640625 45.265625 
Q 30.765625 45.515625 29.59375 45.625 
Q 28.421875 45.75 26.953125 45.75 
Q 23.921875 45.75 21.796875 44.375 
Q 19.671875 43.015625 18.328125 40.59375 
Q 17 38.1875 16.359375 34.84375 
Q 15.71875 31.5 15.71875 27.546875 
L 15.71875 0 
z
" id="LiberationSans-72"/>
      <path d="M 20.21875 -0.984375 
Q 12.25 -0.984375 8.25 3.21875 
Q 4.25 7.421875 4.25 14.75 
Q 4.25 19.96875 6.21875 23.3125 
Q 8.203125 26.65625 11.390625 28.5625 
Q 14.59375 30.46875 18.6875 31.203125 
Q 22.796875 31.9375 27.046875 32.03125 
L 38.921875 32.234375 
L 38.921875 35.109375 
Q 38.921875 38.375 38.234375 40.671875 
Q 37.546875 42.96875 36.125 44.375 
Q 34.71875 45.796875 32.59375 46.453125 
Q 30.46875 47.125 27.59375 47.125 
Q 25.046875 47.125 23 46.75 
Q 20.953125 46.390625 19.4375 45.4375 
Q 17.921875 44.484375 16.984375 42.84375 
Q 16.0625 41.21875 15.765625 38.71875 
L 6.59375 39.546875 
Q 7.078125 42.671875 8.4375 45.28125 
Q 9.8125 47.90625 12.328125 49.796875 
Q 14.84375 51.703125 18.625 52.75 
Q 22.40625 53.8125 27.78125 53.8125 
Q 37.75 53.8125 42.765625 49.234375 
Q 47.796875 44.671875 47.796875 36.03125 
L 47.796875 13.28125 
Q 47.796875 9.375 48.828125 7.390625 
Q 49.859375 5.421875 52.734375 5.421875 
Q 53.46875 5.421875 54.203125 5.515625 
Q 54.9375 5.609375 55.609375 5.765625 
L 55.609375 0.296875 
Q 53.953125 -0.09375 52.3125 -0.28125 
Q 50.6875 -0.484375 48.828125 -0.484375 
Q 46.34375 -0.484375 44.5625 0.171875 
Q 42.78125 0.828125 41.65625 2.171875 
Q 40.53125 3.515625 39.9375 5.484375 
Q 39.359375 7.46875 39.203125 10.109375 
L 38.921875 10.109375 
Q 37.5 7.5625 35.8125 5.515625 
Q 34.125 3.46875 31.875 2.03125 
Q 29.640625 0.59375 26.78125 -0.1875 
Q 23.921875 -0.984375 20.21875 -0.984375 
M 22.21875 5.609375 
Q 26.421875 5.609375 29.5625 7.140625 
Q 32.71875 8.6875 34.78125 11.078125 
Q 36.859375 13.484375 37.890625 16.3125 
Q 38.921875 19.140625 38.921875 21.734375 
L 38.921875 26.078125 
L 29.296875 25.875 
Q 26.078125 25.828125 23.171875 25.40625 
Q 20.265625 25 18.0625 23.78125 
Q 15.875 22.5625 14.578125 20.359375 
Q 13.28125 18.171875 13.28125 14.59375 
Q 13.28125 10.296875 15.59375 7.953125 
Q 17.921875 5.609375 22.21875 5.609375 
" id="LiberationSans-61"/>
      <path d="M 6.734375 0 
L 6.734375 72.46875 
L 15.53125 72.46875 
L 15.53125 0 
z
" id="LiberationSans-6c"/>
     </defs>
     <g style="fill:#262626;" transform="translate(287.646914551 293.228509449)scale(0.088 -0.088)">
      <use xlink:href="#LiberationSans-6c"/>
      <use x="22.216796875" xlink:href="#LiberationSans-61"/>
      <use x="77.83203125" xlink:href="#LiberationSans-79"/>
      <use x="127.83203125" xlink:href="#LiberationSans-65"/>
      <use x="183.447265625" xlink:href="#LiberationSans-72"/>
     </g>
    </g>
   </g>
   <g id="matplotlib.axis_2">
    <g id="ytick_1">
     <g id="line2d_20">
      <g>
       <use style="fill:#262626;stroke:#262626;stroke-width:0.8;" x="37.12325" xlink:href="#m260ffde94d" y="254.671"/>
      </g>
     </g>
     <g id="text_21">
      <!-- 0.0 -->
      <defs>
       <path d="M 9.125 0 
L 9.125 10.6875 
L 18.65625 10.6875 
L 18.65625 0 
z
" id="LiberationSans-2e"/>
       <path d="M 51.703125 34.421875 
Q 51.703125 24.515625 49.828125 17.75 
Q 47.953125 10.984375 44.703125 6.8125 
Q 41.453125 2.640625 37.0625 0.828125 
Q 32.671875 -0.984375 27.6875 -0.984375 
Q 22.65625 -0.984375 18.3125 0.828125 
Q 13.96875 2.640625 10.765625 6.78125 
Q 7.5625 10.9375 5.734375 17.703125 
Q 3.90625 24.46875 3.90625 34.421875 
Q 3.90625 44.828125 5.734375 51.640625 
Q 7.5625 58.453125 10.78125 62.5 
Q 14.015625 66.546875 18.40625 68.1875 
Q 22.796875 69.828125 27.984375 69.828125 
Q 32.90625 69.828125 37.21875 68.1875 
Q 41.546875 66.546875 44.765625 62.5 
Q 48 58.453125 49.84375 51.640625 
Q 51.703125 44.828125 51.703125 34.421875 
M 42.78125 34.421875 
Q 42.78125 42.625 41.796875 48.0625 
Q 40.828125 53.515625 38.921875 56.765625 
Q 37.015625 60.015625 34.25 61.359375 
Q 31.5 62.703125 27.984375 62.703125 
Q 24.265625 62.703125 21.4375 61.328125 
Q 18.609375 59.96875 16.671875 56.71875 
Q 14.75 53.46875 13.765625 48.015625 
Q 12.796875 42.578125 12.796875 34.421875 
Q 12.796875 26.515625 13.796875 21.09375 
Q 14.796875 15.671875 16.71875 12.375 
Q 18.65625 9.078125 21.4375 7.640625 
Q 24.21875 6.203125 27.78125 6.203125 
Q 31.25 6.203125 34.03125 7.640625 
Q 36.8125 9.078125 38.734375 12.375 
Q 40.671875 15.671875 41.71875 21.09375 
Q 42.78125 26.515625 42.78125 34.421875 
" id="LiberationSans-30"/>
      </defs>
      <g style="fill:#262626;" transform="translate(20.40325 256.73975)scale(0.08 -0.08)">
       <use xlink:href="#LiberationSans-30"/>
       <use x="55.615234375" xlink:href="#LiberationSans-2e"/>
       <use x="83.3984375" xlink:href="#LiberationSans-30"/>
      </g>
     </g>
    </g>
    <g id="ytick_2">
     <g id="line2d_21">
      <g>
       <use style="fill:#262626;stroke:#262626;stroke-width:0.8;" x="37.12325" xlink:href="#m260ffde94d" y="207.5682"/>
      </g>
     </g>
     <g id="text_22">
      <!-- 0.2 -->
      <g style="fill:#262626;" transform="translate(20.40325 209.63695)scale(0.08 -0.08)">
       <use xlink:href="#LiberationSans-30"/>
       <use x="55.615234375" xlink:href="#LiberationSans-2e"/>
       <use x="83.3984375" xlink:href="#LiberationSans-32"/>
      </g>
     </g>
    </g>
    <g id="ytick_3">
     <g id="line2d_22">
      <g>
       <use style="fill:#262626;stroke:#262626;stroke-width:0.8;" x="37.12325" xlink:href="#m260ffde94d" y="160.4654"/>
      </g>
     </g>
     <g id="text_23">
      <!-- 0.4 -->
      <g style="fill:#262626;" transform="translate(20.40325 162.53415)scale(0.08 -0.08)">
       <use xlink:href="#LiberationSans-30"/>
       <use x="55.615234375" xlink:href="#LiberationSans-2e"/>
       <use x="83.3984375" xlink:href="#LiberationSans-34"/>
      </g>
     </g>
    </g>
    <g id="ytick_4">
     <g id="line2d_23">
      <g>
       <use style="fill:#262626;stroke:#262626;stroke-width:0.8;" x="37.12325" xlink:href="#m260ffde94d" y="113.3626"/>
      </g>
     </g>
     <g id="text_24">
      <!-- 0.6 -->
      <g style="fill:#262626;" transform="translate(20.40325 115.43135)scale(0.08 -0.08)">
       <use xlink:href="#LiberationSans-30"/>
       <use x="55.615234375" xlink:href="#LiberationSans-2e"/>
       <use x="83.3984375" xlink:href="#LiberationSans-36"/>
      </g>
     </g>
    </g>
    <g id="ytick_5">
     <g id="line2d_24">
      <g>
       <use style="fill:#262626;stroke:#262626;stroke-width:0.8;" x="37.12325" xlink:href="#m260ffde94d" y="66.2598"/>
      </g>
     </g>
     <g id="text_25">
      <!-- 0.8 -->
      <g style="fill:#262626;" transform="translate(20.40325 68.32855)scale(0.08 -0.08)">
       <use xlink:href="#LiberationSans-30"/>
       <use x="55.615234375" xlink:href="#LiberationSans-2e"/>
       <use x="83.3984375" xlink:href="#LiberationSans-38"/>
      </g>
     </g>
    </g>
    <g id="ytick_6">
     <g id="line2d_25">
      <g>
       <use style="fill:#262626;stroke:#262626;stroke-width:0.8;" x="37.12325" xlink:href="#m260ffde94d" y="19.157"/>
      </g>
     </g>
     <g id="text_26">
      <!-- 1.0 -->
      <g style="fill:#262626;" transform="translate(20.40325 21.22575)scale(0.08 -0.08)">
       <use xlink:href="#LiberationSans-31"/>
       <use x="55.615234375" xlink:href="#LiberationSans-2e"/>
       <use x="83.3984375" xlink:href="#LiberationSans-30"/>
      </g>
     </g>
    </g>
    <g id="text_27">
     <!-- correlation -->
     <defs>
      <path d="M 6.6875 64.0625 
L 6.6875 72.46875 
L 15.484375 72.46875 
L 15.484375 64.0625 
z
M 6.6875 0 
L 6.6875 52.828125 
L 15.484375 52.828125 
L 15.484375 0 
z
" id="LiberationSans-69"/>
      <path d="M 27.046875 0.390625 
Q 25.046875 -0.140625 22.96875 -0.453125 
Q 20.90625 -0.78125 18.171875 -0.78125 
Q 7.625 -0.78125 7.625 11.1875 
L 7.625 46.4375 
L 1.515625 46.4375 
L 1.515625 52.828125 
L 7.953125 52.828125 
L 10.546875 64.65625 
L 16.40625 64.65625 
L 16.40625 52.828125 
L 26.171875 52.828125 
L 26.171875 46.4375 
L 16.40625 46.4375 
L 16.40625 13.09375 
Q 16.40625 9.28125 17.640625 7.734375 
Q 18.890625 6.203125 21.96875 6.203125 
Q 23.25 6.203125 24.4375 6.390625 
Q 25.640625 6.59375 27.046875 6.890625 
z
" id="LiberationSans-74"/>
     </defs>
     <g style="fill:#262626;" transform="translate(13.57725 157.4558125)rotate(-90.0)scale(0.088 -0.088)">
      <use xlink:href="#LiberationSans-63"/>
      <use x="50.0" xlink:href="#LiberationSans-6f"/>
      <use x="105.615234375" xlink:href="#LiberationSans-72"/>
      <use x="138.916015625" xlink:href="#LiberationSans-72"/>
      <use x="172.216796875" xlink:href="#LiberationSans-65"/>
      <use x="227.83203125" xlink:href="#LiberationSans-6c"/>
      <use x="250.048828125" xlink:href="#LiberationSans-61"/>
      <use x="305.6640625" xlink:href="#LiberationSans-74"/>
      <use x="333.447265625" xlink:href="#LiberationSans-69"/>
      <use x="355.6640625" xlink:href="#LiberationSans-6f"/>
      <use x="411.279296875" xlink:href="#LiberationSans-6e"/>
     </g>
    </g>
   </g>
   <g id="PathCollection_1">
    <defs>
     <path d="M 0 3.158352 
C 0.837605 3.158352 1.641016 2.825568 2.233292 2.233292 
C 2.825568 1.641016 3.158352 0.837605 3.158352 0 
C 3.158352 -0.837605 2.825568 -1.641016 2.233292 -2.233292 
C 1.641016 -2.825568 0.837605 -3.158352 0 -3.158352 
C -0.837605 -3.158352 -1.641016 -2.825568 -2.233292 -2.233292 
C -2.825568 -1.641016 -3.158352 -0.837605 -3.158352 0 
C -3.158352 0.837605 -2.825568 1.641016 -2.233292 2.233292 
C -1.641016 2.825568 -0.837605 3.158352 0 3.158352 
z
" id="C0_0_b695dfad7c"/>
    </defs>
    <g clip-path="url(#p680daedb7f)">
     <use style="fill:#66c2a5;stroke:#66c2a5;stroke-width:1.89;" x="50.8106172132" xlink:href="#C0_0_b695dfad7c" y="30.0239938702"/>
    </g>
    <g clip-path="url(#p680daedb7f)">
     <use style="fill:#66c2a5;stroke:#66c2a5;stroke-width:1.89;" x="78.1853516396" xlink:href="#C0_0_b695dfad7c" y="31.5159840942"/>
    </g>
    <g clip-path="url(#p680daedb7f)">
     <use style="fill:#66c2a5;stroke:#66c2a5;stroke-width:1.89;" x="105.560086066" xlink:href="#C0_0_b695dfad7c" y="52.4945108655"/>
    </g>
    <g clip-path="url(#p680daedb7f)">
     <use style="fill:#66c2a5;stroke:#66c2a5;stroke-width:1.89;" x="132.934820492" xlink:href="#C0_0_b695dfad7c" y="62.912634357"/>
    </g>
    <g clip-path="url(#p680daedb7f)">
     <use style="fill:#66c2a5;stroke:#66c2a5;stroke-width:1.89;" x="160.309554919" xlink:href="#C0_0_b695dfad7c" y="56.0891542335"/>
    </g>
    <g clip-path="url(#p680daedb7f)">
     <use style="fill:#66c2a5;stroke:#66c2a5;stroke-width:1.89;" x="187.684289345" xlink:href="#C0_0_b695dfad7c" y="53.400477454"/>
    </g>
    <g clip-path="url(#p680daedb7f)">
     <use style="fill:#66c2a5;stroke:#66c2a5;stroke-width:1.89;" x="215.059023772" xlink:href="#C0_0_b695dfad7c" y="44.2312825808"/>
    </g>
    <g clip-path="url(#p680daedb7f)">
     <use style="fill:#66c2a5;stroke:#66c2a5;stroke-width:1.89;" x="242.433758198" xlink:href="#C0_0_b695dfad7c" y="51.3368853289"/>
    </g>
    <g clip-path="url(#p680daedb7f)">
     <use style="fill:#66c2a5;stroke:#66c2a5;stroke-width:1.89;" x="269.808492624" xlink:href="#C0_0_b695dfad7c" y="51.7984565664"/>
    </g>
    <g clip-path="url(#p680daedb7f)">
     <use style="fill:#66c2a5;stroke:#66c2a5;stroke-width:1.89;" x="297.183227051" xlink:href="#C0_0_b695dfad7c" y="49.9754697024"/>
    </g>
    <g clip-path="url(#p680daedb7f)">
     <use style="fill:#66c2a5;stroke:#66c2a5;stroke-width:1.89;" x="324.557961477" xlink:href="#C0_0_b695dfad7c" y="49.4500588499"/>
    </g>
    <g clip-path="url(#p680daedb7f)">
     <use style="fill:#66c2a5;stroke:#66c2a5;stroke-width:1.89;" x="351.932695904" xlink:href="#C0_0_b695dfad7c" y="51.1765990142"/>
    </g>
    <g clip-path="url(#p680daedb7f)">
     <use style="fill:#66c2a5;stroke:#66c2a5;stroke-width:1.89;" x="379.30743033" xlink:href="#C0_0_b695dfad7c" y="55.8213646361"/>
    </g>
    <g clip-path="url(#p680daedb7f)">
     <use style="fill:#66c2a5;stroke:#66c2a5;stroke-width:1.89;" x="406.682164756" xlink:href="#C0_0_b695dfad7c" y="67.3178101574"/>
    </g>
    <g clip-path="url(#p680daedb7f)">
     <use style="fill:#66c2a5;stroke:#66c2a5;stroke-width:1.89;" x="434.056899183" xlink:href="#C0_0_b695dfad7c" y="108.16498307"/>
    </g>
    <g clip-path="url(#p680daedb7f)">
     <use style="fill:#66c2a5;stroke:#66c2a5;stroke-width:1.89;" x="461.431633609" xlink:href="#C0_0_b695dfad7c" y="189.377089491"/>
    </g>
    <g clip-path="url(#p680daedb7f)">
     <use style="fill:#66c2a5;stroke:#66c2a5;stroke-width:1.89;" x="488.806368036" xlink:href="#C0_0_b695dfad7c" y="243.383481525"/>
    </g>
    <g clip-path="url(#p680daedb7f)">
     <use style="fill:#66c2a5;stroke:#66c2a5;stroke-width:1.89;" x="516.181102462" xlink:href="#C0_0_b695dfad7c" y="249.330888511"/>
    </g>
    <g clip-path="url(#p680daedb7f)">
     <use style="fill:#66c2a5;stroke:#66c2a5;stroke-width:1.89;" x="543.555836888" xlink:href="#C0_0_b695dfad7c" y="243.861759827"/>
    </g>
   </g>
   <g id="line2d_26">
    <path clip-path="url(#p680daedb7f)" d="M 50.810617 30.023994 
L 78.185352 31.515984 
L 105.560086 52.494511 
L 132.93482 62.912634 
L 160.309555 56.089154 
L 187.684289 53.400477 
L 215.059024 44.231283 
L 242.433758 51.336885 
L 269.808493 51.798457 
L 297.183227 49.97547 
L 324.557961 49.450059 
L 351.932696 51.176599 
L 379.30743 55.821365 
L 406.682165 67.31781 
L 434.056899 108.164983 
L 461.431634 189.377089 
L 488.806368 243.383482 
L 516.181102 249.330889 
L 543.555837 243.86176 
" style="fill:none;stroke:#66c2a5;stroke-linecap:round;stroke-width:2.52;"/>
   </g>
   <g id="line2d_27">
    <path clip-path="url(#p680daedb7f)" d="M 50.810617 30.023994 
L 50.810617 30.023994 
" style="fill:none;stroke:#66c2a5;stroke-linecap:round;stroke-width:2.52;"/>
   </g>
   <g id="line2d_28">
    <path clip-path="url(#p680daedb7f)" d="M 78.185352 31.515984 
L 78.185352 31.515984 
" style="fill:none;stroke:#66c2a5;stroke-linecap:round;stroke-width:2.52;"/>
   </g>
   <g id="line2d_29">
    <path clip-path="url(#p680daedb7f)" d="M 105.560086 52.494511 
L 105.560086 52.494511 
" style="fill:none;stroke:#66c2a5;stroke-linecap:round;stroke-width:2.52;"/>
   </g>
   <g id="line2d_30">
    <path clip-path="url(#p680daedb7f)" d="M 132.93482 62.912634 
L 132.93482 62.912634 
" style="fill:none;stroke:#66c2a5;stroke-linecap:round;stroke-width:2.52;"/>
   </g>
   <g id="line2d_31">
    <path clip-path="url(#p680daedb7f)" d="M 160.309555 56.089154 
L 160.309555 56.089154 
" style="fill:none;stroke:#66c2a5;stroke-linecap:round;stroke-width:2.52;"/>
   </g>
   <g id="line2d_32">
    <path clip-path="url(#p680daedb7f)" d="M 187.684289 53.400477 
L 187.684289 53.400477 
" style="fill:none;stroke:#66c2a5;stroke-linecap:round;stroke-width:2.52;"/>
   </g>
   <g id="line2d_33">
    <path clip-path="url(#p680daedb7f)" d="M 215.059024 44.231283 
L 215.059024 44.231283 
" style="fill:none;stroke:#66c2a5;stroke-linecap:round;stroke-width:2.52;"/>
   </g>
   <g id="line2d_34">
    <path clip-path="url(#p680daedb7f)" d="M 242.433758 51.336885 
L 242.433758 51.336885 
" style="fill:none;stroke:#66c2a5;stroke-linecap:round;stroke-width:2.52;"/>
   </g>
   <g id="line2d_35">
    <path clip-path="url(#p680daedb7f)" d="M 269.808493 51.798457 
L 269.808493 51.798457 
" style="fill:none;stroke:#66c2a5;stroke-linecap:round;stroke-width:2.52;"/>
   </g>
   <g id="line2d_36">
    <path clip-path="url(#p680daedb7f)" d="M 297.183227 49.97547 
L 297.183227 49.97547 
" style="fill:none;stroke:#66c2a5;stroke-linecap:round;stroke-width:2.52;"/>
   </g>
   <g id="line2d_37">
    <path clip-path="url(#p680daedb7f)" d="M 324.557961 49.450059 
L 324.557961 49.450059 
" style="fill:none;stroke:#66c2a5;stroke-linecap:round;stroke-width:2.52;"/>
   </g>
   <g id="line2d_38">
    <path clip-path="url(#p680daedb7f)" d="M 351.932696 51.176599 
L 351.932696 51.176599 
" style="fill:none;stroke:#66c2a5;stroke-linecap:round;stroke-width:2.52;"/>
   </g>
   <g id="line2d_39">
    <path clip-path="url(#p680daedb7f)" d="M 379.30743 55.821365 
L 379.30743 55.821365 
" style="fill:none;stroke:#66c2a5;stroke-linecap:round;stroke-width:2.52;"/>
   </g>
   <g id="line2d_40">
    <path clip-path="url(#p680daedb7f)" d="M 406.682165 67.31781 
L 406.682165 67.31781 
" style="fill:none;stroke:#66c2a5;stroke-linecap:round;stroke-width:2.52;"/>
   </g>
   <g id="line2d_41">
    <path clip-path="url(#p680daedb7f)" d="M 434.056899 108.164983 
L 434.056899 108.164983 
" style="fill:none;stroke:#66c2a5;stroke-linecap:round;stroke-width:2.52;"/>
   </g>
   <g id="line2d_42">
    <path clip-path="url(#p680daedb7f)" d="M 461.431634 189.377089 
L 461.431634 189.377089 
" style="fill:none;stroke:#66c2a5;stroke-linecap:round;stroke-width:2.52;"/>
   </g>
   <g id="line2d_43">
    <path clip-path="url(#p680daedb7f)" d="M 488.806368 243.383482 
L 488.806368 243.383482 
" style="fill:none;stroke:#66c2a5;stroke-linecap:round;stroke-width:2.52;"/>
   </g>
   <g id="line2d_44">
    <path clip-path="url(#p680daedb7f)" d="M 516.181102 249.330889 
L 516.181102 249.330889 
" style="fill:none;stroke:#66c2a5;stroke-linecap:round;stroke-width:2.52;"/>
   </g>
   <g id="line2d_45">
    <path clip-path="url(#p680daedb7f)" d="M 543.555837 243.86176 
L 543.555837 243.86176 
" style="fill:none;stroke:#66c2a5;stroke-linecap:round;stroke-width:2.52;"/>
   </g>
   <g id="PathCollection_2">
    <defs>
     <path d="M 0 3.158352 
C 0.837605 3.158352 1.641016 2.825568 2.233292 2.233292 
C 2.825568 1.641016 3.158352 0.837605 3.158352 0 
C 3.158352 -0.837605 2.825568 -1.641016 2.233292 -2.233292 
C 1.641016 -2.825568 0.837605 -3.158352 0 -3.158352 
C -0.837605 -3.158352 -1.641016 -2.825568 -2.233292 -2.233292 
C -2.825568 -1.641016 -3.158352 -0.837605 -3.158352 0 
C -3.158352 0.837605 -2.825568 1.641016 -2.233292 2.233292 
C -1.641016 2.825568 -0.837605 3.158352 0 3.158352 
z
" id="C1_0_67c7877c8e"/>
    </defs>
    <g clip-path="url(#p680daedb7f)">
     <use style="fill:#fa8e63;stroke:#fa8e63;stroke-width:1.89;" x="50.8106172132" xlink:href="#C1_0_67c7877c8e" y="219.495052245"/>
    </g>
    <g clip-path="url(#p680daedb7f)">
     <use style="fill:#fa8e63;stroke:#fa8e63;stroke-width:1.89;" x="78.1853516396" xlink:href="#C1_0_67c7877c8e" y="219.85158871"/>
    </g>
    <g clip-path="url(#p680daedb7f)">
     <use style="fill:#fa8e63;stroke:#fa8e63;stroke-width:1.89;" x="105.560086066" xlink:href="#C1_0_67c7877c8e" y="196.334998697"/>
    </g>
    <g clip-path="url(#p680daedb7f)">
     <use style="fill:#fa8e63;stroke:#fa8e63;stroke-width:1.89;" x="132.934820492" xlink:href="#C1_0_67c7877c8e" y="190.733314106"/>
    </g>
    <g clip-path="url(#p680daedb7f)">
     <use style="fill:#fa8e63;stroke:#fa8e63;stroke-width:1.89;" x="160.309554919" xlink:href="#C1_0_67c7877c8e" y="165.585445785"/>
    </g>
    <g clip-path="url(#p680daedb7f)">
     <use style="fill:#fa8e63;stroke:#fa8e63;stroke-width:1.89;" x="187.684289345" xlink:href="#C1_0_67c7877c8e" y="159.120429784"/>
    </g>
    <g clip-path="url(#p680daedb7f)">
     <use style="fill:#fa8e63;stroke:#fa8e63;stroke-width:1.89;" x="215.059023772" xlink:href="#C1_0_67c7877c8e" y="170.213156581"/>
    </g>
    <g clip-path="url(#p680daedb7f)">
     <use style="fill:#fa8e63;stroke:#fa8e63;stroke-width:1.89;" x="242.433758198" xlink:href="#C1_0_67c7877c8e" y="163.273112935"/>
    </g>
    <g clip-path="url(#p680daedb7f)">
     <use style="fill:#fa8e63;stroke:#fa8e63;stroke-width:1.89;" x="269.808492624" xlink:href="#C1_0_67c7877c8e" y="162.62373285"/>
    </g>
    <g clip-path="url(#p680daedb7f)">
     <use style="fill:#fa8e63;stroke:#fa8e63;stroke-width:1.89;" x="297.183227051" xlink:href="#C1_0_67c7877c8e" y="167.234919004"/>
    </g>
    <g clip-path="url(#p680daedb7f)">
     <use style="fill:#fa8e63;stroke:#fa8e63;stroke-width:1.89;" x="324.557961477" xlink:href="#C1_0_67c7877c8e" y="173.638919602"/>
    </g>
    <g clip-path="url(#p680daedb7f)">
     <use style="fill:#fa8e63;stroke:#fa8e63;stroke-width:1.89;" x="351.932695904" xlink:href="#C1_0_67c7877c8e" y="165.742984274"/>
    </g>
    <g clip-path="url(#p680daedb7f)">
     <use style="fill:#fa8e63;stroke:#fa8e63;stroke-width:1.89;" x="379.30743033" xlink:href="#C1_0_67c7877c8e" y="145.472710682"/>
    </g>
    <g clip-path="url(#p680daedb7f)">
     <use style="fill:#fa8e63;stroke:#fa8e63;stroke-width:1.89;" x="406.682164756" xlink:href="#C1_0_67c7877c8e" y="141.507844336"/>
    </g>
    <g clip-path="url(#p680daedb7f)">
     <use style="fill:#fa8e63;stroke:#fa8e63;stroke-width:1.89;" x="434.056899183" xlink:href="#C1_0_67c7877c8e" y="123.798874691"/>
    </g>
    <g clip-path="url(#p680daedb7f)">
     <use style="fill:#fa8e63;stroke:#fa8e63;stroke-width:1.89;" x="461.431633609" xlink:href="#C1_0_67c7877c8e" y="99.3050213067"/>
    </g>
    <g clip-path="url(#p680daedb7f)">
     <use style="fill:#fa8e63;stroke:#fa8e63;stroke-width:1.89;" x="488.806368036" xlink:href="#C1_0_67c7877c8e" y="99.4356282829"/>
    </g>
    <g clip-path="url(#p680daedb7f)">
     <use style="fill:#fa8e63;stroke:#fa8e63;stroke-width:1.89;" x="516.181102462" xlink:href="#C1_0_67c7877c8e" y="101.881521257"/>
    </g>
    <g clip-path="url(#p680daedb7f)">
     <use style="fill:#fa8e63;stroke:#fa8e63;stroke-width:1.89;" x="543.555836888" xlink:href="#C1_0_67c7877c8e" y="119.140864321"/>
    </g>
   </g>
   <g id="line2d_46">
    <path clip-path="url(#p680daedb7f)" d="M 50.810617 219.495052 
L 78.185352 219.851589 
L 105.560086 196.334999 
L 132.93482 190.733314 
L 160.309555 165.585446 
L 187.684289 159.12043 
L 215.059024 170.213157 
L 242.433758 163.273113 
L 269.808493 162.623733 
L 297.183227 167.234919 
L 324.557961 173.63892 
L 351.932696 165.742984 
L 379.30743 145.472711 
L 406.682165 141.507844 
L 434.056899 123.798875 
L 461.431634 99.305021 
L 488.806368 99.435628 
L 516.181102 101.881521 
L 543.555837 119.140864 
" style="fill:none;stroke:#fa8e63;stroke-linecap:round;stroke-width:2.52;"/>
   </g>
   <g id="line2d_47">
    <path clip-path="url(#p680daedb7f)" d="M 50.810617 219.495052 
L 50.810617 219.495052 
" style="fill:none;stroke:#fa8e63;stroke-linecap:round;stroke-width:2.52;"/>
   </g>
   <g id="line2d_48">
    <path clip-path="url(#p680daedb7f)" d="M 78.185352 219.851589 
L 78.185352 219.851589 
" style="fill:none;stroke:#fa8e63;stroke-linecap:round;stroke-width:2.52;"/>
   </g>
   <g id="line2d_49">
    <path clip-path="url(#p680daedb7f)" d="M 105.560086 196.334999 
L 105.560086 196.334999 
" style="fill:none;stroke:#fa8e63;stroke-linecap:round;stroke-width:2.52;"/>
   </g>
   <g id="line2d_50">
    <path clip-path="url(#p680daedb7f)" d="M 132.93482 190.733314 
L 132.93482 190.733314 
" style="fill:none;stroke:#fa8e63;stroke-linecap:round;stroke-width:2.52;"/>
   </g>
   <g id="line2d_51">
    <path clip-path="url(#p680daedb7f)" d="M 160.309555 165.585446 
L 160.309555 165.585446 
" style="fill:none;stroke:#fa8e63;stroke-linecap:round;stroke-width:2.52;"/>
   </g>
   <g id="line2d_52">
    <path clip-path="url(#p680daedb7f)" d="M 187.684289 159.12043 
L 187.684289 159.12043 
" style="fill:none;stroke:#fa8e63;stroke-linecap:round;stroke-width:2.52;"/>
   </g>
   <g id="line2d_53">
    <path clip-path="url(#p680daedb7f)" d="M 215.059024 170.213157 
L 215.059024 170.213157 
" style="fill:none;stroke:#fa8e63;stroke-linecap:round;stroke-width:2.52;"/>
   </g>
   <g id="line2d_54">
    <path clip-path="url(#p680daedb7f)" d="M 242.433758 163.273113 
L 242.433758 163.273113 
" style="fill:none;stroke:#fa8e63;stroke-linecap:round;stroke-width:2.52;"/>
   </g>
   <g id="line2d_55">
    <path clip-path="url(#p680daedb7f)" d="M 269.808493 162.623733 
L 269.808493 162.623733 
" style="fill:none;stroke:#fa8e63;stroke-linecap:round;stroke-width:2.52;"/>
   </g>
   <g id="line2d_56">
    <path clip-path="url(#p680daedb7f)" d="M 297.183227 167.234919 
L 297.183227 167.234919 
" style="fill:none;stroke:#fa8e63;stroke-linecap:round;stroke-width:2.52;"/>
   </g>
   <g id="line2d_57">
    <path clip-path="url(#p680daedb7f)" d="M 324.557961 173.63892 
L 324.557961 173.63892 
" style="fill:none;stroke:#fa8e63;stroke-linecap:round;stroke-width:2.52;"/>
   </g>
   <g id="line2d_58">
    <path clip-path="url(#p680daedb7f)" d="M 351.932696 165.742984 
L 351.932696 165.742984 
" style="fill:none;stroke:#fa8e63;stroke-linecap:round;stroke-width:2.52;"/>
   </g>
   <g id="line2d_59">
    <path clip-path="url(#p680daedb7f)" d="M 379.30743 145.472711 
L 379.30743 145.472711 
" style="fill:none;stroke:#fa8e63;stroke-linecap:round;stroke-width:2.52;"/>
   </g>
   <g id="line2d_60">
    <path clip-path="url(#p680daedb7f)" d="M 406.682165 141.507844 
L 406.682165 141.507844 
" style="fill:none;stroke:#fa8e63;stroke-linecap:round;stroke-width:2.52;"/>
   </g>
   <g id="line2d_61">
    <path clip-path="url(#p680daedb7f)" d="M 434.056899 123.798875 
L 434.056899 123.798875 
" style="fill:none;stroke:#fa8e63;stroke-linecap:round;stroke-width:2.52;"/>
   </g>
   <g id="line2d_62">
    <path clip-path="url(#p680daedb7f)" d="M 461.431634 99.305021 
L 461.431634 99.305021 
" style="fill:none;stroke:#fa8e63;stroke-linecap:round;stroke-width:2.52;"/>
   </g>
   <g id="line2d_63">
    <path clip-path="url(#p680daedb7f)" d="M 488.806368 99.435628 
L 488.806368 99.435628 
" style="fill:none;stroke:#fa8e63;stroke-linecap:round;stroke-width:2.52;"/>
   </g>
   <g id="line2d_64">
    <path clip-path="url(#p680daedb7f)" d="M 516.181102 101.881521 
L 516.181102 101.881521 
" style="fill:none;stroke:#fa8e63;stroke-linecap:round;stroke-width:2.52;"/>
   </g>
   <g id="line2d_65">
    <path clip-path="url(#p680daedb7f)" d="M 543.555837 119.140864 
L 543.555837 119.140864 
" style="fill:none;stroke:#fa8e63;stroke-linecap:round;stroke-width:2.52;"/>
   </g>
   <g id="patch_3">
    <path d="M 37.12325 254.671 
L 557.243204 254.671 
" style="fill:none;stroke:#262626;stroke-linecap:square;stroke-linejoin:miter;stroke-width:1.25;"/>
   </g>
   <g id="patch_4">
    <path d="M 37.12325 254.671 
L 37.12325 19.157 
" style="fill:none;stroke:#262626;stroke-linecap:square;stroke-linejoin:miter;stroke-width:1.25;"/>
   </g>
   <g id="text_28">
    <!-- VGG-19 -->
    <defs>
     <path d="M 5.03125 34.71875 
Q 5.03125 42.78125 7.203125 49.265625 
Q 9.375 55.765625 13.6875 60.328125 
Q 18.015625 64.890625 24.40625 67.359375 
Q 30.8125 69.828125 39.265625 69.828125 
Q 45.609375 69.828125 50.390625 68.703125 
Q 55.171875 67.578125 58.6875 65.46875 
Q 62.203125 63.375 64.640625 60.375 
Q 67.09375 57.375 68.796875 53.609375 
L 59.90625 50.984375 
Q 58.640625 53.515625 56.859375 55.59375 
Q 55.078125 57.671875 52.53125 59.125 
Q 50 60.59375 46.65625 61.390625 
Q 43.3125 62.203125 39.015625 62.203125 
Q 32.765625 62.203125 28.140625 60.25 
Q 23.53125 58.296875 20.5 54.6875 
Q 17.484375 51.078125 15.984375 46 
Q 14.5 40.921875 14.5 34.71875 
Q 14.5 28.515625 16.109375 23.359375 
Q 17.71875 18.21875 20.890625 14.484375 
Q 24.078125 10.75 28.78125 8.671875 
Q 33.5 6.59375 39.703125 6.59375 
Q 43.75 6.59375 47.171875 7.265625 
Q 50.59375 7.953125 53.34375 9.046875 
Q 56.109375 10.15625 58.203125 11.5 
Q 60.296875 12.84375 61.71875 14.203125 
L 61.71875 26.609375 
L 41.15625 26.609375 
L 41.15625 34.421875 
L 70.3125 34.421875 
L 70.3125 10.6875 
Q 68.015625 8.34375 64.90625 6.21875 
Q 61.8125 4.109375 57.953125 2.484375 
Q 54.109375 0.875 49.515625 -0.046875 
Q 44.921875 -0.984375 39.703125 -0.984375 
Q 31 -0.984375 24.5 1.671875 
Q 18.015625 4.34375 13.6875 9.109375 
Q 9.375 13.875 7.203125 20.40625 
Q 5.03125 26.953125 5.03125 34.71875 
" id="LiberationSans-47"/>
     <path d="M 38.1875 0 
L 28.515625 0 
L 0.4375 68.796875 
L 10.25 68.796875 
L 29.296875 20.359375 
Q 30.03125 18.171875 30.765625 15.984375 
Q 31.5 13.8125 32.078125 12.109375 
Q 32.765625 10.109375 33.40625 8.203125 
Q 33.984375 10.015625 34.671875 12.015625 
Q 35.25 13.71875 35.953125 15.859375 
Q 36.671875 18.015625 37.5 20.359375 
L 56.453125 68.796875 
L 66.265625 68.796875 
z
" id="LiberationSans-56"/>
     <path d="M 4.4375 22.65625 
L 4.4375 30.46875 
L 28.859375 30.46875 
L 28.859375 22.65625 
z
" id="LiberationSans-2d"/>
     <path d="M 50.875 35.796875 
Q 50.875 26.609375 49.140625 19.703125 
Q 47.40625 12.796875 44.1875 8.203125 
Q 40.96875 3.609375 36.34375 1.3125 
Q 31.734375 -0.984375 25.984375 -0.984375 
Q 22.015625 -0.984375 18.84375 -0.171875 
Q 15.671875 0.640625 13.171875 2.34375 
Q 10.6875 4.046875 8.921875 6.78125 
Q 7.171875 9.515625 6.109375 13.375 
L 14.5 14.703125 
Q 15.875 10.25 18.78125 8.171875 
Q 21.6875 6.109375 26.125 6.109375 
Q 29.6875 6.109375 32.640625 7.78125 
Q 35.59375 9.46875 37.671875 12.84375 
Q 39.75 16.21875 40.921875 21.296875 
Q 42.09375 26.375 42.1875 33.203125 
Q 41.15625 30.90625 39.375 29.09375 
Q 37.59375 27.296875 35.328125 26.046875 
Q 33.0625 24.8125 30.421875 24.140625 
Q 27.78125 23.484375 25.09375 23.484375 
Q 20.40625 23.484375 16.625 25.171875 
Q 12.84375 26.859375 10.203125 29.875 
Q 7.5625 32.90625 6.125 37.171875 
Q 4.6875 41.453125 4.6875 46.6875 
Q 4.6875 52 6.21875 56.296875 
Q 7.765625 60.59375 10.6875 63.59375 
Q 13.625 66.609375 17.890625 68.21875 
Q 22.171875 69.828125 27.59375 69.828125 
Q 39.0625 69.828125 44.96875 61.328125 
Q 50.875 52.828125 50.875 35.796875 
M 41.3125 44.28125 
Q 41.3125 48.09375 40.40625 51.453125 
Q 39.5 54.828125 37.71875 57.3125 
Q 35.9375 59.8125 33.328125 61.25 
Q 30.71875 62.703125 27.296875 62.703125 
Q 24.125 62.703125 21.578125 61.578125 
Q 19.046875 60.453125 17.28125 58.375 
Q 15.53125 56.296875 14.578125 53.3125 
Q 13.625 50.34375 13.625 46.6875 
Q 13.625 43.21875 14.46875 40.234375 
Q 15.328125 37.25 17.03125 35.078125 
Q 18.75 32.90625 21.28125 31.65625 
Q 23.828125 30.421875 27.203125 30.421875 
Q 29.640625 30.421875 32.15625 31.25 
Q 34.671875 32.078125 36.6875 33.78125 
Q 38.71875 35.5 40.015625 38.109375 
Q 41.3125 40.71875 41.3125 44.28125 
" id="LiberationSans-39"/>
    </defs>
    <g style="fill:#262626;" transform="translate(279.577727051 14.157)scale(0.096 -0.096)">
     <use xlink:href="#LiberationSans-56"/>
     <use x="66.69921875" xlink:href="#LiberationSans-47"/>
     <use x="144.482421875" xlink:href="#LiberationSans-47"/>
     <use x="222.265625" xlink:href="#LiberationSans-2d"/>
     <use x="255.56640625" xlink:href="#LiberationSans-31"/>
     <use x="311.181640625" xlink:href="#LiberationSans-39"/>
    </g>
   </g>
  </g>
  <g id="legend_1">
   <g id="text_29">
    <!-- kind -->
    <defs>
     <path d="M 40.09375 8.5 
Q 37.640625 3.421875 33.609375 1.21875 
Q 29.59375 -0.984375 23.640625 -0.984375 
Q 13.625 -0.984375 8.90625 5.75 
Q 4.203125 12.5 4.203125 26.171875 
Q 4.203125 53.8125 23.640625 53.8125 
Q 29.640625 53.8125 33.640625 51.609375 
Q 37.640625 49.421875 40.09375 44.625 
L 40.1875 44.625 
Q 40.1875 45.125 40.15625 46.171875 
Q 40.140625 47.21875 40.109375 48.359375 
Q 40.09375 49.515625 40.09375 50.53125 
Q 40.09375 51.5625 40.09375 52 
L 40.09375 72.46875 
L 48.875 72.46875 
L 48.875 10.890625 
Q 48.875 8.984375 48.890625 7.21875 
Q 48.921875 5.46875 48.96875 4 
Q 49.03125 2.546875 49.078125 1.484375 
Q 49.125 0.4375 49.171875 0 
L 40.765625 0 
Q 40.671875 0.484375 40.59375 1.390625 
Q 40.53125 2.296875 40.453125 3.46875 
Q 40.375 4.640625 40.328125 5.9375 
Q 40.28125 7.234375 40.28125 8.5 
z
M 13.421875 26.46875 
Q 13.421875 21 14.109375 17.09375 
Q 14.796875 13.1875 16.3125 10.671875 
Q 17.828125 8.15625 20.171875 6.984375 
Q 22.515625 5.8125 25.875 5.8125 
Q 29.34375 5.8125 32 6.9375 
Q 34.671875 8.0625 36.453125 10.578125 
Q 38.234375 13.09375 39.15625 17.140625 
Q 40.09375 21.1875 40.09375 27.046875 
Q 40.09375 32.671875 39.15625 36.546875 
Q 38.234375 40.4375 36.421875 42.828125 
Q 34.625 45.21875 32 46.265625 
Q 29.390625 47.3125 25.984375 47.3125 
Q 22.75 47.3125 20.40625 46.1875 
Q 18.0625 45.0625 16.5 42.578125 
Q 14.9375 40.09375 14.171875 36.109375 
Q 13.421875 32.125 13.421875 26.46875 
" id="LiberationSans-64"/>
     <path d="M 39.84375 0 
L 21.96875 24.125 
L 15.53125 18.796875 
L 15.53125 0 
L 6.734375 0 
L 6.734375 72.46875 
L 15.53125 72.46875 
L 15.53125 27.203125 
L 38.71875 52.828125 
L 49.03125 52.828125 
L 27.59375 30.125 
L 50.140625 0 
z
" id="LiberationSans-6b"/>
    </defs>
    <g style="fill:#262626;" transform="translate(581.176391602 141.604035974)scale(0.0748 -0.0748)">
     <use xlink:href="#LiberationSans-6b"/>
     <use x="50.0" xlink:href="#LiberationSans-69"/>
     <use x="72.216796875" xlink:href="#LiberationSans-6e"/>
     <use x="127.83203125" xlink:href="#LiberationSans-64"/>
    </g>
   </g>
   <g id="PathCollection_3">
    <path d="M 573.939454 154.011988 
C 574.777059 154.011988 575.58047 153.679204 576.172746 153.086928 
C 576.765022 152.494652 577.097806 151.691241 577.097806 150.853636 
C 577.097806 150.016031 576.765022 149.21262 576.172746 148.620344 
C 575.58047 148.028068 574.777059 147.695284 573.939454 147.695284 
C 573.101849 147.695284 572.298438 148.028068 571.706162 148.620344 
C 571.113886 149.21262 570.781102 150.016031 570.781102 150.853636 
C 570.781102 151.691241 571.113886 152.494652 571.706162 153.086928 
C 572.298438 153.679204 573.101849 154.011988 573.939454 154.011988 
z
" style="fill:#66c2a5;stroke:#66c2a5;stroke-width:1.89;"/>
    <path d="M 573.939454 154.011988 
C 574.777059 154.011988 575.58047 153.679204 576.172746 153.086928 
C 576.765022 152.494652 577.097806 151.691241 577.097806 150.853636 
C 577.097806 150.016031 576.765022 149.21262 576.172746 148.620344 
C 575.58047 148.028068 574.777059 147.695284 573.939454 147.695284 
C 573.101849 147.695284 572.298438 148.028068 571.706162 148.620344 
C 571.113886 149.21262 570.781102 150.016031 570.781102 150.853636 
C 570.781102 151.691241 571.113886 152.494652 571.706162 153.086928 
C 572.298438 153.679204 573.101849 154.011988 573.939454 154.011988 
z
" style="fill:#66c2a5;stroke:#66c2a5;stroke-width:1.89;"/>
    <path d="M 573.939454 154.011988 
C 574.777059 154.011988 575.58047 153.679204 576.172746 153.086928 
C 576.765022 152.494652 577.097806 151.691241 577.097806 150.853636 
C 577.097806 150.016031 576.765022 149.21262 576.172746 148.620344 
C 575.58047 148.028068 574.777059 147.695284 573.939454 147.695284 
C 573.101849 147.695284 572.298438 148.028068 571.706162 148.620344 
C 571.113886 149.21262 570.781102 150.016031 570.781102 150.853636 
C 570.781102 151.691241 571.113886 152.494652 571.706162 153.086928 
C 572.298438 153.679204 573.101849 154.011988 573.939454 154.011988 
z
" style="fill:#66c2a5;stroke:#66c2a5;stroke-width:1.89;"/>
   </g>
   <g id="text_30">
    <!-- px -->
    <defs>
     <path d="M 51.421875 26.65625 
Q 51.421875 20.65625 50.4375 15.578125 
Q 49.46875 10.5 47.1875 6.828125 
Q 44.921875 3.171875 41.1875 1.09375 
Q 37.453125 -0.984375 31.984375 -0.984375 
Q 26.3125 -0.984375 22.0625 1.171875 
Q 17.828125 3.328125 15.578125 8.203125 
L 15.328125 8.203125 
Q 15.375 8.109375 15.40625 7.328125 
Q 15.4375 6.546875 15.453125 5.375 
Q 15.484375 4.203125 15.5 2.75 
Q 15.53125 1.3125 15.53125 -0.09375 
L 15.53125 -20.75 
L 6.734375 -20.75 
L 6.734375 42.046875 
Q 6.734375 43.953125 6.703125 45.703125 
Q 6.6875 47.46875 6.640625 48.90625 
Q 6.59375 50.34375 6.546875 51.359375 
Q 6.5 52.390625 6.453125 52.828125 
L 14.9375 52.828125 
Q 14.984375 52.6875 15.0625 51.796875 
Q 15.140625 50.921875 15.203125 49.671875 
Q 15.28125 48.4375 15.359375 47.015625 
Q 15.4375 45.609375 15.4375 44.34375 
L 15.625 44.34375 
Q 16.84375 46.875 18.40625 48.65625 
Q 19.96875 50.4375 21.96875 51.578125 
Q 23.96875 52.734375 26.4375 53.25 
Q 28.90625 53.765625 31.984375 53.765625 
Q 37.453125 53.765625 41.1875 51.8125 
Q 44.921875 49.859375 47.1875 46.3125 
Q 49.46875 42.78125 50.4375 37.765625 
Q 51.421875 32.765625 51.421875 26.65625 
M 42.1875 26.46875 
Q 42.1875 31.34375 41.59375 35.15625 
Q 41.015625 38.96875 39.578125 41.59375 
Q 38.140625 44.234375 35.734375 45.59375 
Q 33.34375 46.96875 29.734375 46.96875 
Q 26.8125 46.96875 24.21875 46.140625 
Q 21.625 45.3125 19.703125 42.96875 
Q 17.78125 40.625 16.65625 36.5 
Q 15.53125 32.375 15.53125 25.78125 
Q 15.53125 20.171875 16.453125 16.28125 
Q 17.390625 12.40625 19.171875 10.015625 
Q 20.953125 7.625 23.578125 6.5625 
Q 26.21875 5.515625 29.640625 5.515625 
Q 33.296875 5.515625 35.71875 6.921875 
Q 38.140625 8.34375 39.578125 11.03125 
Q 41.015625 13.71875 41.59375 17.59375 
Q 42.1875 21.484375 42.1875 26.46875 
" id="LiberationSans-70"/>
     <path d="M 39.109375 0 
L 24.90625 21.6875 
L 10.59375 0 
L 1.125 0 
L 19.921875 27.15625 
L 2 52.828125 
L 11.71875 52.828125 
L 24.90625 32.28125 
L 37.984375 52.828125 
L 47.796875 52.828125 
L 29.890625 27.25 
L 48.921875 0 
z
" id="LiberationSans-78"/>
    </defs>
    <g style="fill:#262626;" transform="translate(588.339454102 152.953635974)scale(0.08 -0.08)">
     <use xlink:href="#LiberationSans-70"/>
     <use x="55.615234375" xlink:href="#LiberationSans-78"/>
    </g>
   </g>
   <g id="PathCollection_4">
    <path d="M 573.939454 165.469488 
C 574.777059 165.469488 575.58047 165.136704 576.172746 164.544428 
C 576.765022 163.952152 577.097806 163.148741 577.097806 162.311136 
C 577.097806 161.473531 576.765022 160.67012 576.172746 160.077844 
C 575.58047 159.485568 574.777059 159.152784 573.939454 159.152784 
C 573.101849 159.152784 572.298438 159.485568 571.706162 160.077844 
C 571.113886 160.67012 570.781102 161.473531 570.781102 162.311136 
C 570.781102 163.148741 571.113886 163.952152 571.706162 164.544428 
C 572.298438 165.136704 573.101849 165.469488 573.939454 165.469488 
z
" style="fill:#fa8e63;stroke:#fa8e63;stroke-width:1.89;"/>
    <path d="M 573.939454 165.469488 
C 574.777059 165.469488 575.58047 165.136704 576.172746 164.544428 
C 576.765022 163.952152 577.097806 163.148741 577.097806 162.311136 
C 577.097806 161.473531 576.765022 160.67012 576.172746 160.077844 
C 575.58047 159.485568 574.777059 159.152784 573.939454 159.152784 
C 573.101849 159.152784 572.298438 159.485568 571.706162 160.077844 
C 571.113886 160.67012 570.781102 161.473531 570.781102 162.311136 
C 570.781102 163.148741 571.113886 163.952152 571.706162 164.544428 
C 572.298438 165.136704 573.101849 165.469488 573.939454 165.469488 
z
" style="fill:#fa8e63;stroke:#fa8e63;stroke-width:1.89;"/>
    <path d="M 573.939454 165.469488 
C 574.777059 165.469488 575.58047 165.136704 576.172746 164.544428 
C 576.765022 163.952152 577.097806 163.148741 577.097806 162.311136 
C 577.097806 161.473531 576.765022 160.67012 576.172746 160.077844 
C 575.58047 159.485568 574.777059 159.152784 573.939454 159.152784 
C 573.101849 159.152784 572.298438 159.485568 571.706162 160.077844 
C 571.113886 160.67012 570.781102 161.473531 570.781102 162.311136 
C 570.781102 163.148741 571.113886 163.952152 571.706162 164.544428 
C 572.298438 165.136704 573.101849 165.469488 573.939454 165.469488 
z
" style="fill:#fa8e63;stroke:#fa8e63;stroke-width:1.89;"/>
   </g>
   <g id="text_31">
    <!-- shape -->
    <defs>
     <path d="M 46.390625 14.59375 
Q 46.390625 10.890625 44.9375 7.984375 
Q 43.5 5.078125 40.765625 3.09375 
Q 38.03125 1.125 34.046875 0.0625 
Q 30.078125 -0.984375 24.953125 -0.984375 
Q 20.359375 -0.984375 16.671875 -0.265625 
Q 12.984375 0.4375 10.203125 2 
Q 7.421875 3.5625 5.53125 6.125 
Q 3.65625 8.6875 2.78125 12.40625 
L 10.546875 13.921875 
Q 11.671875 9.671875 15.1875 7.6875 
Q 18.703125 5.71875 24.953125 5.71875 
Q 27.78125 5.71875 30.140625 6.109375 
Q 32.515625 6.5 34.21875 7.453125 
Q 35.9375 8.40625 36.890625 9.984375 
Q 37.84375 11.578125 37.84375 13.921875 
Q 37.84375 16.3125 36.71875 17.84375 
Q 35.59375 19.390625 33.59375 20.40625 
Q 31.59375 21.4375 28.734375 22.1875 
Q 25.875 22.953125 22.46875 23.875 
Q 19.28125 24.703125 16.15625 25.734375 
Q 13.03125 26.765625 10.515625 28.4375 
Q 8.015625 30.125 6.453125 32.609375 
Q 4.890625 35.109375 4.890625 38.875 
Q 4.890625 46.09375 10.03125 49.875 
Q 15.1875 53.65625 25.046875 53.65625 
Q 33.796875 53.65625 38.9375 50.578125 
Q 44.09375 47.515625 45.453125 40.71875 
L 37.546875 39.75 
Q 37.109375 41.796875 35.9375 43.1875 
Q 34.765625 44.578125 33.109375 45.4375 
Q 31.453125 46.296875 29.375 46.65625 
Q 27.296875 47.015625 25.046875 47.015625 
Q 19.09375 47.015625 16.25 45.203125 
Q 13.421875 43.40625 13.421875 39.75 
Q 13.421875 37.59375 14.46875 36.203125 
Q 15.53125 34.8125 17.40625 33.859375 
Q 19.28125 32.90625 21.921875 32.203125 
Q 24.5625 31.5 27.734375 30.71875 
Q 29.828125 30.171875 32.03125 29.5625 
Q 34.234375 28.953125 36.296875 28.09375 
Q 38.375 27.25 40.203125 26.09375 
Q 42.046875 24.953125 43.40625 23.34375 
Q 44.78125 21.734375 45.578125 19.578125 
Q 46.390625 17.4375 46.390625 14.59375 
" id="LiberationSans-73"/>
     <path d="M 15.484375 43.796875 
Q 16.9375 46.484375 18.640625 48.359375 
Q 20.359375 50.25 22.40625 51.46875 
Q 24.46875 52.6875 26.90625 53.25 
Q 29.34375 53.8125 32.375 53.8125 
Q 37.453125 53.8125 40.703125 52.4375 
Q 43.953125 51.078125 45.828125 48.609375 
Q 47.703125 46.140625 48.40625 42.71875 
Q 49.125 39.3125 49.125 35.203125 
L 49.125 0 
L 40.28125 0 
L 40.28125 33.5 
Q 40.28125 36.859375 39.859375 39.390625 
Q 39.453125 41.9375 38.28125 43.625 
Q 37.109375 45.3125 34.953125 46.15625 
Q 32.8125 47.015625 29.390625 47.015625 
Q 26.265625 47.015625 23.75 45.890625 
Q 21.234375 44.78125 19.453125 42.71875 
Q 17.671875 40.671875 16.6875 37.734375 
Q 15.71875 34.8125 15.71875 31.15625 
L 15.71875 0 
L 6.9375 0 
L 6.9375 72.46875 
L 15.71875 72.46875 
L 15.71875 53.609375 
Q 15.71875 52 15.671875 50.390625 
Q 15.625 48.78125 15.546875 47.40625 
Q 15.484375 46.046875 15.421875 45.09375 
Q 15.375 44.140625 15.328125 43.796875 
z
" id="LiberationSans-68"/>
    </defs>
    <g style="fill:#262626;" transform="translate(588.339454102 164.411135974)scale(0.08 -0.08)">
     <use xlink:href="#LiberationSans-73"/>
     <use x="50.0" xlink:href="#LiberationSans-68"/>
     <use x="105.615234375" xlink:href="#LiberationSans-61"/>
     <use x="161.23046875" xlink:href="#LiberationSans-70"/>
     <use x="216.845703125" xlink:href="#LiberationSans-65"/>
    </g>
   </g>
  </g>
 </g>
 <defs>
  <clipPath id="p680daedb7f">
   <rect height="235.514" width="520.119954102" x="37.12325" y="19.157"/>
  </clipPath>
 </defs>
</svg>
