<?xml version="1.0" encoding="utf-8" standalone="no"?>
<!DOCTYPE svg PUBLIC "-//W3C//DTD SVG 1.1//EN"
  "http://www.w3.org/Graphics/SVG/1.1/DTD/svg11.dtd">
<!-- Created with matplotlib (http://matplotlib.org/) -->
<svg height="354pt" version="1.1" viewBox="0 0 338 354" width="338pt" xmlns="http://www.w3.org/2000/svg" xmlns:xlink="http://www.w3.org/1999/xlink">
 <defs>
  <style type="text/css">
*{stroke-linecap:butt;stroke-linejoin:round;}
  </style>
 </defs>
 <g id="figure_1">
  <g id="patch_1">
   <path d="
M0 354.948
L338.253 354.948
L338.253 0
L0 0
z
" style="fill:#ffffff;"/>
  </g>
  <g id="axes_1">
   <g id="patch_2">
    <path d="
M36.577 321.487
L331.053 321.487
L331.053 19.157
L36.577 19.157
z
" style="fill:#ffffff;"/>
   </g>
   <g id="matplotlib.axis_1">
    <g id="xtick_1">
     <g id="line2d_1">
      <defs>
       <path d="
M0 0
L0 0" id="m9ceacb34a3" style="stroke:#262626;stroke-width:0.8;"/>
      </defs>
      <g>
       <use style="fill:#262626;stroke:#262626;stroke-width:0.8;" x="61.1166744792" xlink:href="#m9ceacb34a3" y="321.487"/>
      </g>
     </g>
     <g id="text_1">
      <!-- 0.0 -->
      <defs>
       <path d="
M9.125 0
L9.125 10.6875
L18.6562 10.6875
L18.6562 0
z
" id="LiberationSans-2e"/>
       <path d="
M51.7031 34.4219
Q51.7031 24.5156 49.8281 17.75
Q47.9531 10.9844 44.7031 6.8125
Q41.4531 2.64062 37.0625 0.828125
Q32.6719 -0.984375 27.6875 -0.984375
Q22.6562 -0.984375 18.3125 0.828125
Q13.9688 2.64062 10.7656 6.78125
Q7.5625 10.9375 5.73438 17.7031
Q3.90625 24.4688 3.90625 34.4219
Q3.90625 44.8281 5.73438 51.6406
Q7.5625 58.4531 10.7812 62.5
Q14.0156 66.5469 18.4062 68.1875
Q22.7969 69.8281 27.9844 69.8281
Q32.9062 69.8281 37.2188 68.1875
Q41.5469 66.5469 44.7656 62.5
Q48 58.4531 49.8438 51.6406
Q51.7031 44.8281 51.7031 34.4219
M42.7812 34.4219
Q42.7812 42.625 41.7969 48.0625
Q40.8281 53.5156 38.9219 56.7656
Q37.0156 60.0156 34.25 61.3594
Q31.5 62.7031 27.9844 62.7031
Q24.2656 62.7031 21.4375 61.3281
Q18.6094 59.9688 16.6719 56.7188
Q14.75 53.4688 13.7656 48.0156
Q12.7969 42.5781 12.7969 34.4219
Q12.7969 26.5156 13.7969 21.0938
Q14.7969 15.6719 16.7188 12.375
Q18.6562 9.07812 21.4375 7.64062
Q24.2188 6.20312 27.7812 6.20312
Q31.25 6.20312 34.0312 7.64062
Q36.8125 9.07812 38.7344 12.375
Q40.6719 15.6719 41.7188 21.0938
Q42.7812 26.5156 42.7812 34.4219" id="LiberationSans-30"/>
      </defs>
      <g style="fill:#262626;" transform="translate(55.8691744792 332.8845)scale(0.08 -0.08)">
       <use xlink:href="#LiberationSans-30"/>
       <use x="55.615234375" xlink:href="#LiberationSans-2e"/>
       <use x="83.3984375" xlink:href="#LiberationSans-30"/>
      </g>
     </g>
    </g>
    <g id="xtick_2">
     <g id="line2d_2">
      <g>
       <use style="fill:#262626;stroke:#262626;stroke-width:0.8;" x="110.196023438" xlink:href="#m9ceacb34a3" y="321.487"/>
      </g>
     </g>
     <g id="text_2">
      <!-- 0.2 -->
      <defs>
       <path d="
M5.03125 0
L5.03125 6.20312
Q7.51562 11.9219 11.1094 16.2812
Q14.7031 20.6562 18.6562 24.1875
Q22.6094 27.7344 26.4844 30.7656
Q30.375 33.7969 33.5 36.8125
Q36.625 39.8438 38.5469 43.1562
Q40.4844 46.4844 40.4844 50.6875
Q40.4844 53.6094 39.5938 55.8281
Q38.7188 58.0625 37.0625 59.5625
Q35.4062 61.0781 33.0781 61.8281
Q30.7656 62.5938 27.9375 62.5938
Q25.2969 62.5938 22.9688 61.8594
Q20.6562 61.1406 18.8438 59.6719
Q17.0469 58.2031 15.8906 56.0312
Q14.75 53.8594 14.4062 50.9844
L5.42188 51.8125
Q5.85938 55.5156 7.46875 58.7812
Q9.07812 62.0625 11.9062 64.5312
Q14.75 67 18.7188 68.4062
Q22.7031 69.8281 27.9375 69.8281
Q33.0625 69.8281 37.0625 68.6094
Q41.0625 67.3906 43.8125 64.9844
Q46.5781 62.5938 48.0469 59.0781
Q49.5156 55.5625 49.5156 50.9844
Q49.5156 47.5156 48.2656 44.3906
Q47.0156 41.2656 44.9375 38.4219
Q42.875 35.5938 40.1406 32.9531
Q37.4062 30.3281 34.4219 27.8125
Q31.4531 25.2969 28.4219 22.8281
Q25.3906 20.3594 22.7188 17.8594
Q20.0625 15.375 17.9688 12.8125
Q15.875 10.25 14.7031 7.46875
L50.5938 7.46875
L50.5938 0
z
" id="LiberationSans-32"/>
      </defs>
      <g style="fill:#262626;" transform="translate(104.992898438 332.8845)scale(0.08 -0.08)">
       <use xlink:href="#LiberationSans-30"/>
       <use x="55.615234375" xlink:href="#LiberationSans-2e"/>
       <use x="83.3984375" xlink:href="#LiberationSans-32"/>
      </g>
     </g>
    </g>
    <g id="xtick_3">
     <g id="line2d_3">
      <g>
       <use style="fill:#262626;stroke:#262626;stroke-width:0.8;" x="159.275372396" xlink:href="#m9ceacb34a3" y="321.487"/>
      </g>
     </g>
     <g id="text_3">
      <!-- 0.4 -->
      <defs>
       <path d="
M43.0156 15.5781
L43.0156 0
L34.7188 0
L34.7188 15.5781
L2.29688 15.5781
L2.29688 22.4062
L33.7969 68.7969
L43.0156 68.7969
L43.0156 22.5156
L52.6875 22.5156
L52.6875 15.5781
z

M34.7188 58.8906
Q34.625 58.6406 34.2344 57.9375
Q33.8438 57.2344 33.3438 56.3438
Q32.8594 55.4688 32.3438 54.5625
Q31.8438 53.6562 31.4531 53.0781
L13.8125 27.0938
Q13.5781 26.7031 13.1094 26.0625
Q12.6406 25.4375 12.1562 24.7812
Q11.6719 24.125 11.1719 23.4844
Q10.6875 22.8594 10.4062 22.5156
L34.7188 22.5156
z
" id="LiberationSans-34"/>
      </defs>
      <g style="fill:#262626;" transform="translate(153.988497396 332.8845)scale(0.08 -0.08)">
       <use xlink:href="#LiberationSans-30"/>
       <use x="55.615234375" xlink:href="#LiberationSans-2e"/>
       <use x="83.3984375" xlink:href="#LiberationSans-34"/>
      </g>
     </g>
    </g>
    <g id="xtick_4">
     <g id="line2d_4">
      <g>
       <use style="fill:#262626;stroke:#262626;stroke-width:0.8;" x="208.354721354" xlink:href="#m9ceacb34a3" y="321.487"/>
      </g>
     </g>
     <g id="text_4">
      <!-- 0.6 -->
      <defs>
       <path d="
M51.2188 22.5156
Q51.2188 17.3281 49.7812 13
Q48.3438 8.6875 45.5312 5.57812
Q42.7188 2.48438 38.5625 0.75
Q34.4219 -0.984375 29 -0.984375
Q23 -0.984375 18.5 1.3125
Q14.0156 3.60938 11.0312 7.92188
Q8.0625 12.25 6.5625 18.5312
Q5.07812 24.8125 5.07812 32.8125
Q5.07812 42 6.76562 48.9219
Q8.45312 55.8594 11.625 60.5
Q14.7969 65.1406 19.3594 67.4844
Q23.9219 69.8281 29.6875 69.8281
Q33.2031 69.8281 36.2812 69.0938
Q39.3594 68.3594 41.875 66.7188
Q44.3906 65.0938 46.2812 62.4062
Q48.1875 59.7188 49.3125 55.8125
L40.9219 54.2969
Q39.5469 58.7344 36.5469 60.7188
Q33.5469 62.7031 29.5938 62.7031
Q25.9844 62.7031 23.0469 60.9844
Q20.125 59.2812 18.0625 55.875
Q16.0156 52.4844 14.9062 47.3594
Q13.8125 42.2344 13.8125 35.4062
Q16.2188 39.8438 20.5625 42.1562
Q24.9062 44.4844 30.5156 44.4844
Q35.2031 44.4844 39.0156 42.9688
Q42.8281 41.4531 45.5312 38.5938
Q48.25 35.75 49.7344 31.6719
Q51.2188 27.5938 51.2188 22.5156
M42.2812 22.125
Q42.2812 25.6875 41.4062 28.5625
Q40.5312 31.4531 38.7656 33.4688
Q37.0156 35.5 34.4219 36.5938
Q31.8438 37.7031 28.4219 37.7031
Q26.0312 37.7031 23.5781 36.9844
Q21.1406 36.2812 19.1562 34.6875
Q17.1875 33.1094 15.9375 30.5156
Q14.7031 27.9375 14.7031 24.2188
Q14.7031 20.4062 15.6719 17.1094
Q16.6562 13.8125 18.4844 11.375
Q20.3125 8.9375 22.8906 7.51562
Q25.4844 6.10938 28.7188 6.10938
Q31.8906 6.10938 34.4062 7.20312
Q36.9219 8.29688 38.6719 10.375
Q40.4375 12.4531 41.3594 15.4219
Q42.2812 18.4062 42.2812 22.125" id="LiberationSans-36"/>
      </defs>
      <g style="fill:#262626;" transform="translate(203.126596354 332.8845)scale(0.08 -0.08)">
       <use xlink:href="#LiberationSans-30"/>
       <use x="55.615234375" xlink:href="#LiberationSans-2e"/>
       <use x="83.3984375" xlink:href="#LiberationSans-36"/>
      </g>
     </g>
    </g>
    <g id="xtick_5">
     <g id="line2d_5">
      <g>
       <use style="fill:#262626;stroke:#262626;stroke-width:0.8;" x="257.434070312" xlink:href="#m9ceacb34a3" y="321.487"/>
      </g>
     </g>
     <g id="text_5">
      <!-- 0.8 -->
      <defs>
       <path d="
M51.2656 19.1875
Q51.2656 14.7969 49.875 11.1094
Q48.4844 7.42188 45.625 4.73438
Q42.7812 2.04688 38.3281 0.53125
Q33.8906 -0.984375 27.8281 -0.984375
Q21.7812 -0.984375 17.3594 0.53125
Q12.9375 2.04688 10.0312 4.70312
Q7.125 7.375 5.73438 11.0625
Q4.34375 14.75 4.34375 19.0938
Q4.34375 22.8594 5.48438 25.7812
Q6.64062 28.7188 8.5625 30.8281
Q10.5 32.9531 12.9688 34.25
Q15.4375 35.5469 18.0625 35.9844
L18.0625 36.1875
Q15.1875 36.8594 12.9062 38.375
Q10.6406 39.8906 9.09375 42.0156
Q7.5625 44.1406 6.75 46.7188
Q5.95312 49.3125 5.95312 52.2031
Q5.95312 55.8125 7.34375 59
Q8.73438 62.2031 11.4688 64.625
Q14.2031 67.0469 18.25 68.4375
Q22.3125 69.8281 27.6406 69.8281
Q33.25 69.8281 37.375 68.4062
Q41.5 67 44.2031 64.5781
Q46.9219 62.1562 48.2344 58.9375
Q49.5625 55.7188 49.5625 52.0938
Q49.5625 49.2656 48.75 46.6719
Q47.9531 44.0938 46.4062 41.9688
Q44.875 39.8438 42.5938 38.3438
Q40.3281 36.8594 37.3594 36.2812
L37.3594 36.0781
Q40.3281 35.5938 42.8594 34.2969
Q45.4062 33.0156 47.2656 30.8906
Q49.125 28.7656 50.1875 25.8281
Q51.2656 22.9062 51.2656 19.1875
M40.4375 51.6094
Q40.4375 54.2031 39.7656 56.3438
Q39.1094 58.5 37.5938 60.0312
Q36.0781 61.5781 33.6406 62.4219
Q31.2031 63.2812 27.6406 63.2812
Q24.1719 63.2812 21.7812 62.4219
Q19.3906 61.5781 17.8438 60.0312
Q16.3125 58.5 15.625 56.3438
Q14.9375 54.2031 14.9375 51.6094
Q14.9375 49.5625 15.4688 47.4062
Q16.0156 45.2656 17.4219 43.5
Q18.8438 41.75 21.3281 40.625
Q23.8281 39.5 27.7344 39.5
Q31.8906 39.5 34.4062 40.625
Q36.9219 41.75 38.25 43.5
Q39.5938 45.2656 40.0156 47.4062
Q40.4375 49.5625 40.4375 51.6094
M42.1406 20.0156
Q42.1406 22.5156 41.4531 24.8281
Q40.7656 27.1562 39.1094 28.9375
Q37.4531 30.7188 34.6406 31.8125
Q31.8438 32.9062 27.6406 32.9062
Q23.7812 32.9062 21.0625 31.8125
Q18.3594 30.7188 16.6719 28.9062
Q14.9844 27.0938 14.2031 24.7188
Q13.4219 22.3594 13.4219 19.8281
Q13.4219 16.6562 14.2031 14.0312
Q14.9844 11.4219 16.6875 9.54688
Q18.4062 7.67188 21.1875 6.64062
Q23.9688 5.60938 27.9375 5.60938
Q31.9375 5.60938 34.6719 6.64062
Q37.4062 7.67188 39.0625 9.54688
Q40.7188 11.4219 41.4219 14.0781
Q42.1406 16.75 42.1406 20.0156" id="LiberationSans-38"/>
      </defs>
      <g style="fill:#262626;" transform="translate(252.204070312 332.8845)scale(0.08 -0.08)">
       <use xlink:href="#LiberationSans-30"/>
       <use x="55.615234375" xlink:href="#LiberationSans-2e"/>
       <use x="83.3984375" xlink:href="#LiberationSans-38"/>
      </g>
     </g>
    </g>
    <g id="xtick_6">
     <g id="line2d_6">
      <g>
       <use style="fill:#262626;stroke:#262626;stroke-width:0.8;" x="306.513419271" xlink:href="#m9ceacb34a3" y="321.487"/>
      </g>
     </g>
     <g id="text_6">
      <!-- 1.0 -->
      <defs>
       <path d="
M7.625 0
L7.625 7.46875
L25.1406 7.46875
L25.1406 60.4062
L9.625 49.3125
L9.625 57.625
L25.875 68.7969
L33.9844 68.7969
L33.9844 7.46875
L50.7344 7.46875
L50.7344 0
z
" id="LiberationSans-31"/>
      </defs>
      <g style="fill:#262626;" transform="translate(301.414669271 332.8845)scale(0.08 -0.08)">
       <use xlink:href="#LiberationSans-31"/>
       <use x="55.615234375" xlink:href="#LiberationSans-2e"/>
       <use x="83.3984375" xlink:href="#LiberationSans-30"/>
      </g>
     </g>
    </g>
    <g id="text_7">
     <!-- human accuracy -->
     <defs>
      <path d="
M6.9375 0
L6.9375 40.5312
Q6.9375 42.1875 6.90625 43.9219
Q6.89062 45.6562 6.82812 47.2656
Q6.78125 48.875 6.73438 50.2812
Q6.6875 51.7031 6.64062 52.8281
L14.9375 52.8281
Q14.9844 51.7031 15.0625 50.2656
Q15.1406 48.8281 15.2031 47.3125
Q15.2812 45.7969 15.2969 44.4062
Q15.3281 43.0156 15.3281 42.0469
L15.5312 42.0469
Q16.4531 45.0625 17.5 47.2812
Q18.5625 49.5156 19.9688 50.9531
Q21.3906 52.3906 23.3438 53.0938
Q25.2969 53.8125 28.0781 53.8125
Q29.1562 53.8125 30.125 53.6406
Q31.1094 53.4688 31.6406 53.3281
L31.6406 45.2656
Q30.7656 45.5156 29.5938 45.625
Q28.4219 45.75 26.9531 45.75
Q23.9219 45.75 21.7969 44.375
Q19.6719 43.0156 18.3281 40.5938
Q17 38.1875 16.3594 34.8438
Q15.7188 31.5 15.7188 27.5469
L15.7188 0
z
" id="LiberationSans-72"/>
      <path d="
M20.2188 -0.984375
Q12.25 -0.984375 8.25 3.21875
Q4.25 7.42188 4.25 14.75
Q4.25 19.9688 6.21875 23.3125
Q8.20312 26.6562 11.3906 28.5625
Q14.5938 30.4688 18.6875 31.2031
Q22.7969 31.9375 27.0469 32.0312
L38.9219 32.2344
L38.9219 35.1094
Q38.9219 38.375 38.2344 40.6719
Q37.5469 42.9688 36.125 44.375
Q34.7188 45.7969 32.5938 46.4531
Q30.4688 47.125 27.5938 47.125
Q25.0469 47.125 23 46.75
Q20.9531 46.3906 19.4375 45.4375
Q17.9219 44.4844 16.9844 42.8438
Q16.0625 41.2188 15.7656 38.7188
L6.59375 39.5469
Q7.07812 42.6719 8.4375 45.2812
Q9.8125 47.9062 12.3281 49.7969
Q14.8438 51.7031 18.625 52.75
Q22.4062 53.8125 27.7812 53.8125
Q37.75 53.8125 42.7656 49.2344
Q47.7969 44.6719 47.7969 36.0312
L47.7969 13.2812
Q47.7969 9.375 48.8281 7.39062
Q49.8594 5.42188 52.7344 5.42188
Q53.4688 5.42188 54.2031 5.51562
Q54.9375 5.60938 55.6094 5.76562
L55.6094 0.296875
Q53.9531 -0.09375 52.3125 -0.28125
Q50.6875 -0.484375 48.8281 -0.484375
Q46.3438 -0.484375 44.5625 0.171875
Q42.7812 0.828125 41.6562 2.17188
Q40.5312 3.51562 39.9375 5.48438
Q39.3594 7.46875 39.2031 10.1094
L38.9219 10.1094
Q37.5 7.5625 35.8125 5.51562
Q34.125 3.46875 31.875 2.03125
Q29.6406 0.59375 26.7812 -0.1875
Q23.9219 -0.984375 20.2188 -0.984375
M22.2188 5.60938
Q26.4219 5.60938 29.5625 7.14062
Q32.7188 8.6875 34.7812 11.0781
Q36.8594 13.4844 37.8906 16.3125
Q38.9219 19.1406 38.9219 21.7344
L38.9219 26.0781
L29.2969 25.875
Q26.0781 25.8281 23.1719 25.4062
Q20.2656 25 18.0625 23.7812
Q15.875 22.5625 14.5781 20.3594
Q13.2812 18.1719 13.2812 14.5938
Q13.2812 10.2969 15.5938 7.95312
Q17.9219 5.60938 22.2188 5.60938" id="LiberationSans-61"/>
      <path d="
M15.3281 52.8281
L15.3281 19.3438
Q15.3281 15.4844 15.8906 12.8906
Q16.4531 10.2969 17.7188 8.70312
Q19 7.125 21.0625 6.46875
Q23.1406 5.8125 26.2188 5.8125
Q29.3438 5.8125 31.8594 6.90625
Q34.375 8.01562 36.1562 10.0781
Q37.9375 12.1562 38.9062 15.2031
Q39.8906 18.2656 39.8906 22.2188
L39.8906 52.8281
L48.6875 52.8281
L48.6875 11.2812
Q48.6875 9.625 48.7031 7.78125
Q48.7344 5.95312 48.7812 4.3125
Q48.8281 2.6875 48.875 1.51562
Q48.9219 0.34375 48.9688 0
L40.6719 0
Q40.625 0.25 40.5781 1.3125
Q40.5312 2.39062 40.4531 3.78125
Q40.375 5.17188 40.3281 6.60938
Q40.2812 8.0625 40.2812 9.03125
L40.1406 9.03125
Q38.875 6.73438 37.3594 4.875
Q35.8438 3.03125 33.8438 1.73438
Q31.8438 0.4375 29.25 -0.265625
Q26.6562 -0.984375 23.25 -0.984375
Q18.8438 -0.984375 15.6719 0.09375
Q12.5 1.17188 10.4531 3.42188
Q8.40625 5.67188 7.45312 9.1875
Q6.5 12.7031 6.5 17.625
L6.5 52.8281
z
" id="LiberationSans-75"/>
      <path d="
M13.4219 26.6562
Q13.4219 22.125 14.0781 18.3125
Q14.75 14.5 16.3125 11.7344
Q17.875 8.98438 20.4375 7.46875
Q23 5.95312 26.7656 5.95312
Q31.4531 5.95312 34.5938 8.48438
Q37.75 11.0312 38.4844 16.3125
L47.3594 15.7188
Q46.9219 12.4531 45.4531 9.42188
Q44 6.39062 41.4844 4.09375
Q38.9688 1.8125 35.3438 0.40625
Q31.7344 -0.984375 27 -0.984375
Q20.7969 -0.984375 16.4531 1.10938
Q12.1094 3.21875 9.39062 6.90625
Q6.6875 10.5938 5.46875 15.5938
Q4.25 20.6094 4.25 26.4688
Q4.25 31.7812 5.125 35.8594
Q6 39.9375 7.59375 42.9844
Q9.1875 46.0469 11.3281 48.125
Q13.4844 50.2031 15.9844 51.4375
Q18.5 52.6875 21.2812 53.25
Q24.0781 53.8125 26.9062 53.8125
Q31.3438 53.8125 34.8125 52.5938
Q38.2812 51.375 40.7969 49.25
Q43.3125 47.125 44.875 44.2344
Q46.4375 41.3594 47.0781 38.0312
L38.0312 37.3594
Q37.3594 41.75 34.5625 44.3281
Q31.7812 46.9219 26.6562 46.9219
Q22.9062 46.9219 20.3906 45.6719
Q17.875 44.4375 16.3125 41.9219
Q14.75 39.4062 14.0781 35.5938
Q13.4219 31.7812 13.4219 26.6562" id="LiberationSans-63"/>
      <path d="
M29.5 0
Q27.6406 -4.78125 25.7031 -8.60938
Q23.7812 -12.4531 21.3906 -15.1562
Q19 -17.875 16.0625 -19.3125
Q13.1406 -20.75 9.32812 -20.75
Q7.67188 -20.75 6.25 -20.6562
Q4.82812 -20.5625 3.26562 -20.2188
L3.26562 -13.625
Q4.20312 -13.7656 5.375 -13.8438
Q6.54688 -13.9219 7.375 -13.9219
Q11.2344 -13.9219 14.5469 -11.0312
Q17.875 -8.15625 20.3594 -1.85938
L21.1875 0.25
L0.25 52.8281
L9.625 52.8281
L20.75 23.6406
Q21.2344 22.3125 21.9844 20.1094
Q22.75 17.9219 23.5 15.7188
Q24.2656 13.5312 24.8438 11.7656
Q25.4375 10.0156 25.5312 9.57812
Q25.6875 10.1094 26.25 11.6875
Q26.8125 13.2812 27.5156 15.2344
Q28.2188 17.1875 28.9531 19.1875
Q29.6875 21.1875 30.1719 22.6562
L40.5312 52.8281
L49.8125 52.8281
z
" id="LiberationSans-79"/>
      <path d="
M15.4844 43.7969
Q16.9375 46.4844 18.6406 48.3594
Q20.3594 50.25 22.4062 51.4688
Q24.4688 52.6875 26.9062 53.25
Q29.3438 53.8125 32.375 53.8125
Q37.4531 53.8125 40.7031 52.4375
Q43.9531 51.0781 45.8281 48.6094
Q47.7031 46.1406 48.4062 42.7188
Q49.125 39.3125 49.125 35.2031
L49.125 0
L40.2812 0
L40.2812 33.5
Q40.2812 36.8594 39.8594 39.3906
Q39.4531 41.9375 38.2812 43.625
Q37.1094 45.3125 34.9531 46.1562
Q32.8125 47.0156 29.3906 47.0156
Q26.2656 47.0156 23.75 45.8906
Q21.2344 44.7812 19.4531 42.7188
Q17.6719 40.6719 16.6875 37.7344
Q15.7188 34.8125 15.7188 31.1562
L15.7188 0
L6.9375 0
L6.9375 72.4688
L15.7188 72.4688
L15.7188 53.6094
Q15.7188 52 15.6719 50.3906
Q15.625 48.7812 15.5469 47.4062
Q15.4844 46.0469 15.4219 45.0938
Q15.375 44.1406 15.3281 43.7969
z
" id="LiberationSans-68"/>
      <path d="
M37.5 0
L37.5 33.5
Q37.5 37.3594 37.0156 39.9375
Q36.5312 42.5312 35.375 44.1094
Q34.2344 45.7031 32.375 46.3594
Q30.5156 47.0156 27.8281 47.0156
Q25.0469 47.0156 22.7969 45.9219
Q20.5625 44.8281 18.9688 42.75
Q17.3906 40.6719 16.5312 37.625
Q15.6719 34.5781 15.6719 30.6094
L15.6719 0
L6.9375 0
L6.9375 41.5469
Q6.9375 43.2188 6.90625 45.0469
Q6.89062 46.875 6.82812 48.5
Q6.78125 50.1406 6.73438 51.3125
Q6.6875 52.4844 6.64062 52.8281
L14.9375 52.8281
Q14.9844 52.5938 15.0312 51.5156
Q15.0938 50.4375 15.1562 49.0469
Q15.2344 47.6562 15.2812 46.2188
Q15.3281 44.7812 15.3281 43.7969
L15.4844 43.7969
Q16.6562 46.0938 18.0156 47.9531
Q19.3906 49.8125 21.2188 51.0938
Q23.0469 52.3906 25.4062 53.0938
Q27.7812 53.8125 30.9062 53.8125
Q36.9219 53.8125 40.4062 51.4219
Q43.8906 49.0312 45.2656 43.7969
L45.4062 43.7969
Q46.5781 46.0938 48.0469 47.9531
Q49.5156 49.8125 51.4688 51.0938
Q53.4219 52.3906 55.8594 53.0938
Q58.2969 53.8125 61.4219 53.8125
Q65.4375 53.8125 68.3281 52.7344
Q71.2344 51.6562 73.0938 49.4062
Q74.9531 47.1719 75.8281 43.625
Q76.7031 40.0938 76.7031 35.2031
L76.7031 0
L68.0156 0
L68.0156 33.5
Q68.0156 37.3594 67.5312 39.9375
Q67.0469 42.5312 65.8906 44.1094
Q64.75 45.7031 62.8906 46.3594
Q61.0312 47.0156 58.3438 47.0156
Q55.5625 47.0156 53.3125 45.9688
Q51.0781 44.9219 49.4844 42.875
Q47.9062 40.8281 47.0469 37.75
Q46.1875 34.6719 46.1875 30.6094
L46.1875 0
z
" id="LiberationSans-6d"/>
      <path d="
M40.2812 0
L40.2812 33.5
Q40.2812 37.3594 39.7188 39.9375
Q39.1562 42.5312 37.8906 44.1094
Q36.625 45.7031 34.5469 46.3594
Q32.4688 47.0156 29.3906 47.0156
Q26.2656 47.0156 23.75 45.9219
Q21.2344 44.8281 19.4531 42.75
Q17.6719 40.6719 16.6875 37.625
Q15.7188 34.5781 15.7188 30.6094
L15.7188 0
L6.9375 0
L6.9375 41.5469
Q6.9375 43.2188 6.90625 45.0469
Q6.89062 46.875 6.82812 48.5
Q6.78125 50.1406 6.73438 51.3125
Q6.6875 52.4844 6.64062 52.8281
L14.9375 52.8281
Q14.9844 52.5938 15.0312 51.5156
Q15.0938 50.4375 15.1562 49.0469
Q15.2344 47.6562 15.2812 46.2188
Q15.3281 44.7812 15.3281 43.7969
L15.4844 43.7969
Q16.75 46.0938 18.2656 47.9531
Q19.7812 49.8125 21.7812 51.0938
Q23.7812 52.3906 26.3594 53.0938
Q28.9531 53.8125 32.375 53.8125
Q36.7656 53.8125 39.9375 52.7344
Q43.1094 51.6562 45.1562 49.4062
Q47.2188 47.1719 48.1719 43.625
Q49.125 40.0938 49.125 35.2031
L49.125 0
z
" id="LiberationSans-6e"/>
      <path id="LiberationSans-20"/>
     </defs>
     <g style="fill:#262626;" transform="translate(151.543109375 345.92175)scale(0.088 -0.088)">
      <use xlink:href="#LiberationSans-68"/>
      <use x="55.615234375" xlink:href="#LiberationSans-75"/>
      <use x="111.23046875" xlink:href="#LiberationSans-6d"/>
      <use x="194.53125" xlink:href="#LiberationSans-61"/>
      <use x="250.146484375" xlink:href="#LiberationSans-6e"/>
      <use x="305.76171875" xlink:href="#LiberationSans-20"/>
      <use x="333.544921875" xlink:href="#LiberationSans-61"/>
      <use x="389.16015625" xlink:href="#LiberationSans-63"/>
      <use x="439.16015625" xlink:href="#LiberationSans-63"/>
      <use x="489.16015625" xlink:href="#LiberationSans-75"/>
      <use x="544.775390625" xlink:href="#LiberationSans-72"/>
      <use x="578.076171875" xlink:href="#LiberationSans-61"/>
      <use x="633.69140625" xlink:href="#LiberationSans-63"/>
      <use x="683.69140625" xlink:href="#LiberationSans-79"/>
     </g>
    </g>
   </g>
   <g id="matplotlib.axis_2">
    <g id="ytick_1">
     <g id="line2d_7">
      <g>
       <use style="fill:#262626;stroke:#262626;stroke-width:0.8;" x="36.577" xlink:href="#m9ceacb34a3" y="296.292833333"/>
      </g>
     </g>
     <g id="text_8">
      <!-- 0.0 -->
      <g style="fill:#262626;" transform="translate(20.482 298.361583333)scale(0.08 -0.08)">
       <use xlink:href="#LiberationSans-30"/>
       <use x="55.615234375" xlink:href="#LiberationSans-2e"/>
       <use x="83.3984375" xlink:href="#LiberationSans-30"/>
      </g>
     </g>
    </g>
    <g id="ytick_2">
     <g id="line2d_8">
      <g>
       <use style="fill:#262626;stroke:#262626;stroke-width:0.8;" x="36.577" xlink:href="#m9ceacb34a3" y="245.9045"/>
      </g>
     </g>
     <g id="text_9">
      <!-- 0.2 -->
      <g style="fill:#262626;" transform="translate(20.57075 247.97325)scale(0.08 -0.08)">
       <use xlink:href="#LiberationSans-30"/>
       <use x="55.615234375" xlink:href="#LiberationSans-2e"/>
       <use x="83.3984375" xlink:href="#LiberationSans-32"/>
      </g>
     </g>
    </g>
    <g id="ytick_3">
     <g id="line2d_9">
      <g>
       <use style="fill:#262626;stroke:#262626;stroke-width:0.8;" x="36.577" xlink:href="#m9ceacb34a3" y="195.516166667"/>
      </g>
     </g>
     <g id="text_10">
      <!-- 0.4 -->
      <g style="fill:#262626;" transform="translate(20.40325 197.584916667)scale(0.08 -0.08)">
       <use xlink:href="#LiberationSans-30"/>
       <use x="55.615234375" xlink:href="#LiberationSans-2e"/>
       <use x="83.3984375" xlink:href="#LiberationSans-34"/>
      </g>
     </g>
    </g>
    <g id="ytick_4">
     <g id="line2d_10">
      <g>
       <use style="fill:#262626;stroke:#262626;stroke-width:0.8;" x="36.577" xlink:href="#m9ceacb34a3" y="145.127833333"/>
      </g>
     </g>
     <g id="text_11">
      <!-- 0.6 -->
      <g style="fill:#262626;" transform="translate(20.52075 147.196583333)scale(0.08 -0.08)">
       <use xlink:href="#LiberationSans-30"/>
       <use x="55.615234375" xlink:href="#LiberationSans-2e"/>
       <use x="83.3984375" xlink:href="#LiberationSans-36"/>
      </g>
     </g>
    </g>
    <g id="ytick_5">
     <g id="line2d_11">
      <g>
       <use style="fill:#262626;stroke:#262626;stroke-width:0.8;" x="36.577" xlink:href="#m9ceacb34a3" y="94.7395"/>
      </g>
     </g>
     <g id="text_12">
      <!-- 0.8 -->
      <g style="fill:#262626;" transform="translate(20.517 96.80825)scale(0.08 -0.08)">
       <use xlink:href="#LiberationSans-30"/>
       <use x="55.615234375" xlink:href="#LiberationSans-2e"/>
       <use x="83.3984375" xlink:href="#LiberationSans-38"/>
      </g>
     </g>
    </g>
    <g id="ytick_6">
     <g id="line2d_12">
      <g>
       <use style="fill:#262626;stroke:#262626;stroke-width:0.8;" x="36.577" xlink:href="#m9ceacb34a3" y="44.3511666667"/>
      </g>
     </g>
     <g id="text_13">
      <!-- 1.0 -->
      <g style="fill:#262626;" transform="translate(20.7795 46.4199166667)scale(0.08 -0.08)">
       <use xlink:href="#LiberationSans-31"/>
       <use x="55.615234375" xlink:href="#LiberationSans-2e"/>
       <use x="83.3984375" xlink:href="#LiberationSans-30"/>
      </g>
     </g>
    </g>
    <g id="text_14">
     <!-- accuracy -->
     <g style="fill:#262626;" transform="translate(13.57725 187.73225)rotate(-90.0)scale(0.088 -0.088)">
      <use xlink:href="#LiberationSans-61"/>
      <use x="55.615234375" xlink:href="#LiberationSans-63"/>
      <use x="105.615234375" xlink:href="#LiberationSans-63"/>
      <use x="155.615234375" xlink:href="#LiberationSans-75"/>
      <use x="211.23046875" xlink:href="#LiberationSans-72"/>
      <use x="244.53125" xlink:href="#LiberationSans-61"/>
      <use x="300.146484375" xlink:href="#LiberationSans-63"/>
      <use x="350.146484375" xlink:href="#LiberationSans-79"/>
     </g>
    </g>
   </g>
   <g id="PathCollection_1">
    <defs>
     <path d="
M0 2.23607
C0.593012 2.23607 1.16182 2.00046 1.58114 1.58114
C2.00046 1.16182 2.23607 0.593012 2.23607 0
C2.23607 -0.593012 2.00046 -1.16182 1.58114 -1.58114
C1.16182 -2.00046 0.593012 -2.23607 0 -2.23607
C-0.593012 -2.23607 -1.16182 -2.00046 -1.58114 -1.58114
C-2.00046 -1.16182 -2.23607 -0.593012 -2.23607 0
C-2.23607 0.593012 -2.00046 1.16182 -1.58114 1.58114
C-1.16182 2.00046 -0.593012 2.23607 0 2.23607
z
" id="m7062e01d87"/>
    </defs>
    <g clip-path="url(#p58ffe85af0)">
     <use style="fill:#fa8e63;fill-opacity:0.8;" x="61.1166744792" xlink:href="#m7062e01d87" y="291.722800189"/>
     <use style="fill:#fa8e63;fill-opacity:0.8;" x="275.495270729" xlink:href="#m7062e01d87" y="49.9544476477"/>
     <use style="fill:#fa8e63;fill-opacity:0.8;" x="75.2269873047" xlink:href="#m7062e01d87" y="305.643382104"/>
     <use style="fill:#fa8e63;fill-opacity:0.8;" x="300.869294141" xlink:href="#m7062e01d87" y="298.996780226"/>
     <use style="fill:#fa8e63;fill-opacity:0.8;" x="72.7975595313" xlink:href="#m7062e01d87" y="284.794071486"/>
     <use style="fill:#fa8e63;fill-opacity:0.8;" x="247.274645078" xlink:href="#m7062e01d87" y="304.175309791"/>
     <use style="fill:#fa8e63;fill-opacity:0.8;" x="145.729472083" xlink:href="#m7062e01d87" y="286.114794242"/>
     <use style="fill:#fa8e63;fill-opacity:0.8;" x="154.612834245" xlink:href="#m7062e01d87" y="43.2475122594"/>
     <use style="fill:#fa8e63;fill-opacity:0.8;" x="303.593198008" xlink:href="#m7062e01d87" y="45.4367474912"/>
     <use style="fill:#fa8e63;fill-opacity:0.8;" x="113.705196888" xlink:href="#m7062e01d87" y="286.66761837"/>
     <use style="fill:#fa8e63;fill-opacity:0.8;" x="291.912312956" xlink:href="#m7062e01d87" y="45.3941053532"/>
     <use style="fill:#fa8e63;fill-opacity:0.8;" x="125.999573802" xlink:href="#m7062e01d87" y="290.645116535"/>
     <use style="fill:#fa8e63;fill-opacity:0.8;" x="80.8711124349" xlink:href="#m7062e01d87" y="298.836806207"/>
     <use style="fill:#fa8e63;fill-opacity:0.8;" x="61.1166744792" xlink:href="#m7062e01d87" y="34.1716048912"/>
     <use style="fill:#fa8e63;fill-opacity:0.8;" x="120.355448672" xlink:href="#m7062e01d87" y="291.505311304"/>
     <use style="fill:#fa8e63;fill-opacity:0.8;" x="303.593198008" xlink:href="#m7062e01d87" y="291.263522028"/>
     <use style="fill:#fa8e63;fill-opacity:0.8;" x="259.765339388" xlink:href="#m7062e01d87" y="300.63327425"/>
     <use style="fill:#fa8e63;fill-opacity:0.8;" x="278.317333294" xlink:href="#m7062e01d87" y="289.823509412"/>
     <use style="fill:#fa8e63;fill-opacity:0.8;" x="278.317333294" xlink:href="#m7062e01d87" y="292.864888426"/>
     <use style="fill:#fa8e63;fill-opacity:0.8;" x="255.740832773" xlink:href="#m7062e01d87" y="302.842805896"/>
     <use style="fill:#fa8e63;fill-opacity:0.8;" x="300.869294141" xlink:href="#m7062e01d87" y="304.845274817"/>
     <use style="fill:#fa8e63;fill-opacity:0.8;" x="188.035870885" xlink:href="#m7062e01d87" y="36.8838304591"/>
     <use style="fill:#fa8e63;fill-opacity:0.8;" x="303.691356706" xlink:href="#m7062e01d87" y="32.782846742"/>
     <use style="fill:#fa8e63;fill-opacity:0.8;" x="271.44622444" xlink:href="#m7062e01d87" y="297.347490696"/>
     <use style="fill:#fa8e63;fill-opacity:0.8;" x="120.355448672" xlink:href="#m7062e01d87" y="294.000563108"/>
     <use style="fill:#fa8e63;fill-opacity:0.8;" x="289.58104388" xlink:href="#m7062e01d87" y="287.280309415"/>
     <use style="fill:#fa8e63;fill-opacity:0.8;" x="157.533055508" xlink:href="#m7062e01d87" y="297.370552779"/>
     <use style="fill:#fa8e63;fill-opacity:0.8;" x="61.1166744792" xlink:href="#m7062e01d87" y="284.908232452"/>
     <use style="fill:#fa8e63;fill-opacity:0.8;" x="300.672976745" xlink:href="#m7062e01d87" y="294.384345932"/>
     <use style="fill:#fa8e63;fill-opacity:0.8;" x="300.869294141" xlink:href="#m7062e01d87" y="288.211373033"/>
     <use style="fill:#fa8e63;fill-opacity:0.8;" x="306.513419271" xlink:href="#m7062e01d87" y="34.0506898844"/>
     <use style="fill:#fa8e63;fill-opacity:0.8;" x="238.808457383" xlink:href="#m7062e01d87" y="36.4018069893"/>
     <use style="fill:#fa8e63;fill-opacity:0.8;" x="61.1166744792" xlink:href="#m7062e01d87" y="52.9319354388"/>
     <use style="fill:#fa8e63;fill-opacity:0.8;" x="119.545639414" xlink:href="#m7062e01d87" y="293.045344577"/>
     <use style="fill:#fa8e63;fill-opacity:0.8;" x="286.758981315" xlink:href="#m7062e01d87" y="46.9100308826"/>
     <use style="fill:#fa8e63;fill-opacity:0.8;" x="295.22516901" xlink:href="#m7062e01d87" y="307.309916101"/>
     <use style="fill:#fa8e63;fill-opacity:0.8;" x="289.58104388" xlink:href="#m7062e01d87" y="46.2651107738"/>
     <use style="fill:#fa8e63;fill-opacity:0.8;" x="303.593198008" xlink:href="#m7062e01d87" y="50.4309205048"/>
     <use style="fill:#fa8e63;fill-opacity:0.8;" x="303.691356706" xlink:href="#m7062e01d87" y="287.499104018"/>
     <use style="fill:#fa8e63;fill-opacity:0.8;" x="303.691356706" xlink:href="#m7062e01d87" y="308.050834355"/>
     <use style="fill:#fa8e63;fill-opacity:0.8;" x="241.630519948" xlink:href="#m7062e01d87" y="284.729146142"/>
     <use style="fill:#fa8e63;fill-opacity:0.8;" x="64.0368957422" xlink:href="#m7062e01d87" y="299.93669467"/>
     <use style="fill:#fa8e63;fill-opacity:0.8;" x="300.869294141" xlink:href="#m7062e01d87" y="299.902983819"/>
     <use style="fill:#fa8e63;fill-opacity:0.8;" x="64.0368957422" xlink:href="#m7062e01d87" y="56.536866982"/>
     <use style="fill:#fa8e63;fill-opacity:0.8;" x="87.3986658464" xlink:href="#m7062e01d87" y="304.223142593"/>
     <use style="fill:#fa8e63;fill-opacity:0.8;" x="250.096707643" xlink:href="#m7062e01d87" y="46.8388512602"/>
     <use style="fill:#fa8e63;fill-opacity:0.8;" x="306.513419271" xlink:href="#m7062e01d87" y="33.5355271506"/>
     <use style="fill:#fa8e63;fill-opacity:0.8;" x="81.5582233203" xlink:href="#m7062e01d87" y="54.4385348455"/>
     <use style="fill:#fa8e63;fill-opacity:0.8;" x="300.869294141" xlink:href="#m7062e01d87" y="285.073832282"/>
     <use style="fill:#fa8e63;fill-opacity:0.8;" x="300.672976745" xlink:href="#m7062e01d87" y="286.983877713"/>
     <use style="fill:#fa8e63;fill-opacity:0.8;" x="61.1166744792" xlink:href="#m7062e01d87" y="297.447673545"/>
     <use style="fill:#fa8e63;fill-opacity:0.8;" x="185.21380832" xlink:href="#m7062e01d87" y="300.658960201"/>
     <use style="fill:#fa8e63;fill-opacity:0.8;" x="119.545639414" xlink:href="#m7062e01d87" y="303.026122283"/>
     <use style="fill:#fa8e63;fill-opacity:0.8;" x="80.8711124349" xlink:href="#m7062e01d87" y="293.408990441"/>
     <use style="fill:#fa8e63;fill-opacity:0.8;" x="92.1348230208" xlink:href="#m7062e01d87" y="56.1149632299"/>
     <use style="fill:#fa8e63;fill-opacity:0.8;" x="306.513419271" xlink:href="#m7062e01d87" y="308.496734878"/>
     <use style="fill:#fa8e63;fill-opacity:0.8;" x="306.513419271" xlink:href="#m7062e01d87" y="46.1450991014"/>
     <use style="fill:#fa8e63;fill-opacity:0.8;" x="306.513419271" xlink:href="#m7062e01d87" y="55.2331804346"/>
     <use style="fill:#fa8e63;fill-opacity:0.8;" x="264.207020469" xlink:href="#m7062e01d87" y="302.542473419"/>
     <use style="fill:#fa8e63;fill-opacity:0.8;" x="102.024311836" xlink:href="#m7062e01d87" y="51.3762850386"/>
     <use style="fill:#fa8e63;fill-opacity:0.8;" x="66.7607996094" xlink:href="#m7062e01d87" y="302.510975533"/>
    </g>
   </g>
   <g id="PolyCollection_1">
    <defs>
     <path d="
M61.1167 -182.457
L61.1167 -80.0606
L63.5954 -80.4772
L66.0742 -80.9011
L68.5529 -81.3324
L71.0317 -81.7712
L73.5104 -82.2177
L75.9892 -82.6592
L78.468 -83.1311
L80.9467 -83.6016
L83.4255 -84.0802
L85.9042 -84.6041
L88.383 -85.1474
L90.8617 -85.6744
L93.3405 -86.208
L95.8192 -86.7508
L98.298 -87.3029
L100.777 -87.8645
L103.256 -88.3573
L105.734 -88.8454
L108.213 -89.3404
L110.692 -89.8857
L113.171 -90.4647
L115.649 -91.0528
L118.128 -91.6501
L120.607 -92.2568
L123.086 -92.8729
L125.564 -93.5005
L128.043 -94.176
L130.522 -95.1011
L133.001 -95.6818
L135.479 -96.2702
L137.958 -96.8663
L140.437 -97.4824
L142.916 -98.2921
L145.394 -98.9401
L147.873 -99.6032
L150.352 -100.329
L152.831 -101.065
L155.309 -101.609
L157.788 -102.294
L160.267 -102.833
L162.746 -103.694
L165.224 -104.407
L167.703 -104.978
L170.182 -105.555
L172.661 -106.136
L175.139 -106.712
L177.618 -106.451
L180.097 -107.472
L182.576 -108.143
L185.054 -108.535
L187.533 -109.062
L190.012 -109.808
L192.491 -110.566
L194.969 -111.331
L197.448 -112.105
L199.927 -112.837
L202.406 -113.377
L204.884 -113.825
L207.363 -114.261
L209.842 -114.727
L212.321 -115.517
L214.799 -115.635
L217.278 -115.698
L219.757 -116.055
L222.236 -116.23
L224.715 -116.706
L227.193 -116.601
L229.672 -116.269
L232.151 -117.059
L234.63 -117.507
L237.108 -118.299
L239.587 -119.22
L242.066 -119.134
L244.545 -119.113
L247.023 -119.055
L249.502 -118.983
L251.981 -118.997
L254.46 -119.181
L256.938 -119.251
L259.417 -119.371
L261.896 -119.317
L264.375 -119.29
L266.853 -119.073
L269.332 -118.819
L271.811 -118.465
L274.29 -118.397
L276.768 -118.342
L279.247 -118.023
L281.726 -117.932
L284.205 -117.974
L286.683 -118.007
L289.162 -117.85
L291.641 -117.521
L294.12 -117.203
L296.598 -117.096
L299.077 -116.753
L301.556 -116.229
L304.035 -116.001
L306.513 -115.973
L306.513 -203.339
L306.513 -203.339
L304.035 -202.523
L301.556 -201.654
L299.077 -200.77
L296.598 -199.903
L294.12 -198.888
L291.641 -198.049
L289.162 -196.987
L286.683 -196.055
L284.205 -195.077
L281.726 -194.12
L279.247 -193.263
L276.768 -192.338
L274.29 -191.479
L271.811 -190.482
L269.332 -189.804
L266.853 -188.71
L264.375 -187.872
L261.896 -187.532
L259.417 -186.54
L256.938 -185.762
L254.46 -184.78
L251.981 -184.202
L249.502 -183.698
L247.023 -183.209
L244.545 -182.831
L242.066 -182.237
L239.587 -181.603
L237.108 -181.079
L234.63 -180.752
L232.151 -180.748
L229.672 -179.952
L227.193 -179.207
L224.715 -178.998
L222.236 -178.434
L219.757 -178.348
L217.278 -177.778
L214.799 -177.209
L212.321 -176.64
L209.842 -176.07
L207.363 -175.589
L204.884 -175.321
L202.406 -175.065
L199.927 -175.126
L197.448 -175.245
L194.969 -175.291
L192.491 -175.26
L190.012 -175.023
L187.533 -174.785
L185.054 -174.537
L182.576 -174.285
L180.097 -174.149
L177.618 -174.101
L175.139 -174.031
L172.661 -174.361
L170.182 -174.225
L167.703 -174.442
L165.224 -174.535
L162.746 -174.288
L160.267 -174.026
L157.788 -174.216
L155.309 -173.664
L152.831 -173.391
L150.352 -173.337
L147.873 -173.271
L145.394 -173.352
L142.916 -173.573
L140.437 -173.782
L137.958 -173.783
L135.479 -173.658
L133.001 -173.753
L130.522 -173.543
L128.043 -173.555
L125.564 -173.645
L123.086 -173.734
L120.607 -173.694
L118.128 -173.927
L115.649 -174.275
L113.171 -174.713
L110.692 -175.086
L108.213 -175.444
L105.734 -174.953
L103.256 -175.357
L100.777 -175.82
L98.298 -176.45
L95.8192 -177.001
L93.3405 -177.552
L90.8617 -178.018
L88.383 -178.311
L85.9042 -178.529
L83.4255 -178.743
L80.9467 -178.91
L78.468 -179.177
L75.9892 -179.546
L73.5104 -180.146
L71.0317 -180.905
L68.5529 -181.345
L66.0742 -181.91
L63.5954 -182.082
L61.1167 -182.457
z
" id="m234d54daac" style="stroke:#fa8e63;stroke-opacity:0.15;stroke-width:0.24;"/>
    </defs>
    <g clip-path="url(#p58ffe85af0)">
     <use style="fill:#fa8e63;fill-opacity:0.15;stroke:#fa8e63;stroke-opacity:0.15;stroke-width:0.24;" x="0.0" xlink:href="#m234d54daac" y="354.94775"/>
    </g>
   </g>
   <g id="PathCollection_2">
    <path clip-path="url(#p58ffe85af0)" d="
M73.3865 224.473
C74.8984 224.473 76.3486 223.873 77.4176 222.803
C78.4867 221.734 79.0874 220.284 79.0874 218.772
C79.0874 217.26 78.4867 215.81 77.4176 214.741
C76.3486 213.672 74.8984 213.071 73.3865 213.071
C71.8746 213.071 70.4245 213.672 69.3554 214.741
C68.2863 215.81 67.6856 217.26 67.6856 218.772
C67.6856 220.284 68.2863 221.734 69.3554 222.803
C70.4245 223.873 71.8746 224.473 73.3865 224.473
z
" style="fill:#262626;fill-opacity:0.8;"/>
    <path clip-path="url(#p58ffe85af0)" d="
M97.9262 131.07
C98.6525 131.07 99.3491 130.782 99.8627 130.268
C100.376 129.755 100.665 129.058 100.665 128.332
C100.665 127.605 100.376 126.909 99.8627 126.395
C99.3491 125.882 98.6525 125.593 97.9262 125.593
C97.1999 125.593 96.5033 125.882 95.9897 126.395
C95.4761 126.909 95.1876 127.605 95.1876 128.332
C95.1876 129.058 95.4761 129.755 95.9897 130.268
C96.5033 130.782 97.1999 131.07 97.9262 131.07
z
" style="fill:#262626;fill-opacity:0.8;"/>
    <path clip-path="url(#p58ffe85af0)" d="
M122.466 300.166
C123.493 300.166 124.478 299.758 125.204 299.031
C125.931 298.305 126.339 297.32 126.339 296.293
C126.339 295.266 125.931 294.281 125.204 293.554
C124.478 292.828 123.493 292.42 122.466 292.42
C121.439 292.42 120.454 292.828 119.727 293.554
C119.001 294.281 118.593 295.266 118.593 296.293
C118.593 297.32 119.001 298.305 119.727 299.031
C120.454 299.758 121.439 300.166 122.466 300.166
z
" style="fill:#262626;fill-opacity:0.8;"/>
    <path clip-path="url(#p58ffe85af0)" d="
M147.006 215.051
C147.732 215.051 148.428 214.762 148.942 214.249
C149.456 213.735 149.744 213.039 149.744 212.312
C149.744 211.586 149.456 210.889 148.942 210.376
C148.428 209.862 147.732 209.574 147.006 209.574
C146.279 209.574 145.583 209.862 145.069 210.376
C144.555 210.889 144.267 211.586 144.267 212.312
C144.267 213.039 144.555 213.735 145.069 214.249
C145.583 214.762 146.279 215.051 147.006 215.051
z
" style="fill:#262626;fill-opacity:0.8;"/>
    <path clip-path="url(#p58ffe85af0)" d="
M196.085 172.558
C196.678 172.558 197.247 172.322 197.666 171.903
C198.085 171.484 198.321 170.915 198.321 170.322
C198.321 169.729 198.085 169.16 197.666 168.741
C197.247 168.322 196.678 168.086 196.085 168.086
C195.492 168.086 194.923 168.322 194.504 168.741
C194.084 169.16 193.849 169.729 193.849 170.322
C193.849 170.915 194.084 171.484 194.504 171.903
C194.923 172.322 195.492 172.558 196.085 172.558
z
" style="fill:#262626;fill-opacity:0.8;"/>
    <path clip-path="url(#p58ffe85af0)" d="
M245.164 199.052
C246.102 199.052 247.001 198.679 247.664 198.016
C248.327 197.353 248.7 196.454 248.7 195.516
C248.7 194.579 248.327 193.679 247.664 193.016
C247.001 192.353 246.102 191.981 245.164 191.981
C244.227 191.981 243.327 192.353 242.664 193.016
C242.001 193.679 241.629 194.579 241.629 195.516
C241.629 196.454 242.001 197.353 242.664 198.016
C243.327 198.679 244.227 199.052 245.164 199.052
z
" style="fill:#262626;fill-opacity:0.8;"/>
    <path clip-path="url(#p58ffe85af0)" d="
M269.704 258.176
C270.731 258.176 271.716 257.767 272.443 257.041
C273.169 256.315 273.577 255.33 273.577 254.303
C273.577 253.275 273.169 252.29 272.443 251.564
C271.716 250.838 270.731 250.43 269.704 250.43
C268.677 250.43 267.692 250.838 266.965 251.564
C266.239 252.29 265.831 253.275 265.831 254.303
C265.831 255.33 266.239 256.315 266.965 257.041
C267.692 257.767 268.677 258.176 269.704 258.176
z
" style="fill:#262626;fill-opacity:0.8;"/>
    <path clip-path="url(#p58ffe85af0)" d="
M294.244 194.336
C296.255 194.336 298.183 193.537 299.605 192.115
C301.027 190.693 301.826 188.764 301.826 186.753
C301.826 184.742 301.027 182.813 299.605 181.391
C298.183 179.969 296.255 179.17 294.244 179.17
C292.233 179.17 290.304 179.969 288.882 181.391
C287.46 182.813 286.661 184.742 286.661 186.753
C286.661 188.764 287.46 190.693 288.882 192.115
C290.304 193.537 292.233 194.336 294.244 194.336
z
" style="fill:#262626;fill-opacity:0.8;"/>
   </g>
   <g id="line2d_13">
    <path clip-path="url(#p58ffe85af0)" d="
M61.1167 226.276
L63.5954 226.011
L66.0742 225.745
L68.5529 225.479
L71.0317 225.212
L73.5104 224.945
L75.9892 224.677
L78.468 224.408
L80.9467 224.138
L83.4255 223.869
L85.9042 223.598
L88.383 223.327
L90.8617 223.055
L93.3405 222.783
L95.8192 222.51
L98.298 222.236
L100.777 221.962
L103.256 221.688
L105.734 221.412
L108.213 221.136
L110.692 220.86
L113.171 220.583
L115.649 220.305
L118.128 220.027
L120.607 219.748
L123.086 219.469
L125.564 219.189
L128.043 218.909
L130.522 218.628
L133.001 218.346
L135.479 218.064
L137.958 217.781
L140.437 217.498
L142.916 217.214
L145.394 216.929
L147.873 216.645
L150.352 216.359
L152.831 216.073
L155.309 215.786
L157.788 215.499
L160.267 215.212
L162.746 214.923
L165.224 214.635
L167.703 214.345
L170.182 214.055
L172.661 213.765
L175.139 213.474
L177.618 213.183
L180.097 212.891
L182.576 212.599
L185.054 212.306
L187.533 212.012
L190.012 211.718
L192.491 211.424
L194.969 211.129
L197.448 210.833
L199.927 210.537
L202.406 210.241
L204.884 209.944
L207.363 209.646
L209.842 209.349
L212.321 209.05
L214.799 208.751
L217.278 208.452
L219.757 208.152
L222.236 207.852
L224.715 207.551
L227.193 207.25
L229.672 206.948
L232.151 206.646
L234.63 206.343
L237.108 206.04
L239.587 205.736
L242.066 205.432
L244.545 205.128
L247.023 204.823
L249.502 204.518
L251.981 204.212
L254.46 203.906
L256.938 203.599
L259.417 203.292
L261.896 202.985
L264.375 202.677
L266.853 202.369
L269.332 202.06
L271.811 201.751
L274.29 201.441
L276.768 201.132
L279.247 200.821
L281.726 200.511
L284.205 200.199
L286.683 199.888
L289.162 199.576
L291.641 199.264
L294.12 198.951
L296.598 198.638
L299.077 198.325
L301.556 198.011
L304.035 197.697
L306.513 197.383" style="fill:none;stroke:#fa8e63;stroke-linecap:round;stroke-width:2.1;"/>
   </g>
   <g id="patch_3">
    <path d="
M36.577 321.487
L331.053 321.487" style="fill:none;stroke:#262626;stroke-linecap:square;stroke-linejoin:miter;stroke-width:1.25;"/>
   </g>
   <g id="patch_4">
    <path d="
M36.577 321.487
L36.577 19.157" style="fill:none;stroke:#262626;stroke-linecap:square;stroke-linejoin:miter;stroke-width:1.25;"/>
   </g>
   <g id="text_15">
    <!-- VGG-19 -->
    <defs>
     <path d="
M5.03125 34.7188
Q5.03125 42.7812 7.20312 49.2656
Q9.375 55.7656 13.6875 60.3281
Q18.0156 64.8906 24.4062 67.3594
Q30.8125 69.8281 39.2656 69.8281
Q45.6094 69.8281 50.3906 68.7031
Q55.1719 67.5781 58.6875 65.4688
Q62.2031 63.375 64.6406 60.375
Q67.0938 57.375 68.7969 53.6094
L59.9062 50.9844
Q58.6406 53.5156 56.8594 55.5938
Q55.0781 57.6719 52.5312 59.125
Q50 60.5938 46.6562 61.3906
Q43.3125 62.2031 39.0156 62.2031
Q32.7656 62.2031 28.1406 60.25
Q23.5312 58.2969 20.5 54.6875
Q17.4844 51.0781 15.9844 46
Q14.5 40.9219 14.5 34.7188
Q14.5 28.5156 16.1094 23.3594
Q17.7188 18.2188 20.8906 14.4844
Q24.0781 10.75 28.7812 8.67188
Q33.5 6.59375 39.7031 6.59375
Q43.75 6.59375 47.1719 7.26562
Q50.5938 7.95312 53.3438 9.04688
Q56.1094 10.1562 58.2031 11.5
Q60.2969 12.8438 61.7188 14.2031
L61.7188 26.6094
L41.1562 26.6094
L41.1562 34.4219
L70.3125 34.4219
L70.3125 10.6875
Q68.0156 8.34375 64.9062 6.21875
Q61.8125 4.10938 57.9531 2.48438
Q54.1094 0.875 49.5156 -0.046875
Q44.9219 -0.984375 39.7031 -0.984375
Q31 -0.984375 24.5 1.67188
Q18.0156 4.34375 13.6875 9.10938
Q9.375 13.875 7.20312 20.4062
Q5.03125 26.9531 5.03125 34.7188" id="LiberationSans-47"/>
     <path d="
M38.1875 0
L28.5156 0
L0.4375 68.7969
L10.25 68.7969
L29.2969 20.3594
Q30.0312 18.1719 30.7656 15.9844
Q31.5 13.8125 32.0781 12.1094
Q32.7656 10.1094 33.4062 8.20312
Q33.9844 10.0156 34.6719 12.0156
Q35.25 13.7188 35.9531 15.8594
Q36.6719 18.0156 37.5 20.3594
L56.4531 68.7969
L66.2656 68.7969
z
" id="LiberationSans-56"/>
     <path d="
M4.4375 22.6562
L4.4375 30.4688
L28.8594 30.4688
L28.8594 22.6562
z
" id="LiberationSans-2d"/>
     <path d="
M50.875 35.7969
Q50.875 26.6094 49.1406 19.7031
Q47.4062 12.7969 44.1875 8.20312
Q40.9688 3.60938 36.3438 1.3125
Q31.7344 -0.984375 25.9844 -0.984375
Q22.0156 -0.984375 18.8438 -0.171875
Q15.6719 0.640625 13.1719 2.34375
Q10.6875 4.04688 8.92188 6.78125
Q7.17188 9.51562 6.10938 13.375
L14.5 14.7031
Q15.875 10.25 18.7812 8.17188
Q21.6875 6.10938 26.125 6.10938
Q29.6875 6.10938 32.6406 7.78125
Q35.5938 9.46875 37.6719 12.8438
Q39.75 16.2188 40.9219 21.2969
Q42.0938 26.375 42.1875 33.2031
Q41.1562 30.9062 39.375 29.0938
Q37.5938 27.2969 35.3281 26.0469
Q33.0625 24.8125 30.4219 24.1406
Q27.7812 23.4844 25.0938 23.4844
Q20.4062 23.4844 16.625 25.1719
Q12.8438 26.8594 10.2031 29.875
Q7.5625 32.9062 6.125 37.1719
Q4.6875 41.4531 4.6875 46.6875
Q4.6875 52 6.21875 56.2969
Q7.76562 60.5938 10.6875 63.5938
Q13.625 66.6094 17.8906 68.2188
Q22.1719 69.8281 27.5938 69.8281
Q39.0625 69.8281 44.9688 61.3281
Q50.875 52.8281 50.875 35.7969
M41.3125 44.2812
Q41.3125 48.0938 40.4062 51.4531
Q39.5 54.8281 37.7188 57.3125
Q35.9375 59.8125 33.3281 61.25
Q30.7188 62.7031 27.2969 62.7031
Q24.125 62.7031 21.5781 61.5781
Q19.0469 60.4531 17.2812 58.375
Q15.5312 56.2969 14.5781 53.3125
Q13.625 50.3438 13.625 46.6875
Q13.625 43.2188 14.4688 40.2344
Q15.3281 37.25 17.0312 35.0781
Q18.75 32.9062 21.2812 31.6562
Q23.8281 30.4219 27.2031 30.4219
Q29.6406 30.4219 32.1562 31.25
Q34.6719 32.0781 36.6875 33.7812
Q38.7188 35.5 40.0156 38.1094
Q41.3125 40.7188 41.3125 44.2812" id="LiberationSans-39"/>
    </defs>
    <g style="fill:#262626;" transform="translate(166.457796875 14.157)scale(0.096 -0.096)">
     <use xlink:href="#LiberationSans-56"/>
     <use x="66.69921875" xlink:href="#LiberationSans-47"/>
     <use x="144.482421875" xlink:href="#LiberationSans-47"/>
     <use x="222.265625" xlink:href="#LiberationSans-2d"/>
     <use x="255.56640625" xlink:href="#LiberationSans-31"/>
     <use x="311.181640625" xlink:href="#LiberationSans-39"/>
    </g>
   </g>
  </g>
 </g>
 <defs>
  <clipPath id="p58ffe85af0">
   <rect height="302.33" width="294.47609375" x="36.577" y="19.157"/>
  </clipPath>
 </defs>
</svg>
