<?xml version="1.0" encoding="utf-8" standalone="no"?>
<!DOCTYPE svg PUBLIC "-//W3C//DTD SVG 1.1//EN"
  "http://www.w3.org/Graphics/SVG/1.1/DTD/svg11.dtd">
<!-- Created with matplotlib (http://matplotlib.org/) -->
<svg height="354pt" version="1.1" viewBox="0 0 338 354" width="338pt" xmlns="http://www.w3.org/2000/svg" xmlns:xlink="http://www.w3.org/1999/xlink">
 <defs>
  <style type="text/css">
*{stroke-linecap:butt;stroke-linejoin:round;}
  </style>
 </defs>
 <g id="figure_1">
  <g id="patch_1">
   <path d="
M0 354.948
L338.253 354.948
L338.253 0
L0 0
z
" style="fill:#ffffff;"/>
  </g>
  <g id="axes_1">
   <g id="patch_2">
    <path d="
M36.577 321.487
L331.053 321.487
L331.053 19.157
L36.577 19.157
z
" style="fill:#ffffff;"/>
   </g>
   <g id="matplotlib.axis_1">
    <g id="xtick_1">
     <g id="line2d_1">
      <defs>
       <path d="
M0 0
L0 0" id="m9ceacb34a3" style="stroke:#262626;stroke-width:0.8;"/>
      </defs>
      <g>
       <use style="fill:#262626;stroke:#262626;stroke-width:0.8;" x="61.1166744792" xlink:href="#m9ceacb34a3" y="321.487"/>
      </g>
     </g>
     <g id="text_1">
      <!-- 0.0 -->
      <defs>
       <path d="
M9.125 0
L9.125 10.6875
L18.6562 10.6875
L18.6562 0
z
" id="LiberationSans-2e"/>
       <path d="
M51.7031 34.4219
Q51.7031 24.5156 49.8281 17.75
Q47.9531 10.9844 44.7031 6.8125
Q41.4531 2.64062 37.0625 0.828125
Q32.6719 -0.984375 27.6875 -0.984375
Q22.6562 -0.984375 18.3125 0.828125
Q13.9688 2.64062 10.7656 6.78125
Q7.5625 10.9375 5.73438 17.7031
Q3.90625 24.4688 3.90625 34.4219
Q3.90625 44.8281 5.73438 51.6406
Q7.5625 58.4531 10.7812 62.5
Q14.0156 66.5469 18.4062 68.1875
Q22.7969 69.8281 27.9844 69.8281
Q32.9062 69.8281 37.2188 68.1875
Q41.5469 66.5469 44.7656 62.5
Q48 58.4531 49.8438 51.6406
Q51.7031 44.8281 51.7031 34.4219
M42.7812 34.4219
Q42.7812 42.625 41.7969 48.0625
Q40.8281 53.5156 38.9219 56.7656
Q37.0156 60.0156 34.25 61.3594
Q31.5 62.7031 27.9844 62.7031
Q24.2656 62.7031 21.4375 61.3281
Q18.6094 59.9688 16.6719 56.7188
Q14.75 53.4688 13.7656 48.0156
Q12.7969 42.5781 12.7969 34.4219
Q12.7969 26.5156 13.7969 21.0938
Q14.7969 15.6719 16.7188 12.375
Q18.6562 9.07812 21.4375 7.64062
Q24.2188 6.20312 27.7812 6.20312
Q31.25 6.20312 34.0312 7.64062
Q36.8125 9.07812 38.7344 12.375
Q40.6719 15.6719 41.7188 21.0938
Q42.7812 26.5156 42.7812 34.4219" id="LiberationSans-30"/>
      </defs>
      <g style="fill:#262626;" transform="translate(55.8691744792 332.8845)scale(0.08 -0.08)">
       <use xlink:href="#LiberationSans-30"/>
       <use x="55.615234375" xlink:href="#LiberationSans-2e"/>
       <use x="83.3984375" xlink:href="#LiberationSans-30"/>
      </g>
     </g>
    </g>
    <g id="xtick_2">
     <g id="line2d_2">
      <g>
       <use style="fill:#262626;stroke:#262626;stroke-width:0.8;" x="110.196023438" xlink:href="#m9ceacb34a3" y="321.487"/>
      </g>
     </g>
     <g id="text_2">
      <!-- 0.2 -->
      <defs>
       <path d="
M5.03125 0
L5.03125 6.20312
Q7.51562 11.9219 11.1094 16.2812
Q14.7031 20.6562 18.6562 24.1875
Q22.6094 27.7344 26.4844 30.7656
Q30.375 33.7969 33.5 36.8125
Q36.625 39.8438 38.5469 43.1562
Q40.4844 46.4844 40.4844 50.6875
Q40.4844 53.6094 39.5938 55.8281
Q38.7188 58.0625 37.0625 59.5625
Q35.4062 61.0781 33.0781 61.8281
Q30.7656 62.5938 27.9375 62.5938
Q25.2969 62.5938 22.9688 61.8594
Q20.6562 61.1406 18.8438 59.6719
Q17.0469 58.2031 15.8906 56.0312
Q14.75 53.8594 14.4062 50.9844
L5.42188 51.8125
Q5.85938 55.5156 7.46875 58.7812
Q9.07812 62.0625 11.9062 64.5312
Q14.75 67 18.7188 68.4062
Q22.7031 69.8281 27.9375 69.8281
Q33.0625 69.8281 37.0625 68.6094
Q41.0625 67.3906 43.8125 64.9844
Q46.5781 62.5938 48.0469 59.0781
Q49.5156 55.5625 49.5156 50.9844
Q49.5156 47.5156 48.2656 44.3906
Q47.0156 41.2656 44.9375 38.4219
Q42.875 35.5938 40.1406 32.9531
Q37.4062 30.3281 34.4219 27.8125
Q31.4531 25.2969 28.4219 22.8281
Q25.3906 20.3594 22.7188 17.8594
Q20.0625 15.375 17.9688 12.8125
Q15.875 10.25 14.7031 7.46875
L50.5938 7.46875
L50.5938 0
z
" id="LiberationSans-32"/>
      </defs>
      <g style="fill:#262626;" transform="translate(104.992898438 332.8845)scale(0.08 -0.08)">
       <use xlink:href="#LiberationSans-30"/>
       <use x="55.615234375" xlink:href="#LiberationSans-2e"/>
       <use x="83.3984375" xlink:href="#LiberationSans-32"/>
      </g>
     </g>
    </g>
    <g id="xtick_3">
     <g id="line2d_3">
      <g>
       <use style="fill:#262626;stroke:#262626;stroke-width:0.8;" x="159.275372396" xlink:href="#m9ceacb34a3" y="321.487"/>
      </g>
     </g>
     <g id="text_3">
      <!-- 0.4 -->
      <defs>
       <path d="
M43.0156 15.5781
L43.0156 0
L34.7188 0
L34.7188 15.5781
L2.29688 15.5781
L2.29688 22.4062
L33.7969 68.7969
L43.0156 68.7969
L43.0156 22.5156
L52.6875 22.5156
L52.6875 15.5781
z

M34.7188 58.8906
Q34.625 58.6406 34.2344 57.9375
Q33.8438 57.2344 33.3438 56.3438
Q32.8594 55.4688 32.3438 54.5625
Q31.8438 53.6562 31.4531 53.0781
L13.8125 27.0938
Q13.5781 26.7031 13.1094 26.0625
Q12.6406 25.4375 12.1562 24.7812
Q11.6719 24.125 11.1719 23.4844
Q10.6875 22.8594 10.4062 22.5156
L34.7188 22.5156
z
" id="LiberationSans-34"/>
      </defs>
      <g style="fill:#262626;" transform="translate(153.988497396 332.8845)scale(0.08 -0.08)">
       <use xlink:href="#LiberationSans-30"/>
       <use x="55.615234375" xlink:href="#LiberationSans-2e"/>
       <use x="83.3984375" xlink:href="#LiberationSans-34"/>
      </g>
     </g>
    </g>
    <g id="xtick_4">
     <g id="line2d_4">
      <g>
       <use style="fill:#262626;stroke:#262626;stroke-width:0.8;" x="208.354721354" xlink:href="#m9ceacb34a3" y="321.487"/>
      </g>
     </g>
     <g id="text_4">
      <!-- 0.6 -->
      <defs>
       <path d="
M51.2188 22.5156
Q51.2188 17.3281 49.7812 13
Q48.3438 8.6875 45.5312 5.57812
Q42.7188 2.48438 38.5625 0.75
Q34.4219 -0.984375 29 -0.984375
Q23 -0.984375 18.5 1.3125
Q14.0156 3.60938 11.0312 7.92188
Q8.0625 12.25 6.5625 18.5312
Q5.07812 24.8125 5.07812 32.8125
Q5.07812 42 6.76562 48.9219
Q8.45312 55.8594 11.625 60.5
Q14.7969 65.1406 19.3594 67.4844
Q23.9219 69.8281 29.6875 69.8281
Q33.2031 69.8281 36.2812 69.0938
Q39.3594 68.3594 41.875 66.7188
Q44.3906 65.0938 46.2812 62.4062
Q48.1875 59.7188 49.3125 55.8125
L40.9219 54.2969
Q39.5469 58.7344 36.5469 60.7188
Q33.5469 62.7031 29.5938 62.7031
Q25.9844 62.7031 23.0469 60.9844
Q20.125 59.2812 18.0625 55.875
Q16.0156 52.4844 14.9062 47.3594
Q13.8125 42.2344 13.8125 35.4062
Q16.2188 39.8438 20.5625 42.1562
Q24.9062 44.4844 30.5156 44.4844
Q35.2031 44.4844 39.0156 42.9688
Q42.8281 41.4531 45.5312 38.5938
Q48.25 35.75 49.7344 31.6719
Q51.2188 27.5938 51.2188 22.5156
M42.2812 22.125
Q42.2812 25.6875 41.4062 28.5625
Q40.5312 31.4531 38.7656 33.4688
Q37.0156 35.5 34.4219 36.5938
Q31.8438 37.7031 28.4219 37.7031
Q26.0312 37.7031 23.5781 36.9844
Q21.1406 36.2812 19.1562 34.6875
Q17.1875 33.1094 15.9375 30.5156
Q14.7031 27.9375 14.7031 24.2188
Q14.7031 20.4062 15.6719 17.1094
Q16.6562 13.8125 18.4844 11.375
Q20.3125 8.9375 22.8906 7.51562
Q25.4844 6.10938 28.7188 6.10938
Q31.8906 6.10938 34.4062 7.20312
Q36.9219 8.29688 38.6719 10.375
Q40.4375 12.4531 41.3594 15.4219
Q42.2812 18.4062 42.2812 22.125" id="LiberationSans-36"/>
      </defs>
      <g style="fill:#262626;" transform="translate(203.126596354 332.8845)scale(0.08 -0.08)">
       <use xlink:href="#LiberationSans-30"/>
       <use x="55.615234375" xlink:href="#LiberationSans-2e"/>
       <use x="83.3984375" xlink:href="#LiberationSans-36"/>
      </g>
     </g>
    </g>
    <g id="xtick_5">
     <g id="line2d_5">
      <g>
       <use style="fill:#262626;stroke:#262626;stroke-width:0.8;" x="257.434070312" xlink:href="#m9ceacb34a3" y="321.487"/>
      </g>
     </g>
     <g id="text_5">
      <!-- 0.8 -->
      <defs>
       <path d="
M51.2656 19.1875
Q51.2656 14.7969 49.875 11.1094
Q48.4844 7.42188 45.625 4.73438
Q42.7812 2.04688 38.3281 0.53125
Q33.8906 -0.984375 27.8281 -0.984375
Q21.7812 -0.984375 17.3594 0.53125
Q12.9375 2.04688 10.0312 4.70312
Q7.125 7.375 5.73438 11.0625
Q4.34375 14.75 4.34375 19.0938
Q4.34375 22.8594 5.48438 25.7812
Q6.64062 28.7188 8.5625 30.8281
Q10.5 32.9531 12.9688 34.25
Q15.4375 35.5469 18.0625 35.9844
L18.0625 36.1875
Q15.1875 36.8594 12.9062 38.375
Q10.6406 39.8906 9.09375 42.0156
Q7.5625 44.1406 6.75 46.7188
Q5.95312 49.3125 5.95312 52.2031
Q5.95312 55.8125 7.34375 59
Q8.73438 62.2031 11.4688 64.625
Q14.2031 67.0469 18.25 68.4375
Q22.3125 69.8281 27.6406 69.8281
Q33.25 69.8281 37.375 68.4062
Q41.5 67 44.2031 64.5781
Q46.9219 62.1562 48.2344 58.9375
Q49.5625 55.7188 49.5625 52.0938
Q49.5625 49.2656 48.75 46.6719
Q47.9531 44.0938 46.4062 41.9688
Q44.875 39.8438 42.5938 38.3438
Q40.3281 36.8594 37.3594 36.2812
L37.3594 36.0781
Q40.3281 35.5938 42.8594 34.2969
Q45.4062 33.0156 47.2656 30.8906
Q49.125 28.7656 50.1875 25.8281
Q51.2656 22.9062 51.2656 19.1875
M40.4375 51.6094
Q40.4375 54.2031 39.7656 56.3438
Q39.1094 58.5 37.5938 60.0312
Q36.0781 61.5781 33.6406 62.4219
Q31.2031 63.2812 27.6406 63.2812
Q24.1719 63.2812 21.7812 62.4219
Q19.3906 61.5781 17.8438 60.0312
Q16.3125 58.5 15.625 56.3438
Q14.9375 54.2031 14.9375 51.6094
Q14.9375 49.5625 15.4688 47.4062
Q16.0156 45.2656 17.4219 43.5
Q18.8438 41.75 21.3281 40.625
Q23.8281 39.5 27.7344 39.5
Q31.8906 39.5 34.4062 40.625
Q36.9219 41.75 38.25 43.5
Q39.5938 45.2656 40.0156 47.4062
Q40.4375 49.5625 40.4375 51.6094
M42.1406 20.0156
Q42.1406 22.5156 41.4531 24.8281
Q40.7656 27.1562 39.1094 28.9375
Q37.4531 30.7188 34.6406 31.8125
Q31.8438 32.9062 27.6406 32.9062
Q23.7812 32.9062 21.0625 31.8125
Q18.3594 30.7188 16.6719 28.9062
Q14.9844 27.0938 14.2031 24.7188
Q13.4219 22.3594 13.4219 19.8281
Q13.4219 16.6562 14.2031 14.0312
Q14.9844 11.4219 16.6875 9.54688
Q18.4062 7.67188 21.1875 6.64062
Q23.9688 5.60938 27.9375 5.60938
Q31.9375 5.60938 34.6719 6.64062
Q37.4062 7.67188 39.0625 9.54688
Q40.7188 11.4219 41.4219 14.0781
Q42.1406 16.75 42.1406 20.0156" id="LiberationSans-38"/>
      </defs>
      <g style="fill:#262626;" transform="translate(252.204070312 332.8845)scale(0.08 -0.08)">
       <use xlink:href="#LiberationSans-30"/>
       <use x="55.615234375" xlink:href="#LiberationSans-2e"/>
       <use x="83.3984375" xlink:href="#LiberationSans-38"/>
      </g>
     </g>
    </g>
    <g id="xtick_6">
     <g id="line2d_6">
      <g>
       <use style="fill:#262626;stroke:#262626;stroke-width:0.8;" x="306.513419271" xlink:href="#m9ceacb34a3" y="321.487"/>
      </g>
     </g>
     <g id="text_6">
      <!-- 1.0 -->
      <defs>
       <path d="
M7.625 0
L7.625 7.46875
L25.1406 7.46875
L25.1406 60.4062
L9.625 49.3125
L9.625 57.625
L25.875 68.7969
L33.9844 68.7969
L33.9844 7.46875
L50.7344 7.46875
L50.7344 0
z
" id="LiberationSans-31"/>
      </defs>
      <g style="fill:#262626;" transform="translate(301.414669271 332.8845)scale(0.08 -0.08)">
       <use xlink:href="#LiberationSans-31"/>
       <use x="55.615234375" xlink:href="#LiberationSans-2e"/>
       <use x="83.3984375" xlink:href="#LiberationSans-30"/>
      </g>
     </g>
    </g>
    <g id="text_7">
     <!-- human accuracy -->
     <defs>
      <path d="
M6.9375 0
L6.9375 40.5312
Q6.9375 42.1875 6.90625 43.9219
Q6.89062 45.6562 6.82812 47.2656
Q6.78125 48.875 6.73438 50.2812
Q6.6875 51.7031 6.64062 52.8281
L14.9375 52.8281
Q14.9844 51.7031 15.0625 50.2656
Q15.1406 48.8281 15.2031 47.3125
Q15.2812 45.7969 15.2969 44.4062
Q15.3281 43.0156 15.3281 42.0469
L15.5312 42.0469
Q16.4531 45.0625 17.5 47.2812
Q18.5625 49.5156 19.9688 50.9531
Q21.3906 52.3906 23.3438 53.0938
Q25.2969 53.8125 28.0781 53.8125
Q29.1562 53.8125 30.125 53.6406
Q31.1094 53.4688 31.6406 53.3281
L31.6406 45.2656
Q30.7656 45.5156 29.5938 45.625
Q28.4219 45.75 26.9531 45.75
Q23.9219 45.75 21.7969 44.375
Q19.6719 43.0156 18.3281 40.5938
Q17 38.1875 16.3594 34.8438
Q15.7188 31.5 15.7188 27.5469
L15.7188 0
z
" id="LiberationSans-72"/>
      <path d="
M20.2188 -0.984375
Q12.25 -0.984375 8.25 3.21875
Q4.25 7.42188 4.25 14.75
Q4.25 19.9688 6.21875 23.3125
Q8.20312 26.6562 11.3906 28.5625
Q14.5938 30.4688 18.6875 31.2031
Q22.7969 31.9375 27.0469 32.0312
L38.9219 32.2344
L38.9219 35.1094
Q38.9219 38.375 38.2344 40.6719
Q37.5469 42.9688 36.125 44.375
Q34.7188 45.7969 32.5938 46.4531
Q30.4688 47.125 27.5938 47.125
Q25.0469 47.125 23 46.75
Q20.9531 46.3906 19.4375 45.4375
Q17.9219 44.4844 16.9844 42.8438
Q16.0625 41.2188 15.7656 38.7188
L6.59375 39.5469
Q7.07812 42.6719 8.4375 45.2812
Q9.8125 47.9062 12.3281 49.7969
Q14.8438 51.7031 18.625 52.75
Q22.4062 53.8125 27.7812 53.8125
Q37.75 53.8125 42.7656 49.2344
Q47.7969 44.6719 47.7969 36.0312
L47.7969 13.2812
Q47.7969 9.375 48.8281 7.39062
Q49.8594 5.42188 52.7344 5.42188
Q53.4688 5.42188 54.2031 5.51562
Q54.9375 5.60938 55.6094 5.76562
L55.6094 0.296875
Q53.9531 -0.09375 52.3125 -0.28125
Q50.6875 -0.484375 48.8281 -0.484375
Q46.3438 -0.484375 44.5625 0.171875
Q42.7812 0.828125 41.6562 2.17188
Q40.5312 3.51562 39.9375 5.48438
Q39.3594 7.46875 39.2031 10.1094
L38.9219 10.1094
Q37.5 7.5625 35.8125 5.51562
Q34.125 3.46875 31.875 2.03125
Q29.6406 0.59375 26.7812 -0.1875
Q23.9219 -0.984375 20.2188 -0.984375
M22.2188 5.60938
Q26.4219 5.60938 29.5625 7.14062
Q32.7188 8.6875 34.7812 11.0781
Q36.8594 13.4844 37.8906 16.3125
Q38.9219 19.1406 38.9219 21.7344
L38.9219 26.0781
L29.2969 25.875
Q26.0781 25.8281 23.1719 25.4062
Q20.2656 25 18.0625 23.7812
Q15.875 22.5625 14.5781 20.3594
Q13.2812 18.1719 13.2812 14.5938
Q13.2812 10.2969 15.5938 7.95312
Q17.9219 5.60938 22.2188 5.60938" id="LiberationSans-61"/>
      <path d="
M15.3281 52.8281
L15.3281 19.3438
Q15.3281 15.4844 15.8906 12.8906
Q16.4531 10.2969 17.7188 8.70312
Q19 7.125 21.0625 6.46875
Q23.1406 5.8125 26.2188 5.8125
Q29.3438 5.8125 31.8594 6.90625
Q34.375 8.01562 36.1562 10.0781
Q37.9375 12.1562 38.9062 15.2031
Q39.8906 18.2656 39.8906 22.2188
L39.8906 52.8281
L48.6875 52.8281
L48.6875 11.2812
Q48.6875 9.625 48.7031 7.78125
Q48.7344 5.95312 48.7812 4.3125
Q48.8281 2.6875 48.875 1.51562
Q48.9219 0.34375 48.9688 0
L40.6719 0
Q40.625 0.25 40.5781 1.3125
Q40.5312 2.39062 40.4531 3.78125
Q40.375 5.17188 40.3281 6.60938
Q40.2812 8.0625 40.2812 9.03125
L40.1406 9.03125
Q38.875 6.73438 37.3594 4.875
Q35.8438 3.03125 33.8438 1.73438
Q31.8438 0.4375 29.25 -0.265625
Q26.6562 -0.984375 23.25 -0.984375
Q18.8438 -0.984375 15.6719 0.09375
Q12.5 1.17188 10.4531 3.42188
Q8.40625 5.67188 7.45312 9.1875
Q6.5 12.7031 6.5 17.625
L6.5 52.8281
z
" id="LiberationSans-75"/>
      <path d="
M13.4219 26.6562
Q13.4219 22.125 14.0781 18.3125
Q14.75 14.5 16.3125 11.7344
Q17.875 8.98438 20.4375 7.46875
Q23 5.95312 26.7656 5.95312
Q31.4531 5.95312 34.5938 8.48438
Q37.75 11.0312 38.4844 16.3125
L47.3594 15.7188
Q46.9219 12.4531 45.4531 9.42188
Q44 6.39062 41.4844 4.09375
Q38.9688 1.8125 35.3438 0.40625
Q31.7344 -0.984375 27 -0.984375
Q20.7969 -0.984375 16.4531 1.10938
Q12.1094 3.21875 9.39062 6.90625
Q6.6875 10.5938 5.46875 15.5938
Q4.25 20.6094 4.25 26.4688
Q4.25 31.7812 5.125 35.8594
Q6 39.9375 7.59375 42.9844
Q9.1875 46.0469 11.3281 48.125
Q13.4844 50.2031 15.9844 51.4375
Q18.5 52.6875 21.2812 53.25
Q24.0781 53.8125 26.9062 53.8125
Q31.3438 53.8125 34.8125 52.5938
Q38.2812 51.375 40.7969 49.25
Q43.3125 47.125 44.875 44.2344
Q46.4375 41.3594 47.0781 38.0312
L38.0312 37.3594
Q37.3594 41.75 34.5625 44.3281
Q31.7812 46.9219 26.6562 46.9219
Q22.9062 46.9219 20.3906 45.6719
Q17.875 44.4375 16.3125 41.9219
Q14.75 39.4062 14.0781 35.5938
Q13.4219 31.7812 13.4219 26.6562" id="LiberationSans-63"/>
      <path d="
M29.5 0
Q27.6406 -4.78125 25.7031 -8.60938
Q23.7812 -12.4531 21.3906 -15.1562
Q19 -17.875 16.0625 -19.3125
Q13.1406 -20.75 9.32812 -20.75
Q7.67188 -20.75 6.25 -20.6562
Q4.82812 -20.5625 3.26562 -20.2188
L3.26562 -13.625
Q4.20312 -13.7656 5.375 -13.8438
Q6.54688 -13.9219 7.375 -13.9219
Q11.2344 -13.9219 14.5469 -11.0312
Q17.875 -8.15625 20.3594 -1.85938
L21.1875 0.25
L0.25 52.8281
L9.625 52.8281
L20.75 23.6406
Q21.2344 22.3125 21.9844 20.1094
Q22.75 17.9219 23.5 15.7188
Q24.2656 13.5312 24.8438 11.7656
Q25.4375 10.0156 25.5312 9.57812
Q25.6875 10.1094 26.25 11.6875
Q26.8125 13.2812 27.5156 15.2344
Q28.2188 17.1875 28.9531 19.1875
Q29.6875 21.1875 30.1719 22.6562
L40.5312 52.8281
L49.8125 52.8281
z
" id="LiberationSans-79"/>
      <path d="
M15.4844 43.7969
Q16.9375 46.4844 18.6406 48.3594
Q20.3594 50.25 22.4062 51.4688
Q24.4688 52.6875 26.9062 53.25
Q29.3438 53.8125 32.375 53.8125
Q37.4531 53.8125 40.7031 52.4375
Q43.9531 51.0781 45.8281 48.6094
Q47.7031 46.1406 48.4062 42.7188
Q49.125 39.3125 49.125 35.2031
L49.125 0
L40.2812 0
L40.2812 33.5
Q40.2812 36.8594 39.8594 39.3906
Q39.4531 41.9375 38.2812 43.625
Q37.1094 45.3125 34.9531 46.1562
Q32.8125 47.0156 29.3906 47.0156
Q26.2656 47.0156 23.75 45.8906
Q21.2344 44.7812 19.4531 42.7188
Q17.6719 40.6719 16.6875 37.7344
Q15.7188 34.8125 15.7188 31.1562
L15.7188 0
L6.9375 0
L6.9375 72.4688
L15.7188 72.4688
L15.7188 53.6094
Q15.7188 52 15.6719 50.3906
Q15.625 48.7812 15.5469 47.4062
Q15.4844 46.0469 15.4219 45.0938
Q15.375 44.1406 15.3281 43.7969
z
" id="LiberationSans-68"/>
      <path d="
M37.5 0
L37.5 33.5
Q37.5 37.3594 37.0156 39.9375
Q36.5312 42.5312 35.375 44.1094
Q34.2344 45.7031 32.375 46.3594
Q30.5156 47.0156 27.8281 47.0156
Q25.0469 47.0156 22.7969 45.9219
Q20.5625 44.8281 18.9688 42.75
Q17.3906 40.6719 16.5312 37.625
Q15.6719 34.5781 15.6719 30.6094
L15.6719 0
L6.9375 0
L6.9375 41.5469
Q6.9375 43.2188 6.90625 45.0469
Q6.89062 46.875 6.82812 48.5
Q6.78125 50.1406 6.73438 51.3125
Q6.6875 52.4844 6.64062 52.8281
L14.9375 52.8281
Q14.9844 52.5938 15.0312 51.5156
Q15.0938 50.4375 15.1562 49.0469
Q15.2344 47.6562 15.2812 46.2188
Q15.3281 44.7812 15.3281 43.7969
L15.4844 43.7969
Q16.6562 46.0938 18.0156 47.9531
Q19.3906 49.8125 21.2188 51.0938
Q23.0469 52.3906 25.4062 53.0938
Q27.7812 53.8125 30.9062 53.8125
Q36.9219 53.8125 40.4062 51.4219
Q43.8906 49.0312 45.2656 43.7969
L45.4062 43.7969
Q46.5781 46.0938 48.0469 47.9531
Q49.5156 49.8125 51.4688 51.0938
Q53.4219 52.3906 55.8594 53.0938
Q58.2969 53.8125 61.4219 53.8125
Q65.4375 53.8125 68.3281 52.7344
Q71.2344 51.6562 73.0938 49.4062
Q74.9531 47.1719 75.8281 43.625
Q76.7031 40.0938 76.7031 35.2031
L76.7031 0
L68.0156 0
L68.0156 33.5
Q68.0156 37.3594 67.5312 39.9375
Q67.0469 42.5312 65.8906 44.1094
Q64.75 45.7031 62.8906 46.3594
Q61.0312 47.0156 58.3438 47.0156
Q55.5625 47.0156 53.3125 45.9688
Q51.0781 44.9219 49.4844 42.875
Q47.9062 40.8281 47.0469 37.75
Q46.1875 34.6719 46.1875 30.6094
L46.1875 0
z
" id="LiberationSans-6d"/>
      <path d="
M40.2812 0
L40.2812 33.5
Q40.2812 37.3594 39.7188 39.9375
Q39.1562 42.5312 37.8906 44.1094
Q36.625 45.7031 34.5469 46.3594
Q32.4688 47.0156 29.3906 47.0156
Q26.2656 47.0156 23.75 45.9219
Q21.2344 44.8281 19.4531 42.75
Q17.6719 40.6719 16.6875 37.625
Q15.7188 34.5781 15.7188 30.6094
L15.7188 0
L6.9375 0
L6.9375 41.5469
Q6.9375 43.2188 6.90625 45.0469
Q6.89062 46.875 6.82812 48.5
Q6.78125 50.1406 6.73438 51.3125
Q6.6875 52.4844 6.64062 52.8281
L14.9375 52.8281
Q14.9844 52.5938 15.0312 51.5156
Q15.0938 50.4375 15.1562 49.0469
Q15.2344 47.6562 15.2812 46.2188
Q15.3281 44.7812 15.3281 43.7969
L15.4844 43.7969
Q16.75 46.0938 18.2656 47.9531
Q19.7812 49.8125 21.7812 51.0938
Q23.7812 52.3906 26.3594 53.0938
Q28.9531 53.8125 32.375 53.8125
Q36.7656 53.8125 39.9375 52.7344
Q43.1094 51.6562 45.1562 49.4062
Q47.2188 47.1719 48.1719 43.625
Q49.125 40.0938 49.125 35.2031
L49.125 0
z
" id="LiberationSans-6e"/>
      <path id="LiberationSans-20"/>
     </defs>
     <g style="fill:#262626;" transform="translate(151.543109375 345.92175)scale(0.088 -0.088)">
      <use xlink:href="#LiberationSans-68"/>
      <use x="55.615234375" xlink:href="#LiberationSans-75"/>
      <use x="111.23046875" xlink:href="#LiberationSans-6d"/>
      <use x="194.53125" xlink:href="#LiberationSans-61"/>
      <use x="250.146484375" xlink:href="#LiberationSans-6e"/>
      <use x="305.76171875" xlink:href="#LiberationSans-20"/>
      <use x="333.544921875" xlink:href="#LiberationSans-61"/>
      <use x="389.16015625" xlink:href="#LiberationSans-63"/>
      <use x="439.16015625" xlink:href="#LiberationSans-63"/>
      <use x="489.16015625" xlink:href="#LiberationSans-75"/>
      <use x="544.775390625" xlink:href="#LiberationSans-72"/>
      <use x="578.076171875" xlink:href="#LiberationSans-61"/>
      <use x="633.69140625" xlink:href="#LiberationSans-63"/>
      <use x="683.69140625" xlink:href="#LiberationSans-79"/>
     </g>
    </g>
   </g>
   <g id="matplotlib.axis_2">
    <g id="ytick_1">
     <g id="line2d_7">
      <g>
       <use style="fill:#262626;stroke:#262626;stroke-width:0.8;" x="36.577" xlink:href="#m9ceacb34a3" y="296.292833333"/>
      </g>
     </g>
     <g id="text_8">
      <!-- 0.0 -->
      <g style="fill:#262626;" transform="translate(20.482 298.361583333)scale(0.08 -0.08)">
       <use xlink:href="#LiberationSans-30"/>
       <use x="55.615234375" xlink:href="#LiberationSans-2e"/>
       <use x="83.3984375" xlink:href="#LiberationSans-30"/>
      </g>
     </g>
    </g>
    <g id="ytick_2">
     <g id="line2d_8">
      <g>
       <use style="fill:#262626;stroke:#262626;stroke-width:0.8;" x="36.577" xlink:href="#m9ceacb34a3" y="245.9045"/>
      </g>
     </g>
     <g id="text_9">
      <!-- 0.2 -->
      <g style="fill:#262626;" transform="translate(20.57075 247.97325)scale(0.08 -0.08)">
       <use xlink:href="#LiberationSans-30"/>
       <use x="55.615234375" xlink:href="#LiberationSans-2e"/>
       <use x="83.3984375" xlink:href="#LiberationSans-32"/>
      </g>
     </g>
    </g>
    <g id="ytick_3">
     <g id="line2d_9">
      <g>
       <use style="fill:#262626;stroke:#262626;stroke-width:0.8;" x="36.577" xlink:href="#m9ceacb34a3" y="195.516166667"/>
      </g>
     </g>
     <g id="text_10">
      <!-- 0.4 -->
      <g style="fill:#262626;" transform="translate(20.40325 197.584916667)scale(0.08 -0.08)">
       <use xlink:href="#LiberationSans-30"/>
       <use x="55.615234375" xlink:href="#LiberationSans-2e"/>
       <use x="83.3984375" xlink:href="#LiberationSans-34"/>
      </g>
     </g>
    </g>
    <g id="ytick_4">
     <g id="line2d_10">
      <g>
       <use style="fill:#262626;stroke:#262626;stroke-width:0.8;" x="36.577" xlink:href="#m9ceacb34a3" y="145.127833333"/>
      </g>
     </g>
     <g id="text_11">
      <!-- 0.6 -->
      <g style="fill:#262626;" transform="translate(20.52075 147.196583333)scale(0.08 -0.08)">
       <use xlink:href="#LiberationSans-30"/>
       <use x="55.615234375" xlink:href="#LiberationSans-2e"/>
       <use x="83.3984375" xlink:href="#LiberationSans-36"/>
      </g>
     </g>
    </g>
    <g id="ytick_5">
     <g id="line2d_11">
      <g>
       <use style="fill:#262626;stroke:#262626;stroke-width:0.8;" x="36.577" xlink:href="#m9ceacb34a3" y="94.7395"/>
      </g>
     </g>
     <g id="text_12">
      <!-- 0.8 -->
      <g style="fill:#262626;" transform="translate(20.517 96.80825)scale(0.08 -0.08)">
       <use xlink:href="#LiberationSans-30"/>
       <use x="55.615234375" xlink:href="#LiberationSans-2e"/>
       <use x="83.3984375" xlink:href="#LiberationSans-38"/>
      </g>
     </g>
    </g>
    <g id="ytick_6">
     <g id="line2d_12">
      <g>
       <use style="fill:#262626;stroke:#262626;stroke-width:0.8;" x="36.577" xlink:href="#m9ceacb34a3" y="44.3511666667"/>
      </g>
     </g>
     <g id="text_13">
      <!-- 1.0 -->
      <g style="fill:#262626;" transform="translate(20.7795 46.4199166667)scale(0.08 -0.08)">
       <use xlink:href="#LiberationSans-31"/>
       <use x="55.615234375" xlink:href="#LiberationSans-2e"/>
       <use x="83.3984375" xlink:href="#LiberationSans-30"/>
      </g>
     </g>
    </g>
    <g id="text_14">
     <!-- accuracy -->
     <g style="fill:#262626;" transform="translate(13.57725 187.73225)rotate(-90.0)scale(0.088 -0.088)">
      <use xlink:href="#LiberationSans-61"/>
      <use x="55.615234375" xlink:href="#LiberationSans-63"/>
      <use x="105.615234375" xlink:href="#LiberationSans-63"/>
      <use x="155.615234375" xlink:href="#LiberationSans-75"/>
      <use x="211.23046875" xlink:href="#LiberationSans-72"/>
      <use x="244.53125" xlink:href="#LiberationSans-61"/>
      <use x="300.146484375" xlink:href="#LiberationSans-63"/>
      <use x="350.146484375" xlink:href="#LiberationSans-79"/>
     </g>
    </g>
   </g>
   <g id="PathCollection_1">
    <defs>
     <path d="
M0 2.23607
C0.593012 2.23607 1.16182 2.00046 1.58114 1.58114
C2.00046 1.16182 2.23607 0.593012 2.23607 0
C2.23607 -0.593012 2.00046 -1.16182 1.58114 -1.58114
C1.16182 -2.00046 0.593012 -2.23607 0 -2.23607
C-0.593012 -2.23607 -1.16182 -2.00046 -1.58114 -1.58114
C-2.00046 -1.16182 -2.23607 -0.593012 -2.23607 0
C-2.23607 0.593012 -2.00046 1.16182 -1.58114 1.58114
C-1.16182 2.00046 -0.593012 2.23607 0 2.23607
z
" id="m7062e01d87"/>
    </defs>
    <g clip-path="url(#p58ffe85af0)">
     <use style="fill:#fa8e63;fill-opacity:0.8;" x="61.1166744792" xlink:href="#m7062e01d87" y="285.724318449"/>
     <use style="fill:#fa8e63;fill-opacity:0.8;" x="275.495270729" xlink:href="#m7062e01d87" y="38.9535356589"/>
     <use style="fill:#fa8e63;fill-opacity:0.8;" x="75.2269873047" xlink:href="#m7062e01d87" y="283.724798709"/>
     <use style="fill:#fa8e63;fill-opacity:0.8;" x="300.869294141" xlink:href="#m7062e01d87" y="53.1830245044"/>
     <use style="fill:#fa8e63;fill-opacity:0.8;" x="72.7975595313" xlink:href="#m7062e01d87" y="287.01820409"/>
     <use style="fill:#fa8e63;fill-opacity:0.8;" x="247.274645078" xlink:href="#m7062e01d87" y="304.796042588"/>
     <use style="fill:#fa8e63;fill-opacity:0.8;" x="145.729472083" xlink:href="#m7062e01d87" y="293.381406411"/>
     <use style="fill:#fa8e63;fill-opacity:0.8;" x="154.612834245" xlink:href="#m7062e01d87" y="53.8287087154"/>
     <use style="fill:#fa8e63;fill-opacity:0.8;" x="303.593198008" xlink:href="#m7062e01d87" y="287.525056002"/>
     <use style="fill:#fa8e63;fill-opacity:0.8;" x="113.705196888" xlink:href="#m7062e01d87" y="288.550188267"/>
     <use style="fill:#fa8e63;fill-opacity:0.8;" x="291.912312956" xlink:href="#m7062e01d87" y="42.6102311412"/>
     <use style="fill:#fa8e63;fill-opacity:0.8;" x="125.999573802" xlink:href="#m7062e01d87" y="46.6896061458"/>
     <use style="fill:#fa8e63;fill-opacity:0.8;" x="80.8711124349" xlink:href="#m7062e01d87" y="307.147311855"/>
     <use style="fill:#fa8e63;fill-opacity:0.8;" x="61.1166744792" xlink:href="#m7062e01d87" y="39.3771132513"/>
     <use style="fill:#fa8e63;fill-opacity:0.8;" x="120.355448672" xlink:href="#m7062e01d87" y="297.463286729"/>
     <use style="fill:#fa8e63;fill-opacity:0.8;" x="303.593198008" xlink:href="#m7062e01d87" y="290.698327551"/>
     <use style="fill:#fa8e63;fill-opacity:0.8;" x="259.765339388" xlink:href="#m7062e01d87" y="287.06213595"/>
     <use style="fill:#fa8e63;fill-opacity:0.8;" x="278.317333294" xlink:href="#m7062e01d87" y="284.312465283"/>
     <use style="fill:#fa8e63;fill-opacity:0.8;" x="278.317333294" xlink:href="#m7062e01d87" y="35.3869979579"/>
     <use style="fill:#fa8e63;fill-opacity:0.8;" x="255.740832773" xlink:href="#m7062e01d87" y="56.6531234107"/>
     <use style="fill:#fa8e63;fill-opacity:0.8;" x="300.869294141" xlink:href="#m7062e01d87" y="299.820569314"/>
     <use style="fill:#fa8e63;fill-opacity:0.8;" x="188.035870885" xlink:href="#m7062e01d87" y="290.498412772"/>
     <use style="fill:#fa8e63;fill-opacity:0.8;" x="303.691356706" xlink:href="#m7062e01d87" y="304.565849973"/>
     <use style="fill:#fa8e63;fill-opacity:0.8;" x="271.44622444" xlink:href="#m7062e01d87" y="295.762833571"/>
     <use style="fill:#fa8e63;fill-opacity:0.8;" x="120.355448672" xlink:href="#m7062e01d87" y="307.520916332"/>
     <use style="fill:#fa8e63;fill-opacity:0.8;" x="289.58104388" xlink:href="#m7062e01d87" y="303.851170886"/>
     <use style="fill:#fa8e63;fill-opacity:0.8;" x="157.533055508" xlink:href="#m7062e01d87" y="308.42327549"/>
     <use style="fill:#fa8e63;fill-opacity:0.8;" x="61.1166744792" xlink:href="#m7062e01d87" y="288.893364445"/>
     <use style="fill:#fa8e63;fill-opacity:0.8;" x="300.672976745" xlink:href="#m7062e01d87" y="303.248320755"/>
     <use style="fill:#fa8e63;fill-opacity:0.8;" x="300.869294141" xlink:href="#m7062e01d87" y="300.189068865"/>
     <use style="fill:#fa8e63;fill-opacity:0.8;" x="306.513419271" xlink:href="#m7062e01d87" y="285.507681879"/>
     <use style="fill:#fa8e63;fill-opacity:0.8;" x="238.808457383" xlink:href="#m7062e01d87" y="39.2011161555"/>
     <use style="fill:#fa8e63;fill-opacity:0.8;" x="61.1166744792" xlink:href="#m7062e01d87" y="56.1460947029"/>
     <use style="fill:#fa8e63;fill-opacity:0.8;" x="119.545639414" xlink:href="#m7062e01d87" y="304.740584639"/>
     <use style="fill:#fa8e63;fill-opacity:0.8;" x="286.758981315" xlink:href="#m7062e01d87" y="41.2906195729"/>
     <use style="fill:#fa8e63;fill-opacity:0.8;" x="295.22516901" xlink:href="#m7062e01d87" y="42.4054567339"/>
     <use style="fill:#fa8e63;fill-opacity:0.8;" x="289.58104388" xlink:href="#m7062e01d87" y="302.896405276"/>
     <use style="fill:#fa8e63;fill-opacity:0.8;" x="303.593198008" xlink:href="#m7062e01d87" y="33.4115068339"/>
     <use style="fill:#fa8e63;fill-opacity:0.8;" x="303.691356706" xlink:href="#m7062e01d87" y="41.4798893777"/>
     <use style="fill:#fa8e63;fill-opacity:0.8;" x="303.691356706" xlink:href="#m7062e01d87" y="43.4534278885"/>
     <use style="fill:#fa8e63;fill-opacity:0.8;" x="241.630519948" xlink:href="#m7062e01d87" y="42.0859597374"/>
     <use style="fill:#fa8e63;fill-opacity:0.8;" x="64.0368957422" xlink:href="#m7062e01d87" y="290.495100568"/>
     <use style="fill:#fa8e63;fill-opacity:0.8;" x="300.869294141" xlink:href="#m7062e01d87" y="301.03072246"/>
     <use style="fill:#fa8e63;fill-opacity:0.8;" x="64.0368957422" xlink:href="#m7062e01d87" y="46.9154021884"/>
     <use style="fill:#fa8e63;fill-opacity:0.8;" x="87.3986658464" xlink:href="#m7062e01d87" y="303.603078281"/>
     <use style="fill:#fa8e63;fill-opacity:0.8;" x="250.096707643" xlink:href="#m7062e01d87" y="52.2572723777"/>
     <use style="fill:#fa8e63;fill-opacity:0.8;" x="306.513419271" xlink:href="#m7062e01d87" y="33.1555746113"/>
     <use style="fill:#fa8e63;fill-opacity:0.8;" x="81.5582233203" xlink:href="#m7062e01d87" y="38.3158840111"/>
     <use style="fill:#fa8e63;fill-opacity:0.8;" x="300.869294141" xlink:href="#m7062e01d87" y="44.5915490326"/>
     <use style="fill:#fa8e63;fill-opacity:0.8;" x="300.672976745" xlink:href="#m7062e01d87" y="303.160394627"/>
     <use style="fill:#fa8e63;fill-opacity:0.8;" x="61.1166744792" xlink:href="#m7062e01d87" y="302.481617072"/>
     <use style="fill:#fa8e63;fill-opacity:0.8;" x="185.21380832" xlink:href="#m7062e01d87" y="307.42792033"/>
     <use style="fill:#fa8e63;fill-opacity:0.8;" x="119.545639414" xlink:href="#m7062e01d87" y="297.9451518"/>
     <use style="fill:#fa8e63;fill-opacity:0.8;" x="80.8711124349" xlink:href="#m7062e01d87" y="301.03447925"/>
     <use style="fill:#fa8e63;fill-opacity:0.8;" x="92.1348230208" xlink:href="#m7062e01d87" y="39.4044560855"/>
     <use style="fill:#fa8e63;fill-opacity:0.8;" x="306.513419271" xlink:href="#m7062e01d87" y="299.372773869"/>
     <use style="fill:#fa8e63;fill-opacity:0.8;" x="306.513419271" xlink:href="#m7062e01d87" y="304.36495168"/>
     <use style="fill:#fa8e63;fill-opacity:0.8;" x="306.513419271" xlink:href="#m7062e01d87" y="56.3264900038"/>
     <use style="fill:#fa8e63;fill-opacity:0.8;" x="264.207020469" xlink:href="#m7062e01d87" y="307.195618243"/>
     <use style="fill:#fa8e63;fill-opacity:0.8;" x="102.024311836" xlink:href="#m7062e01d87" y="39.8315152323"/>
     <use style="fill:#fa8e63;fill-opacity:0.8;" x="66.7607996094" xlink:href="#m7062e01d87" y="297.459402749"/>
    </g>
   </g>
   <g id="PolyCollection_1">
    <defs>
     <path d="
M61.1167 -191.472
L61.1167 -89.2934
L63.5954 -89.8274
L66.0742 -90.517
L68.5529 -90.9562
L71.0317 -91.1786
L73.5104 -91.8422
L75.9892 -92.5188
L78.468 -93.207
L80.9467 -93.907
L83.4255 -94.6188
L85.9042 -95.3425
L88.383 -95.9126
L90.8617 -96.3732
L93.3405 -96.8386
L95.8192 -97.3087
L98.298 -97.8912
L100.777 -98.2686
L103.256 -98.8212
L105.734 -99.6303
L108.213 -100.184
L110.692 -100.936
L113.171 -101.628
L115.649 -101.975
L118.128 -102.626
L120.607 -103.115
L123.086 -103.571
L125.564 -104.102
L128.043 -104.723
L130.522 -105.587
L133.001 -106.323
L135.479 -106.951
L137.958 -107.461
L140.437 -107.978
L142.916 -108.503
L145.394 -109.041
L147.873 -109.877
L150.352 -110.723
L152.831 -111.58
L155.309 -112.447
L157.788 -112.679
L160.267 -112.663
L162.746 -112.796
L165.224 -113.923
L167.703 -114.573
L170.182 -114.957
L172.661 -116.209
L175.139 -117.492
L177.618 -118.795
L180.097 -119.401
L182.576 -119.987
L185.054 -120.218
L187.533 -120.936
L190.012 -121.793
L192.491 -122.32
L194.969 -122.913
L197.448 -123.431
L199.927 -123.58
L202.406 -123.606
L204.884 -124.289
L207.363 -124.754
L209.842 -125.072
L212.321 -125.184
L214.799 -125.313
L217.278 -126.028
L219.757 -126.402
L222.236 -127.113
L224.715 -127.433
L227.193 -127.831
L229.672 -128.431
L232.151 -128.725
L234.63 -128.908
L237.108 -128.877
L239.587 -129.088
L242.066 -129.451
L244.545 -129.394
L247.023 -129.198
L249.502 -129.133
L251.981 -129.141
L254.46 -129.15
L256.938 -129.168
L259.417 -129.188
L261.896 -129.402
L264.375 -129.655
L266.853 -129.784
L269.332 -129.964
L271.811 -129.812
L274.29 -129.556
L276.768 -129.644
L279.247 -129.534
L281.726 -129.433
L284.205 -129.691
L286.683 -129.589
L289.162 -129.487
L291.641 -129.371
L294.12 -129.109
L296.598 -128.793
L299.077 -128.688
L301.556 -128.715
L304.035 -128.478
L306.513 -128.373
L306.513 -224.042
L306.513 -224.042
L304.035 -223.054
L301.556 -222.011
L299.077 -221.166
L296.598 -220.2
L294.12 -219.157
L291.641 -217.835
L289.162 -216.491
L286.683 -215.137
L284.205 -213.768
L281.726 -212.981
L279.247 -211.447
L276.768 -209.905
L274.29 -208.612
L271.811 -207.858
L269.332 -206.98
L266.853 -205.7
L264.375 -204.796
L261.896 -204.437
L259.417 -204.011
L256.938 -202.919
L254.46 -202.108
L251.981 -201.046
L249.502 -199.646
L247.023 -198.794
L244.545 -198.187
L242.066 -197.077
L239.587 -195.953
L237.108 -195.626
L234.63 -195.161
L232.151 -194.806
L229.672 -194.039
L227.193 -193.444
L224.715 -192.519
L222.236 -191.984
L219.757 -191.441
L217.278 -191.041
L214.799 -190.762
L212.321 -190.44
L209.842 -189.85
L207.363 -189.292
L204.884 -188.818
L202.406 -188.446
L199.927 -188.074
L197.448 -187.702
L194.969 -187.205
L192.491 -186.015
L190.012 -185.665
L187.533 -185.269
L185.054 -185.077
L182.576 -185.118
L180.097 -185.042
L177.618 -184.75
L175.139 -184.584
L172.661 -184.417
L170.182 -184.475
L167.703 -185.321
L165.224 -185.178
L162.746 -184.764
L160.267 -184.351
L157.788 -184.27
L155.309 -184.011
L152.831 -183.941
L150.352 -183.855
L147.873 -183.353
L145.394 -183.321
L142.916 -183.57
L140.437 -183.819
L137.958 -183.952
L135.479 -184.023
L133.001 -184.35
L130.522 -184.627
L128.043 -185.081
L125.564 -184.909
L123.086 -185.13
L120.607 -185.352
L118.128 -185.573
L115.649 -185.795
L113.171 -186.016
L110.692 -186.237
L108.213 -186.455
L105.734 -187.034
L103.256 -187.16
L100.777 -187.185
L98.298 -187.327
L95.8192 -187.546
L93.3405 -187.773
L90.8617 -188.059
L88.383 -188.513
L85.9042 -188.967
L83.4255 -189.417
L80.9467 -189.867
L78.468 -190.162
L75.9892 -190.42
L73.5104 -190.679
L71.0317 -190.937
L68.5529 -191.184
L66.0742 -191.429
L63.5954 -191.531
L61.1167 -191.472
z
" id="m1b6e391e52" style="stroke:#fa8e63;stroke-opacity:0.15;stroke-width:0.24;"/>
    </defs>
    <g clip-path="url(#p58ffe85af0)">
     <use style="fill:#fa8e63;fill-opacity:0.15;stroke:#fa8e63;stroke-opacity:0.15;stroke-width:0.24;" x="0.0" xlink:href="#m1b6e391e52" y="354.94775"/>
    </g>
   </g>
   <g id="PathCollection_2">
    <path clip-path="url(#p58ffe85af0)" d="
M73.3865 224.473
C74.8984 224.473 76.3486 223.873 77.4176 222.803
C78.4867 221.734 79.0874 220.284 79.0874 218.772
C79.0874 217.26 78.4867 215.81 77.4176 214.741
C76.3486 213.672 74.8984 213.071 73.3865 213.071
C71.8746 213.071 70.4245 213.672 69.3554 214.741
C68.2863 215.81 67.6856 217.26 67.6856 218.772
C67.6856 220.284 68.2863 221.734 69.3554 222.803
C70.4245 223.873 71.8746 224.473 73.3865 224.473
z
" style="fill:#262626;fill-opacity:0.8;"/>
    <path clip-path="url(#p58ffe85af0)" d="
M97.9262 131.07
C98.6525 131.07 99.3491 130.782 99.8627 130.268
C100.376 129.755 100.665 129.058 100.665 128.332
C100.665 127.605 100.376 126.909 99.8627 126.395
C99.3491 125.882 98.6525 125.593 97.9262 125.593
C97.1999 125.593 96.5033 125.882 95.9897 126.395
C95.4761 126.909 95.1876 127.605 95.1876 128.332
C95.1876 129.058 95.4761 129.755 95.9897 130.268
C96.5033 130.782 97.1999 131.07 97.9262 131.07
z
" style="fill:#262626;fill-opacity:0.8;"/>
    <path clip-path="url(#p58ffe85af0)" d="
M122.466 258.176
C123.493 258.176 124.478 257.767 125.204 257.041
C125.931 256.315 126.339 255.33 126.339 254.303
C126.339 253.275 125.931 252.29 125.204 251.564
C124.478 250.838 123.493 250.43 122.466 250.43
C121.439 250.43 120.454 250.838 119.727 251.564
C119.001 252.29 118.593 253.275 118.593 254.303
C118.593 255.33 119.001 256.315 119.727 257.041
C120.454 257.767 121.439 258.176 122.466 258.176
z
" style="fill:#262626;fill-opacity:0.8;"/>
    <path clip-path="url(#p58ffe85af0)" d="
M147.006 215.051
C147.732 215.051 148.428 214.762 148.942 214.249
C149.456 213.735 149.744 213.039 149.744 212.312
C149.744 211.586 149.456 210.889 148.942 210.376
C148.428 209.862 147.732 209.574 147.006 209.574
C146.279 209.574 145.583 209.862 145.069 210.376
C144.555 210.889 144.267 211.586 144.267 212.312
C144.267 213.039 144.555 213.735 145.069 214.249
C145.583 214.762 146.279 215.051 147.006 215.051
z
" style="fill:#262626;fill-opacity:0.8;"/>
    <path clip-path="url(#p58ffe85af0)" d="
M196.085 298.529
C196.678 298.529 197.247 298.293 197.666 297.874
C198.085 297.455 198.321 296.886 198.321 296.293
C198.321 295.7 198.085 295.131 197.666 294.712
C197.247 294.292 196.678 294.057 196.085 294.057
C195.492 294.057 194.923 294.292 194.504 294.712
C194.084 295.131 193.849 295.7 193.849 296.293
C193.849 296.886 194.084 297.455 194.504 297.874
C194.923 298.293 195.492 298.529 196.085 298.529
z
" style="fill:#262626;fill-opacity:0.8;"/>
    <path clip-path="url(#p58ffe85af0)" d="
M245.164 98.275
C246.102 98.275 247.001 97.9025 247.664 97.2395
C248.327 96.5765 248.7 95.6771 248.7 94.7395
C248.7 93.8019 248.327 92.9025 247.664 92.2395
C247.001 91.5765 246.102 91.204 245.164 91.204
C244.227 91.204 243.327 91.5765 242.664 92.2395
C242.001 92.9025 241.629 93.8019 241.629 94.7395
C241.629 95.6771 242.001 96.5765 242.664 97.2395
C243.327 97.9025 244.227 98.275 245.164 98.275
z
" style="fill:#262626;fill-opacity:0.8;"/>
    <path clip-path="url(#p58ffe85af0)" d="
M269.704 216.185
C270.731 216.185 271.716 215.777 272.443 215.051
C273.169 214.325 273.577 213.339 273.577 212.312
C273.577 211.285 273.169 210.3 272.443 209.574
C271.716 208.847 270.731 208.439 269.704 208.439
C268.677 208.439 267.692 208.847 266.965 209.574
C266.239 210.3 265.831 211.285 265.831 212.312
C265.831 213.339 266.239 214.325 266.965 215.051
C267.692 215.777 268.677 216.185 269.704 216.185
z
" style="fill:#262626;fill-opacity:0.8;"/>
    <path clip-path="url(#p58ffe85af0)" d="
M294.244 194.336
C296.255 194.336 298.183 193.537 299.605 192.115
C301.027 190.693 301.826 188.764 301.826 186.753
C301.826 184.742 301.027 182.813 299.605 181.391
C298.183 179.969 296.255 179.17 294.244 179.17
C292.233 179.17 290.304 179.969 288.882 181.391
C287.46 182.813 286.661 184.742 286.661 186.753
C286.661 188.764 287.46 190.693 288.882 192.115
C290.304 193.537 292.233 194.336 294.244 194.336
z
" style="fill:#262626;fill-opacity:0.8;"/>
   </g>
   <g id="line2d_13">
    <path clip-path="url(#p58ffe85af0)" d="
M61.1167 219.65
L63.5954 219.294
L66.0742 218.938
L68.5529 218.58
L71.0317 218.221
L73.5104 217.861
L75.9892 217.501
L78.468 217.139
L80.9467 216.777
L83.4255 216.413
L85.9042 216.049
L88.383 215.684
L90.8617 215.318
L93.3405 214.951
L95.8192 214.584
L98.298 214.215
L100.777 213.846
L103.256 213.476
L105.734 213.104
L108.213 212.733
L110.692 212.36
L113.171 211.986
L115.649 211.612
L118.128 211.236
L120.607 210.86
L123.086 210.484
L125.564 210.106
L128.043 209.727
L130.522 209.348
L133.001 208.968
L135.479 208.587
L137.958 208.206
L140.437 207.823
L142.916 207.44
L145.394 207.056
L147.873 206.672
L150.352 206.286
L152.831 205.9
L155.309 205.514
L157.788 205.126
L160.267 204.738
L162.746 204.349
L165.224 203.959
L167.703 203.569
L170.182 203.178
L172.661 202.786
L175.139 202.394
L177.618 202.001
L180.097 201.607
L182.576 201.212
L185.054 200.817
L187.533 200.422
L190.012 200.025
L192.491 199.629
L194.969 199.231
L197.448 198.833
L199.927 198.434
L202.406 198.035
L204.884 197.635
L207.363 197.234
L209.842 196.833
L212.321 196.432
L214.799 196.029
L217.278 195.627
L219.757 195.223
L222.236 194.82
L224.715 194.415
L227.193 194.01
L229.672 193.605
L232.151 193.199
L234.63 192.793
L237.108 192.386
L239.587 191.979
L242.066 191.571
L244.545 191.163
L247.023 190.754
L249.502 190.345
L251.981 189.935
L254.46 189.525
L256.938 189.115
L259.417 188.704
L261.896 188.293
L264.375 187.881
L266.853 187.469
L269.332 187.057
L271.811 186.644
L274.29 186.231
L276.768 185.818
L279.247 185.404
L281.726 184.99
L284.205 184.576
L286.683 184.161
L289.162 183.746
L291.641 183.33
L294.12 182.915
L296.598 182.499
L299.077 182.083
L301.556 181.666
L304.035 181.25
L306.513 180.833" style="fill:none;stroke:#fa8e63;stroke-linecap:round;stroke-width:2.1;"/>
   </g>
   <g id="patch_3">
    <path d="
M36.577 321.487
L331.053 321.487" style="fill:none;stroke:#262626;stroke-linecap:square;stroke-linejoin:miter;stroke-width:1.25;"/>
   </g>
   <g id="patch_4">
    <path d="
M36.577 321.487
L36.577 19.157" style="fill:none;stroke:#262626;stroke-linecap:square;stroke-linejoin:miter;stroke-width:1.25;"/>
   </g>
   <g id="text_15">
    <!-- CaffeNet -->
    <defs>
     <path d="
M13.4844 24.5625
Q13.4844 20.4062 14.3281 16.9062
Q15.1875 13.4219 16.9688 10.9062
Q18.75 8.40625 21.5312 7
Q24.3125 5.60938 28.2188 5.60938
Q33.9375 5.60938 37.375 7.90625
Q40.8281 10.2031 42.0469 13.7188
L49.75 11.5312
Q48.9219 9.32812 47.4375 7.10938
Q45.9531 4.89062 43.4531 3.09375
Q40.9688 1.3125 37.2344 0.15625
Q33.5 -0.984375 28.2188 -0.984375
Q16.5 -0.984375 10.375 6
Q4.25 12.9844 4.25 26.7656
Q4.25 34.1875 6.09375 39.3281
Q7.95312 44.4844 11.1719 47.7031
Q14.4062 50.9219 18.7031 52.3594
Q23 53.8125 27.875 53.8125
Q34.5156 53.8125 38.9844 51.6562
Q43.4531 49.5156 46.1562 45.7188
Q48.875 41.9375 50.0156 36.8125
Q51.1719 31.6875 51.1719 25.7344
L51.1719 24.5625
z

M42.0938 31.2969
Q41.3594 39.6562 37.8438 43.4844
Q34.3281 47.3125 27.7344 47.3125
Q25.5312 47.3125 23.1094 46.6094
Q20.7031 45.9062 18.6562 44.0938
Q16.6094 42.2812 15.1875 39.1719
Q13.7656 36.0781 13.5781 31.2969
z
" id="LiberationSans-65"/>
     <path d="
M17.625 46.4375
L17.625 0
L8.84375 0
L8.84375 46.4375
L1.42188 46.4375
L1.42188 52.8281
L8.84375 52.8281
L8.84375 58.7969
Q8.84375 61.6719 9.375 64.1406
Q9.90625 66.6094 11.3438 68.4375
Q12.7969 70.2656 15.2812 71.3125
Q17.7812 72.3594 21.7344 72.3594
Q23.2969 72.3594 24.9688 72.2188
Q26.6562 72.0781 27.9375 71.7812
L27.9375 65.0938
Q27.0938 65.2344 26 65.3594
Q24.9062 65.4844 24.0312 65.4844
Q22.0781 65.4844 20.8281 64.9375
Q19.5781 64.4062 18.875 63.4062
Q18.1719 62.4062 17.8906 60.9375
Q17.625 59.4688 17.625 57.5625
L17.625 52.8281
L27.9375 52.8281
L27.9375 46.4375
z
" id="LiberationSans-66"/>
     <path d="
M52.8281 0
L16.0156 58.5938
Q16.1094 56.2031 16.2656 53.8594
Q16.3594 51.8594 16.4219 49.625
Q16.5 47.4062 16.5 45.7031
L16.5 0
L8.20312 0
L8.20312 68.7969
L19.0469 68.7969
L56.25 9.8125
Q56.1094 12.2031 55.9531 14.5938
Q55.8594 16.6562 55.7656 19.0625
Q55.6719 21.4844 55.6719 23.6875
L55.6719 68.7969
L64.0625 68.7969
L64.0625 0
z
" id="LiberationSans-4e"/>
     <path d="
M38.6719 62.2031
Q32.8125 62.2031 28.2969 60.25
Q23.7812 58.2969 20.7188 54.6875
Q17.6719 51.0781 16.1094 46
Q14.5469 40.9219 14.5469 34.7188
Q14.5469 28.5156 16.2344 23.3594
Q17.9219 18.2188 21.0625 14.5
Q24.2188 10.7969 28.7812 8.73438
Q33.3438 6.6875 39.0625 6.6875
Q43.0625 6.6875 46.3594 7.73438
Q49.6562 8.79688 52.3125 10.6875
Q54.9844 12.5938 57.0781 15.2031
Q59.1875 17.8281 60.7969 21
L68.4062 17.1875
Q66.5469 13.3281 63.8125 10
Q61.0781 6.6875 57.3906 4.25
Q53.7188 1.8125 49.0469 0.40625
Q44.3906 -0.984375 38.625 -0.984375
Q30.2812 -0.984375 24 1.67188
Q17.7188 4.34375 13.5 9.10938
Q9.28125 13.875 7.17188 20.4062
Q5.07812 26.9531 5.07812 34.7188
Q5.07812 42.7812 7.29688 49.2656
Q9.51562 55.7656 13.7812 60.3281
Q18.0625 64.8906 24.3125 67.3594
Q30.5625 69.8281 38.5781 69.8281
Q49.5625 69.8281 56.9375 65.5312
Q64.3125 61.2344 67.7812 52.7812
L58.9375 49.8594
Q57.9531 52.2969 56.2969 54.5156
Q54.6406 56.7344 52.1406 58.4375
Q49.6562 60.1562 46.3125 61.1719
Q42.9688 62.2031 38.6719 62.2031" id="LiberationSans-43"/>
     <path d="
M27.0469 0.390625
Q25.0469 -0.140625 22.9688 -0.453125
Q20.9062 -0.78125 18.1719 -0.78125
Q7.625 -0.78125 7.625 11.1875
L7.625 46.4375
L1.51562 46.4375
L1.51562 52.8281
L7.95312 52.8281
L10.5469 64.6562
L16.4062 64.6562
L16.4062 52.8281
L26.1719 52.8281
L26.1719 46.4375
L16.4062 46.4375
L16.4062 13.0938
Q16.4062 9.28125 17.6406 7.73438
Q18.8906 6.20312 21.9688 6.20312
Q23.25 6.20312 24.4375 6.39062
Q25.6406 6.59375 27.0469 6.89062
z
" id="LiberationSans-74"/>
    </defs>
    <g style="fill:#262626;" transform="translate(165.236796875 14.157)scale(0.096 -0.096)">
     <use xlink:href="#LiberationSans-43"/>
     <use x="72.216796875" xlink:href="#LiberationSans-61"/>
     <use x="127.83203125" xlink:href="#LiberationSans-66"/>
     <use x="153.865234375" xlink:href="#LiberationSans-66"/>
     <use x="181.6484375" xlink:href="#LiberationSans-65"/>
     <use x="237.263671875" xlink:href="#LiberationSans-4e"/>
     <use x="309.48046875" xlink:href="#LiberationSans-65"/>
     <use x="365.095703125" xlink:href="#LiberationSans-74"/>
    </g>
   </g>
  </g>
 </g>
 <defs>
  <clipPath id="p58ffe85af0">
   <rect height="302.33" width="294.47609375" x="36.577" y="19.157"/>
  </clipPath>
 </defs>
</svg>
