<?xml version="1.0" encoding="utf-8" standalone="no"?>
<!DOCTYPE svg PUBLIC "-//W3C//DTD SVG 1.1//EN"
  "http://www.w3.org/Graphics/SVG/1.1/DTD/svg11.dtd">
<!-- Created with matplotlib (http://matplotlib.org/) -->
<svg height="360pt" version="1.1" viewBox="0 0 360 360" width="360pt" xmlns="http://www.w3.org/2000/svg" xmlns:xlink="http://www.w3.org/1999/xlink">
 <defs>
  <style type="text/css">
*{stroke-linecap:butt;stroke-linejoin:round;}
  </style>
 </defs>
 <g id="figure_1">
  <g id="patch_1">
   <path d="
M0 360
L360 360
L360 0
L0 0
z
" style="fill:#ffffff;"/>
  </g>
  <g id="axes_1">
   <g id="patch_2">
    <path d="
M47.5084 319.34
L341.985 319.34
L341.985 17.01
L47.5084 17.01
z
" style="fill:#ffffff;"/>
   </g>
   <g id="matplotlib.axis_1">
    <g id="xtick_1">
     <g id="line2d_1">
      <defs>
       <path d="
M0 0
L0 0" id="m9ceacb34a3" style="stroke:#262626;stroke-width:0.8;"/>
      </defs>
      <g>
       <use style="fill:#262626;stroke:#262626;stroke-width:0.8;" x="72.0481119792" xlink:href="#m9ceacb34a3" y="319.34"/>
      </g>
     </g>
     <g id="text_1">
      <!-- 0.0 -->
      <defs>
       <path d="
M9.125 0
L9.125 10.6875
L18.6562 10.6875
L18.6562 0
z
" id="LiberationSans-2e"/>
       <path d="
M51.7031 34.4219
Q51.7031 24.5156 49.8281 17.75
Q47.9531 10.9844 44.7031 6.8125
Q41.4531 2.64062 37.0625 0.828125
Q32.6719 -0.984375 27.6875 -0.984375
Q22.6562 -0.984375 18.3125 0.828125
Q13.9688 2.64062 10.7656 6.78125
Q7.5625 10.9375 5.73438 17.7031
Q3.90625 24.4688 3.90625 34.4219
Q3.90625 44.8281 5.73438 51.6406
Q7.5625 58.4531 10.7812 62.5
Q14.0156 66.5469 18.4062 68.1875
Q22.7969 69.8281 27.9844 69.8281
Q32.9062 69.8281 37.2188 68.1875
Q41.5469 66.5469 44.7656 62.5
Q48 58.4531 49.8438 51.6406
Q51.7031 44.8281 51.7031 34.4219
M42.7812 34.4219
Q42.7812 42.625 41.7969 48.0625
Q40.8281 53.5156 38.9219 56.7656
Q37.0156 60.0156 34.25 61.3594
Q31.5 62.7031 27.9844 62.7031
Q24.2656 62.7031 21.4375 61.3281
Q18.6094 59.9688 16.6719 56.7188
Q14.75 53.4688 13.7656 48.0156
Q12.7969 42.5781 12.7969 34.4219
Q12.7969 26.5156 13.7969 21.0938
Q14.7969 15.6719 16.7188 12.375
Q18.6562 9.07812 21.4375 7.64062
Q24.2188 6.20312 27.7812 6.20312
Q31.25 6.20312 34.0312 7.64062
Q36.8125 9.07812 38.7344 12.375
Q40.6719 15.6719 41.7188 21.0938
Q42.7812 26.5156 42.7812 34.4219" id="LiberationSans-30"/>
      </defs>
      <g style="fill:#262626;" transform="translate(66.8006119792 330.7375)scale(0.08 -0.08)">
       <use xlink:href="#LiberationSans-30"/>
       <use x="55.615234375" xlink:href="#LiberationSans-2e"/>
       <use x="83.3984375" xlink:href="#LiberationSans-30"/>
      </g>
     </g>
    </g>
    <g id="xtick_2">
     <g id="line2d_2">
      <g>
       <use style="fill:#262626;stroke:#262626;stroke-width:0.8;" x="121.127460937" xlink:href="#m9ceacb34a3" y="319.34"/>
      </g>
     </g>
     <g id="text_2">
      <!-- 0.2 -->
      <defs>
       <path d="
M5.03125 0
L5.03125 6.20312
Q7.51562 11.9219 11.1094 16.2812
Q14.7031 20.6562 18.6562 24.1875
Q22.6094 27.7344 26.4844 30.7656
Q30.375 33.7969 33.5 36.8125
Q36.625 39.8438 38.5469 43.1562
Q40.4844 46.4844 40.4844 50.6875
Q40.4844 53.6094 39.5938 55.8281
Q38.7188 58.0625 37.0625 59.5625
Q35.4062 61.0781 33.0781 61.8281
Q30.7656 62.5938 27.9375 62.5938
Q25.2969 62.5938 22.9688 61.8594
Q20.6562 61.1406 18.8438 59.6719
Q17.0469 58.2031 15.8906 56.0312
Q14.75 53.8594 14.4062 50.9844
L5.42188 51.8125
Q5.85938 55.5156 7.46875 58.7812
Q9.07812 62.0625 11.9062 64.5312
Q14.75 67 18.7188 68.4062
Q22.7031 69.8281 27.9375 69.8281
Q33.0625 69.8281 37.0625 68.6094
Q41.0625 67.3906 43.8125 64.9844
Q46.5781 62.5938 48.0469 59.0781
Q49.5156 55.5625 49.5156 50.9844
Q49.5156 47.5156 48.2656 44.3906
Q47.0156 41.2656 44.9375 38.4219
Q42.875 35.5938 40.1406 32.9531
Q37.4062 30.3281 34.4219 27.8125
Q31.4531 25.2969 28.4219 22.8281
Q25.3906 20.3594 22.7188 17.8594
Q20.0625 15.375 17.9688 12.8125
Q15.875 10.25 14.7031 7.46875
L50.5938 7.46875
L50.5938 0
z
" id="LiberationSans-32"/>
      </defs>
      <g style="fill:#262626;" transform="translate(115.924335937 330.7375)scale(0.08 -0.08)">
       <use xlink:href="#LiberationSans-30"/>
       <use x="55.615234375" xlink:href="#LiberationSans-2e"/>
       <use x="83.3984375" xlink:href="#LiberationSans-32"/>
      </g>
     </g>
    </g>
    <g id="xtick_3">
     <g id="line2d_3">
      <g>
       <use style="fill:#262626;stroke:#262626;stroke-width:0.8;" x="170.206809896" xlink:href="#m9ceacb34a3" y="319.34"/>
      </g>
     </g>
     <g id="text_3">
      <!-- 0.4 -->
      <defs>
       <path d="
M43.0156 15.5781
L43.0156 0
L34.7188 0
L34.7188 15.5781
L2.29688 15.5781
L2.29688 22.4062
L33.7969 68.7969
L43.0156 68.7969
L43.0156 22.5156
L52.6875 22.5156
L52.6875 15.5781
z

M34.7188 58.8906
Q34.625 58.6406 34.2344 57.9375
Q33.8438 57.2344 33.3438 56.3438
Q32.8594 55.4688 32.3438 54.5625
Q31.8438 53.6562 31.4531 53.0781
L13.8125 27.0938
Q13.5781 26.7031 13.1094 26.0625
Q12.6406 25.4375 12.1562 24.7812
Q11.6719 24.125 11.1719 23.4844
Q10.6875 22.8594 10.4062 22.5156
L34.7188 22.5156
z
" id="LiberationSans-34"/>
      </defs>
      <g style="fill:#262626;" transform="translate(164.919934896 330.7375)scale(0.08 -0.08)">
       <use xlink:href="#LiberationSans-30"/>
       <use x="55.615234375" xlink:href="#LiberationSans-2e"/>
       <use x="83.3984375" xlink:href="#LiberationSans-34"/>
      </g>
     </g>
    </g>
    <g id="xtick_4">
     <g id="line2d_4">
      <g>
       <use style="fill:#262626;stroke:#262626;stroke-width:0.8;" x="219.286158854" xlink:href="#m9ceacb34a3" y="319.34"/>
      </g>
     </g>
     <g id="text_4">
      <!-- 0.6 -->
      <defs>
       <path d="
M51.2188 22.5156
Q51.2188 17.3281 49.7812 13
Q48.3438 8.6875 45.5312 5.57812
Q42.7188 2.48438 38.5625 0.75
Q34.4219 -0.984375 29 -0.984375
Q23 -0.984375 18.5 1.3125
Q14.0156 3.60938 11.0312 7.92188
Q8.0625 12.25 6.5625 18.5312
Q5.07812 24.8125 5.07812 32.8125
Q5.07812 42 6.76562 48.9219
Q8.45312 55.8594 11.625 60.5
Q14.7969 65.1406 19.3594 67.4844
Q23.9219 69.8281 29.6875 69.8281
Q33.2031 69.8281 36.2812 69.0938
Q39.3594 68.3594 41.875 66.7188
Q44.3906 65.0938 46.2812 62.4062
Q48.1875 59.7188 49.3125 55.8125
L40.9219 54.2969
Q39.5469 58.7344 36.5469 60.7188
Q33.5469 62.7031 29.5938 62.7031
Q25.9844 62.7031 23.0469 60.9844
Q20.125 59.2812 18.0625 55.875
Q16.0156 52.4844 14.9062 47.3594
Q13.8125 42.2344 13.8125 35.4062
Q16.2188 39.8438 20.5625 42.1562
Q24.9062 44.4844 30.5156 44.4844
Q35.2031 44.4844 39.0156 42.9688
Q42.8281 41.4531 45.5312 38.5938
Q48.25 35.75 49.7344 31.6719
Q51.2188 27.5938 51.2188 22.5156
M42.2812 22.125
Q42.2812 25.6875 41.4062 28.5625
Q40.5312 31.4531 38.7656 33.4688
Q37.0156 35.5 34.4219 36.5938
Q31.8438 37.7031 28.4219 37.7031
Q26.0312 37.7031 23.5781 36.9844
Q21.1406 36.2812 19.1562 34.6875
Q17.1875 33.1094 15.9375 30.5156
Q14.7031 27.9375 14.7031 24.2188
Q14.7031 20.4062 15.6719 17.1094
Q16.6562 13.8125 18.4844 11.375
Q20.3125 8.9375 22.8906 7.51562
Q25.4844 6.10938 28.7188 6.10938
Q31.8906 6.10938 34.4062 7.20312
Q36.9219 8.29688 38.6719 10.375
Q40.4375 12.4531 41.3594 15.4219
Q42.2812 18.4062 42.2812 22.125" id="LiberationSans-36"/>
      </defs>
      <g style="fill:#262626;" transform="translate(214.058033854 330.7375)scale(0.08 -0.08)">
       <use xlink:href="#LiberationSans-30"/>
       <use x="55.615234375" xlink:href="#LiberationSans-2e"/>
       <use x="83.3984375" xlink:href="#LiberationSans-36"/>
      </g>
     </g>
    </g>
    <g id="xtick_5">
     <g id="line2d_5">
      <g>
       <use style="fill:#262626;stroke:#262626;stroke-width:0.8;" x="268.365507812" xlink:href="#m9ceacb34a3" y="319.34"/>
      </g>
     </g>
     <g id="text_5">
      <!-- 0.8 -->
      <defs>
       <path d="
M51.2656 19.1875
Q51.2656 14.7969 49.875 11.1094
Q48.4844 7.42188 45.625 4.73438
Q42.7812 2.04688 38.3281 0.53125
Q33.8906 -0.984375 27.8281 -0.984375
Q21.7812 -0.984375 17.3594 0.53125
Q12.9375 2.04688 10.0312 4.70312
Q7.125 7.375 5.73438 11.0625
Q4.34375 14.75 4.34375 19.0938
Q4.34375 22.8594 5.48438 25.7812
Q6.64062 28.7188 8.5625 30.8281
Q10.5 32.9531 12.9688 34.25
Q15.4375 35.5469 18.0625 35.9844
L18.0625 36.1875
Q15.1875 36.8594 12.9062 38.375
Q10.6406 39.8906 9.09375 42.0156
Q7.5625 44.1406 6.75 46.7188
Q5.95312 49.3125 5.95312 52.2031
Q5.95312 55.8125 7.34375 59
Q8.73438 62.2031 11.4688 64.625
Q14.2031 67.0469 18.25 68.4375
Q22.3125 69.8281 27.6406 69.8281
Q33.25 69.8281 37.375 68.4062
Q41.5 67 44.2031 64.5781
Q46.9219 62.1562 48.2344 58.9375
Q49.5625 55.7188 49.5625 52.0938
Q49.5625 49.2656 48.75 46.6719
Q47.9531 44.0938 46.4062 41.9688
Q44.875 39.8438 42.5938 38.3438
Q40.3281 36.8594 37.3594 36.2812
L37.3594 36.0781
Q40.3281 35.5938 42.8594 34.2969
Q45.4062 33.0156 47.2656 30.8906
Q49.125 28.7656 50.1875 25.8281
Q51.2656 22.9062 51.2656 19.1875
M40.4375 51.6094
Q40.4375 54.2031 39.7656 56.3438
Q39.1094 58.5 37.5938 60.0312
Q36.0781 61.5781 33.6406 62.4219
Q31.2031 63.2812 27.6406 63.2812
Q24.1719 63.2812 21.7812 62.4219
Q19.3906 61.5781 17.8438 60.0312
Q16.3125 58.5 15.625 56.3438
Q14.9375 54.2031 14.9375 51.6094
Q14.9375 49.5625 15.4688 47.4062
Q16.0156 45.2656 17.4219 43.5
Q18.8438 41.75 21.3281 40.625
Q23.8281 39.5 27.7344 39.5
Q31.8906 39.5 34.4062 40.625
Q36.9219 41.75 38.25 43.5
Q39.5938 45.2656 40.0156 47.4062
Q40.4375 49.5625 40.4375 51.6094
M42.1406 20.0156
Q42.1406 22.5156 41.4531 24.8281
Q40.7656 27.1562 39.1094 28.9375
Q37.4531 30.7188 34.6406 31.8125
Q31.8438 32.9062 27.6406 32.9062
Q23.7812 32.9062 21.0625 31.8125
Q18.3594 30.7188 16.6719 28.9062
Q14.9844 27.0938 14.2031 24.7188
Q13.4219 22.3594 13.4219 19.8281
Q13.4219 16.6562 14.2031 14.0312
Q14.9844 11.4219 16.6875 9.54688
Q18.4062 7.67188 21.1875 6.64062
Q23.9688 5.60938 27.9375 5.60938
Q31.9375 5.60938 34.6719 6.64062
Q37.4062 7.67188 39.0625 9.54688
Q40.7188 11.4219 41.4219 14.0781
Q42.1406 16.75 42.1406 20.0156" id="LiberationSans-38"/>
      </defs>
      <g style="fill:#262626;" transform="translate(263.135507812 330.7375)scale(0.08 -0.08)">
       <use xlink:href="#LiberationSans-30"/>
       <use x="55.615234375" xlink:href="#LiberationSans-2e"/>
       <use x="83.3984375" xlink:href="#LiberationSans-38"/>
      </g>
     </g>
    </g>
    <g id="xtick_6">
     <g id="line2d_6">
      <g>
       <use style="fill:#262626;stroke:#262626;stroke-width:0.8;" x="317.444856771" xlink:href="#m9ceacb34a3" y="319.34"/>
      </g>
     </g>
     <g id="text_6">
      <!-- 1.0 -->
      <defs>
       <path d="
M7.625 0
L7.625 7.46875
L25.1406 7.46875
L25.1406 60.4062
L9.625 49.3125
L9.625 57.625
L25.875 68.7969
L33.9844 68.7969
L33.9844 7.46875
L50.7344 7.46875
L50.7344 0
z
" id="LiberationSans-31"/>
      </defs>
      <g style="fill:#262626;" transform="translate(312.346106771 330.7375)scale(0.08 -0.08)">
       <use xlink:href="#LiberationSans-31"/>
       <use x="55.615234375" xlink:href="#LiberationSans-2e"/>
       <use x="83.3984375" xlink:href="#LiberationSans-30"/>
      </g>
     </g>
    </g>
    <g id="text_7">
     <!-- human accuracy -->
     <defs>
      <path d="
M6.9375 0
L6.9375 40.5312
Q6.9375 42.1875 6.90625 43.9219
Q6.89062 45.6562 6.82812 47.2656
Q6.78125 48.875 6.73438 50.2812
Q6.6875 51.7031 6.64062 52.8281
L14.9375 52.8281
Q14.9844 51.7031 15.0625 50.2656
Q15.1406 48.8281 15.2031 47.3125
Q15.2812 45.7969 15.2969 44.4062
Q15.3281 43.0156 15.3281 42.0469
L15.5312 42.0469
Q16.4531 45.0625 17.5 47.2812
Q18.5625 49.5156 19.9688 50.9531
Q21.3906 52.3906 23.3438 53.0938
Q25.2969 53.8125 28.0781 53.8125
Q29.1562 53.8125 30.125 53.6406
Q31.1094 53.4688 31.6406 53.3281
L31.6406 45.2656
Q30.7656 45.5156 29.5938 45.625
Q28.4219 45.75 26.9531 45.75
Q23.9219 45.75 21.7969 44.375
Q19.6719 43.0156 18.3281 40.5938
Q17 38.1875 16.3594 34.8438
Q15.7188 31.5 15.7188 27.5469
L15.7188 0
z
" id="LiberationSans-72"/>
      <path d="
M20.2188 -0.984375
Q12.25 -0.984375 8.25 3.21875
Q4.25 7.42188 4.25 14.75
Q4.25 19.9688 6.21875 23.3125
Q8.20312 26.6562 11.3906 28.5625
Q14.5938 30.4688 18.6875 31.2031
Q22.7969 31.9375 27.0469 32.0312
L38.9219 32.2344
L38.9219 35.1094
Q38.9219 38.375 38.2344 40.6719
Q37.5469 42.9688 36.125 44.375
Q34.7188 45.7969 32.5938 46.4531
Q30.4688 47.125 27.5938 47.125
Q25.0469 47.125 23 46.75
Q20.9531 46.3906 19.4375 45.4375
Q17.9219 44.4844 16.9844 42.8438
Q16.0625 41.2188 15.7656 38.7188
L6.59375 39.5469
Q7.07812 42.6719 8.4375 45.2812
Q9.8125 47.9062 12.3281 49.7969
Q14.8438 51.7031 18.625 52.75
Q22.4062 53.8125 27.7812 53.8125
Q37.75 53.8125 42.7656 49.2344
Q47.7969 44.6719 47.7969 36.0312
L47.7969 13.2812
Q47.7969 9.375 48.8281 7.39062
Q49.8594 5.42188 52.7344 5.42188
Q53.4688 5.42188 54.2031 5.51562
Q54.9375 5.60938 55.6094 5.76562
L55.6094 0.296875
Q53.9531 -0.09375 52.3125 -0.28125
Q50.6875 -0.484375 48.8281 -0.484375
Q46.3438 -0.484375 44.5625 0.171875
Q42.7812 0.828125 41.6562 2.17188
Q40.5312 3.51562 39.9375 5.48438
Q39.3594 7.46875 39.2031 10.1094
L38.9219 10.1094
Q37.5 7.5625 35.8125 5.51562
Q34.125 3.46875 31.875 2.03125
Q29.6406 0.59375 26.7812 -0.1875
Q23.9219 -0.984375 20.2188 -0.984375
M22.2188 5.60938
Q26.4219 5.60938 29.5625 7.14062
Q32.7188 8.6875 34.7812 11.0781
Q36.8594 13.4844 37.8906 16.3125
Q38.9219 19.1406 38.9219 21.7344
L38.9219 26.0781
L29.2969 25.875
Q26.0781 25.8281 23.1719 25.4062
Q20.2656 25 18.0625 23.7812
Q15.875 22.5625 14.5781 20.3594
Q13.2812 18.1719 13.2812 14.5938
Q13.2812 10.2969 15.5938 7.95312
Q17.9219 5.60938 22.2188 5.60938" id="LiberationSans-61"/>
      <path d="
M15.3281 52.8281
L15.3281 19.3438
Q15.3281 15.4844 15.8906 12.8906
Q16.4531 10.2969 17.7188 8.70312
Q19 7.125 21.0625 6.46875
Q23.1406 5.8125 26.2188 5.8125
Q29.3438 5.8125 31.8594 6.90625
Q34.375 8.01562 36.1562 10.0781
Q37.9375 12.1562 38.9062 15.2031
Q39.8906 18.2656 39.8906 22.2188
L39.8906 52.8281
L48.6875 52.8281
L48.6875 11.2812
Q48.6875 9.625 48.7031 7.78125
Q48.7344 5.95312 48.7812 4.3125
Q48.8281 2.6875 48.875 1.51562
Q48.9219 0.34375 48.9688 0
L40.6719 0
Q40.625 0.25 40.5781 1.3125
Q40.5312 2.39062 40.4531 3.78125
Q40.375 5.17188 40.3281 6.60938
Q40.2812 8.0625 40.2812 9.03125
L40.1406 9.03125
Q38.875 6.73438 37.3594 4.875
Q35.8438 3.03125 33.8438 1.73438
Q31.8438 0.4375 29.25 -0.265625
Q26.6562 -0.984375 23.25 -0.984375
Q18.8438 -0.984375 15.6719 0.09375
Q12.5 1.17188 10.4531 3.42188
Q8.40625 5.67188 7.45312 9.1875
Q6.5 12.7031 6.5 17.625
L6.5 52.8281
z
" id="LiberationSans-75"/>
      <path d="
M13.4219 26.6562
Q13.4219 22.125 14.0781 18.3125
Q14.75 14.5 16.3125 11.7344
Q17.875 8.98438 20.4375 7.46875
Q23 5.95312 26.7656 5.95312
Q31.4531 5.95312 34.5938 8.48438
Q37.75 11.0312 38.4844 16.3125
L47.3594 15.7188
Q46.9219 12.4531 45.4531 9.42188
Q44 6.39062 41.4844 4.09375
Q38.9688 1.8125 35.3438 0.40625
Q31.7344 -0.984375 27 -0.984375
Q20.7969 -0.984375 16.4531 1.10938
Q12.1094 3.21875 9.39062 6.90625
Q6.6875 10.5938 5.46875 15.5938
Q4.25 20.6094 4.25 26.4688
Q4.25 31.7812 5.125 35.8594
Q6 39.9375 7.59375 42.9844
Q9.1875 46.0469 11.3281 48.125
Q13.4844 50.2031 15.9844 51.4375
Q18.5 52.6875 21.2812 53.25
Q24.0781 53.8125 26.9062 53.8125
Q31.3438 53.8125 34.8125 52.5938
Q38.2812 51.375 40.7969 49.25
Q43.3125 47.125 44.875 44.2344
Q46.4375 41.3594 47.0781 38.0312
L38.0312 37.3594
Q37.3594 41.75 34.5625 44.3281
Q31.7812 46.9219 26.6562 46.9219
Q22.9062 46.9219 20.3906 45.6719
Q17.875 44.4375 16.3125 41.9219
Q14.75 39.4062 14.0781 35.5938
Q13.4219 31.7812 13.4219 26.6562" id="LiberationSans-63"/>
      <path d="
M29.5 0
Q27.6406 -4.78125 25.7031 -8.60938
Q23.7812 -12.4531 21.3906 -15.1562
Q19 -17.875 16.0625 -19.3125
Q13.1406 -20.75 9.32812 -20.75
Q7.67188 -20.75 6.25 -20.6562
Q4.82812 -20.5625 3.26562 -20.2188
L3.26562 -13.625
Q4.20312 -13.7656 5.375 -13.8438
Q6.54688 -13.9219 7.375 -13.9219
Q11.2344 -13.9219 14.5469 -11.0312
Q17.875 -8.15625 20.3594 -1.85938
L21.1875 0.25
L0.25 52.8281
L9.625 52.8281
L20.75 23.6406
Q21.2344 22.3125 21.9844 20.1094
Q22.75 17.9219 23.5 15.7188
Q24.2656 13.5312 24.8438 11.7656
Q25.4375 10.0156 25.5312 9.57812
Q25.6875 10.1094 26.25 11.6875
Q26.8125 13.2812 27.5156 15.2344
Q28.2188 17.1875 28.9531 19.1875
Q29.6875 21.1875 30.1719 22.6562
L40.5312 52.8281
L49.8125 52.8281
z
" id="LiberationSans-79"/>
      <path d="
M15.4844 43.7969
Q16.9375 46.4844 18.6406 48.3594
Q20.3594 50.25 22.4062 51.4688
Q24.4688 52.6875 26.9062 53.25
Q29.3438 53.8125 32.375 53.8125
Q37.4531 53.8125 40.7031 52.4375
Q43.9531 51.0781 45.8281 48.6094
Q47.7031 46.1406 48.4062 42.7188
Q49.125 39.3125 49.125 35.2031
L49.125 0
L40.2812 0
L40.2812 33.5
Q40.2812 36.8594 39.8594 39.3906
Q39.4531 41.9375 38.2812 43.625
Q37.1094 45.3125 34.9531 46.1562
Q32.8125 47.0156 29.3906 47.0156
Q26.2656 47.0156 23.75 45.8906
Q21.2344 44.7812 19.4531 42.7188
Q17.6719 40.6719 16.6875 37.7344
Q15.7188 34.8125 15.7188 31.1562
L15.7188 0
L6.9375 0
L6.9375 72.4688
L15.7188 72.4688
L15.7188 53.6094
Q15.7188 52 15.6719 50.3906
Q15.625 48.7812 15.5469 47.4062
Q15.4844 46.0469 15.4219 45.0938
Q15.375 44.1406 15.3281 43.7969
z
" id="LiberationSans-68"/>
      <path d="
M37.5 0
L37.5 33.5
Q37.5 37.3594 37.0156 39.9375
Q36.5312 42.5312 35.375 44.1094
Q34.2344 45.7031 32.375 46.3594
Q30.5156 47.0156 27.8281 47.0156
Q25.0469 47.0156 22.7969 45.9219
Q20.5625 44.8281 18.9688 42.75
Q17.3906 40.6719 16.5312 37.625
Q15.6719 34.5781 15.6719 30.6094
L15.6719 0
L6.9375 0
L6.9375 41.5469
Q6.9375 43.2188 6.90625 45.0469
Q6.89062 46.875 6.82812 48.5
Q6.78125 50.1406 6.73438 51.3125
Q6.6875 52.4844 6.64062 52.8281
L14.9375 52.8281
Q14.9844 52.5938 15.0312 51.5156
Q15.0938 50.4375 15.1562 49.0469
Q15.2344 47.6562 15.2812 46.2188
Q15.3281 44.7812 15.3281 43.7969
L15.4844 43.7969
Q16.6562 46.0938 18.0156 47.9531
Q19.3906 49.8125 21.2188 51.0938
Q23.0469 52.3906 25.4062 53.0938
Q27.7812 53.8125 30.9062 53.8125
Q36.9219 53.8125 40.4062 51.4219
Q43.8906 49.0312 45.2656 43.7969
L45.4062 43.7969
Q46.5781 46.0938 48.0469 47.9531
Q49.5156 49.8125 51.4688 51.0938
Q53.4219 52.3906 55.8594 53.0938
Q58.2969 53.8125 61.4219 53.8125
Q65.4375 53.8125 68.3281 52.7344
Q71.2344 51.6562 73.0938 49.4062
Q74.9531 47.1719 75.8281 43.625
Q76.7031 40.0938 76.7031 35.2031
L76.7031 0
L68.0156 0
L68.0156 33.5
Q68.0156 37.3594 67.5312 39.9375
Q67.0469 42.5312 65.8906 44.1094
Q64.75 45.7031 62.8906 46.3594
Q61.0312 47.0156 58.3438 47.0156
Q55.5625 47.0156 53.3125 45.9688
Q51.0781 44.9219 49.4844 42.875
Q47.9062 40.8281 47.0469 37.75
Q46.1875 34.6719 46.1875 30.6094
L46.1875 0
z
" id="LiberationSans-6d"/>
      <path d="
M40.2812 0
L40.2812 33.5
Q40.2812 37.3594 39.7188 39.9375
Q39.1562 42.5312 37.8906 44.1094
Q36.625 45.7031 34.5469 46.3594
Q32.4688 47.0156 29.3906 47.0156
Q26.2656 47.0156 23.75 45.9219
Q21.2344 44.8281 19.4531 42.75
Q17.6719 40.6719 16.6875 37.625
Q15.7188 34.5781 15.7188 30.6094
L15.7188 0
L6.9375 0
L6.9375 41.5469
Q6.9375 43.2188 6.90625 45.0469
Q6.89062 46.875 6.82812 48.5
Q6.78125 50.1406 6.73438 51.3125
Q6.6875 52.4844 6.64062 52.8281
L14.9375 52.8281
Q14.9844 52.5938 15.0312 51.5156
Q15.0938 50.4375 15.1562 49.0469
Q15.2344 47.6562 15.2812 46.2188
Q15.3281 44.7812 15.3281 43.7969
L15.4844 43.7969
Q16.75 46.0938 18.2656 47.9531
Q19.7812 49.8125 21.7812 51.0938
Q23.7812 52.3906 26.3594 53.0938
Q28.9531 53.8125 32.375 53.8125
Q36.7656 53.8125 39.9375 52.7344
Q43.1094 51.6562 45.1562 49.4062
Q47.2188 47.1719 48.1719 43.625
Q49.125 40.0938 49.125 35.2031
L49.125 0
z
" id="LiberationSans-6e"/>
      <path id="LiberationSans-20"/>
     </defs>
     <g style="fill:#262626;" transform="translate(162.474546875 343.77475)scale(0.088 -0.088)">
      <use xlink:href="#LiberationSans-68"/>
      <use x="55.615234375" xlink:href="#LiberationSans-75"/>
      <use x="111.23046875" xlink:href="#LiberationSans-6d"/>
      <use x="194.53125" xlink:href="#LiberationSans-61"/>
      <use x="250.146484375" xlink:href="#LiberationSans-6e"/>
      <use x="305.76171875" xlink:href="#LiberationSans-20"/>
      <use x="333.544921875" xlink:href="#LiberationSans-61"/>
      <use x="389.16015625" xlink:href="#LiberationSans-63"/>
      <use x="439.16015625" xlink:href="#LiberationSans-63"/>
      <use x="489.16015625" xlink:href="#LiberationSans-75"/>
      <use x="544.775390625" xlink:href="#LiberationSans-72"/>
      <use x="578.076171875" xlink:href="#LiberationSans-61"/>
      <use x="633.69140625" xlink:href="#LiberationSans-63"/>
      <use x="683.69140625" xlink:href="#LiberationSans-79"/>
     </g>
    </g>
   </g>
   <g id="matplotlib.axis_2">
    <g id="ytick_1">
     <g id="line2d_7">
      <g>
       <use style="fill:#262626;stroke:#262626;stroke-width:0.8;" x="47.5084375" xlink:href="#m9ceacb34a3" y="294.145833333"/>
      </g>
     </g>
     <g id="text_8">
      <!-- 0.0 -->
      <g style="fill:#262626;" transform="translate(31.4134375 296.214583333)scale(0.08 -0.08)">
       <use xlink:href="#LiberationSans-30"/>
       <use x="55.615234375" xlink:href="#LiberationSans-2e"/>
       <use x="83.3984375" xlink:href="#LiberationSans-30"/>
      </g>
     </g>
    </g>
    <g id="ytick_2">
     <g id="line2d_8">
      <g>
       <use style="fill:#262626;stroke:#262626;stroke-width:0.8;" x="47.5084375" xlink:href="#m9ceacb34a3" y="243.7575"/>
      </g>
     </g>
     <g id="text_9">
      <!-- 0.2 -->
      <g style="fill:#262626;" transform="translate(31.5021875 245.82625)scale(0.08 -0.08)">
       <use xlink:href="#LiberationSans-30"/>
       <use x="55.615234375" xlink:href="#LiberationSans-2e"/>
       <use x="83.3984375" xlink:href="#LiberationSans-32"/>
      </g>
     </g>
    </g>
    <g id="ytick_3">
     <g id="line2d_9">
      <g>
       <use style="fill:#262626;stroke:#262626;stroke-width:0.8;" x="47.5084375" xlink:href="#m9ceacb34a3" y="193.369166667"/>
      </g>
     </g>
     <g id="text_10">
      <!-- 0.4 -->
      <g style="fill:#262626;" transform="translate(31.3346875 195.437916667)scale(0.08 -0.08)">
       <use xlink:href="#LiberationSans-30"/>
       <use x="55.615234375" xlink:href="#LiberationSans-2e"/>
       <use x="83.3984375" xlink:href="#LiberationSans-34"/>
      </g>
     </g>
    </g>
    <g id="ytick_4">
     <g id="line2d_10">
      <g>
       <use style="fill:#262626;stroke:#262626;stroke-width:0.8;" x="47.5084375" xlink:href="#m9ceacb34a3" y="142.980833333"/>
      </g>
     </g>
     <g id="text_11">
      <!-- 0.6 -->
      <g style="fill:#262626;" transform="translate(31.4521875 145.049583333)scale(0.08 -0.08)">
       <use xlink:href="#LiberationSans-30"/>
       <use x="55.615234375" xlink:href="#LiberationSans-2e"/>
       <use x="83.3984375" xlink:href="#LiberationSans-36"/>
      </g>
     </g>
    </g>
    <g id="ytick_5">
     <g id="line2d_11">
      <g>
       <use style="fill:#262626;stroke:#262626;stroke-width:0.8;" x="47.5084375" xlink:href="#m9ceacb34a3" y="92.5925"/>
      </g>
     </g>
     <g id="text_12">
      <!-- 0.8 -->
      <g style="fill:#262626;" transform="translate(31.4484375 94.66125)scale(0.08 -0.08)">
       <use xlink:href="#LiberationSans-30"/>
       <use x="55.615234375" xlink:href="#LiberationSans-2e"/>
       <use x="83.3984375" xlink:href="#LiberationSans-38"/>
      </g>
     </g>
    </g>
    <g id="ytick_6">
     <g id="line2d_12">
      <g>
       <use style="fill:#262626;stroke:#262626;stroke-width:0.8;" x="47.5084375" xlink:href="#m9ceacb34a3" y="42.2041666667"/>
      </g>
     </g>
     <g id="text_13">
      <!-- 1.0 -->
      <g style="fill:#262626;" transform="translate(31.7109375 44.2729166667)scale(0.08 -0.08)">
       <use xlink:href="#LiberationSans-31"/>
       <use x="55.615234375" xlink:href="#LiberationSans-2e"/>
       <use x="83.3984375" xlink:href="#LiberationSans-30"/>
      </g>
     </g>
    </g>
    <g id="text_14">
     <!-- accuracy -->
     <g style="fill:#262626;" transform="translate(24.5086875 185.58525)rotate(-90.0)scale(0.088 -0.088)">
      <use xlink:href="#LiberationSans-61"/>
      <use x="55.615234375" xlink:href="#LiberationSans-63"/>
      <use x="105.615234375" xlink:href="#LiberationSans-63"/>
      <use x="155.615234375" xlink:href="#LiberationSans-75"/>
      <use x="211.23046875" xlink:href="#LiberationSans-72"/>
      <use x="244.53125" xlink:href="#LiberationSans-61"/>
      <use x="300.146484375" xlink:href="#LiberationSans-63"/>
      <use x="350.146484375" xlink:href="#LiberationSans-79"/>
     </g>
    </g>
   </g>
   <g id="PathCollection_1">
    <defs>
     <path d="
M0 2.23607
C0.593012 2.23607 1.16182 2.00046 1.58114 1.58114
C2.00046 1.16182 2.23607 0.593012 2.23607 0
C2.23607 -0.593012 2.00046 -1.16182 1.58114 -1.58114
C1.16182 -2.00046 0.593012 -2.23607 0 -2.23607
C-0.593012 -2.23607 -1.16182 -2.00046 -1.58114 -1.58114
C-2.00046 -1.16182 -2.23607 -0.593012 -2.23607 0
C-2.23607 0.593012 -2.00046 1.16182 -1.58114 1.58114
C-1.16182 2.00046 -0.593012 2.23607 0 2.23607
z
" id="m7062e01d87"/>
    </defs>
    <g clip-path="url(#p9aa6d294ba)">
     <use style="fill:#fa8e63;fill-opacity:0.8;" x="72.0481119792" xlink:href="#m7062e01d87" y="289.575800189"/>
     <use style="fill:#fa8e63;fill-opacity:0.8;" x="286.426708229" xlink:href="#m7062e01d87" y="47.8074476477"/>
     <use style="fill:#fa8e63;fill-opacity:0.8;" x="86.1584248047" xlink:href="#m7062e01d87" y="303.496382104"/>
     <use style="fill:#fa8e63;fill-opacity:0.8;" x="311.800731641" xlink:href="#m7062e01d87" y="296.849780226"/>
     <use style="fill:#fa8e63;fill-opacity:0.8;" x="83.7289970312" xlink:href="#m7062e01d87" y="282.647071486"/>
     <use style="fill:#fa8e63;fill-opacity:0.8;" x="258.206082578" xlink:href="#m7062e01d87" y="302.028309791"/>
     <use style="fill:#fa8e63;fill-opacity:0.8;" x="156.660909583" xlink:href="#m7062e01d87" y="283.967794242"/>
     <use style="fill:#fa8e63;fill-opacity:0.8;" x="165.544271745" xlink:href="#m7062e01d87" y="41.1005122594"/>
     <use style="fill:#fa8e63;fill-opacity:0.8;" x="314.524635508" xlink:href="#m7062e01d87" y="43.2897474912"/>
     <use style="fill:#fa8e63;fill-opacity:0.8;" x="124.636634388" xlink:href="#m7062e01d87" y="284.52061837"/>
     <use style="fill:#fa8e63;fill-opacity:0.8;" x="302.843750456" xlink:href="#m7062e01d87" y="43.2471053532"/>
     <use style="fill:#fa8e63;fill-opacity:0.8;" x="136.931011302" xlink:href="#m7062e01d87" y="288.498116535"/>
     <use style="fill:#fa8e63;fill-opacity:0.8;" x="91.8025499349" xlink:href="#m7062e01d87" y="296.689806207"/>
     <use style="fill:#fa8e63;fill-opacity:0.8;" x="72.0481119792" xlink:href="#m7062e01d87" y="32.0246048912"/>
     <use style="fill:#fa8e63;fill-opacity:0.8;" x="131.286886172" xlink:href="#m7062e01d87" y="289.358311304"/>
     <use style="fill:#fa8e63;fill-opacity:0.8;" x="314.524635508" xlink:href="#m7062e01d87" y="289.116522028"/>
     <use style="fill:#fa8e63;fill-opacity:0.8;" x="270.696776888" xlink:href="#m7062e01d87" y="298.48627425"/>
     <use style="fill:#fa8e63;fill-opacity:0.8;" x="289.248770794" xlink:href="#m7062e01d87" y="287.676509412"/>
     <use style="fill:#fa8e63;fill-opacity:0.8;" x="289.248770794" xlink:href="#m7062e01d87" y="290.717888426"/>
     <use style="fill:#fa8e63;fill-opacity:0.8;" x="266.672270273" xlink:href="#m7062e01d87" y="300.695805896"/>
     <use style="fill:#fa8e63;fill-opacity:0.8;" x="311.800731641" xlink:href="#m7062e01d87" y="302.698274817"/>
     <use style="fill:#fa8e63;fill-opacity:0.8;" x="198.967308385" xlink:href="#m7062e01d87" y="34.7368304591"/>
     <use style="fill:#fa8e63;fill-opacity:0.8;" x="314.622794206" xlink:href="#m7062e01d87" y="30.635846742"/>
     <use style="fill:#fa8e63;fill-opacity:0.8;" x="282.37766194" xlink:href="#m7062e01d87" y="295.200490696"/>
     <use style="fill:#fa8e63;fill-opacity:0.8;" x="131.286886172" xlink:href="#m7062e01d87" y="291.853563108"/>
     <use style="fill:#fa8e63;fill-opacity:0.8;" x="300.51248138" xlink:href="#m7062e01d87" y="285.133309415"/>
     <use style="fill:#fa8e63;fill-opacity:0.8;" x="168.464493008" xlink:href="#m7062e01d87" y="295.223552779"/>
     <use style="fill:#fa8e63;fill-opacity:0.8;" x="72.0481119792" xlink:href="#m7062e01d87" y="282.761232452"/>
     <use style="fill:#fa8e63;fill-opacity:0.8;" x="311.604414245" xlink:href="#m7062e01d87" y="292.237345932"/>
     <use style="fill:#fa8e63;fill-opacity:0.8;" x="311.800731641" xlink:href="#m7062e01d87" y="286.064373033"/>
     <use style="fill:#fa8e63;fill-opacity:0.8;" x="317.444856771" xlink:href="#m7062e01d87" y="31.9036898844"/>
     <use style="fill:#fa8e63;fill-opacity:0.8;" x="249.739894883" xlink:href="#m7062e01d87" y="34.2548069893"/>
     <use style="fill:#fa8e63;fill-opacity:0.8;" x="72.0481119792" xlink:href="#m7062e01d87" y="50.7849354388"/>
     <use style="fill:#fa8e63;fill-opacity:0.8;" x="130.477076914" xlink:href="#m7062e01d87" y="290.898344577"/>
     <use style="fill:#fa8e63;fill-opacity:0.8;" x="297.690418815" xlink:href="#m7062e01d87" y="44.7630308826"/>
     <use style="fill:#fa8e63;fill-opacity:0.8;" x="306.15660651" xlink:href="#m7062e01d87" y="305.162916101"/>
     <use style="fill:#fa8e63;fill-opacity:0.8;" x="300.51248138" xlink:href="#m7062e01d87" y="44.1181107738"/>
     <use style="fill:#fa8e63;fill-opacity:0.8;" x="314.524635508" xlink:href="#m7062e01d87" y="48.2839205048"/>
     <use style="fill:#fa8e63;fill-opacity:0.8;" x="314.622794206" xlink:href="#m7062e01d87" y="285.352104018"/>
     <use style="fill:#fa8e63;fill-opacity:0.8;" x="314.622794206" xlink:href="#m7062e01d87" y="305.903834355"/>
     <use style="fill:#fa8e63;fill-opacity:0.8;" x="252.561957448" xlink:href="#m7062e01d87" y="282.582146142"/>
     <use style="fill:#fa8e63;fill-opacity:0.8;" x="74.9683332422" xlink:href="#m7062e01d87" y="297.78969467"/>
     <use style="fill:#fa8e63;fill-opacity:0.8;" x="311.800731641" xlink:href="#m7062e01d87" y="297.755983819"/>
     <use style="fill:#fa8e63;fill-opacity:0.8;" x="74.9683332422" xlink:href="#m7062e01d87" y="54.389866982"/>
     <use style="fill:#fa8e63;fill-opacity:0.8;" x="98.3301033464" xlink:href="#m7062e01d87" y="302.076142593"/>
     <use style="fill:#fa8e63;fill-opacity:0.8;" x="261.028145143" xlink:href="#m7062e01d87" y="44.6918512602"/>
     <use style="fill:#fa8e63;fill-opacity:0.8;" x="317.444856771" xlink:href="#m7062e01d87" y="31.3885271506"/>
     <use style="fill:#fa8e63;fill-opacity:0.8;" x="92.4896608203" xlink:href="#m7062e01d87" y="52.2915348455"/>
     <use style="fill:#fa8e63;fill-opacity:0.8;" x="311.800731641" xlink:href="#m7062e01d87" y="282.926832282"/>
     <use style="fill:#fa8e63;fill-opacity:0.8;" x="311.604414245" xlink:href="#m7062e01d87" y="284.836877713"/>
     <use style="fill:#fa8e63;fill-opacity:0.8;" x="72.0481119792" xlink:href="#m7062e01d87" y="295.300673545"/>
     <use style="fill:#fa8e63;fill-opacity:0.8;" x="196.14524582" xlink:href="#m7062e01d87" y="298.511960201"/>
     <use style="fill:#fa8e63;fill-opacity:0.8;" x="130.477076914" xlink:href="#m7062e01d87" y="300.879122283"/>
     <use style="fill:#fa8e63;fill-opacity:0.8;" x="91.8025499349" xlink:href="#m7062e01d87" y="291.261990441"/>
     <use style="fill:#fa8e63;fill-opacity:0.8;" x="103.066260521" xlink:href="#m7062e01d87" y="53.9679632299"/>
     <use style="fill:#fa8e63;fill-opacity:0.8;" x="317.444856771" xlink:href="#m7062e01d87" y="306.349734878"/>
     <use style="fill:#fa8e63;fill-opacity:0.8;" x="317.444856771" xlink:href="#m7062e01d87" y="43.9980991014"/>
     <use style="fill:#fa8e63;fill-opacity:0.8;" x="317.444856771" xlink:href="#m7062e01d87" y="53.0861804346"/>
     <use style="fill:#fa8e63;fill-opacity:0.8;" x="275.138457969" xlink:href="#m7062e01d87" y="300.395473419"/>
     <use style="fill:#fa8e63;fill-opacity:0.8;" x="112.955749336" xlink:href="#m7062e01d87" y="49.2292850386"/>
     <use style="fill:#fa8e63;fill-opacity:0.8;" x="77.6922371094" xlink:href="#m7062e01d87" y="300.363975533"/>
    </g>
   </g>
   <g id="PolyCollection_1">
    <defs>
     <path d="
M72.0481 -188.135
L72.0481 -90.3515
L74.5269 -90.748
L77.0056 -91.1503
L79.4844 -91.5583
L81.9631 -91.9721
L84.4419 -92.3918
L86.9206 -92.7589
L89.3994 -93.2492
L91.8782 -93.6869
L94.3569 -94.1297
L96.8357 -94.5751
L99.3144 -95.031
L101.793 -95.5339
L104.272 -96.1119
L106.751 -96.5978
L109.229 -96.9415
L111.708 -97.3972
L114.187 -98.0643
L116.666 -98.8036
L119.144 -99.4561
L121.623 -100.059
L124.102 -100.814
L126.581 -101.421
L129.059 -101.772
L131.538 -102.041
L134.017 -102.324
L136.496 -102.624
L138.974 -103.184
L141.453 -103.896
L143.932 -104.657
L146.411 -105.432
L148.89 -106.107
L151.368 -106.512
L153.847 -107.301
L156.326 -107.818
L158.805 -108.202
L161.283 -108.588
L163.762 -109.223
L166.241 -109.996
L168.72 -110.534
L171.198 -111.386
L173.677 -112.022
L176.156 -112.909
L178.635 -113.809
L181.113 -114.577
L183.592 -114.683
L186.071 -115.197
L188.55 -115.895
L191.028 -116.611
L193.507 -117.335
L195.986 -117.922
L198.465 -118.269
L200.943 -118.6
L203.422 -119.326
L205.901 -120.017
L208.38 -120.328
L210.858 -121.256
L213.337 -122.038
L215.816 -121.71
L218.295 -121.516
L220.773 -121.809
L223.252 -122.112
L225.731 -122.805
L228.21 -122.905
L230.688 -123.069
L233.167 -123.297
L235.646 -123.273
L238.125 -123.21
L240.603 -122.928
L243.082 -123.075
L245.561 -123.437
L248.04 -123.376
L250.518 -123.373
L252.997 -123.278
L255.476 -123.348
L257.955 -123.505
L260.433 -123.511
L262.912 -123.454
L265.391 -123.478
L267.87 -123.939
L270.349 -123.739
L272.827 -124.072
L275.306 -123.762
L277.785 -123.452
L280.264 -123.422
L282.742 -123.413
L285.221 -123.403
L287.7 -123.394
L290.179 -123.415
L292.657 -123.8
L295.136 -123.888
L297.615 -123.751
L300.094 -123.617
L302.572 -123.698
L305.051 -123.5
L307.53 -123.32
L310.009 -123.269
L312.487 -123.255
L314.966 -122.852
L317.445 -122.651
L317.445 -211.11
L317.445 -211.11
L314.966 -210.521
L312.487 -209.932
L310.009 -209.341
L307.53 -208.75
L305.051 -208.159
L302.572 -207.195
L300.094 -206.297
L297.615 -205.186
L295.136 -203.9
L292.657 -202.605
L290.179 -201.308
L287.7 -201.038
L285.221 -200.906
L282.742 -200.773
L280.264 -200.123
L277.785 -199.297
L275.306 -198.497
L272.827 -197.142
L270.349 -195.301
L267.87 -194.33
L265.391 -193.978
L262.912 -193.706
L260.433 -193.415
L257.955 -192.319
L255.476 -191.562
L252.997 -190.492
L250.518 -189.291
L248.04 -188.944
L245.561 -188.717
L243.082 -187.92
L240.603 -187.113
L238.125 -186.434
L235.646 -186.754
L233.167 -185.751
L230.688 -185.377
L228.21 -184.338
L225.731 -183.943
L223.252 -183.102
L220.773 -182.344
L218.295 -181.856
L215.816 -181.866
L213.337 -181.628
L210.858 -181.547
L208.38 -181.018
L205.901 -180.87
L203.422 -180.662
L200.943 -180.424
L198.465 -180.054
L195.986 -179.883
L193.507 -179.729
L191.028 -179.639
L188.55 -179.521
L186.071 -179.643
L183.592 -179.551
L181.113 -179.69
L178.635 -180.12
L176.156 -180.009
L173.677 -179.898
L171.198 -179.748
L168.72 -179.517
L166.241 -179.286
L163.762 -179.053
L161.283 -178.821
L158.805 -178.876
L156.326 -179.141
L153.847 -179.047
L151.368 -179.162
L148.89 -179.412
L146.411 -179.671
L143.932 -179.933
L141.453 -180.148
L138.974 -180.406
L136.496 -180.875
L134.017 -180.905
L131.538 -181.148
L129.059 -181.272
L126.581 -181.505
L124.102 -181.767
L121.623 -182.144
L119.144 -182.397
L116.666 -182.641
L114.187 -182.892
L111.708 -183.144
L109.229 -183.395
L106.751 -183.64
L104.272 -183.893
L101.793 -184.145
L99.3144 -184.395
L96.8357 -184.541
L94.3569 -184.894
L91.8782 -185.289
L89.3994 -185.666
L86.9206 -186.043
L84.4419 -186.42
L81.9631 -186.795
L79.4844 -187.169
L77.0056 -187.517
L74.5269 -187.832
L72.0481 -188.135
z
" id="mf4616f8547" style="stroke:#fa8e63;stroke-opacity:0.15;stroke-width:0.24;"/>
    </defs>
    <g clip-path="url(#p9aa6d294ba)">
     <use style="fill:#fa8e63;fill-opacity:0.15;stroke:#fa8e63;stroke-opacity:0.15;stroke-width:0.24;" x="0.0" xlink:href="#mf4616f8547" y="360.0"/>
    </g>
   </g>
   <g id="PathCollection_2">
    <path clip-path="url(#p9aa6d294ba)" d="
M84.3179 222.326
C85.8298 222.326 87.28 221.726 88.3491 220.656
C89.4181 219.587 90.0188 218.137 90.0188 216.625
C90.0188 215.113 89.4181 213.663 88.3491 212.594
C87.28 211.525 85.8298 210.924 84.3179 210.924
C82.8061 210.924 81.3559 211.525 80.2868 212.594
C79.2178 213.663 78.6171 215.113 78.6171 216.625
C78.6171 218.137 79.2178 219.587 80.2868 220.656
C81.3559 221.726 82.8061 222.326 84.3179 222.326
z
" style="fill:#262626;fill-opacity:0.8;"/>
    <path clip-path="url(#p9aa6d294ba)" d="
M108.858 128.923
C109.584 128.923 110.281 128.635 110.794 128.121
C111.308 127.608 111.596 126.911 111.596 126.185
C111.596 125.458 111.308 124.762 110.794 124.248
C110.281 123.735 109.584 123.446 108.858 123.446
C108.131 123.446 107.435 123.735 106.921 124.248
C106.408 124.762 106.119 125.458 106.119 126.185
C106.119 126.911 106.408 127.608 106.921 128.121
C107.435 128.635 108.131 128.923 108.858 128.923
z
" style="fill:#262626;fill-opacity:0.8;"/>
    <path clip-path="url(#p9aa6d294ba)" d="
M133.397 298.019
C134.424 298.019 135.41 297.611 136.136 296.884
C136.862 296.158 137.27 295.173 137.27 294.146
C137.27 293.119 136.862 292.134 136.136 291.407
C135.41 290.681 134.424 290.273 133.397 290.273
C132.37 290.273 131.385 290.681 130.659 291.407
C129.932 292.134 129.524 293.119 129.524 294.146
C129.524 295.173 129.932 296.158 130.659 296.884
C131.385 297.611 132.37 298.019 133.397 298.019
z
" style="fill:#262626;fill-opacity:0.8;"/>
    <path clip-path="url(#p9aa6d294ba)" d="
M157.937 212.904
C158.663 212.904 159.36 212.615 159.873 212.102
C160.387 211.588 160.676 210.892 160.676 210.165
C160.676 209.439 160.387 208.742 159.873 208.229
C159.36 207.715 158.663 207.427 157.937 207.427
C157.211 207.427 156.514 207.715 156 208.229
C155.487 208.742 155.198 209.439 155.198 210.165
C155.198 210.892 155.487 211.588 156 212.102
C156.514 212.615 157.211 212.904 157.937 212.904
z
" style="fill:#262626;fill-opacity:0.8;"/>
    <path clip-path="url(#p9aa6d294ba)" d="
M207.016 170.411
C207.609 170.411 208.178 170.175 208.597 169.756
C209.017 169.337 209.252 168.768 209.252 168.175
C209.252 167.582 209.017 167.013 208.597 166.594
C208.178 166.175 207.609 165.939 207.016 165.939
C206.423 165.939 205.855 166.175 205.435 166.594
C205.016 167.013 204.78 167.582 204.78 168.175
C204.78 168.768 205.016 169.337 205.435 169.756
C205.855 170.175 206.423 170.411 207.016 170.411
z
" style="fill:#262626;fill-opacity:0.8;"/>
    <path clip-path="url(#p9aa6d294ba)" d="
M256.096 196.905
C257.033 196.905 257.933 196.532 258.596 195.869
C259.259 195.206 259.631 194.307 259.631 193.369
C259.631 192.432 259.259 191.532 258.596 190.869
C257.933 190.206 257.033 189.834 256.096 189.834
C255.158 189.834 254.259 190.206 253.596 190.869
C252.933 191.532 252.56 192.432 252.56 193.369
C252.56 194.307 252.933 195.206 253.596 195.869
C254.259 196.532 255.158 196.905 256.096 196.905
z
" style="fill:#262626;fill-opacity:0.8;"/>
    <path clip-path="url(#p9aa6d294ba)" d="
M280.635 256.029
C281.662 256.029 282.648 255.62 283.374 254.894
C284.1 254.168 284.508 253.183 284.508 252.156
C284.508 251.128 284.1 250.143 283.374 249.417
C282.648 248.691 281.662 248.283 280.635 248.283
C279.608 248.283 278.623 248.691 277.897 249.417
C277.17 250.143 276.762 251.128 276.762 252.156
C276.762 253.183 277.17 254.168 277.897 254.894
C278.623 255.62 279.608 256.029 280.635 256.029
z
" style="fill:#262626;fill-opacity:0.8;"/>
    <path clip-path="url(#p9aa6d294ba)" d="
M305.175 192.189
C307.186 192.189 309.115 191.39 310.537 189.968
C311.959 188.546 312.758 186.617 312.758 184.606
C312.758 182.595 311.959 180.666 310.537 179.244
C309.115 177.822 307.186 177.023 305.175 177.023
C303.164 177.023 301.235 177.822 299.813 179.244
C298.391 180.666 297.592 182.595 297.592 184.606
C297.592 186.617 298.391 188.546 299.813 189.968
C301.235 191.39 303.164 192.189 305.175 192.189
z
" style="fill:#262626;fill-opacity:0.8;"/>
   </g>
   <g id="line2d_13">
    <path clip-path="url(#p9aa6d294ba)" d="
M72.0481 224.129
L74.5269 223.864
L77.0056 223.598
L79.4844 223.332
L81.9631 223.065
L84.4419 222.798
L86.9206 222.53
L89.3994 222.261
L91.8782 221.991
L94.3569 221.722
L96.8357 221.451
L99.3144 221.18
L101.793 220.908
L104.272 220.636
L106.751 220.363
L109.229 220.089
L111.708 219.815
L114.187 219.541
L116.666 219.265
L119.144 218.989
L121.623 218.713
L124.102 218.436
L126.581 218.158
L129.059 217.88
L131.538 217.601
L134.017 217.322
L136.496 217.042
L138.974 216.762
L141.453 216.481
L143.932 216.199
L146.411 215.917
L148.89 215.634
L151.368 215.351
L153.847 215.067
L156.326 214.782
L158.805 214.498
L161.283 214.212
L163.762 213.926
L166.241 213.639
L168.72 213.352
L171.198 213.065
L173.677 212.776
L176.156 212.488
L178.635 212.198
L181.113 211.908
L183.592 211.618
L186.071 211.327
L188.55 211.036
L191.028 210.744
L193.507 210.452
L195.986 210.159
L198.465 209.865
L200.943 209.571
L203.422 209.277
L205.901 208.982
L208.38 208.686
L210.858 208.39
L213.337 208.094
L215.816 207.797
L218.295 207.499
L220.773 207.202
L223.252 206.903
L225.731 206.604
L228.21 206.305
L230.688 206.005
L233.167 205.705
L235.646 205.404
L238.125 205.103
L240.603 204.801
L243.082 204.499
L245.561 204.196
L248.04 203.893
L250.518 203.589
L252.997 203.285
L255.476 202.981
L257.955 202.676
L260.433 202.371
L262.912 202.065
L265.391 201.759
L267.87 201.452
L270.349 201.145
L272.827 200.838
L275.306 200.53
L277.785 200.222
L280.264 199.913
L282.742 199.604
L285.221 199.294
L287.7 198.985
L290.179 198.674
L292.657 198.364
L295.136 198.052
L297.615 197.741
L300.094 197.429
L302.572 197.117
L305.051 196.804
L307.53 196.491
L310.009 196.178
L312.487 195.864
L314.966 195.55
L317.445 195.236" style="fill:none;stroke:#fa8e63;stroke-linecap:round;stroke-width:2.1;"/>
   </g>
   <g id="patch_3">
    <path d="
M47.5084 319.34
L341.985 319.34" style="fill:none;stroke:#262626;stroke-linecap:square;stroke-linejoin:miter;stroke-width:1.25;"/>
   </g>
   <g id="patch_4">
    <path d="
M47.5084 319.34
L47.5084 17.01" style="fill:none;stroke:#262626;stroke-linecap:square;stroke-linejoin:miter;stroke-width:1.25;"/>
   </g>
   <g id="text_15">
    <!-- VGG-19 -->
    <defs>
     <path d="
M5.03125 34.7188
Q5.03125 42.7812 7.20312 49.2656
Q9.375 55.7656 13.6875 60.3281
Q18.0156 64.8906 24.4062 67.3594
Q30.8125 69.8281 39.2656 69.8281
Q45.6094 69.8281 50.3906 68.7031
Q55.1719 67.5781 58.6875 65.4688
Q62.2031 63.375 64.6406 60.375
Q67.0938 57.375 68.7969 53.6094
L59.9062 50.9844
Q58.6406 53.5156 56.8594 55.5938
Q55.0781 57.6719 52.5312 59.125
Q50 60.5938 46.6562 61.3906
Q43.3125 62.2031 39.0156 62.2031
Q32.7656 62.2031 28.1406 60.25
Q23.5312 58.2969 20.5 54.6875
Q17.4844 51.0781 15.9844 46
Q14.5 40.9219 14.5 34.7188
Q14.5 28.5156 16.1094 23.3594
Q17.7188 18.2188 20.8906 14.4844
Q24.0781 10.75 28.7812 8.67188
Q33.5 6.59375 39.7031 6.59375
Q43.75 6.59375 47.1719 7.26562
Q50.5938 7.95312 53.3438 9.04688
Q56.1094 10.1562 58.2031 11.5
Q60.2969 12.8438 61.7188 14.2031
L61.7188 26.6094
L41.1562 26.6094
L41.1562 34.4219
L70.3125 34.4219
L70.3125 10.6875
Q68.0156 8.34375 64.9062 6.21875
Q61.8125 4.10938 57.9531 2.48438
Q54.1094 0.875 49.5156 -0.046875
Q44.9219 -0.984375 39.7031 -0.984375
Q31 -0.984375 24.5 1.67188
Q18.0156 4.34375 13.6875 9.10938
Q9.375 13.875 7.20312 20.4062
Q5.03125 26.9531 5.03125 34.7188" id="LiberationSans-47"/>
     <path d="
M38.1875 0
L28.5156 0
L0.4375 68.7969
L10.25 68.7969
L29.2969 20.3594
Q30.0312 18.1719 30.7656 15.9844
Q31.5 13.8125 32.0781 12.1094
Q32.7656 10.1094 33.4062 8.20312
Q33.9844 10.0156 34.6719 12.0156
Q35.25 13.7188 35.9531 15.8594
Q36.6719 18.0156 37.5 20.3594
L56.4531 68.7969
L66.2656 68.7969
z
" id="LiberationSans-56"/>
     <path d="
M4.4375 22.6562
L4.4375 30.4688
L28.8594 30.4688
L28.8594 22.6562
z
" id="LiberationSans-2d"/>
     <path d="
M50.875 35.7969
Q50.875 26.6094 49.1406 19.7031
Q47.4062 12.7969 44.1875 8.20312
Q40.9688 3.60938 36.3438 1.3125
Q31.7344 -0.984375 25.9844 -0.984375
Q22.0156 -0.984375 18.8438 -0.171875
Q15.6719 0.640625 13.1719 2.34375
Q10.6875 4.04688 8.92188 6.78125
Q7.17188 9.51562 6.10938 13.375
L14.5 14.7031
Q15.875 10.25 18.7812 8.17188
Q21.6875 6.10938 26.125 6.10938
Q29.6875 6.10938 32.6406 7.78125
Q35.5938 9.46875 37.6719 12.8438
Q39.75 16.2188 40.9219 21.2969
Q42.0938 26.375 42.1875 33.2031
Q41.1562 30.9062 39.375 29.0938
Q37.5938 27.2969 35.3281 26.0469
Q33.0625 24.8125 30.4219 24.1406
Q27.7812 23.4844 25.0938 23.4844
Q20.4062 23.4844 16.625 25.1719
Q12.8438 26.8594 10.2031 29.875
Q7.5625 32.9062 6.125 37.1719
Q4.6875 41.4531 4.6875 46.6875
Q4.6875 52 6.21875 56.2969
Q7.76562 60.5938 10.6875 63.5938
Q13.625 66.6094 17.8906 68.2188
Q22.1719 69.8281 27.5938 69.8281
Q39.0625 69.8281 44.9688 61.3281
Q50.875 52.8281 50.875 35.7969
M41.3125 44.2812
Q41.3125 48.0938 40.4062 51.4531
Q39.5 54.8281 37.7188 57.3125
Q35.9375 59.8125 33.3281 61.25
Q30.7188 62.7031 27.2969 62.7031
Q24.125 62.7031 21.5781 61.5781
Q19.0469 60.4531 17.2812 58.375
Q15.5312 56.2969 14.5781 53.3125
Q13.625 50.3438 13.625 46.6875
Q13.625 43.2188 14.4688 40.2344
Q15.3281 37.25 17.0312 35.0781
Q18.75 32.9062 21.2812 31.6562
Q23.8281 30.4219 27.2031 30.4219
Q29.6406 30.4219 32.1562 31.25
Q34.6719 32.0781 36.6875 33.7812
Q38.7188 35.5 40.0156 38.1094
Q41.3125 40.7188 41.3125 44.2812" id="LiberationSans-39"/>
    </defs>
    <g style="fill:#262626;" transform="translate(177.389234375 12.01)scale(0.096 -0.096)">
     <use xlink:href="#LiberationSans-56"/>
     <use x="66.69921875" xlink:href="#LiberationSans-47"/>
     <use x="144.482421875" xlink:href="#LiberationSans-47"/>
     <use x="222.265625" xlink:href="#LiberationSans-2d"/>
     <use x="255.56640625" xlink:href="#LiberationSans-31"/>
     <use x="311.181640625" xlink:href="#LiberationSans-39"/>
    </g>
   </g>
  </g>
 </g>
 <defs>
  <clipPath id="p9aa6d294ba">
   <rect height="302.33" width="294.47609375" x="47.5084375" y="17.01"/>
  </clipPath>
 </defs>
</svg>
