<?xml version="1.0" encoding="utf-8" standalone="no"?>
<!DOCTYPE svg PUBLIC "-//W3C//DTD SVG 1.1//EN"
  "http://www.w3.org/Graphics/SVG/1.1/DTD/svg11.dtd">
<!-- Created with matplotlib (http://matplotlib.org/) -->
<svg height="360pt" version="1.1" viewBox="0 0 342 360" width="342pt" xmlns="http://www.w3.org/2000/svg" xmlns:xlink="http://www.w3.org/1999/xlink">
 <defs>
  <style type="text/css">
*{stroke-linecap:butt;stroke-linejoin:round;stroke-miterlimit:100000;}
  </style>
 </defs>
 <g id="figure_1">
  <g id="patch_1">
   <path d="M 0 360.13175 
L 342.83725 360.13175 
L 342.83725 0 
L 0 0 
z
" style="fill:#ffffff;"/>
  </g>
  <g id="axes_1">
   <g id="patch_2">
    <path d="M 37.12325 326.671 
L 335.63725 326.671 
L 335.63725 19.157 
L 37.12325 19.157 
z
" style="fill:#ffffff;"/>
   </g>
   <g id="matplotlib.axis_1">
    <g id="xtick_1">
     <g id="line2d_1">
      <defs>
       <path d="M 0 0 
L 0 0 
" id="mff95d0377c" style="stroke:#262626;stroke-width:0.8;"/>
      </defs>
      <g>
       <use style="fill:#262626;stroke:#262626;stroke-width:0.8;" x="61.9994166667" xlink:href="#mff95d0377c" y="326.671"/>
      </g>
     </g>
     <g id="text_1">
      <!-- 0.0 -->
      <defs>
       <path d="M 9.125 0 
L 9.125 10.6875 
L 18.65625 10.6875 
L 18.65625 0 
z
" id="LiberationSans-2e"/>
       <path d="M 51.703125 34.421875 
Q 51.703125 24.515625 49.828125 17.75 
Q 47.953125 10.984375 44.703125 6.8125 
Q 41.453125 2.640625 37.0625 0.828125 
Q 32.671875 -0.984375 27.6875 -0.984375 
Q 22.65625 -0.984375 18.3125 0.828125 
Q 13.96875 2.640625 10.765625 6.78125 
Q 7.5625 10.9375 5.734375 17.703125 
Q 3.90625 24.46875 3.90625 34.421875 
Q 3.90625 44.828125 5.734375 51.640625 
Q 7.5625 58.453125 10.78125 62.5 
Q 14.015625 66.546875 18.40625 68.1875 
Q 22.796875 69.828125 27.984375 69.828125 
Q 32.90625 69.828125 37.21875 68.1875 
Q 41.546875 66.546875 44.765625 62.5 
Q 48 58.453125 49.84375 51.640625 
Q 51.703125 44.828125 51.703125 34.421875 
M 42.78125 34.421875 
Q 42.78125 42.625 41.796875 48.0625 
Q 40.828125 53.515625 38.921875 56.765625 
Q 37.015625 60.015625 34.25 61.359375 
Q 31.5 62.703125 27.984375 62.703125 
Q 24.265625 62.703125 21.4375 61.328125 
Q 18.609375 59.96875 16.671875 56.71875 
Q 14.75 53.46875 13.765625 48.015625 
Q 12.796875 42.578125 12.796875 34.421875 
Q 12.796875 26.515625 13.796875 21.09375 
Q 14.796875 15.671875 16.71875 12.375 
Q 18.65625 9.078125 21.4375 7.640625 
Q 24.21875 6.203125 27.78125 6.203125 
Q 31.25 6.203125 34.03125 7.640625 
Q 36.8125 9.078125 38.734375 12.375 
Q 40.671875 15.671875 41.71875 21.09375 
Q 42.78125 26.515625 42.78125 34.421875 
" id="LiberationSans-30"/>
      </defs>
      <g style="fill:#262626;" transform="translate(56.4394166667 338.0685)scale(0.08 -0.08)">
       <use xlink:href="#LiberationSans-30"/>
       <use x="55.615234375" xlink:href="#LiberationSans-2e"/>
       <use x="83.3984375" xlink:href="#LiberationSans-30"/>
      </g>
     </g>
    </g>
    <g id="xtick_2">
     <g id="line2d_2">
      <g>
       <use style="fill:#262626;stroke:#262626;stroke-width:0.8;" x="111.75175" xlink:href="#mff95d0377c" y="326.671"/>
      </g>
     </g>
     <g id="text_2">
      <!-- 0.2 -->
      <defs>
       <path d="M 5.03125 0 
L 5.03125 6.203125 
Q 7.515625 11.921875 11.109375 16.28125 
Q 14.703125 20.65625 18.65625 24.1875 
Q 22.609375 27.734375 26.484375 30.765625 
Q 30.375 33.796875 33.5 36.8125 
Q 36.625 39.84375 38.546875 43.15625 
Q 40.484375 46.484375 40.484375 50.6875 
Q 40.484375 53.609375 39.59375 55.828125 
Q 38.71875 58.0625 37.0625 59.5625 
Q 35.40625 61.078125 33.078125 61.828125 
Q 30.765625 62.59375 27.9375 62.59375 
Q 25.296875 62.59375 22.96875 61.859375 
Q 20.65625 61.140625 18.84375 59.671875 
Q 17.046875 58.203125 15.890625 56.03125 
Q 14.75 53.859375 14.40625 50.984375 
L 5.421875 51.8125 
Q 5.859375 55.515625 7.46875 58.78125 
Q 9.078125 62.0625 11.90625 64.53125 
Q 14.75 67 18.71875 68.40625 
Q 22.703125 69.828125 27.9375 69.828125 
Q 33.0625 69.828125 37.0625 68.609375 
Q 41.0625 67.390625 43.8125 64.984375 
Q 46.578125 62.59375 48.046875 59.078125 
Q 49.515625 55.5625 49.515625 50.984375 
Q 49.515625 47.515625 48.265625 44.390625 
Q 47.015625 41.265625 44.9375 38.421875 
Q 42.875 35.59375 40.140625 32.953125 
Q 37.40625 30.328125 34.421875 27.8125 
Q 31.453125 25.296875 28.421875 22.828125 
Q 25.390625 20.359375 22.71875 17.859375 
Q 20.0625 15.375 17.96875 12.8125 
Q 15.875 10.25 14.703125 7.46875 
L 50.59375 7.46875 
L 50.59375 0 
z
" id="LiberationSans-32"/>
      </defs>
      <g style="fill:#262626;" transform="translate(106.19175 338.0685)scale(0.08 -0.08)">
       <use xlink:href="#LiberationSans-30"/>
       <use x="55.615234375" xlink:href="#LiberationSans-2e"/>
       <use x="83.3984375" xlink:href="#LiberationSans-32"/>
      </g>
     </g>
    </g>
    <g id="xtick_3">
     <g id="line2d_3">
      <g>
       <use style="fill:#262626;stroke:#262626;stroke-width:0.8;" x="161.504083333" xlink:href="#mff95d0377c" y="326.671"/>
      </g>
     </g>
     <g id="text_3">
      <!-- 0.4 -->
      <defs>
       <path d="M 43.015625 15.578125 
L 43.015625 0 
L 34.71875 0 
L 34.71875 15.578125 
L 2.296875 15.578125 
L 2.296875 22.40625 
L 33.796875 68.796875 
L 43.015625 68.796875 
L 43.015625 22.515625 
L 52.6875 22.515625 
L 52.6875 15.578125 
z
M 34.71875 58.890625 
Q 34.625 58.640625 34.234375 57.9375 
Q 33.84375 57.234375 33.34375 56.34375 
Q 32.859375 55.46875 32.34375 54.5625 
Q 31.84375 53.65625 31.453125 53.078125 
L 13.8125 27.09375 
Q 13.578125 26.703125 13.109375 26.0625 
Q 12.640625 25.4375 12.15625 24.78125 
Q 11.671875 24.125 11.171875 23.484375 
Q 10.6875 22.859375 10.40625 22.515625 
L 34.71875 22.515625 
z
" id="LiberationSans-34"/>
      </defs>
      <g style="fill:#262626;" transform="translate(155.944083333 338.0685)scale(0.08 -0.08)">
       <use xlink:href="#LiberationSans-30"/>
       <use x="55.615234375" xlink:href="#LiberationSans-2e"/>
       <use x="83.3984375" xlink:href="#LiberationSans-34"/>
      </g>
     </g>
    </g>
    <g id="xtick_4">
     <g id="line2d_4">
      <g>
       <use style="fill:#262626;stroke:#262626;stroke-width:0.8;" x="211.256416667" xlink:href="#mff95d0377c" y="326.671"/>
      </g>
     </g>
     <g id="text_4">
      <!-- 0.6 -->
      <defs>
       <path d="M 51.21875 22.515625 
Q 51.21875 17.328125 49.78125 13 
Q 48.34375 8.6875 45.53125 5.578125 
Q 42.71875 2.484375 38.5625 0.75 
Q 34.421875 -0.984375 29 -0.984375 
Q 23 -0.984375 18.5 1.3125 
Q 14.015625 3.609375 11.03125 7.921875 
Q 8.0625 12.25 6.5625 18.53125 
Q 5.078125 24.8125 5.078125 32.8125 
Q 5.078125 42 6.765625 48.921875 
Q 8.453125 55.859375 11.625 60.5 
Q 14.796875 65.140625 19.359375 67.484375 
Q 23.921875 69.828125 29.6875 69.828125 
Q 33.203125 69.828125 36.28125 69.09375 
Q 39.359375 68.359375 41.875 66.71875 
Q 44.390625 65.09375 46.28125 62.40625 
Q 48.1875 59.71875 49.3125 55.8125 
L 40.921875 54.296875 
Q 39.546875 58.734375 36.546875 60.71875 
Q 33.546875 62.703125 29.59375 62.703125 
Q 25.984375 62.703125 23.046875 60.984375 
Q 20.125 59.28125 18.0625 55.875 
Q 16.015625 52.484375 14.90625 47.359375 
Q 13.8125 42.234375 13.8125 35.40625 
Q 16.21875 39.84375 20.5625 42.15625 
Q 24.90625 44.484375 30.515625 44.484375 
Q 35.203125 44.484375 39.015625 42.96875 
Q 42.828125 41.453125 45.53125 38.59375 
Q 48.25 35.75 49.734375 31.671875 
Q 51.21875 27.59375 51.21875 22.515625 
M 42.28125 22.125 
Q 42.28125 25.6875 41.40625 28.5625 
Q 40.53125 31.453125 38.765625 33.46875 
Q 37.015625 35.5 34.421875 36.59375 
Q 31.84375 37.703125 28.421875 37.703125 
Q 26.03125 37.703125 23.578125 36.984375 
Q 21.140625 36.28125 19.15625 34.6875 
Q 17.1875 33.109375 15.9375 30.515625 
Q 14.703125 27.9375 14.703125 24.21875 
Q 14.703125 20.40625 15.671875 17.109375 
Q 16.65625 13.8125 18.484375 11.375 
Q 20.3125 8.9375 22.890625 7.515625 
Q 25.484375 6.109375 28.71875 6.109375 
Q 31.890625 6.109375 34.40625 7.203125 
Q 36.921875 8.296875 38.671875 10.375 
Q 40.4375 12.453125 41.359375 15.421875 
Q 42.28125 18.40625 42.28125 22.125 
" id="LiberationSans-36"/>
      </defs>
      <g style="fill:#262626;" transform="translate(205.696416667 338.0685)scale(0.08 -0.08)">
       <use xlink:href="#LiberationSans-30"/>
       <use x="55.615234375" xlink:href="#LiberationSans-2e"/>
       <use x="83.3984375" xlink:href="#LiberationSans-36"/>
      </g>
     </g>
    </g>
    <g id="xtick_5">
     <g id="line2d_5">
      <g>
       <use style="fill:#262626;stroke:#262626;stroke-width:0.8;" x="261.00875" xlink:href="#mff95d0377c" y="326.671"/>
      </g>
     </g>
     <g id="text_5">
      <!-- 0.8 -->
      <defs>
       <path d="M 51.265625 19.1875 
Q 51.265625 14.796875 49.875 11.109375 
Q 48.484375 7.421875 45.625 4.734375 
Q 42.78125 2.046875 38.328125 0.53125 
Q 33.890625 -0.984375 27.828125 -0.984375 
Q 21.78125 -0.984375 17.359375 0.53125 
Q 12.9375 2.046875 10.03125 4.703125 
Q 7.125 7.375 5.734375 11.0625 
Q 4.34375 14.75 4.34375 19.09375 
Q 4.34375 22.859375 5.484375 25.78125 
Q 6.640625 28.71875 8.5625 30.828125 
Q 10.5 32.953125 12.96875 34.25 
Q 15.4375 35.546875 18.0625 35.984375 
L 18.0625 36.1875 
Q 15.1875 36.859375 12.90625 38.375 
Q 10.640625 39.890625 9.09375 42.015625 
Q 7.5625 44.140625 6.75 46.71875 
Q 5.953125 49.3125 5.953125 52.203125 
Q 5.953125 55.8125 7.34375 59 
Q 8.734375 62.203125 11.46875 64.625 
Q 14.203125 67.046875 18.25 68.4375 
Q 22.3125 69.828125 27.640625 69.828125 
Q 33.25 69.828125 37.375 68.40625 
Q 41.5 67 44.203125 64.578125 
Q 46.921875 62.15625 48.234375 58.9375 
Q 49.5625 55.71875 49.5625 52.09375 
Q 49.5625 49.265625 48.75 46.671875 
Q 47.953125 44.09375 46.40625 41.96875 
Q 44.875 39.84375 42.59375 38.34375 
Q 40.328125 36.859375 37.359375 36.28125 
L 37.359375 36.078125 
Q 40.328125 35.59375 42.859375 34.296875 
Q 45.40625 33.015625 47.265625 30.890625 
Q 49.125 28.765625 50.1875 25.828125 
Q 51.265625 22.90625 51.265625 19.1875 
M 40.4375 51.609375 
Q 40.4375 54.203125 39.765625 56.34375 
Q 39.109375 58.5 37.59375 60.03125 
Q 36.078125 61.578125 33.640625 62.421875 
Q 31.203125 63.28125 27.640625 63.28125 
Q 24.171875 63.28125 21.78125 62.421875 
Q 19.390625 61.578125 17.84375 60.03125 
Q 16.3125 58.5 15.625 56.34375 
Q 14.9375 54.203125 14.9375 51.609375 
Q 14.9375 49.5625 15.46875 47.40625 
Q 16.015625 45.265625 17.421875 43.5 
Q 18.84375 41.75 21.328125 40.625 
Q 23.828125 39.5 27.734375 39.5 
Q 31.890625 39.5 34.40625 40.625 
Q 36.921875 41.75 38.25 43.5 
Q 39.59375 45.265625 40.015625 47.40625 
Q 40.4375 49.5625 40.4375 51.609375 
M 42.140625 20.015625 
Q 42.140625 22.515625 41.453125 24.828125 
Q 40.765625 27.15625 39.109375 28.9375 
Q 37.453125 30.71875 34.640625 31.8125 
Q 31.84375 32.90625 27.640625 32.90625 
Q 23.78125 32.90625 21.0625 31.8125 
Q 18.359375 30.71875 16.671875 28.90625 
Q 14.984375 27.09375 14.203125 24.71875 
Q 13.421875 22.359375 13.421875 19.828125 
Q 13.421875 16.65625 14.203125 14.03125 
Q 14.984375 11.421875 16.6875 9.546875 
Q 18.40625 7.671875 21.1875 6.640625 
Q 23.96875 5.609375 27.9375 5.609375 
Q 31.9375 5.609375 34.671875 6.640625 
Q 37.40625 7.671875 39.0625 9.546875 
Q 40.71875 11.421875 41.421875 14.078125 
Q 42.140625 16.75 42.140625 20.015625 
" id="LiberationSans-38"/>
      </defs>
      <g style="fill:#262626;" transform="translate(255.44875 338.0685)scale(0.08 -0.08)">
       <use xlink:href="#LiberationSans-30"/>
       <use x="55.615234375" xlink:href="#LiberationSans-2e"/>
       <use x="83.3984375" xlink:href="#LiberationSans-38"/>
      </g>
     </g>
    </g>
    <g id="xtick_6">
     <g id="line2d_6">
      <g>
       <use style="fill:#262626;stroke:#262626;stroke-width:0.8;" x="310.761083333" xlink:href="#mff95d0377c" y="326.671"/>
      </g>
     </g>
     <g id="text_6">
      <!-- 1.0 -->
      <defs>
       <path d="M 7.625 0 
L 7.625 7.46875 
L 25.140625 7.46875 
L 25.140625 60.40625 
L 9.625 49.3125 
L 9.625 57.625 
L 25.875 68.796875 
L 33.984375 68.796875 
L 33.984375 7.46875 
L 50.734375 7.46875 
L 50.734375 0 
z
" id="LiberationSans-31"/>
      </defs>
      <g style="fill:#262626;" transform="translate(305.201083333 338.0685)scale(0.08 -0.08)">
       <use xlink:href="#LiberationSans-31"/>
       <use x="55.615234375" xlink:href="#LiberationSans-2e"/>
       <use x="83.3984375" xlink:href="#LiberationSans-30"/>
      </g>
     </g>
    </g>
    <g id="text_7">
     <!-- human accuracy -->
     <defs>
      <path d="M 6.9375 0 
L 6.9375 40.53125 
Q 6.9375 42.1875 6.90625 43.921875 
Q 6.890625 45.65625 6.828125 47.265625 
Q 6.78125 48.875 6.734375 50.28125 
Q 6.6875 51.703125 6.640625 52.828125 
L 14.9375 52.828125 
Q 14.984375 51.703125 15.0625 50.265625 
Q 15.140625 48.828125 15.203125 47.3125 
Q 15.28125 45.796875 15.296875 44.40625 
Q 15.328125 43.015625 15.328125 42.046875 
L 15.53125 42.046875 
Q 16.453125 45.0625 17.5 47.28125 
Q 18.5625 49.515625 19.96875 50.953125 
Q 21.390625 52.390625 23.34375 53.09375 
Q 25.296875 53.8125 28.078125 53.8125 
Q 29.15625 53.8125 30.125 53.640625 
Q 31.109375 53.46875 31.640625 53.328125 
L 31.640625 45.265625 
Q 30.765625 45.515625 29.59375 45.625 
Q 28.421875 45.75 26.953125 45.75 
Q 23.921875 45.75 21.796875 44.375 
Q 19.671875 43.015625 18.328125 40.59375 
Q 17 38.1875 16.359375 34.84375 
Q 15.71875 31.5 15.71875 27.546875 
L 15.71875 0 
z
" id="LiberationSans-72"/>
      <path d="M 20.21875 -0.984375 
Q 12.25 -0.984375 8.25 3.21875 
Q 4.25 7.421875 4.25 14.75 
Q 4.25 19.96875 6.21875 23.3125 
Q 8.203125 26.65625 11.390625 28.5625 
Q 14.59375 30.46875 18.6875 31.203125 
Q 22.796875 31.9375 27.046875 32.03125 
L 38.921875 32.234375 
L 38.921875 35.109375 
Q 38.921875 38.375 38.234375 40.671875 
Q 37.546875 42.96875 36.125 44.375 
Q 34.71875 45.796875 32.59375 46.453125 
Q 30.46875 47.125 27.59375 47.125 
Q 25.046875 47.125 23 46.75 
Q 20.953125 46.390625 19.4375 45.4375 
Q 17.921875 44.484375 16.984375 42.84375 
Q 16.0625 41.21875 15.765625 38.71875 
L 6.59375 39.546875 
Q 7.078125 42.671875 8.4375 45.28125 
Q 9.8125 47.90625 12.328125 49.796875 
Q 14.84375 51.703125 18.625 52.75 
Q 22.40625 53.8125 27.78125 53.8125 
Q 37.75 53.8125 42.765625 49.234375 
Q 47.796875 44.671875 47.796875 36.03125 
L 47.796875 13.28125 
Q 47.796875 9.375 48.828125 7.390625 
Q 49.859375 5.421875 52.734375 5.421875 
Q 53.46875 5.421875 54.203125 5.515625 
Q 54.9375 5.609375 55.609375 5.765625 
L 55.609375 0.296875 
Q 53.953125 -0.09375 52.3125 -0.28125 
Q 50.6875 -0.484375 48.828125 -0.484375 
Q 46.34375 -0.484375 44.5625 0.171875 
Q 42.78125 0.828125 41.65625 2.171875 
Q 40.53125 3.515625 39.9375 5.484375 
Q 39.359375 7.46875 39.203125 10.109375 
L 38.921875 10.109375 
Q 37.5 7.5625 35.8125 5.515625 
Q 34.125 3.46875 31.875 2.03125 
Q 29.640625 0.59375 26.78125 -0.1875 
Q 23.921875 -0.984375 20.21875 -0.984375 
M 22.21875 5.609375 
Q 26.421875 5.609375 29.5625 7.140625 
Q 32.71875 8.6875 34.78125 11.078125 
Q 36.859375 13.484375 37.890625 16.3125 
Q 38.921875 19.140625 38.921875 21.734375 
L 38.921875 26.078125 
L 29.296875 25.875 
Q 26.078125 25.828125 23.171875 25.40625 
Q 20.265625 25 18.0625 23.78125 
Q 15.875 22.5625 14.578125 20.359375 
Q 13.28125 18.171875 13.28125 14.59375 
Q 13.28125 10.296875 15.59375 7.953125 
Q 17.921875 5.609375 22.21875 5.609375 
" id="LiberationSans-61"/>
      <path d="M 15.328125 52.828125 
L 15.328125 19.34375 
Q 15.328125 15.484375 15.890625 12.890625 
Q 16.453125 10.296875 17.71875 8.703125 
Q 19 7.125 21.0625 6.46875 
Q 23.140625 5.8125 26.21875 5.8125 
Q 29.34375 5.8125 31.859375 6.90625 
Q 34.375 8.015625 36.15625 10.078125 
Q 37.9375 12.15625 38.90625 15.203125 
Q 39.890625 18.265625 39.890625 22.21875 
L 39.890625 52.828125 
L 48.6875 52.828125 
L 48.6875 11.28125 
Q 48.6875 9.625 48.703125 7.78125 
Q 48.734375 5.953125 48.78125 4.3125 
Q 48.828125 2.6875 48.875 1.515625 
Q 48.921875 0.34375 48.96875 0 
L 40.671875 0 
Q 40.625 0.25 40.578125 1.3125 
Q 40.53125 2.390625 40.453125 3.78125 
Q 40.375 5.171875 40.328125 6.609375 
Q 40.28125 8.0625 40.28125 9.03125 
L 40.140625 9.03125 
Q 38.875 6.734375 37.359375 4.875 
Q 35.84375 3.03125 33.84375 1.734375 
Q 31.84375 0.4375 29.25 -0.265625 
Q 26.65625 -0.984375 23.25 -0.984375 
Q 18.84375 -0.984375 15.671875 0.09375 
Q 12.5 1.171875 10.453125 3.421875 
Q 8.40625 5.671875 7.453125 9.1875 
Q 6.5 12.703125 6.5 17.625 
L 6.5 52.828125 
z
" id="LiberationSans-75"/>
      <path d="M 13.421875 26.65625 
Q 13.421875 22.125 14.078125 18.3125 
Q 14.75 14.5 16.3125 11.734375 
Q 17.875 8.984375 20.4375 7.46875 
Q 23 5.953125 26.765625 5.953125 
Q 31.453125 5.953125 34.59375 8.484375 
Q 37.75 11.03125 38.484375 16.3125 
L 47.359375 15.71875 
Q 46.921875 12.453125 45.453125 9.421875 
Q 44 6.390625 41.484375 4.09375 
Q 38.96875 1.8125 35.34375 0.40625 
Q 31.734375 -0.984375 27 -0.984375 
Q 20.796875 -0.984375 16.453125 1.109375 
Q 12.109375 3.21875 9.390625 6.90625 
Q 6.6875 10.59375 5.46875 15.59375 
Q 4.25 20.609375 4.25 26.46875 
Q 4.25 31.78125 5.125 35.859375 
Q 6 39.9375 7.59375 42.984375 
Q 9.1875 46.046875 11.328125 48.125 
Q 13.484375 50.203125 15.984375 51.4375 
Q 18.5 52.6875 21.28125 53.25 
Q 24.078125 53.8125 26.90625 53.8125 
Q 31.34375 53.8125 34.8125 52.59375 
Q 38.28125 51.375 40.796875 49.25 
Q 43.3125 47.125 44.875 44.234375 
Q 46.4375 41.359375 47.078125 38.03125 
L 38.03125 37.359375 
Q 37.359375 41.75 34.5625 44.328125 
Q 31.78125 46.921875 26.65625 46.921875 
Q 22.90625 46.921875 20.390625 45.671875 
Q 17.875 44.4375 16.3125 41.921875 
Q 14.75 39.40625 14.078125 35.59375 
Q 13.421875 31.78125 13.421875 26.65625 
" id="LiberationSans-63"/>
      <path d="M 29.5 0 
Q 27.640625 -4.78125 25.703125 -8.609375 
Q 23.78125 -12.453125 21.390625 -15.15625 
Q 19 -17.875 16.0625 -19.3125 
Q 13.140625 -20.75 9.328125 -20.75 
Q 7.671875 -20.75 6.25 -20.65625 
Q 4.828125 -20.5625 3.265625 -20.21875 
L 3.265625 -13.625 
Q 4.203125 -13.765625 5.375 -13.84375 
Q 6.546875 -13.921875 7.375 -13.921875 
Q 11.234375 -13.921875 14.546875 -11.03125 
Q 17.875 -8.15625 20.359375 -1.859375 
L 21.1875 0.25 
L 0.25 52.828125 
L 9.625 52.828125 
L 20.75 23.640625 
Q 21.234375 22.3125 21.984375 20.109375 
Q 22.75 17.921875 23.5 15.71875 
Q 24.265625 13.53125 24.84375 11.765625 
Q 25.4375 10.015625 25.53125 9.578125 
Q 25.6875 10.109375 26.25 11.6875 
Q 26.8125 13.28125 27.515625 15.234375 
Q 28.21875 17.1875 28.953125 19.1875 
Q 29.6875 21.1875 30.171875 22.65625 
L 40.53125 52.828125 
L 49.8125 52.828125 
z
" id="LiberationSans-79"/>
      <path d="M 15.484375 43.796875 
Q 16.9375 46.484375 18.640625 48.359375 
Q 20.359375 50.25 22.40625 51.46875 
Q 24.46875 52.6875 26.90625 53.25 
Q 29.34375 53.8125 32.375 53.8125 
Q 37.453125 53.8125 40.703125 52.4375 
Q 43.953125 51.078125 45.828125 48.609375 
Q 47.703125 46.140625 48.40625 42.71875 
Q 49.125 39.3125 49.125 35.203125 
L 49.125 0 
L 40.28125 0 
L 40.28125 33.5 
Q 40.28125 36.859375 39.859375 39.390625 
Q 39.453125 41.9375 38.28125 43.625 
Q 37.109375 45.3125 34.953125 46.15625 
Q 32.8125 47.015625 29.390625 47.015625 
Q 26.265625 47.015625 23.75 45.890625 
Q 21.234375 44.78125 19.453125 42.71875 
Q 17.671875 40.671875 16.6875 37.734375 
Q 15.71875 34.8125 15.71875 31.15625 
L 15.71875 0 
L 6.9375 0 
L 6.9375 72.46875 
L 15.71875 72.46875 
L 15.71875 53.609375 
Q 15.71875 52 15.671875 50.390625 
Q 15.625 48.78125 15.546875 47.40625 
Q 15.484375 46.046875 15.421875 45.09375 
Q 15.375 44.140625 15.328125 43.796875 
z
" id="LiberationSans-68"/>
      <path d="M 37.5 0 
L 37.5 33.5 
Q 37.5 37.359375 37.015625 39.9375 
Q 36.53125 42.53125 35.375 44.109375 
Q 34.234375 45.703125 32.375 46.359375 
Q 30.515625 47.015625 27.828125 47.015625 
Q 25.046875 47.015625 22.796875 45.921875 
Q 20.5625 44.828125 18.96875 42.75 
Q 17.390625 40.671875 16.53125 37.625 
Q 15.671875 34.578125 15.671875 30.609375 
L 15.671875 0 
L 6.9375 0 
L 6.9375 41.546875 
Q 6.9375 43.21875 6.90625 45.046875 
Q 6.890625 46.875 6.828125 48.5 
Q 6.78125 50.140625 6.734375 51.3125 
Q 6.6875 52.484375 6.640625 52.828125 
L 14.9375 52.828125 
Q 14.984375 52.59375 15.03125 51.515625 
Q 15.09375 50.4375 15.15625 49.046875 
Q 15.234375 47.65625 15.28125 46.21875 
Q 15.328125 44.78125 15.328125 43.796875 
L 15.484375 43.796875 
Q 16.65625 46.09375 18.015625 47.953125 
Q 19.390625 49.8125 21.21875 51.09375 
Q 23.046875 52.390625 25.40625 53.09375 
Q 27.78125 53.8125 30.90625 53.8125 
Q 36.921875 53.8125 40.40625 51.421875 
Q 43.890625 49.03125 45.265625 43.796875 
L 45.40625 43.796875 
Q 46.578125 46.09375 48.046875 47.953125 
Q 49.515625 49.8125 51.46875 51.09375 
Q 53.421875 52.390625 55.859375 53.09375 
Q 58.296875 53.8125 61.421875 53.8125 
Q 65.4375 53.8125 68.328125 52.734375 
Q 71.234375 51.65625 73.09375 49.40625 
Q 74.953125 47.171875 75.828125 43.625 
Q 76.703125 40.09375 76.703125 35.203125 
L 76.703125 0 
L 68.015625 0 
L 68.015625 33.5 
Q 68.015625 37.359375 67.53125 39.9375 
Q 67.046875 42.53125 65.890625 44.109375 
Q 64.75 45.703125 62.890625 46.359375 
Q 61.03125 47.015625 58.34375 47.015625 
Q 55.5625 47.015625 53.3125 45.96875 
Q 51.078125 44.921875 49.484375 42.875 
Q 47.90625 40.828125 47.046875 37.75 
Q 46.1875 34.671875 46.1875 30.609375 
L 46.1875 0 
z
" id="LiberationSans-6d"/>
      <path d="M 40.28125 0 
L 40.28125 33.5 
Q 40.28125 37.359375 39.71875 39.9375 
Q 39.15625 42.53125 37.890625 44.109375 
Q 36.625 45.703125 34.546875 46.359375 
Q 32.46875 47.015625 29.390625 47.015625 
Q 26.265625 47.015625 23.75 45.921875 
Q 21.234375 44.828125 19.453125 42.75 
Q 17.671875 40.671875 16.6875 37.625 
Q 15.71875 34.578125 15.71875 30.609375 
L 15.71875 0 
L 6.9375 0 
L 6.9375 41.546875 
Q 6.9375 43.21875 6.90625 45.046875 
Q 6.890625 46.875 6.828125 48.5 
Q 6.78125 50.140625 6.734375 51.3125 
Q 6.6875 52.484375 6.640625 52.828125 
L 14.9375 52.828125 
Q 14.984375 52.59375 15.03125 51.515625 
Q 15.09375 50.4375 15.15625 49.046875 
Q 15.234375 47.65625 15.28125 46.21875 
Q 15.328125 44.78125 15.328125 43.796875 
L 15.484375 43.796875 
Q 16.75 46.09375 18.265625 47.953125 
Q 19.78125 49.8125 21.78125 51.09375 
Q 23.78125 52.390625 26.359375 53.09375 
Q 28.953125 53.8125 32.375 53.8125 
Q 36.765625 53.8125 39.9375 52.734375 
Q 43.109375 51.65625 45.15625 49.40625 
Q 47.21875 47.171875 48.171875 43.625 
Q 49.125 40.09375 49.125 35.203125 
L 49.125 0 
z
" id="LiberationSans-6e"/>
      <path id="LiberationSans-20"/>
     </defs>
     <g style="fill:#262626;" transform="translate(154.1000625 351.10575)scale(0.088 -0.088)">
      <use xlink:href="#LiberationSans-68"/>
      <use x="55.615234375" xlink:href="#LiberationSans-75"/>
      <use x="111.23046875" xlink:href="#LiberationSans-6d"/>
      <use x="194.53125" xlink:href="#LiberationSans-61"/>
      <use x="250.146484375" xlink:href="#LiberationSans-6e"/>
      <use x="305.76171875" xlink:href="#LiberationSans-20"/>
      <use x="333.544921875" xlink:href="#LiberationSans-61"/>
      <use x="389.16015625" xlink:href="#LiberationSans-63"/>
      <use x="439.16015625" xlink:href="#LiberationSans-63"/>
      <use x="489.16015625" xlink:href="#LiberationSans-75"/>
      <use x="544.775390625" xlink:href="#LiberationSans-72"/>
      <use x="578.076171875" xlink:href="#LiberationSans-61"/>
      <use x="633.69140625" xlink:href="#LiberationSans-63"/>
      <use x="683.69140625" xlink:href="#LiberationSans-79"/>
     </g>
    </g>
   </g>
   <g id="matplotlib.axis_2">
    <g id="ytick_1">
     <g id="line2d_7">
      <g>
       <use style="fill:#262626;stroke:#262626;stroke-width:0.8;" x="37.12325" xlink:href="#mff95d0377c" y="301.044833333"/>
      </g>
     </g>
     <g id="text_8">
      <!-- 0.0 -->
      <g style="fill:#262626;" transform="translate(20.40325 303.113583333)scale(0.08 -0.08)">
       <use xlink:href="#LiberationSans-30"/>
       <use x="55.615234375" xlink:href="#LiberationSans-2e"/>
       <use x="83.3984375" xlink:href="#LiberationSans-30"/>
      </g>
     </g>
    </g>
    <g id="ytick_2">
     <g id="line2d_8">
      <g>
       <use style="fill:#262626;stroke:#262626;stroke-width:0.8;" x="37.12325" xlink:href="#mff95d0377c" y="249.7925"/>
      </g>
     </g>
     <g id="text_9">
      <!-- 0.2 -->
      <g style="fill:#262626;" transform="translate(20.40325 251.86125)scale(0.08 -0.08)">
       <use xlink:href="#LiberationSans-30"/>
       <use x="55.615234375" xlink:href="#LiberationSans-2e"/>
       <use x="83.3984375" xlink:href="#LiberationSans-32"/>
      </g>
     </g>
    </g>
    <g id="ytick_3">
     <g id="line2d_9">
      <g>
       <use style="fill:#262626;stroke:#262626;stroke-width:0.8;" x="37.12325" xlink:href="#mff95d0377c" y="198.540166667"/>
      </g>
     </g>
     <g id="text_10">
      <!-- 0.4 -->
      <g style="fill:#262626;" transform="translate(20.40325 200.608916667)scale(0.08 -0.08)">
       <use xlink:href="#LiberationSans-30"/>
       <use x="55.615234375" xlink:href="#LiberationSans-2e"/>
       <use x="83.3984375" xlink:href="#LiberationSans-34"/>
      </g>
     </g>
    </g>
    <g id="ytick_4">
     <g id="line2d_10">
      <g>
       <use style="fill:#262626;stroke:#262626;stroke-width:0.8;" x="37.12325" xlink:href="#mff95d0377c" y="147.287833333"/>
      </g>
     </g>
     <g id="text_11">
      <!-- 0.6 -->
      <g style="fill:#262626;" transform="translate(20.40325 149.356583333)scale(0.08 -0.08)">
       <use xlink:href="#LiberationSans-30"/>
       <use x="55.615234375" xlink:href="#LiberationSans-2e"/>
       <use x="83.3984375" xlink:href="#LiberationSans-36"/>
      </g>
     </g>
    </g>
    <g id="ytick_5">
     <g id="line2d_11">
      <g>
       <use style="fill:#262626;stroke:#262626;stroke-width:0.8;" x="37.12325" xlink:href="#mff95d0377c" y="96.0355"/>
      </g>
     </g>
     <g id="text_12">
      <!-- 0.8 -->
      <g style="fill:#262626;" transform="translate(20.40325 98.10425)scale(0.08 -0.08)">
       <use xlink:href="#LiberationSans-30"/>
       <use x="55.615234375" xlink:href="#LiberationSans-2e"/>
       <use x="83.3984375" xlink:href="#LiberationSans-38"/>
      </g>
     </g>
    </g>
    <g id="ytick_6">
     <g id="line2d_12">
      <g>
       <use style="fill:#262626;stroke:#262626;stroke-width:0.8;" x="37.12325" xlink:href="#mff95d0377c" y="44.7831666667"/>
      </g>
     </g>
     <g id="text_13">
      <!-- 1.0 -->
      <g style="fill:#262626;" transform="translate(20.40325 46.8519166667)scale(0.08 -0.08)">
       <use xlink:href="#LiberationSans-31"/>
       <use x="55.615234375" xlink:href="#LiberationSans-2e"/>
       <use x="83.3984375" xlink:href="#LiberationSans-30"/>
      </g>
     </g>
    </g>
    <g id="text_14">
     <!-- model accuracy -->
     <defs>
      <path d="M 40.09375 8.5 
Q 37.640625 3.421875 33.609375 1.21875 
Q 29.59375 -0.984375 23.640625 -0.984375 
Q 13.625 -0.984375 8.90625 5.75 
Q 4.203125 12.5 4.203125 26.171875 
Q 4.203125 53.8125 23.640625 53.8125 
Q 29.640625 53.8125 33.640625 51.609375 
Q 37.640625 49.421875 40.09375 44.625 
L 40.1875 44.625 
Q 40.1875 45.125 40.15625 46.171875 
Q 40.140625 47.21875 40.109375 48.359375 
Q 40.09375 49.515625 40.09375 50.53125 
Q 40.09375 51.5625 40.09375 52 
L 40.09375 72.46875 
L 48.875 72.46875 
L 48.875 10.890625 
Q 48.875 8.984375 48.890625 7.21875 
Q 48.921875 5.46875 48.96875 4 
Q 49.03125 2.546875 49.078125 1.484375 
Q 49.125 0.4375 49.171875 0 
L 40.765625 0 
Q 40.671875 0.484375 40.59375 1.390625 
Q 40.53125 2.296875 40.453125 3.46875 
Q 40.375 4.640625 40.328125 5.9375 
Q 40.28125 7.234375 40.28125 8.5 
z
M 13.421875 26.46875 
Q 13.421875 21 14.109375 17.09375 
Q 14.796875 13.1875 16.3125 10.671875 
Q 17.828125 8.15625 20.171875 6.984375 
Q 22.515625 5.8125 25.875 5.8125 
Q 29.34375 5.8125 32 6.9375 
Q 34.671875 8.0625 36.453125 10.578125 
Q 38.234375 13.09375 39.15625 17.140625 
Q 40.09375 21.1875 40.09375 27.046875 
Q 40.09375 32.671875 39.15625 36.546875 
Q 38.234375 40.4375 36.421875 42.828125 
Q 34.625 45.21875 32 46.265625 
Q 29.390625 47.3125 25.984375 47.3125 
Q 22.75 47.3125 20.40625 46.1875 
Q 18.0625 45.0625 16.5 42.578125 
Q 14.9375 40.09375 14.171875 36.109375 
Q 13.421875 32.125 13.421875 26.46875 
" id="LiberationSans-64"/>
      <path d="M 13.484375 24.5625 
Q 13.484375 20.40625 14.328125 16.90625 
Q 15.1875 13.421875 16.96875 10.90625 
Q 18.75 8.40625 21.53125 7 
Q 24.3125 5.609375 28.21875 5.609375 
Q 33.9375 5.609375 37.375 7.90625 
Q 40.828125 10.203125 42.046875 13.71875 
L 49.75 11.53125 
Q 48.921875 9.328125 47.4375 7.109375 
Q 45.953125 4.890625 43.453125 3.09375 
Q 40.96875 1.3125 37.234375 0.15625 
Q 33.5 -0.984375 28.21875 -0.984375 
Q 16.5 -0.984375 10.375 6 
Q 4.25 12.984375 4.25 26.765625 
Q 4.25 34.1875 6.09375 39.328125 
Q 7.953125 44.484375 11.171875 47.703125 
Q 14.40625 50.921875 18.703125 52.359375 
Q 23 53.8125 27.875 53.8125 
Q 34.515625 53.8125 38.984375 51.65625 
Q 43.453125 49.515625 46.15625 45.71875 
Q 48.875 41.9375 50.015625 36.8125 
Q 51.171875 31.6875 51.171875 25.734375 
L 51.171875 24.5625 
z
M 42.09375 31.296875 
Q 41.359375 39.65625 37.84375 43.484375 
Q 34.328125 47.3125 27.734375 47.3125 
Q 25.53125 47.3125 23.109375 46.609375 
Q 20.703125 45.90625 18.65625 44.09375 
Q 16.609375 42.28125 15.1875 39.171875 
Q 13.765625 36.078125 13.578125 31.296875 
z
" id="LiberationSans-65"/>
      <path d="M 51.421875 26.46875 
Q 51.421875 12.59375 45.3125 5.796875 
Q 39.203125 -0.984375 27.59375 -0.984375 
Q 22.078125 -0.984375 17.71875 0.671875 
Q 13.375 2.34375 10.375 5.765625 
Q 7.375 9.1875 5.78125 14.328125 
Q 4.203125 19.484375 4.203125 26.46875 
Q 4.203125 53.8125 27.875 53.8125 
Q 34.03125 53.8125 38.5 52.09375 
Q 42.96875 50.390625 45.828125 46.96875 
Q 48.6875 43.5625 50.046875 38.421875 
Q 51.421875 33.296875 51.421875 26.46875 
M 42.1875 26.46875 
Q 42.1875 32.625 41.234375 36.625 
Q 40.28125 40.625 38.453125 43.015625 
Q 36.625 45.40625 33.984375 46.359375 
Q 31.34375 47.3125 28.03125 47.3125 
Q 24.65625 47.3125 21.9375 46.3125 
Q 19.234375 45.3125 17.328125 42.890625 
Q 15.4375 40.484375 14.421875 36.46875 
Q 13.421875 32.46875 13.421875 26.46875 
Q 13.421875 20.3125 14.5 16.28125 
Q 15.578125 12.25 17.453125 9.859375 
Q 19.34375 7.46875 21.90625 6.484375 
Q 24.46875 5.515625 27.484375 5.515625 
Q 30.859375 5.515625 33.59375 6.46875 
Q 36.328125 7.421875 38.234375 9.8125 
Q 40.140625 12.203125 41.15625 16.25 
Q 42.1875 20.3125 42.1875 26.46875 
" id="LiberationSans-6f"/>
      <path d="M 6.734375 0 
L 6.734375 72.46875 
L 15.53125 72.46875 
L 15.53125 0 
z
" id="LiberationSans-6c"/>
     </defs>
     <g style="fill:#262626;" transform="translate(13.57725 203.725)rotate(-90.0)scale(0.088 -0.088)">
      <use xlink:href="#LiberationSans-6d"/>
      <use x="83.30078125" xlink:href="#LiberationSans-6f"/>
      <use x="138.916015625" xlink:href="#LiberationSans-64"/>
      <use x="194.53125" xlink:href="#LiberationSans-65"/>
      <use x="250.146484375" xlink:href="#LiberationSans-6c"/>
      <use x="272.36328125" xlink:href="#LiberationSans-20"/>
      <use x="300.146484375" xlink:href="#LiberationSans-61"/>
      <use x="355.76171875" xlink:href="#LiberationSans-63"/>
      <use x="405.76171875" xlink:href="#LiberationSans-63"/>
      <use x="455.76171875" xlink:href="#LiberationSans-75"/>
      <use x="511.376953125" xlink:href="#LiberationSans-72"/>
      <use x="544.677734375" xlink:href="#LiberationSans-61"/>
      <use x="600.29296875" xlink:href="#LiberationSans-63"/>
      <use x="650.29296875" xlink:href="#LiberationSans-79"/>
     </g>
    </g>
   </g>
   <g id="PathCollection_1">
    <defs>
     <path d="M 0 2.236068 
C 0.593012 2.236068 1.161816 2.000462 1.581139 1.581139 
C 2.000462 1.161816 2.236068 0.593012 2.236068 0 
C 2.236068 -0.593012 2.000462 -1.161816 1.581139 -1.581139 
C 1.161816 -2.000462 0.593012 -2.236068 0 -2.236068 
C -0.593012 -2.236068 -1.161816 -2.000462 -1.581139 -1.581139 
C -2.000462 -1.161816 -2.236068 -0.593012 -2.236068 0 
C -2.236068 0.593012 -2.000462 1.161816 -1.581139 1.581139 
C -1.161816 2.000462 -0.593012 2.236068 0 2.236068 
z
" id="m6329e14af2"/>
    </defs>
    <g clip-path="url(#p4e17c90380)">
     <use style="fill:#fa8e63;fill-opacity:0.8;" x="60.478698108" xlink:href="#m6329e14af2" y="299.043069431"/>
     <use style="fill:#fa8e63;fill-opacity:0.8;" x="308.887584627" xlink:href="#m6329e14af2" y="57.0305916023"/>
     <use style="fill:#fa8e63;fill-opacity:0.8;" x="113.024618789" xlink:href="#m6329e14af2" y="308.577050183"/>
     <use style="fill:#fa8e63;fill-opacity:0.8;" x="286.867769784" xlink:href="#m6329e14af2" y="311.142951212"/>
     <use style="fill:#fa8e63;fill-opacity:0.8;" x="209.869494649" xlink:href="#m6329e14af2" y="311.665623677"/>
     <use style="fill:#fa8e63;fill-opacity:0.8;" x="286.182372074" xlink:href="#m6329e14af2" y="296.782666019"/>
     <use style="fill:#fa8e63;fill-opacity:0.8;" x="258.855974922" xlink:href="#m6329e14af2" y="303.033770526"/>
     <use style="fill:#fa8e63;fill-opacity:0.8;" x="285.129831596" xlink:href="#m6329e14af2" y="294.695367445"/>
     <use style="fill:#fa8e63;fill-opacity:0.8;" x="258.530163676" xlink:href="#m6329e14af2" y="50.2298723918"/>
     <use style="fill:#fa8e63;fill-opacity:0.8;" x="113.684797987" xlink:href="#m6329e14af2" y="299.635108312"/>
     <use style="fill:#fa8e63;fill-opacity:0.8;" x="260.591844369" xlink:href="#m6329e14af2" y="50.3413371764"/>
     <use style="fill:#fa8e63;fill-opacity:0.8;" x="209.981977571" xlink:href="#m6329e14af2" y="313.328306547"/>
     <use style="fill:#fa8e63;fill-opacity:0.8;" x="88.4492074235" xlink:href="#m6329e14af2" y="299.600447822"/>
     <use style="fill:#fa8e63;fill-opacity:0.8;" x="86.6772872554" xlink:href="#m6329e14af2" y="55.0024794347"/>
     <use style="fill:#fa8e63;fill-opacity:0.8;" x="185.271904346" xlink:href="#m6329e14af2" y="313.473964384"/>
     <use style="fill:#fa8e63;fill-opacity:0.8;" x="310.179934804" xlink:href="#m6329e14af2" y="40.8232017861"/>
     <use style="fill:#fa8e63;fill-opacity:0.8;" x="287.9742501" xlink:href="#m6329e14af2" y="310.655349278"/>
     <use style="fill:#fa8e63;fill-opacity:0.8;" x="308.85021755" xlink:href="#m6329e14af2" y="300.936669855"/>
     <use style="fill:#fa8e63;fill-opacity:0.8;" x="309.725244373" xlink:href="#m6329e14af2" y="290.940065752"/>
     <use style="fill:#fa8e63;fill-opacity:0.8;" x="234.754455569" xlink:href="#m6329e14af2" y="292.789438859"/>
     <use style="fill:#fa8e63;fill-opacity:0.8;" x="186.876876883" xlink:href="#m6329e14af2" y="289.482236905"/>
     <use style="fill:#fa8e63;fill-opacity:0.8;" x="286.110880194" xlink:href="#m6329e14af2" y="48.4724594933"/>
     <use style="fill:#fa8e63;fill-opacity:0.8;" x="310.355481643" xlink:href="#m6329e14af2" y="52.1202607548"/>
     <use style="fill:#fa8e63;fill-opacity:0.8;" x="237.89150696" xlink:href="#m6329e14af2" y="291.83396338"/>
     <use style="fill:#fa8e63;fill-opacity:0.8;" x="63.8249825124" xlink:href="#m6329e14af2" y="303.636881057"/>
     <use style="fill:#fa8e63;fill-opacity:0.8;" x="283.536266567" xlink:href="#m6329e14af2" y="300.466847229"/>
     <use style="fill:#fa8e63;fill-opacity:0.8;" x="163.857061067" xlink:href="#m6329e14af2" y="290.89952699"/>
     <use style="fill:#fa8e63;fill-opacity:0.8;" x="62.9206545261" xlink:href="#m6329e14af2" y="303.928142193"/>
     <use style="fill:#fa8e63;fill-opacity:0.8;" x="310.724869873" xlink:href="#m6329e14af2" y="288.90922887"/>
     <use style="fill:#fa8e63;fill-opacity:0.8;" x="86.3582439426" xlink:href="#m6329e14af2" y="309.532531271"/>
     <use style="fill:#fa8e63;fill-opacity:0.8;" x="311.223214557" xlink:href="#m6329e14af2" y="33.0108180867"/>
     <use style="fill:#fa8e63;fill-opacity:0.8;" x="285.765452706" xlink:href="#m6329e14af2" y="42.7594229766"/>
     <use style="fill:#fa8e63;fill-opacity:0.8;" x="63.5683167022" xlink:href="#m6329e14af2" y="289.771860975"/>
     <use style="fill:#fa8e63;fill-opacity:0.8;" x="209.835519517" xlink:href="#m6329e14af2" y="299.728323065"/>
     <use style="fill:#fa8e63;fill-opacity:0.8;" x="261.990393218" xlink:href="#m6329e14af2" y="36.055905755"/>
     <use style="fill:#fa8e63;fill-opacity:0.8;" x="285.657637776" xlink:href="#m6329e14af2" y="296.244110589"/>
     <use style="fill:#fa8e63;fill-opacity:0.8;" x="309.336324922" xlink:href="#m6329e14af2" y="313.549735836"/>
     <use style="fill:#fa8e63;fill-opacity:0.8;" x="312.021851047" xlink:href="#m6329e14af2" y="50.1714661408"/>
     <use style="fill:#fa8e63;fill-opacity:0.8;" x="260.522687966" xlink:href="#m6329e14af2" y="305.168893941"/>
     <use style="fill:#fa8e63;fill-opacity:0.8;" x="309.567695482" xlink:href="#m6329e14af2" y="298.843912187"/>
     <use style="fill:#fa8e63;fill-opacity:0.8;" x="209.965803429" xlink:href="#m6329e14af2" y="307.035720733"/>
     <use style="fill:#fa8e63;fill-opacity:0.8;" x="60.7634465786" xlink:href="#m6329e14af2" y="308.812739792"/>
     <use style="fill:#fa8e63;fill-opacity:0.8;" x="311.934882017" xlink:href="#m6329e14af2" y="289.096685334"/>
     <use style="fill:#fa8e63;fill-opacity:0.8;" x="163.031392917" xlink:href="#m6329e14af2" y="309.751660074"/>
     <use style="fill:#fa8e63;fill-opacity:0.8;" x="213.117435872" xlink:href="#m6329e14af2" y="308.006293869"/>
     <use style="fill:#fa8e63;fill-opacity:0.8;" x="262.131910677" xlink:href="#m6329e14af2" y="51.990799841"/>
     <use style="fill:#fa8e63;fill-opacity:0.8;" x="285.733345697" xlink:href="#m6329e14af2" y="32.7120680951"/>
     <use style="fill:#fa8e63;fill-opacity:0.8;" x="311.677296561" xlink:href="#m6329e14af2" y="34.9841149704"/>
     <use style="fill:#fa8e63;fill-opacity:0.8;" x="313.08589539" xlink:href="#m6329e14af2" y="308.730380553"/>
     <use style="fill:#fa8e63;fill-opacity:0.8;" x="285.49949265" xlink:href="#m6329e14af2" y="312.457699044"/>
     <use style="fill:#fa8e63;fill-opacity:0.8;" x="61.2709779998" xlink:href="#m6329e14af2" y="305.52756472"/>
     <use style="fill:#fa8e63;fill-opacity:0.8;" x="211.763651878" xlink:href="#m6329e14af2" y="291.059945456"/>
     <use style="fill:#fa8e63;fill-opacity:0.8;" x="86.3263300804" xlink:href="#m6329e14af2" y="300.960392913"/>
     <use style="fill:#fa8e63;fill-opacity:0.8;" x="60.9857165457" xlink:href="#m6329e14af2" y="311.188778616"/>
     <use style="fill:#fa8e63;fill-opacity:0.8;" x="262.9016229" xlink:href="#m6329e14af2" y="298.706117001"/>
     <use style="fill:#fa8e63;fill-opacity:0.8;" x="309.315975534" xlink:href="#m6329e14af2" y="297.953778221"/>
     <use style="fill:#fa8e63;fill-opacity:0.8;" x="309.759272745" xlink:href="#m6329e14af2" y="304.625933359"/>
     <use style="fill:#fa8e63;fill-opacity:0.8;" x="260.27210133" xlink:href="#m6329e14af2" y="33.9017495888"/>
     <use style="fill:#fa8e63;fill-opacity:0.8;" x="212.289137121" xlink:href="#m6329e14af2" y="311.627016892"/>
     <use style="fill:#fa8e63;fill-opacity:0.8;" x="236.488150888" xlink:href="#m6329e14af2" y="47.8803614069"/>
     <use style="fill:#fa8e63;fill-opacity:0.8;" x="61.3091084611" xlink:href="#m6329e14af2" y="312.239939889"/>
    </g>
   </g>
   <g id="PolyCollection_1">
    <defs>
     <path d="M 61.999417 -103.935163 
L 61.999417 -59.281261 
L 64.512161 -59.29527 
L 67.024905 -59.310289 
L 69.537649 -59.32639 
L 72.050393 -59.34365 
L 74.563137 -59.362154 
L 77.075881 -59.381991 
L 79.588625 -59.403257 
L 82.10137 -59.426053 
L 84.614114 -59.450551 
L 87.126858 -59.481564 
L 89.639602 -59.515239 
L 92.152346 -59.551784 
L 94.66509 -59.59144 
L 97.177834 -59.634472 
L 99.690578 -59.680168 
L 102.203322 -59.724958 
L 104.716066 -59.77312 
L 107.228811 -59.824909 
L 109.741555 -59.884388 
L 112.254299 -59.949541 
L 114.767043 -60.019998 
L 117.279787 -60.096188 
L 119.792531 -60.172857 
L 122.305275 -60.249535 
L 124.818019 -60.331603 
L 127.330763 -60.419434 
L 129.843508 -60.513428 
L 132.356252 -60.614014 
L 134.868996 -60.724987 
L 137.38174 -60.847661 
L 139.894484 -60.979454 
L 142.407228 -61.121035 
L 144.919972 -61.273117 
L 147.432716 -61.436465 
L 149.94546 -61.611898 
L 152.458205 -61.800715 
L 154.970949 -62.000731 
L 157.483693 -62.202973 
L 159.996437 -62.455874 
L 162.509181 -62.707345 
L 165.021925 -62.979975 
L 167.534669 -63.291091 
L 170.047413 -63.626626 
L 172.560157 -63.970479 
L 175.072902 -64.28613 
L 177.585646 -64.656852 
L 180.09839 -65.085575 
L 182.611134 -65.506113 
L 185.123878 -65.968393 
L 187.636622 -66.472132 
L 190.149366 -67.01158 
L 192.66211 -67.589092 
L 195.174854 -68.258777 
L 197.687598 -68.951907 
L 200.200343 -69.636764 
L 202.713087 -70.366992 
L 205.225831 -71.152829 
L 207.738575 -72.017208 
L 210.251319 -72.939999 
L 212.764063 -73.873847 
L 215.276807 -74.964138 
L 217.789551 -75.851753 
L 220.302295 -77.133951 
L 222.81504 -78.461458 
L 225.327784 -79.774614 
L 227.840528 -81.035689 
L 230.353272 -82.37293 
L 232.866016 -83.766362 
L 235.37876 -85.337961 
L 237.891504 -86.787914 
L 240.404248 -88.051311 
L 242.916992 -89.038009 
L 245.429737 -90.121683 
L 247.942481 -91.912502 
L 250.455225 -92.991031 
L 252.967969 -95.201106 
L 255.480713 -97.28284 
L 257.993457 -99.121408 
L 260.506201 -101.122112 
L 263.018945 -103.482629 
L 265.531689 -104.886224 
L 268.044434 -106.316039 
L 270.557178 -107.810894 
L 273.069922 -109.554135 
L 275.582666 -110.347242 
L 278.09541 -111.669471 
L 280.608154 -113.311276 
L 283.120898 -113.934902 
L 285.633642 -116.253602 
L 288.146386 -116.856119 
L 290.65913 -117.486593 
L 293.171875 -118.449192 
L 295.684619 -119.2812 
L 298.197363 -120.607696 
L 300.710107 -121.123451 
L 303.222851 -122.372455 
L 305.735595 -123.028805 
L 308.248339 -123.700536 
L 310.761083 -124.814083 
L 310.761083 -228.830281 
L 310.761083 -228.830281 
L 308.248339 -224.913176 
L 305.735595 -221.926845 
L 303.222851 -219.030618 
L 300.710107 -215.251877 
L 298.197363 -211.619934 
L 295.684619 -206.742929 
L 293.171875 -203.647197 
L 290.65913 -201.074952 
L 288.146386 -199.501321 
L 285.633642 -195.481863 
L 283.120898 -192.688034 
L 280.608154 -189.617523 
L 278.09541 -186.600623 
L 275.582666 -184.099218 
L 273.069922 -180.700393 
L 270.557178 -178.346071 
L 268.044434 -175.810843 
L 265.531689 -173.17329 
L 263.018945 -170.971676 
L 260.506201 -169.089011 
L 257.993457 -167.400851 
L 255.480713 -165.119367 
L 252.967969 -163.584842 
L 250.455225 -160.720325 
L 247.942481 -158.710856 
L 245.429737 -157.133165 
L 242.916992 -155.563138 
L 240.404248 -153.670419 
L 237.891504 -152.459252 
L 235.37876 -150.788233 
L 232.866016 -149.383441 
L 230.353272 -148.125313 
L 227.840528 -147.687485 
L 225.327784 -146.206272 
L 222.81504 -145.00641 
L 220.302295 -144.112426 
L 217.789551 -143.205865 
L 215.276807 -142.321647 
L 212.764063 -141.427232 
L 210.251319 -140.218369 
L 207.738575 -139.258111 
L 205.225831 -138.238384 
L 202.713087 -136.671932 
L 200.200343 -135.379305 
L 197.687598 -134.116649 
L 195.174854 -133.170085 
L 192.66211 -132.154268 
L 190.149366 -130.873219 
L 187.636622 -129.872655 
L 185.123878 -128.982131 
L 182.611134 -128.123962 
L 180.09839 -127.452359 
L 177.585646 -126.648823 
L 175.072902 -125.993009 
L 172.560157 -125.184303 
L 170.047413 -124.336426 
L 167.534669 -124.001015 
L 165.021925 -123.43078 
L 162.509181 -123.188816 
L 159.996437 -122.877599 
L 157.483693 -122.317774 
L 154.970949 -122.217628 
L 152.458205 -121.774185 
L 149.94546 -121.102025 
L 147.432716 -120.370199 
L 144.919972 -119.636244 
L 142.407228 -119.184619 
L 139.894484 -118.65783 
L 137.38174 -117.982547 
L 134.868996 -117.381333 
L 132.356252 -116.858905 
L 129.843508 -116.339847 
L 127.330763 -115.817407 
L 124.818019 -115.292372 
L 122.305275 -114.770845 
L 119.792531 -114.252827 
L 117.279787 -113.738321 
L 114.767043 -113.227327 
L 112.254299 -112.719846 
L 109.741555 -112.215876 
L 107.228811 -111.715417 
L 104.716066 -111.218468 
L 102.203322 -110.699663 
L 99.690578 -110.089087 
L 97.177834 -109.504127 
L 94.66509 -109.065865 
L 92.152346 -108.628417 
L 89.639602 -108.137128 
L 87.126858 -107.766988 
L 84.614114 -107.341718 
L 82.10137 -106.929175 
L 79.588625 -106.469547 
L 77.075881 -106.01468 
L 74.563137 -105.563208 
L 72.050393 -105.235782 
L 69.537649 -104.851332 
L 67.024905 -104.476238 
L 64.512161 -104.205439 
L 61.999417 -103.935163 
z
" id="m09a2a5fa29" style="stroke:#000000;stroke-opacity:0.15;stroke-width:0.24;"/>
    </defs>
    <g clip-path="url(#p4e17c90380)">
     <use style="fill:#fa8e63;fill-opacity:0.15;stroke:#000000;stroke-opacity:0.15;stroke-width:0.24;" x="0.0" xlink:href="#m09a2a5fa29" y="360.13175"/>
    </g>
   </g>
   <g id="PathCollection_2">
    <path clip-path="url(#p4e17c90380)" d="M 61.999417 305.516969 
C 63.185441 305.516969 64.323048 305.045757 65.161694 304.207111 
C 66.00034 303.368465 66.471553 302.230858 66.471553 301.044833 
C 66.471553 299.858809 66.00034 298.721202 65.161694 297.882556 
C 64.323048 297.04391 63.185441 296.572697 61.999417 296.572697 
C 60.813392 296.572697 59.675785 297.04391 58.837139 297.882556 
C 57.998493 298.721202 57.527281 299.858809 57.527281 301.044833 
C 57.527281 302.230858 57.998493 303.368465 58.837139 304.207111 
C 59.675785 305.045757 60.813392 305.516969 61.999417 305.516969 
z
" style="fill:#262626;fill-opacity:0.8;"/>
    <path clip-path="url(#p4e17c90380)" d="M 86.875583 240.141694 
C 87.714229 240.141694 88.518639 239.808497 89.111651 239.215485 
C 89.704663 238.622472 90.037861 237.818063 90.037861 236.979417 
C 90.037861 236.140771 89.704663 235.336361 89.111651 234.743349 
C 88.518639 234.150337 87.714229 233.817139 86.875583 233.817139 
C 86.036937 233.817139 85.232528 234.150337 84.639515 234.743349 
C 84.046503 235.336361 83.713306 236.140771 83.713306 236.979417 
C 83.713306 237.818063 84.046503 238.622472 84.639515 239.215485 
C 85.232528 239.808497 86.036937 240.141694 86.875583 240.141694 
z
" style="fill:#262626;fill-opacity:0.8;"/>
    <path clip-path="url(#p4e17c90380)" d="M 111.75175 303.280901 
C 112.344762 303.280901 112.913566 303.045295 113.332889 302.625972 
C 113.752212 302.206649 113.987818 301.637845 113.987818 301.044833 
C 113.987818 300.451821 113.752212 299.883017 113.332889 299.463695 
C 112.913566 299.044372 112.344762 298.808765 111.75175 298.808765 
C 111.158738 298.808765 110.589934 299.044372 110.170611 299.463695 
C 109.751288 299.883017 109.515682 300.451821 109.515682 301.044833 
C 109.515682 301.637845 109.751288 302.206649 110.170611 302.625972 
C 110.589934 303.045295 111.158738 303.280901 111.75175 303.280901 
z
" style="fill:#262626;fill-opacity:0.8;"/>
    <path clip-path="url(#p4e17c90380)" d="M 161.504083 303.280901 
C 162.097095 303.280901 162.665899 303.045295 163.085222 302.625972 
C 163.504545 302.206649 163.740151 301.637845 163.740151 301.044833 
C 163.740151 300.451821 163.504545 299.883017 163.085222 299.463695 
C 162.665899 299.044372 162.097095 298.808765 161.504083 298.808765 
C 160.911071 298.808765 160.342267 299.044372 159.922945 299.463695 
C 159.503622 299.883017 159.268015 300.451821 159.268015 301.044833 
C 159.268015 301.637845 159.503622 302.206649 159.922945 302.625972 
C 160.342267 303.045295 160.911071 303.280901 161.504083 303.280901 
z
" style="fill:#262626;fill-opacity:0.8;"/>
    <path clip-path="url(#p4e17c90380)" d="M 186.38025 303.280901 
C 186.973262 303.280901 187.542066 303.045295 187.961389 302.625972 
C 188.380712 302.206649 188.616318 301.637845 188.616318 301.044833 
C 188.616318 300.451821 188.380712 299.883017 187.961389 299.463695 
C 187.542066 299.044372 186.973262 298.808765 186.38025 298.808765 
C 185.787238 298.808765 185.218434 299.044372 184.799111 299.463695 
C 184.379788 299.883017 184.144182 300.451821 184.144182 301.044833 
C 184.144182 301.637845 184.379788 302.206649 184.799111 302.625972 
C 185.218434 303.045295 185.787238 303.280901 186.38025 303.280901 
z
" style="fill:#262626;fill-opacity:0.8;"/>
    <path clip-path="url(#p4e17c90380)" d="M 211.256417 305.228133 
C 212.365841 305.228133 213.429975 304.787355 214.214457 304.002873 
C 214.998938 303.218392 215.439717 302.154257 215.439717 301.044833 
C 215.439717 299.935409 214.998938 298.871275 214.214457 298.086793 
C 213.429975 297.302312 212.365841 296.861533 211.256417 296.861533 
C 210.146993 296.861533 209.082858 297.302312 208.298377 298.086793 
C 207.513895 298.871275 207.073117 299.935409 207.073117 301.044833 
C 207.073117 302.154257 207.513895 303.218392 208.298377 304.002873 
C 209.082858 304.787355 210.146993 305.228133 211.256417 305.228133 
z
" style="fill:#262626;fill-opacity:0.8;"/>
    <path clip-path="url(#p4e17c90380)" d="M 236.132583 218.362891 
C 236.858872 218.362891 237.555511 218.074333 238.069075 217.560769 
C 238.582639 217.047206 238.871196 216.350566 238.871196 215.624278 
C 238.871196 214.897989 238.582639 214.20135 238.069075 213.687786 
C 237.555511 213.174223 236.858872 212.885665 236.132583 212.885665 
C 235.406295 212.885665 234.709655 213.174223 234.196092 213.687786 
C 233.682528 214.20135 233.393971 214.897989 233.393971 215.624278 
C 233.393971 216.350566 233.682528 217.047206 234.196092 217.560769 
C 234.709655 218.074333 235.406295 218.362891 236.132583 218.362891 
z
" style="fill:#262626;fill-opacity:0.8;"/>
    <path clip-path="url(#p4e17c90380)" d="M 261.00875 145.353428 
C 262.194774 145.353428 263.332382 144.882215 264.171028 144.043569 
C 265.009673 143.204923 265.480886 142.067316 265.480886 140.881292 
C 265.480886 139.695267 265.009673 138.55766 264.171028 137.719014 
C 263.332382 136.880368 262.194774 136.409156 261.00875 136.409156 
C 259.822726 136.409156 258.685118 136.880368 257.846472 137.719014 
C 257.007827 138.55766 256.536614 139.695267 256.536614 140.881292 
C 256.536614 142.067316 257.007827 143.204923 257.846472 144.043569 
C 258.685118 144.882215 259.822726 145.353428 261.00875 145.353428 
z
" style="fill:#262626;fill-opacity:0.8;"/>
    <path clip-path="url(#p4e17c90380)" d="M 285.884917 229.166333 
C 287.210932 229.166333 288.482816 228.639502 289.420451 227.701867 
C 290.358085 226.764233 290.884917 225.492349 290.884917 224.166333 
C 290.884917 222.840318 290.358085 221.568434 289.420451 220.630799 
C 288.482816 219.693165 287.210932 219.166333 285.884917 219.166333 
C 284.558901 219.166333 283.287017 219.693165 282.349383 220.630799 
C 281.411748 221.568434 280.884917 222.840318 280.884917 224.166333 
C 280.884917 225.492349 281.411748 226.764233 282.349383 227.701867 
C 283.287017 228.639502 284.558901 229.166333 285.884917 229.166333 
z
" style="fill:#262626;fill-opacity:0.8;"/>
    <path clip-path="url(#p4e17c90380)" d="M 310.761083 204.663891 
C 312.385114 204.663891 313.942847 204.018657 315.09121 202.870294 
C 316.239573 201.721931 316.884808 200.164197 316.884808 198.540167 
C 316.884808 196.916136 316.239573 195.358403 315.09121 194.21004 
C 313.942847 193.061677 312.385114 192.416442 310.761083 192.416442 
C 309.137053 192.416442 307.579319 193.061677 306.430956 194.21004 
C 305.282593 195.358403 304.637359 196.916136 304.637359 198.540167 
C 304.637359 200.164197 305.282593 201.721931 306.430956 202.870294 
C 307.579319 204.018657 309.137053 204.663891 310.761083 204.663891 
z
" style="fill:#262626;fill-opacity:0.8;"/>
   </g>
   <g id="line2d_13">
    <path clip-path="url(#p4e17c90380)" d="M 61.999417 291.255471 
L 64.512161 290.967021 
L 67.024905 290.670429 
L 69.537649 290.365487 
L 72.050393 290.051982 
L 74.563137 289.729698 
L 77.075881 289.398415 
L 79.588625 289.057906 
L 82.10137 288.707944 
L 84.614114 288.348296 
L 87.126858 287.978725 
L 89.639602 287.59899 
L 92.152346 287.208847 
L 94.66509 286.808048 
L 97.177834 286.39634 
L 99.690578 285.973467 
L 102.203322 285.53917 
L 104.716066 285.093186 
L 107.228811 284.635249 
L 109.741555 284.165089 
L 112.254299 283.682433 
L 114.767043 283.187005 
L 117.279787 282.678528 
L 119.792531 282.156719 
L 122.305275 281.621296 
L 124.818019 281.071972 
L 127.330763 280.50846 
L 129.843508 279.930469 
L 132.356252 279.337709 
L 134.868996 278.729888 
L 137.38174 278.106711 
L 139.894484 277.467884 
L 142.407228 276.813115 
L 144.919972 276.142107 
L 147.432716 275.454567 
L 149.94546 274.750203 
L 152.458205 274.028722 
L 154.970949 273.289834 
L 157.483693 272.53325 
L 159.996437 271.758686 
L 162.509181 270.965859 
L 165.021925 270.15449 
L 167.534669 269.324303 
L 170.047413 268.475029 
L 172.560157 267.606404 
L 175.072902 266.718167 
L 177.585646 265.810067 
L 180.09839 264.881858 
L 182.611134 263.933302 
L 185.123878 262.96417 
L 187.636622 261.974243 
L 190.149366 260.963309 
L 192.66211 259.931169 
L 195.174854 258.877635 
L 197.687598 257.80253 
L 200.200343 256.705691 
L 202.713087 255.586967 
L 205.225831 254.446224 
L 207.738575 253.28334 
L 210.251319 252.098211 
L 212.764063 250.890748 
L 215.276807 249.660882 
L 217.789551 248.408558 
L 220.302295 247.133745 
L 222.81504 245.836428 
L 225.327784 244.516613 
L 227.840528 243.174328 
L 230.353272 241.809623 
L 232.866016 240.42257 
L 235.37876 239.013262 
L 237.891504 237.58182 
L 240.404248 236.128386 
L 242.916992 234.653128 
L 245.429737 233.156239 
L 247.942481 231.637938 
L 250.455225 230.098469 
L 252.967969 228.538104 
L 255.480713 226.957141 
L 257.993457 225.355906 
L 260.506201 223.734749 
L 263.018945 222.094052 
L 265.531689 220.43422 
L 268.044434 218.755687 
L 270.557178 217.058914 
L 273.069922 215.344389 
L 275.582666 213.612627 
L 278.09541 211.864167 
L 280.608154 210.099578 
L 283.120898 208.31945 
L 285.633642 206.524401 
L 288.146386 204.715071 
L 290.65913 202.892124 
L 293.171875 201.056248 
L 295.684619 199.20815 
L 298.197363 197.348559 
L 300.710107 195.478226 
L 303.222851 193.597915 
L 305.735595 191.708413 
L 308.248339 189.81052 
L 310.761083 187.905051 
" style="fill:none;stroke:#fa8e63;stroke-linecap:round;stroke-width:2.1;"/>
   </g>
   <g id="patch_3">
    <path d="M 37.12325 326.671 
L 335.63725 326.671 
" style="fill:none;stroke:#262626;stroke-linecap:square;stroke-linejoin:miter;stroke-width:1.25;"/>
   </g>
   <g id="patch_4">
    <path d="M 37.12325 326.671 
L 37.12325 19.157 
" style="fill:none;stroke:#262626;stroke-linecap:square;stroke-linejoin:miter;stroke-width:1.25;"/>
   </g>
   <g id="text_15">
    <!-- VGG-19 -->
    <defs>
     <path d="M 5.03125 34.71875 
Q 5.03125 42.78125 7.203125 49.265625 
Q 9.375 55.765625 13.6875 60.328125 
Q 18.015625 64.890625 24.40625 67.359375 
Q 30.8125 69.828125 39.265625 69.828125 
Q 45.609375 69.828125 50.390625 68.703125 
Q 55.171875 67.578125 58.6875 65.46875 
Q 62.203125 63.375 64.640625 60.375 
Q 67.09375 57.375 68.796875 53.609375 
L 59.90625 50.984375 
Q 58.640625 53.515625 56.859375 55.59375 
Q 55.078125 57.671875 52.53125 59.125 
Q 50 60.59375 46.65625 61.390625 
Q 43.3125 62.203125 39.015625 62.203125 
Q 32.765625 62.203125 28.140625 60.25 
Q 23.53125 58.296875 20.5 54.6875 
Q 17.484375 51.078125 15.984375 46 
Q 14.5 40.921875 14.5 34.71875 
Q 14.5 28.515625 16.109375 23.359375 
Q 17.71875 18.21875 20.890625 14.484375 
Q 24.078125 10.75 28.78125 8.671875 
Q 33.5 6.59375 39.703125 6.59375 
Q 43.75 6.59375 47.171875 7.265625 
Q 50.59375 7.953125 53.34375 9.046875 
Q 56.109375 10.15625 58.203125 11.5 
Q 60.296875 12.84375 61.71875 14.203125 
L 61.71875 26.609375 
L 41.15625 26.609375 
L 41.15625 34.421875 
L 70.3125 34.421875 
L 70.3125 10.6875 
Q 68.015625 8.34375 64.90625 6.21875 
Q 61.8125 4.109375 57.953125 2.484375 
Q 54.109375 0.875 49.515625 -0.046875 
Q 44.921875 -0.984375 39.703125 -0.984375 
Q 31 -0.984375 24.5 1.671875 
Q 18.015625 4.34375 13.6875 9.109375 
Q 9.375 13.875 7.203125 20.40625 
Q 5.03125 26.953125 5.03125 34.71875 
" id="LiberationSans-47"/>
     <path d="M 38.1875 0 
L 28.515625 0 
L 0.4375 68.796875 
L 10.25 68.796875 
L 29.296875 20.359375 
Q 30.03125 18.171875 30.765625 15.984375 
Q 31.5 13.8125 32.078125 12.109375 
Q 32.765625 10.109375 33.40625 8.203125 
Q 33.984375 10.015625 34.671875 12.015625 
Q 35.25 13.71875 35.953125 15.859375 
Q 36.671875 18.015625 37.5 20.359375 
L 56.453125 68.796875 
L 66.265625 68.796875 
z
" id="LiberationSans-56"/>
     <path d="M 4.4375 22.65625 
L 4.4375 30.46875 
L 28.859375 30.46875 
L 28.859375 22.65625 
z
" id="LiberationSans-2d"/>
     <path d="M 50.875 35.796875 
Q 50.875 26.609375 49.140625 19.703125 
Q 47.40625 12.796875 44.1875 8.203125 
Q 40.96875 3.609375 36.34375 1.3125 
Q 31.734375 -0.984375 25.984375 -0.984375 
Q 22.015625 -0.984375 18.84375 -0.171875 
Q 15.671875 0.640625 13.171875 2.34375 
Q 10.6875 4.046875 8.921875 6.78125 
Q 7.171875 9.515625 6.109375 13.375 
L 14.5 14.703125 
Q 15.875 10.25 18.78125 8.171875 
Q 21.6875 6.109375 26.125 6.109375 
Q 29.6875 6.109375 32.640625 7.78125 
Q 35.59375 9.46875 37.671875 12.84375 
Q 39.75 16.21875 40.921875 21.296875 
Q 42.09375 26.375 42.1875 33.203125 
Q 41.15625 30.90625 39.375 29.09375 
Q 37.59375 27.296875 35.328125 26.046875 
Q 33.0625 24.8125 30.421875 24.140625 
Q 27.78125 23.484375 25.09375 23.484375 
Q 20.40625 23.484375 16.625 25.171875 
Q 12.84375 26.859375 10.203125 29.875 
Q 7.5625 32.90625 6.125 37.171875 
Q 4.6875 41.453125 4.6875 46.6875 
Q 4.6875 52 6.21875 56.296875 
Q 7.765625 60.59375 10.6875 63.59375 
Q 13.625 66.609375 17.890625 68.21875 
Q 22.171875 69.828125 27.59375 69.828125 
Q 39.0625 69.828125 44.96875 61.328125 
Q 50.875 52.828125 50.875 35.796875 
M 41.3125 44.28125 
Q 41.3125 48.09375 40.40625 51.453125 
Q 39.5 54.828125 37.71875 57.3125 
Q 35.9375 59.8125 33.328125 61.25 
Q 30.71875 62.703125 27.296875 62.703125 
Q 24.125 62.703125 21.578125 61.578125 
Q 19.046875 60.453125 17.28125 58.375 
Q 15.53125 56.296875 14.578125 53.3125 
Q 13.625 50.34375 13.625 46.6875 
Q 13.625 43.21875 14.46875 40.234375 
Q 15.328125 37.25 17.03125 35.078125 
Q 18.75 32.90625 21.28125 31.65625 
Q 23.828125 30.421875 27.203125 30.421875 
Q 29.640625 30.421875 32.15625 31.25 
Q 34.671875 32.078125 36.6875 33.78125 
Q 38.71875 35.5 40.015625 38.109375 
Q 41.3125 40.71875 41.3125 44.28125 
" id="LiberationSans-39"/>
    </defs>
    <g style="fill:#262626;" transform="translate(168.77475 14.157)scale(0.096 -0.096)">
     <use xlink:href="#LiberationSans-56"/>
     <use x="66.69921875" xlink:href="#LiberationSans-47"/>
     <use x="144.482421875" xlink:href="#LiberationSans-47"/>
     <use x="222.265625" xlink:href="#LiberationSans-2d"/>
     <use x="255.56640625" xlink:href="#LiberationSans-31"/>
     <use x="311.181640625" xlink:href="#LiberationSans-39"/>
    </g>
   </g>
  </g>
 </g>
 <defs>
  <clipPath id="p4e17c90380">
   <rect height="307.514" width="298.514" x="37.12325" y="19.157"/>
  </clipPath>
 </defs>
</svg>
