<?xml version="1.0" encoding="utf-8" standalone="no"?>
<!DOCTYPE svg PUBLIC "-//W3C//DTD SVG 1.1//EN"
  "http://www.w3.org/Graphics/SVG/1.1/DTD/svg11.dtd">
<!-- Created with matplotlib (http://matplotlib.org/) -->
<svg height="360pt" version="1.1" viewBox="0 0 360 360" width="360pt" xmlns="http://www.w3.org/2000/svg" xmlns:xlink="http://www.w3.org/1999/xlink">
 <defs>
  <style type="text/css">
*{stroke-linecap:butt;stroke-linejoin:round;}
  </style>
 </defs>
 <g id="figure_1">
  <g id="patch_1">
   <path d="
M0 360
L360 360
L360 0
L0 0
z
" style="fill:#ffffff;"/>
  </g>
  <g id="axes_1">
   <g id="patch_2">
    <path d="
M47.5084 319.34
L341.985 319.34
L341.985 17.01
L47.5084 17.01
z
" style="fill:#ffffff;"/>
   </g>
   <g id="matplotlib.axis_1">
    <g id="xtick_1">
     <g id="line2d_1">
      <defs>
       <path d="
M0 0
L0 0" id="m9ceacb34a3" style="stroke:#262626;stroke-width:0.8;"/>
      </defs>
      <g>
       <use style="fill:#262626;stroke:#262626;stroke-width:0.8;" x="72.0481119792" xlink:href="#m9ceacb34a3" y="319.34"/>
      </g>
     </g>
     <g id="text_1">
      <!-- 0.0 -->
      <defs>
       <path d="
M9.125 0
L9.125 10.6875
L18.6562 10.6875
L18.6562 0
z
" id="LiberationSans-2e"/>
       <path d="
M51.7031 34.4219
Q51.7031 24.5156 49.8281 17.75
Q47.9531 10.9844 44.7031 6.8125
Q41.4531 2.64062 37.0625 0.828125
Q32.6719 -0.984375 27.6875 -0.984375
Q22.6562 -0.984375 18.3125 0.828125
Q13.9688 2.64062 10.7656 6.78125
Q7.5625 10.9375 5.73438 17.7031
Q3.90625 24.4688 3.90625 34.4219
Q3.90625 44.8281 5.73438 51.6406
Q7.5625 58.4531 10.7812 62.5
Q14.0156 66.5469 18.4062 68.1875
Q22.7969 69.8281 27.9844 69.8281
Q32.9062 69.8281 37.2188 68.1875
Q41.5469 66.5469 44.7656 62.5
Q48 58.4531 49.8438 51.6406
Q51.7031 44.8281 51.7031 34.4219
M42.7812 34.4219
Q42.7812 42.625 41.7969 48.0625
Q40.8281 53.5156 38.9219 56.7656
Q37.0156 60.0156 34.25 61.3594
Q31.5 62.7031 27.9844 62.7031
Q24.2656 62.7031 21.4375 61.3281
Q18.6094 59.9688 16.6719 56.7188
Q14.75 53.4688 13.7656 48.0156
Q12.7969 42.5781 12.7969 34.4219
Q12.7969 26.5156 13.7969 21.0938
Q14.7969 15.6719 16.7188 12.375
Q18.6562 9.07812 21.4375 7.64062
Q24.2188 6.20312 27.7812 6.20312
Q31.25 6.20312 34.0312 7.64062
Q36.8125 9.07812 38.7344 12.375
Q40.6719 15.6719 41.7188 21.0938
Q42.7812 26.5156 42.7812 34.4219" id="LiberationSans-30"/>
      </defs>
      <g style="fill:#262626;" transform="translate(66.8006119792 330.7375)scale(0.08 -0.08)">
       <use xlink:href="#LiberationSans-30"/>
       <use x="55.615234375" xlink:href="#LiberationSans-2e"/>
       <use x="83.3984375" xlink:href="#LiberationSans-30"/>
      </g>
     </g>
    </g>
    <g id="xtick_2">
     <g id="line2d_2">
      <g>
       <use style="fill:#262626;stroke:#262626;stroke-width:0.8;" x="121.127460937" xlink:href="#m9ceacb34a3" y="319.34"/>
      </g>
     </g>
     <g id="text_2">
      <!-- 0.2 -->
      <defs>
       <path d="
M5.03125 0
L5.03125 6.20312
Q7.51562 11.9219 11.1094 16.2812
Q14.7031 20.6562 18.6562 24.1875
Q22.6094 27.7344 26.4844 30.7656
Q30.375 33.7969 33.5 36.8125
Q36.625 39.8438 38.5469 43.1562
Q40.4844 46.4844 40.4844 50.6875
Q40.4844 53.6094 39.5938 55.8281
Q38.7188 58.0625 37.0625 59.5625
Q35.4062 61.0781 33.0781 61.8281
Q30.7656 62.5938 27.9375 62.5938
Q25.2969 62.5938 22.9688 61.8594
Q20.6562 61.1406 18.8438 59.6719
Q17.0469 58.2031 15.8906 56.0312
Q14.75 53.8594 14.4062 50.9844
L5.42188 51.8125
Q5.85938 55.5156 7.46875 58.7812
Q9.07812 62.0625 11.9062 64.5312
Q14.75 67 18.7188 68.4062
Q22.7031 69.8281 27.9375 69.8281
Q33.0625 69.8281 37.0625 68.6094
Q41.0625 67.3906 43.8125 64.9844
Q46.5781 62.5938 48.0469 59.0781
Q49.5156 55.5625 49.5156 50.9844
Q49.5156 47.5156 48.2656 44.3906
Q47.0156 41.2656 44.9375 38.4219
Q42.875 35.5938 40.1406 32.9531
Q37.4062 30.3281 34.4219 27.8125
Q31.4531 25.2969 28.4219 22.8281
Q25.3906 20.3594 22.7188 17.8594
Q20.0625 15.375 17.9688 12.8125
Q15.875 10.25 14.7031 7.46875
L50.5938 7.46875
L50.5938 0
z
" id="LiberationSans-32"/>
      </defs>
      <g style="fill:#262626;" transform="translate(115.924335937 330.7375)scale(0.08 -0.08)">
       <use xlink:href="#LiberationSans-30"/>
       <use x="55.615234375" xlink:href="#LiberationSans-2e"/>
       <use x="83.3984375" xlink:href="#LiberationSans-32"/>
      </g>
     </g>
    </g>
    <g id="xtick_3">
     <g id="line2d_3">
      <g>
       <use style="fill:#262626;stroke:#262626;stroke-width:0.8;" x="170.206809896" xlink:href="#m9ceacb34a3" y="319.34"/>
      </g>
     </g>
     <g id="text_3">
      <!-- 0.4 -->
      <defs>
       <path d="
M43.0156 15.5781
L43.0156 0
L34.7188 0
L34.7188 15.5781
L2.29688 15.5781
L2.29688 22.4062
L33.7969 68.7969
L43.0156 68.7969
L43.0156 22.5156
L52.6875 22.5156
L52.6875 15.5781
z

M34.7188 58.8906
Q34.625 58.6406 34.2344 57.9375
Q33.8438 57.2344 33.3438 56.3438
Q32.8594 55.4688 32.3438 54.5625
Q31.8438 53.6562 31.4531 53.0781
L13.8125 27.0938
Q13.5781 26.7031 13.1094 26.0625
Q12.6406 25.4375 12.1562 24.7812
Q11.6719 24.125 11.1719 23.4844
Q10.6875 22.8594 10.4062 22.5156
L34.7188 22.5156
z
" id="LiberationSans-34"/>
      </defs>
      <g style="fill:#262626;" transform="translate(164.919934896 330.7375)scale(0.08 -0.08)">
       <use xlink:href="#LiberationSans-30"/>
       <use x="55.615234375" xlink:href="#LiberationSans-2e"/>
       <use x="83.3984375" xlink:href="#LiberationSans-34"/>
      </g>
     </g>
    </g>
    <g id="xtick_4">
     <g id="line2d_4">
      <g>
       <use style="fill:#262626;stroke:#262626;stroke-width:0.8;" x="219.286158854" xlink:href="#m9ceacb34a3" y="319.34"/>
      </g>
     </g>
     <g id="text_4">
      <!-- 0.6 -->
      <defs>
       <path d="
M51.2188 22.5156
Q51.2188 17.3281 49.7812 13
Q48.3438 8.6875 45.5312 5.57812
Q42.7188 2.48438 38.5625 0.75
Q34.4219 -0.984375 29 -0.984375
Q23 -0.984375 18.5 1.3125
Q14.0156 3.60938 11.0312 7.92188
Q8.0625 12.25 6.5625 18.5312
Q5.07812 24.8125 5.07812 32.8125
Q5.07812 42 6.76562 48.9219
Q8.45312 55.8594 11.625 60.5
Q14.7969 65.1406 19.3594 67.4844
Q23.9219 69.8281 29.6875 69.8281
Q33.2031 69.8281 36.2812 69.0938
Q39.3594 68.3594 41.875 66.7188
Q44.3906 65.0938 46.2812 62.4062
Q48.1875 59.7188 49.3125 55.8125
L40.9219 54.2969
Q39.5469 58.7344 36.5469 60.7188
Q33.5469 62.7031 29.5938 62.7031
Q25.9844 62.7031 23.0469 60.9844
Q20.125 59.2812 18.0625 55.875
Q16.0156 52.4844 14.9062 47.3594
Q13.8125 42.2344 13.8125 35.4062
Q16.2188 39.8438 20.5625 42.1562
Q24.9062 44.4844 30.5156 44.4844
Q35.2031 44.4844 39.0156 42.9688
Q42.8281 41.4531 45.5312 38.5938
Q48.25 35.75 49.7344 31.6719
Q51.2188 27.5938 51.2188 22.5156
M42.2812 22.125
Q42.2812 25.6875 41.4062 28.5625
Q40.5312 31.4531 38.7656 33.4688
Q37.0156 35.5 34.4219 36.5938
Q31.8438 37.7031 28.4219 37.7031
Q26.0312 37.7031 23.5781 36.9844
Q21.1406 36.2812 19.1562 34.6875
Q17.1875 33.1094 15.9375 30.5156
Q14.7031 27.9375 14.7031 24.2188
Q14.7031 20.4062 15.6719 17.1094
Q16.6562 13.8125 18.4844 11.375
Q20.3125 8.9375 22.8906 7.51562
Q25.4844 6.10938 28.7188 6.10938
Q31.8906 6.10938 34.4062 7.20312
Q36.9219 8.29688 38.6719 10.375
Q40.4375 12.4531 41.3594 15.4219
Q42.2812 18.4062 42.2812 22.125" id="LiberationSans-36"/>
      </defs>
      <g style="fill:#262626;" transform="translate(214.058033854 330.7375)scale(0.08 -0.08)">
       <use xlink:href="#LiberationSans-30"/>
       <use x="55.615234375" xlink:href="#LiberationSans-2e"/>
       <use x="83.3984375" xlink:href="#LiberationSans-36"/>
      </g>
     </g>
    </g>
    <g id="xtick_5">
     <g id="line2d_5">
      <g>
       <use style="fill:#262626;stroke:#262626;stroke-width:0.8;" x="268.365507812" xlink:href="#m9ceacb34a3" y="319.34"/>
      </g>
     </g>
     <g id="text_5">
      <!-- 0.8 -->
      <defs>
       <path d="
M51.2656 19.1875
Q51.2656 14.7969 49.875 11.1094
Q48.4844 7.42188 45.625 4.73438
Q42.7812 2.04688 38.3281 0.53125
Q33.8906 -0.984375 27.8281 -0.984375
Q21.7812 -0.984375 17.3594 0.53125
Q12.9375 2.04688 10.0312 4.70312
Q7.125 7.375 5.73438 11.0625
Q4.34375 14.75 4.34375 19.0938
Q4.34375 22.8594 5.48438 25.7812
Q6.64062 28.7188 8.5625 30.8281
Q10.5 32.9531 12.9688 34.25
Q15.4375 35.5469 18.0625 35.9844
L18.0625 36.1875
Q15.1875 36.8594 12.9062 38.375
Q10.6406 39.8906 9.09375 42.0156
Q7.5625 44.1406 6.75 46.7188
Q5.95312 49.3125 5.95312 52.2031
Q5.95312 55.8125 7.34375 59
Q8.73438 62.2031 11.4688 64.625
Q14.2031 67.0469 18.25 68.4375
Q22.3125 69.8281 27.6406 69.8281
Q33.25 69.8281 37.375 68.4062
Q41.5 67 44.2031 64.5781
Q46.9219 62.1562 48.2344 58.9375
Q49.5625 55.7188 49.5625 52.0938
Q49.5625 49.2656 48.75 46.6719
Q47.9531 44.0938 46.4062 41.9688
Q44.875 39.8438 42.5938 38.3438
Q40.3281 36.8594 37.3594 36.2812
L37.3594 36.0781
Q40.3281 35.5938 42.8594 34.2969
Q45.4062 33.0156 47.2656 30.8906
Q49.125 28.7656 50.1875 25.8281
Q51.2656 22.9062 51.2656 19.1875
M40.4375 51.6094
Q40.4375 54.2031 39.7656 56.3438
Q39.1094 58.5 37.5938 60.0312
Q36.0781 61.5781 33.6406 62.4219
Q31.2031 63.2812 27.6406 63.2812
Q24.1719 63.2812 21.7812 62.4219
Q19.3906 61.5781 17.8438 60.0312
Q16.3125 58.5 15.625 56.3438
Q14.9375 54.2031 14.9375 51.6094
Q14.9375 49.5625 15.4688 47.4062
Q16.0156 45.2656 17.4219 43.5
Q18.8438 41.75 21.3281 40.625
Q23.8281 39.5 27.7344 39.5
Q31.8906 39.5 34.4062 40.625
Q36.9219 41.75 38.25 43.5
Q39.5938 45.2656 40.0156 47.4062
Q40.4375 49.5625 40.4375 51.6094
M42.1406 20.0156
Q42.1406 22.5156 41.4531 24.8281
Q40.7656 27.1562 39.1094 28.9375
Q37.4531 30.7188 34.6406 31.8125
Q31.8438 32.9062 27.6406 32.9062
Q23.7812 32.9062 21.0625 31.8125
Q18.3594 30.7188 16.6719 28.9062
Q14.9844 27.0938 14.2031 24.7188
Q13.4219 22.3594 13.4219 19.8281
Q13.4219 16.6562 14.2031 14.0312
Q14.9844 11.4219 16.6875 9.54688
Q18.4062 7.67188 21.1875 6.64062
Q23.9688 5.60938 27.9375 5.60938
Q31.9375 5.60938 34.6719 6.64062
Q37.4062 7.67188 39.0625 9.54688
Q40.7188 11.4219 41.4219 14.0781
Q42.1406 16.75 42.1406 20.0156" id="LiberationSans-38"/>
      </defs>
      <g style="fill:#262626;" transform="translate(263.135507812 330.7375)scale(0.08 -0.08)">
       <use xlink:href="#LiberationSans-30"/>
       <use x="55.615234375" xlink:href="#LiberationSans-2e"/>
       <use x="83.3984375" xlink:href="#LiberationSans-38"/>
      </g>
     </g>
    </g>
    <g id="xtick_6">
     <g id="line2d_6">
      <g>
       <use style="fill:#262626;stroke:#262626;stroke-width:0.8;" x="317.444856771" xlink:href="#m9ceacb34a3" y="319.34"/>
      </g>
     </g>
     <g id="text_6">
      <!-- 1.0 -->
      <defs>
       <path d="
M7.625 0
L7.625 7.46875
L25.1406 7.46875
L25.1406 60.4062
L9.625 49.3125
L9.625 57.625
L25.875 68.7969
L33.9844 68.7969
L33.9844 7.46875
L50.7344 7.46875
L50.7344 0
z
" id="LiberationSans-31"/>
      </defs>
      <g style="fill:#262626;" transform="translate(312.346106771 330.7375)scale(0.08 -0.08)">
       <use xlink:href="#LiberationSans-31"/>
       <use x="55.615234375" xlink:href="#LiberationSans-2e"/>
       <use x="83.3984375" xlink:href="#LiberationSans-30"/>
      </g>
     </g>
    </g>
    <g id="text_7">
     <!-- human accuracy -->
     <defs>
      <path d="
M6.9375 0
L6.9375 40.5312
Q6.9375 42.1875 6.90625 43.9219
Q6.89062 45.6562 6.82812 47.2656
Q6.78125 48.875 6.73438 50.2812
Q6.6875 51.7031 6.64062 52.8281
L14.9375 52.8281
Q14.9844 51.7031 15.0625 50.2656
Q15.1406 48.8281 15.2031 47.3125
Q15.2812 45.7969 15.2969 44.4062
Q15.3281 43.0156 15.3281 42.0469
L15.5312 42.0469
Q16.4531 45.0625 17.5 47.2812
Q18.5625 49.5156 19.9688 50.9531
Q21.3906 52.3906 23.3438 53.0938
Q25.2969 53.8125 28.0781 53.8125
Q29.1562 53.8125 30.125 53.6406
Q31.1094 53.4688 31.6406 53.3281
L31.6406 45.2656
Q30.7656 45.5156 29.5938 45.625
Q28.4219 45.75 26.9531 45.75
Q23.9219 45.75 21.7969 44.375
Q19.6719 43.0156 18.3281 40.5938
Q17 38.1875 16.3594 34.8438
Q15.7188 31.5 15.7188 27.5469
L15.7188 0
z
" id="LiberationSans-72"/>
      <path d="
M20.2188 -0.984375
Q12.25 -0.984375 8.25 3.21875
Q4.25 7.42188 4.25 14.75
Q4.25 19.9688 6.21875 23.3125
Q8.20312 26.6562 11.3906 28.5625
Q14.5938 30.4688 18.6875 31.2031
Q22.7969 31.9375 27.0469 32.0312
L38.9219 32.2344
L38.9219 35.1094
Q38.9219 38.375 38.2344 40.6719
Q37.5469 42.9688 36.125 44.375
Q34.7188 45.7969 32.5938 46.4531
Q30.4688 47.125 27.5938 47.125
Q25.0469 47.125 23 46.75
Q20.9531 46.3906 19.4375 45.4375
Q17.9219 44.4844 16.9844 42.8438
Q16.0625 41.2188 15.7656 38.7188
L6.59375 39.5469
Q7.07812 42.6719 8.4375 45.2812
Q9.8125 47.9062 12.3281 49.7969
Q14.8438 51.7031 18.625 52.75
Q22.4062 53.8125 27.7812 53.8125
Q37.75 53.8125 42.7656 49.2344
Q47.7969 44.6719 47.7969 36.0312
L47.7969 13.2812
Q47.7969 9.375 48.8281 7.39062
Q49.8594 5.42188 52.7344 5.42188
Q53.4688 5.42188 54.2031 5.51562
Q54.9375 5.60938 55.6094 5.76562
L55.6094 0.296875
Q53.9531 -0.09375 52.3125 -0.28125
Q50.6875 -0.484375 48.8281 -0.484375
Q46.3438 -0.484375 44.5625 0.171875
Q42.7812 0.828125 41.6562 2.17188
Q40.5312 3.51562 39.9375 5.48438
Q39.3594 7.46875 39.2031 10.1094
L38.9219 10.1094
Q37.5 7.5625 35.8125 5.51562
Q34.125 3.46875 31.875 2.03125
Q29.6406 0.59375 26.7812 -0.1875
Q23.9219 -0.984375 20.2188 -0.984375
M22.2188 5.60938
Q26.4219 5.60938 29.5625 7.14062
Q32.7188 8.6875 34.7812 11.0781
Q36.8594 13.4844 37.8906 16.3125
Q38.9219 19.1406 38.9219 21.7344
L38.9219 26.0781
L29.2969 25.875
Q26.0781 25.8281 23.1719 25.4062
Q20.2656 25 18.0625 23.7812
Q15.875 22.5625 14.5781 20.3594
Q13.2812 18.1719 13.2812 14.5938
Q13.2812 10.2969 15.5938 7.95312
Q17.9219 5.60938 22.2188 5.60938" id="LiberationSans-61"/>
      <path d="
M15.3281 52.8281
L15.3281 19.3438
Q15.3281 15.4844 15.8906 12.8906
Q16.4531 10.2969 17.7188 8.70312
Q19 7.125 21.0625 6.46875
Q23.1406 5.8125 26.2188 5.8125
Q29.3438 5.8125 31.8594 6.90625
Q34.375 8.01562 36.1562 10.0781
Q37.9375 12.1562 38.9062 15.2031
Q39.8906 18.2656 39.8906 22.2188
L39.8906 52.8281
L48.6875 52.8281
L48.6875 11.2812
Q48.6875 9.625 48.7031 7.78125
Q48.7344 5.95312 48.7812 4.3125
Q48.8281 2.6875 48.875 1.51562
Q48.9219 0.34375 48.9688 0
L40.6719 0
Q40.625 0.25 40.5781 1.3125
Q40.5312 2.39062 40.4531 3.78125
Q40.375 5.17188 40.3281 6.60938
Q40.2812 8.0625 40.2812 9.03125
L40.1406 9.03125
Q38.875 6.73438 37.3594 4.875
Q35.8438 3.03125 33.8438 1.73438
Q31.8438 0.4375 29.25 -0.265625
Q26.6562 -0.984375 23.25 -0.984375
Q18.8438 -0.984375 15.6719 0.09375
Q12.5 1.17188 10.4531 3.42188
Q8.40625 5.67188 7.45312 9.1875
Q6.5 12.7031 6.5 17.625
L6.5 52.8281
z
" id="LiberationSans-75"/>
      <path d="
M13.4219 26.6562
Q13.4219 22.125 14.0781 18.3125
Q14.75 14.5 16.3125 11.7344
Q17.875 8.98438 20.4375 7.46875
Q23 5.95312 26.7656 5.95312
Q31.4531 5.95312 34.5938 8.48438
Q37.75 11.0312 38.4844 16.3125
L47.3594 15.7188
Q46.9219 12.4531 45.4531 9.42188
Q44 6.39062 41.4844 4.09375
Q38.9688 1.8125 35.3438 0.40625
Q31.7344 -0.984375 27 -0.984375
Q20.7969 -0.984375 16.4531 1.10938
Q12.1094 3.21875 9.39062 6.90625
Q6.6875 10.5938 5.46875 15.5938
Q4.25 20.6094 4.25 26.4688
Q4.25 31.7812 5.125 35.8594
Q6 39.9375 7.59375 42.9844
Q9.1875 46.0469 11.3281 48.125
Q13.4844 50.2031 15.9844 51.4375
Q18.5 52.6875 21.2812 53.25
Q24.0781 53.8125 26.9062 53.8125
Q31.3438 53.8125 34.8125 52.5938
Q38.2812 51.375 40.7969 49.25
Q43.3125 47.125 44.875 44.2344
Q46.4375 41.3594 47.0781 38.0312
L38.0312 37.3594
Q37.3594 41.75 34.5625 44.3281
Q31.7812 46.9219 26.6562 46.9219
Q22.9062 46.9219 20.3906 45.6719
Q17.875 44.4375 16.3125 41.9219
Q14.75 39.4062 14.0781 35.5938
Q13.4219 31.7812 13.4219 26.6562" id="LiberationSans-63"/>
      <path d="
M29.5 0
Q27.6406 -4.78125 25.7031 -8.60938
Q23.7812 -12.4531 21.3906 -15.1562
Q19 -17.875 16.0625 -19.3125
Q13.1406 -20.75 9.32812 -20.75
Q7.67188 -20.75 6.25 -20.6562
Q4.82812 -20.5625 3.26562 -20.2188
L3.26562 -13.625
Q4.20312 -13.7656 5.375 -13.8438
Q6.54688 -13.9219 7.375 -13.9219
Q11.2344 -13.9219 14.5469 -11.0312
Q17.875 -8.15625 20.3594 -1.85938
L21.1875 0.25
L0.25 52.8281
L9.625 52.8281
L20.75 23.6406
Q21.2344 22.3125 21.9844 20.1094
Q22.75 17.9219 23.5 15.7188
Q24.2656 13.5312 24.8438 11.7656
Q25.4375 10.0156 25.5312 9.57812
Q25.6875 10.1094 26.25 11.6875
Q26.8125 13.2812 27.5156 15.2344
Q28.2188 17.1875 28.9531 19.1875
Q29.6875 21.1875 30.1719 22.6562
L40.5312 52.8281
L49.8125 52.8281
z
" id="LiberationSans-79"/>
      <path d="
M15.4844 43.7969
Q16.9375 46.4844 18.6406 48.3594
Q20.3594 50.25 22.4062 51.4688
Q24.4688 52.6875 26.9062 53.25
Q29.3438 53.8125 32.375 53.8125
Q37.4531 53.8125 40.7031 52.4375
Q43.9531 51.0781 45.8281 48.6094
Q47.7031 46.1406 48.4062 42.7188
Q49.125 39.3125 49.125 35.2031
L49.125 0
L40.2812 0
L40.2812 33.5
Q40.2812 36.8594 39.8594 39.3906
Q39.4531 41.9375 38.2812 43.625
Q37.1094 45.3125 34.9531 46.1562
Q32.8125 47.0156 29.3906 47.0156
Q26.2656 47.0156 23.75 45.8906
Q21.2344 44.7812 19.4531 42.7188
Q17.6719 40.6719 16.6875 37.7344
Q15.7188 34.8125 15.7188 31.1562
L15.7188 0
L6.9375 0
L6.9375 72.4688
L15.7188 72.4688
L15.7188 53.6094
Q15.7188 52 15.6719 50.3906
Q15.625 48.7812 15.5469 47.4062
Q15.4844 46.0469 15.4219 45.0938
Q15.375 44.1406 15.3281 43.7969
z
" id="LiberationSans-68"/>
      <path d="
M37.5 0
L37.5 33.5
Q37.5 37.3594 37.0156 39.9375
Q36.5312 42.5312 35.375 44.1094
Q34.2344 45.7031 32.375 46.3594
Q30.5156 47.0156 27.8281 47.0156
Q25.0469 47.0156 22.7969 45.9219
Q20.5625 44.8281 18.9688 42.75
Q17.3906 40.6719 16.5312 37.625
Q15.6719 34.5781 15.6719 30.6094
L15.6719 0
L6.9375 0
L6.9375 41.5469
Q6.9375 43.2188 6.90625 45.0469
Q6.89062 46.875 6.82812 48.5
Q6.78125 50.1406 6.73438 51.3125
Q6.6875 52.4844 6.64062 52.8281
L14.9375 52.8281
Q14.9844 52.5938 15.0312 51.5156
Q15.0938 50.4375 15.1562 49.0469
Q15.2344 47.6562 15.2812 46.2188
Q15.3281 44.7812 15.3281 43.7969
L15.4844 43.7969
Q16.6562 46.0938 18.0156 47.9531
Q19.3906 49.8125 21.2188 51.0938
Q23.0469 52.3906 25.4062 53.0938
Q27.7812 53.8125 30.9062 53.8125
Q36.9219 53.8125 40.4062 51.4219
Q43.8906 49.0312 45.2656 43.7969
L45.4062 43.7969
Q46.5781 46.0938 48.0469 47.9531
Q49.5156 49.8125 51.4688 51.0938
Q53.4219 52.3906 55.8594 53.0938
Q58.2969 53.8125 61.4219 53.8125
Q65.4375 53.8125 68.3281 52.7344
Q71.2344 51.6562 73.0938 49.4062
Q74.9531 47.1719 75.8281 43.625
Q76.7031 40.0938 76.7031 35.2031
L76.7031 0
L68.0156 0
L68.0156 33.5
Q68.0156 37.3594 67.5312 39.9375
Q67.0469 42.5312 65.8906 44.1094
Q64.75 45.7031 62.8906 46.3594
Q61.0312 47.0156 58.3438 47.0156
Q55.5625 47.0156 53.3125 45.9688
Q51.0781 44.9219 49.4844 42.875
Q47.9062 40.8281 47.0469 37.75
Q46.1875 34.6719 46.1875 30.6094
L46.1875 0
z
" id="LiberationSans-6d"/>
      <path d="
M40.2812 0
L40.2812 33.5
Q40.2812 37.3594 39.7188 39.9375
Q39.1562 42.5312 37.8906 44.1094
Q36.625 45.7031 34.5469 46.3594
Q32.4688 47.0156 29.3906 47.0156
Q26.2656 47.0156 23.75 45.9219
Q21.2344 44.8281 19.4531 42.75
Q17.6719 40.6719 16.6875 37.625
Q15.7188 34.5781 15.7188 30.6094
L15.7188 0
L6.9375 0
L6.9375 41.5469
Q6.9375 43.2188 6.90625 45.0469
Q6.89062 46.875 6.82812 48.5
Q6.78125 50.1406 6.73438 51.3125
Q6.6875 52.4844 6.64062 52.8281
L14.9375 52.8281
Q14.9844 52.5938 15.0312 51.5156
Q15.0938 50.4375 15.1562 49.0469
Q15.2344 47.6562 15.2812 46.2188
Q15.3281 44.7812 15.3281 43.7969
L15.4844 43.7969
Q16.75 46.0938 18.2656 47.9531
Q19.7812 49.8125 21.7812 51.0938
Q23.7812 52.3906 26.3594 53.0938
Q28.9531 53.8125 32.375 53.8125
Q36.7656 53.8125 39.9375 52.7344
Q43.1094 51.6562 45.1562 49.4062
Q47.2188 47.1719 48.1719 43.625
Q49.125 40.0938 49.125 35.2031
L49.125 0
z
" id="LiberationSans-6e"/>
      <path id="LiberationSans-20"/>
     </defs>
     <g style="fill:#262626;" transform="translate(162.474546875 343.77475)scale(0.088 -0.088)">
      <use xlink:href="#LiberationSans-68"/>
      <use x="55.615234375" xlink:href="#LiberationSans-75"/>
      <use x="111.23046875" xlink:href="#LiberationSans-6d"/>
      <use x="194.53125" xlink:href="#LiberationSans-61"/>
      <use x="250.146484375" xlink:href="#LiberationSans-6e"/>
      <use x="305.76171875" xlink:href="#LiberationSans-20"/>
      <use x="333.544921875" xlink:href="#LiberationSans-61"/>
      <use x="389.16015625" xlink:href="#LiberationSans-63"/>
      <use x="439.16015625" xlink:href="#LiberationSans-63"/>
      <use x="489.16015625" xlink:href="#LiberationSans-75"/>
      <use x="544.775390625" xlink:href="#LiberationSans-72"/>
      <use x="578.076171875" xlink:href="#LiberationSans-61"/>
      <use x="633.69140625" xlink:href="#LiberationSans-63"/>
      <use x="683.69140625" xlink:href="#LiberationSans-79"/>
     </g>
    </g>
   </g>
   <g id="matplotlib.axis_2">
    <g id="ytick_1">
     <g id="line2d_7">
      <g>
       <use style="fill:#262626;stroke:#262626;stroke-width:0.8;" x="47.5084375" xlink:href="#m9ceacb34a3" y="294.145833333"/>
      </g>
     </g>
     <g id="text_8">
      <!-- 0.0 -->
      <g style="fill:#262626;" transform="translate(31.4134375 296.214583333)scale(0.08 -0.08)">
       <use xlink:href="#LiberationSans-30"/>
       <use x="55.615234375" xlink:href="#LiberationSans-2e"/>
       <use x="83.3984375" xlink:href="#LiberationSans-30"/>
      </g>
     </g>
    </g>
    <g id="ytick_2">
     <g id="line2d_8">
      <g>
       <use style="fill:#262626;stroke:#262626;stroke-width:0.8;" x="47.5084375" xlink:href="#m9ceacb34a3" y="243.7575"/>
      </g>
     </g>
     <g id="text_9">
      <!-- 0.2 -->
      <g style="fill:#262626;" transform="translate(31.5021875 245.82625)scale(0.08 -0.08)">
       <use xlink:href="#LiberationSans-30"/>
       <use x="55.615234375" xlink:href="#LiberationSans-2e"/>
       <use x="83.3984375" xlink:href="#LiberationSans-32"/>
      </g>
     </g>
    </g>
    <g id="ytick_3">
     <g id="line2d_9">
      <g>
       <use style="fill:#262626;stroke:#262626;stroke-width:0.8;" x="47.5084375" xlink:href="#m9ceacb34a3" y="193.369166667"/>
      </g>
     </g>
     <g id="text_10">
      <!-- 0.4 -->
      <g style="fill:#262626;" transform="translate(31.3346875 195.437916667)scale(0.08 -0.08)">
       <use xlink:href="#LiberationSans-30"/>
       <use x="55.615234375" xlink:href="#LiberationSans-2e"/>
       <use x="83.3984375" xlink:href="#LiberationSans-34"/>
      </g>
     </g>
    </g>
    <g id="ytick_4">
     <g id="line2d_10">
      <g>
       <use style="fill:#262626;stroke:#262626;stroke-width:0.8;" x="47.5084375" xlink:href="#m9ceacb34a3" y="142.980833333"/>
      </g>
     </g>
     <g id="text_11">
      <!-- 0.6 -->
      <g style="fill:#262626;" transform="translate(31.4521875 145.049583333)scale(0.08 -0.08)">
       <use xlink:href="#LiberationSans-30"/>
       <use x="55.615234375" xlink:href="#LiberationSans-2e"/>
       <use x="83.3984375" xlink:href="#LiberationSans-36"/>
      </g>
     </g>
    </g>
    <g id="ytick_5">
     <g id="line2d_11">
      <g>
       <use style="fill:#262626;stroke:#262626;stroke-width:0.8;" x="47.5084375" xlink:href="#m9ceacb34a3" y="92.5925"/>
      </g>
     </g>
     <g id="text_12">
      <!-- 0.8 -->
      <g style="fill:#262626;" transform="translate(31.4484375 94.66125)scale(0.08 -0.08)">
       <use xlink:href="#LiberationSans-30"/>
       <use x="55.615234375" xlink:href="#LiberationSans-2e"/>
       <use x="83.3984375" xlink:href="#LiberationSans-38"/>
      </g>
     </g>
    </g>
    <g id="ytick_6">
     <g id="line2d_12">
      <g>
       <use style="fill:#262626;stroke:#262626;stroke-width:0.8;" x="47.5084375" xlink:href="#m9ceacb34a3" y="42.2041666667"/>
      </g>
     </g>
     <g id="text_13">
      <!-- 1.0 -->
      <g style="fill:#262626;" transform="translate(31.7109375 44.2729166667)scale(0.08 -0.08)">
       <use xlink:href="#LiberationSans-31"/>
       <use x="55.615234375" xlink:href="#LiberationSans-2e"/>
       <use x="83.3984375" xlink:href="#LiberationSans-30"/>
      </g>
     </g>
    </g>
    <g id="text_14">
     <!-- accuracy -->
     <g style="fill:#262626;" transform="translate(24.5086875 185.58525)rotate(-90.0)scale(0.088 -0.088)">
      <use xlink:href="#LiberationSans-61"/>
      <use x="55.615234375" xlink:href="#LiberationSans-63"/>
      <use x="105.615234375" xlink:href="#LiberationSans-63"/>
      <use x="155.615234375" xlink:href="#LiberationSans-75"/>
      <use x="211.23046875" xlink:href="#LiberationSans-72"/>
      <use x="244.53125" xlink:href="#LiberationSans-61"/>
      <use x="300.146484375" xlink:href="#LiberationSans-63"/>
      <use x="350.146484375" xlink:href="#LiberationSans-79"/>
     </g>
    </g>
   </g>
   <g id="PathCollection_1">
    <defs>
     <path d="
M0 2.23607
C0.593012 2.23607 1.16182 2.00046 1.58114 1.58114
C2.00046 1.16182 2.23607 0.593012 2.23607 0
C2.23607 -0.593012 2.00046 -1.16182 1.58114 -1.58114
C1.16182 -2.00046 0.593012 -2.23607 0 -2.23607
C-0.593012 -2.23607 -1.16182 -2.00046 -1.58114 -1.58114
C-2.00046 -1.16182 -2.23607 -0.593012 -2.23607 0
C-2.23607 0.593012 -2.00046 1.16182 -1.58114 1.58114
C-1.16182 2.00046 -0.593012 2.23607 0 2.23607
z
" id="m7062e01d87"/>
    </defs>
    <g clip-path="url(#p9aa6d294ba)">
     <use style="fill:#fa8e63;fill-opacity:0.8;" x="72.0481119792" xlink:href="#m7062e01d87" y="303.441089329"/>
     <use style="fill:#fa8e63;fill-opacity:0.8;" x="317.444856771" xlink:href="#m7062e01d87" y="54.4980073943"/>
     <use style="fill:#fa8e63;fill-opacity:0.8;" x="299.923529193" xlink:href="#m7062e01d87" y="303.833386037"/>
     <use style="fill:#fa8e63;fill-opacity:0.8;" x="286.426708229" xlink:href="#m7062e01d87" y="39.2191552618"/>
     <use style="fill:#fa8e63;fill-opacity:0.8;" x="314.622794206" xlink:href="#m7062e01d87" y="282.197343265"/>
     <use style="fill:#fa8e63;fill-opacity:0.8;" x="86.1584248047" xlink:href="#m7062e01d87" y="281.79199964"/>
     <use style="fill:#fa8e63;fill-opacity:0.8;" x="300.51248138" xlink:href="#m7062e01d87" y="44.4954729455"/>
     <use style="fill:#fa8e63;fill-opacity:0.8;" x="224.365871471" xlink:href="#m7062e01d87" y="302.637415698"/>
     <use style="fill:#fa8e63;fill-opacity:0.8;" x="311.800731641" xlink:href="#m7062e01d87" y="38.7081798246"/>
     <use style="fill:#fa8e63;fill-opacity:0.8;" x="83.7289970312" xlink:href="#m7062e01d87" y="294.390082048"/>
     <use style="fill:#fa8e63;fill-opacity:0.8;" x="258.206082578" xlink:href="#m7062e01d87" y="281.815561836"/>
     <use style="fill:#fa8e63;fill-opacity:0.8;" x="88.9804873698" xlink:href="#m7062e01d87" y="305.097631588"/>
     <use style="fill:#fa8e63;fill-opacity:0.8;" x="314.622794206" xlink:href="#m7062e01d87" y="35.068311022"/>
     <use style="fill:#fa8e63;fill-opacity:0.8;" x="317.444856771" xlink:href="#m7062e01d87" y="299.476956858"/>
     <use style="fill:#fa8e63;fill-opacity:0.8;" x="156.660909583" xlink:href="#m7062e01d87" y="300.660575716"/>
     <use style="fill:#fa8e63;fill-opacity:0.8;" x="300.51248138" xlink:href="#m7062e01d87" y="38.1099994074"/>
     <use style="fill:#fa8e63;fill-opacity:0.8;" x="72.0481119792" xlink:href="#m7062e01d87" y="300.543559773"/>
     <use style="fill:#fa8e63;fill-opacity:0.8;" x="308.978669076" xlink:href="#m7062e01d87" y="289.967151082"/>
     <use style="fill:#fa8e63;fill-opacity:0.8;" x="314.622794206" xlink:href="#m7062e01d87" y="41.7680929995"/>
     <use style="fill:#fa8e63;fill-opacity:0.8;" x="317.444856771" xlink:href="#m7062e01d87" y="44.1166813438"/>
     <use style="fill:#fa8e63;fill-opacity:0.8;" x="317.444856771" xlink:href="#m7062e01d87" y="40.8263529006"/>
     <use style="fill:#fa8e63;fill-opacity:0.8;" x="97.4221353906" xlink:href="#m7062e01d87" y="299.510892832"/>
     <use style="fill:#fa8e63;fill-opacity:0.8;" x="174.304935534" xlink:href="#m7062e01d87" y="288.941355754"/>
     <use style="fill:#fa8e63;fill-opacity:0.8;" x="165.544271745" xlink:href="#m7062e01d87" y="44.3492768912"/>
     <use style="fill:#fa8e63;fill-opacity:0.8;" x="279.457440677" xlink:href="#m7062e01d87" y="297.659271725"/>
     <use style="fill:#fa8e63;fill-opacity:0.8;" x="198.967308385" xlink:href="#m7062e01d87" y="285.865596252"/>
     <use style="fill:#fa8e63;fill-opacity:0.8;" x="317.444856771" xlink:href="#m7062e01d87" y="283.439146126"/>
     <use style="fill:#fa8e63;fill-opacity:0.8;" x="314.524635508" xlink:href="#m7062e01d87" y="53.6421341416"/>
     <use style="fill:#fa8e63;fill-opacity:0.8;" x="314.524635508" xlink:href="#m7062e01d87" y="48.9404067715"/>
     <use style="fill:#fa8e63;fill-opacity:0.8;" x="95.4098820833" xlink:href="#m7062e01d87" y="297.962261585"/>
     <use style="fill:#fa8e63;fill-opacity:0.8;" x="317.444856771" xlink:href="#m7062e01d87" y="286.210515358"/>
     <use style="fill:#fa8e63;fill-opacity:0.8;" x="317.444856771" xlink:href="#m7062e01d87" y="29.9726147234"/>
     <use style="fill:#fa8e63;fill-opacity:0.8;" x="124.636634388" xlink:href="#m7062e01d87" y="282.330482044"/>
     <use style="fill:#fa8e63;fill-opacity:0.8;" x="317.444856771" xlink:href="#m7062e01d87" y="32.0018305575"/>
     <use style="fill:#fa8e63;fill-opacity:0.8;" x="302.843750456" xlink:href="#m7062e01d87" y="47.3297620319"/>
     <use style="fill:#fa8e63;fill-opacity:0.8;" x="74.8701745443" xlink:href="#m7062e01d87" y="281.750020065"/>
     <use style="fill:#fa8e63;fill-opacity:0.8;" x="279.457440677" xlink:href="#m7062e01d87" y="48.5173199156"/>
     <use style="fill:#fa8e63;fill-opacity:0.8;" x="314.524635508" xlink:href="#m7062e01d87" y="52.1330326829"/>
     <use style="fill:#fa8e63;fill-opacity:0.8;" x="136.931011302" xlink:href="#m7062e01d87" y="30.842791425"/>
     <use style="fill:#fa8e63;fill-opacity:0.8;" x="317.444856771" xlink:href="#m7062e01d87" y="48.9204211804"/>
     <use style="fill:#fa8e63;fill-opacity:0.8;" x="91.8025499349" xlink:href="#m7062e01d87" y="289.364780035"/>
     <use style="fill:#fa8e63;fill-opacity:0.8;" x="317.444856771" xlink:href="#m7062e01d87" y="305.272676832"/>
     <use style="fill:#fa8e63;fill-opacity:0.8;" x="288.242644141" xlink:href="#m7062e01d87" y="288.333309838"/>
     <use style="fill:#fa8e63;fill-opacity:0.8;" x="91.8025499349" xlink:href="#m7062e01d87" y="284.528710684"/>
     <use style="fill:#fa8e63;fill-opacity:0.8;" x="314.524635508" xlink:href="#m7062e01d87" y="47.9374294495"/>
     <use style="fill:#fa8e63;fill-opacity:0.8;" x="185.985820586" xlink:href="#m7062e01d87" y="45.2512273841"/>
     <use style="fill:#fa8e63;fill-opacity:0.8;" x="317.444856771" xlink:href="#m7062e01d87" y="297.312836241"/>
     <use style="fill:#fa8e63;fill-opacity:0.8;" x="72.0481119792" xlink:href="#m7062e01d87" y="35.9361538415"/>
     <use style="fill:#fa8e63;fill-opacity:0.8;" x="308.684192982" xlink:href="#m7062e01d87" y="300.751561364"/>
     <use style="fill:#fa8e63;fill-opacity:0.8;" x="314.524635508" xlink:href="#m7062e01d87" y="50.4715543804"/>
     <use style="fill:#fa8e63;fill-opacity:0.8;" x="317.444856771" xlink:href="#m7062e01d87" y="295.423387988"/>
     <use style="fill:#fa8e63;fill-opacity:0.8;" x="131.286886172" xlink:href="#m7062e01d87" y="47.1304221998"/>
     <use style="fill:#fa8e63;fill-opacity:0.8;" x="314.524635508" xlink:href="#m7062e01d87" y="285.600246056"/>
     <use style="fill:#fa8e63;fill-opacity:0.8;" x="270.696776888" xlink:href="#m7062e01d87" y="300.753209478"/>
     <use style="fill:#fa8e63;fill-opacity:0.8;" x="294.86835625" xlink:href="#m7062e01d87" y="42.1439662764"/>
     <use style="fill:#fa8e63;fill-opacity:0.8;" x="289.248770794" xlink:href="#m7062e01d87" y="282.995308359"/>
     <use style="fill:#fa8e63;fill-opacity:0.8;" x="317.444856771" xlink:href="#m7062e01d87" y="290.769873003"/>
     <use style="fill:#fa8e63;fill-opacity:0.8;" x="289.248770794" xlink:href="#m7062e01d87" y="32.9506161705"/>
     <use style="fill:#fa8e63;fill-opacity:0.8;" x="266.672270273" xlink:href="#m7062e01d87" y="31.1134503848"/>
     <use style="fill:#fa8e63;fill-opacity:0.8;" x="230.009996602" xlink:href="#m7062e01d87" y="287.828021609"/>
     <use style="fill:#fa8e63;fill-opacity:0.8;" x="317.444856771" xlink:href="#m7062e01d87" y="37.1760393369"/>
     <use style="fill:#fa8e63;fill-opacity:0.8;" x="259.015891836" xlink:href="#m7062e01d87" y="282.355830854"/>
     <use style="fill:#fa8e63;fill-opacity:0.8;" x="297.00330793" xlink:href="#m7062e01d87" y="281.689817439"/>
     <use style="fill:#fa8e63;fill-opacity:0.8;" x="311.800731641" xlink:href="#m7062e01d87" y="295.35964589"/>
     <use style="fill:#fa8e63;fill-opacity:0.8;" x="198.967308385" xlink:href="#m7062e01d87" y="304.957411663"/>
     <use style="fill:#fa8e63;fill-opacity:0.8;" x="317.444856771" xlink:href="#m7062e01d87" y="299.36621504"/>
     <use style="fill:#fa8e63;fill-opacity:0.8;" x="279.457440677" xlink:href="#m7062e01d87" y="50.9628001525"/>
     <use style="fill:#fa8e63;fill-opacity:0.8;" x="314.622794206" xlink:href="#m7062e01d87" y="44.2830286923"/>
     <use style="fill:#fa8e63;fill-opacity:0.8;" x="282.37766194" xlink:href="#m7062e01d87" y="303.435191444"/>
     <use style="fill:#fa8e63;fill-opacity:0.8;" x="317.444856771" xlink:href="#m7062e01d87" y="39.5810053592"/>
     <use style="fill:#fa8e63;fill-opacity:0.8;" x="317.444856771" xlink:href="#m7062e01d87" y="297.098386623"/>
     <use style="fill:#fa8e63;fill-opacity:0.8;" x="103.066260521" xlink:href="#m7062e01d87" y="284.184415467"/>
     <use style="fill:#fa8e63;fill-opacity:0.8;" x="131.286886172" xlink:href="#m7062e01d87" y="282.360136406"/>
     <use style="fill:#fa8e63;fill-opacity:0.8;" x="314.524635508" xlink:href="#m7062e01d87" y="292.964607307"/>
     <use style="fill:#fa8e63;fill-opacity:0.8;" x="213.077621211" xlink:href="#m7062e01d87" y="47.8772991768"/>
     <use style="fill:#fa8e63;fill-opacity:0.8;" x="317.444856771" xlink:href="#m7062e01d87" y="39.8804981246"/>
     <use style="fill:#fa8e63;fill-opacity:0.8;" x="300.51248138" xlink:href="#m7062e01d87" y="284.149766586"/>
     <use style="fill:#fa8e63;fill-opacity:0.8;" x="168.464493008" xlink:href="#m7062e01d87" y="296.495608963"/>
     <use style="fill:#fa8e63;fill-opacity:0.8;" x="72.0481119792" xlink:href="#m7062e01d87" y="292.833764551"/>
     <use style="fill:#fa8e63;fill-opacity:0.8;" x="311.604414245" xlink:href="#m7062e01d87" y="299.898851564"/>
     <use style="fill:#fa8e63;fill-opacity:0.8;" x="294.86835625" xlink:href="#m7062e01d87" y="295.268380858"/>
     <use style="fill:#fa8e63;fill-opacity:0.8;" x="311.800731641" xlink:href="#m7062e01d87" y="296.622078904"/>
     <use style="fill:#fa8e63;fill-opacity:0.8;" x="317.444856771" xlink:href="#m7062e01d87" y="48.5426797585"/>
     <use style="fill:#fa8e63;fill-opacity:0.8;" x="317.444856771" xlink:href="#m7062e01d87" y="42.0563680148"/>
     <use style="fill:#fa8e63;fill-opacity:0.8;" x="317.444856771" xlink:href="#m7062e01d87" y="298.923130407"/>
     <use style="fill:#fa8e63;fill-opacity:0.8;" x="221.028475742" xlink:href="#m7062e01d87" y="297.344614134"/>
     <use style="fill:#fa8e63;fill-opacity:0.8;" x="249.739894883" xlink:href="#m7062e01d87" y="41.5750571828"/>
     <use style="fill:#fa8e63;fill-opacity:0.8;" x="72.0481119792" xlink:href="#m7062e01d87" y="287.83230056"/>
     <use style="fill:#fa8e63;fill-opacity:0.8;" x="130.477076914" xlink:href="#m7062e01d87" y="298.340473989"/>
     <use style="fill:#fa8e63;fill-opacity:0.8;" x="297.690418815" xlink:href="#m7062e01d87" y="31.5178400073"/>
     <use style="fill:#fa8e63;fill-opacity:0.8;" x="259.015891836" xlink:href="#m7062e01d87" y="285.017519478"/>
     <use style="fill:#fa8e63;fill-opacity:0.8;" x="306.15660651" xlink:href="#m7062e01d87" y="305.516205235"/>
     <use style="fill:#fa8e63;fill-opacity:0.8;" x="317.444856771" xlink:href="#m7062e01d87" y="48.4109379701"/>
     <use style="fill:#fa8e63;fill-opacity:0.8;" x="300.51248138" xlink:href="#m7062e01d87" y="43.5612375381"/>
     <use style="fill:#fa8e63;fill-opacity:0.8;" x="314.524635508" xlink:href="#m7062e01d87" y="52.165237533"/>
     <use style="fill:#fa8e63;fill-opacity:0.8;" x="314.622794206" xlink:href="#m7062e01d87" y="297.96335452"/>
     <use style="fill:#fa8e63;fill-opacity:0.8;" x="83.7289970312" xlink:href="#m7062e01d87" y="288.096776257"/>
     <use style="fill:#fa8e63;fill-opacity:0.8;" x="314.524635508" xlink:href="#m7062e01d87" y="37.656254743"/>
     <use style="fill:#fa8e63;fill-opacity:0.8;" x="314.622794206" xlink:href="#m7062e01d87" y="39.120792976"/>
     <use style="fill:#fa8e63;fill-opacity:0.8;" x="314.622794206" xlink:href="#m7062e01d87" y="36.9000790004"/>
     <use style="fill:#fa8e63;fill-opacity:0.8;" x="252.561957448" xlink:href="#m7062e01d87" y="49.6383684768"/>
     <use style="fill:#fa8e63;fill-opacity:0.8;" x="297.00330793" xlink:href="#m7062e01d87" y="298.134117411"/>
     <use style="fill:#fa8e63;fill-opacity:0.8;" x="97.4221353906" xlink:href="#m7062e01d87" y="289.705550861"/>
     <use style="fill:#fa8e63;fill-opacity:0.8;" x="314.622794206" xlink:href="#m7062e01d87" y="32.6496628411"/>
     <use style="fill:#fa8e63;fill-opacity:0.8;" x="74.9683332422" xlink:href="#m7062e01d87" y="293.045401166"/>
     <use style="fill:#fa8e63;fill-opacity:0.8;" x="311.800731641" xlink:href="#m7062e01d87" y="299.620534544"/>
     <use style="fill:#fa8e63;fill-opacity:0.8;" x="74.9683332422" xlink:href="#m7062e01d87" y="305.981164537"/>
     <use style="fill:#fa8e63;fill-opacity:0.8;" x="314.524635508" xlink:href="#m7062e01d87" y="288.846572208"/>
     <use style="fill:#fa8e63;fill-opacity:0.8;" x="98.3301033464" xlink:href="#m7062e01d87" y="306.544283249"/>
     <use style="fill:#fa8e63;fill-opacity:0.8;" x="77.8885545052" xlink:href="#m7062e01d87" y="297.353578068"/>
     <use style="fill:#fa8e63;fill-opacity:0.8;" x="261.028145143" xlink:href="#m7062e01d87" y="41.4348069934"/>
     <use style="fill:#fa8e63;fill-opacity:0.8;" x="317.444856771" xlink:href="#m7062e01d87" y="31.569420147"/>
     <use style="fill:#fa8e63;fill-opacity:0.8;" x="308.684192982" xlink:href="#m7062e01d87" y="304.488176183"/>
     <use style="fill:#fa8e63;fill-opacity:0.8;" x="272.316395404" xlink:href="#m7062e01d87" y="296.51553815"/>
     <use style="fill:#fa8e63;fill-opacity:0.8;" x="221.543808906" xlink:href="#m7062e01d87" y="306.130365861"/>
     <use style="fill:#fa8e63;fill-opacity:0.8;" x="317.444856771" xlink:href="#m7062e01d87" y="298.111118425"/>
     <use style="fill:#fa8e63;fill-opacity:0.8;" x="264.856334362" xlink:href="#m7062e01d87" y="291.066323665"/>
     <use style="fill:#fa8e63;fill-opacity:0.8;" x="92.4896608203" xlink:href="#m7062e01d87" y="299.712032268"/>
     <use style="fill:#fa8e63;fill-opacity:0.8;" x="74.9683332422" xlink:href="#m7062e01d87" y="301.458441477"/>
     <use style="fill:#fa8e63;fill-opacity:0.8;" x="314.524635508" xlink:href="#m7062e01d87" y="303.827870122"/>
     <use style="fill:#fa8e63;fill-opacity:0.8;" x="311.800731641" xlink:href="#m7062e01d87" y="40.2606825021"/>
     <use style="fill:#fa8e63;fill-opacity:0.8;" x="308.684192982" xlink:href="#m7062e01d87" y="37.2845015929"/>
     <use style="fill:#fa8e63;fill-opacity:0.8;" x="317.444856771" xlink:href="#m7062e01d87" y="289.813516474"/>
     <use style="fill:#fa8e63;fill-opacity:0.8;" x="317.444856771" xlink:href="#m7062e01d87" y="282.837153967"/>
     <use style="fill:#fa8e63;fill-opacity:0.8;" x="311.604414245" xlink:href="#m7062e01d87" y="306.674811445"/>
     <use style="fill:#fa8e63;fill-opacity:0.8;" x="311.604414245" xlink:href="#m7062e01d87" y="38.4956696357"/>
     <use style="fill:#fa8e63;fill-opacity:0.8;" x="255.384020013" xlink:href="#m7062e01d87" y="39.6748679132"/>
     <use style="fill:#fa8e63;fill-opacity:0.8;" x="72.0481119792" xlink:href="#m7062e01d87" y="291.91011281"/>
     <use style="fill:#fa8e63;fill-opacity:0.8;" x="283.604645664" xlink:href="#m7062e01d87" y="30.5450541002"/>
     <use style="fill:#fa8e63;fill-opacity:0.8;" x="124.636634388" xlink:href="#m7062e01d87" y="306.317848916"/>
     <use style="fill:#fa8e63;fill-opacity:0.8;" x="196.14524582" xlink:href="#m7062e01d87" y="289.195622227"/>
     <use style="fill:#fa8e63;fill-opacity:0.8;" x="226.893457943" xlink:href="#m7062e01d87" y="286.242961153"/>
     <use style="fill:#fa8e63;fill-opacity:0.8;" x="130.477076914" xlink:href="#m7062e01d87" y="293.898749187"/>
     <use style="fill:#fa8e63;fill-opacity:0.8;" x="91.8025499349" xlink:href="#m7062e01d87" y="298.328950081"/>
     <use style="fill:#fa8e63;fill-opacity:0.8;" x="103.066260521" xlink:href="#m7062e01d87" y="34.876691121"/>
     <use style="fill:#fa8e63;fill-opacity:0.8;" x="74.8701745443" xlink:href="#m7062e01d87" y="304.292962191"/>
     <use style="fill:#fa8e63;fill-opacity:0.8;" x="317.444856771" xlink:href="#m7062e01d87" y="295.606197137"/>
     <use style="fill:#fa8e63;fill-opacity:0.8;" x="317.444856771" xlink:href="#m7062e01d87" y="293.643149883"/>
     <use style="fill:#fa8e63;fill-opacity:0.8;" x="317.444856771" xlink:href="#m7062e01d87" y="37.3175965235"/>
     <use style="fill:#fa8e63;fill-opacity:0.8;" x="317.444856771" xlink:href="#m7062e01d87" y="52.5114597196"/>
     <use style="fill:#fa8e63;fill-opacity:0.8;" x="317.444856771" xlink:href="#m7062e01d87" y="49.0630391583"/>
     <use style="fill:#fa8e63;fill-opacity:0.8;" x="180.14537806" xlink:href="#m7062e01d87" y="296.405710713"/>
     <use style="fill:#fa8e63;fill-opacity:0.8;" x="275.138457969" xlink:href="#m7062e01d87" y="291.039526792"/>
     <use style="fill:#fa8e63;fill-opacity:0.8;" x="297.00330793" xlink:href="#m7062e01d87" y="284.396678918"/>
     <use style="fill:#fa8e63;fill-opacity:0.8;" x="74.8701745443" xlink:href="#m7062e01d87" y="291.152107046"/>
     <use style="fill:#fa8e63;fill-opacity:0.8;" x="112.955749336" xlink:href="#m7062e01d87" y="51.4387994577"/>
     <use style="fill:#fa8e63;fill-opacity:0.8;" x="77.6922371094" xlink:href="#m7062e01d87" y="282.038017371"/>
    </g>
   </g>
   <g id="PolyCollection_1">
    <defs>
     <path d="
M72.0481 -116.428
L72.0481 -73.5773
L74.5269 -73.8546
L77.0056 -74.1611
L79.4844 -74.4793
L81.9631 -74.8265
L84.4419 -75.1897
L86.9206 -75.5534
L89.3994 -75.8959
L91.8782 -76.2499
L94.3569 -76.6149
L96.8357 -76.9922
L99.3144 -77.3821
L101.793 -77.7849
L104.272 -78.201
L106.751 -78.5964
L109.229 -78.9771
L111.708 -79.4186
L114.187 -79.8968
L116.666 -80.4126
L119.144 -80.9461
L121.623 -81.493
L124.102 -82.0194
L126.581 -82.5645
L129.059 -83.1921
L131.538 -83.7829
L134.017 -84.3923
L136.496 -85.0149
L138.974 -85.5925
L141.453 -86.1882
L143.932 -86.8561
L146.411 -87.5463
L148.89 -88.2932
L151.368 -89.0999
L153.847 -89.9334
L156.326 -90.7931
L158.805 -91.6181
L161.283 -92.5854
L163.762 -93.4946
L166.241 -94.2798
L168.72 -95.2622
L171.198 -96.2752
L173.677 -97.3182
L176.156 -98.3265
L178.635 -99.3202
L181.113 -100.339
L183.592 -101.385
L186.071 -102.414
L188.55 -103.479
L191.028 -104.643
L193.507 -105.849
L195.986 -107.076
L198.465 -108.35
L200.943 -109.589
L203.422 -110.764
L205.901 -112.055
L208.38 -113.673
L210.858 -115.082
L213.337 -116.529
L215.816 -117.998
L218.295 -119.497
L220.773 -121.033
L223.252 -122.601
L225.731 -124.2
L228.21 -125.83
L230.688 -127.439
L233.167 -128.716
L235.646 -130.253
L238.125 -131.556
L240.603 -133.269
L243.082 -134.841
L245.561 -136.585
L248.04 -137.888
L250.518 -139.41
L252.997 -140.514
L255.476 -141.897
L257.955 -143.687
L260.433 -145.05
L262.912 -146.289
L265.391 -147.492
L267.87 -148.728
L270.349 -150.165
L272.827 -151.675
L275.306 -152.902
L277.785 -154.454
L280.264 -155.639
L282.742 -156.692
L285.221 -157.757
L287.7 -158.995
L290.179 -160.577
L292.657 -162.215
L295.136 -163.365
L297.615 -164.675
L300.094 -165.894
L302.572 -166.902
L305.051 -168.128
L307.53 -169.514
L310.009 -170.949
L312.487 -172.098
L314.966 -173.138
L317.445 -174.252
L317.445 -229.453
L317.445 -229.453
L314.966 -227.257
L312.487 -225.814
L310.009 -224.114
L307.53 -221.996
L305.051 -219.992
L302.572 -218.195
L300.094 -216.436
L297.615 -214.583
L295.136 -212.75
L292.657 -210.907
L290.179 -209.049
L287.7 -207.517
L285.221 -206.031
L282.742 -204.018
L280.264 -202.116
L277.785 -200.416
L275.306 -198.738
L272.827 -197.11
L270.349 -195.588
L267.87 -193.773
L265.391 -192.102
L262.912 -190.349
L260.433 -188.667
L257.955 -186.714
L255.476 -185.148
L252.997 -183.639
L250.518 -182.093
L248.04 -180.79
L245.561 -179.437
L243.082 -177.987
L240.603 -176.44
L238.125 -174.959
L235.646 -173.35
L233.167 -172.073
L230.688 -170.88
L228.21 -169.766
L225.731 -168.503
L223.252 -167.32
L220.773 -166.162
L218.295 -164.919
L215.816 -163.808
L213.337 -162.647
L210.858 -161.541
L208.38 -160.599
L205.901 -159.392
L203.422 -158.335
L200.943 -157.275
L198.465 -155.976
L195.986 -154.684
L193.507 -153.772
L191.028 -152.866
L188.55 -151.976
L186.071 -151.1
L183.592 -150.227
L181.113 -149.291
L178.635 -148.343
L176.156 -147.262
L173.677 -146.413
L171.198 -145.506
L168.72 -144.607
L166.241 -143.805
L163.762 -143.055
L161.283 -142.302
L158.805 -141.438
L156.326 -140.575
L153.847 -139.718
L151.368 -138.863
L148.89 -138.113
L146.411 -137.289
L143.932 -136.349
L141.453 -135.507
L138.974 -134.501
L136.496 -133.556
L134.017 -132.644
L131.538 -131.74
L129.059 -130.844
L126.581 -130.02
L124.102 -129.23
L121.623 -128.646
L119.144 -128.158
L116.666 -127.561
L114.187 -126.8
L111.708 -126.046
L109.229 -125.298
L106.751 -124.577
L104.272 -124.024
L101.793 -123.495
L99.3144 -122.945
L96.8357 -122.446
L94.3569 -121.948
L91.8782 -121.259
L89.3994 -120.71
L86.9206 -120.161
L84.4419 -119.615
L81.9631 -118.972
L79.4844 -118.329
L77.0056 -117.693
L74.5269 -117.059
L72.0481 -116.428
z
" id="m87705be6ca" style="stroke:#fa8e63;stroke-opacity:0.15;stroke-width:0.24;"/>
    </defs>
    <g clip-path="url(#p9aa6d294ba)">
     <use style="fill:#fa8e63;fill-opacity:0.15;stroke:#fa8e63;stroke-opacity:0.15;stroke-width:0.24;" x="0.0" xlink:href="#m87705be6ca" y="360.0"/>
    </g>
   </g>
   <g id="PathCollection_2">
    <path clip-path="url(#p9aa6d294ba)" d="
M84.3179 290.775
C86.329 290.775 88.2579 289.976 89.6799 288.554
C91.1018 287.132 91.9008 285.203 91.9008 283.192
C91.9008 281.181 91.1018 279.252 89.6799 277.83
C88.2579 276.408 86.329 275.609 84.3179 275.609
C82.3069 275.609 80.378 276.408 78.956 277.83
C77.5341 279.252 76.7351 281.181 76.7351 283.192
C76.7351 285.203 77.5341 287.132 78.956 288.554
C80.378 289.976 82.3069 290.775 84.3179 290.775
z
" style="fill:#262626;fill-opacity:0.8;"/>
    <path clip-path="url(#p9aa6d294ba)" d="
M108.858 214.038
C109.885 214.038 110.87 213.63 111.596 212.904
C112.323 212.178 112.731 211.192 112.731 210.165
C112.731 209.138 112.323 208.153 111.596 207.427
C110.87 206.7 109.885 206.292 108.858 206.292
C107.83 206.292 106.845 206.7 106.119 207.427
C105.393 208.153 104.985 209.138 104.985 210.165
C104.985 211.192 105.393 212.178 106.119 212.904
C106.845 213.63 107.83 214.038 108.858 214.038
z
" style="fill:#262626;fill-opacity:0.8;"/>
    <path clip-path="url(#p9aa6d294ba)" d="
M133.397 226.346
C134.507 226.346 135.571 225.905 136.355 225.121
C137.14 224.336 137.581 223.272 137.581 222.163
C137.581 221.053 137.14 219.989 136.355 219.204
C135.571 218.42 134.507 217.979 133.397 217.979
C132.288 217.979 131.224 218.42 130.439 219.204
C129.655 219.989 129.214 221.053 129.214 222.163
C129.214 223.272 129.655 224.336 130.439 225.121
C131.224 225.905 132.288 226.346 133.397 226.346
z
" style="fill:#262626;fill-opacity:0.8;"/>
    <path clip-path="url(#p9aa6d294ba)" d="
M157.937 212.904
C158.663 212.904 159.36 212.615 159.873 212.102
C160.387 211.588 160.676 210.892 160.676 210.165
C160.676 209.439 160.387 208.742 159.873 208.229
C159.36 207.715 158.663 207.427 157.937 207.427
C157.211 207.427 156.514 207.715 156 208.229
C155.487 208.742 155.198 209.439 155.198 210.165
C155.198 210.892 155.487 211.588 156 212.102
C156.514 212.615 157.211 212.904 157.937 212.904
z
" style="fill:#262626;fill-opacity:0.8;"/>
    <path clip-path="url(#p9aa6d294ba)" d="
M182.477 212.904
C183.203 212.904 183.9 212.615 184.413 212.102
C184.927 211.588 185.215 210.892 185.215 210.165
C185.215 209.439 184.927 208.742 184.413 208.229
C183.9 207.715 183.203 207.427 182.477 207.427
C181.75 207.427 181.054 207.715 180.54 208.229
C180.027 208.742 179.738 209.439 179.738 210.165
C179.738 210.892 180.027 211.588 180.54 212.102
C181.054 212.615 181.75 212.904 182.477 212.904
z
" style="fill:#262626;fill-opacity:0.8;"/>
    <path clip-path="url(#p9aa6d294ba)" d="
M207.016 234.323
C207.855 234.323 208.659 233.989 209.252 233.396
C209.845 232.803 210.179 231.999 210.179 231.16
C210.179 230.322 209.845 229.517 209.252 228.924
C208.659 228.331 207.855 227.998 207.016 227.998
C206.178 227.998 205.373 228.331 204.78 228.924
C204.187 229.517 203.854 230.322 203.854 231.16
C203.854 231.999 204.187 232.803 204.78 233.396
C205.373 233.989 206.178 234.323 207.016 234.323
z
" style="fill:#262626;fill-opacity:0.8;"/>
    <path clip-path="url(#p9aa6d294ba)" d="
M231.556 297.681
C232.494 297.681 233.393 297.309 234.056 296.646
C234.719 295.983 235.092 295.083 235.092 294.146
C235.092 293.208 234.719 292.309 234.056 291.646
C233.393 290.983 232.494 290.61 231.556 290.61
C230.618 290.61 229.719 290.983 229.056 291.646
C228.393 292.309 228.02 293.208 228.02 294.146
C228.02 295.083 228.393 295.983 229.056 296.646
C229.719 297.309 230.618 297.681 231.556 297.681
z
" style="fill:#262626;fill-opacity:0.8;"/>
    <path clip-path="url(#p9aa6d294ba)" d="
M256.096 158.922
C257.354 158.922 258.56 158.422 259.45 157.532
C260.339 156.643 260.839 155.436 260.839 154.178
C260.839 152.92 260.339 151.714 259.45 150.824
C258.56 149.935 257.354 149.435 256.096 149.435
C254.838 149.435 253.631 149.935 252.742 150.824
C251.852 151.714 251.352 152.92 251.352 154.178
C251.352 155.436 251.852 156.643 252.742 157.532
C253.631 158.422 254.838 158.922 256.096 158.922
z
" style="fill:#262626;fill-opacity:0.8;"/>
    <path clip-path="url(#p9aa6d294ba)" d="
M280.635 194.647
C282.088 194.647 283.481 194.07 284.508 193.043
C285.535 192.016 286.113 190.623 286.113 189.17
C286.113 187.718 285.535 186.324 284.508 185.297
C283.481 184.27 282.088 183.693 280.635 183.693
C279.183 183.693 277.789 184.27 276.762 185.297
C275.735 186.324 275.158 187.718 275.158 189.17
C275.158 190.623 275.735 192.016 276.762 193.043
C277.789 194.07 279.183 194.647 280.635 194.647
z
" style="fill:#262626;fill-opacity:0.8;"/>
    <path clip-path="url(#p9aa6d294ba)" d="
M305.175 176.829
C308.806 176.829 312.29 175.386 314.857 172.819
C317.425 170.251 318.868 166.768 318.868 163.136
C318.868 159.505 317.425 156.022 314.857 153.454
C312.29 150.886 308.806 149.443 305.175 149.443
C301.544 149.443 298.06 150.886 295.493 153.454
C292.925 156.022 291.482 159.505 291.482 163.136
C291.482 166.768 292.925 170.251 295.493 172.819
C298.06 175.386 301.544 176.829 305.175 176.829
z
" style="fill:#262626;fill-opacity:0.8;"/>
   </g>
   <g id="line2d_13">
    <path clip-path="url(#p9aa6d294ba)" d="
M72.0481 268.226
L74.5269 267.678
L77.0056 267.119
L79.4844 266.55
L81.9631 265.971
L84.4419 265.381
L86.9206 264.78
L89.3994 264.169
L91.8782 263.546
L94.3569 262.913
L96.8357 262.268
L99.3144 261.612
L101.793 260.944
L104.272 260.265
L106.751 259.574
L109.229 258.871
L111.708 258.156
L114.187 257.43
L116.666 256.691
L119.144 255.94
L121.623 255.177
L124.102 254.401
L126.581 253.612
L129.059 252.812
L131.538 251.998
L134.017 251.172
L136.496 250.333
L138.974 249.481
L141.453 248.616
L143.932 247.738
L146.411 246.847
L148.89 245.943
L151.368 245.026
L153.847 244.095
L156.326 243.152
L158.805 242.195
L161.283 241.225
L163.762 240.242
L166.241 239.245
L168.72 238.235
L171.198 237.213
L173.677 236.176
L176.156 235.127
L178.635 234.065
L181.113 232.99
L183.592 231.901
L186.071 230.8
L188.55 229.686
L191.028 228.559
L193.507 227.419
L195.986 226.267
L198.465 225.102
L200.943 223.925
L203.422 222.736
L205.901 221.534
L208.38 220.321
L210.858 219.096
L213.337 217.859
L215.816 216.611
L218.295 215.351
L220.773 214.081
L223.252 212.799
L225.731 211.507
L228.21 210.205
L230.688 208.892
L233.167 207.569
L235.646 206.237
L238.125 204.895
L240.603 203.544
L243.082 202.184
L245.561 200.816
L248.04 199.439
L250.518 198.055
L252.997 196.662
L255.476 195.262
L257.955 193.855
L260.433 192.442
L262.912 191.022
L265.391 189.596
L267.87 188.164
L270.349 186.727
L272.827 185.285
L275.306 183.839
L277.785 182.388
L280.264 180.934
L282.742 179.476
L285.221 178.015
L287.7 176.551
L290.179 175.085
L292.657 173.617
L295.136 172.148
L297.615 170.677
L300.094 169.206
L302.572 167.735
L305.051 166.263
L307.53 164.793
L310.009 163.323
L312.487 161.854
L314.966 160.388
L317.445 158.923" style="fill:none;stroke:#fa8e63;stroke-linecap:round;stroke-width:2.1;"/>
   </g>
   <g id="patch_3">
    <path d="
M47.5084 319.34
L341.985 319.34" style="fill:none;stroke:#262626;stroke-linecap:square;stroke-linejoin:miter;stroke-width:1.25;"/>
   </g>
   <g id="patch_4">
    <path d="
M47.5084 319.34
L47.5084 17.01" style="fill:none;stroke:#262626;stroke-linecap:square;stroke-linejoin:miter;stroke-width:1.25;"/>
   </g>
   <g id="text_15">
    <!-- GoogLeNet -->
    <defs>
     <path d="
M13.4844 24.5625
Q13.4844 20.4062 14.3281 16.9062
Q15.1875 13.4219 16.9688 10.9062
Q18.75 8.40625 21.5312 7
Q24.3125 5.60938 28.2188 5.60938
Q33.9375 5.60938 37.375 7.90625
Q40.8281 10.2031 42.0469 13.7188
L49.75 11.5312
Q48.9219 9.32812 47.4375 7.10938
Q45.9531 4.89062 43.4531 3.09375
Q40.9688 1.3125 37.2344 0.15625
Q33.5 -0.984375 28.2188 -0.984375
Q16.5 -0.984375 10.375 6
Q4.25 12.9844 4.25 26.7656
Q4.25 34.1875 6.09375 39.3281
Q7.95312 44.4844 11.1719 47.7031
Q14.4062 50.9219 18.7031 52.3594
Q23 53.8125 27.875 53.8125
Q34.5156 53.8125 38.9844 51.6562
Q43.4531 49.5156 46.1562 45.7188
Q48.875 41.9375 50.0156 36.8125
Q51.1719 31.6875 51.1719 25.7344
L51.1719 24.5625
z

M42.0938 31.2969
Q41.3594 39.6562 37.8438 43.4844
Q34.3281 47.3125 27.7344 47.3125
Q25.5312 47.3125 23.1094 46.6094
Q20.7031 45.9062 18.6562 44.0938
Q16.6094 42.2812 15.1875 39.1719
Q13.7656 36.0781 13.5781 31.2969
z
" id="LiberationSans-65"/>
     <path d="
M26.7656 -20.75
Q22.2188 -20.75 18.7031 -19.8125
Q15.1875 -18.8906 12.6875 -17.1562
Q10.2031 -15.4375 8.64062 -13.0312
Q7.07812 -10.6406 6.39062 -7.71875
L15.2344 -6.45312
Q16.1094 -10.1094 19.1094 -12.0781
Q22.125 -14.0625 27 -14.0625
Q29.9844 -14.0625 32.4219 -13.2344
Q34.8594 -12.4062 36.5625 -10.5625
Q38.2812 -8.73438 39.2031 -5.79688
Q40.1406 -2.875 40.1406 1.3125
L40.1406 9.8125
L40.0469 9.8125
Q39.0625 7.8125 37.625 5.98438
Q36.1875 4.15625 34.1094 2.73438
Q32.0312 1.3125 29.2969 0.453125
Q26.5625 -0.390625 23.0469 -0.390625
Q18.0156 -0.390625 14.4219 1.29688
Q10.8438 2.98438 8.5625 6.34375
Q6.29688 9.71875 5.25 14.7188
Q4.20312 19.7344 4.20312 26.3125
Q4.20312 32.6719 5.25 37.75
Q6.29688 42.8281 8.65625 46.3594
Q11.0312 49.9062 14.8125 51.7812
Q18.6094 53.6562 24.0312 53.6562
Q29.6406 53.6562 33.7656 51.0938
Q37.8906 48.5312 40.1406 43.7969
L40.2344 43.7969
Q40.2344 45.0156 40.2969 46.5312
Q40.375 48.0469 40.4531 49.3906
Q40.5312 50.7344 40.625 51.7031
Q40.7188 52.6875 40.8281 52.8281
L49.1719 52.8281
Q49.125 52.3906 49.0781 51.3438
Q49.0312 50.2969 48.9688 48.8281
Q48.9219 47.3594 48.8906 45.5781
Q48.875 43.7969 48.875 41.8906
L48.875 1.51562
Q48.875 -9.57812 43.4219 -15.1562
Q37.9844 -20.75 26.7656 -20.75
M40.1406 26.4219
Q40.1406 31.9375 38.9375 35.8594
Q37.75 39.7969 35.7969 42.2812
Q33.8438 44.7812 31.3281 45.9531
Q28.8125 47.125 26.1719 47.125
Q22.7969 47.125 20.375 45.9531
Q17.9688 44.7812 16.375 42.2656
Q14.7969 39.75 14.0312 35.8125
Q13.2812 31.8906 13.2812 26.4219
Q13.2812 20.7031 14.0312 16.8125
Q14.7969 12.9375 16.3594 10.5469
Q17.9219 8.15625 20.3125 7.125
Q22.7031 6.10938 26.0312 6.10938
Q28.6562 6.10938 31.1719 7.21875
Q33.6875 8.34375 35.6875 10.7812
Q37.7031 13.2344 38.9219 17.0938
Q40.1406 20.9531 40.1406 26.4219" id="LiberationSans-67"/>
     <path d="
M27.0469 0.390625
Q25.0469 -0.140625 22.9688 -0.453125
Q20.9062 -0.78125 18.1719 -0.78125
Q7.625 -0.78125 7.625 11.1875
L7.625 46.4375
L1.51562 46.4375
L1.51562 52.8281
L7.95312 52.8281
L10.5469 64.6562
L16.4062 64.6562
L16.4062 52.8281
L26.1719 52.8281
L26.1719 46.4375
L16.4062 46.4375
L16.4062 13.0938
Q16.4062 9.28125 17.6406 7.73438
Q18.8906 6.20312 21.9688 6.20312
Q23.25 6.20312 24.4375 6.39062
Q25.6406 6.59375 27.0469 6.89062
z
" id="LiberationSans-74"/>
     <path d="
M52.8281 0
L16.0156 58.5938
Q16.1094 56.2031 16.2656 53.8594
Q16.3594 51.8594 16.4219 49.625
Q16.5 47.4062 16.5 45.7031
L16.5 0
L8.20312 0
L8.20312 68.7969
L19.0469 68.7969
L56.25 9.8125
Q56.1094 12.2031 55.9531 14.5938
Q55.8594 16.6562 55.7656 19.0625
Q55.6719 21.4844 55.6719 23.6875
L55.6719 68.7969
L64.0625 68.7969
L64.0625 0
z
" id="LiberationSans-4e"/>
     <path d="
M8.20312 0
L8.20312 68.7969
L17.5312 68.7969
L17.5312 7.625
L52.2969 7.625
L52.2969 0
z
" id="LiberationSans-4c"/>
     <path d="
M51.4219 26.4688
Q51.4219 12.5938 45.3125 5.79688
Q39.2031 -0.984375 27.5938 -0.984375
Q22.0781 -0.984375 17.7188 0.671875
Q13.375 2.34375 10.375 5.76562
Q7.375 9.1875 5.78125 14.3281
Q4.20312 19.4844 4.20312 26.4688
Q4.20312 53.8125 27.875 53.8125
Q34.0312 53.8125 38.5 52.0938
Q42.9688 50.3906 45.8281 46.9688
Q48.6875 43.5625 50.0469 38.4219
Q51.4219 33.2969 51.4219 26.4688
M42.1875 26.4688
Q42.1875 32.625 41.2344 36.625
Q40.2812 40.625 38.4531 43.0156
Q36.625 45.4062 33.9844 46.3594
Q31.3438 47.3125 28.0312 47.3125
Q24.6562 47.3125 21.9375 46.3125
Q19.2344 45.3125 17.3281 42.8906
Q15.4375 40.4844 14.4219 36.4688
Q13.4219 32.4688 13.4219 26.4688
Q13.4219 20.3125 14.5 16.2812
Q15.5781 12.25 17.4531 9.85938
Q19.3438 7.46875 21.9062 6.48438
Q24.4688 5.51562 27.4844 5.51562
Q30.8594 5.51562 33.5938 6.46875
Q36.3281 7.42188 38.2344 9.8125
Q40.1406 12.2031 41.1562 16.25
Q42.1875 20.3125 42.1875 26.4688" id="LiberationSans-6f"/>
     <path d="
M5.03125 34.7188
Q5.03125 42.7812 7.20312 49.2656
Q9.375 55.7656 13.6875 60.3281
Q18.0156 64.8906 24.4062 67.3594
Q30.8125 69.8281 39.2656 69.8281
Q45.6094 69.8281 50.3906 68.7031
Q55.1719 67.5781 58.6875 65.4688
Q62.2031 63.375 64.6406 60.375
Q67.0938 57.375 68.7969 53.6094
L59.9062 50.9844
Q58.6406 53.5156 56.8594 55.5938
Q55.0781 57.6719 52.5312 59.125
Q50 60.5938 46.6562 61.3906
Q43.3125 62.2031 39.0156 62.2031
Q32.7656 62.2031 28.1406 60.25
Q23.5312 58.2969 20.5 54.6875
Q17.4844 51.0781 15.9844 46
Q14.5 40.9219 14.5 34.7188
Q14.5 28.5156 16.1094 23.3594
Q17.7188 18.2188 20.8906 14.4844
Q24.0781 10.75 28.7812 8.67188
Q33.5 6.59375 39.7031 6.59375
Q43.75 6.59375 47.1719 7.26562
Q50.5938 7.95312 53.3438 9.04688
Q56.1094 10.1562 58.2031 11.5
Q60.2969 12.8438 61.7188 14.2031
L61.7188 26.6094
L41.1562 26.6094
L41.1562 34.4219
L70.3125 34.4219
L70.3125 10.6875
Q68.0156 8.34375 64.9062 6.21875
Q61.8125 4.10938 57.9531 2.48438
Q54.1094 0.875 49.5156 -0.046875
Q44.9219 -0.984375 39.7031 -0.984375
Q31 -0.984375 24.5 1.67188
Q18.0156 4.34375 13.6875 9.10938
Q9.375 13.875 7.20312 20.4062
Q5.03125 26.9531 5.03125 34.7188" id="LiberationSans-47"/>
    </defs>
    <g style="fill:#262626;" transform="translate(170.474234375 12.01)scale(0.096 -0.096)">
     <use xlink:href="#LiberationSans-47"/>
     <use x="77.783203125" xlink:href="#LiberationSans-6f"/>
     <use x="133.3984375" xlink:href="#LiberationSans-6f"/>
     <use x="189.013671875" xlink:href="#LiberationSans-67"/>
     <use x="244.62890625" xlink:href="#LiberationSans-4c"/>
     <use x="300.244140625" xlink:href="#LiberationSans-65"/>
     <use x="355.859375" xlink:href="#LiberationSans-4e"/>
     <use x="428.076171875" xlink:href="#LiberationSans-65"/>
     <use x="483.69140625" xlink:href="#LiberationSans-74"/>
    </g>
   </g>
  </g>
 </g>
 <defs>
  <clipPath id="p9aa6d294ba">
   <rect height="302.33" width="294.47609375" x="47.5084375" y="17.01"/>
  </clipPath>
 </defs>
</svg>
