<?xml version="1.0" encoding="utf-8" standalone="no"?>
<!DOCTYPE svg PUBLIC "-//W3C//DTD SVG 1.1//EN"
  "http://www.w3.org/Graphics/SVG/1.1/DTD/svg11.dtd">
<!-- Created with matplotlib (http://matplotlib.org/) -->
<svg height="354pt" version="1.1" viewBox="0 0 338 354" width="338pt" xmlns="http://www.w3.org/2000/svg" xmlns:xlink="http://www.w3.org/1999/xlink">
 <defs>
  <style type="text/css">
*{stroke-linecap:butt;stroke-linejoin:round;}
  </style>
 </defs>
 <g id="figure_1">
  <g id="patch_1">
   <path d="
M0 354.948
L338.253 354.948
L338.253 0
L0 0
z
" style="fill:#ffffff;"/>
  </g>
  <g id="axes_1">
   <g id="patch_2">
    <path d="
M36.577 321.487
L331.053 321.487
L331.053 19.157
L36.577 19.157
z
" style="fill:#ffffff;"/>
   </g>
   <g id="matplotlib.axis_1">
    <g id="xtick_1">
     <g id="line2d_1">
      <defs>
       <path d="
M0 0
L0 0" id="m9ceacb34a3" style="stroke:#262626;stroke-width:0.8;"/>
      </defs>
      <g>
       <use style="fill:#262626;stroke:#262626;stroke-width:0.8;" x="61.1166744792" xlink:href="#m9ceacb34a3" y="321.487"/>
      </g>
     </g>
     <g id="text_1">
      <!-- 0.0 -->
      <defs>
       <path d="
M9.125 0
L9.125 10.6875
L18.6562 10.6875
L18.6562 0
z
" id="LiberationSans-2e"/>
       <path d="
M51.7031 34.4219
Q51.7031 24.5156 49.8281 17.75
Q47.9531 10.9844 44.7031 6.8125
Q41.4531 2.64062 37.0625 0.828125
Q32.6719 -0.984375 27.6875 -0.984375
Q22.6562 -0.984375 18.3125 0.828125
Q13.9688 2.64062 10.7656 6.78125
Q7.5625 10.9375 5.73438 17.7031
Q3.90625 24.4688 3.90625 34.4219
Q3.90625 44.8281 5.73438 51.6406
Q7.5625 58.4531 10.7812 62.5
Q14.0156 66.5469 18.4062 68.1875
Q22.7969 69.8281 27.9844 69.8281
Q32.9062 69.8281 37.2188 68.1875
Q41.5469 66.5469 44.7656 62.5
Q48 58.4531 49.8438 51.6406
Q51.7031 44.8281 51.7031 34.4219
M42.7812 34.4219
Q42.7812 42.625 41.7969 48.0625
Q40.8281 53.5156 38.9219 56.7656
Q37.0156 60.0156 34.25 61.3594
Q31.5 62.7031 27.9844 62.7031
Q24.2656 62.7031 21.4375 61.3281
Q18.6094 59.9688 16.6719 56.7188
Q14.75 53.4688 13.7656 48.0156
Q12.7969 42.5781 12.7969 34.4219
Q12.7969 26.5156 13.7969 21.0938
Q14.7969 15.6719 16.7188 12.375
Q18.6562 9.07812 21.4375 7.64062
Q24.2188 6.20312 27.7812 6.20312
Q31.25 6.20312 34.0312 7.64062
Q36.8125 9.07812 38.7344 12.375
Q40.6719 15.6719 41.7188 21.0938
Q42.7812 26.5156 42.7812 34.4219" id="LiberationSans-30"/>
      </defs>
      <g style="fill:#262626;" transform="translate(55.8691744792 332.8845)scale(0.08 -0.08)">
       <use xlink:href="#LiberationSans-30"/>
       <use x="55.615234375" xlink:href="#LiberationSans-2e"/>
       <use x="83.3984375" xlink:href="#LiberationSans-30"/>
      </g>
     </g>
    </g>
    <g id="xtick_2">
     <g id="line2d_2">
      <g>
       <use style="fill:#262626;stroke:#262626;stroke-width:0.8;" x="110.196023438" xlink:href="#m9ceacb34a3" y="321.487"/>
      </g>
     </g>
     <g id="text_2">
      <!-- 0.2 -->
      <defs>
       <path d="
M5.03125 0
L5.03125 6.20312
Q7.51562 11.9219 11.1094 16.2812
Q14.7031 20.6562 18.6562 24.1875
Q22.6094 27.7344 26.4844 30.7656
Q30.375 33.7969 33.5 36.8125
Q36.625 39.8438 38.5469 43.1562
Q40.4844 46.4844 40.4844 50.6875
Q40.4844 53.6094 39.5938 55.8281
Q38.7188 58.0625 37.0625 59.5625
Q35.4062 61.0781 33.0781 61.8281
Q30.7656 62.5938 27.9375 62.5938
Q25.2969 62.5938 22.9688 61.8594
Q20.6562 61.1406 18.8438 59.6719
Q17.0469 58.2031 15.8906 56.0312
Q14.75 53.8594 14.4062 50.9844
L5.42188 51.8125
Q5.85938 55.5156 7.46875 58.7812
Q9.07812 62.0625 11.9062 64.5312
Q14.75 67 18.7188 68.4062
Q22.7031 69.8281 27.9375 69.8281
Q33.0625 69.8281 37.0625 68.6094
Q41.0625 67.3906 43.8125 64.9844
Q46.5781 62.5938 48.0469 59.0781
Q49.5156 55.5625 49.5156 50.9844
Q49.5156 47.5156 48.2656 44.3906
Q47.0156 41.2656 44.9375 38.4219
Q42.875 35.5938 40.1406 32.9531
Q37.4062 30.3281 34.4219 27.8125
Q31.4531 25.2969 28.4219 22.8281
Q25.3906 20.3594 22.7188 17.8594
Q20.0625 15.375 17.9688 12.8125
Q15.875 10.25 14.7031 7.46875
L50.5938 7.46875
L50.5938 0
z
" id="LiberationSans-32"/>
      </defs>
      <g style="fill:#262626;" transform="translate(104.992898438 332.8845)scale(0.08 -0.08)">
       <use xlink:href="#LiberationSans-30"/>
       <use x="55.615234375" xlink:href="#LiberationSans-2e"/>
       <use x="83.3984375" xlink:href="#LiberationSans-32"/>
      </g>
     </g>
    </g>
    <g id="xtick_3">
     <g id="line2d_3">
      <g>
       <use style="fill:#262626;stroke:#262626;stroke-width:0.8;" x="159.275372396" xlink:href="#m9ceacb34a3" y="321.487"/>
      </g>
     </g>
     <g id="text_3">
      <!-- 0.4 -->
      <defs>
       <path d="
M43.0156 15.5781
L43.0156 0
L34.7188 0
L34.7188 15.5781
L2.29688 15.5781
L2.29688 22.4062
L33.7969 68.7969
L43.0156 68.7969
L43.0156 22.5156
L52.6875 22.5156
L52.6875 15.5781
z

M34.7188 58.8906
Q34.625 58.6406 34.2344 57.9375
Q33.8438 57.2344 33.3438 56.3438
Q32.8594 55.4688 32.3438 54.5625
Q31.8438 53.6562 31.4531 53.0781
L13.8125 27.0938
Q13.5781 26.7031 13.1094 26.0625
Q12.6406 25.4375 12.1562 24.7812
Q11.6719 24.125 11.1719 23.4844
Q10.6875 22.8594 10.4062 22.5156
L34.7188 22.5156
z
" id="LiberationSans-34"/>
      </defs>
      <g style="fill:#262626;" transform="translate(153.988497396 332.8845)scale(0.08 -0.08)">
       <use xlink:href="#LiberationSans-30"/>
       <use x="55.615234375" xlink:href="#LiberationSans-2e"/>
       <use x="83.3984375" xlink:href="#LiberationSans-34"/>
      </g>
     </g>
    </g>
    <g id="xtick_4">
     <g id="line2d_4">
      <g>
       <use style="fill:#262626;stroke:#262626;stroke-width:0.8;" x="208.354721354" xlink:href="#m9ceacb34a3" y="321.487"/>
      </g>
     </g>
     <g id="text_4">
      <!-- 0.6 -->
      <defs>
       <path d="
M51.2188 22.5156
Q51.2188 17.3281 49.7812 13
Q48.3438 8.6875 45.5312 5.57812
Q42.7188 2.48438 38.5625 0.75
Q34.4219 -0.984375 29 -0.984375
Q23 -0.984375 18.5 1.3125
Q14.0156 3.60938 11.0312 7.92188
Q8.0625 12.25 6.5625 18.5312
Q5.07812 24.8125 5.07812 32.8125
Q5.07812 42 6.76562 48.9219
Q8.45312 55.8594 11.625 60.5
Q14.7969 65.1406 19.3594 67.4844
Q23.9219 69.8281 29.6875 69.8281
Q33.2031 69.8281 36.2812 69.0938
Q39.3594 68.3594 41.875 66.7188
Q44.3906 65.0938 46.2812 62.4062
Q48.1875 59.7188 49.3125 55.8125
L40.9219 54.2969
Q39.5469 58.7344 36.5469 60.7188
Q33.5469 62.7031 29.5938 62.7031
Q25.9844 62.7031 23.0469 60.9844
Q20.125 59.2812 18.0625 55.875
Q16.0156 52.4844 14.9062 47.3594
Q13.8125 42.2344 13.8125 35.4062
Q16.2188 39.8438 20.5625 42.1562
Q24.9062 44.4844 30.5156 44.4844
Q35.2031 44.4844 39.0156 42.9688
Q42.8281 41.4531 45.5312 38.5938
Q48.25 35.75 49.7344 31.6719
Q51.2188 27.5938 51.2188 22.5156
M42.2812 22.125
Q42.2812 25.6875 41.4062 28.5625
Q40.5312 31.4531 38.7656 33.4688
Q37.0156 35.5 34.4219 36.5938
Q31.8438 37.7031 28.4219 37.7031
Q26.0312 37.7031 23.5781 36.9844
Q21.1406 36.2812 19.1562 34.6875
Q17.1875 33.1094 15.9375 30.5156
Q14.7031 27.9375 14.7031 24.2188
Q14.7031 20.4062 15.6719 17.1094
Q16.6562 13.8125 18.4844 11.375
Q20.3125 8.9375 22.8906 7.51562
Q25.4844 6.10938 28.7188 6.10938
Q31.8906 6.10938 34.4062 7.20312
Q36.9219 8.29688 38.6719 10.375
Q40.4375 12.4531 41.3594 15.4219
Q42.2812 18.4062 42.2812 22.125" id="LiberationSans-36"/>
      </defs>
      <g style="fill:#262626;" transform="translate(203.126596354 332.8845)scale(0.08 -0.08)">
       <use xlink:href="#LiberationSans-30"/>
       <use x="55.615234375" xlink:href="#LiberationSans-2e"/>
       <use x="83.3984375" xlink:href="#LiberationSans-36"/>
      </g>
     </g>
    </g>
    <g id="xtick_5">
     <g id="line2d_5">
      <g>
       <use style="fill:#262626;stroke:#262626;stroke-width:0.8;" x="257.434070312" xlink:href="#m9ceacb34a3" y="321.487"/>
      </g>
     </g>
     <g id="text_5">
      <!-- 0.8 -->
      <defs>
       <path d="
M51.2656 19.1875
Q51.2656 14.7969 49.875 11.1094
Q48.4844 7.42188 45.625 4.73438
Q42.7812 2.04688 38.3281 0.53125
Q33.8906 -0.984375 27.8281 -0.984375
Q21.7812 -0.984375 17.3594 0.53125
Q12.9375 2.04688 10.0312 4.70312
Q7.125 7.375 5.73438 11.0625
Q4.34375 14.75 4.34375 19.0938
Q4.34375 22.8594 5.48438 25.7812
Q6.64062 28.7188 8.5625 30.8281
Q10.5 32.9531 12.9688 34.25
Q15.4375 35.5469 18.0625 35.9844
L18.0625 36.1875
Q15.1875 36.8594 12.9062 38.375
Q10.6406 39.8906 9.09375 42.0156
Q7.5625 44.1406 6.75 46.7188
Q5.95312 49.3125 5.95312 52.2031
Q5.95312 55.8125 7.34375 59
Q8.73438 62.2031 11.4688 64.625
Q14.2031 67.0469 18.25 68.4375
Q22.3125 69.8281 27.6406 69.8281
Q33.25 69.8281 37.375 68.4062
Q41.5 67 44.2031 64.5781
Q46.9219 62.1562 48.2344 58.9375
Q49.5625 55.7188 49.5625 52.0938
Q49.5625 49.2656 48.75 46.6719
Q47.9531 44.0938 46.4062 41.9688
Q44.875 39.8438 42.5938 38.3438
Q40.3281 36.8594 37.3594 36.2812
L37.3594 36.0781
Q40.3281 35.5938 42.8594 34.2969
Q45.4062 33.0156 47.2656 30.8906
Q49.125 28.7656 50.1875 25.8281
Q51.2656 22.9062 51.2656 19.1875
M40.4375 51.6094
Q40.4375 54.2031 39.7656 56.3438
Q39.1094 58.5 37.5938 60.0312
Q36.0781 61.5781 33.6406 62.4219
Q31.2031 63.2812 27.6406 63.2812
Q24.1719 63.2812 21.7812 62.4219
Q19.3906 61.5781 17.8438 60.0312
Q16.3125 58.5 15.625 56.3438
Q14.9375 54.2031 14.9375 51.6094
Q14.9375 49.5625 15.4688 47.4062
Q16.0156 45.2656 17.4219 43.5
Q18.8438 41.75 21.3281 40.625
Q23.8281 39.5 27.7344 39.5
Q31.8906 39.5 34.4062 40.625
Q36.9219 41.75 38.25 43.5
Q39.5938 45.2656 40.0156 47.4062
Q40.4375 49.5625 40.4375 51.6094
M42.1406 20.0156
Q42.1406 22.5156 41.4531 24.8281
Q40.7656 27.1562 39.1094 28.9375
Q37.4531 30.7188 34.6406 31.8125
Q31.8438 32.9062 27.6406 32.9062
Q23.7812 32.9062 21.0625 31.8125
Q18.3594 30.7188 16.6719 28.9062
Q14.9844 27.0938 14.2031 24.7188
Q13.4219 22.3594 13.4219 19.8281
Q13.4219 16.6562 14.2031 14.0312
Q14.9844 11.4219 16.6875 9.54688
Q18.4062 7.67188 21.1875 6.64062
Q23.9688 5.60938 27.9375 5.60938
Q31.9375 5.60938 34.6719 6.64062
Q37.4062 7.67188 39.0625 9.54688
Q40.7188 11.4219 41.4219 14.0781
Q42.1406 16.75 42.1406 20.0156" id="LiberationSans-38"/>
      </defs>
      <g style="fill:#262626;" transform="translate(252.204070312 332.8845)scale(0.08 -0.08)">
       <use xlink:href="#LiberationSans-30"/>
       <use x="55.615234375" xlink:href="#LiberationSans-2e"/>
       <use x="83.3984375" xlink:href="#LiberationSans-38"/>
      </g>
     </g>
    </g>
    <g id="xtick_6">
     <g id="line2d_6">
      <g>
       <use style="fill:#262626;stroke:#262626;stroke-width:0.8;" x="306.513419271" xlink:href="#m9ceacb34a3" y="321.487"/>
      </g>
     </g>
     <g id="text_6">
      <!-- 1.0 -->
      <defs>
       <path d="
M7.625 0
L7.625 7.46875
L25.1406 7.46875
L25.1406 60.4062
L9.625 49.3125
L9.625 57.625
L25.875 68.7969
L33.9844 68.7969
L33.9844 7.46875
L50.7344 7.46875
L50.7344 0
z
" id="LiberationSans-31"/>
      </defs>
      <g style="fill:#262626;" transform="translate(301.414669271 332.8845)scale(0.08 -0.08)">
       <use xlink:href="#LiberationSans-31"/>
       <use x="55.615234375" xlink:href="#LiberationSans-2e"/>
       <use x="83.3984375" xlink:href="#LiberationSans-30"/>
      </g>
     </g>
    </g>
    <g id="text_7">
     <!-- human accuracy -->
     <defs>
      <path d="
M6.9375 0
L6.9375 40.5312
Q6.9375 42.1875 6.90625 43.9219
Q6.89062 45.6562 6.82812 47.2656
Q6.78125 48.875 6.73438 50.2812
Q6.6875 51.7031 6.64062 52.8281
L14.9375 52.8281
Q14.9844 51.7031 15.0625 50.2656
Q15.1406 48.8281 15.2031 47.3125
Q15.2812 45.7969 15.2969 44.4062
Q15.3281 43.0156 15.3281 42.0469
L15.5312 42.0469
Q16.4531 45.0625 17.5 47.2812
Q18.5625 49.5156 19.9688 50.9531
Q21.3906 52.3906 23.3438 53.0938
Q25.2969 53.8125 28.0781 53.8125
Q29.1562 53.8125 30.125 53.6406
Q31.1094 53.4688 31.6406 53.3281
L31.6406 45.2656
Q30.7656 45.5156 29.5938 45.625
Q28.4219 45.75 26.9531 45.75
Q23.9219 45.75 21.7969 44.375
Q19.6719 43.0156 18.3281 40.5938
Q17 38.1875 16.3594 34.8438
Q15.7188 31.5 15.7188 27.5469
L15.7188 0
z
" id="LiberationSans-72"/>
      <path d="
M20.2188 -0.984375
Q12.25 -0.984375 8.25 3.21875
Q4.25 7.42188 4.25 14.75
Q4.25 19.9688 6.21875 23.3125
Q8.20312 26.6562 11.3906 28.5625
Q14.5938 30.4688 18.6875 31.2031
Q22.7969 31.9375 27.0469 32.0312
L38.9219 32.2344
L38.9219 35.1094
Q38.9219 38.375 38.2344 40.6719
Q37.5469 42.9688 36.125 44.375
Q34.7188 45.7969 32.5938 46.4531
Q30.4688 47.125 27.5938 47.125
Q25.0469 47.125 23 46.75
Q20.9531 46.3906 19.4375 45.4375
Q17.9219 44.4844 16.9844 42.8438
Q16.0625 41.2188 15.7656 38.7188
L6.59375 39.5469
Q7.07812 42.6719 8.4375 45.2812
Q9.8125 47.9062 12.3281 49.7969
Q14.8438 51.7031 18.625 52.75
Q22.4062 53.8125 27.7812 53.8125
Q37.75 53.8125 42.7656 49.2344
Q47.7969 44.6719 47.7969 36.0312
L47.7969 13.2812
Q47.7969 9.375 48.8281 7.39062
Q49.8594 5.42188 52.7344 5.42188
Q53.4688 5.42188 54.2031 5.51562
Q54.9375 5.60938 55.6094 5.76562
L55.6094 0.296875
Q53.9531 -0.09375 52.3125 -0.28125
Q50.6875 -0.484375 48.8281 -0.484375
Q46.3438 -0.484375 44.5625 0.171875
Q42.7812 0.828125 41.6562 2.17188
Q40.5312 3.51562 39.9375 5.48438
Q39.3594 7.46875 39.2031 10.1094
L38.9219 10.1094
Q37.5 7.5625 35.8125 5.51562
Q34.125 3.46875 31.875 2.03125
Q29.6406 0.59375 26.7812 -0.1875
Q23.9219 -0.984375 20.2188 -0.984375
M22.2188 5.60938
Q26.4219 5.60938 29.5625 7.14062
Q32.7188 8.6875 34.7812 11.0781
Q36.8594 13.4844 37.8906 16.3125
Q38.9219 19.1406 38.9219 21.7344
L38.9219 26.0781
L29.2969 25.875
Q26.0781 25.8281 23.1719 25.4062
Q20.2656 25 18.0625 23.7812
Q15.875 22.5625 14.5781 20.3594
Q13.2812 18.1719 13.2812 14.5938
Q13.2812 10.2969 15.5938 7.95312
Q17.9219 5.60938 22.2188 5.60938" id="LiberationSans-61"/>
      <path d="
M15.3281 52.8281
L15.3281 19.3438
Q15.3281 15.4844 15.8906 12.8906
Q16.4531 10.2969 17.7188 8.70312
Q19 7.125 21.0625 6.46875
Q23.1406 5.8125 26.2188 5.8125
Q29.3438 5.8125 31.8594 6.90625
Q34.375 8.01562 36.1562 10.0781
Q37.9375 12.1562 38.9062 15.2031
Q39.8906 18.2656 39.8906 22.2188
L39.8906 52.8281
L48.6875 52.8281
L48.6875 11.2812
Q48.6875 9.625 48.7031 7.78125
Q48.7344 5.95312 48.7812 4.3125
Q48.8281 2.6875 48.875 1.51562
Q48.9219 0.34375 48.9688 0
L40.6719 0
Q40.625 0.25 40.5781 1.3125
Q40.5312 2.39062 40.4531 3.78125
Q40.375 5.17188 40.3281 6.60938
Q40.2812 8.0625 40.2812 9.03125
L40.1406 9.03125
Q38.875 6.73438 37.3594 4.875
Q35.8438 3.03125 33.8438 1.73438
Q31.8438 0.4375 29.25 -0.265625
Q26.6562 -0.984375 23.25 -0.984375
Q18.8438 -0.984375 15.6719 0.09375
Q12.5 1.17188 10.4531 3.42188
Q8.40625 5.67188 7.45312 9.1875
Q6.5 12.7031 6.5 17.625
L6.5 52.8281
z
" id="LiberationSans-75"/>
      <path d="
M13.4219 26.6562
Q13.4219 22.125 14.0781 18.3125
Q14.75 14.5 16.3125 11.7344
Q17.875 8.98438 20.4375 7.46875
Q23 5.95312 26.7656 5.95312
Q31.4531 5.95312 34.5938 8.48438
Q37.75 11.0312 38.4844 16.3125
L47.3594 15.7188
Q46.9219 12.4531 45.4531 9.42188
Q44 6.39062 41.4844 4.09375
Q38.9688 1.8125 35.3438 0.40625
Q31.7344 -0.984375 27 -0.984375
Q20.7969 -0.984375 16.4531 1.10938
Q12.1094 3.21875 9.39062 6.90625
Q6.6875 10.5938 5.46875 15.5938
Q4.25 20.6094 4.25 26.4688
Q4.25 31.7812 5.125 35.8594
Q6 39.9375 7.59375 42.9844
Q9.1875 46.0469 11.3281 48.125
Q13.4844 50.2031 15.9844 51.4375
Q18.5 52.6875 21.2812 53.25
Q24.0781 53.8125 26.9062 53.8125
Q31.3438 53.8125 34.8125 52.5938
Q38.2812 51.375 40.7969 49.25
Q43.3125 47.125 44.875 44.2344
Q46.4375 41.3594 47.0781 38.0312
L38.0312 37.3594
Q37.3594 41.75 34.5625 44.3281
Q31.7812 46.9219 26.6562 46.9219
Q22.9062 46.9219 20.3906 45.6719
Q17.875 44.4375 16.3125 41.9219
Q14.75 39.4062 14.0781 35.5938
Q13.4219 31.7812 13.4219 26.6562" id="LiberationSans-63"/>
      <path d="
M29.5 0
Q27.6406 -4.78125 25.7031 -8.60938
Q23.7812 -12.4531 21.3906 -15.1562
Q19 -17.875 16.0625 -19.3125
Q13.1406 -20.75 9.32812 -20.75
Q7.67188 -20.75 6.25 -20.6562
Q4.82812 -20.5625 3.26562 -20.2188
L3.26562 -13.625
Q4.20312 -13.7656 5.375 -13.8438
Q6.54688 -13.9219 7.375 -13.9219
Q11.2344 -13.9219 14.5469 -11.0312
Q17.875 -8.15625 20.3594 -1.85938
L21.1875 0.25
L0.25 52.8281
L9.625 52.8281
L20.75 23.6406
Q21.2344 22.3125 21.9844 20.1094
Q22.75 17.9219 23.5 15.7188
Q24.2656 13.5312 24.8438 11.7656
Q25.4375 10.0156 25.5312 9.57812
Q25.6875 10.1094 26.25 11.6875
Q26.8125 13.2812 27.5156 15.2344
Q28.2188 17.1875 28.9531 19.1875
Q29.6875 21.1875 30.1719 22.6562
L40.5312 52.8281
L49.8125 52.8281
z
" id="LiberationSans-79"/>
      <path d="
M15.4844 43.7969
Q16.9375 46.4844 18.6406 48.3594
Q20.3594 50.25 22.4062 51.4688
Q24.4688 52.6875 26.9062 53.25
Q29.3438 53.8125 32.375 53.8125
Q37.4531 53.8125 40.7031 52.4375
Q43.9531 51.0781 45.8281 48.6094
Q47.7031 46.1406 48.4062 42.7188
Q49.125 39.3125 49.125 35.2031
L49.125 0
L40.2812 0
L40.2812 33.5
Q40.2812 36.8594 39.8594 39.3906
Q39.4531 41.9375 38.2812 43.625
Q37.1094 45.3125 34.9531 46.1562
Q32.8125 47.0156 29.3906 47.0156
Q26.2656 47.0156 23.75 45.8906
Q21.2344 44.7812 19.4531 42.7188
Q17.6719 40.6719 16.6875 37.7344
Q15.7188 34.8125 15.7188 31.1562
L15.7188 0
L6.9375 0
L6.9375 72.4688
L15.7188 72.4688
L15.7188 53.6094
Q15.7188 52 15.6719 50.3906
Q15.625 48.7812 15.5469 47.4062
Q15.4844 46.0469 15.4219 45.0938
Q15.375 44.1406 15.3281 43.7969
z
" id="LiberationSans-68"/>
      <path d="
M37.5 0
L37.5 33.5
Q37.5 37.3594 37.0156 39.9375
Q36.5312 42.5312 35.375 44.1094
Q34.2344 45.7031 32.375 46.3594
Q30.5156 47.0156 27.8281 47.0156
Q25.0469 47.0156 22.7969 45.9219
Q20.5625 44.8281 18.9688 42.75
Q17.3906 40.6719 16.5312 37.625
Q15.6719 34.5781 15.6719 30.6094
L15.6719 0
L6.9375 0
L6.9375 41.5469
Q6.9375 43.2188 6.90625 45.0469
Q6.89062 46.875 6.82812 48.5
Q6.78125 50.1406 6.73438 51.3125
Q6.6875 52.4844 6.64062 52.8281
L14.9375 52.8281
Q14.9844 52.5938 15.0312 51.5156
Q15.0938 50.4375 15.1562 49.0469
Q15.2344 47.6562 15.2812 46.2188
Q15.3281 44.7812 15.3281 43.7969
L15.4844 43.7969
Q16.6562 46.0938 18.0156 47.9531
Q19.3906 49.8125 21.2188 51.0938
Q23.0469 52.3906 25.4062 53.0938
Q27.7812 53.8125 30.9062 53.8125
Q36.9219 53.8125 40.4062 51.4219
Q43.8906 49.0312 45.2656 43.7969
L45.4062 43.7969
Q46.5781 46.0938 48.0469 47.9531
Q49.5156 49.8125 51.4688 51.0938
Q53.4219 52.3906 55.8594 53.0938
Q58.2969 53.8125 61.4219 53.8125
Q65.4375 53.8125 68.3281 52.7344
Q71.2344 51.6562 73.0938 49.4062
Q74.9531 47.1719 75.8281 43.625
Q76.7031 40.0938 76.7031 35.2031
L76.7031 0
L68.0156 0
L68.0156 33.5
Q68.0156 37.3594 67.5312 39.9375
Q67.0469 42.5312 65.8906 44.1094
Q64.75 45.7031 62.8906 46.3594
Q61.0312 47.0156 58.3438 47.0156
Q55.5625 47.0156 53.3125 45.9688
Q51.0781 44.9219 49.4844 42.875
Q47.9062 40.8281 47.0469 37.75
Q46.1875 34.6719 46.1875 30.6094
L46.1875 0
z
" id="LiberationSans-6d"/>
      <path d="
M40.2812 0
L40.2812 33.5
Q40.2812 37.3594 39.7188 39.9375
Q39.1562 42.5312 37.8906 44.1094
Q36.625 45.7031 34.5469 46.3594
Q32.4688 47.0156 29.3906 47.0156
Q26.2656 47.0156 23.75 45.9219
Q21.2344 44.8281 19.4531 42.75
Q17.6719 40.6719 16.6875 37.625
Q15.7188 34.5781 15.7188 30.6094
L15.7188 0
L6.9375 0
L6.9375 41.5469
Q6.9375 43.2188 6.90625 45.0469
Q6.89062 46.875 6.82812 48.5
Q6.78125 50.1406 6.73438 51.3125
Q6.6875 52.4844 6.64062 52.8281
L14.9375 52.8281
Q14.9844 52.5938 15.0312 51.5156
Q15.0938 50.4375 15.1562 49.0469
Q15.2344 47.6562 15.2812 46.2188
Q15.3281 44.7812 15.3281 43.7969
L15.4844 43.7969
Q16.75 46.0938 18.2656 47.9531
Q19.7812 49.8125 21.7812 51.0938
Q23.7812 52.3906 26.3594 53.0938
Q28.9531 53.8125 32.375 53.8125
Q36.7656 53.8125 39.9375 52.7344
Q43.1094 51.6562 45.1562 49.4062
Q47.2188 47.1719 48.1719 43.625
Q49.125 40.0938 49.125 35.2031
L49.125 0
z
" id="LiberationSans-6e"/>
      <path id="LiberationSans-20"/>
     </defs>
     <g style="fill:#262626;" transform="translate(151.543109375 345.92175)scale(0.088 -0.088)">
      <use xlink:href="#LiberationSans-68"/>
      <use x="55.615234375" xlink:href="#LiberationSans-75"/>
      <use x="111.23046875" xlink:href="#LiberationSans-6d"/>
      <use x="194.53125" xlink:href="#LiberationSans-61"/>
      <use x="250.146484375" xlink:href="#LiberationSans-6e"/>
      <use x="305.76171875" xlink:href="#LiberationSans-20"/>
      <use x="333.544921875" xlink:href="#LiberationSans-61"/>
      <use x="389.16015625" xlink:href="#LiberationSans-63"/>
      <use x="439.16015625" xlink:href="#LiberationSans-63"/>
      <use x="489.16015625" xlink:href="#LiberationSans-75"/>
      <use x="544.775390625" xlink:href="#LiberationSans-72"/>
      <use x="578.076171875" xlink:href="#LiberationSans-61"/>
      <use x="633.69140625" xlink:href="#LiberationSans-63"/>
      <use x="683.69140625" xlink:href="#LiberationSans-79"/>
     </g>
    </g>
   </g>
   <g id="matplotlib.axis_2">
    <g id="ytick_1">
     <g id="line2d_7">
      <g>
       <use style="fill:#262626;stroke:#262626;stroke-width:0.8;" x="36.577" xlink:href="#m9ceacb34a3" y="296.292833333"/>
      </g>
     </g>
     <g id="text_8">
      <!-- 0.0 -->
      <g style="fill:#262626;" transform="translate(20.482 298.361583333)scale(0.08 -0.08)">
       <use xlink:href="#LiberationSans-30"/>
       <use x="55.615234375" xlink:href="#LiberationSans-2e"/>
       <use x="83.3984375" xlink:href="#LiberationSans-30"/>
      </g>
     </g>
    </g>
    <g id="ytick_2">
     <g id="line2d_8">
      <g>
       <use style="fill:#262626;stroke:#262626;stroke-width:0.8;" x="36.577" xlink:href="#m9ceacb34a3" y="245.9045"/>
      </g>
     </g>
     <g id="text_9">
      <!-- 0.2 -->
      <g style="fill:#262626;" transform="translate(20.57075 247.97325)scale(0.08 -0.08)">
       <use xlink:href="#LiberationSans-30"/>
       <use x="55.615234375" xlink:href="#LiberationSans-2e"/>
       <use x="83.3984375" xlink:href="#LiberationSans-32"/>
      </g>
     </g>
    </g>
    <g id="ytick_3">
     <g id="line2d_9">
      <g>
       <use style="fill:#262626;stroke:#262626;stroke-width:0.8;" x="36.577" xlink:href="#m9ceacb34a3" y="195.516166667"/>
      </g>
     </g>
     <g id="text_10">
      <!-- 0.4 -->
      <g style="fill:#262626;" transform="translate(20.40325 197.584916667)scale(0.08 -0.08)">
       <use xlink:href="#LiberationSans-30"/>
       <use x="55.615234375" xlink:href="#LiberationSans-2e"/>
       <use x="83.3984375" xlink:href="#LiberationSans-34"/>
      </g>
     </g>
    </g>
    <g id="ytick_4">
     <g id="line2d_10">
      <g>
       <use style="fill:#262626;stroke:#262626;stroke-width:0.8;" x="36.577" xlink:href="#m9ceacb34a3" y="145.127833333"/>
      </g>
     </g>
     <g id="text_11">
      <!-- 0.6 -->
      <g style="fill:#262626;" transform="translate(20.52075 147.196583333)scale(0.08 -0.08)">
       <use xlink:href="#LiberationSans-30"/>
       <use x="55.615234375" xlink:href="#LiberationSans-2e"/>
       <use x="83.3984375" xlink:href="#LiberationSans-36"/>
      </g>
     </g>
    </g>
    <g id="ytick_5">
     <g id="line2d_11">
      <g>
       <use style="fill:#262626;stroke:#262626;stroke-width:0.8;" x="36.577" xlink:href="#m9ceacb34a3" y="94.7395"/>
      </g>
     </g>
     <g id="text_12">
      <!-- 0.8 -->
      <g style="fill:#262626;" transform="translate(20.517 96.80825)scale(0.08 -0.08)">
       <use xlink:href="#LiberationSans-30"/>
       <use x="55.615234375" xlink:href="#LiberationSans-2e"/>
       <use x="83.3984375" xlink:href="#LiberationSans-38"/>
      </g>
     </g>
    </g>
    <g id="ytick_6">
     <g id="line2d_12">
      <g>
       <use style="fill:#262626;stroke:#262626;stroke-width:0.8;" x="36.577" xlink:href="#m9ceacb34a3" y="44.3511666667"/>
      </g>
     </g>
     <g id="text_13">
      <!-- 1.0 -->
      <g style="fill:#262626;" transform="translate(20.7795 46.4199166667)scale(0.08 -0.08)">
       <use xlink:href="#LiberationSans-31"/>
       <use x="55.615234375" xlink:href="#LiberationSans-2e"/>
       <use x="83.3984375" xlink:href="#LiberationSans-30"/>
      </g>
     </g>
    </g>
    <g id="text_14">
     <!-- accuracy -->
     <g style="fill:#262626;" transform="translate(13.57725 187.73225)rotate(-90.0)scale(0.088 -0.088)">
      <use xlink:href="#LiberationSans-61"/>
      <use x="55.615234375" xlink:href="#LiberationSans-63"/>
      <use x="105.615234375" xlink:href="#LiberationSans-63"/>
      <use x="155.615234375" xlink:href="#LiberationSans-75"/>
      <use x="211.23046875" xlink:href="#LiberationSans-72"/>
      <use x="244.53125" xlink:href="#LiberationSans-61"/>
      <use x="300.146484375" xlink:href="#LiberationSans-63"/>
      <use x="350.146484375" xlink:href="#LiberationSans-79"/>
     </g>
    </g>
   </g>
   <g id="PathCollection_1">
    <defs>
     <path d="
M0 2.23607
C0.593012 2.23607 1.16182 2.00046 1.58114 1.58114
C2.00046 1.16182 2.23607 0.593012 2.23607 0
C2.23607 -0.593012 2.00046 -1.16182 1.58114 -1.58114
C1.16182 -2.00046 0.593012 -2.23607 0 -2.23607
C-0.593012 -2.23607 -1.16182 -2.00046 -1.58114 -1.58114
C-2.00046 -1.16182 -2.23607 -0.593012 -2.23607 0
C-2.23607 0.593012 -2.00046 1.16182 -1.58114 1.58114
C-1.16182 2.00046 -0.593012 2.23607 0 2.23607
z
" id="m7062e01d87"/>
    </defs>
    <g clip-path="url(#p58ffe85af0)">
     <use style="fill:#fa8e63;fill-opacity:0.8;" x="61.1166744792" xlink:href="#m7062e01d87" y="295.371250592"/>
     <use style="fill:#fa8e63;fill-opacity:0.8;" x="306.513419271" xlink:href="#m7062e01d87" y="34.3573639979"/>
     <use style="fill:#fa8e63;fill-opacity:0.8;" x="288.992091693" xlink:href="#m7062e01d87" y="283.939152169"/>
     <use style="fill:#fa8e63;fill-opacity:0.8;" x="275.495270729" xlink:href="#m7062e01d87" y="51.4837112256"/>
     <use style="fill:#fa8e63;fill-opacity:0.8;" x="303.691356706" xlink:href="#m7062e01d87" y="292.184213905"/>
     <use style="fill:#fa8e63;fill-opacity:0.8;" x="75.2269873047" xlink:href="#m7062e01d87" y="302.25572882"/>
     <use style="fill:#fa8e63;fill-opacity:0.8;" x="289.58104388" xlink:href="#m7062e01d87" y="56.4279652776"/>
     <use style="fill:#fa8e63;fill-opacity:0.8;" x="213.434433971" xlink:href="#m7062e01d87" y="289.783198465"/>
     <use style="fill:#fa8e63;fill-opacity:0.8;" x="300.869294141" xlink:href="#m7062e01d87" y="300.827351233"/>
     <use style="fill:#fa8e63;fill-opacity:0.8;" x="72.7975595313" xlink:href="#m7062e01d87" y="299.228863406"/>
     <use style="fill:#fa8e63;fill-opacity:0.8;" x="247.274645078" xlink:href="#m7062e01d87" y="294.067757255"/>
     <use style="fill:#fa8e63;fill-opacity:0.8;" x="78.0490498698" xlink:href="#m7062e01d87" y="287.952343377"/>
     <use style="fill:#fa8e63;fill-opacity:0.8;" x="303.691356706" xlink:href="#m7062e01d87" y="41.1015766023"/>
     <use style="fill:#fa8e63;fill-opacity:0.8;" x="306.513419271" xlink:href="#m7062e01d87" y="286.904210612"/>
     <use style="fill:#fa8e63;fill-opacity:0.8;" x="145.729472083" xlink:href="#m7062e01d87" y="301.998253051"/>
     <use style="fill:#fa8e63;fill-opacity:0.8;" x="289.58104388" xlink:href="#m7062e01d87" y="36.8421250586"/>
     <use style="fill:#fa8e63;fill-opacity:0.8;" x="61.1166744792" xlink:href="#m7062e01d87" y="304.212973746"/>
     <use style="fill:#fa8e63;fill-opacity:0.8;" x="298.047231576" xlink:href="#m7062e01d87" y="284.885124862"/>
     <use style="fill:#fa8e63;fill-opacity:0.8;" x="303.691356706" xlink:href="#m7062e01d87" y="39.6275557833"/>
     <use style="fill:#fa8e63;fill-opacity:0.8;" x="306.513419271" xlink:href="#m7062e01d87" y="303.460380332"/>
     <use style="fill:#fa8e63;fill-opacity:0.8;" x="306.513419271" xlink:href="#m7062e01d87" y="33.0800374481"/>
     <use style="fill:#fa8e63;fill-opacity:0.8;" x="86.4906978906" xlink:href="#m7062e01d87" y="290.476613662"/>
     <use style="fill:#fa8e63;fill-opacity:0.8;" x="163.373498034" xlink:href="#m7062e01d87" y="302.4920686"/>
     <use style="fill:#fa8e63;fill-opacity:0.8;" x="154.612834245" xlink:href="#m7062e01d87" y="51.5740324902"/>
     <use style="fill:#fa8e63;fill-opacity:0.8;" x="268.526003177" xlink:href="#m7062e01d87" y="295.834281513"/>
     <use style="fill:#fa8e63;fill-opacity:0.8;" x="188.035870885" xlink:href="#m7062e01d87" y="308.243365871"/>
     <use style="fill:#fa8e63;fill-opacity:0.8;" x="306.513419271" xlink:href="#m7062e01d87" y="303.662881008"/>
     <use style="fill:#fa8e63;fill-opacity:0.8;" x="303.593198008" xlink:href="#m7062e01d87" y="46.2486535194"/>
     <use style="fill:#fa8e63;fill-opacity:0.8;" x="303.593198008" xlink:href="#m7062e01d87" y="47.5213491538"/>
     <use style="fill:#fa8e63;fill-opacity:0.8;" x="84.4784445833" xlink:href="#m7062e01d87" y="297.210520163"/>
     <use style="fill:#fa8e63;fill-opacity:0.8;" x="306.513419271" xlink:href="#m7062e01d87" y="301.895292769"/>
     <use style="fill:#fa8e63;fill-opacity:0.8;" x="306.513419271" xlink:href="#m7062e01d87" y="42.1647073779"/>
     <use style="fill:#fa8e63;fill-opacity:0.8;" x="113.705196888" xlink:href="#m7062e01d87" y="287.125794555"/>
     <use style="fill:#fa8e63;fill-opacity:0.8;" x="306.513419271" xlink:href="#m7062e01d87" y="305.928799499"/>
     <use style="fill:#fa8e63;fill-opacity:0.8;" x="291.912312956" xlink:href="#m7062e01d87" y="43.9133145445"/>
     <use style="fill:#fa8e63;fill-opacity:0.8;" x="63.9387370443" xlink:href="#m7062e01d87" y="305.562570784"/>
     <use style="fill:#fa8e63;fill-opacity:0.8;" x="268.526003177" xlink:href="#m7062e01d87" y="38.8875677154"/>
     <use style="fill:#fa8e63;fill-opacity:0.8;" x="303.593198008" xlink:href="#m7062e01d87" y="46.9698558375"/>
     <use style="fill:#fa8e63;fill-opacity:0.8;" x="125.999573802" xlink:href="#m7062e01d87" y="294.644597899"/>
     <use style="fill:#fa8e63;fill-opacity:0.8;" x="306.513419271" xlink:href="#m7062e01d87" y="52.3306672598"/>
     <use style="fill:#fa8e63;fill-opacity:0.8;" x="80.8711124349" xlink:href="#m7062e01d87" y="305.240598076"/>
     <use style="fill:#fa8e63;fill-opacity:0.8;" x="306.513419271" xlink:href="#m7062e01d87" y="296.593745389"/>
     <use style="fill:#fa8e63;fill-opacity:0.8;" x="277.311206641" xlink:href="#m7062e01d87" y="299.93055008"/>
     <use style="fill:#fa8e63;fill-opacity:0.8;" x="80.8711124349" xlink:href="#m7062e01d87" y="285.196517499"/>
     <use style="fill:#fa8e63;fill-opacity:0.8;" x="303.593198008" xlink:href="#m7062e01d87" y="289.608184668"/>
     <use style="fill:#fa8e63;fill-opacity:0.8;" x="175.054383086" xlink:href="#m7062e01d87" y="38.0862939842"/>
     <use style="fill:#fa8e63;fill-opacity:0.8;" x="306.513419271" xlink:href="#m7062e01d87" y="286.121450924"/>
     <use style="fill:#fa8e63;fill-opacity:0.8;" x="61.1166744792" xlink:href="#m7062e01d87" y="54.8464912577"/>
     <use style="fill:#fa8e63;fill-opacity:0.8;" x="297.752755482" xlink:href="#m7062e01d87" y="294.977887547"/>
     <use style="fill:#fa8e63;fill-opacity:0.8;" x="303.593198008" xlink:href="#m7062e01d87" y="294.164529173"/>
     <use style="fill:#fa8e63;fill-opacity:0.8;" x="306.513419271" xlink:href="#m7062e01d87" y="284.654731223"/>
     <use style="fill:#fa8e63;fill-opacity:0.8;" x="120.355448672" xlink:href="#m7062e01d87" y="301.529503185"/>
     <use style="fill:#fa8e63;fill-opacity:0.8;" x="303.593198008" xlink:href="#m7062e01d87" y="302.822436247"/>
     <use style="fill:#fa8e63;fill-opacity:0.8;" x="259.765339388" xlink:href="#m7062e01d87" y="306.36309437"/>
     <use style="fill:#fa8e63;fill-opacity:0.8;" x="283.93691875" xlink:href="#m7062e01d87" y="56.5343191738"/>
     <use style="fill:#fa8e63;fill-opacity:0.8;" x="278.317333294" xlink:href="#m7062e01d87" y="285.471200138"/>
     <use style="fill:#fa8e63;fill-opacity:0.8;" x="306.513419271" xlink:href="#m7062e01d87" y="292.011927539"/>
     <use style="fill:#fa8e63;fill-opacity:0.8;" x="278.317333294" xlink:href="#m7062e01d87" y="289.108643342"/>
     <use style="fill:#fa8e63;fill-opacity:0.8;" x="255.740832773" xlink:href="#m7062e01d87" y="301.791961427"/>
     <use style="fill:#fa8e63;fill-opacity:0.8;" x="219.078559102" xlink:href="#m7062e01d87" y="294.115801205"/>
     <use style="fill:#fa8e63;fill-opacity:0.8;" x="306.513419271" xlink:href="#m7062e01d87" y="307.278617033"/>
     <use style="fill:#fa8e63;fill-opacity:0.8;" x="248.084454336" xlink:href="#m7062e01d87" y="296.654934077"/>
     <use style="fill:#fa8e63;fill-opacity:0.8;" x="286.07187043" xlink:href="#m7062e01d87" y="32.3210745334"/>
     <use style="fill:#fa8e63;fill-opacity:0.8;" x="300.869294141" xlink:href="#m7062e01d87" y="286.807097432"/>
     <use style="fill:#fa8e63;fill-opacity:0.8;" x="188.035870885" xlink:href="#m7062e01d87" y="48.4286170076"/>
     <use style="fill:#fa8e63;fill-opacity:0.8;" x="306.513419271" xlink:href="#m7062e01d87" y="284.663957931"/>
     <use style="fill:#fa8e63;fill-opacity:0.8;" x="268.526003177" xlink:href="#m7062e01d87" y="51.1107206057"/>
     <use style="fill:#fa8e63;fill-opacity:0.8;" x="303.691356706" xlink:href="#m7062e01d87" y="33.0309533683"/>
     <use style="fill:#fa8e63;fill-opacity:0.8;" x="271.44622444" xlink:href="#m7062e01d87" y="285.172689878"/>
     <use style="fill:#fa8e63;fill-opacity:0.8;" x="306.513419271" xlink:href="#m7062e01d87" y="36.8130068138"/>
     <use style="fill:#fa8e63;fill-opacity:0.8;" x="306.513419271" xlink:href="#m7062e01d87" y="293.006306271"/>
     <use style="fill:#fa8e63;fill-opacity:0.8;" x="92.1348230208" xlink:href="#m7062e01d87" y="286.862959921"/>
     <use style="fill:#fa8e63;fill-opacity:0.8;" x="120.355448672" xlink:href="#m7062e01d87" y="301.507514782"/>
     <use style="fill:#fa8e63;fill-opacity:0.8;" x="303.593198008" xlink:href="#m7062e01d87" y="35.5598245769"/>
     <use style="fill:#fa8e63;fill-opacity:0.8;" x="202.146183711" xlink:href="#m7062e01d87" y="293.323028311"/>
     <use style="fill:#fa8e63;fill-opacity:0.8;" x="306.513419271" xlink:href="#m7062e01d87" y="56.6147583995"/>
     <use style="fill:#fa8e63;fill-opacity:0.8;" x="289.58104388" xlink:href="#m7062e01d87" y="300.141657544"/>
     <use style="fill:#fa8e63;fill-opacity:0.8;" x="157.533055508" xlink:href="#m7062e01d87" y="305.157631126"/>
     <use style="fill:#fa8e63;fill-opacity:0.8;" x="61.1166744792" xlink:href="#m7062e01d87" y="284.153543381"/>
     <use style="fill:#fa8e63;fill-opacity:0.8;" x="300.672976745" xlink:href="#m7062e01d87" y="296.837775423"/>
     <use style="fill:#fa8e63;fill-opacity:0.8;" x="283.93691875" xlink:href="#m7062e01d87" y="296.358555706"/>
     <use style="fill:#fa8e63;fill-opacity:0.8;" x="300.869294141" xlink:href="#m7062e01d87" y="292.77893951"/>
     <use style="fill:#fa8e63;fill-opacity:0.8;" x="306.513419271" xlink:href="#m7062e01d87" y="47.6620680024"/>
     <use style="fill:#fa8e63;fill-opacity:0.8;" x="306.513419271" xlink:href="#m7062e01d87" y="53.4991617384"/>
     <use style="fill:#fa8e63;fill-opacity:0.8;" x="306.513419271" xlink:href="#m7062e01d87" y="288.177345477"/>
     <use style="fill:#fa8e63;fill-opacity:0.8;" x="210.097038242" xlink:href="#m7062e01d87" y="304.106856733"/>
     <use style="fill:#fa8e63;fill-opacity:0.8;" x="238.808457383" xlink:href="#m7062e01d87" y="44.0659943339"/>
     <use style="fill:#fa8e63;fill-opacity:0.8;" x="61.1166744792" xlink:href="#m7062e01d87" y="51.2967693858"/>
     <use style="fill:#fa8e63;fill-opacity:0.8;" x="119.545639414" xlink:href="#m7062e01d87" y="306.424806417"/>
     <use style="fill:#fa8e63;fill-opacity:0.8;" x="286.758981315" xlink:href="#m7062e01d87" y="35.2260532115"/>
     <use style="fill:#fa8e63;fill-opacity:0.8;" x="248.084454336" xlink:href="#m7062e01d87" y="284.378020907"/>
     <use style="fill:#fa8e63;fill-opacity:0.8;" x="295.22516901" xlink:href="#m7062e01d87" y="284.682488152"/>
     <use style="fill:#fa8e63;fill-opacity:0.8;" x="306.513419271" xlink:href="#m7062e01d87" y="34.10833966"/>
     <use style="fill:#fa8e63;fill-opacity:0.8;" x="289.58104388" xlink:href="#m7062e01d87" y="37.4467724921"/>
     <use style="fill:#fa8e63;fill-opacity:0.8;" x="303.593198008" xlink:href="#m7062e01d87" y="48.5549355156"/>
     <use style="fill:#fa8e63;fill-opacity:0.8;" x="303.691356706" xlink:href="#m7062e01d87" y="306.84663473"/>
     <use style="fill:#fa8e63;fill-opacity:0.8;" x="72.7975595313" xlink:href="#m7062e01d87" y="298.629814721"/>
     <use style="fill:#fa8e63;fill-opacity:0.8;" x="303.593198008" xlink:href="#m7062e01d87" y="51.0973043165"/>
     <use style="fill:#fa8e63;fill-opacity:0.8;" x="303.691356706" xlink:href="#m7062e01d87" y="305.552001115"/>
     <use style="fill:#fa8e63;fill-opacity:0.8;" x="303.691356706" xlink:href="#m7062e01d87" y="307.543863344"/>
     <use style="fill:#fa8e63;fill-opacity:0.8;" x="241.630519948" xlink:href="#m7062e01d87" y="290.609171322"/>
     <use style="fill:#fa8e63;fill-opacity:0.8;" x="286.07187043" xlink:href="#m7062e01d87" y="308.602011369"/>
     <use style="fill:#fa8e63;fill-opacity:0.8;" x="86.4906978906" xlink:href="#m7062e01d87" y="289.475776859"/>
     <use style="fill:#fa8e63;fill-opacity:0.8;" x="303.691356706" xlink:href="#m7062e01d87" y="305.187718391"/>
     <use style="fill:#fa8e63;fill-opacity:0.8;" x="64.0368957422" xlink:href="#m7062e01d87" y="306.886424064"/>
     <use style="fill:#fa8e63;fill-opacity:0.8;" x="300.869294141" xlink:href="#m7062e01d87" y="306.632442888"/>
     <use style="fill:#fa8e63;fill-opacity:0.8;" x="64.0368957422" xlink:href="#m7062e01d87" y="40.0165655336"/>
     <use style="fill:#fa8e63;fill-opacity:0.8;" x="303.593198008" xlink:href="#m7062e01d87" y="302.708094287"/>
     <use style="fill:#fa8e63;fill-opacity:0.8;" x="87.3986658464" xlink:href="#m7062e01d87" y="298.294775253"/>
     <use style="fill:#fa8e63;fill-opacity:0.8;" x="66.9571170052" xlink:href="#m7062e01d87" y="294.847474443"/>
     <use style="fill:#fa8e63;fill-opacity:0.8;" x="250.096707643" xlink:href="#m7062e01d87" y="35.2673803014"/>
     <use style="fill:#fa8e63;fill-opacity:0.8;" x="306.513419271" xlink:href="#m7062e01d87" y="38.6309756712"/>
     <use style="fill:#fa8e63;fill-opacity:0.8;" x="297.752755482" xlink:href="#m7062e01d87" y="302.079230367"/>
     <use style="fill:#fa8e63;fill-opacity:0.8;" x="261.384957904" xlink:href="#m7062e01d87" y="305.577317108"/>
     <use style="fill:#fa8e63;fill-opacity:0.8;" x="210.612371406" xlink:href="#m7062e01d87" y="307.494806809"/>
     <use style="fill:#fa8e63;fill-opacity:0.8;" x="306.513419271" xlink:href="#m7062e01d87" y="49.3497237364"/>
     <use style="fill:#fa8e63;fill-opacity:0.8;" x="253.924896862" xlink:href="#m7062e01d87" y="302.286068328"/>
     <use style="fill:#fa8e63;fill-opacity:0.8;" x="81.5582233203" xlink:href="#m7062e01d87" y="45.4561685366"/>
     <use style="fill:#fa8e63;fill-opacity:0.8;" x="64.0368957422" xlink:href="#m7062e01d87" y="291.675212819"/>
     <use style="fill:#fa8e63;fill-opacity:0.8;" x="303.593198008" xlink:href="#m7062e01d87" y="291.364213252"/>
     <use style="fill:#fa8e63;fill-opacity:0.8;" x="300.869294141" xlink:href="#m7062e01d87" y="301.746895593"/>
     <use style="fill:#fa8e63;fill-opacity:0.8;" x="297.752755482" xlink:href="#m7062e01d87" y="47.3763069519"/>
     <use style="fill:#fa8e63;fill-opacity:0.8;" x="306.513419271" xlink:href="#m7062e01d87" y="304.325969145"/>
     <use style="fill:#fa8e63;fill-opacity:0.8;" x="306.513419271" xlink:href="#m7062e01d87" y="289.023169605"/>
     <use style="fill:#fa8e63;fill-opacity:0.8;" x="300.672976745" xlink:href="#m7062e01d87" y="307.457676754"/>
     <use style="fill:#fa8e63;fill-opacity:0.8;" x="300.672976745" xlink:href="#m7062e01d87" y="39.3879853258"/>
     <use style="fill:#fa8e63;fill-opacity:0.8;" x="244.452582513" xlink:href="#m7062e01d87" y="37.3296684121"/>
     <use style="fill:#fa8e63;fill-opacity:0.8;" x="61.1166744792" xlink:href="#m7062e01d87" y="289.303780986"/>
     <use style="fill:#fa8e63;fill-opacity:0.8;" x="272.673208164" xlink:href="#m7062e01d87" y="50.4123146768"/>
     <use style="fill:#fa8e63;fill-opacity:0.8;" x="113.705196888" xlink:href="#m7062e01d87" y="299.472006167"/>
     <use style="fill:#fa8e63;fill-opacity:0.8;" x="185.21380832" xlink:href="#m7062e01d87" y="294.085833524"/>
     <use style="fill:#fa8e63;fill-opacity:0.8;" x="215.962020443" xlink:href="#m7062e01d87" y="302.016396187"/>
     <use style="fill:#fa8e63;fill-opacity:0.8;" x="119.545639414" xlink:href="#m7062e01d87" y="299.546589434"/>
     <use style="fill:#fa8e63;fill-opacity:0.8;" x="80.8711124349" xlink:href="#m7062e01d87" y="303.925298289"/>
     <use style="fill:#fa8e63;fill-opacity:0.8;" x="92.1348230208" xlink:href="#m7062e01d87" y="45.362564222"/>
     <use style="fill:#fa8e63;fill-opacity:0.8;" x="63.9387370443" xlink:href="#m7062e01d87" y="307.765946913"/>
     <use style="fill:#fa8e63;fill-opacity:0.8;" x="306.513419271" xlink:href="#m7062e01d87" y="288.739725851"/>
     <use style="fill:#fa8e63;fill-opacity:0.8;" x="306.513419271" xlink:href="#m7062e01d87" y="306.951063115"/>
     <use style="fill:#fa8e63;fill-opacity:0.8;" x="306.513419271" xlink:href="#m7062e01d87" y="295.818297454"/>
     <use style="fill:#fa8e63;fill-opacity:0.8;" x="306.513419271" xlink:href="#m7062e01d87" y="49.218425217"/>
     <use style="fill:#fa8e63;fill-opacity:0.8;" x="306.513419271" xlink:href="#m7062e01d87" y="42.39753669"/>
     <use style="fill:#fa8e63;fill-opacity:0.8;" x="169.21394056" xlink:href="#m7062e01d87" y="284.717793172"/>
     <use style="fill:#fa8e63;fill-opacity:0.8;" x="264.207020469" xlink:href="#m7062e01d87" y="292.625312333"/>
     <use style="fill:#fa8e63;fill-opacity:0.8;" x="286.07187043" xlink:href="#m7062e01d87" y="307.998989567"/>
     <use style="fill:#fa8e63;fill-opacity:0.8;" x="63.9387370443" xlink:href="#m7062e01d87" y="298.046285872"/>
     <use style="fill:#fa8e63;fill-opacity:0.8;" x="102.024311836" xlink:href="#m7062e01d87" y="44.0988004199"/>
     <use style="fill:#fa8e63;fill-opacity:0.8;" x="66.7607996094" xlink:href="#m7062e01d87" y="295.381371502"/>
    </g>
   </g>
   <g id="PolyCollection_1">
    <defs>
     <path d="
M61.1167 -133.169
L61.1167 -72.0163
L63.5954 -72.3927
L66.0742 -72.7811
L68.5529 -73.1797
L71.0317 -73.5766
L73.5104 -73.9911
L75.9892 -74.3992
L78.468 -74.7667
L80.9467 -75.1421
L83.4255 -75.5257
L85.9042 -75.9176
L88.383 -76.3178
L90.8617 -76.7267
L93.3405 -77.1442
L95.8192 -77.5706
L98.298 -78.0067
L100.777 -78.4522
L103.256 -78.9071
L105.734 -79.3715
L108.213 -79.8456
L110.692 -80.3295
L113.171 -80.8234
L115.649 -81.3274
L118.128 -81.8418
L120.607 -82.3666
L123.086 -82.902
L125.564 -83.4482
L128.043 -84.0054
L130.522 -84.5736
L133.001 -85.1531
L135.479 -85.744
L137.958 -86.3464
L140.437 -86.9799
L142.916 -87.6556
L145.394 -88.4001
L147.873 -89.1042
L150.352 -89.7145
L152.831 -90.3963
L155.309 -91.1147
L157.788 -91.7922
L160.267 -92.4627
L162.746 -93.145
L165.224 -93.8389
L167.703 -94.5444
L170.182 -95.2851
L172.661 -96.063
L175.139 -96.8745
L177.618 -97.7436
L180.097 -98.538
L182.576 -99.3139
L185.054 -100.187
L187.533 -101.021
L190.012 -101.897
L192.491 -102.887
L194.969 -103.694
L197.448 -104.639
L199.927 -105.731
L202.406 -106.844
L204.884 -107.875
L207.363 -108.657
L209.842 -109.426
L212.321 -110.413
L214.799 -111.092
L217.278 -111.778
L219.757 -112.467
L222.236 -113.342
L224.715 -114.029
L227.193 -114.967
L229.672 -115.918
L232.151 -116.706
L234.63 -117.553
L237.108 -118.289
L239.587 -119.197
L242.066 -120.072
L244.545 -120.944
L247.023 -121.535
L249.502 -122.491
L251.981 -122.908
L254.46 -123.71
L256.938 -124.57
L259.417 -125.577
L261.896 -126.517
L264.375 -127.043
L266.853 -127.448
L269.332 -127.934
L271.811 -128.43
L274.29 -128.965
L276.768 -129.234
L279.247 -129.425
L281.726 -129.879
L284.205 -130.128
L286.683 -130.495
L289.162 -130.996
L291.641 -131.287
L294.12 -131.255
L296.598 -131.512
L299.077 -132.013
L301.556 -132.257
L304.035 -132.504
L306.513 -132.76
L306.513 -187.129
L306.513 -187.129
L304.035 -185.434
L301.556 -184.391
L299.077 -183.52
L296.598 -182.774
L294.12 -181.695
L291.641 -180.606
L289.162 -179.516
L286.683 -178.422
L284.205 -177.329
L281.726 -176.059
L279.247 -174.819
L276.768 -173.365
L274.29 -172.508
L271.811 -171.1
L269.332 -169.78
L266.853 -168.968
L264.375 -167.951
L261.896 -167.037
L259.417 -166.127
L256.938 -164.826
L254.46 -163.744
L251.981 -163.008
L249.502 -162.214
L247.023 -161.253
L244.545 -160.59
L242.066 -159.617
L239.587 -158.818
L237.108 -158.01
L234.63 -156.922
L232.151 -156.169
L229.672 -155.587
L227.193 -154.661
L224.715 -153.948
L222.236 -153.491
L219.757 -152.939
L217.278 -152.284
L214.799 -151.787
L212.321 -151.29
L209.842 -150.708
L207.363 -150.311
L204.884 -149.908
L202.406 -149.353
L199.927 -148.991
L197.448 -148.74
L194.969 -148.344
L192.491 -147.883
L190.012 -147.481
L187.533 -146.981
L185.054 -146.861
L182.576 -146.61
L180.097 -145.852
L177.618 -145.145
L175.139 -144.736
L172.661 -144.24
L170.182 -143.793
L167.703 -143.463
L165.224 -143.245
L162.746 -142.892
L160.267 -142.771
L157.788 -142.487
L155.309 -142.242
L152.831 -141.96
L150.352 -141.654
L147.873 -141.349
L145.394 -141.042
L142.916 -140.734
L140.437 -140.426
L137.958 -140.137
L135.479 -139.813
L133.001 -139.507
L130.522 -139.202
L128.043 -138.718
L125.564 -138.592
L123.086 -138.234
L120.607 -137.925
L118.128 -137.492
L115.649 -137.072
L113.171 -136.686
L110.692 -136.302
L108.213 -135.918
L105.734 -135.535
L103.256 -135.153
L100.777 -134.773
L98.298 -134.615
L95.8192 -134.529
L93.3405 -134.371
L90.8617 -134.385
L88.383 -134.286
L85.9042 -134.207
L83.4255 -134.128
L80.9467 -134.049
L78.468 -133.97
L75.9892 -133.89
L73.5104 -133.8
L71.0317 -133.711
L68.5529 -133.494
L66.0742 -133.295
L63.5954 -133.281
L61.1167 -133.169
z
" id="m2331429170" style="stroke:#fa8e63;stroke-opacity:0.15;stroke-width:0.24;"/>
    </defs>
    <g clip-path="url(#p58ffe85af0)">
     <use style="fill:#fa8e63;fill-opacity:0.15;stroke:#fa8e63;stroke-opacity:0.15;stroke-width:0.24;" x="0.0" xlink:href="#m2331429170" y="354.94775"/>
    </g>
   </g>
   <g id="PathCollection_2">
    <path clip-path="url(#p58ffe85af0)" d="
M73.3865 260.06
C75.3975 260.06 77.3264 259.261 78.7484 257.839
C80.1704 256.417 80.9694 254.488 80.9694 252.477
C80.9694 250.466 80.1704 248.537 78.7484 247.115
C77.3264 245.693 75.3975 244.894 73.3865 244.894
C71.3755 244.894 69.4466 245.693 68.0246 247.115
C66.6026 248.537 65.8036 250.466 65.8036 252.477
C65.8036 254.488 66.6026 256.417 68.0246 257.839
C69.4466 259.261 71.3755 260.06 73.3865 260.06
z
" style="fill:#262626;fill-opacity:0.8;"/>
    <path clip-path="url(#p58ffe85af0)" d="
M97.9262 216.185
C98.9533 216.185 99.9385 215.777 100.665 215.051
C101.391 214.325 101.799 213.339 101.799 212.312
C101.799 211.285 101.391 210.3 100.665 209.574
C99.9385 208.847 98.9533 208.439 97.9262 208.439
C96.8991 208.439 95.9139 208.847 95.1876 209.574
C94.4613 210.3 94.0532 211.285 94.0532 212.312
C94.0532 213.339 94.4613 214.325 95.1876 215.051
C95.9139 215.777 96.8991 216.185 97.9262 216.185
z
" style="fill:#262626;fill-opacity:0.8;"/>
    <path clip-path="url(#p58ffe85af0)" d="
M122.466 300.476
C123.575 300.476 124.639 300.035 125.424 299.251
C126.208 298.466 126.649 297.402 126.649 296.293
C126.649 295.183 126.208 294.119 125.424 293.335
C124.639 292.55 123.575 292.11 122.466 292.11
C121.356 292.11 120.292 292.55 119.508 293.335
C118.723 294.119 118.283 295.183 118.283 296.293
C118.283 297.402 118.723 298.466 119.508 299.251
C120.292 300.035 121.356 300.476 122.466 300.476
z
" style="fill:#262626;fill-opacity:0.8;"/>
    <path clip-path="url(#p58ffe85af0)" d="
M147.006 215.051
C147.732 215.051 148.428 214.762 148.942 214.249
C149.456 213.735 149.744 213.039 149.744 212.312
C149.744 211.586 149.456 210.889 148.942 210.376
C148.428 209.862 147.732 209.574 147.006 209.574
C146.279 209.574 145.583 209.862 145.069 210.376
C144.555 210.889 144.267 211.586 144.267 212.312
C144.267 213.039 144.555 213.735 145.069 214.249
C145.583 214.762 146.279 215.051 147.006 215.051
z
" style="fill:#262626;fill-opacity:0.8;"/>
    <path clip-path="url(#p58ffe85af0)" d="
M171.545 215.051
C172.271 215.051 172.968 214.762 173.482 214.249
C173.995 213.735 174.284 213.039 174.284 212.312
C174.284 211.586 173.995 210.889 173.482 210.376
C172.968 209.862 172.271 209.574 171.545 209.574
C170.819 209.574 170.122 209.862 169.609 210.376
C169.095 210.889 168.807 211.586 168.807 212.312
C168.807 213.039 169.095 213.735 169.609 214.249
C170.122 214.762 170.819 215.051 171.545 215.051
z
" style="fill:#262626;fill-opacity:0.8;"/>
    <path clip-path="url(#p58ffe85af0)" d="
M196.085 236.47
C196.924 236.47 197.728 236.136 198.321 235.543
C198.914 234.95 199.247 234.146 199.247 233.307
C199.247 232.469 198.914 231.664 198.321 231.071
C197.728 230.478 196.924 230.145 196.085 230.145
C195.246 230.145 194.442 230.478 193.849 231.071
C193.256 231.664 192.923 232.469 192.923 233.307
C192.923 234.146 193.256 234.95 193.849 235.543
C194.442 236.136 195.246 236.47 196.085 236.47
z
" style="fill:#262626;fill-opacity:0.8;"/>
    <path clip-path="url(#p58ffe85af0)" d="
M220.625 299.828
C221.562 299.828 222.462 299.456 223.125 298.793
C223.788 298.13 224.16 297.23 224.16 296.293
C224.16 295.355 223.788 294.456 223.125 293.793
C222.462 293.13 221.562 292.757 220.625 292.757
C219.687 292.757 218.788 293.13 218.125 293.793
C217.462 294.456 217.089 295.355 217.089 296.293
C217.089 297.23 217.462 298.13 218.125 298.793
C218.788 299.456 219.687 299.828 220.625 299.828
z
" style="fill:#262626;fill-opacity:0.8;"/>
    <path clip-path="url(#p58ffe85af0)" d="
M245.164 217.056
C246.422 217.056 247.629 216.556 248.518 215.666
C249.408 214.777 249.908 213.57 249.908 212.312
C249.908 211.054 249.408 209.848 248.518 208.958
C247.629 208.069 246.422 207.569 245.164 207.569
C243.906 207.569 242.7 208.069 241.81 208.958
C240.921 209.848 240.421 211.054 240.421 212.312
C240.421 213.57 240.921 214.777 241.81 215.666
C242.7 216.556 243.906 217.056 245.164 217.056
z
" style="fill:#262626;fill-opacity:0.8;"/>
    <path clip-path="url(#p58ffe85af0)" d="
M269.704 217.79
C271.156 217.79 272.55 217.212 273.577 216.185
C274.604 215.158 275.181 213.765 275.181 212.312
C275.181 210.86 274.604 209.466 273.577 208.439
C272.55 207.412 271.156 206.835 269.704 206.835
C268.251 206.835 266.858 207.412 265.831 208.439
C264.804 209.466 264.227 210.86 264.227 212.312
C264.227 213.765 264.804 215.158 265.831 216.185
C266.858 217.212 268.251 217.79 269.704 217.79
z
" style="fill:#262626;fill-opacity:0.8;"/>
    <path clip-path="url(#p58ffe85af0)" d="
M294.244 205.85
C297.875 205.85 301.358 204.407 303.926 201.839
C306.494 199.272 307.937 195.788 307.937 192.157
C307.937 188.526 306.494 185.042 303.926 182.474
C301.358 179.907 297.875 178.464 294.244 178.464
C290.612 178.464 287.129 179.907 284.561 182.474
C281.993 185.042 280.551 188.526 280.551 192.157
C280.551 195.788 281.993 199.272 284.561 201.839
C287.129 204.407 290.612 205.85 294.244 205.85
z
" style="fill:#262626;fill-opacity:0.8;"/>
   </g>
   <g id="line2d_13">
    <path clip-path="url(#p58ffe85af0)" d="
M61.1167 258.107
L63.5954 257.669
L66.0742 257.227
L68.5529 256.781
L71.0317 256.331
L73.5104 255.876
L75.9892 255.418
L78.468 254.955
L80.9467 254.488
L83.4255 254.017
L85.9042 253.542
L88.383 253.062
L90.8617 252.578
L93.3405 252.09
L95.8192 251.598
L98.298 251.101
L100.777 250.6
L103.256 250.095
L105.734 249.585
L108.213 249.071
L110.692 248.553
L113.171 248.03
L115.649 247.503
L118.128 246.972
L120.607 246.436
L123.086 245.896
L125.564 245.351
L128.043 244.803
L130.522 244.249
L133.001 243.692
L135.479 243.13
L137.958 242.563
L140.437 241.992
L142.916 241.417
L145.394 240.838
L147.873 240.254
L150.352 239.665
L152.831 239.073
L155.309 238.476
L157.788 237.874
L160.267 237.269
L162.746 236.658
L165.224 236.044
L167.703 235.425
L170.182 234.802
L172.661 234.175
L175.139 233.543
L177.618 232.907
L180.097 232.267
L182.576 231.622
L185.054 230.974
L187.533 230.321
L190.012 229.664
L192.491 229.002
L194.969 228.337
L197.448 227.667
L199.927 226.993
L202.406 226.316
L204.884 225.634
L207.363 224.948
L209.842 224.258
L212.321 223.564
L214.799 222.866
L217.278 222.164
L219.757 221.459
L222.236 220.749
L224.715 220.036
L227.193 219.319
L229.672 218.598
L232.151 217.873
L234.63 217.145
L237.108 216.413
L239.587 215.677
L242.066 214.938
L244.545 214.195
L247.023 213.449
L249.502 212.699
L251.981 211.946
L254.46 211.19
L256.938 210.43
L259.417 209.667
L261.896 208.901
L264.375 208.132
L266.853 207.359
L269.332 206.584
L271.811 205.805
L274.29 205.024
L276.768 204.24
L279.247 203.452
L281.726 202.662
L284.205 201.87
L286.683 201.074
L289.162 200.276
L291.641 199.476
L294.12 198.672
L296.598 197.867
L299.077 197.059
L301.556 196.249
L304.035 195.436
L306.513 194.622" style="fill:none;stroke:#fa8e63;stroke-linecap:round;stroke-width:2.1;"/>
   </g>
   <g id="patch_3">
    <path d="
M36.577 321.487
L331.053 321.487" style="fill:none;stroke:#262626;stroke-linecap:square;stroke-linejoin:miter;stroke-width:1.25;"/>
   </g>
   <g id="patch_4">
    <path d="
M36.577 321.487
L36.577 19.157" style="fill:none;stroke:#262626;stroke-linecap:square;stroke-linejoin:miter;stroke-width:1.25;"/>
   </g>
   <g id="text_15">
    <!-- VGG-19 -->
    <defs>
     <path d="
M5.03125 34.7188
Q5.03125 42.7812 7.20312 49.2656
Q9.375 55.7656 13.6875 60.3281
Q18.0156 64.8906 24.4062 67.3594
Q30.8125 69.8281 39.2656 69.8281
Q45.6094 69.8281 50.3906 68.7031
Q55.1719 67.5781 58.6875 65.4688
Q62.2031 63.375 64.6406 60.375
Q67.0938 57.375 68.7969 53.6094
L59.9062 50.9844
Q58.6406 53.5156 56.8594 55.5938
Q55.0781 57.6719 52.5312 59.125
Q50 60.5938 46.6562 61.3906
Q43.3125 62.2031 39.0156 62.2031
Q32.7656 62.2031 28.1406 60.25
Q23.5312 58.2969 20.5 54.6875
Q17.4844 51.0781 15.9844 46
Q14.5 40.9219 14.5 34.7188
Q14.5 28.5156 16.1094 23.3594
Q17.7188 18.2188 20.8906 14.4844
Q24.0781 10.75 28.7812 8.67188
Q33.5 6.59375 39.7031 6.59375
Q43.75 6.59375 47.1719 7.26562
Q50.5938 7.95312 53.3438 9.04688
Q56.1094 10.1562 58.2031 11.5
Q60.2969 12.8438 61.7188 14.2031
L61.7188 26.6094
L41.1562 26.6094
L41.1562 34.4219
L70.3125 34.4219
L70.3125 10.6875
Q68.0156 8.34375 64.9062 6.21875
Q61.8125 4.10938 57.9531 2.48438
Q54.1094 0.875 49.5156 -0.046875
Q44.9219 -0.984375 39.7031 -0.984375
Q31 -0.984375 24.5 1.67188
Q18.0156 4.34375 13.6875 9.10938
Q9.375 13.875 7.20312 20.4062
Q5.03125 26.9531 5.03125 34.7188" id="LiberationSans-47"/>
     <path d="
M38.1875 0
L28.5156 0
L0.4375 68.7969
L10.25 68.7969
L29.2969 20.3594
Q30.0312 18.1719 30.7656 15.9844
Q31.5 13.8125 32.0781 12.1094
Q32.7656 10.1094 33.4062 8.20312
Q33.9844 10.0156 34.6719 12.0156
Q35.25 13.7188 35.9531 15.8594
Q36.6719 18.0156 37.5 20.3594
L56.4531 68.7969
L66.2656 68.7969
z
" id="LiberationSans-56"/>
     <path d="
M4.4375 22.6562
L4.4375 30.4688
L28.8594 30.4688
L28.8594 22.6562
z
" id="LiberationSans-2d"/>
     <path d="
M50.875 35.7969
Q50.875 26.6094 49.1406 19.7031
Q47.4062 12.7969 44.1875 8.20312
Q40.9688 3.60938 36.3438 1.3125
Q31.7344 -0.984375 25.9844 -0.984375
Q22.0156 -0.984375 18.8438 -0.171875
Q15.6719 0.640625 13.1719 2.34375
Q10.6875 4.04688 8.92188 6.78125
Q7.17188 9.51562 6.10938 13.375
L14.5 14.7031
Q15.875 10.25 18.7812 8.17188
Q21.6875 6.10938 26.125 6.10938
Q29.6875 6.10938 32.6406 7.78125
Q35.5938 9.46875 37.6719 12.8438
Q39.75 16.2188 40.9219 21.2969
Q42.0938 26.375 42.1875 33.2031
Q41.1562 30.9062 39.375 29.0938
Q37.5938 27.2969 35.3281 26.0469
Q33.0625 24.8125 30.4219 24.1406
Q27.7812 23.4844 25.0938 23.4844
Q20.4062 23.4844 16.625 25.1719
Q12.8438 26.8594 10.2031 29.875
Q7.5625 32.9062 6.125 37.1719
Q4.6875 41.4531 4.6875 46.6875
Q4.6875 52 6.21875 56.2969
Q7.76562 60.5938 10.6875 63.5938
Q13.625 66.6094 17.8906 68.2188
Q22.1719 69.8281 27.5938 69.8281
Q39.0625 69.8281 44.9688 61.3281
Q50.875 52.8281 50.875 35.7969
M41.3125 44.2812
Q41.3125 48.0938 40.4062 51.4531
Q39.5 54.8281 37.7188 57.3125
Q35.9375 59.8125 33.3281 61.25
Q30.7188 62.7031 27.2969 62.7031
Q24.125 62.7031 21.5781 61.5781
Q19.0469 60.4531 17.2812 58.375
Q15.5312 56.2969 14.5781 53.3125
Q13.625 50.3438 13.625 46.6875
Q13.625 43.2188 14.4688 40.2344
Q15.3281 37.25 17.0312 35.0781
Q18.75 32.9062 21.2812 31.6562
Q23.8281 30.4219 27.2031 30.4219
Q29.6406 30.4219 32.1562 31.25
Q34.6719 32.0781 36.6875 33.7812
Q38.7188 35.5 40.0156 38.1094
Q41.3125 40.7188 41.3125 44.2812" id="LiberationSans-39"/>
    </defs>
    <g style="fill:#262626;" transform="translate(166.457796875 14.157)scale(0.096 -0.096)">
     <use xlink:href="#LiberationSans-56"/>
     <use x="66.69921875" xlink:href="#LiberationSans-47"/>
     <use x="144.482421875" xlink:href="#LiberationSans-47"/>
     <use x="222.265625" xlink:href="#LiberationSans-2d"/>
     <use x="255.56640625" xlink:href="#LiberationSans-31"/>
     <use x="311.181640625" xlink:href="#LiberationSans-39"/>
    </g>
   </g>
  </g>
 </g>
 <defs>
  <clipPath id="p58ffe85af0">
   <rect height="302.33" width="294.47609375" x="36.577" y="19.157"/>
  </clipPath>
 </defs>
</svg>
