<?xml version="1.0" encoding="utf-8" standalone="no"?>
<!DOCTYPE svg PUBLIC "-//W3C//DTD SVG 1.1//EN"
  "http://www.w3.org/Graphics/SVG/1.1/DTD/svg11.dtd">
<!-- Created with matplotlib (http://matplotlib.org/) -->
<svg height="360pt" version="1.1" viewBox="0 0 342 360" width="342pt" xmlns="http://www.w3.org/2000/svg" xmlns:xlink="http://www.w3.org/1999/xlink">
 <defs>
  <style type="text/css">
*{stroke-linecap:butt;stroke-linejoin:round;stroke-miterlimit:100000;}
  </style>
 </defs>
 <g id="figure_1">
  <g id="patch_1">
   <path d="M 0 360.13175 
L 342.83725 360.13175 
L 342.83725 0 
L 0 0 
z
" style="fill:#ffffff;"/>
  </g>
  <g id="axes_1">
   <g id="patch_2">
    <path d="M 37.12325 326.671 
L 335.63725 326.671 
L 335.63725 19.157 
L 37.12325 19.157 
z
" style="fill:#ffffff;"/>
   </g>
   <g id="matplotlib.axis_1">
    <g id="xtick_1">
     <g id="line2d_1">
      <defs>
       <path d="M 0 0 
L 0 0 
" id="mc113254502" style="stroke:#262626;stroke-width:0.8;"/>
      </defs>
      <g>
       <use style="fill:#262626;stroke:#262626;stroke-width:0.8;" x="61.9994166667" xlink:href="#mc113254502" y="326.671"/>
      </g>
     </g>
     <g id="text_1">
      <!-- 0.0 -->
      <defs>
       <path d="M 9.125 0 
L 9.125 10.6875 
L 18.65625 10.6875 
L 18.65625 0 
z
" id="LiberationSans-2e"/>
       <path d="M 51.703125 34.421875 
Q 51.703125 24.515625 49.828125 17.75 
Q 47.953125 10.984375 44.703125 6.8125 
Q 41.453125 2.640625 37.0625 0.828125 
Q 32.671875 -0.984375 27.6875 -0.984375 
Q 22.65625 -0.984375 18.3125 0.828125 
Q 13.96875 2.640625 10.765625 6.78125 
Q 7.5625 10.9375 5.734375 17.703125 
Q 3.90625 24.46875 3.90625 34.421875 
Q 3.90625 44.828125 5.734375 51.640625 
Q 7.5625 58.453125 10.78125 62.5 
Q 14.015625 66.546875 18.40625 68.1875 
Q 22.796875 69.828125 27.984375 69.828125 
Q 32.90625 69.828125 37.21875 68.1875 
Q 41.546875 66.546875 44.765625 62.5 
Q 48 58.453125 49.84375 51.640625 
Q 51.703125 44.828125 51.703125 34.421875 
M 42.78125 34.421875 
Q 42.78125 42.625 41.796875 48.0625 
Q 40.828125 53.515625 38.921875 56.765625 
Q 37.015625 60.015625 34.25 61.359375 
Q 31.5 62.703125 27.984375 62.703125 
Q 24.265625 62.703125 21.4375 61.328125 
Q 18.609375 59.96875 16.671875 56.71875 
Q 14.75 53.46875 13.765625 48.015625 
Q 12.796875 42.578125 12.796875 34.421875 
Q 12.796875 26.515625 13.796875 21.09375 
Q 14.796875 15.671875 16.71875 12.375 
Q 18.65625 9.078125 21.4375 7.640625 
Q 24.21875 6.203125 27.78125 6.203125 
Q 31.25 6.203125 34.03125 7.640625 
Q 36.8125 9.078125 38.734375 12.375 
Q 40.671875 15.671875 41.71875 21.09375 
Q 42.78125 26.515625 42.78125 34.421875 
" id="LiberationSans-30"/>
      </defs>
      <g style="fill:#262626;" transform="translate(56.4394166667 338.0685)scale(0.08 -0.08)">
       <use xlink:href="#LiberationSans-30"/>
       <use x="55.615234375" xlink:href="#LiberationSans-2e"/>
       <use x="83.3984375" xlink:href="#LiberationSans-30"/>
      </g>
     </g>
    </g>
    <g id="xtick_2">
     <g id="line2d_2">
      <g>
       <use style="fill:#262626;stroke:#262626;stroke-width:0.8;" x="111.75175" xlink:href="#mc113254502" y="326.671"/>
      </g>
     </g>
     <g id="text_2">
      <!-- 0.2 -->
      <defs>
       <path d="M 5.03125 0 
L 5.03125 6.203125 
Q 7.515625 11.921875 11.109375 16.28125 
Q 14.703125 20.65625 18.65625 24.1875 
Q 22.609375 27.734375 26.484375 30.765625 
Q 30.375 33.796875 33.5 36.8125 
Q 36.625 39.84375 38.546875 43.15625 
Q 40.484375 46.484375 40.484375 50.6875 
Q 40.484375 53.609375 39.59375 55.828125 
Q 38.71875 58.0625 37.0625 59.5625 
Q 35.40625 61.078125 33.078125 61.828125 
Q 30.765625 62.59375 27.9375 62.59375 
Q 25.296875 62.59375 22.96875 61.859375 
Q 20.65625 61.140625 18.84375 59.671875 
Q 17.046875 58.203125 15.890625 56.03125 
Q 14.75 53.859375 14.40625 50.984375 
L 5.421875 51.8125 
Q 5.859375 55.515625 7.46875 58.78125 
Q 9.078125 62.0625 11.90625 64.53125 
Q 14.75 67 18.71875 68.40625 
Q 22.703125 69.828125 27.9375 69.828125 
Q 33.0625 69.828125 37.0625 68.609375 
Q 41.0625 67.390625 43.8125 64.984375 
Q 46.578125 62.59375 48.046875 59.078125 
Q 49.515625 55.5625 49.515625 50.984375 
Q 49.515625 47.515625 48.265625 44.390625 
Q 47.015625 41.265625 44.9375 38.421875 
Q 42.875 35.59375 40.140625 32.953125 
Q 37.40625 30.328125 34.421875 27.8125 
Q 31.453125 25.296875 28.421875 22.828125 
Q 25.390625 20.359375 22.71875 17.859375 
Q 20.0625 15.375 17.96875 12.8125 
Q 15.875 10.25 14.703125 7.46875 
L 50.59375 7.46875 
L 50.59375 0 
z
" id="LiberationSans-32"/>
      </defs>
      <g style="fill:#262626;" transform="translate(106.19175 338.0685)scale(0.08 -0.08)">
       <use xlink:href="#LiberationSans-30"/>
       <use x="55.615234375" xlink:href="#LiberationSans-2e"/>
       <use x="83.3984375" xlink:href="#LiberationSans-32"/>
      </g>
     </g>
    </g>
    <g id="xtick_3">
     <g id="line2d_3">
      <g>
       <use style="fill:#262626;stroke:#262626;stroke-width:0.8;" x="161.504083333" xlink:href="#mc113254502" y="326.671"/>
      </g>
     </g>
     <g id="text_3">
      <!-- 0.4 -->
      <defs>
       <path d="M 43.015625 15.578125 
L 43.015625 0 
L 34.71875 0 
L 34.71875 15.578125 
L 2.296875 15.578125 
L 2.296875 22.40625 
L 33.796875 68.796875 
L 43.015625 68.796875 
L 43.015625 22.515625 
L 52.6875 22.515625 
L 52.6875 15.578125 
z
M 34.71875 58.890625 
Q 34.625 58.640625 34.234375 57.9375 
Q 33.84375 57.234375 33.34375 56.34375 
Q 32.859375 55.46875 32.34375 54.5625 
Q 31.84375 53.65625 31.453125 53.078125 
L 13.8125 27.09375 
Q 13.578125 26.703125 13.109375 26.0625 
Q 12.640625 25.4375 12.15625 24.78125 
Q 11.671875 24.125 11.171875 23.484375 
Q 10.6875 22.859375 10.40625 22.515625 
L 34.71875 22.515625 
z
" id="LiberationSans-34"/>
      </defs>
      <g style="fill:#262626;" transform="translate(155.944083333 338.0685)scale(0.08 -0.08)">
       <use xlink:href="#LiberationSans-30"/>
       <use x="55.615234375" xlink:href="#LiberationSans-2e"/>
       <use x="83.3984375" xlink:href="#LiberationSans-34"/>
      </g>
     </g>
    </g>
    <g id="xtick_4">
     <g id="line2d_4">
      <g>
       <use style="fill:#262626;stroke:#262626;stroke-width:0.8;" x="211.256416667" xlink:href="#mc113254502" y="326.671"/>
      </g>
     </g>
     <g id="text_4">
      <!-- 0.6 -->
      <defs>
       <path d="M 51.21875 22.515625 
Q 51.21875 17.328125 49.78125 13 
Q 48.34375 8.6875 45.53125 5.578125 
Q 42.71875 2.484375 38.5625 0.75 
Q 34.421875 -0.984375 29 -0.984375 
Q 23 -0.984375 18.5 1.3125 
Q 14.015625 3.609375 11.03125 7.921875 
Q 8.0625 12.25 6.5625 18.53125 
Q 5.078125 24.8125 5.078125 32.8125 
Q 5.078125 42 6.765625 48.921875 
Q 8.453125 55.859375 11.625 60.5 
Q 14.796875 65.140625 19.359375 67.484375 
Q 23.921875 69.828125 29.6875 69.828125 
Q 33.203125 69.828125 36.28125 69.09375 
Q 39.359375 68.359375 41.875 66.71875 
Q 44.390625 65.09375 46.28125 62.40625 
Q 48.1875 59.71875 49.3125 55.8125 
L 40.921875 54.296875 
Q 39.546875 58.734375 36.546875 60.71875 
Q 33.546875 62.703125 29.59375 62.703125 
Q 25.984375 62.703125 23.046875 60.984375 
Q 20.125 59.28125 18.0625 55.875 
Q 16.015625 52.484375 14.90625 47.359375 
Q 13.8125 42.234375 13.8125 35.40625 
Q 16.21875 39.84375 20.5625 42.15625 
Q 24.90625 44.484375 30.515625 44.484375 
Q 35.203125 44.484375 39.015625 42.96875 
Q 42.828125 41.453125 45.53125 38.59375 
Q 48.25 35.75 49.734375 31.671875 
Q 51.21875 27.59375 51.21875 22.515625 
M 42.28125 22.125 
Q 42.28125 25.6875 41.40625 28.5625 
Q 40.53125 31.453125 38.765625 33.46875 
Q 37.015625 35.5 34.421875 36.59375 
Q 31.84375 37.703125 28.421875 37.703125 
Q 26.03125 37.703125 23.578125 36.984375 
Q 21.140625 36.28125 19.15625 34.6875 
Q 17.1875 33.109375 15.9375 30.515625 
Q 14.703125 27.9375 14.703125 24.21875 
Q 14.703125 20.40625 15.671875 17.109375 
Q 16.65625 13.8125 18.484375 11.375 
Q 20.3125 8.9375 22.890625 7.515625 
Q 25.484375 6.109375 28.71875 6.109375 
Q 31.890625 6.109375 34.40625 7.203125 
Q 36.921875 8.296875 38.671875 10.375 
Q 40.4375 12.453125 41.359375 15.421875 
Q 42.28125 18.40625 42.28125 22.125 
" id="LiberationSans-36"/>
      </defs>
      <g style="fill:#262626;" transform="translate(205.696416667 338.0685)scale(0.08 -0.08)">
       <use xlink:href="#LiberationSans-30"/>
       <use x="55.615234375" xlink:href="#LiberationSans-2e"/>
       <use x="83.3984375" xlink:href="#LiberationSans-36"/>
      </g>
     </g>
    </g>
    <g id="xtick_5">
     <g id="line2d_5">
      <g>
       <use style="fill:#262626;stroke:#262626;stroke-width:0.8;" x="261.00875" xlink:href="#mc113254502" y="326.671"/>
      </g>
     </g>
     <g id="text_5">
      <!-- 0.8 -->
      <defs>
       <path d="M 51.265625 19.1875 
Q 51.265625 14.796875 49.875 11.109375 
Q 48.484375 7.421875 45.625 4.734375 
Q 42.78125 2.046875 38.328125 0.53125 
Q 33.890625 -0.984375 27.828125 -0.984375 
Q 21.78125 -0.984375 17.359375 0.53125 
Q 12.9375 2.046875 10.03125 4.703125 
Q 7.125 7.375 5.734375 11.0625 
Q 4.34375 14.75 4.34375 19.09375 
Q 4.34375 22.859375 5.484375 25.78125 
Q 6.640625 28.71875 8.5625 30.828125 
Q 10.5 32.953125 12.96875 34.25 
Q 15.4375 35.546875 18.0625 35.984375 
L 18.0625 36.1875 
Q 15.1875 36.859375 12.90625 38.375 
Q 10.640625 39.890625 9.09375 42.015625 
Q 7.5625 44.140625 6.75 46.71875 
Q 5.953125 49.3125 5.953125 52.203125 
Q 5.953125 55.8125 7.34375 59 
Q 8.734375 62.203125 11.46875 64.625 
Q 14.203125 67.046875 18.25 68.4375 
Q 22.3125 69.828125 27.640625 69.828125 
Q 33.25 69.828125 37.375 68.40625 
Q 41.5 67 44.203125 64.578125 
Q 46.921875 62.15625 48.234375 58.9375 
Q 49.5625 55.71875 49.5625 52.09375 
Q 49.5625 49.265625 48.75 46.671875 
Q 47.953125 44.09375 46.40625 41.96875 
Q 44.875 39.84375 42.59375 38.34375 
Q 40.328125 36.859375 37.359375 36.28125 
L 37.359375 36.078125 
Q 40.328125 35.59375 42.859375 34.296875 
Q 45.40625 33.015625 47.265625 30.890625 
Q 49.125 28.765625 50.1875 25.828125 
Q 51.265625 22.90625 51.265625 19.1875 
M 40.4375 51.609375 
Q 40.4375 54.203125 39.765625 56.34375 
Q 39.109375 58.5 37.59375 60.03125 
Q 36.078125 61.578125 33.640625 62.421875 
Q 31.203125 63.28125 27.640625 63.28125 
Q 24.171875 63.28125 21.78125 62.421875 
Q 19.390625 61.578125 17.84375 60.03125 
Q 16.3125 58.5 15.625 56.34375 
Q 14.9375 54.203125 14.9375 51.609375 
Q 14.9375 49.5625 15.46875 47.40625 
Q 16.015625 45.265625 17.421875 43.5 
Q 18.84375 41.75 21.328125 40.625 
Q 23.828125 39.5 27.734375 39.5 
Q 31.890625 39.5 34.40625 40.625 
Q 36.921875 41.75 38.25 43.5 
Q 39.59375 45.265625 40.015625 47.40625 
Q 40.4375 49.5625 40.4375 51.609375 
M 42.140625 20.015625 
Q 42.140625 22.515625 41.453125 24.828125 
Q 40.765625 27.15625 39.109375 28.9375 
Q 37.453125 30.71875 34.640625 31.8125 
Q 31.84375 32.90625 27.640625 32.90625 
Q 23.78125 32.90625 21.0625 31.8125 
Q 18.359375 30.71875 16.671875 28.90625 
Q 14.984375 27.09375 14.203125 24.71875 
Q 13.421875 22.359375 13.421875 19.828125 
Q 13.421875 16.65625 14.203125 14.03125 
Q 14.984375 11.421875 16.6875 9.546875 
Q 18.40625 7.671875 21.1875 6.640625 
Q 23.96875 5.609375 27.9375 5.609375 
Q 31.9375 5.609375 34.671875 6.640625 
Q 37.40625 7.671875 39.0625 9.546875 
Q 40.71875 11.421875 41.421875 14.078125 
Q 42.140625 16.75 42.140625 20.015625 
" id="LiberationSans-38"/>
      </defs>
      <g style="fill:#262626;" transform="translate(255.44875 338.0685)scale(0.08 -0.08)">
       <use xlink:href="#LiberationSans-30"/>
       <use x="55.615234375" xlink:href="#LiberationSans-2e"/>
       <use x="83.3984375" xlink:href="#LiberationSans-38"/>
      </g>
     </g>
    </g>
    <g id="xtick_6">
     <g id="line2d_6">
      <g>
       <use style="fill:#262626;stroke:#262626;stroke-width:0.8;" x="310.761083333" xlink:href="#mc113254502" y="326.671"/>
      </g>
     </g>
     <g id="text_6">
      <!-- 1.0 -->
      <defs>
       <path d="M 7.625 0 
L 7.625 7.46875 
L 25.140625 7.46875 
L 25.140625 60.40625 
L 9.625 49.3125 
L 9.625 57.625 
L 25.875 68.796875 
L 33.984375 68.796875 
L 33.984375 7.46875 
L 50.734375 7.46875 
L 50.734375 0 
z
" id="LiberationSans-31"/>
      </defs>
      <g style="fill:#262626;" transform="translate(305.201083333 338.0685)scale(0.08 -0.08)">
       <use xlink:href="#LiberationSans-31"/>
       <use x="55.615234375" xlink:href="#LiberationSans-2e"/>
       <use x="83.3984375" xlink:href="#LiberationSans-30"/>
      </g>
     </g>
    </g>
    <g id="text_7">
     <!-- human accuracy -->
     <defs>
      <path d="M 6.9375 0 
L 6.9375 40.53125 
Q 6.9375 42.1875 6.90625 43.921875 
Q 6.890625 45.65625 6.828125 47.265625 
Q 6.78125 48.875 6.734375 50.28125 
Q 6.6875 51.703125 6.640625 52.828125 
L 14.9375 52.828125 
Q 14.984375 51.703125 15.0625 50.265625 
Q 15.140625 48.828125 15.203125 47.3125 
Q 15.28125 45.796875 15.296875 44.40625 
Q 15.328125 43.015625 15.328125 42.046875 
L 15.53125 42.046875 
Q 16.453125 45.0625 17.5 47.28125 
Q 18.5625 49.515625 19.96875 50.953125 
Q 21.390625 52.390625 23.34375 53.09375 
Q 25.296875 53.8125 28.078125 53.8125 
Q 29.15625 53.8125 30.125 53.640625 
Q 31.109375 53.46875 31.640625 53.328125 
L 31.640625 45.265625 
Q 30.765625 45.515625 29.59375 45.625 
Q 28.421875 45.75 26.953125 45.75 
Q 23.921875 45.75 21.796875 44.375 
Q 19.671875 43.015625 18.328125 40.59375 
Q 17 38.1875 16.359375 34.84375 
Q 15.71875 31.5 15.71875 27.546875 
L 15.71875 0 
z
" id="LiberationSans-72"/>
      <path d="M 20.21875 -0.984375 
Q 12.25 -0.984375 8.25 3.21875 
Q 4.25 7.421875 4.25 14.75 
Q 4.25 19.96875 6.21875 23.3125 
Q 8.203125 26.65625 11.390625 28.5625 
Q 14.59375 30.46875 18.6875 31.203125 
Q 22.796875 31.9375 27.046875 32.03125 
L 38.921875 32.234375 
L 38.921875 35.109375 
Q 38.921875 38.375 38.234375 40.671875 
Q 37.546875 42.96875 36.125 44.375 
Q 34.71875 45.796875 32.59375 46.453125 
Q 30.46875 47.125 27.59375 47.125 
Q 25.046875 47.125 23 46.75 
Q 20.953125 46.390625 19.4375 45.4375 
Q 17.921875 44.484375 16.984375 42.84375 
Q 16.0625 41.21875 15.765625 38.71875 
L 6.59375 39.546875 
Q 7.078125 42.671875 8.4375 45.28125 
Q 9.8125 47.90625 12.328125 49.796875 
Q 14.84375 51.703125 18.625 52.75 
Q 22.40625 53.8125 27.78125 53.8125 
Q 37.75 53.8125 42.765625 49.234375 
Q 47.796875 44.671875 47.796875 36.03125 
L 47.796875 13.28125 
Q 47.796875 9.375 48.828125 7.390625 
Q 49.859375 5.421875 52.734375 5.421875 
Q 53.46875 5.421875 54.203125 5.515625 
Q 54.9375 5.609375 55.609375 5.765625 
L 55.609375 0.296875 
Q 53.953125 -0.09375 52.3125 -0.28125 
Q 50.6875 -0.484375 48.828125 -0.484375 
Q 46.34375 -0.484375 44.5625 0.171875 
Q 42.78125 0.828125 41.65625 2.171875 
Q 40.53125 3.515625 39.9375 5.484375 
Q 39.359375 7.46875 39.203125 10.109375 
L 38.921875 10.109375 
Q 37.5 7.5625 35.8125 5.515625 
Q 34.125 3.46875 31.875 2.03125 
Q 29.640625 0.59375 26.78125 -0.1875 
Q 23.921875 -0.984375 20.21875 -0.984375 
M 22.21875 5.609375 
Q 26.421875 5.609375 29.5625 7.140625 
Q 32.71875 8.6875 34.78125 11.078125 
Q 36.859375 13.484375 37.890625 16.3125 
Q 38.921875 19.140625 38.921875 21.734375 
L 38.921875 26.078125 
L 29.296875 25.875 
Q 26.078125 25.828125 23.171875 25.40625 
Q 20.265625 25 18.0625 23.78125 
Q 15.875 22.5625 14.578125 20.359375 
Q 13.28125 18.171875 13.28125 14.59375 
Q 13.28125 10.296875 15.59375 7.953125 
Q 17.921875 5.609375 22.21875 5.609375 
" id="LiberationSans-61"/>
      <path d="M 15.328125 52.828125 
L 15.328125 19.34375 
Q 15.328125 15.484375 15.890625 12.890625 
Q 16.453125 10.296875 17.71875 8.703125 
Q 19 7.125 21.0625 6.46875 
Q 23.140625 5.8125 26.21875 5.8125 
Q 29.34375 5.8125 31.859375 6.90625 
Q 34.375 8.015625 36.15625 10.078125 
Q 37.9375 12.15625 38.90625 15.203125 
Q 39.890625 18.265625 39.890625 22.21875 
L 39.890625 52.828125 
L 48.6875 52.828125 
L 48.6875 11.28125 
Q 48.6875 9.625 48.703125 7.78125 
Q 48.734375 5.953125 48.78125 4.3125 
Q 48.828125 2.6875 48.875 1.515625 
Q 48.921875 0.34375 48.96875 0 
L 40.671875 0 
Q 40.625 0.25 40.578125 1.3125 
Q 40.53125 2.390625 40.453125 3.78125 
Q 40.375 5.171875 40.328125 6.609375 
Q 40.28125 8.0625 40.28125 9.03125 
L 40.140625 9.03125 
Q 38.875 6.734375 37.359375 4.875 
Q 35.84375 3.03125 33.84375 1.734375 
Q 31.84375 0.4375 29.25 -0.265625 
Q 26.65625 -0.984375 23.25 -0.984375 
Q 18.84375 -0.984375 15.671875 0.09375 
Q 12.5 1.171875 10.453125 3.421875 
Q 8.40625 5.671875 7.453125 9.1875 
Q 6.5 12.703125 6.5 17.625 
L 6.5 52.828125 
z
" id="LiberationSans-75"/>
      <path d="M 13.421875 26.65625 
Q 13.421875 22.125 14.078125 18.3125 
Q 14.75 14.5 16.3125 11.734375 
Q 17.875 8.984375 20.4375 7.46875 
Q 23 5.953125 26.765625 5.953125 
Q 31.453125 5.953125 34.59375 8.484375 
Q 37.75 11.03125 38.484375 16.3125 
L 47.359375 15.71875 
Q 46.921875 12.453125 45.453125 9.421875 
Q 44 6.390625 41.484375 4.09375 
Q 38.96875 1.8125 35.34375 0.40625 
Q 31.734375 -0.984375 27 -0.984375 
Q 20.796875 -0.984375 16.453125 1.109375 
Q 12.109375 3.21875 9.390625 6.90625 
Q 6.6875 10.59375 5.46875 15.59375 
Q 4.25 20.609375 4.25 26.46875 
Q 4.25 31.78125 5.125 35.859375 
Q 6 39.9375 7.59375 42.984375 
Q 9.1875 46.046875 11.328125 48.125 
Q 13.484375 50.203125 15.984375 51.4375 
Q 18.5 52.6875 21.28125 53.25 
Q 24.078125 53.8125 26.90625 53.8125 
Q 31.34375 53.8125 34.8125 52.59375 
Q 38.28125 51.375 40.796875 49.25 
Q 43.3125 47.125 44.875 44.234375 
Q 46.4375 41.359375 47.078125 38.03125 
L 38.03125 37.359375 
Q 37.359375 41.75 34.5625 44.328125 
Q 31.78125 46.921875 26.65625 46.921875 
Q 22.90625 46.921875 20.390625 45.671875 
Q 17.875 44.4375 16.3125 41.921875 
Q 14.75 39.40625 14.078125 35.59375 
Q 13.421875 31.78125 13.421875 26.65625 
" id="LiberationSans-63"/>
      <path d="M 29.5 0 
Q 27.640625 -4.78125 25.703125 -8.609375 
Q 23.78125 -12.453125 21.390625 -15.15625 
Q 19 -17.875 16.0625 -19.3125 
Q 13.140625 -20.75 9.328125 -20.75 
Q 7.671875 -20.75 6.25 -20.65625 
Q 4.828125 -20.5625 3.265625 -20.21875 
L 3.265625 -13.625 
Q 4.203125 -13.765625 5.375 -13.84375 
Q 6.546875 -13.921875 7.375 -13.921875 
Q 11.234375 -13.921875 14.546875 -11.03125 
Q 17.875 -8.15625 20.359375 -1.859375 
L 21.1875 0.25 
L 0.25 52.828125 
L 9.625 52.828125 
L 20.75 23.640625 
Q 21.234375 22.3125 21.984375 20.109375 
Q 22.75 17.921875 23.5 15.71875 
Q 24.265625 13.53125 24.84375 11.765625 
Q 25.4375 10.015625 25.53125 9.578125 
Q 25.6875 10.109375 26.25 11.6875 
Q 26.8125 13.28125 27.515625 15.234375 
Q 28.21875 17.1875 28.953125 19.1875 
Q 29.6875 21.1875 30.171875 22.65625 
L 40.53125 52.828125 
L 49.8125 52.828125 
z
" id="LiberationSans-79"/>
      <path d="M 15.484375 43.796875 
Q 16.9375 46.484375 18.640625 48.359375 
Q 20.359375 50.25 22.40625 51.46875 
Q 24.46875 52.6875 26.90625 53.25 
Q 29.34375 53.8125 32.375 53.8125 
Q 37.453125 53.8125 40.703125 52.4375 
Q 43.953125 51.078125 45.828125 48.609375 
Q 47.703125 46.140625 48.40625 42.71875 
Q 49.125 39.3125 49.125 35.203125 
L 49.125 0 
L 40.28125 0 
L 40.28125 33.5 
Q 40.28125 36.859375 39.859375 39.390625 
Q 39.453125 41.9375 38.28125 43.625 
Q 37.109375 45.3125 34.953125 46.15625 
Q 32.8125 47.015625 29.390625 47.015625 
Q 26.265625 47.015625 23.75 45.890625 
Q 21.234375 44.78125 19.453125 42.71875 
Q 17.671875 40.671875 16.6875 37.734375 
Q 15.71875 34.8125 15.71875 31.15625 
L 15.71875 0 
L 6.9375 0 
L 6.9375 72.46875 
L 15.71875 72.46875 
L 15.71875 53.609375 
Q 15.71875 52 15.671875 50.390625 
Q 15.625 48.78125 15.546875 47.40625 
Q 15.484375 46.046875 15.421875 45.09375 
Q 15.375 44.140625 15.328125 43.796875 
z
" id="LiberationSans-68"/>
      <path d="M 37.5 0 
L 37.5 33.5 
Q 37.5 37.359375 37.015625 39.9375 
Q 36.53125 42.53125 35.375 44.109375 
Q 34.234375 45.703125 32.375 46.359375 
Q 30.515625 47.015625 27.828125 47.015625 
Q 25.046875 47.015625 22.796875 45.921875 
Q 20.5625 44.828125 18.96875 42.75 
Q 17.390625 40.671875 16.53125 37.625 
Q 15.671875 34.578125 15.671875 30.609375 
L 15.671875 0 
L 6.9375 0 
L 6.9375 41.546875 
Q 6.9375 43.21875 6.90625 45.046875 
Q 6.890625 46.875 6.828125 48.5 
Q 6.78125 50.140625 6.734375 51.3125 
Q 6.6875 52.484375 6.640625 52.828125 
L 14.9375 52.828125 
Q 14.984375 52.59375 15.03125 51.515625 
Q 15.09375 50.4375 15.15625 49.046875 
Q 15.234375 47.65625 15.28125 46.21875 
Q 15.328125 44.78125 15.328125 43.796875 
L 15.484375 43.796875 
Q 16.65625 46.09375 18.015625 47.953125 
Q 19.390625 49.8125 21.21875 51.09375 
Q 23.046875 52.390625 25.40625 53.09375 
Q 27.78125 53.8125 30.90625 53.8125 
Q 36.921875 53.8125 40.40625 51.421875 
Q 43.890625 49.03125 45.265625 43.796875 
L 45.40625 43.796875 
Q 46.578125 46.09375 48.046875 47.953125 
Q 49.515625 49.8125 51.46875 51.09375 
Q 53.421875 52.390625 55.859375 53.09375 
Q 58.296875 53.8125 61.421875 53.8125 
Q 65.4375 53.8125 68.328125 52.734375 
Q 71.234375 51.65625 73.09375 49.40625 
Q 74.953125 47.171875 75.828125 43.625 
Q 76.703125 40.09375 76.703125 35.203125 
L 76.703125 0 
L 68.015625 0 
L 68.015625 33.5 
Q 68.015625 37.359375 67.53125 39.9375 
Q 67.046875 42.53125 65.890625 44.109375 
Q 64.75 45.703125 62.890625 46.359375 
Q 61.03125 47.015625 58.34375 47.015625 
Q 55.5625 47.015625 53.3125 45.96875 
Q 51.078125 44.921875 49.484375 42.875 
Q 47.90625 40.828125 47.046875 37.75 
Q 46.1875 34.671875 46.1875 30.609375 
L 46.1875 0 
z
" id="LiberationSans-6d"/>
      <path d="M 40.28125 0 
L 40.28125 33.5 
Q 40.28125 37.359375 39.71875 39.9375 
Q 39.15625 42.53125 37.890625 44.109375 
Q 36.625 45.703125 34.546875 46.359375 
Q 32.46875 47.015625 29.390625 47.015625 
Q 26.265625 47.015625 23.75 45.921875 
Q 21.234375 44.828125 19.453125 42.75 
Q 17.671875 40.671875 16.6875 37.625 
Q 15.71875 34.578125 15.71875 30.609375 
L 15.71875 0 
L 6.9375 0 
L 6.9375 41.546875 
Q 6.9375 43.21875 6.90625 45.046875 
Q 6.890625 46.875 6.828125 48.5 
Q 6.78125 50.140625 6.734375 51.3125 
Q 6.6875 52.484375 6.640625 52.828125 
L 14.9375 52.828125 
Q 14.984375 52.59375 15.03125 51.515625 
Q 15.09375 50.4375 15.15625 49.046875 
Q 15.234375 47.65625 15.28125 46.21875 
Q 15.328125 44.78125 15.328125 43.796875 
L 15.484375 43.796875 
Q 16.75 46.09375 18.265625 47.953125 
Q 19.78125 49.8125 21.78125 51.09375 
Q 23.78125 52.390625 26.359375 53.09375 
Q 28.953125 53.8125 32.375 53.8125 
Q 36.765625 53.8125 39.9375 52.734375 
Q 43.109375 51.65625 45.15625 49.40625 
Q 47.21875 47.171875 48.171875 43.625 
Q 49.125 40.09375 49.125 35.203125 
L 49.125 0 
z
" id="LiberationSans-6e"/>
      <path id="LiberationSans-20"/>
     </defs>
     <g style="fill:#262626;" transform="translate(154.1000625 351.10575)scale(0.088 -0.088)">
      <use xlink:href="#LiberationSans-68"/>
      <use x="55.615234375" xlink:href="#LiberationSans-75"/>
      <use x="111.23046875" xlink:href="#LiberationSans-6d"/>
      <use x="194.53125" xlink:href="#LiberationSans-61"/>
      <use x="250.146484375" xlink:href="#LiberationSans-6e"/>
      <use x="305.76171875" xlink:href="#LiberationSans-20"/>
      <use x="333.544921875" xlink:href="#LiberationSans-61"/>
      <use x="389.16015625" xlink:href="#LiberationSans-63"/>
      <use x="439.16015625" xlink:href="#LiberationSans-63"/>
      <use x="489.16015625" xlink:href="#LiberationSans-75"/>
      <use x="544.775390625" xlink:href="#LiberationSans-72"/>
      <use x="578.076171875" xlink:href="#LiberationSans-61"/>
      <use x="633.69140625" xlink:href="#LiberationSans-63"/>
      <use x="683.69140625" xlink:href="#LiberationSans-79"/>
     </g>
    </g>
   </g>
   <g id="matplotlib.axis_2">
    <g id="ytick_1">
     <g id="line2d_7">
      <g>
       <use style="fill:#262626;stroke:#262626;stroke-width:0.8;" x="37.12325" xlink:href="#mc113254502" y="301.044833333"/>
      </g>
     </g>
     <g id="text_8">
      <!-- 0.0 -->
      <g style="fill:#262626;" transform="translate(20.40325 303.113583333)scale(0.08 -0.08)">
       <use xlink:href="#LiberationSans-30"/>
       <use x="55.615234375" xlink:href="#LiberationSans-2e"/>
       <use x="83.3984375" xlink:href="#LiberationSans-30"/>
      </g>
     </g>
    </g>
    <g id="ytick_2">
     <g id="line2d_8">
      <g>
       <use style="fill:#262626;stroke:#262626;stroke-width:0.8;" x="37.12325" xlink:href="#mc113254502" y="249.7925"/>
      </g>
     </g>
     <g id="text_9">
      <!-- 0.2 -->
      <g style="fill:#262626;" transform="translate(20.40325 251.86125)scale(0.08 -0.08)">
       <use xlink:href="#LiberationSans-30"/>
       <use x="55.615234375" xlink:href="#LiberationSans-2e"/>
       <use x="83.3984375" xlink:href="#LiberationSans-32"/>
      </g>
     </g>
    </g>
    <g id="ytick_3">
     <g id="line2d_9">
      <g>
       <use style="fill:#262626;stroke:#262626;stroke-width:0.8;" x="37.12325" xlink:href="#mc113254502" y="198.540166667"/>
      </g>
     </g>
     <g id="text_10">
      <!-- 0.4 -->
      <g style="fill:#262626;" transform="translate(20.40325 200.608916667)scale(0.08 -0.08)">
       <use xlink:href="#LiberationSans-30"/>
       <use x="55.615234375" xlink:href="#LiberationSans-2e"/>
       <use x="83.3984375" xlink:href="#LiberationSans-34"/>
      </g>
     </g>
    </g>
    <g id="ytick_4">
     <g id="line2d_10">
      <g>
       <use style="fill:#262626;stroke:#262626;stroke-width:0.8;" x="37.12325" xlink:href="#mc113254502" y="147.287833333"/>
      </g>
     </g>
     <g id="text_11">
      <!-- 0.6 -->
      <g style="fill:#262626;" transform="translate(20.40325 149.356583333)scale(0.08 -0.08)">
       <use xlink:href="#LiberationSans-30"/>
       <use x="55.615234375" xlink:href="#LiberationSans-2e"/>
       <use x="83.3984375" xlink:href="#LiberationSans-36"/>
      </g>
     </g>
    </g>
    <g id="ytick_5">
     <g id="line2d_11">
      <g>
       <use style="fill:#262626;stroke:#262626;stroke-width:0.8;" x="37.12325" xlink:href="#mc113254502" y="96.0355"/>
      </g>
     </g>
     <g id="text_12">
      <!-- 0.8 -->
      <g style="fill:#262626;" transform="translate(20.40325 98.10425)scale(0.08 -0.08)">
       <use xlink:href="#LiberationSans-30"/>
       <use x="55.615234375" xlink:href="#LiberationSans-2e"/>
       <use x="83.3984375" xlink:href="#LiberationSans-38"/>
      </g>
     </g>
    </g>
    <g id="ytick_6">
     <g id="line2d_12">
      <g>
       <use style="fill:#262626;stroke:#262626;stroke-width:0.8;" x="37.12325" xlink:href="#mc113254502" y="44.7831666667"/>
      </g>
     </g>
     <g id="text_13">
      <!-- 1.0 -->
      <g style="fill:#262626;" transform="translate(20.40325 46.8519166667)scale(0.08 -0.08)">
       <use xlink:href="#LiberationSans-31"/>
       <use x="55.615234375" xlink:href="#LiberationSans-2e"/>
       <use x="83.3984375" xlink:href="#LiberationSans-30"/>
      </g>
     </g>
    </g>
    <g id="text_14">
     <!-- model accuracy -->
     <defs>
      <path d="M 40.09375 8.5 
Q 37.640625 3.421875 33.609375 1.21875 
Q 29.59375 -0.984375 23.640625 -0.984375 
Q 13.625 -0.984375 8.90625 5.75 
Q 4.203125 12.5 4.203125 26.171875 
Q 4.203125 53.8125 23.640625 53.8125 
Q 29.640625 53.8125 33.640625 51.609375 
Q 37.640625 49.421875 40.09375 44.625 
L 40.1875 44.625 
Q 40.1875 45.125 40.15625 46.171875 
Q 40.140625 47.21875 40.109375 48.359375 
Q 40.09375 49.515625 40.09375 50.53125 
Q 40.09375 51.5625 40.09375 52 
L 40.09375 72.46875 
L 48.875 72.46875 
L 48.875 10.890625 
Q 48.875 8.984375 48.890625 7.21875 
Q 48.921875 5.46875 48.96875 4 
Q 49.03125 2.546875 49.078125 1.484375 
Q 49.125 0.4375 49.171875 0 
L 40.765625 0 
Q 40.671875 0.484375 40.59375 1.390625 
Q 40.53125 2.296875 40.453125 3.46875 
Q 40.375 4.640625 40.328125 5.9375 
Q 40.28125 7.234375 40.28125 8.5 
z
M 13.421875 26.46875 
Q 13.421875 21 14.109375 17.09375 
Q 14.796875 13.1875 16.3125 10.671875 
Q 17.828125 8.15625 20.171875 6.984375 
Q 22.515625 5.8125 25.875 5.8125 
Q 29.34375 5.8125 32 6.9375 
Q 34.671875 8.0625 36.453125 10.578125 
Q 38.234375 13.09375 39.15625 17.140625 
Q 40.09375 21.1875 40.09375 27.046875 
Q 40.09375 32.671875 39.15625 36.546875 
Q 38.234375 40.4375 36.421875 42.828125 
Q 34.625 45.21875 32 46.265625 
Q 29.390625 47.3125 25.984375 47.3125 
Q 22.75 47.3125 20.40625 46.1875 
Q 18.0625 45.0625 16.5 42.578125 
Q 14.9375 40.09375 14.171875 36.109375 
Q 13.421875 32.125 13.421875 26.46875 
" id="LiberationSans-64"/>
      <path d="M 13.484375 24.5625 
Q 13.484375 20.40625 14.328125 16.90625 
Q 15.1875 13.421875 16.96875 10.90625 
Q 18.75 8.40625 21.53125 7 
Q 24.3125 5.609375 28.21875 5.609375 
Q 33.9375 5.609375 37.375 7.90625 
Q 40.828125 10.203125 42.046875 13.71875 
L 49.75 11.53125 
Q 48.921875 9.328125 47.4375 7.109375 
Q 45.953125 4.890625 43.453125 3.09375 
Q 40.96875 1.3125 37.234375 0.15625 
Q 33.5 -0.984375 28.21875 -0.984375 
Q 16.5 -0.984375 10.375 6 
Q 4.25 12.984375 4.25 26.765625 
Q 4.25 34.1875 6.09375 39.328125 
Q 7.953125 44.484375 11.171875 47.703125 
Q 14.40625 50.921875 18.703125 52.359375 
Q 23 53.8125 27.875 53.8125 
Q 34.515625 53.8125 38.984375 51.65625 
Q 43.453125 49.515625 46.15625 45.71875 
Q 48.875 41.9375 50.015625 36.8125 
Q 51.171875 31.6875 51.171875 25.734375 
L 51.171875 24.5625 
z
M 42.09375 31.296875 
Q 41.359375 39.65625 37.84375 43.484375 
Q 34.328125 47.3125 27.734375 47.3125 
Q 25.53125 47.3125 23.109375 46.609375 
Q 20.703125 45.90625 18.65625 44.09375 
Q 16.609375 42.28125 15.1875 39.171875 
Q 13.765625 36.078125 13.578125 31.296875 
z
" id="LiberationSans-65"/>
      <path d="M 51.421875 26.46875 
Q 51.421875 12.59375 45.3125 5.796875 
Q 39.203125 -0.984375 27.59375 -0.984375 
Q 22.078125 -0.984375 17.71875 0.671875 
Q 13.375 2.34375 10.375 5.765625 
Q 7.375 9.1875 5.78125 14.328125 
Q 4.203125 19.484375 4.203125 26.46875 
Q 4.203125 53.8125 27.875 53.8125 
Q 34.03125 53.8125 38.5 52.09375 
Q 42.96875 50.390625 45.828125 46.96875 
Q 48.6875 43.5625 50.046875 38.421875 
Q 51.421875 33.296875 51.421875 26.46875 
M 42.1875 26.46875 
Q 42.1875 32.625 41.234375 36.625 
Q 40.28125 40.625 38.453125 43.015625 
Q 36.625 45.40625 33.984375 46.359375 
Q 31.34375 47.3125 28.03125 47.3125 
Q 24.65625 47.3125 21.9375 46.3125 
Q 19.234375 45.3125 17.328125 42.890625 
Q 15.4375 40.484375 14.421875 36.46875 
Q 13.421875 32.46875 13.421875 26.46875 
Q 13.421875 20.3125 14.5 16.28125 
Q 15.578125 12.25 17.453125 9.859375 
Q 19.34375 7.46875 21.90625 6.484375 
Q 24.46875 5.515625 27.484375 5.515625 
Q 30.859375 5.515625 33.59375 6.46875 
Q 36.328125 7.421875 38.234375 9.8125 
Q 40.140625 12.203125 41.15625 16.25 
Q 42.1875 20.3125 42.1875 26.46875 
" id="LiberationSans-6f"/>
      <path d="M 6.734375 0 
L 6.734375 72.46875 
L 15.53125 72.46875 
L 15.53125 0 
z
" id="LiberationSans-6c"/>
     </defs>
     <g style="fill:#262626;" transform="translate(13.57725 203.725)rotate(-90.0)scale(0.088 -0.088)">
      <use xlink:href="#LiberationSans-6d"/>
      <use x="83.30078125" xlink:href="#LiberationSans-6f"/>
      <use x="138.916015625" xlink:href="#LiberationSans-64"/>
      <use x="194.53125" xlink:href="#LiberationSans-65"/>
      <use x="250.146484375" xlink:href="#LiberationSans-6c"/>
      <use x="272.36328125" xlink:href="#LiberationSans-20"/>
      <use x="300.146484375" xlink:href="#LiberationSans-61"/>
      <use x="355.76171875" xlink:href="#LiberationSans-63"/>
      <use x="405.76171875" xlink:href="#LiberationSans-63"/>
      <use x="455.76171875" xlink:href="#LiberationSans-75"/>
      <use x="511.376953125" xlink:href="#LiberationSans-72"/>
      <use x="544.677734375" xlink:href="#LiberationSans-61"/>
      <use x="600.29296875" xlink:href="#LiberationSans-63"/>
      <use x="650.29296875" xlink:href="#LiberationSans-79"/>
     </g>
    </g>
   </g>
   <g id="PathCollection_1">
    <defs>
     <path d="M 0 2.236068 
C 0.593012 2.236068 1.161816 2.000462 1.581139 1.581139 
C 2.000462 1.161816 2.236068 0.593012 2.236068 0 
C 2.236068 -0.593012 2.000462 -1.161816 1.581139 -1.581139 
C 1.161816 -2.000462 0.593012 -2.236068 0 -2.236068 
C -0.593012 -2.236068 -1.161816 -2.000462 -1.581139 -1.581139 
C -2.000462 -1.161816 -2.236068 -0.593012 -2.236068 0 
C -2.236068 0.593012 -2.000462 1.161816 -1.581139 1.581139 
C -1.161816 2.000462 -0.593012 2.236068 0 2.236068 
z
" id="m188d4c64e4"/>
    </defs>
    <g clip-path="url(#pbe6fed1be9)">
     <use style="fill:#fa8e63;fill-opacity:0.8;" x="63.8649848172" xlink:href="#m188d4c64e4" y="295.996076031"/>
     <use style="fill:#fa8e63;fill-opacity:0.8;" x="311.972661738" xlink:href="#m188d4c64e4" y="53.3452802926"/>
     <use style="fill:#fa8e63;fill-opacity:0.8;" x="112.509949746" xlink:href="#m188d4c64e4" y="294.496242926"/>
     <use style="fill:#fa8e63;fill-opacity:0.8;" x="287.653296465" xlink:href="#m188d4c64e4" y="44.4607860478"/>
     <use style="fill:#fa8e63;fill-opacity:0.8;" x="213.700594916" xlink:href="#m188d4c64e4" y="296.644472592"/>
     <use style="fill:#fa8e63;fill-opacity:0.8;" x="286.651416736" xlink:href="#m188d4c64e4" y="293.333119727"/>
     <use style="fill:#fa8e63;fill-opacity:0.8;" x="262.515941675" xlink:href="#m188d4c64e4" y="312.223263228"/>
     <use style="fill:#fa8e63;fill-opacity:0.8;" x="285.704249301" xlink:href="#m188d4c64e4" y="52.5881794641"/>
     <use style="fill:#fa8e63;fill-opacity:0.8;" x="263.192637936" xlink:href="#m188d4c64e4" y="32.0557062731"/>
     <use style="fill:#fa8e63;fill-opacity:0.8;" x="109.784906847" xlink:href="#m188d4c64e4" y="313.094766293"/>
     <use style="fill:#fa8e63;fill-opacity:0.8;" x="262.624347339" xlink:href="#m188d4c64e4" y="54.8129334022"/>
     <use style="fill:#fa8e63;fill-opacity:0.8;" x="212.731716922" xlink:href="#m188d4c64e4" y="49.879871663"/>
     <use style="fill:#fa8e63;fill-opacity:0.8;" x="84.7284808529" xlink:href="#m188d4c64e4" y="301.468625699"/>
     <use style="fill:#fa8e63;fill-opacity:0.8;" x="87.4780753213" xlink:href="#m188d4c64e4" y="49.6432913713"/>
     <use style="fill:#fa8e63;fill-opacity:0.8;" x="187.144617408" xlink:href="#m188d4c64e4" y="310.016553057"/>
     <use style="fill:#fa8e63;fill-opacity:0.8;" x="312.15208965" xlink:href="#m188d4c64e4" y="307.443948755"/>
     <use style="fill:#fa8e63;fill-opacity:0.8;" x="287.508087033" xlink:href="#m188d4c64e4" y="297.245720696"/>
     <use style="fill:#fa8e63;fill-opacity:0.8;" x="311.703625499" xlink:href="#m188d4c64e4" y="311.061993273"/>
     <use style="fill:#fa8e63;fill-opacity:0.8;" x="309.032542616" xlink:href="#m188d4c64e4" y="45.917714871"/>
     <use style="fill:#fa8e63;fill-opacity:0.8;" x="233.878293018" xlink:href="#m188d4c64e4" y="52.2621623043"/>
     <use style="fill:#fa8e63;fill-opacity:0.8;" x="187.645203647" xlink:href="#m188d4c64e4" y="45.8898960679"/>
     <use style="fill:#fa8e63;fill-opacity:0.8;" x="285.818006497" xlink:href="#m188d4c64e4" y="43.8437108295"/>
     <use style="fill:#fa8e63;fill-opacity:0.8;" x="311.738660028" xlink:href="#m188d4c64e4" y="46.4846995351"/>
     <use style="fill:#fa8e63;fill-opacity:0.8;" x="238.410212845" xlink:href="#m188d4c64e4" y="288.696421109"/>
     <use style="fill:#fa8e63;fill-opacity:0.8;" x="59.5935830749" xlink:href="#m188d4c64e4" y="56.4632281493"/>
     <use style="fill:#fa8e63;fill-opacity:0.8;" x="286.671062672" xlink:href="#m188d4c64e4" y="289.162163133"/>
     <use style="fill:#fa8e63;fill-opacity:0.8;" x="160.366050236" xlink:href="#m188d4c64e4" y="297.930488782"/>
     <use style="fill:#fa8e63;fill-opacity:0.8;" x="63.5876534963" xlink:href="#m188d4c64e4" y="298.419326128"/>
     <use style="fill:#fa8e63;fill-opacity:0.8;" x="312.192244332" xlink:href="#m188d4c64e4" y="299.618996027"/>
     <use style="fill:#fa8e63;fill-opacity:0.8;" x="85.3054952066" xlink:href="#m188d4c64e4" y="309.311593048"/>
     <use style="fill:#fa8e63;fill-opacity:0.8;" x="311.231956645" xlink:href="#m188d4c64e4" y="37.2932160346"/>
     <use style="fill:#fa8e63;fill-opacity:0.8;" x="286.717143229" xlink:href="#m188d4c64e4" y="43.374633061"/>
     <use style="fill:#fa8e63;fill-opacity:0.8;" x="60.7719853526" xlink:href="#m188d4c64e4" y="297.120552817"/>
     <use style="fill:#fa8e63;fill-opacity:0.8;" x="213.609558006" xlink:href="#m188d4c64e4" y="288.82341522"/>
     <use style="fill:#fa8e63;fill-opacity:0.8;" x="260.215336816" xlink:href="#m188d4c64e4" y="38.2964931045"/>
     <use style="fill:#fa8e63;fill-opacity:0.8;" x="285.368054896" xlink:href="#m188d4c64e4" y="308.295758901"/>
     <use style="fill:#fa8e63;fill-opacity:0.8;" x="311.837082197" xlink:href="#m188d4c64e4" y="46.3266221156"/>
     <use style="fill:#fa8e63;fill-opacity:0.8;" x="311.629347085" xlink:href="#m188d4c64e4" y="306.227044026"/>
     <use style="fill:#fa8e63;fill-opacity:0.8;" x="261.162160418" xlink:href="#m188d4c64e4" y="53.0381012194"/>
     <use style="fill:#fa8e63;fill-opacity:0.8;" x="312.49871609" xlink:href="#m188d4c64e4" y="297.368228282"/>
     <use style="fill:#fa8e63;fill-opacity:0.8;" x="212.296087794" xlink:href="#m188d4c64e4" y="294.180896795"/>
     <use style="fill:#fa8e63;fill-opacity:0.8;" x="61.3905506852" xlink:href="#m188d4c64e4" y="306.45251497"/>
     <use style="fill:#fa8e63;fill-opacity:0.8;" x="312.38434404" xlink:href="#m188d4c64e4" y="300.675458902"/>
     <use style="fill:#fa8e63;fill-opacity:0.8;" x="160.698525326" xlink:href="#m188d4c64e4" y="293.800597832"/>
     <use style="fill:#fa8e63;fill-opacity:0.8;" x="209.70763674" xlink:href="#m188d4c64e4" y="44.7896481426"/>
     <use style="fill:#fa8e63;fill-opacity:0.8;" x="261.196445297" xlink:href="#m188d4c64e4" y="52.4847896252"/>
     <use style="fill:#fa8e63;fill-opacity:0.8;" x="287.427983371" xlink:href="#m188d4c64e4" y="41.6460082098"/>
     <use style="fill:#fa8e63;fill-opacity:0.8;" x="311.638197335" xlink:href="#m188d4c64e4" y="37.5343003775"/>
     <use style="fill:#fa8e63;fill-opacity:0.8;" x="310.553245412" xlink:href="#m188d4c64e4" y="50.0446822635"/>
     <use style="fill:#fa8e63;fill-opacity:0.8;" x="284.894268557" xlink:href="#m188d4c64e4" y="312.85870898"/>
     <use style="fill:#fa8e63;fill-opacity:0.8;" x="62.6839656977" xlink:href="#m188d4c64e4" y="300.550372952"/>
     <use style="fill:#fa8e63;fill-opacity:0.8;" x="212.223905073" xlink:href="#m188d4c64e4" y="312.90512984"/>
     <use style="fill:#fa8e63;fill-opacity:0.8;" x="88.770252623" xlink:href="#m188d4c64e4" y="312.88659632"/>
     <use style="fill:#fa8e63;fill-opacity:0.8;" x="63.8253156766" xlink:href="#m188d4c64e4" y="297.966851325"/>
     <use style="fill:#fa8e63;fill-opacity:0.8;" x="259.097087558" xlink:href="#m188d4c64e4" y="295.301896002"/>
     <use style="fill:#fa8e63;fill-opacity:0.8;" x="311.029083354" xlink:href="#m188d4c64e4" y="302.67159516"/>
     <use style="fill:#fa8e63;fill-opacity:0.8;" x="309.2496551" xlink:href="#m188d4c64e4" y="52.3245008723"/>
     <use style="fill:#fa8e63;fill-opacity:0.8;" x="260.56808787" xlink:href="#m188d4c64e4" y="34.0768692932"/>
     <use style="fill:#fa8e63;fill-opacity:0.8;" x="210.170562397" xlink:href="#m188d4c64e4" y="288.668110078"/>
     <use style="fill:#fa8e63;fill-opacity:0.8;" x="236.421301372" xlink:href="#m188d4c64e4" y="50.9015522531"/>
     <use style="fill:#fa8e63;fill-opacity:0.8;" x="61.6551874021" xlink:href="#m188d4c64e4" y="304.779429477"/>
    </g>
   </g>
   <g id="PolyCollection_1">
    <defs>
     <path d="M 61.999417 -145.014385 
L 61.999417 -64.730868 
L 64.512161 -65.018142 
L 67.024905 -65.309354 
L 69.537649 -65.614492 
L 72.050393 -65.934183 
L 74.563137 -66.269081 
L 77.075881 -66.619864 
L 79.588625 -66.987236 
L 82.10137 -67.371928 
L 84.614114 -67.772249 
L 87.126858 -68.146629 
L 89.639602 -68.581272 
L 92.152346 -69.035934 
L 94.66509 -69.513655 
L 97.177834 -70.013787 
L 99.690578 -70.572726 
L 102.203322 -71.169613 
L 104.716066 -71.747576 
L 107.228811 -72.351684 
L 109.741555 -72.866244 
L 112.254299 -73.509215 
L 114.767043 -74.071884 
L 117.279787 -74.637041 
L 119.792531 -75.22647 
L 122.305275 -75.836692 
L 124.818019 -76.47411 
L 127.330763 -77.134122 
L 129.843508 -78.18685 
L 132.356252 -79.131878 
L 134.868996 -80.089507 
L 137.38174 -80.90163 
L 139.894484 -81.742139 
L 142.407228 -82.611789 
L 144.919972 -83.511338 
L 147.432716 -84.444502 
L 149.94546 -85.413056 
L 152.458205 -86.414257 
L 154.970949 -87.448867 
L 157.483693 -88.613915 
L 159.996437 -89.621327 
L 162.509181 -90.888161 
L 165.021925 -92.277985 
L 167.534669 -93.719208 
L 170.047413 -94.551662 
L 172.560157 -96.269587 
L 175.072902 -97.32575 
L 177.585646 -99.098805 
L 180.09839 -100.703745 
L 182.611134 -101.94089 
L 185.123878 -103.207253 
L 187.636622 -104.505552 
L 190.149366 -105.743496 
L 192.66211 -107.184403 
L 195.174854 -108.569313 
L 197.687598 -109.988775 
L 200.200343 -111.688392 
L 202.713087 -112.996056 
L 205.225831 -114.586112 
L 207.738575 -115.987556 
L 210.251319 -117.893189 
L 212.764063 -119.791105 
L 215.276807 -121.050629 
L 217.789551 -122.631353 
L 220.302295 -125.076282 
L 222.81504 -126.582426 
L 225.327784 -127.992575 
L 227.840528 -129.598074 
L 230.353272 -131.384297 
L 232.866016 -133.633208 
L 235.37876 -135.919989 
L 237.891504 -137.453928 
L 240.404248 -138.972732 
L 242.916992 -140.521502 
L 245.429737 -142.372055 
L 247.942481 -143.574976 
L 250.455225 -143.921965 
L 252.967969 -146.156425 
L 255.480713 -147.417521 
L 257.993457 -148.904076 
L 260.506201 -150.168307 
L 263.018945 -151.329375 
L 265.531689 -152.475666 
L 268.044434 -153.637641 
L 270.557178 -154.672008 
L 273.069922 -155.384685 
L 275.582666 -155.877939 
L 278.09541 -156.624855 
L 280.608154 -157.277469 
L 283.120898 -157.854752 
L 285.633642 -158.642409 
L 288.146386 -159.873117 
L 290.65913 -160.109826 
L 293.171875 -160.359428 
L 295.684619 -161.210873 
L 298.197363 -162.367179 
L 300.710107 -162.603795 
L 303.222851 -162.873096 
L 305.735595 -163.780778 
L 308.248339 -165.438277 
L 310.761083 -166.809935 
L 310.761083 -260.156757 
L 310.761083 -260.156757 
L 308.248339 -258.416109 
L 305.735595 -256.506724 
L 303.222851 -254.572255 
L 300.710107 -252.299785 
L 298.197363 -250.284661 
L 295.684619 -248.363126 
L 293.171875 -246.40616 
L 290.65913 -244.513809 
L 288.146386 -242.602559 
L 285.633642 -240.654838 
L 283.120898 -238.244902 
L 280.608154 -236.659646 
L 278.09541 -234.113238 
L 275.582666 -232.103327 
L 273.069922 -229.745498 
L 270.557178 -228.138779 
L 268.044434 -226.207667 
L 265.531689 -224.018887 
L 263.018945 -222.299496 
L 260.506201 -220.975737 
L 257.993457 -218.384536 
L 255.480713 -216.600501 
L 252.967969 -214.60832 
L 250.455225 -212.870935 
L 247.942481 -211.549947 
L 245.429737 -210.274227 
L 242.916992 -208.600251 
L 240.404248 -206.512987 
L 237.891504 -204.915836 
L 235.37876 -203.227998 
L 232.866016 -201.519374 
L 230.353272 -199.806542 
L 227.840528 -198.353382 
L 225.327784 -196.810184 
L 222.81504 -195.451709 
L 220.302295 -194.563013 
L 217.789551 -193.419859 
L 215.276807 -192.08448 
L 212.764063 -191.15555 
L 210.251319 -190.064548 
L 207.738575 -188.798705 
L 205.225831 -187.545718 
L 202.713087 -186.276381 
L 200.200343 -185.028214 
L 197.687598 -183.937754 
L 195.174854 -182.892685 
L 192.66211 -181.897215 
L 190.149366 -180.778951 
L 187.636622 -179.660549 
L 185.123878 -178.649881 
L 182.611134 -177.900279 
L 180.09839 -176.710703 
L 177.585646 -175.624794 
L 175.072902 -174.860088 
L 172.560157 -174.03806 
L 170.047413 -173.272031 
L 167.534669 -172.091894 
L 165.021925 -171.104604 
L 162.509181 -170.07542 
L 159.996437 -169.16223 
L 157.483693 -167.920768 
L 154.970949 -167.23475 
L 152.458205 -166.273844 
L 149.94546 -165.774566 
L 147.432716 -165.391511 
L 144.919972 -164.856476 
L 142.407228 -164.357739 
L 139.894484 -163.584668 
L 137.38174 -162.810912 
L 134.868996 -162.578541 
L 132.356252 -162.006181 
L 129.843508 -161.127437 
L 127.330763 -160.248072 
L 124.818019 -159.538256 
L 122.305275 -158.996068 
L 119.792531 -158.381753 
L 117.279787 -157.451441 
L 114.767043 -156.522531 
L 112.254299 -155.896322 
L 109.741555 -155.303791 
L 107.228811 -154.704626 
L 104.716066 -153.953445 
L 102.203322 -153.20472 
L 99.690578 -152.806899 
L 97.177834 -152.492281 
L 94.66509 -152.170542 
L 92.152346 -151.848217 
L 89.639602 -151.125831 
L 87.126858 -150.379787 
L 84.614114 -149.636482 
L 82.10137 -148.894803 
L 79.588625 -148.151921 
L 77.075881 -147.411933 
L 74.563137 -146.947041 
L 72.050393 -146.558838 
L 69.537649 -146.171465 
L 67.024905 -145.784928 
L 64.512161 -145.399232 
L 61.999417 -145.014385 
z
" id="m95a188dd61" style="stroke:#000000;stroke-opacity:0.15;stroke-width:0.24;"/>
    </defs>
    <g clip-path="url(#pbe6fed1be9)">
     <use style="fill:#fa8e63;fill-opacity:0.15;stroke:#000000;stroke-opacity:0.15;stroke-width:0.24;" x="0.0" xlink:href="#m95a188dd61" y="360.13175"/>
    </g>
   </g>
   <g id="PathCollection_2">
    <path clip-path="url(#pbe6fed1be9)" d="M 61.999417 273.484261 
C 63.185441 273.484261 64.323048 273.013048 65.161694 272.174403 
C 66.00034 271.335757 66.471553 270.198149 66.471553 269.012125 
C 66.471553 267.826101 66.00034 266.688493 65.161694 265.849847 
C 64.323048 265.011202 63.185441 264.539989 61.999417 264.539989 
C 60.813392 264.539989 59.675785 265.011202 58.837139 265.849847 
C 57.998493 266.688493 57.527281 267.826101 57.527281 269.012125 
C 57.527281 270.198149 57.998493 271.335757 58.837139 272.174403 
C 59.675785 273.013048 60.813392 273.484261 61.999417 273.484261 
z
" style="fill:#262626;fill-opacity:0.8;"/>
    <path clip-path="url(#pbe6fed1be9)" d="M 86.875583 240.141694 
C 87.714229 240.141694 88.518639 239.808497 89.111651 239.215485 
C 89.704663 238.622472 90.037861 237.818063 90.037861 236.979417 
C 90.037861 236.140771 89.704663 235.336361 89.111651 234.743349 
C 88.518639 234.150337 87.714229 233.817139 86.875583 233.817139 
C 86.036937 233.817139 85.232528 234.150337 84.639515 234.743349 
C 84.046503 235.336361 83.713306 236.140771 83.713306 236.979417 
C 83.713306 237.818063 84.046503 238.622472 84.639515 239.215485 
C 85.232528 239.808497 86.036937 240.141694 86.875583 240.141694 
z
" style="fill:#262626;fill-opacity:0.8;"/>
    <path clip-path="url(#pbe6fed1be9)" d="M 111.75175 303.280901 
C 112.344762 303.280901 112.913566 303.045295 113.332889 302.625972 
C 113.752212 302.206649 113.987818 301.637845 113.987818 301.044833 
C 113.987818 300.451821 113.752212 299.883017 113.332889 299.463695 
C 112.913566 299.044372 112.344762 298.808765 111.75175 298.808765 
C 111.158738 298.808765 110.589934 299.044372 110.170611 299.463695 
C 109.751288 299.883017 109.515682 300.451821 109.515682 301.044833 
C 109.515682 301.637845 109.751288 302.206649 110.170611 302.625972 
C 110.589934 303.045295 111.158738 303.280901 111.75175 303.280901 
z
" style="fill:#262626;fill-opacity:0.8;"/>
    <path clip-path="url(#pbe6fed1be9)" d="M 161.504083 303.280901 
C 162.097095 303.280901 162.665899 303.045295 163.085222 302.625972 
C 163.504545 302.206649 163.740151 301.637845 163.740151 301.044833 
C 163.740151 300.451821 163.504545 299.883017 163.085222 299.463695 
C 162.665899 299.044372 162.097095 298.808765 161.504083 298.808765 
C 160.911071 298.808765 160.342267 299.044372 159.922945 299.463695 
C 159.503622 299.883017 159.268015 300.451821 159.268015 301.044833 
C 159.268015 301.637845 159.503622 302.206649 159.922945 302.625972 
C 160.342267 303.045295 160.911071 303.280901 161.504083 303.280901 
z
" style="fill:#262626;fill-opacity:0.8;"/>
    <path clip-path="url(#pbe6fed1be9)" d="M 186.38025 175.150068 
C 186.973262 175.150068 187.542066 174.914462 187.961389 174.495139 
C 188.380712 174.075816 188.616318 173.507012 188.616318 172.914 
C 188.616318 172.320988 188.380712 171.752184 187.961389 171.332861 
C 187.542066 170.913538 186.973262 170.677932 186.38025 170.677932 
C 185.787238 170.677932 185.218434 170.913538 184.799111 171.332861 
C 184.379788 171.752184 184.144182 172.320988 184.144182 172.914 
C 184.144182 173.507012 184.379788 174.075816 184.799111 174.495139 
C 185.218434 174.914462 185.787238 175.150068 186.38025 175.150068 
z
" style="fill:#262626;fill-opacity:0.8;"/>
    <path clip-path="url(#pbe6fed1be9)" d="M 211.256417 232.010514 
C 212.365841 232.010514 213.429975 231.569736 214.214457 230.785254 
C 214.998938 230.000773 215.439717 228.936638 215.439717 227.827214 
C 215.439717 226.71779 214.998938 225.653656 214.214457 224.869174 
C 213.429975 224.084693 212.365841 223.643914 211.256417 223.643914 
C 210.146993 223.643914 209.082858 224.084693 208.298377 224.869174 
C 207.513895 225.653656 207.073117 226.71779 207.073117 227.827214 
C 207.073117 228.936638 207.513895 230.000773 208.298377 230.785254 
C 209.082858 231.569736 210.146993 232.010514 211.256417 232.010514 
z
" style="fill:#262626;fill-opacity:0.8;"/>
    <path clip-path="url(#pbe6fed1be9)" d="M 236.132583 132.942335 
C 236.858872 132.942335 237.555511 132.653777 238.069075 132.140214 
C 238.582639 131.62665 238.871196 130.930011 238.871196 130.203722 
C 238.871196 129.477434 238.582639 128.780794 238.069075 128.267231 
C 237.555511 127.753667 236.858872 127.465109 236.132583 127.465109 
C 235.406295 127.465109 234.709655 127.753667 234.196092 128.267231 
C 233.682528 128.780794 233.393971 129.477434 233.393971 130.203722 
C 233.393971 130.930011 233.682528 131.62665 234.196092 132.140214 
C 234.709655 132.653777 235.406295 132.942335 236.132583 132.942335 
z
" style="fill:#262626;fill-opacity:0.8;"/>
    <path clip-path="url(#pbe6fed1be9)" d="M 261.00875 113.320719 
C 262.194774 113.320719 263.332382 112.849507 264.171028 112.010861 
C 265.009673 111.172215 265.480886 110.034608 265.480886 108.848583 
C 265.480886 107.662559 265.009673 106.524952 264.171028 105.686306 
C 263.332382 104.84766 262.194774 104.376447 261.00875 104.376447 
C 259.822726 104.376447 258.685118 104.84766 257.846472 105.686306 
C 257.007827 106.524952 256.536614 107.662559 256.536614 108.848583 
C 256.536614 110.034608 257.007827 111.172215 257.846472 112.010861 
C 258.685118 112.849507 259.822726 113.320719 261.00875 113.320719 
z
" style="fill:#262626;fill-opacity:0.8;"/>
    <path clip-path="url(#pbe6fed1be9)" d="M 285.884917 177.914 
C 287.210932 177.914 288.482816 177.387168 289.420451 176.449534 
C 290.358085 175.511899 290.884917 174.240015 290.884917 172.914 
C 290.884917 171.587984 290.358085 170.316101 289.420451 169.378466 
C 288.482816 168.440832 287.210932 167.914 285.884917 167.914 
C 284.558901 167.914 283.287017 168.440832 282.349383 169.378466 
C 281.411748 170.316101 280.884917 171.587984 280.884917 172.914 
C 280.884917 174.240015 281.411748 175.511899 282.349383 176.449534 
C 283.287017 177.387168 284.558901 177.914 285.884917 177.914 
z
" style="fill:#262626;fill-opacity:0.8;"/>
    <path clip-path="url(#pbe6fed1be9)" d="M 310.761083 170.495669 
C 312.385114 170.495669 313.942847 169.850435 315.09121 168.702071 
C 316.239573 167.553708 316.884808 165.995975 316.884808 164.371944 
C 316.884808 162.747914 316.239573 161.190181 315.09121 160.041817 
C 313.942847 158.893454 312.385114 158.24822 310.761083 158.24822 
C 309.137053 158.24822 307.579319 158.893454 306.430956 160.041817 
C 305.282593 161.190181 304.637359 162.747914 304.637359 164.371944 
C 304.637359 165.995975 305.282593 167.553708 306.430956 168.702071 
C 307.579319 169.850435 309.137053 170.495669 310.761083 170.495669 
z
" style="fill:#262626;fill-opacity:0.8;"/>
   </g>
   <g id="line2d_13">
    <path clip-path="url(#pbe6fed1be9)" d="M 61.999417 265.95852 
L 64.512161 265.255405 
L 67.024905 264.540525 
L 69.537649 263.813777 
L 72.050393 263.07506 
L 74.563137 262.324278 
L 77.075881 261.561335 
L 79.588625 260.786141 
L 82.10137 259.998609 
L 84.614114 259.198657 
L 87.126858 258.386204 
L 89.639602 257.561177 
L 92.152346 256.723504 
L 94.66509 255.873119 
L 97.177834 255.009963 
L 99.690578 254.133978 
L 102.203322 253.245115 
L 104.716066 252.343327 
L 107.228811 251.428576 
L 109.741555 250.500827 
L 112.254299 249.560053 
L 114.767043 248.606231 
L 117.279787 247.639348 
L 119.792531 246.659393 
L 122.305275 245.666366 
L 124.818019 244.660271 
L 127.330763 243.641122 
L 129.843508 242.608936 
L 132.356252 241.563742 
L 134.868996 240.505575 
L 137.38174 239.434477 
L 139.894484 238.350498 
L 142.407228 237.253699 
L 144.919972 236.144144 
L 147.432716 235.021911 
L 149.94546 233.887083 
L 152.458205 232.739752 
L 154.970949 231.580021 
L 157.483693 230.407999 
L 159.996437 229.223805 
L 162.509181 228.027568 
L 165.021925 226.819425 
L 167.534669 225.599522 
L 170.047413 224.368016 
L 172.560157 223.125069 
L 175.072902 221.870858 
L 177.585646 220.605563 
L 180.09839 219.329379 
L 182.611134 218.042506 
L 185.123878 216.745155 
L 187.636622 215.437545 
L 190.149366 214.119904 
L 192.66211 212.792472 
L 195.174854 211.455492 
L 197.687598 210.109221 
L 200.200343 208.753922 
L 202.713087 207.389866 
L 205.225831 206.017333 
L 207.738575 204.636611 
L 210.251319 203.247996 
L 212.764063 201.851791 
L 215.276807 200.448307 
L 217.789551 199.037862 
L 220.302295 197.62078 
L 222.81504 196.197393 
L 225.327784 194.768038 
L 227.840528 193.333058 
L 230.353272 191.892804 
L 232.866016 190.447629 
L 235.37876 188.997894 
L 237.891504 187.543963 
L 240.404248 186.086205 
L 242.916992 184.624992 
L 245.429737 183.160701 
L 247.942481 181.693711 
L 250.455225 180.224405 
L 252.967969 178.753167 
L 255.480713 177.280385 
L 257.993457 175.806447 
L 260.506201 174.331742 
L 263.018945 172.856662 
L 265.531689 171.381597 
L 268.044434 169.906939 
L 270.557178 168.433076 
L 273.069922 166.9604 
L 275.582666 165.489299 
L 278.09541 164.020159 
L 280.608154 162.553366 
L 283.120898 161.0893 
L 285.633642 159.628342 
L 288.146386 158.170868 
L 290.65913 156.71725 
L 293.171875 155.267856 
L 295.684619 153.823052 
L 298.197363 152.383195 
L 300.710107 150.94864 
L 303.222851 149.519737 
L 305.735595 148.096827 
L 308.248339 146.68025 
L 310.761083 145.270334 
" style="fill:none;stroke:#fa8e63;stroke-linecap:round;stroke-width:2.1;"/>
   </g>
   <g id="patch_3">
    <path d="M 37.12325 326.671 
L 335.63725 326.671 
" style="fill:none;stroke:#262626;stroke-linecap:square;stroke-linejoin:miter;stroke-width:1.25;"/>
   </g>
   <g id="patch_4">
    <path d="M 37.12325 326.671 
L 37.12325 19.157 
" style="fill:none;stroke:#262626;stroke-linecap:square;stroke-linejoin:miter;stroke-width:1.25;"/>
   </g>
   <g id="text_15">
    <!-- GoogLeNet -->
    <defs>
     <path d="M 52.828125 0 
L 16.015625 58.59375 
Q 16.109375 56.203125 16.265625 53.859375 
Q 16.359375 51.859375 16.421875 49.625 
Q 16.5 47.40625 16.5 45.703125 
L 16.5 0 
L 8.203125 0 
L 8.203125 68.796875 
L 19.046875 68.796875 
L 56.25 9.8125 
Q 56.109375 12.203125 55.953125 14.59375 
Q 55.859375 16.65625 55.765625 19.0625 
Q 55.671875 21.484375 55.671875 23.6875 
L 55.671875 68.796875 
L 64.0625 68.796875 
L 64.0625 0 
z
" id="LiberationSans-4e"/>
     <path d="M 5.03125 34.71875 
Q 5.03125 42.78125 7.203125 49.265625 
Q 9.375 55.765625 13.6875 60.328125 
Q 18.015625 64.890625 24.40625 67.359375 
Q 30.8125 69.828125 39.265625 69.828125 
Q 45.609375 69.828125 50.390625 68.703125 
Q 55.171875 67.578125 58.6875 65.46875 
Q 62.203125 63.375 64.640625 60.375 
Q 67.09375 57.375 68.796875 53.609375 
L 59.90625 50.984375 
Q 58.640625 53.515625 56.859375 55.59375 
Q 55.078125 57.671875 52.53125 59.125 
Q 50 60.59375 46.65625 61.390625 
Q 43.3125 62.203125 39.015625 62.203125 
Q 32.765625 62.203125 28.140625 60.25 
Q 23.53125 58.296875 20.5 54.6875 
Q 17.484375 51.078125 15.984375 46 
Q 14.5 40.921875 14.5 34.71875 
Q 14.5 28.515625 16.109375 23.359375 
Q 17.71875 18.21875 20.890625 14.484375 
Q 24.078125 10.75 28.78125 8.671875 
Q 33.5 6.59375 39.703125 6.59375 
Q 43.75 6.59375 47.171875 7.265625 
Q 50.59375 7.953125 53.34375 9.046875 
Q 56.109375 10.15625 58.203125 11.5 
Q 60.296875 12.84375 61.71875 14.203125 
L 61.71875 26.609375 
L 41.15625 26.609375 
L 41.15625 34.421875 
L 70.3125 34.421875 
L 70.3125 10.6875 
Q 68.015625 8.34375 64.90625 6.21875 
Q 61.8125 4.109375 57.953125 2.484375 
Q 54.109375 0.875 49.515625 -0.046875 
Q 44.921875 -0.984375 39.703125 -0.984375 
Q 31 -0.984375 24.5 1.671875 
Q 18.015625 4.34375 13.6875 9.109375 
Q 9.375 13.875 7.203125 20.40625 
Q 5.03125 26.953125 5.03125 34.71875 
" id="LiberationSans-47"/>
     <path d="M 26.765625 -20.75 
Q 22.21875 -20.75 18.703125 -19.8125 
Q 15.1875 -18.890625 12.6875 -17.15625 
Q 10.203125 -15.4375 8.640625 -13.03125 
Q 7.078125 -10.640625 6.390625 -7.71875 
L 15.234375 -6.453125 
Q 16.109375 -10.109375 19.109375 -12.078125 
Q 22.125 -14.0625 27 -14.0625 
Q 29.984375 -14.0625 32.421875 -13.234375 
Q 34.859375 -12.40625 36.5625 -10.5625 
Q 38.28125 -8.734375 39.203125 -5.796875 
Q 40.140625 -2.875 40.140625 1.3125 
L 40.140625 9.8125 
L 40.046875 9.8125 
Q 39.0625 7.8125 37.625 5.984375 
Q 36.1875 4.15625 34.109375 2.734375 
Q 32.03125 1.3125 29.296875 0.453125 
Q 26.5625 -0.390625 23.046875 -0.390625 
Q 18.015625 -0.390625 14.421875 1.296875 
Q 10.84375 2.984375 8.5625 6.34375 
Q 6.296875 9.71875 5.25 14.71875 
Q 4.203125 19.734375 4.203125 26.3125 
Q 4.203125 32.671875 5.25 37.75 
Q 6.296875 42.828125 8.65625 46.359375 
Q 11.03125 49.90625 14.8125 51.78125 
Q 18.609375 53.65625 24.03125 53.65625 
Q 29.640625 53.65625 33.765625 51.09375 
Q 37.890625 48.53125 40.140625 43.796875 
L 40.234375 43.796875 
Q 40.234375 45.015625 40.296875 46.53125 
Q 40.375 48.046875 40.453125 49.390625 
Q 40.53125 50.734375 40.625 51.703125 
Q 40.71875 52.6875 40.828125 52.828125 
L 49.171875 52.828125 
Q 49.125 52.390625 49.078125 51.34375 
Q 49.03125 50.296875 48.96875 48.828125 
Q 48.921875 47.359375 48.890625 45.578125 
Q 48.875 43.796875 48.875 41.890625 
L 48.875 1.515625 
Q 48.875 -9.578125 43.421875 -15.15625 
Q 37.984375 -20.75 26.765625 -20.75 
M 40.140625 26.421875 
Q 40.140625 31.9375 38.9375 35.859375 
Q 37.75 39.796875 35.796875 42.28125 
Q 33.84375 44.78125 31.328125 45.953125 
Q 28.8125 47.125 26.171875 47.125 
Q 22.796875 47.125 20.375 45.953125 
Q 17.96875 44.78125 16.375 42.265625 
Q 14.796875 39.75 14.03125 35.8125 
Q 13.28125 31.890625 13.28125 26.421875 
Q 13.28125 20.703125 14.03125 16.8125 
Q 14.796875 12.9375 16.359375 10.546875 
Q 17.921875 8.15625 20.3125 7.125 
Q 22.703125 6.109375 26.03125 6.109375 
Q 28.65625 6.109375 31.171875 7.21875 
Q 33.6875 8.34375 35.6875 10.78125 
Q 37.703125 13.234375 38.921875 17.09375 
Q 40.140625 20.953125 40.140625 26.421875 
" id="LiberationSans-67"/>
     <path d="M 8.203125 0 
L 8.203125 68.796875 
L 17.53125 68.796875 
L 17.53125 7.625 
L 52.296875 7.625 
L 52.296875 0 
z
" id="LiberationSans-4c"/>
     <path d="M 27.046875 0.390625 
Q 25.046875 -0.140625 22.96875 -0.453125 
Q 20.90625 -0.78125 18.171875 -0.78125 
Q 7.625 -0.78125 7.625 11.1875 
L 7.625 46.4375 
L 1.515625 46.4375 
L 1.515625 52.828125 
L 7.953125 52.828125 
L 10.546875 64.65625 
L 16.40625 64.65625 
L 16.40625 52.828125 
L 26.171875 52.828125 
L 26.171875 46.4375 
L 16.40625 46.4375 
L 16.40625 13.09375 
Q 16.40625 9.28125 17.640625 7.734375 
Q 18.890625 6.203125 21.96875 6.203125 
Q 23.25 6.203125 24.4375 6.390625 
Q 25.640625 6.59375 27.046875 6.890625 
z
" id="LiberationSans-74"/>
    </defs>
    <g style="fill:#262626;" transform="translate(161.83125 14.157)scale(0.096 -0.096)">
     <use xlink:href="#LiberationSans-47"/>
     <use x="77.783203125" xlink:href="#LiberationSans-6f"/>
     <use x="133.3984375" xlink:href="#LiberationSans-6f"/>
     <use x="189.013671875" xlink:href="#LiberationSans-67"/>
     <use x="244.62890625" xlink:href="#LiberationSans-4c"/>
     <use x="300.244140625" xlink:href="#LiberationSans-65"/>
     <use x="355.859375" xlink:href="#LiberationSans-4e"/>
     <use x="428.076171875" xlink:href="#LiberationSans-65"/>
     <use x="483.69140625" xlink:href="#LiberationSans-74"/>
    </g>
   </g>
  </g>
 </g>
 <defs>
  <clipPath id="pbe6fed1be9">
   <rect height="307.514" width="298.514" x="37.12325" y="19.157"/>
  </clipPath>
 </defs>
</svg>
