<?xml version="1.0" encoding="utf-8" standalone="no"?>
<!DOCTYPE svg PUBLIC "-//W3C//DTD SVG 1.1//EN"
  "http://www.w3.org/Graphics/SVG/1.1/DTD/svg11.dtd">
<!-- Created with matplotlib (http://matplotlib.org/) -->
<svg height="360pt" version="1.1" viewBox="0 0 342 360" width="342pt" xmlns="http://www.w3.org/2000/svg" xmlns:xlink="http://www.w3.org/1999/xlink">
 <defs>
  <style type="text/css">
*{stroke-linecap:butt;stroke-linejoin:round;stroke-miterlimit:100000;}
  </style>
 </defs>
 <g id="figure_1">
  <g id="patch_1">
   <path d="M 0 360.13175 
L 342.83725 360.13175 
L 342.83725 0 
L 0 0 
z
" style="fill:#ffffff;"/>
  </g>
  <g id="axes_1">
   <g id="patch_2">
    <path d="M 37.12325 326.671 
L 335.63725 326.671 
L 335.63725 19.157 
L 37.12325 19.157 
z
" style="fill:#ffffff;"/>
   </g>
   <g id="matplotlib.axis_1">
    <g id="xtick_1">
     <g id="line2d_1">
      <defs>
       <path d="M 0 0 
L 0 0 
" id="m6d26e36f75" style="stroke:#262626;stroke-width:0.8;"/>
      </defs>
      <g>
       <use style="fill:#262626;stroke:#262626;stroke-width:0.8;" x="61.9994166667" xlink:href="#m6d26e36f75" y="326.671"/>
      </g>
     </g>
     <g id="text_1">
      <!-- 0.0 -->
      <defs>
       <path d="M 9.125 0 
L 9.125 10.6875 
L 18.65625 10.6875 
L 18.65625 0 
z
" id="LiberationSans-2e"/>
       <path d="M 51.703125 34.421875 
Q 51.703125 24.515625 49.828125 17.75 
Q 47.953125 10.984375 44.703125 6.8125 
Q 41.453125 2.640625 37.0625 0.828125 
Q 32.671875 -0.984375 27.6875 -0.984375 
Q 22.65625 -0.984375 18.3125 0.828125 
Q 13.96875 2.640625 10.765625 6.78125 
Q 7.5625 10.9375 5.734375 17.703125 
Q 3.90625 24.46875 3.90625 34.421875 
Q 3.90625 44.828125 5.734375 51.640625 
Q 7.5625 58.453125 10.78125 62.5 
Q 14.015625 66.546875 18.40625 68.1875 
Q 22.796875 69.828125 27.984375 69.828125 
Q 32.90625 69.828125 37.21875 68.1875 
Q 41.546875 66.546875 44.765625 62.5 
Q 48 58.453125 49.84375 51.640625 
Q 51.703125 44.828125 51.703125 34.421875 
M 42.78125 34.421875 
Q 42.78125 42.625 41.796875 48.0625 
Q 40.828125 53.515625 38.921875 56.765625 
Q 37.015625 60.015625 34.25 61.359375 
Q 31.5 62.703125 27.984375 62.703125 
Q 24.265625 62.703125 21.4375 61.328125 
Q 18.609375 59.96875 16.671875 56.71875 
Q 14.75 53.46875 13.765625 48.015625 
Q 12.796875 42.578125 12.796875 34.421875 
Q 12.796875 26.515625 13.796875 21.09375 
Q 14.796875 15.671875 16.71875 12.375 
Q 18.65625 9.078125 21.4375 7.640625 
Q 24.21875 6.203125 27.78125 6.203125 
Q 31.25 6.203125 34.03125 7.640625 
Q 36.8125 9.078125 38.734375 12.375 
Q 40.671875 15.671875 41.71875 21.09375 
Q 42.78125 26.515625 42.78125 34.421875 
" id="LiberationSans-30"/>
      </defs>
      <g style="fill:#262626;" transform="translate(56.4394166667 338.0685)scale(0.08 -0.08)">
       <use xlink:href="#LiberationSans-30"/>
       <use x="55.615234375" xlink:href="#LiberationSans-2e"/>
       <use x="83.3984375" xlink:href="#LiberationSans-30"/>
      </g>
     </g>
    </g>
    <g id="xtick_2">
     <g id="line2d_2">
      <g>
       <use style="fill:#262626;stroke:#262626;stroke-width:0.8;" x="111.75175" xlink:href="#m6d26e36f75" y="326.671"/>
      </g>
     </g>
     <g id="text_2">
      <!-- 0.2 -->
      <defs>
       <path d="M 5.03125 0 
L 5.03125 6.203125 
Q 7.515625 11.921875 11.109375 16.28125 
Q 14.703125 20.65625 18.65625 24.1875 
Q 22.609375 27.734375 26.484375 30.765625 
Q 30.375 33.796875 33.5 36.8125 
Q 36.625 39.84375 38.546875 43.15625 
Q 40.484375 46.484375 40.484375 50.6875 
Q 40.484375 53.609375 39.59375 55.828125 
Q 38.71875 58.0625 37.0625 59.5625 
Q 35.40625 61.078125 33.078125 61.828125 
Q 30.765625 62.59375 27.9375 62.59375 
Q 25.296875 62.59375 22.96875 61.859375 
Q 20.65625 61.140625 18.84375 59.671875 
Q 17.046875 58.203125 15.890625 56.03125 
Q 14.75 53.859375 14.40625 50.984375 
L 5.421875 51.8125 
Q 5.859375 55.515625 7.46875 58.78125 
Q 9.078125 62.0625 11.90625 64.53125 
Q 14.75 67 18.71875 68.40625 
Q 22.703125 69.828125 27.9375 69.828125 
Q 33.0625 69.828125 37.0625 68.609375 
Q 41.0625 67.390625 43.8125 64.984375 
Q 46.578125 62.59375 48.046875 59.078125 
Q 49.515625 55.5625 49.515625 50.984375 
Q 49.515625 47.515625 48.265625 44.390625 
Q 47.015625 41.265625 44.9375 38.421875 
Q 42.875 35.59375 40.140625 32.953125 
Q 37.40625 30.328125 34.421875 27.8125 
Q 31.453125 25.296875 28.421875 22.828125 
Q 25.390625 20.359375 22.71875 17.859375 
Q 20.0625 15.375 17.96875 12.8125 
Q 15.875 10.25 14.703125 7.46875 
L 50.59375 7.46875 
L 50.59375 0 
z
" id="LiberationSans-32"/>
      </defs>
      <g style="fill:#262626;" transform="translate(106.19175 338.0685)scale(0.08 -0.08)">
       <use xlink:href="#LiberationSans-30"/>
       <use x="55.615234375" xlink:href="#LiberationSans-2e"/>
       <use x="83.3984375" xlink:href="#LiberationSans-32"/>
      </g>
     </g>
    </g>
    <g id="xtick_3">
     <g id="line2d_3">
      <g>
       <use style="fill:#262626;stroke:#262626;stroke-width:0.8;" x="161.504083333" xlink:href="#m6d26e36f75" y="326.671"/>
      </g>
     </g>
     <g id="text_3">
      <!-- 0.4 -->
      <defs>
       <path d="M 43.015625 15.578125 
L 43.015625 0 
L 34.71875 0 
L 34.71875 15.578125 
L 2.296875 15.578125 
L 2.296875 22.40625 
L 33.796875 68.796875 
L 43.015625 68.796875 
L 43.015625 22.515625 
L 52.6875 22.515625 
L 52.6875 15.578125 
z
M 34.71875 58.890625 
Q 34.625 58.640625 34.234375 57.9375 
Q 33.84375 57.234375 33.34375 56.34375 
Q 32.859375 55.46875 32.34375 54.5625 
Q 31.84375 53.65625 31.453125 53.078125 
L 13.8125 27.09375 
Q 13.578125 26.703125 13.109375 26.0625 
Q 12.640625 25.4375 12.15625 24.78125 
Q 11.671875 24.125 11.171875 23.484375 
Q 10.6875 22.859375 10.40625 22.515625 
L 34.71875 22.515625 
z
" id="LiberationSans-34"/>
      </defs>
      <g style="fill:#262626;" transform="translate(155.944083333 338.0685)scale(0.08 -0.08)">
       <use xlink:href="#LiberationSans-30"/>
       <use x="55.615234375" xlink:href="#LiberationSans-2e"/>
       <use x="83.3984375" xlink:href="#LiberationSans-34"/>
      </g>
     </g>
    </g>
    <g id="xtick_4">
     <g id="line2d_4">
      <g>
       <use style="fill:#262626;stroke:#262626;stroke-width:0.8;" x="211.256416667" xlink:href="#m6d26e36f75" y="326.671"/>
      </g>
     </g>
     <g id="text_4">
      <!-- 0.6 -->
      <defs>
       <path d="M 51.21875 22.515625 
Q 51.21875 17.328125 49.78125 13 
Q 48.34375 8.6875 45.53125 5.578125 
Q 42.71875 2.484375 38.5625 0.75 
Q 34.421875 -0.984375 29 -0.984375 
Q 23 -0.984375 18.5 1.3125 
Q 14.015625 3.609375 11.03125 7.921875 
Q 8.0625 12.25 6.5625 18.53125 
Q 5.078125 24.8125 5.078125 32.8125 
Q 5.078125 42 6.765625 48.921875 
Q 8.453125 55.859375 11.625 60.5 
Q 14.796875 65.140625 19.359375 67.484375 
Q 23.921875 69.828125 29.6875 69.828125 
Q 33.203125 69.828125 36.28125 69.09375 
Q 39.359375 68.359375 41.875 66.71875 
Q 44.390625 65.09375 46.28125 62.40625 
Q 48.1875 59.71875 49.3125 55.8125 
L 40.921875 54.296875 
Q 39.546875 58.734375 36.546875 60.71875 
Q 33.546875 62.703125 29.59375 62.703125 
Q 25.984375 62.703125 23.046875 60.984375 
Q 20.125 59.28125 18.0625 55.875 
Q 16.015625 52.484375 14.90625 47.359375 
Q 13.8125 42.234375 13.8125 35.40625 
Q 16.21875 39.84375 20.5625 42.15625 
Q 24.90625 44.484375 30.515625 44.484375 
Q 35.203125 44.484375 39.015625 42.96875 
Q 42.828125 41.453125 45.53125 38.59375 
Q 48.25 35.75 49.734375 31.671875 
Q 51.21875 27.59375 51.21875 22.515625 
M 42.28125 22.125 
Q 42.28125 25.6875 41.40625 28.5625 
Q 40.53125 31.453125 38.765625 33.46875 
Q 37.015625 35.5 34.421875 36.59375 
Q 31.84375 37.703125 28.421875 37.703125 
Q 26.03125 37.703125 23.578125 36.984375 
Q 21.140625 36.28125 19.15625 34.6875 
Q 17.1875 33.109375 15.9375 30.515625 
Q 14.703125 27.9375 14.703125 24.21875 
Q 14.703125 20.40625 15.671875 17.109375 
Q 16.65625 13.8125 18.484375 11.375 
Q 20.3125 8.9375 22.890625 7.515625 
Q 25.484375 6.109375 28.71875 6.109375 
Q 31.890625 6.109375 34.40625 7.203125 
Q 36.921875 8.296875 38.671875 10.375 
Q 40.4375 12.453125 41.359375 15.421875 
Q 42.28125 18.40625 42.28125 22.125 
" id="LiberationSans-36"/>
      </defs>
      <g style="fill:#262626;" transform="translate(205.696416667 338.0685)scale(0.08 -0.08)">
       <use xlink:href="#LiberationSans-30"/>
       <use x="55.615234375" xlink:href="#LiberationSans-2e"/>
       <use x="83.3984375" xlink:href="#LiberationSans-36"/>
      </g>
     </g>
    </g>
    <g id="xtick_5">
     <g id="line2d_5">
      <g>
       <use style="fill:#262626;stroke:#262626;stroke-width:0.8;" x="261.00875" xlink:href="#m6d26e36f75" y="326.671"/>
      </g>
     </g>
     <g id="text_5">
      <!-- 0.8 -->
      <defs>
       <path d="M 51.265625 19.1875 
Q 51.265625 14.796875 49.875 11.109375 
Q 48.484375 7.421875 45.625 4.734375 
Q 42.78125 2.046875 38.328125 0.53125 
Q 33.890625 -0.984375 27.828125 -0.984375 
Q 21.78125 -0.984375 17.359375 0.53125 
Q 12.9375 2.046875 10.03125 4.703125 
Q 7.125 7.375 5.734375 11.0625 
Q 4.34375 14.75 4.34375 19.09375 
Q 4.34375 22.859375 5.484375 25.78125 
Q 6.640625 28.71875 8.5625 30.828125 
Q 10.5 32.953125 12.96875 34.25 
Q 15.4375 35.546875 18.0625 35.984375 
L 18.0625 36.1875 
Q 15.1875 36.859375 12.90625 38.375 
Q 10.640625 39.890625 9.09375 42.015625 
Q 7.5625 44.140625 6.75 46.71875 
Q 5.953125 49.3125 5.953125 52.203125 
Q 5.953125 55.8125 7.34375 59 
Q 8.734375 62.203125 11.46875 64.625 
Q 14.203125 67.046875 18.25 68.4375 
Q 22.3125 69.828125 27.640625 69.828125 
Q 33.25 69.828125 37.375 68.40625 
Q 41.5 67 44.203125 64.578125 
Q 46.921875 62.15625 48.234375 58.9375 
Q 49.5625 55.71875 49.5625 52.09375 
Q 49.5625 49.265625 48.75 46.671875 
Q 47.953125 44.09375 46.40625 41.96875 
Q 44.875 39.84375 42.59375 38.34375 
Q 40.328125 36.859375 37.359375 36.28125 
L 37.359375 36.078125 
Q 40.328125 35.59375 42.859375 34.296875 
Q 45.40625 33.015625 47.265625 30.890625 
Q 49.125 28.765625 50.1875 25.828125 
Q 51.265625 22.90625 51.265625 19.1875 
M 40.4375 51.609375 
Q 40.4375 54.203125 39.765625 56.34375 
Q 39.109375 58.5 37.59375 60.03125 
Q 36.078125 61.578125 33.640625 62.421875 
Q 31.203125 63.28125 27.640625 63.28125 
Q 24.171875 63.28125 21.78125 62.421875 
Q 19.390625 61.578125 17.84375 60.03125 
Q 16.3125 58.5 15.625 56.34375 
Q 14.9375 54.203125 14.9375 51.609375 
Q 14.9375 49.5625 15.46875 47.40625 
Q 16.015625 45.265625 17.421875 43.5 
Q 18.84375 41.75 21.328125 40.625 
Q 23.828125 39.5 27.734375 39.5 
Q 31.890625 39.5 34.40625 40.625 
Q 36.921875 41.75 38.25 43.5 
Q 39.59375 45.265625 40.015625 47.40625 
Q 40.4375 49.5625 40.4375 51.609375 
M 42.140625 20.015625 
Q 42.140625 22.515625 41.453125 24.828125 
Q 40.765625 27.15625 39.109375 28.9375 
Q 37.453125 30.71875 34.640625 31.8125 
Q 31.84375 32.90625 27.640625 32.90625 
Q 23.78125 32.90625 21.0625 31.8125 
Q 18.359375 30.71875 16.671875 28.90625 
Q 14.984375 27.09375 14.203125 24.71875 
Q 13.421875 22.359375 13.421875 19.828125 
Q 13.421875 16.65625 14.203125 14.03125 
Q 14.984375 11.421875 16.6875 9.546875 
Q 18.40625 7.671875 21.1875 6.640625 
Q 23.96875 5.609375 27.9375 5.609375 
Q 31.9375 5.609375 34.671875 6.640625 
Q 37.40625 7.671875 39.0625 9.546875 
Q 40.71875 11.421875 41.421875 14.078125 
Q 42.140625 16.75 42.140625 20.015625 
" id="LiberationSans-38"/>
      </defs>
      <g style="fill:#262626;" transform="translate(255.44875 338.0685)scale(0.08 -0.08)">
       <use xlink:href="#LiberationSans-30"/>
       <use x="55.615234375" xlink:href="#LiberationSans-2e"/>
       <use x="83.3984375" xlink:href="#LiberationSans-38"/>
      </g>
     </g>
    </g>
    <g id="xtick_6">
     <g id="line2d_6">
      <g>
       <use style="fill:#262626;stroke:#262626;stroke-width:0.8;" x="310.761083333" xlink:href="#m6d26e36f75" y="326.671"/>
      </g>
     </g>
     <g id="text_6">
      <!-- 1.0 -->
      <defs>
       <path d="M 7.625 0 
L 7.625 7.46875 
L 25.140625 7.46875 
L 25.140625 60.40625 
L 9.625 49.3125 
L 9.625 57.625 
L 25.875 68.796875 
L 33.984375 68.796875 
L 33.984375 7.46875 
L 50.734375 7.46875 
L 50.734375 0 
z
" id="LiberationSans-31"/>
      </defs>
      <g style="fill:#262626;" transform="translate(305.201083333 338.0685)scale(0.08 -0.08)">
       <use xlink:href="#LiberationSans-31"/>
       <use x="55.615234375" xlink:href="#LiberationSans-2e"/>
       <use x="83.3984375" xlink:href="#LiberationSans-30"/>
      </g>
     </g>
    </g>
    <g id="text_7">
     <!-- human accuracy -->
     <defs>
      <path d="M 6.9375 0 
L 6.9375 40.53125 
Q 6.9375 42.1875 6.90625 43.921875 
Q 6.890625 45.65625 6.828125 47.265625 
Q 6.78125 48.875 6.734375 50.28125 
Q 6.6875 51.703125 6.640625 52.828125 
L 14.9375 52.828125 
Q 14.984375 51.703125 15.0625 50.265625 
Q 15.140625 48.828125 15.203125 47.3125 
Q 15.28125 45.796875 15.296875 44.40625 
Q 15.328125 43.015625 15.328125 42.046875 
L 15.53125 42.046875 
Q 16.453125 45.0625 17.5 47.28125 
Q 18.5625 49.515625 19.96875 50.953125 
Q 21.390625 52.390625 23.34375 53.09375 
Q 25.296875 53.8125 28.078125 53.8125 
Q 29.15625 53.8125 30.125 53.640625 
Q 31.109375 53.46875 31.640625 53.328125 
L 31.640625 45.265625 
Q 30.765625 45.515625 29.59375 45.625 
Q 28.421875 45.75 26.953125 45.75 
Q 23.921875 45.75 21.796875 44.375 
Q 19.671875 43.015625 18.328125 40.59375 
Q 17 38.1875 16.359375 34.84375 
Q 15.71875 31.5 15.71875 27.546875 
L 15.71875 0 
z
" id="LiberationSans-72"/>
      <path d="M 20.21875 -0.984375 
Q 12.25 -0.984375 8.25 3.21875 
Q 4.25 7.421875 4.25 14.75 
Q 4.25 19.96875 6.21875 23.3125 
Q 8.203125 26.65625 11.390625 28.5625 
Q 14.59375 30.46875 18.6875 31.203125 
Q 22.796875 31.9375 27.046875 32.03125 
L 38.921875 32.234375 
L 38.921875 35.109375 
Q 38.921875 38.375 38.234375 40.671875 
Q 37.546875 42.96875 36.125 44.375 
Q 34.71875 45.796875 32.59375 46.453125 
Q 30.46875 47.125 27.59375 47.125 
Q 25.046875 47.125 23 46.75 
Q 20.953125 46.390625 19.4375 45.4375 
Q 17.921875 44.484375 16.984375 42.84375 
Q 16.0625 41.21875 15.765625 38.71875 
L 6.59375 39.546875 
Q 7.078125 42.671875 8.4375 45.28125 
Q 9.8125 47.90625 12.328125 49.796875 
Q 14.84375 51.703125 18.625 52.75 
Q 22.40625 53.8125 27.78125 53.8125 
Q 37.75 53.8125 42.765625 49.234375 
Q 47.796875 44.671875 47.796875 36.03125 
L 47.796875 13.28125 
Q 47.796875 9.375 48.828125 7.390625 
Q 49.859375 5.421875 52.734375 5.421875 
Q 53.46875 5.421875 54.203125 5.515625 
Q 54.9375 5.609375 55.609375 5.765625 
L 55.609375 0.296875 
Q 53.953125 -0.09375 52.3125 -0.28125 
Q 50.6875 -0.484375 48.828125 -0.484375 
Q 46.34375 -0.484375 44.5625 0.171875 
Q 42.78125 0.828125 41.65625 2.171875 
Q 40.53125 3.515625 39.9375 5.484375 
Q 39.359375 7.46875 39.203125 10.109375 
L 38.921875 10.109375 
Q 37.5 7.5625 35.8125 5.515625 
Q 34.125 3.46875 31.875 2.03125 
Q 29.640625 0.59375 26.78125 -0.1875 
Q 23.921875 -0.984375 20.21875 -0.984375 
M 22.21875 5.609375 
Q 26.421875 5.609375 29.5625 7.140625 
Q 32.71875 8.6875 34.78125 11.078125 
Q 36.859375 13.484375 37.890625 16.3125 
Q 38.921875 19.140625 38.921875 21.734375 
L 38.921875 26.078125 
L 29.296875 25.875 
Q 26.078125 25.828125 23.171875 25.40625 
Q 20.265625 25 18.0625 23.78125 
Q 15.875 22.5625 14.578125 20.359375 
Q 13.28125 18.171875 13.28125 14.59375 
Q 13.28125 10.296875 15.59375 7.953125 
Q 17.921875 5.609375 22.21875 5.609375 
" id="LiberationSans-61"/>
      <path d="M 15.328125 52.828125 
L 15.328125 19.34375 
Q 15.328125 15.484375 15.890625 12.890625 
Q 16.453125 10.296875 17.71875 8.703125 
Q 19 7.125 21.0625 6.46875 
Q 23.140625 5.8125 26.21875 5.8125 
Q 29.34375 5.8125 31.859375 6.90625 
Q 34.375 8.015625 36.15625 10.078125 
Q 37.9375 12.15625 38.90625 15.203125 
Q 39.890625 18.265625 39.890625 22.21875 
L 39.890625 52.828125 
L 48.6875 52.828125 
L 48.6875 11.28125 
Q 48.6875 9.625 48.703125 7.78125 
Q 48.734375 5.953125 48.78125 4.3125 
Q 48.828125 2.6875 48.875 1.515625 
Q 48.921875 0.34375 48.96875 0 
L 40.671875 0 
Q 40.625 0.25 40.578125 1.3125 
Q 40.53125 2.390625 40.453125 3.78125 
Q 40.375 5.171875 40.328125 6.609375 
Q 40.28125 8.0625 40.28125 9.03125 
L 40.140625 9.03125 
Q 38.875 6.734375 37.359375 4.875 
Q 35.84375 3.03125 33.84375 1.734375 
Q 31.84375 0.4375 29.25 -0.265625 
Q 26.65625 -0.984375 23.25 -0.984375 
Q 18.84375 -0.984375 15.671875 0.09375 
Q 12.5 1.171875 10.453125 3.421875 
Q 8.40625 5.671875 7.453125 9.1875 
Q 6.5 12.703125 6.5 17.625 
L 6.5 52.828125 
z
" id="LiberationSans-75"/>
      <path d="M 13.421875 26.65625 
Q 13.421875 22.125 14.078125 18.3125 
Q 14.75 14.5 16.3125 11.734375 
Q 17.875 8.984375 20.4375 7.46875 
Q 23 5.953125 26.765625 5.953125 
Q 31.453125 5.953125 34.59375 8.484375 
Q 37.75 11.03125 38.484375 16.3125 
L 47.359375 15.71875 
Q 46.921875 12.453125 45.453125 9.421875 
Q 44 6.390625 41.484375 4.09375 
Q 38.96875 1.8125 35.34375 0.40625 
Q 31.734375 -0.984375 27 -0.984375 
Q 20.796875 -0.984375 16.453125 1.109375 
Q 12.109375 3.21875 9.390625 6.90625 
Q 6.6875 10.59375 5.46875 15.59375 
Q 4.25 20.609375 4.25 26.46875 
Q 4.25 31.78125 5.125 35.859375 
Q 6 39.9375 7.59375 42.984375 
Q 9.1875 46.046875 11.328125 48.125 
Q 13.484375 50.203125 15.984375 51.4375 
Q 18.5 52.6875 21.28125 53.25 
Q 24.078125 53.8125 26.90625 53.8125 
Q 31.34375 53.8125 34.8125 52.59375 
Q 38.28125 51.375 40.796875 49.25 
Q 43.3125 47.125 44.875 44.234375 
Q 46.4375 41.359375 47.078125 38.03125 
L 38.03125 37.359375 
Q 37.359375 41.75 34.5625 44.328125 
Q 31.78125 46.921875 26.65625 46.921875 
Q 22.90625 46.921875 20.390625 45.671875 
Q 17.875 44.4375 16.3125 41.921875 
Q 14.75 39.40625 14.078125 35.59375 
Q 13.421875 31.78125 13.421875 26.65625 
" id="LiberationSans-63"/>
      <path d="M 29.5 0 
Q 27.640625 -4.78125 25.703125 -8.609375 
Q 23.78125 -12.453125 21.390625 -15.15625 
Q 19 -17.875 16.0625 -19.3125 
Q 13.140625 -20.75 9.328125 -20.75 
Q 7.671875 -20.75 6.25 -20.65625 
Q 4.828125 -20.5625 3.265625 -20.21875 
L 3.265625 -13.625 
Q 4.203125 -13.765625 5.375 -13.84375 
Q 6.546875 -13.921875 7.375 -13.921875 
Q 11.234375 -13.921875 14.546875 -11.03125 
Q 17.875 -8.15625 20.359375 -1.859375 
L 21.1875 0.25 
L 0.25 52.828125 
L 9.625 52.828125 
L 20.75 23.640625 
Q 21.234375 22.3125 21.984375 20.109375 
Q 22.75 17.921875 23.5 15.71875 
Q 24.265625 13.53125 24.84375 11.765625 
Q 25.4375 10.015625 25.53125 9.578125 
Q 25.6875 10.109375 26.25 11.6875 
Q 26.8125 13.28125 27.515625 15.234375 
Q 28.21875 17.1875 28.953125 19.1875 
Q 29.6875 21.1875 30.171875 22.65625 
L 40.53125 52.828125 
L 49.8125 52.828125 
z
" id="LiberationSans-79"/>
      <path d="M 15.484375 43.796875 
Q 16.9375 46.484375 18.640625 48.359375 
Q 20.359375 50.25 22.40625 51.46875 
Q 24.46875 52.6875 26.90625 53.25 
Q 29.34375 53.8125 32.375 53.8125 
Q 37.453125 53.8125 40.703125 52.4375 
Q 43.953125 51.078125 45.828125 48.609375 
Q 47.703125 46.140625 48.40625 42.71875 
Q 49.125 39.3125 49.125 35.203125 
L 49.125 0 
L 40.28125 0 
L 40.28125 33.5 
Q 40.28125 36.859375 39.859375 39.390625 
Q 39.453125 41.9375 38.28125 43.625 
Q 37.109375 45.3125 34.953125 46.15625 
Q 32.8125 47.015625 29.390625 47.015625 
Q 26.265625 47.015625 23.75 45.890625 
Q 21.234375 44.78125 19.453125 42.71875 
Q 17.671875 40.671875 16.6875 37.734375 
Q 15.71875 34.8125 15.71875 31.15625 
L 15.71875 0 
L 6.9375 0 
L 6.9375 72.46875 
L 15.71875 72.46875 
L 15.71875 53.609375 
Q 15.71875 52 15.671875 50.390625 
Q 15.625 48.78125 15.546875 47.40625 
Q 15.484375 46.046875 15.421875 45.09375 
Q 15.375 44.140625 15.328125 43.796875 
z
" id="LiberationSans-68"/>
      <path d="M 37.5 0 
L 37.5 33.5 
Q 37.5 37.359375 37.015625 39.9375 
Q 36.53125 42.53125 35.375 44.109375 
Q 34.234375 45.703125 32.375 46.359375 
Q 30.515625 47.015625 27.828125 47.015625 
Q 25.046875 47.015625 22.796875 45.921875 
Q 20.5625 44.828125 18.96875 42.75 
Q 17.390625 40.671875 16.53125 37.625 
Q 15.671875 34.578125 15.671875 30.609375 
L 15.671875 0 
L 6.9375 0 
L 6.9375 41.546875 
Q 6.9375 43.21875 6.90625 45.046875 
Q 6.890625 46.875 6.828125 48.5 
Q 6.78125 50.140625 6.734375 51.3125 
Q 6.6875 52.484375 6.640625 52.828125 
L 14.9375 52.828125 
Q 14.984375 52.59375 15.03125 51.515625 
Q 15.09375 50.4375 15.15625 49.046875 
Q 15.234375 47.65625 15.28125 46.21875 
Q 15.328125 44.78125 15.328125 43.796875 
L 15.484375 43.796875 
Q 16.65625 46.09375 18.015625 47.953125 
Q 19.390625 49.8125 21.21875 51.09375 
Q 23.046875 52.390625 25.40625 53.09375 
Q 27.78125 53.8125 30.90625 53.8125 
Q 36.921875 53.8125 40.40625 51.421875 
Q 43.890625 49.03125 45.265625 43.796875 
L 45.40625 43.796875 
Q 46.578125 46.09375 48.046875 47.953125 
Q 49.515625 49.8125 51.46875 51.09375 
Q 53.421875 52.390625 55.859375 53.09375 
Q 58.296875 53.8125 61.421875 53.8125 
Q 65.4375 53.8125 68.328125 52.734375 
Q 71.234375 51.65625 73.09375 49.40625 
Q 74.953125 47.171875 75.828125 43.625 
Q 76.703125 40.09375 76.703125 35.203125 
L 76.703125 0 
L 68.015625 0 
L 68.015625 33.5 
Q 68.015625 37.359375 67.53125 39.9375 
Q 67.046875 42.53125 65.890625 44.109375 
Q 64.75 45.703125 62.890625 46.359375 
Q 61.03125 47.015625 58.34375 47.015625 
Q 55.5625 47.015625 53.3125 45.96875 
Q 51.078125 44.921875 49.484375 42.875 
Q 47.90625 40.828125 47.046875 37.75 
Q 46.1875 34.671875 46.1875 30.609375 
L 46.1875 0 
z
" id="LiberationSans-6d"/>
      <path d="M 40.28125 0 
L 40.28125 33.5 
Q 40.28125 37.359375 39.71875 39.9375 
Q 39.15625 42.53125 37.890625 44.109375 
Q 36.625 45.703125 34.546875 46.359375 
Q 32.46875 47.015625 29.390625 47.015625 
Q 26.265625 47.015625 23.75 45.921875 
Q 21.234375 44.828125 19.453125 42.75 
Q 17.671875 40.671875 16.6875 37.625 
Q 15.71875 34.578125 15.71875 30.609375 
L 15.71875 0 
L 6.9375 0 
L 6.9375 41.546875 
Q 6.9375 43.21875 6.90625 45.046875 
Q 6.890625 46.875 6.828125 48.5 
Q 6.78125 50.140625 6.734375 51.3125 
Q 6.6875 52.484375 6.640625 52.828125 
L 14.9375 52.828125 
Q 14.984375 52.59375 15.03125 51.515625 
Q 15.09375 50.4375 15.15625 49.046875 
Q 15.234375 47.65625 15.28125 46.21875 
Q 15.328125 44.78125 15.328125 43.796875 
L 15.484375 43.796875 
Q 16.75 46.09375 18.265625 47.953125 
Q 19.78125 49.8125 21.78125 51.09375 
Q 23.78125 52.390625 26.359375 53.09375 
Q 28.953125 53.8125 32.375 53.8125 
Q 36.765625 53.8125 39.9375 52.734375 
Q 43.109375 51.65625 45.15625 49.40625 
Q 47.21875 47.171875 48.171875 43.625 
Q 49.125 40.09375 49.125 35.203125 
L 49.125 0 
z
" id="LiberationSans-6e"/>
      <path id="LiberationSans-20"/>
     </defs>
     <g style="fill:#262626;" transform="translate(154.1000625 351.10575)scale(0.088 -0.088)">
      <use xlink:href="#LiberationSans-68"/>
      <use x="55.615234375" xlink:href="#LiberationSans-75"/>
      <use x="111.23046875" xlink:href="#LiberationSans-6d"/>
      <use x="194.53125" xlink:href="#LiberationSans-61"/>
      <use x="250.146484375" xlink:href="#LiberationSans-6e"/>
      <use x="305.76171875" xlink:href="#LiberationSans-20"/>
      <use x="333.544921875" xlink:href="#LiberationSans-61"/>
      <use x="389.16015625" xlink:href="#LiberationSans-63"/>
      <use x="439.16015625" xlink:href="#LiberationSans-63"/>
      <use x="489.16015625" xlink:href="#LiberationSans-75"/>
      <use x="544.775390625" xlink:href="#LiberationSans-72"/>
      <use x="578.076171875" xlink:href="#LiberationSans-61"/>
      <use x="633.69140625" xlink:href="#LiberationSans-63"/>
      <use x="683.69140625" xlink:href="#LiberationSans-79"/>
     </g>
    </g>
   </g>
   <g id="matplotlib.axis_2">
    <g id="ytick_1">
     <g id="line2d_7">
      <g>
       <use style="fill:#262626;stroke:#262626;stroke-width:0.8;" x="37.12325" xlink:href="#m6d26e36f75" y="301.044833333"/>
      </g>
     </g>
     <g id="text_8">
      <!-- 0.0 -->
      <g style="fill:#262626;" transform="translate(20.40325 303.113583333)scale(0.08 -0.08)">
       <use xlink:href="#LiberationSans-30"/>
       <use x="55.615234375" xlink:href="#LiberationSans-2e"/>
       <use x="83.3984375" xlink:href="#LiberationSans-30"/>
      </g>
     </g>
    </g>
    <g id="ytick_2">
     <g id="line2d_8">
      <g>
       <use style="fill:#262626;stroke:#262626;stroke-width:0.8;" x="37.12325" xlink:href="#m6d26e36f75" y="249.7925"/>
      </g>
     </g>
     <g id="text_9">
      <!-- 0.2 -->
      <g style="fill:#262626;" transform="translate(20.40325 251.86125)scale(0.08 -0.08)">
       <use xlink:href="#LiberationSans-30"/>
       <use x="55.615234375" xlink:href="#LiberationSans-2e"/>
       <use x="83.3984375" xlink:href="#LiberationSans-32"/>
      </g>
     </g>
    </g>
    <g id="ytick_3">
     <g id="line2d_9">
      <g>
       <use style="fill:#262626;stroke:#262626;stroke-width:0.8;" x="37.12325" xlink:href="#m6d26e36f75" y="198.540166667"/>
      </g>
     </g>
     <g id="text_10">
      <!-- 0.4 -->
      <g style="fill:#262626;" transform="translate(20.40325 200.608916667)scale(0.08 -0.08)">
       <use xlink:href="#LiberationSans-30"/>
       <use x="55.615234375" xlink:href="#LiberationSans-2e"/>
       <use x="83.3984375" xlink:href="#LiberationSans-34"/>
      </g>
     </g>
    </g>
    <g id="ytick_4">
     <g id="line2d_10">
      <g>
       <use style="fill:#262626;stroke:#262626;stroke-width:0.8;" x="37.12325" xlink:href="#m6d26e36f75" y="147.287833333"/>
      </g>
     </g>
     <g id="text_11">
      <!-- 0.6 -->
      <g style="fill:#262626;" transform="translate(20.40325 149.356583333)scale(0.08 -0.08)">
       <use xlink:href="#LiberationSans-30"/>
       <use x="55.615234375" xlink:href="#LiberationSans-2e"/>
       <use x="83.3984375" xlink:href="#LiberationSans-36"/>
      </g>
     </g>
    </g>
    <g id="ytick_5">
     <g id="line2d_11">
      <g>
       <use style="fill:#262626;stroke:#262626;stroke-width:0.8;" x="37.12325" xlink:href="#m6d26e36f75" y="96.0355"/>
      </g>
     </g>
     <g id="text_12">
      <!-- 0.8 -->
      <g style="fill:#262626;" transform="translate(20.40325 98.10425)scale(0.08 -0.08)">
       <use xlink:href="#LiberationSans-30"/>
       <use x="55.615234375" xlink:href="#LiberationSans-2e"/>
       <use x="83.3984375" xlink:href="#LiberationSans-38"/>
      </g>
     </g>
    </g>
    <g id="ytick_6">
     <g id="line2d_12">
      <g>
       <use style="fill:#262626;stroke:#262626;stroke-width:0.8;" x="37.12325" xlink:href="#m6d26e36f75" y="44.7831666667"/>
      </g>
     </g>
     <g id="text_13">
      <!-- 1.0 -->
      <g style="fill:#262626;" transform="translate(20.40325 46.8519166667)scale(0.08 -0.08)">
       <use xlink:href="#LiberationSans-31"/>
       <use x="55.615234375" xlink:href="#LiberationSans-2e"/>
       <use x="83.3984375" xlink:href="#LiberationSans-30"/>
      </g>
     </g>
    </g>
    <g id="text_14">
     <!-- model accuracy -->
     <defs>
      <path d="M 40.09375 8.5 
Q 37.640625 3.421875 33.609375 1.21875 
Q 29.59375 -0.984375 23.640625 -0.984375 
Q 13.625 -0.984375 8.90625 5.75 
Q 4.203125 12.5 4.203125 26.171875 
Q 4.203125 53.8125 23.640625 53.8125 
Q 29.640625 53.8125 33.640625 51.609375 
Q 37.640625 49.421875 40.09375 44.625 
L 40.1875 44.625 
Q 40.1875 45.125 40.15625 46.171875 
Q 40.140625 47.21875 40.109375 48.359375 
Q 40.09375 49.515625 40.09375 50.53125 
Q 40.09375 51.5625 40.09375 52 
L 40.09375 72.46875 
L 48.875 72.46875 
L 48.875 10.890625 
Q 48.875 8.984375 48.890625 7.21875 
Q 48.921875 5.46875 48.96875 4 
Q 49.03125 2.546875 49.078125 1.484375 
Q 49.125 0.4375 49.171875 0 
L 40.765625 0 
Q 40.671875 0.484375 40.59375 1.390625 
Q 40.53125 2.296875 40.453125 3.46875 
Q 40.375 4.640625 40.328125 5.9375 
Q 40.28125 7.234375 40.28125 8.5 
z
M 13.421875 26.46875 
Q 13.421875 21 14.109375 17.09375 
Q 14.796875 13.1875 16.3125 10.671875 
Q 17.828125 8.15625 20.171875 6.984375 
Q 22.515625 5.8125 25.875 5.8125 
Q 29.34375 5.8125 32 6.9375 
Q 34.671875 8.0625 36.453125 10.578125 
Q 38.234375 13.09375 39.15625 17.140625 
Q 40.09375 21.1875 40.09375 27.046875 
Q 40.09375 32.671875 39.15625 36.546875 
Q 38.234375 40.4375 36.421875 42.828125 
Q 34.625 45.21875 32 46.265625 
Q 29.390625 47.3125 25.984375 47.3125 
Q 22.75 47.3125 20.40625 46.1875 
Q 18.0625 45.0625 16.5 42.578125 
Q 14.9375 40.09375 14.171875 36.109375 
Q 13.421875 32.125 13.421875 26.46875 
" id="LiberationSans-64"/>
      <path d="M 13.484375 24.5625 
Q 13.484375 20.40625 14.328125 16.90625 
Q 15.1875 13.421875 16.96875 10.90625 
Q 18.75 8.40625 21.53125 7 
Q 24.3125 5.609375 28.21875 5.609375 
Q 33.9375 5.609375 37.375 7.90625 
Q 40.828125 10.203125 42.046875 13.71875 
L 49.75 11.53125 
Q 48.921875 9.328125 47.4375 7.109375 
Q 45.953125 4.890625 43.453125 3.09375 
Q 40.96875 1.3125 37.234375 0.15625 
Q 33.5 -0.984375 28.21875 -0.984375 
Q 16.5 -0.984375 10.375 6 
Q 4.25 12.984375 4.25 26.765625 
Q 4.25 34.1875 6.09375 39.328125 
Q 7.953125 44.484375 11.171875 47.703125 
Q 14.40625 50.921875 18.703125 52.359375 
Q 23 53.8125 27.875 53.8125 
Q 34.515625 53.8125 38.984375 51.65625 
Q 43.453125 49.515625 46.15625 45.71875 
Q 48.875 41.9375 50.015625 36.8125 
Q 51.171875 31.6875 51.171875 25.734375 
L 51.171875 24.5625 
z
M 42.09375 31.296875 
Q 41.359375 39.65625 37.84375 43.484375 
Q 34.328125 47.3125 27.734375 47.3125 
Q 25.53125 47.3125 23.109375 46.609375 
Q 20.703125 45.90625 18.65625 44.09375 
Q 16.609375 42.28125 15.1875 39.171875 
Q 13.765625 36.078125 13.578125 31.296875 
z
" id="LiberationSans-65"/>
      <path d="M 51.421875 26.46875 
Q 51.421875 12.59375 45.3125 5.796875 
Q 39.203125 -0.984375 27.59375 -0.984375 
Q 22.078125 -0.984375 17.71875 0.671875 
Q 13.375 2.34375 10.375 5.765625 
Q 7.375 9.1875 5.78125 14.328125 
Q 4.203125 19.484375 4.203125 26.46875 
Q 4.203125 53.8125 27.875 53.8125 
Q 34.03125 53.8125 38.5 52.09375 
Q 42.96875 50.390625 45.828125 46.96875 
Q 48.6875 43.5625 50.046875 38.421875 
Q 51.421875 33.296875 51.421875 26.46875 
M 42.1875 26.46875 
Q 42.1875 32.625 41.234375 36.625 
Q 40.28125 40.625 38.453125 43.015625 
Q 36.625 45.40625 33.984375 46.359375 
Q 31.34375 47.3125 28.03125 47.3125 
Q 24.65625 47.3125 21.9375 46.3125 
Q 19.234375 45.3125 17.328125 42.890625 
Q 15.4375 40.484375 14.421875 36.46875 
Q 13.421875 32.46875 13.421875 26.46875 
Q 13.421875 20.3125 14.5 16.28125 
Q 15.578125 12.25 17.453125 9.859375 
Q 19.34375 7.46875 21.90625 6.484375 
Q 24.46875 5.515625 27.484375 5.515625 
Q 30.859375 5.515625 33.59375 6.46875 
Q 36.328125 7.421875 38.234375 9.8125 
Q 40.140625 12.203125 41.15625 16.25 
Q 42.1875 20.3125 42.1875 26.46875 
" id="LiberationSans-6f"/>
      <path d="M 6.734375 0 
L 6.734375 72.46875 
L 15.53125 72.46875 
L 15.53125 0 
z
" id="LiberationSans-6c"/>
     </defs>
     <g style="fill:#262626;" transform="translate(13.57725 203.725)rotate(-90.0)scale(0.088 -0.088)">
      <use xlink:href="#LiberationSans-6d"/>
      <use x="83.30078125" xlink:href="#LiberationSans-6f"/>
      <use x="138.916015625" xlink:href="#LiberationSans-64"/>
      <use x="194.53125" xlink:href="#LiberationSans-65"/>
      <use x="250.146484375" xlink:href="#LiberationSans-6c"/>
      <use x="272.36328125" xlink:href="#LiberationSans-20"/>
      <use x="300.146484375" xlink:href="#LiberationSans-61"/>
      <use x="355.76171875" xlink:href="#LiberationSans-63"/>
      <use x="405.76171875" xlink:href="#LiberationSans-63"/>
      <use x="455.76171875" xlink:href="#LiberationSans-75"/>
      <use x="511.376953125" xlink:href="#LiberationSans-72"/>
      <use x="544.677734375" xlink:href="#LiberationSans-61"/>
      <use x="600.29296875" xlink:href="#LiberationSans-63"/>
      <use x="650.29296875" xlink:href="#LiberationSans-79"/>
     </g>
    </g>
   </g>
   <g id="PathCollection_1">
    <defs>
     <path d="M 0 2.236068 
C 0.593012 2.236068 1.161816 2.000462 1.581139 1.581139 
C 2.000462 1.161816 2.236068 0.593012 2.236068 0 
C 2.236068 -0.593012 2.000462 -1.161816 1.581139 -1.581139 
C 1.161816 -2.000462 0.593012 -2.236068 0 -2.236068 
C -0.593012 -2.236068 -1.161816 -2.000462 -1.581139 -1.581139 
C -2.000462 -1.161816 -2.236068 -0.593012 -2.236068 0 
C -2.236068 0.593012 -2.000462 1.161816 -1.581139 1.581139 
C -1.161816 2.000462 -0.593012 2.236068 0 2.236068 
z
" id="mce75e9e0da"/>
    </defs>
    <g clip-path="url(#p71082d460b)">
     <use style="fill:#fa8e63;fill-opacity:0.8;" x="62.6060779385" xlink:href="#mce75e9e0da" y="295.994580403"/>
     <use style="fill:#fa8e63;fill-opacity:0.8;" x="309.978019947" xlink:href="#mce75e9e0da" y="55.8420160924"/>
     <use style="fill:#fa8e63;fill-opacity:0.8;" x="113.916255374" xlink:href="#mce75e9e0da" y="301.509878669"/>
     <use style="fill:#fa8e63;fill-opacity:0.8;" x="286.757067261" xlink:href="#mce75e9e0da" y="47.0986063621"/>
     <use style="fill:#fa8e63;fill-opacity:0.8;" x="211.650018461" xlink:href="#mce75e9e0da" y="295.933201898"/>
     <use style="fill:#fa8e63;fill-opacity:0.8;" x="286.919635118" xlink:href="#mce75e9e0da" y="306.413240209"/>
     <use style="fill:#fa8e63;fill-opacity:0.8;" x="259.121060486" xlink:href="#mce75e9e0da" y="310.68351306"/>
     <use style="fill:#fa8e63;fill-opacity:0.8;" x="287.537783596" xlink:href="#mce75e9e0da" y="300.325900214"/>
     <use style="fill:#fa8e63;fill-opacity:0.8;" x="263.030283085" xlink:href="#mce75e9e0da" y="47.5208162834"/>
     <use style="fill:#fa8e63;fill-opacity:0.8;" x="109.547097631" xlink:href="#mce75e9e0da" y="289.958234139"/>
     <use style="fill:#fa8e63;fill-opacity:0.8;" x="259.169253119" xlink:href="#mce75e9e0da" y="54.5954823675"/>
     <use style="fill:#fa8e63;fill-opacity:0.8;" x="213.193835465" xlink:href="#mce75e9e0da" y="306.424185699"/>
     <use style="fill:#fa8e63;fill-opacity:0.8;" x="88.3863237734" xlink:href="#mce75e9e0da" y="301.886636714"/>
     <use style="fill:#fa8e63;fill-opacity:0.8;" x="86.3781197301" xlink:href="#mce75e9e0da" y="303.689970232"/>
     <use style="fill:#fa8e63;fill-opacity:0.8;" x="186.673314157" xlink:href="#mce75e9e0da" y="297.509420349"/>
     <use style="fill:#fa8e63;fill-opacity:0.8;" x="312.486682623" xlink:href="#mce75e9e0da" y="304.389223455"/>
     <use style="fill:#fa8e63;fill-opacity:0.8;" x="285.115835121" xlink:href="#mce75e9e0da" y="311.74591321"/>
     <use style="fill:#fa8e63;fill-opacity:0.8;" x="310.532913793" xlink:href="#mce75e9e0da" y="304.067586386"/>
     <use style="fill:#fa8e63;fill-opacity:0.8;" x="313.01659598" xlink:href="#mce75e9e0da" y="54.9511741406"/>
     <use style="fill:#fa8e63;fill-opacity:0.8;" x="236.147213243" xlink:href="#mce75e9e0da" y="294.80007483"/>
     <use style="fill:#fa8e63;fill-opacity:0.8;" x="184.864956491" xlink:href="#mce75e9e0da" y="290.87661469"/>
     <use style="fill:#fa8e63;fill-opacity:0.8;" x="283.94534867" xlink:href="#mce75e9e0da" y="42.4722288283"/>
     <use style="fill:#fa8e63;fill-opacity:0.8;" x="310.030249553" xlink:href="#mce75e9e0da" y="292.963224805"/>
     <use style="fill:#fa8e63;fill-opacity:0.8;" x="234.179229474" xlink:href="#mce75e9e0da" y="289.082350902"/>
     <use style="fill:#fa8e63;fill-opacity:0.8;" x="60.9456883244" xlink:href="#mce75e9e0da" y="303.951979656"/>
     <use style="fill:#fa8e63;fill-opacity:0.8;" x="286.941814839" xlink:href="#mce75e9e0da" y="311.768650685"/>
     <use style="fill:#fa8e63;fill-opacity:0.8;" x="159.20380919" xlink:href="#mce75e9e0da" y="288.994482855"/>
     <use style="fill:#fa8e63;fill-opacity:0.8;" x="63.7686563896" xlink:href="#mce75e9e0da" y="296.672393271"/>
     <use style="fill:#fa8e63;fill-opacity:0.8;" x="308.551388769" xlink:href="#mce75e9e0da" y="307.018825048"/>
     <use style="fill:#fa8e63;fill-opacity:0.8;" x="88.0638156577" xlink:href="#mce75e9e0da" y="306.62657657"/>
     <use style="fill:#fa8e63;fill-opacity:0.8;" x="308.453753943" xlink:href="#mce75e9e0da" y="290.859954698"/>
     <use style="fill:#fa8e63;fill-opacity:0.8;" x="284.652602473" xlink:href="#mce75e9e0da" y="41.0443862215"/>
     <use style="fill:#fa8e63;fill-opacity:0.8;" x="64.2522419556" xlink:href="#mce75e9e0da" y="293.379174035"/>
     <use style="fill:#fa8e63;fill-opacity:0.8;" x="211.050047326" xlink:href="#mce75e9e0da" y="312.677420341"/>
     <use style="fill:#fa8e63;fill-opacity:0.8;" x="260.456887625" xlink:href="#mce75e9e0da" y="47.801004267"/>
     <use style="fill:#fa8e63;fill-opacity:0.8;" x="283.475307056" xlink:href="#mce75e9e0da" y="296.332939791"/>
     <use style="fill:#fa8e63;fill-opacity:0.8;" x="313.154292351" xlink:href="#mce75e9e0da" y="310.486592119"/>
     <use style="fill:#fa8e63;fill-opacity:0.8;" x="311.106894848" xlink:href="#mce75e9e0da" y="57.0017711776"/>
     <use style="fill:#fa8e63;fill-opacity:0.8;" x="260.446211084" xlink:href="#mce75e9e0da" y="49.360773016"/>
     <use style="fill:#fa8e63;fill-opacity:0.8;" x="310.670287529" xlink:href="#mce75e9e0da" y="297.348504862"/>
     <use style="fill:#fa8e63;fill-opacity:0.8;" x="209.893244025" xlink:href="#mce75e9e0da" y="55.693021784"/>
     <use style="fill:#fa8e63;fill-opacity:0.8;" x="60.739771029" xlink:href="#mce75e9e0da" y="297.831090369"/>
     <use style="fill:#fa8e63;fill-opacity:0.8;" x="310.33238441" xlink:href="#mce75e9e0da" y="307.020278363"/>
     <use style="fill:#fa8e63;fill-opacity:0.8;" x="162.977253272" xlink:href="#mce75e9e0da" y="53.8983756412"/>
     <use style="fill:#fa8e63;fill-opacity:0.8;" x="210.607099144" xlink:href="#mce75e9e0da" y="300.103698145"/>
     <use style="fill:#fa8e63;fill-opacity:0.8;" x="262.042388111" xlink:href="#mce75e9e0da" y="299.03628246"/>
     <use style="fill:#fa8e63;fill-opacity:0.8;" x="285.860821893" xlink:href="#mce75e9e0da" y="56.04787266"/>
     <use style="fill:#fa8e63;fill-opacity:0.8;" x="308.96688855" xlink:href="#mce75e9e0da" y="53.4216873792"/>
     <use style="fill:#fa8e63;fill-opacity:0.8;" x="312.191035322" xlink:href="#mce75e9e0da" y="32.7636844028"/>
     <use style="fill:#fa8e63;fill-opacity:0.8;" x="286.616747696" xlink:href="#mce75e9e0da" y="290.435821234"/>
     <use style="fill:#fa8e63;fill-opacity:0.8;" x="60.5684533366" xlink:href="#mce75e9e0da" y="309.663511553"/>
     <use style="fill:#fa8e63;fill-opacity:0.8;" x="209.716898469" xlink:href="#mce75e9e0da" y="293.083026961"/>
     <use style="fill:#fa8e63;fill-opacity:0.8;" x="88.0732092494" xlink:href="#mce75e9e0da" y="300.069761367"/>
     <use style="fill:#fa8e63;fill-opacity:0.8;" x="61.1801281209" xlink:href="#mce75e9e0da" y="299.476371222"/>
     <use style="fill:#fa8e63;fill-opacity:0.8;" x="261.710770009" xlink:href="#mce75e9e0da" y="307.737869554"/>
     <use style="fill:#fa8e63;fill-opacity:0.8;" x="310.727222051" xlink:href="#mce75e9e0da" y="299.156124256"/>
     <use style="fill:#fa8e63;fill-opacity:0.8;" x="311.091470535" xlink:href="#mce75e9e0da" y="312.067264284"/>
     <use style="fill:#fa8e63;fill-opacity:0.8;" x="260.431837748" xlink:href="#mce75e9e0da" y="45.7737840657"/>
     <use style="fill:#fa8e63;fill-opacity:0.8;" x="212.041373083" xlink:href="#mce75e9e0da" y="296.987558253"/>
     <use style="fill:#fa8e63;fill-opacity:0.8;" x="237.865075693" xlink:href="#mce75e9e0da" y="35.2107728805"/>
     <use style="fill:#fa8e63;fill-opacity:0.8;" x="61.633237545" xlink:href="#mce75e9e0da" y="307.194187077"/>
    </g>
   </g>
   <g id="PolyCollection_1">
    <defs>
     <path d="M 61.999417 -91.037296 
L 61.999417 -60.176181 
L 64.512161 -60.237501 
L 67.024905 -60.302256 
L 69.537649 -60.371721 
L 72.050393 -60.449036 
L 74.563137 -60.540885 
L 77.075881 -60.638893 
L 79.588625 -60.738501 
L 82.10137 -60.832183 
L 84.614114 -60.931144 
L 87.126858 -61.044655 
L 89.639602 -61.171321 
L 92.152346 -61.285344 
L 94.66509 -61.405548 
L 97.177834 -61.532261 
L 99.690578 -61.665829 
L 102.203322 -61.806614 
L 104.716066 -61.946575 
L 107.228811 -62.106702 
L 109.741555 -62.274795 
L 112.254299 -62.448453 
L 114.767043 -62.63144 
L 117.279787 -62.824241 
L 119.792531 -63.027367 
L 122.305275 -63.241351 
L 124.818019 -63.466754 
L 127.330763 -63.705387 
L 129.843508 -63.96699 
L 132.356252 -64.243109 
L 134.868996 -64.534512 
L 137.38174 -64.842295 
L 139.894484 -65.167707 
L 142.407228 -65.508444 
L 144.919972 -65.871068 
L 147.432716 -66.226028 
L 149.94546 -66.592805 
L 152.458205 -66.979789 
L 154.970949 -67.449199 
L 157.483693 -67.960212 
L 159.996437 -68.490006 
L 162.509181 -69.010585 
L 165.021925 -69.566934 
L 167.534669 -70.118401 
L 170.047413 -70.653227 
L 172.560157 -71.201657 
L 175.072902 -71.782366 
L 177.585646 -72.39317 
L 180.09839 -73.146399 
L 182.611134 -73.83951 
L 185.123878 -74.5658 
L 187.636622 -75.383071 
L 190.149366 -76.110043 
L 192.66211 -76.844067 
L 195.174854 -77.670568 
L 197.687598 -78.654739 
L 200.200343 -79.670015 
L 202.713087 -80.65845 
L 205.225831 -81.714507 
L 207.738575 -82.844956 
L 210.251319 -84.025856 
L 212.764063 -85.13932 
L 215.276807 -86.434008 
L 217.789551 -87.780734 
L 220.302295 -88.943906 
L 222.81504 -90.168384 
L 225.327784 -91.188895 
L 227.840528 -92.400386 
L 230.353272 -93.833387 
L 232.866016 -95.126625 
L 235.37876 -96.262074 
L 237.891504 -97.636124 
L 240.404248 -99.229788 
L 242.916992 -100.537612 
L 245.429737 -101.992957 
L 247.942481 -103.313252 
L 250.455225 -104.644084 
L 252.967969 -106.002202 
L 255.480713 -106.880077 
L 257.993457 -108.798358 
L 260.506201 -109.691967 
L 263.018945 -110.409749 
L 265.531689 -111.705175 
L 268.044434 -113.27198 
L 270.557178 -114.874468 
L 273.069922 -116.684852 
L 275.582666 -118.91991 
L 278.09541 -120.128905 
L 280.608154 -121.341225 
L 283.120898 -122.388596 
L 285.633642 -123.552033 
L 288.146386 -124.57763 
L 290.65913 -126.157311 
L 293.171875 -127.419281 
L 295.684619 -129.041769 
L 298.197363 -129.974962 
L 300.710107 -130.855354 
L 303.222851 -132.579108 
L 305.735595 -133.823551 
L 308.248339 -134.931355 
L 310.761083 -136.0567 
L 310.761083 -232.164762 
L 310.761083 -232.164762 
L 308.248339 -230.210301 
L 305.735595 -228.20847 
L 303.222851 -225.890605 
L 300.710107 -222.547608 
L 298.197363 -220.203517 
L 295.684619 -217.824516 
L 293.171875 -215.409986 
L 290.65913 -212.986411 
L 288.146386 -210.181689 
L 285.633642 -208.039113 
L 283.120898 -204.555697 
L 280.608154 -201.668892 
L 278.09541 -199.148272 
L 275.582666 -196.944152 
L 273.069922 -194.439732 
L 270.557178 -191.554089 
L 268.044434 -189.016438 
L 265.531689 -186.610228 
L 263.018945 -184.246331 
L 260.506201 -181.98505 
L 257.993457 -179.487532 
L 255.480713 -176.985748 
L 252.967969 -174.654507 
L 250.455225 -172.047287 
L 247.942481 -169.516584 
L 245.429737 -167.040009 
L 242.916992 -164.498413 
L 240.404248 -162.829402 
L 237.891504 -161.275281 
L 235.37876 -159.431741 
L 232.866016 -157.395692 
L 230.353272 -155.001661 
L 227.840528 -153.04463 
L 225.327784 -151.637963 
L 222.81504 -150.125402 
L 220.302295 -148.399155 
L 217.789551 -146.687736 
L 215.276807 -145.22197 
L 212.764063 -143.89839 
L 210.251319 -142.586305 
L 207.738575 -141.251686 
L 205.225831 -139.392773 
L 202.713087 -137.43556 
L 200.200343 -136.21755 
L 197.687598 -135.127687 
L 195.174854 -133.319338 
L 192.66211 -131.519028 
L 190.149366 -130.57118 
L 187.636622 -129.364235 
L 185.123878 -128.111626 
L 182.611134 -126.604096 
L 180.09839 -125.806959 
L 177.585646 -124.787599 
L 175.072902 -123.942786 
L 172.560157 -123.029054 
L 170.047413 -122.209904 
L 167.534669 -121.224808 
L 165.021925 -120.333278 
L 162.509181 -119.450562 
L 159.996437 -118.574833 
L 157.483693 -117.67068 
L 154.970949 -116.23371 
L 152.458205 -115.208579 
L 149.94546 -114.260102 
L 147.432716 -113.291514 
L 144.919972 -112.386712 
L 142.407228 -111.476209 
L 139.894484 -110.607314 
L 137.38174 -109.847057 
L 134.868996 -108.884277 
L 132.356252 -108.282119 
L 129.843508 -107.663235 
L 127.330763 -106.882643 
L 124.818019 -106.095557 
L 122.305275 -105.414817 
L 119.792531 -104.909254 
L 117.279787 -104.386454 
L 114.767043 -103.879033 
L 112.254299 -103.304054 
L 109.741555 -102.584945 
L 107.228811 -101.871345 
L 104.716066 -101.064738 
L 102.203322 -100.387214 
L 99.690578 -99.766151 
L 97.177834 -99.121635 
L 94.66509 -98.45844 
L 92.152346 -97.83939 
L 89.639602 -97.328868 
L 87.126858 -96.640077 
L 84.614114 -95.895284 
L 82.10137 -95.453622 
L 79.588625 -95.064504 
L 77.075881 -94.528757 
L 74.563137 -93.980853 
L 72.050393 -93.419922 
L 69.537649 -92.81236 
L 67.024905 -92.212539 
L 64.512161 -91.620391 
L 61.999417 -91.037296 
z
" id="me1e4336107" style="stroke:#000000;stroke-opacity:0.15;stroke-width:0.24;"/>
    </defs>
    <g clip-path="url(#p71082d460b)">
     <use style="fill:#fa8e63;fill-opacity:0.15;stroke:#000000;stroke-opacity:0.15;stroke-width:0.24;" x="0.0" xlink:href="#me1e4336107" y="360.13175"/>
    </g>
   </g>
   <g id="PathCollection_2">
    <path clip-path="url(#p71082d460b)" d="M 61.999417 305.516969 
C 63.185441 305.516969 64.323048 305.045757 65.161694 304.207111 
C 66.00034 303.368465 66.471553 302.230858 66.471553 301.044833 
C 66.471553 299.858809 66.00034 298.721202 65.161694 297.882556 
C 64.323048 297.04391 63.185441 296.572697 61.999417 296.572697 
C 60.813392 296.572697 59.675785 297.04391 58.837139 297.882556 
C 57.998493 298.721202 57.527281 299.858809 57.527281 301.044833 
C 57.527281 302.230858 57.998493 303.368465 58.837139 304.207111 
C 59.675785 305.045757 60.813392 305.516969 61.999417 305.516969 
z
" style="fill:#262626;fill-opacity:0.8;"/>
    <path clip-path="url(#p71082d460b)" d="M 86.875583 304.207111 
C 87.714229 304.207111 88.518639 303.873913 89.111651 303.280901 
C 89.704663 302.687889 90.037861 301.883479 90.037861 301.044833 
C 90.037861 300.206187 89.704663 299.401778 89.111651 298.808765 
C 88.518639 298.215753 87.714229 297.882556 86.875583 297.882556 
C 86.036937 297.882556 85.232528 298.215753 84.639515 298.808765 
C 84.046503 299.401778 83.713306 300.206187 83.713306 301.044833 
C 83.713306 301.883479 84.046503 302.687889 84.639515 303.280901 
C 85.232528 303.873913 86.036937 304.207111 86.875583 304.207111 
z
" style="fill:#262626;fill-opacity:0.8;"/>
    <path clip-path="url(#p71082d460b)" d="M 111.75175 303.280901 
C 112.344762 303.280901 112.913566 303.045295 113.332889 302.625972 
C 113.752212 302.206649 113.987818 301.637845 113.987818 301.044833 
C 113.987818 300.451821 113.752212 299.883017 113.332889 299.463695 
C 112.913566 299.044372 112.344762 298.808765 111.75175 298.808765 
C 111.158738 298.808765 110.589934 299.044372 110.170611 299.463695 
C 109.751288 299.883017 109.515682 300.451821 109.515682 301.044833 
C 109.515682 301.637845 109.751288 302.206649 110.170611 302.625972 
C 110.589934 303.045295 111.158738 303.280901 111.75175 303.280901 
z
" style="fill:#262626;fill-opacity:0.8;"/>
    <path clip-path="url(#p71082d460b)" d="M 161.504083 175.150068 
C 162.097095 175.150068 162.665899 174.914462 163.085222 174.495139 
C 163.504545 174.075816 163.740151 173.507012 163.740151 172.914 
C 163.740151 172.320988 163.504545 171.752184 163.085222 171.332861 
C 162.665899 170.913538 162.097095 170.677932 161.504083 170.677932 
C 160.911071 170.677932 160.342267 170.913538 159.922945 171.332861 
C 159.503622 171.752184 159.268015 172.320988 159.268015 172.914 
C 159.268015 173.507012 159.503622 174.075816 159.922945 174.495139 
C 160.342267 174.914462 160.911071 175.150068 161.504083 175.150068 
z
" style="fill:#262626;fill-opacity:0.8;"/>
    <path clip-path="url(#p71082d460b)" d="M 186.38025 303.280901 
C 186.973262 303.280901 187.542066 303.045295 187.961389 302.625972 
C 188.380712 302.206649 188.616318 301.637845 188.616318 301.044833 
C 188.616318 300.451821 188.380712 299.883017 187.961389 299.463695 
C 187.542066 299.044372 186.973262 298.808765 186.38025 298.808765 
C 185.787238 298.808765 185.218434 299.044372 184.799111 299.463695 
C 184.379788 299.883017 184.144182 300.451821 184.144182 301.044833 
C 184.144182 301.637845 184.379788 302.206649 184.799111 302.625972 
C 185.218434 303.045295 185.787238 303.280901 186.38025 303.280901 
z
" style="fill:#262626;fill-opacity:0.8;"/>
    <path clip-path="url(#p71082d460b)" d="M 211.256417 268.619324 
C 212.365841 268.619324 213.429975 268.178545 214.214457 267.394064 
C 214.998938 266.609582 215.439717 265.545448 215.439717 264.436024 
C 215.439717 263.3266 214.998938 262.262465 214.214457 261.477984 
C 213.429975 260.693503 212.365841 260.252724 211.256417 260.252724 
C 210.146993 260.252724 209.082858 260.693503 208.298377 261.477984 
C 207.513895 262.262465 207.073117 263.3266 207.073117 264.436024 
C 207.073117 265.545448 207.513895 266.609582 208.298377 267.394064 
C 209.082858 268.178545 210.146993 268.619324 211.256417 268.619324 
z
" style="fill:#262626;fill-opacity:0.8;"/>
    <path clip-path="url(#p71082d460b)" d="M 236.132583 218.362891 
C 236.858872 218.362891 237.555511 218.074333 238.069075 217.560769 
C 238.582639 217.047206 238.871196 216.350566 238.871196 215.624278 
C 238.871196 214.897989 238.582639 214.20135 238.069075 213.687786 
C 237.555511 213.174223 236.858872 212.885665 236.132583 212.885665 
C 235.406295 212.885665 234.709655 213.174223 234.196092 213.687786 
C 233.682528 214.20135 233.393971 214.897989 233.393971 215.624278 
C 233.393971 216.350566 233.682528 217.047206 234.196092 217.560769 
C 234.709655 218.074333 235.406295 218.362891 236.132583 218.362891 
z
" style="fill:#262626;fill-opacity:0.8;"/>
    <path clip-path="url(#p71082d460b)" d="M 261.00875 145.353428 
C 262.194774 145.353428 263.332382 144.882215 264.171028 144.043569 
C 265.009673 143.204923 265.480886 142.067316 265.480886 140.881292 
C 265.480886 139.695267 265.009673 138.55766 264.171028 137.719014 
C 263.332382 136.880368 262.194774 136.409156 261.00875 136.409156 
C 259.822726 136.409156 258.685118 136.880368 257.846472 137.719014 
C 257.007827 138.55766 256.536614 139.695267 256.536614 140.881292 
C 256.536614 142.067316 257.007827 143.204923 257.846472 144.043569 
C 258.685118 144.882215 259.822726 145.353428 261.00875 145.353428 
z
" style="fill:#262626;fill-opacity:0.8;"/>
    <path clip-path="url(#p71082d460b)" d="M 285.884917 203.540167 
C 287.210932 203.540167 288.482816 203.013335 289.420451 202.075701 
C 290.358085 201.138066 290.884917 199.866182 290.884917 198.540167 
C 290.884917 197.214151 290.358085 195.942267 289.420451 195.004633 
C 288.482816 194.066998 287.210932 193.540167 285.884917 193.540167 
C 284.558901 193.540167 283.287017 194.066998 282.349383 195.004633 
C 281.411748 195.942267 280.884917 197.214151 280.884917 198.540167 
C 280.884917 199.866182 281.411748 201.138066 282.349383 202.075701 
C 283.287017 203.013335 284.558901 203.540167 285.884917 203.540167 
z
" style="fill:#262626;fill-opacity:0.8;"/>
    <path clip-path="url(#p71082d460b)" d="M 310.761083 221.748002 
C 312.385114 221.748002 313.942847 221.102768 315.09121 219.954405 
C 316.239573 218.806042 316.884808 217.248308 316.884808 215.624278 
C 316.884808 214.000247 316.239573 212.442514 315.09121 211.294151 
C 313.942847 210.145788 312.385114 209.500553 310.761083 209.500553 
C 309.137053 209.500553 307.579319 210.145788 306.430956 211.294151 
C 305.282593 212.442514 304.637359 214.000247 304.637359 215.624278 
C 304.637359 217.248308 305.282593 218.806042 306.430956 219.954405 
C 307.579319 221.102768 309.137053 221.748002 310.761083 221.748002 
z
" style="fill:#262626;fill-opacity:0.8;"/>
   </g>
   <g id="line2d_13">
    <path clip-path="url(#p71082d460b)" d="M 61.999417 290.244067 
L 64.512161 289.928239 
L 67.024905 289.603605 
L 69.537649 289.269947 
L 72.050393 288.92704 
L 74.563137 288.574657 
L 77.075881 288.212565 
L 79.588625 287.840528 
L 82.10137 287.458307 
L 84.614114 287.065658 
L 87.126858 286.662335 
L 89.639602 286.248085 
L 92.152346 285.822655 
L 94.66509 285.385787 
L 97.177834 284.937218 
L 99.690578 284.476685 
L 102.203322 284.003918 
L 104.716066 283.518648 
L 107.228811 283.020601 
L 109.741555 282.509498 
L 112.254299 281.985063 
L 114.767043 281.447012 
L 117.279787 280.895063 
L 119.792531 280.328929 
L 122.305275 279.748324 
L 124.818019 279.152958 
L 127.330763 278.542543 
L 129.843508 277.916786 
L 132.356252 277.275398 
L 134.868996 276.618087 
L 137.38174 275.94456 
L 139.894484 275.254529 
L 142.407228 274.547702 
L 144.919972 273.823791 
L 147.432716 273.08251 
L 149.94546 272.323573 
L 152.458205 271.5467 
L 154.970949 270.75161 
L 157.483693 269.93803 
L 159.996437 269.105688 
L 162.509181 268.254318 
L 165.021925 267.383659 
L 167.534669 266.493457 
L 170.047413 265.583463 
L 172.560157 264.653436 
L 175.072902 263.703142 
L 177.585646 262.732358 
L 180.09839 261.740866 
L 182.611134 260.728463 
L 185.123878 259.694951 
L 187.636622 258.640148 
L 190.149366 257.563882 
L 192.66211 256.465994 
L 195.174854 255.346337 
L 197.687598 254.204782 
L 200.200343 253.041211 
L 202.713087 251.855525 
L 205.225831 250.647639 
L 207.738575 249.417488 
L 210.251319 248.165023 
L 212.764063 246.890215 
L 215.276807 245.593053 
L 217.789551 244.273548 
L 220.302295 242.931731 
L 222.81504 241.567655 
L 225.327784 240.181395 
L 227.840528 238.77305 
L 230.353272 237.342741 
L 232.866016 235.890612 
L 235.37876 234.416836 
L 237.891504 232.921606 
L 240.404248 231.405144 
L 242.916992 229.867696 
L 245.429737 228.309534 
L 247.942481 226.730957 
L 250.455225 225.132292 
L 252.967969 223.51389 
L 255.480713 221.876131 
L 257.993457 220.219421 
L 260.506201 218.544193 
L 263.018945 216.850907 
L 265.531689 215.140049 
L 268.044434 213.412131 
L 270.557178 211.667691 
L 273.069922 209.907294 
L 275.582666 208.131529 
L 278.09541 206.341007 
L 280.608154 204.536367 
L 283.120898 202.718267 
L 285.633642 200.88739 
L 288.146386 199.044439 
L 290.65913 197.190138 
L 293.171875 195.325229 
L 295.684619 193.450474 
L 298.197363 191.56665 
L 300.710107 189.674551 
L 303.222851 187.774987 
L 305.735595 185.868777 
L 308.248339 183.956756 
L 310.761083 182.039768 
" style="fill:none;stroke:#fa8e63;stroke-linecap:round;stroke-width:2.1;"/>
   </g>
   <g id="patch_3">
    <path d="M 37.12325 326.671 
L 335.63725 326.671 
" style="fill:none;stroke:#262626;stroke-linecap:square;stroke-linejoin:miter;stroke-width:1.25;"/>
   </g>
   <g id="patch_4">
    <path d="M 37.12325 326.671 
L 37.12325 19.157 
" style="fill:none;stroke:#262626;stroke-linecap:square;stroke-linejoin:miter;stroke-width:1.25;"/>
   </g>
   <g id="text_15">
    <!-- CaffeNet -->
    <defs>
     <path d="M 17.625 46.4375 
L 17.625 0 
L 8.84375 0 
L 8.84375 46.4375 
L 1.421875 46.4375 
L 1.421875 52.828125 
L 8.84375 52.828125 
L 8.84375 58.796875 
Q 8.84375 61.671875 9.375 64.140625 
Q 9.90625 66.609375 11.34375 68.4375 
Q 12.796875 70.265625 15.28125 71.3125 
Q 17.78125 72.359375 21.734375 72.359375 
Q 23.296875 72.359375 24.96875 72.21875 
Q 26.65625 72.078125 27.9375 71.78125 
L 27.9375 65.09375 
Q 27.09375 65.234375 26 65.359375 
Q 24.90625 65.484375 24.03125 65.484375 
Q 22.078125 65.484375 20.828125 64.9375 
Q 19.578125 64.40625 18.875 63.40625 
Q 18.171875 62.40625 17.890625 60.9375 
Q 17.625 59.46875 17.625 57.5625 
L 17.625 52.828125 
L 27.9375 52.828125 
L 27.9375 46.4375 
z
" id="LiberationSans-66"/>
     <path d="M 52.828125 0 
L 16.015625 58.59375 
Q 16.109375 56.203125 16.265625 53.859375 
Q 16.359375 51.859375 16.421875 49.625 
Q 16.5 47.40625 16.5 45.703125 
L 16.5 0 
L 8.203125 0 
L 8.203125 68.796875 
L 19.046875 68.796875 
L 56.25 9.8125 
Q 56.109375 12.203125 55.953125 14.59375 
Q 55.859375 16.65625 55.765625 19.0625 
Q 55.671875 21.484375 55.671875 23.6875 
L 55.671875 68.796875 
L 64.0625 68.796875 
L 64.0625 0 
z
" id="LiberationSans-4e"/>
     <path d="M 38.671875 62.203125 
Q 32.8125 62.203125 28.296875 60.25 
Q 23.78125 58.296875 20.71875 54.6875 
Q 17.671875 51.078125 16.109375 46 
Q 14.546875 40.921875 14.546875 34.71875 
Q 14.546875 28.515625 16.234375 23.359375 
Q 17.921875 18.21875 21.0625 14.5 
Q 24.21875 10.796875 28.78125 8.734375 
Q 33.34375 6.6875 39.0625 6.6875 
Q 43.0625 6.6875 46.359375 7.734375 
Q 49.65625 8.796875 52.3125 10.6875 
Q 54.984375 12.59375 57.078125 15.203125 
Q 59.1875 17.828125 60.796875 21 
L 68.40625 17.1875 
Q 66.546875 13.328125 63.8125 10 
Q 61.078125 6.6875 57.390625 4.25 
Q 53.71875 1.8125 49.046875 0.40625 
Q 44.390625 -0.984375 38.625 -0.984375 
Q 30.28125 -0.984375 24 1.671875 
Q 17.71875 4.34375 13.5 9.109375 
Q 9.28125 13.875 7.171875 20.40625 
Q 5.078125 26.953125 5.078125 34.71875 
Q 5.078125 42.78125 7.296875 49.265625 
Q 9.515625 55.765625 13.78125 60.328125 
Q 18.0625 64.890625 24.3125 67.359375 
Q 30.5625 69.828125 38.578125 69.828125 
Q 49.5625 69.828125 56.9375 65.53125 
Q 64.3125 61.234375 67.78125 52.78125 
L 58.9375 49.859375 
Q 57.953125 52.296875 56.296875 54.515625 
Q 54.640625 56.734375 52.140625 58.4375 
Q 49.65625 60.15625 46.3125 61.171875 
Q 42.96875 62.203125 38.671875 62.203125 
" id="LiberationSans-43"/>
     <path d="M 27.046875 0.390625 
Q 25.046875 -0.140625 22.96875 -0.453125 
Q 20.90625 -0.78125 18.171875 -0.78125 
Q 7.625 -0.78125 7.625 11.1875 
L 7.625 46.4375 
L 1.515625 46.4375 
L 1.515625 52.828125 
L 7.953125 52.828125 
L 10.546875 64.65625 
L 16.40625 64.65625 
L 16.40625 52.828125 
L 26.171875 52.828125 
L 26.171875 46.4375 
L 16.40625 46.4375 
L 16.40625 13.09375 
Q 16.40625 9.28125 17.640625 7.734375 
Q 18.890625 6.203125 21.96875 6.203125 
Q 23.25 6.203125 24.4375 6.390625 
Q 25.640625 6.59375 27.046875 6.890625 
z
" id="LiberationSans-74"/>
    </defs>
    <g style="fill:#262626;" transform="translate(167.43975 14.157)scale(0.096 -0.096)">
     <use xlink:href="#LiberationSans-43"/>
     <use x="72.216796875" xlink:href="#LiberationSans-61"/>
     <use x="127.83203125" xlink:href="#LiberationSans-66"/>
     <use x="155.599609375" xlink:href="#LiberationSans-66"/>
     <use x="183.3828125" xlink:href="#LiberationSans-65"/>
     <use x="238.998046875" xlink:href="#LiberationSans-4e"/>
     <use x="311.21484375" xlink:href="#LiberationSans-65"/>
     <use x="366.830078125" xlink:href="#LiberationSans-74"/>
    </g>
   </g>
  </g>
 </g>
 <defs>
  <clipPath id="p71082d460b">
   <rect height="307.514" width="298.514" x="37.12325" y="19.157"/>
  </clipPath>
 </defs>
</svg>
