<?xml version="1.0" encoding="utf-8" standalone="no"?>
<!DOCTYPE svg PUBLIC "-//W3C//DTD SVG 1.1//EN"
  "http://www.w3.org/Graphics/SVG/1.1/DTD/svg11.dtd">
<!-- Created with matplotlib (http://matplotlib.org/) -->
<svg height="360pt" version="1.1" viewBox="0 0 360 360" width="360pt" xmlns="http://www.w3.org/2000/svg" xmlns:xlink="http://www.w3.org/1999/xlink">
 <defs>
  <style type="text/css">
*{stroke-linecap:butt;stroke-linejoin:round;}
  </style>
 </defs>
 <g id="figure_1">
  <g id="patch_1">
   <path d="
M0 360
L360 360
L360 0
L0 0
z
" style="fill:#ffffff;"/>
  </g>
  <g id="axes_1">
   <g id="patch_2">
    <path d="
M47.5084 319.34
L341.985 319.34
L341.985 17.01
L47.5084 17.01
z
" style="fill:#ffffff;"/>
   </g>
   <g id="matplotlib.axis_1">
    <g id="xtick_1">
     <g id="line2d_1">
      <defs>
       <path d="
M0 0
L0 0" id="m9ceacb34a3" style="stroke:#262626;stroke-width:0.8;"/>
      </defs>
      <g>
       <use style="fill:#262626;stroke:#262626;stroke-width:0.8;" x="72.0481119792" xlink:href="#m9ceacb34a3" y="319.34"/>
      </g>
     </g>
     <g id="text_1">
      <!-- 0.0 -->
      <defs>
       <path d="
M9.125 0
L9.125 10.6875
L18.6562 10.6875
L18.6562 0
z
" id="LiberationSans-2e"/>
       <path d="
M51.7031 34.4219
Q51.7031 24.5156 49.8281 17.75
Q47.9531 10.9844 44.7031 6.8125
Q41.4531 2.64062 37.0625 0.828125
Q32.6719 -0.984375 27.6875 -0.984375
Q22.6562 -0.984375 18.3125 0.828125
Q13.9688 2.64062 10.7656 6.78125
Q7.5625 10.9375 5.73438 17.7031
Q3.90625 24.4688 3.90625 34.4219
Q3.90625 44.8281 5.73438 51.6406
Q7.5625 58.4531 10.7812 62.5
Q14.0156 66.5469 18.4062 68.1875
Q22.7969 69.8281 27.9844 69.8281
Q32.9062 69.8281 37.2188 68.1875
Q41.5469 66.5469 44.7656 62.5
Q48 58.4531 49.8438 51.6406
Q51.7031 44.8281 51.7031 34.4219
M42.7812 34.4219
Q42.7812 42.625 41.7969 48.0625
Q40.8281 53.5156 38.9219 56.7656
Q37.0156 60.0156 34.25 61.3594
Q31.5 62.7031 27.9844 62.7031
Q24.2656 62.7031 21.4375 61.3281
Q18.6094 59.9688 16.6719 56.7188
Q14.75 53.4688 13.7656 48.0156
Q12.7969 42.5781 12.7969 34.4219
Q12.7969 26.5156 13.7969 21.0938
Q14.7969 15.6719 16.7188 12.375
Q18.6562 9.07812 21.4375 7.64062
Q24.2188 6.20312 27.7812 6.20312
Q31.25 6.20312 34.0312 7.64062
Q36.8125 9.07812 38.7344 12.375
Q40.6719 15.6719 41.7188 21.0938
Q42.7812 26.5156 42.7812 34.4219" id="LiberationSans-30"/>
      </defs>
      <g style="fill:#262626;" transform="translate(66.8006119792 330.7375)scale(0.08 -0.08)">
       <use xlink:href="#LiberationSans-30"/>
       <use x="55.615234375" xlink:href="#LiberationSans-2e"/>
       <use x="83.3984375" xlink:href="#LiberationSans-30"/>
      </g>
     </g>
    </g>
    <g id="xtick_2">
     <g id="line2d_2">
      <g>
       <use style="fill:#262626;stroke:#262626;stroke-width:0.8;" x="121.127460937" xlink:href="#m9ceacb34a3" y="319.34"/>
      </g>
     </g>
     <g id="text_2">
      <!-- 0.2 -->
      <defs>
       <path d="
M5.03125 0
L5.03125 6.20312
Q7.51562 11.9219 11.1094 16.2812
Q14.7031 20.6562 18.6562 24.1875
Q22.6094 27.7344 26.4844 30.7656
Q30.375 33.7969 33.5 36.8125
Q36.625 39.8438 38.5469 43.1562
Q40.4844 46.4844 40.4844 50.6875
Q40.4844 53.6094 39.5938 55.8281
Q38.7188 58.0625 37.0625 59.5625
Q35.4062 61.0781 33.0781 61.8281
Q30.7656 62.5938 27.9375 62.5938
Q25.2969 62.5938 22.9688 61.8594
Q20.6562 61.1406 18.8438 59.6719
Q17.0469 58.2031 15.8906 56.0312
Q14.75 53.8594 14.4062 50.9844
L5.42188 51.8125
Q5.85938 55.5156 7.46875 58.7812
Q9.07812 62.0625 11.9062 64.5312
Q14.75 67 18.7188 68.4062
Q22.7031 69.8281 27.9375 69.8281
Q33.0625 69.8281 37.0625 68.6094
Q41.0625 67.3906 43.8125 64.9844
Q46.5781 62.5938 48.0469 59.0781
Q49.5156 55.5625 49.5156 50.9844
Q49.5156 47.5156 48.2656 44.3906
Q47.0156 41.2656 44.9375 38.4219
Q42.875 35.5938 40.1406 32.9531
Q37.4062 30.3281 34.4219 27.8125
Q31.4531 25.2969 28.4219 22.8281
Q25.3906 20.3594 22.7188 17.8594
Q20.0625 15.375 17.9688 12.8125
Q15.875 10.25 14.7031 7.46875
L50.5938 7.46875
L50.5938 0
z
" id="LiberationSans-32"/>
      </defs>
      <g style="fill:#262626;" transform="translate(115.924335937 330.7375)scale(0.08 -0.08)">
       <use xlink:href="#LiberationSans-30"/>
       <use x="55.615234375" xlink:href="#LiberationSans-2e"/>
       <use x="83.3984375" xlink:href="#LiberationSans-32"/>
      </g>
     </g>
    </g>
    <g id="xtick_3">
     <g id="line2d_3">
      <g>
       <use style="fill:#262626;stroke:#262626;stroke-width:0.8;" x="170.206809896" xlink:href="#m9ceacb34a3" y="319.34"/>
      </g>
     </g>
     <g id="text_3">
      <!-- 0.4 -->
      <defs>
       <path d="
M43.0156 15.5781
L43.0156 0
L34.7188 0
L34.7188 15.5781
L2.29688 15.5781
L2.29688 22.4062
L33.7969 68.7969
L43.0156 68.7969
L43.0156 22.5156
L52.6875 22.5156
L52.6875 15.5781
z

M34.7188 58.8906
Q34.625 58.6406 34.2344 57.9375
Q33.8438 57.2344 33.3438 56.3438
Q32.8594 55.4688 32.3438 54.5625
Q31.8438 53.6562 31.4531 53.0781
L13.8125 27.0938
Q13.5781 26.7031 13.1094 26.0625
Q12.6406 25.4375 12.1562 24.7812
Q11.6719 24.125 11.1719 23.4844
Q10.6875 22.8594 10.4062 22.5156
L34.7188 22.5156
z
" id="LiberationSans-34"/>
      </defs>
      <g style="fill:#262626;" transform="translate(164.919934896 330.7375)scale(0.08 -0.08)">
       <use xlink:href="#LiberationSans-30"/>
       <use x="55.615234375" xlink:href="#LiberationSans-2e"/>
       <use x="83.3984375" xlink:href="#LiberationSans-34"/>
      </g>
     </g>
    </g>
    <g id="xtick_4">
     <g id="line2d_4">
      <g>
       <use style="fill:#262626;stroke:#262626;stroke-width:0.8;" x="219.286158854" xlink:href="#m9ceacb34a3" y="319.34"/>
      </g>
     </g>
     <g id="text_4">
      <!-- 0.6 -->
      <defs>
       <path d="
M51.2188 22.5156
Q51.2188 17.3281 49.7812 13
Q48.3438 8.6875 45.5312 5.57812
Q42.7188 2.48438 38.5625 0.75
Q34.4219 -0.984375 29 -0.984375
Q23 -0.984375 18.5 1.3125
Q14.0156 3.60938 11.0312 7.92188
Q8.0625 12.25 6.5625 18.5312
Q5.07812 24.8125 5.07812 32.8125
Q5.07812 42 6.76562 48.9219
Q8.45312 55.8594 11.625 60.5
Q14.7969 65.1406 19.3594 67.4844
Q23.9219 69.8281 29.6875 69.8281
Q33.2031 69.8281 36.2812 69.0938
Q39.3594 68.3594 41.875 66.7188
Q44.3906 65.0938 46.2812 62.4062
Q48.1875 59.7188 49.3125 55.8125
L40.9219 54.2969
Q39.5469 58.7344 36.5469 60.7188
Q33.5469 62.7031 29.5938 62.7031
Q25.9844 62.7031 23.0469 60.9844
Q20.125 59.2812 18.0625 55.875
Q16.0156 52.4844 14.9062 47.3594
Q13.8125 42.2344 13.8125 35.4062
Q16.2188 39.8438 20.5625 42.1562
Q24.9062 44.4844 30.5156 44.4844
Q35.2031 44.4844 39.0156 42.9688
Q42.8281 41.4531 45.5312 38.5938
Q48.25 35.75 49.7344 31.6719
Q51.2188 27.5938 51.2188 22.5156
M42.2812 22.125
Q42.2812 25.6875 41.4062 28.5625
Q40.5312 31.4531 38.7656 33.4688
Q37.0156 35.5 34.4219 36.5938
Q31.8438 37.7031 28.4219 37.7031
Q26.0312 37.7031 23.5781 36.9844
Q21.1406 36.2812 19.1562 34.6875
Q17.1875 33.1094 15.9375 30.5156
Q14.7031 27.9375 14.7031 24.2188
Q14.7031 20.4062 15.6719 17.1094
Q16.6562 13.8125 18.4844 11.375
Q20.3125 8.9375 22.8906 7.51562
Q25.4844 6.10938 28.7188 6.10938
Q31.8906 6.10938 34.4062 7.20312
Q36.9219 8.29688 38.6719 10.375
Q40.4375 12.4531 41.3594 15.4219
Q42.2812 18.4062 42.2812 22.125" id="LiberationSans-36"/>
      </defs>
      <g style="fill:#262626;" transform="translate(214.058033854 330.7375)scale(0.08 -0.08)">
       <use xlink:href="#LiberationSans-30"/>
       <use x="55.615234375" xlink:href="#LiberationSans-2e"/>
       <use x="83.3984375" xlink:href="#LiberationSans-36"/>
      </g>
     </g>
    </g>
    <g id="xtick_5">
     <g id="line2d_5">
      <g>
       <use style="fill:#262626;stroke:#262626;stroke-width:0.8;" x="268.365507812" xlink:href="#m9ceacb34a3" y="319.34"/>
      </g>
     </g>
     <g id="text_5">
      <!-- 0.8 -->
      <defs>
       <path d="
M51.2656 19.1875
Q51.2656 14.7969 49.875 11.1094
Q48.4844 7.42188 45.625 4.73438
Q42.7812 2.04688 38.3281 0.53125
Q33.8906 -0.984375 27.8281 -0.984375
Q21.7812 -0.984375 17.3594 0.53125
Q12.9375 2.04688 10.0312 4.70312
Q7.125 7.375 5.73438 11.0625
Q4.34375 14.75 4.34375 19.0938
Q4.34375 22.8594 5.48438 25.7812
Q6.64062 28.7188 8.5625 30.8281
Q10.5 32.9531 12.9688 34.25
Q15.4375 35.5469 18.0625 35.9844
L18.0625 36.1875
Q15.1875 36.8594 12.9062 38.375
Q10.6406 39.8906 9.09375 42.0156
Q7.5625 44.1406 6.75 46.7188
Q5.95312 49.3125 5.95312 52.2031
Q5.95312 55.8125 7.34375 59
Q8.73438 62.2031 11.4688 64.625
Q14.2031 67.0469 18.25 68.4375
Q22.3125 69.8281 27.6406 69.8281
Q33.25 69.8281 37.375 68.4062
Q41.5 67 44.2031 64.5781
Q46.9219 62.1562 48.2344 58.9375
Q49.5625 55.7188 49.5625 52.0938
Q49.5625 49.2656 48.75 46.6719
Q47.9531 44.0938 46.4062 41.9688
Q44.875 39.8438 42.5938 38.3438
Q40.3281 36.8594 37.3594 36.2812
L37.3594 36.0781
Q40.3281 35.5938 42.8594 34.2969
Q45.4062 33.0156 47.2656 30.8906
Q49.125 28.7656 50.1875 25.8281
Q51.2656 22.9062 51.2656 19.1875
M40.4375 51.6094
Q40.4375 54.2031 39.7656 56.3438
Q39.1094 58.5 37.5938 60.0312
Q36.0781 61.5781 33.6406 62.4219
Q31.2031 63.2812 27.6406 63.2812
Q24.1719 63.2812 21.7812 62.4219
Q19.3906 61.5781 17.8438 60.0312
Q16.3125 58.5 15.625 56.3438
Q14.9375 54.2031 14.9375 51.6094
Q14.9375 49.5625 15.4688 47.4062
Q16.0156 45.2656 17.4219 43.5
Q18.8438 41.75 21.3281 40.625
Q23.8281 39.5 27.7344 39.5
Q31.8906 39.5 34.4062 40.625
Q36.9219 41.75 38.25 43.5
Q39.5938 45.2656 40.0156 47.4062
Q40.4375 49.5625 40.4375 51.6094
M42.1406 20.0156
Q42.1406 22.5156 41.4531 24.8281
Q40.7656 27.1562 39.1094 28.9375
Q37.4531 30.7188 34.6406 31.8125
Q31.8438 32.9062 27.6406 32.9062
Q23.7812 32.9062 21.0625 31.8125
Q18.3594 30.7188 16.6719 28.9062
Q14.9844 27.0938 14.2031 24.7188
Q13.4219 22.3594 13.4219 19.8281
Q13.4219 16.6562 14.2031 14.0312
Q14.9844 11.4219 16.6875 9.54688
Q18.4062 7.67188 21.1875 6.64062
Q23.9688 5.60938 27.9375 5.60938
Q31.9375 5.60938 34.6719 6.64062
Q37.4062 7.67188 39.0625 9.54688
Q40.7188 11.4219 41.4219 14.0781
Q42.1406 16.75 42.1406 20.0156" id="LiberationSans-38"/>
      </defs>
      <g style="fill:#262626;" transform="translate(263.135507812 330.7375)scale(0.08 -0.08)">
       <use xlink:href="#LiberationSans-30"/>
       <use x="55.615234375" xlink:href="#LiberationSans-2e"/>
       <use x="83.3984375" xlink:href="#LiberationSans-38"/>
      </g>
     </g>
    </g>
    <g id="xtick_6">
     <g id="line2d_6">
      <g>
       <use style="fill:#262626;stroke:#262626;stroke-width:0.8;" x="317.444856771" xlink:href="#m9ceacb34a3" y="319.34"/>
      </g>
     </g>
     <g id="text_6">
      <!-- 1.0 -->
      <defs>
       <path d="
M7.625 0
L7.625 7.46875
L25.1406 7.46875
L25.1406 60.4062
L9.625 49.3125
L9.625 57.625
L25.875 68.7969
L33.9844 68.7969
L33.9844 7.46875
L50.7344 7.46875
L50.7344 0
z
" id="LiberationSans-31"/>
      </defs>
      <g style="fill:#262626;" transform="translate(312.346106771 330.7375)scale(0.08 -0.08)">
       <use xlink:href="#LiberationSans-31"/>
       <use x="55.615234375" xlink:href="#LiberationSans-2e"/>
       <use x="83.3984375" xlink:href="#LiberationSans-30"/>
      </g>
     </g>
    </g>
    <g id="text_7">
     <!-- human accuracy -->
     <defs>
      <path d="
M6.9375 0
L6.9375 40.5312
Q6.9375 42.1875 6.90625 43.9219
Q6.89062 45.6562 6.82812 47.2656
Q6.78125 48.875 6.73438 50.2812
Q6.6875 51.7031 6.64062 52.8281
L14.9375 52.8281
Q14.9844 51.7031 15.0625 50.2656
Q15.1406 48.8281 15.2031 47.3125
Q15.2812 45.7969 15.2969 44.4062
Q15.3281 43.0156 15.3281 42.0469
L15.5312 42.0469
Q16.4531 45.0625 17.5 47.2812
Q18.5625 49.5156 19.9688 50.9531
Q21.3906 52.3906 23.3438 53.0938
Q25.2969 53.8125 28.0781 53.8125
Q29.1562 53.8125 30.125 53.6406
Q31.1094 53.4688 31.6406 53.3281
L31.6406 45.2656
Q30.7656 45.5156 29.5938 45.625
Q28.4219 45.75 26.9531 45.75
Q23.9219 45.75 21.7969 44.375
Q19.6719 43.0156 18.3281 40.5938
Q17 38.1875 16.3594 34.8438
Q15.7188 31.5 15.7188 27.5469
L15.7188 0
z
" id="LiberationSans-72"/>
      <path d="
M20.2188 -0.984375
Q12.25 -0.984375 8.25 3.21875
Q4.25 7.42188 4.25 14.75
Q4.25 19.9688 6.21875 23.3125
Q8.20312 26.6562 11.3906 28.5625
Q14.5938 30.4688 18.6875 31.2031
Q22.7969 31.9375 27.0469 32.0312
L38.9219 32.2344
L38.9219 35.1094
Q38.9219 38.375 38.2344 40.6719
Q37.5469 42.9688 36.125 44.375
Q34.7188 45.7969 32.5938 46.4531
Q30.4688 47.125 27.5938 47.125
Q25.0469 47.125 23 46.75
Q20.9531 46.3906 19.4375 45.4375
Q17.9219 44.4844 16.9844 42.8438
Q16.0625 41.2188 15.7656 38.7188
L6.59375 39.5469
Q7.07812 42.6719 8.4375 45.2812
Q9.8125 47.9062 12.3281 49.7969
Q14.8438 51.7031 18.625 52.75
Q22.4062 53.8125 27.7812 53.8125
Q37.75 53.8125 42.7656 49.2344
Q47.7969 44.6719 47.7969 36.0312
L47.7969 13.2812
Q47.7969 9.375 48.8281 7.39062
Q49.8594 5.42188 52.7344 5.42188
Q53.4688 5.42188 54.2031 5.51562
Q54.9375 5.60938 55.6094 5.76562
L55.6094 0.296875
Q53.9531 -0.09375 52.3125 -0.28125
Q50.6875 -0.484375 48.8281 -0.484375
Q46.3438 -0.484375 44.5625 0.171875
Q42.7812 0.828125 41.6562 2.17188
Q40.5312 3.51562 39.9375 5.48438
Q39.3594 7.46875 39.2031 10.1094
L38.9219 10.1094
Q37.5 7.5625 35.8125 5.51562
Q34.125 3.46875 31.875 2.03125
Q29.6406 0.59375 26.7812 -0.1875
Q23.9219 -0.984375 20.2188 -0.984375
M22.2188 5.60938
Q26.4219 5.60938 29.5625 7.14062
Q32.7188 8.6875 34.7812 11.0781
Q36.8594 13.4844 37.8906 16.3125
Q38.9219 19.1406 38.9219 21.7344
L38.9219 26.0781
L29.2969 25.875
Q26.0781 25.8281 23.1719 25.4062
Q20.2656 25 18.0625 23.7812
Q15.875 22.5625 14.5781 20.3594
Q13.2812 18.1719 13.2812 14.5938
Q13.2812 10.2969 15.5938 7.95312
Q17.9219 5.60938 22.2188 5.60938" id="LiberationSans-61"/>
      <path d="
M15.3281 52.8281
L15.3281 19.3438
Q15.3281 15.4844 15.8906 12.8906
Q16.4531 10.2969 17.7188 8.70312
Q19 7.125 21.0625 6.46875
Q23.1406 5.8125 26.2188 5.8125
Q29.3438 5.8125 31.8594 6.90625
Q34.375 8.01562 36.1562 10.0781
Q37.9375 12.1562 38.9062 15.2031
Q39.8906 18.2656 39.8906 22.2188
L39.8906 52.8281
L48.6875 52.8281
L48.6875 11.2812
Q48.6875 9.625 48.7031 7.78125
Q48.7344 5.95312 48.7812 4.3125
Q48.8281 2.6875 48.875 1.51562
Q48.9219 0.34375 48.9688 0
L40.6719 0
Q40.625 0.25 40.5781 1.3125
Q40.5312 2.39062 40.4531 3.78125
Q40.375 5.17188 40.3281 6.60938
Q40.2812 8.0625 40.2812 9.03125
L40.1406 9.03125
Q38.875 6.73438 37.3594 4.875
Q35.8438 3.03125 33.8438 1.73438
Q31.8438 0.4375 29.25 -0.265625
Q26.6562 -0.984375 23.25 -0.984375
Q18.8438 -0.984375 15.6719 0.09375
Q12.5 1.17188 10.4531 3.42188
Q8.40625 5.67188 7.45312 9.1875
Q6.5 12.7031 6.5 17.625
L6.5 52.8281
z
" id="LiberationSans-75"/>
      <path d="
M13.4219 26.6562
Q13.4219 22.125 14.0781 18.3125
Q14.75 14.5 16.3125 11.7344
Q17.875 8.98438 20.4375 7.46875
Q23 5.95312 26.7656 5.95312
Q31.4531 5.95312 34.5938 8.48438
Q37.75 11.0312 38.4844 16.3125
L47.3594 15.7188
Q46.9219 12.4531 45.4531 9.42188
Q44 6.39062 41.4844 4.09375
Q38.9688 1.8125 35.3438 0.40625
Q31.7344 -0.984375 27 -0.984375
Q20.7969 -0.984375 16.4531 1.10938
Q12.1094 3.21875 9.39062 6.90625
Q6.6875 10.5938 5.46875 15.5938
Q4.25 20.6094 4.25 26.4688
Q4.25 31.7812 5.125 35.8594
Q6 39.9375 7.59375 42.9844
Q9.1875 46.0469 11.3281 48.125
Q13.4844 50.2031 15.9844 51.4375
Q18.5 52.6875 21.2812 53.25
Q24.0781 53.8125 26.9062 53.8125
Q31.3438 53.8125 34.8125 52.5938
Q38.2812 51.375 40.7969 49.25
Q43.3125 47.125 44.875 44.2344
Q46.4375 41.3594 47.0781 38.0312
L38.0312 37.3594
Q37.3594 41.75 34.5625 44.3281
Q31.7812 46.9219 26.6562 46.9219
Q22.9062 46.9219 20.3906 45.6719
Q17.875 44.4375 16.3125 41.9219
Q14.75 39.4062 14.0781 35.5938
Q13.4219 31.7812 13.4219 26.6562" id="LiberationSans-63"/>
      <path d="
M29.5 0
Q27.6406 -4.78125 25.7031 -8.60938
Q23.7812 -12.4531 21.3906 -15.1562
Q19 -17.875 16.0625 -19.3125
Q13.1406 -20.75 9.32812 -20.75
Q7.67188 -20.75 6.25 -20.6562
Q4.82812 -20.5625 3.26562 -20.2188
L3.26562 -13.625
Q4.20312 -13.7656 5.375 -13.8438
Q6.54688 -13.9219 7.375 -13.9219
Q11.2344 -13.9219 14.5469 -11.0312
Q17.875 -8.15625 20.3594 -1.85938
L21.1875 0.25
L0.25 52.8281
L9.625 52.8281
L20.75 23.6406
Q21.2344 22.3125 21.9844 20.1094
Q22.75 17.9219 23.5 15.7188
Q24.2656 13.5312 24.8438 11.7656
Q25.4375 10.0156 25.5312 9.57812
Q25.6875 10.1094 26.25 11.6875
Q26.8125 13.2812 27.5156 15.2344
Q28.2188 17.1875 28.9531 19.1875
Q29.6875 21.1875 30.1719 22.6562
L40.5312 52.8281
L49.8125 52.8281
z
" id="LiberationSans-79"/>
      <path d="
M15.4844 43.7969
Q16.9375 46.4844 18.6406 48.3594
Q20.3594 50.25 22.4062 51.4688
Q24.4688 52.6875 26.9062 53.25
Q29.3438 53.8125 32.375 53.8125
Q37.4531 53.8125 40.7031 52.4375
Q43.9531 51.0781 45.8281 48.6094
Q47.7031 46.1406 48.4062 42.7188
Q49.125 39.3125 49.125 35.2031
L49.125 0
L40.2812 0
L40.2812 33.5
Q40.2812 36.8594 39.8594 39.3906
Q39.4531 41.9375 38.2812 43.625
Q37.1094 45.3125 34.9531 46.1562
Q32.8125 47.0156 29.3906 47.0156
Q26.2656 47.0156 23.75 45.8906
Q21.2344 44.7812 19.4531 42.7188
Q17.6719 40.6719 16.6875 37.7344
Q15.7188 34.8125 15.7188 31.1562
L15.7188 0
L6.9375 0
L6.9375 72.4688
L15.7188 72.4688
L15.7188 53.6094
Q15.7188 52 15.6719 50.3906
Q15.625 48.7812 15.5469 47.4062
Q15.4844 46.0469 15.4219 45.0938
Q15.375 44.1406 15.3281 43.7969
z
" id="LiberationSans-68"/>
      <path d="
M37.5 0
L37.5 33.5
Q37.5 37.3594 37.0156 39.9375
Q36.5312 42.5312 35.375 44.1094
Q34.2344 45.7031 32.375 46.3594
Q30.5156 47.0156 27.8281 47.0156
Q25.0469 47.0156 22.7969 45.9219
Q20.5625 44.8281 18.9688 42.75
Q17.3906 40.6719 16.5312 37.625
Q15.6719 34.5781 15.6719 30.6094
L15.6719 0
L6.9375 0
L6.9375 41.5469
Q6.9375 43.2188 6.90625 45.0469
Q6.89062 46.875 6.82812 48.5
Q6.78125 50.1406 6.73438 51.3125
Q6.6875 52.4844 6.64062 52.8281
L14.9375 52.8281
Q14.9844 52.5938 15.0312 51.5156
Q15.0938 50.4375 15.1562 49.0469
Q15.2344 47.6562 15.2812 46.2188
Q15.3281 44.7812 15.3281 43.7969
L15.4844 43.7969
Q16.6562 46.0938 18.0156 47.9531
Q19.3906 49.8125 21.2188 51.0938
Q23.0469 52.3906 25.4062 53.0938
Q27.7812 53.8125 30.9062 53.8125
Q36.9219 53.8125 40.4062 51.4219
Q43.8906 49.0312 45.2656 43.7969
L45.4062 43.7969
Q46.5781 46.0938 48.0469 47.9531
Q49.5156 49.8125 51.4688 51.0938
Q53.4219 52.3906 55.8594 53.0938
Q58.2969 53.8125 61.4219 53.8125
Q65.4375 53.8125 68.3281 52.7344
Q71.2344 51.6562 73.0938 49.4062
Q74.9531 47.1719 75.8281 43.625
Q76.7031 40.0938 76.7031 35.2031
L76.7031 0
L68.0156 0
L68.0156 33.5
Q68.0156 37.3594 67.5312 39.9375
Q67.0469 42.5312 65.8906 44.1094
Q64.75 45.7031 62.8906 46.3594
Q61.0312 47.0156 58.3438 47.0156
Q55.5625 47.0156 53.3125 45.9688
Q51.0781 44.9219 49.4844 42.875
Q47.9062 40.8281 47.0469 37.75
Q46.1875 34.6719 46.1875 30.6094
L46.1875 0
z
" id="LiberationSans-6d"/>
      <path d="
M40.2812 0
L40.2812 33.5
Q40.2812 37.3594 39.7188 39.9375
Q39.1562 42.5312 37.8906 44.1094
Q36.625 45.7031 34.5469 46.3594
Q32.4688 47.0156 29.3906 47.0156
Q26.2656 47.0156 23.75 45.9219
Q21.2344 44.8281 19.4531 42.75
Q17.6719 40.6719 16.6875 37.625
Q15.7188 34.5781 15.7188 30.6094
L15.7188 0
L6.9375 0
L6.9375 41.5469
Q6.9375 43.2188 6.90625 45.0469
Q6.89062 46.875 6.82812 48.5
Q6.78125 50.1406 6.73438 51.3125
Q6.6875 52.4844 6.64062 52.8281
L14.9375 52.8281
Q14.9844 52.5938 15.0312 51.5156
Q15.0938 50.4375 15.1562 49.0469
Q15.2344 47.6562 15.2812 46.2188
Q15.3281 44.7812 15.3281 43.7969
L15.4844 43.7969
Q16.75 46.0938 18.2656 47.9531
Q19.7812 49.8125 21.7812 51.0938
Q23.7812 52.3906 26.3594 53.0938
Q28.9531 53.8125 32.375 53.8125
Q36.7656 53.8125 39.9375 52.7344
Q43.1094 51.6562 45.1562 49.4062
Q47.2188 47.1719 48.1719 43.625
Q49.125 40.0938 49.125 35.2031
L49.125 0
z
" id="LiberationSans-6e"/>
      <path id="LiberationSans-20"/>
     </defs>
     <g style="fill:#262626;" transform="translate(162.474546875 343.77475)scale(0.088 -0.088)">
      <use xlink:href="#LiberationSans-68"/>
      <use x="55.615234375" xlink:href="#LiberationSans-75"/>
      <use x="111.23046875" xlink:href="#LiberationSans-6d"/>
      <use x="194.53125" xlink:href="#LiberationSans-61"/>
      <use x="250.146484375" xlink:href="#LiberationSans-6e"/>
      <use x="305.76171875" xlink:href="#LiberationSans-20"/>
      <use x="333.544921875" xlink:href="#LiberationSans-61"/>
      <use x="389.16015625" xlink:href="#LiberationSans-63"/>
      <use x="439.16015625" xlink:href="#LiberationSans-63"/>
      <use x="489.16015625" xlink:href="#LiberationSans-75"/>
      <use x="544.775390625" xlink:href="#LiberationSans-72"/>
      <use x="578.076171875" xlink:href="#LiberationSans-61"/>
      <use x="633.69140625" xlink:href="#LiberationSans-63"/>
      <use x="683.69140625" xlink:href="#LiberationSans-79"/>
     </g>
    </g>
   </g>
   <g id="matplotlib.axis_2">
    <g id="ytick_1">
     <g id="line2d_7">
      <g>
       <use style="fill:#262626;stroke:#262626;stroke-width:0.8;" x="47.5084375" xlink:href="#m9ceacb34a3" y="294.145833333"/>
      </g>
     </g>
     <g id="text_8">
      <!-- 0.0 -->
      <g style="fill:#262626;" transform="translate(31.4134375 296.214583333)scale(0.08 -0.08)">
       <use xlink:href="#LiberationSans-30"/>
       <use x="55.615234375" xlink:href="#LiberationSans-2e"/>
       <use x="83.3984375" xlink:href="#LiberationSans-30"/>
      </g>
     </g>
    </g>
    <g id="ytick_2">
     <g id="line2d_8">
      <g>
       <use style="fill:#262626;stroke:#262626;stroke-width:0.8;" x="47.5084375" xlink:href="#m9ceacb34a3" y="243.7575"/>
      </g>
     </g>
     <g id="text_9">
      <!-- 0.2 -->
      <g style="fill:#262626;" transform="translate(31.5021875 245.82625)scale(0.08 -0.08)">
       <use xlink:href="#LiberationSans-30"/>
       <use x="55.615234375" xlink:href="#LiberationSans-2e"/>
       <use x="83.3984375" xlink:href="#LiberationSans-32"/>
      </g>
     </g>
    </g>
    <g id="ytick_3">
     <g id="line2d_9">
      <g>
       <use style="fill:#262626;stroke:#262626;stroke-width:0.8;" x="47.5084375" xlink:href="#m9ceacb34a3" y="193.369166667"/>
      </g>
     </g>
     <g id="text_10">
      <!-- 0.4 -->
      <g style="fill:#262626;" transform="translate(31.3346875 195.437916667)scale(0.08 -0.08)">
       <use xlink:href="#LiberationSans-30"/>
       <use x="55.615234375" xlink:href="#LiberationSans-2e"/>
       <use x="83.3984375" xlink:href="#LiberationSans-34"/>
      </g>
     </g>
    </g>
    <g id="ytick_4">
     <g id="line2d_10">
      <g>
       <use style="fill:#262626;stroke:#262626;stroke-width:0.8;" x="47.5084375" xlink:href="#m9ceacb34a3" y="142.980833333"/>
      </g>
     </g>
     <g id="text_11">
      <!-- 0.6 -->
      <g style="fill:#262626;" transform="translate(31.4521875 145.049583333)scale(0.08 -0.08)">
       <use xlink:href="#LiberationSans-30"/>
       <use x="55.615234375" xlink:href="#LiberationSans-2e"/>
       <use x="83.3984375" xlink:href="#LiberationSans-36"/>
      </g>
     </g>
    </g>
    <g id="ytick_5">
     <g id="line2d_11">
      <g>
       <use style="fill:#262626;stroke:#262626;stroke-width:0.8;" x="47.5084375" xlink:href="#m9ceacb34a3" y="92.5925"/>
      </g>
     </g>
     <g id="text_12">
      <!-- 0.8 -->
      <g style="fill:#262626;" transform="translate(31.4484375 94.66125)scale(0.08 -0.08)">
       <use xlink:href="#LiberationSans-30"/>
       <use x="55.615234375" xlink:href="#LiberationSans-2e"/>
       <use x="83.3984375" xlink:href="#LiberationSans-38"/>
      </g>
     </g>
    </g>
    <g id="ytick_6">
     <g id="line2d_12">
      <g>
       <use style="fill:#262626;stroke:#262626;stroke-width:0.8;" x="47.5084375" xlink:href="#m9ceacb34a3" y="42.2041666667"/>
      </g>
     </g>
     <g id="text_13">
      <!-- 1.0 -->
      <g style="fill:#262626;" transform="translate(31.7109375 44.2729166667)scale(0.08 -0.08)">
       <use xlink:href="#LiberationSans-31"/>
       <use x="55.615234375" xlink:href="#LiberationSans-2e"/>
       <use x="83.3984375" xlink:href="#LiberationSans-30"/>
      </g>
     </g>
    </g>
    <g id="text_14">
     <!-- accuracy -->
     <g style="fill:#262626;" transform="translate(24.5086875 185.58525)rotate(-90.0)scale(0.088 -0.088)">
      <use xlink:href="#LiberationSans-61"/>
      <use x="55.615234375" xlink:href="#LiberationSans-63"/>
      <use x="105.615234375" xlink:href="#LiberationSans-63"/>
      <use x="155.615234375" xlink:href="#LiberationSans-75"/>
      <use x="211.23046875" xlink:href="#LiberationSans-72"/>
      <use x="244.53125" xlink:href="#LiberationSans-61"/>
      <use x="300.146484375" xlink:href="#LiberationSans-63"/>
      <use x="350.146484375" xlink:href="#LiberationSans-79"/>
     </g>
    </g>
   </g>
   <g id="PathCollection_1">
    <defs>
     <path d="
M0 2.23607
C0.593012 2.23607 1.16182 2.00046 1.58114 1.58114
C2.00046 1.16182 2.23607 0.593012 2.23607 0
C2.23607 -0.593012 2.00046 -1.16182 1.58114 -1.58114
C1.16182 -2.00046 0.593012 -2.23607 0 -2.23607
C-0.593012 -2.23607 -1.16182 -2.00046 -1.58114 -1.58114
C-2.00046 -1.16182 -2.23607 -0.593012 -2.23607 0
C-2.23607 0.593012 -2.00046 1.16182 -1.58114 1.58114
C-1.16182 2.00046 -0.593012 2.23607 0 2.23607
z
" id="m7062e01d87"/>
    </defs>
    <g clip-path="url(#p9aa6d294ba)">
     <use style="fill:#fa8e63;fill-opacity:0.8;" x="72.0481119792" xlink:href="#m7062e01d87" y="283.577318449"/>
     <use style="fill:#fa8e63;fill-opacity:0.8;" x="286.426708229" xlink:href="#m7062e01d87" y="36.8065356589"/>
     <use style="fill:#fa8e63;fill-opacity:0.8;" x="86.1584248047" xlink:href="#m7062e01d87" y="281.577798709"/>
     <use style="fill:#fa8e63;fill-opacity:0.8;" x="311.800731641" xlink:href="#m7062e01d87" y="51.0360245044"/>
     <use style="fill:#fa8e63;fill-opacity:0.8;" x="83.7289970312" xlink:href="#m7062e01d87" y="284.87120409"/>
     <use style="fill:#fa8e63;fill-opacity:0.8;" x="258.206082578" xlink:href="#m7062e01d87" y="302.649042588"/>
     <use style="fill:#fa8e63;fill-opacity:0.8;" x="156.660909583" xlink:href="#m7062e01d87" y="291.234406411"/>
     <use style="fill:#fa8e63;fill-opacity:0.8;" x="165.544271745" xlink:href="#m7062e01d87" y="51.6817087154"/>
     <use style="fill:#fa8e63;fill-opacity:0.8;" x="314.524635508" xlink:href="#m7062e01d87" y="285.378056002"/>
     <use style="fill:#fa8e63;fill-opacity:0.8;" x="124.636634388" xlink:href="#m7062e01d87" y="286.403188267"/>
     <use style="fill:#fa8e63;fill-opacity:0.8;" x="302.843750456" xlink:href="#m7062e01d87" y="40.4632311412"/>
     <use style="fill:#fa8e63;fill-opacity:0.8;" x="136.931011302" xlink:href="#m7062e01d87" y="44.5426061458"/>
     <use style="fill:#fa8e63;fill-opacity:0.8;" x="91.8025499349" xlink:href="#m7062e01d87" y="305.000311855"/>
     <use style="fill:#fa8e63;fill-opacity:0.8;" x="72.0481119792" xlink:href="#m7062e01d87" y="37.2301132513"/>
     <use style="fill:#fa8e63;fill-opacity:0.8;" x="131.286886172" xlink:href="#m7062e01d87" y="295.316286729"/>
     <use style="fill:#fa8e63;fill-opacity:0.8;" x="314.524635508" xlink:href="#m7062e01d87" y="288.551327551"/>
     <use style="fill:#fa8e63;fill-opacity:0.8;" x="270.696776888" xlink:href="#m7062e01d87" y="284.91513595"/>
     <use style="fill:#fa8e63;fill-opacity:0.8;" x="289.248770794" xlink:href="#m7062e01d87" y="282.165465283"/>
     <use style="fill:#fa8e63;fill-opacity:0.8;" x="289.248770794" xlink:href="#m7062e01d87" y="33.2399979579"/>
     <use style="fill:#fa8e63;fill-opacity:0.8;" x="266.672270273" xlink:href="#m7062e01d87" y="54.5061234107"/>
     <use style="fill:#fa8e63;fill-opacity:0.8;" x="311.800731641" xlink:href="#m7062e01d87" y="297.673569314"/>
     <use style="fill:#fa8e63;fill-opacity:0.8;" x="198.967308385" xlink:href="#m7062e01d87" y="288.351412772"/>
     <use style="fill:#fa8e63;fill-opacity:0.8;" x="314.622794206" xlink:href="#m7062e01d87" y="302.418849973"/>
     <use style="fill:#fa8e63;fill-opacity:0.8;" x="282.37766194" xlink:href="#m7062e01d87" y="293.615833571"/>
     <use style="fill:#fa8e63;fill-opacity:0.8;" x="131.286886172" xlink:href="#m7062e01d87" y="305.373916332"/>
     <use style="fill:#fa8e63;fill-opacity:0.8;" x="300.51248138" xlink:href="#m7062e01d87" y="301.704170886"/>
     <use style="fill:#fa8e63;fill-opacity:0.8;" x="168.464493008" xlink:href="#m7062e01d87" y="306.27627549"/>
     <use style="fill:#fa8e63;fill-opacity:0.8;" x="72.0481119792" xlink:href="#m7062e01d87" y="286.746364445"/>
     <use style="fill:#fa8e63;fill-opacity:0.8;" x="311.604414245" xlink:href="#m7062e01d87" y="301.101320755"/>
     <use style="fill:#fa8e63;fill-opacity:0.8;" x="311.800731641" xlink:href="#m7062e01d87" y="298.042068865"/>
     <use style="fill:#fa8e63;fill-opacity:0.8;" x="317.444856771" xlink:href="#m7062e01d87" y="283.360681879"/>
     <use style="fill:#fa8e63;fill-opacity:0.8;" x="249.739894883" xlink:href="#m7062e01d87" y="37.0541161555"/>
     <use style="fill:#fa8e63;fill-opacity:0.8;" x="72.0481119792" xlink:href="#m7062e01d87" y="53.9990947029"/>
     <use style="fill:#fa8e63;fill-opacity:0.8;" x="130.477076914" xlink:href="#m7062e01d87" y="302.593584639"/>
     <use style="fill:#fa8e63;fill-opacity:0.8;" x="297.690418815" xlink:href="#m7062e01d87" y="39.1436195729"/>
     <use style="fill:#fa8e63;fill-opacity:0.8;" x="306.15660651" xlink:href="#m7062e01d87" y="40.2584567339"/>
     <use style="fill:#fa8e63;fill-opacity:0.8;" x="300.51248138" xlink:href="#m7062e01d87" y="300.749405276"/>
     <use style="fill:#fa8e63;fill-opacity:0.8;" x="314.524635508" xlink:href="#m7062e01d87" y="31.2645068339"/>
     <use style="fill:#fa8e63;fill-opacity:0.8;" x="314.622794206" xlink:href="#m7062e01d87" y="39.3328893777"/>
     <use style="fill:#fa8e63;fill-opacity:0.8;" x="314.622794206" xlink:href="#m7062e01d87" y="41.3064278885"/>
     <use style="fill:#fa8e63;fill-opacity:0.8;" x="252.561957448" xlink:href="#m7062e01d87" y="39.9389597374"/>
     <use style="fill:#fa8e63;fill-opacity:0.8;" x="74.9683332422" xlink:href="#m7062e01d87" y="288.348100568"/>
     <use style="fill:#fa8e63;fill-opacity:0.8;" x="311.800731641" xlink:href="#m7062e01d87" y="298.88372246"/>
     <use style="fill:#fa8e63;fill-opacity:0.8;" x="74.9683332422" xlink:href="#m7062e01d87" y="44.7684021884"/>
     <use style="fill:#fa8e63;fill-opacity:0.8;" x="98.3301033464" xlink:href="#m7062e01d87" y="301.456078281"/>
     <use style="fill:#fa8e63;fill-opacity:0.8;" x="261.028145143" xlink:href="#m7062e01d87" y="50.1102723777"/>
     <use style="fill:#fa8e63;fill-opacity:0.8;" x="317.444856771" xlink:href="#m7062e01d87" y="31.0085746113"/>
     <use style="fill:#fa8e63;fill-opacity:0.8;" x="92.4896608203" xlink:href="#m7062e01d87" y="36.1688840111"/>
     <use style="fill:#fa8e63;fill-opacity:0.8;" x="311.800731641" xlink:href="#m7062e01d87" y="42.4445490326"/>
     <use style="fill:#fa8e63;fill-opacity:0.8;" x="311.604414245" xlink:href="#m7062e01d87" y="301.013394627"/>
     <use style="fill:#fa8e63;fill-opacity:0.8;" x="72.0481119792" xlink:href="#m7062e01d87" y="300.334617072"/>
     <use style="fill:#fa8e63;fill-opacity:0.8;" x="196.14524582" xlink:href="#m7062e01d87" y="305.28092033"/>
     <use style="fill:#fa8e63;fill-opacity:0.8;" x="130.477076914" xlink:href="#m7062e01d87" y="295.7981518"/>
     <use style="fill:#fa8e63;fill-opacity:0.8;" x="91.8025499349" xlink:href="#m7062e01d87" y="298.88747925"/>
     <use style="fill:#fa8e63;fill-opacity:0.8;" x="103.066260521" xlink:href="#m7062e01d87" y="37.2574560855"/>
     <use style="fill:#fa8e63;fill-opacity:0.8;" x="317.444856771" xlink:href="#m7062e01d87" y="297.225773869"/>
     <use style="fill:#fa8e63;fill-opacity:0.8;" x="317.444856771" xlink:href="#m7062e01d87" y="302.21795168"/>
     <use style="fill:#fa8e63;fill-opacity:0.8;" x="317.444856771" xlink:href="#m7062e01d87" y="54.1794900038"/>
     <use style="fill:#fa8e63;fill-opacity:0.8;" x="275.138457969" xlink:href="#m7062e01d87" y="305.048618243"/>
     <use style="fill:#fa8e63;fill-opacity:0.8;" x="112.955749336" xlink:href="#m7062e01d87" y="37.6845152323"/>
     <use style="fill:#fa8e63;fill-opacity:0.8;" x="77.6922371094" xlink:href="#m7062e01d87" y="295.312402749"/>
    </g>
   </g>
   <g id="PolyCollection_1">
    <defs>
     <path d="
M72.0481 -198.849
L72.0481 -95.9385
L74.5269 -96.4377
L77.0056 -96.9441
L79.4844 -97.4576
L81.9631 -98.0172
L84.4419 -98.6815
L86.9206 -99.2561
L89.3994 -99.6611
L91.8782 -100.118
L94.3569 -100.669
L96.8357 -101.231
L99.3144 -101.803
L101.793 -102.429
L104.272 -103.115
L106.751 -103.812
L109.229 -104.52
L111.708 -105.242
L114.187 -105.979
L116.666 -106.726
L119.144 -107.478
L121.623 -108.209
L124.102 -108.825
L126.581 -109.378
L129.059 -109.991
L131.538 -110.452
L134.017 -110.916
L136.496 -111.394
L138.974 -112.009
L141.453 -112.9
L143.932 -113.803
L146.411 -114.664
L148.89 -115.351
L151.368 -116.045
L153.847 -116.751
L156.326 -117.78
L158.805 -118.402
L161.283 -118.944
L163.762 -119.782
L166.241 -120.364
L168.72 -121.043
L171.198 -121.778
L173.677 -122.528
L176.156 -123.231
L178.635 -123.936
L181.113 -124.66
L183.592 -125.681
L186.071 -126.514
L188.55 -126.877
L191.028 -127.57
L193.507 -127.734
L195.986 -128.661
L198.465 -129.203
L200.943 -129.272
L203.422 -129.769
L205.901 -130.112
L208.38 -130.59
L210.858 -131.038
L213.337 -131.147
L215.816 -131.191
L218.295 -131.425
L220.773 -131.782
L223.252 -131.877
L225.731 -132.105
L228.21 -132.321
L230.688 -132.419
L233.167 -132.844
L235.646 -133.381
L238.125 -134.095
L240.603 -134.725
L243.082 -134.876
L245.561 -134.882
L248.04 -135.401
L250.518 -135.195
L252.997 -135.352
L255.476 -135.003
L257.955 -135.87
L260.433 -135.845
L262.912 -136.516
L265.391 -136.523
L267.87 -136.383
L270.349 -136.38
L272.827 -136.565
L275.306 -136.415
L277.785 -136.643
L280.264 -136.876
L282.742 -136.83
L285.221 -136.734
L287.7 -136.683
L290.179 -136.728
L292.657 -136.423
L295.136 -136.308
L297.615 -136.197
L300.094 -136.024
L302.572 -135.801
L305.051 -135.57
L307.53 -135.186
L310.009 -134.92
L312.487 -134.524
L314.966 -134.133
L317.445 -134.09
L317.445 -227.671
L317.445 -227.671
L314.966 -226.545
L312.487 -224.955
L310.009 -224.134
L307.53 -223.297
L305.051 -222.494
L302.572 -221.679
L300.094 -220.691
L297.615 -219.395
L295.136 -218.807
L292.657 -218.151
L290.179 -216.519
L287.7 -215.778
L285.221 -215.008
L282.742 -214.08
L280.264 -213.134
L277.785 -212.4
L275.306 -211.457
L272.827 -210.654
L270.349 -210.208
L267.87 -209.234
L265.391 -208.177
L262.912 -208.011
L260.433 -207.271
L257.955 -206.539
L255.476 -205.743
L252.997 -204.668
L250.518 -203.546
L248.04 -202.806
L245.561 -202.082
L243.082 -201.321
L240.603 -200.743
L238.125 -200.185
L235.646 -199.425
L233.167 -198.878
L230.688 -198.362
L228.21 -197.921
L225.731 -197.583
L223.252 -197.189
L220.773 -196.777
L218.295 -196.424
L215.816 -196.032
L213.337 -195.64
L210.858 -195.247
L208.38 -194.595
L205.901 -194.34
L203.422 -193.842
L200.943 -193.34
L198.465 -192.663
L195.986 -192.109
L193.507 -191.84
L191.028 -191.341
L188.55 -191.439
L186.071 -191.349
L183.592 -190.955
L181.113 -190.756
L178.635 -190.788
L176.156 -190.502
L173.677 -190.503
L171.198 -190.552
L168.72 -190.448
L166.241 -190.621
L163.762 -190.707
L161.283 -190.789
L158.805 -190.744
L156.326 -190.735
L153.847 -190.826
L151.368 -190.867
L148.89 -190.908
L146.411 -191.022
L143.932 -191.095
L141.453 -191.152
L138.974 -191.199
L136.496 -191.251
L134.017 -191.314
L131.538 -191.745
L129.059 -192.001
L126.581 -192.249
L124.102 -192.494
L121.623 -192.739
L119.144 -192.862
L116.666 -192.985
L114.187 -193.416
L111.708 -193.737
L109.229 -193.991
L106.751 -194.199
L104.272 -194.49
L101.793 -195.168
L99.3144 -195.846
L96.8357 -196.018
L94.3569 -196.149
L91.8782 -196.28
L89.3994 -196.407
L86.9206 -196.534
L84.4419 -196.66
L81.9631 -197.258
L79.4844 -197.938
L77.0056 -198.488
L74.5269 -198.571
L72.0481 -198.849
z
" id="mbd57254165" style="stroke:#fa8e63;stroke-opacity:0.15;stroke-width:0.24;"/>
    </defs>
    <g clip-path="url(#p9aa6d294ba)">
     <use style="fill:#fa8e63;fill-opacity:0.15;stroke:#fa8e63;stroke-opacity:0.15;stroke-width:0.24;" x="0.0" xlink:href="#mbd57254165" y="360.0"/>
    </g>
   </g>
   <g id="PathCollection_2">
    <path clip-path="url(#p9aa6d294ba)" d="
M84.3179 222.326
C85.8298 222.326 87.28 221.726 88.3491 220.656
C89.4181 219.587 90.0188 218.137 90.0188 216.625
C90.0188 215.113 89.4181 213.663 88.3491 212.594
C87.28 211.525 85.8298 210.924 84.3179 210.924
C82.8061 210.924 81.3559 211.525 80.2868 212.594
C79.2178 213.663 78.6171 215.113 78.6171 216.625
C78.6171 218.137 79.2178 219.587 80.2868 220.656
C81.3559 221.726 82.8061 222.326 84.3179 222.326
z
" style="fill:#262626;fill-opacity:0.8;"/>
    <path clip-path="url(#p9aa6d294ba)" d="
M108.858 128.923
C109.584 128.923 110.281 128.635 110.794 128.121
C111.308 127.608 111.596 126.911 111.596 126.185
C111.596 125.458 111.308 124.762 110.794 124.248
C110.281 123.735 109.584 123.446 108.858 123.446
C108.131 123.446 107.435 123.735 106.921 124.248
C106.408 124.762 106.119 125.458 106.119 126.185
C106.119 126.911 106.408 127.608 106.921 128.121
C107.435 128.635 108.131 128.923 108.858 128.923
z
" style="fill:#262626;fill-opacity:0.8;"/>
    <path clip-path="url(#p9aa6d294ba)" d="
M133.397 256.029
C134.424 256.029 135.41 255.62 136.136 254.894
C136.862 254.168 137.27 253.183 137.27 252.156
C137.27 251.128 136.862 250.143 136.136 249.417
C135.41 248.691 134.424 248.283 133.397 248.283
C132.37 248.283 131.385 248.691 130.659 249.417
C129.932 250.143 129.524 251.128 129.524 252.156
C129.524 253.183 129.932 254.168 130.659 254.894
C131.385 255.62 132.37 256.029 133.397 256.029
z
" style="fill:#262626;fill-opacity:0.8;"/>
    <path clip-path="url(#p9aa6d294ba)" d="
M157.937 212.904
C158.663 212.904 159.36 212.615 159.873 212.102
C160.387 211.588 160.676 210.892 160.676 210.165
C160.676 209.439 160.387 208.742 159.873 208.229
C159.36 207.715 158.663 207.427 157.937 207.427
C157.211 207.427 156.514 207.715 156 208.229
C155.487 208.742 155.198 209.439 155.198 210.165
C155.198 210.892 155.487 211.588 156 212.102
C156.514 212.615 157.211 212.904 157.937 212.904
z
" style="fill:#262626;fill-opacity:0.8;"/>
    <path clip-path="url(#p9aa6d294ba)" d="
M207.016 296.382
C207.609 296.382 208.178 296.146 208.597 295.727
C209.017 295.308 209.252 294.739 209.252 294.146
C209.252 293.553 209.017 292.984 208.597 292.565
C208.178 292.145 207.609 291.91 207.016 291.91
C206.423 291.91 205.855 292.145 205.435 292.565
C205.016 292.984 204.78 293.553 204.78 294.146
C204.78 294.739 205.016 295.308 205.435 295.727
C205.855 296.146 206.423 296.382 207.016 296.382
z
" style="fill:#262626;fill-opacity:0.8;"/>
    <path clip-path="url(#p9aa6d294ba)" d="
M256.096 96.128
C257.033 96.128 257.933 95.7555 258.596 95.0925
C259.259 94.4295 259.631 93.5301 259.631 92.5925
C259.631 91.6549 259.259 90.7555 258.596 90.0925
C257.933 89.4295 257.033 89.057 256.096 89.057
C255.158 89.057 254.259 89.4295 253.596 90.0925
C252.933 90.7555 252.56 91.6549 252.56 92.5925
C252.56 93.5301 252.933 94.4295 253.596 95.0925
C254.259 95.7555 255.158 96.128 256.096 96.128
z
" style="fill:#262626;fill-opacity:0.8;"/>
    <path clip-path="url(#p9aa6d294ba)" d="
M280.635 214.038
C281.662 214.038 282.648 213.63 283.374 212.904
C284.1 212.178 284.508 211.192 284.508 210.165
C284.508 209.138 284.1 208.153 283.374 207.427
C282.648 206.7 281.662 206.292 280.635 206.292
C279.608 206.292 278.623 206.7 277.897 207.427
C277.17 208.153 276.762 209.138 276.762 210.165
C276.762 211.192 277.17 212.178 277.897 212.904
C278.623 213.63 279.608 214.038 280.635 214.038
z
" style="fill:#262626;fill-opacity:0.8;"/>
    <path clip-path="url(#p9aa6d294ba)" d="
M305.175 192.189
C307.186 192.189 309.115 191.39 310.537 189.968
C311.959 188.546 312.758 186.617 312.758 184.606
C312.758 182.595 311.959 180.666 310.537 179.244
C309.115 177.822 307.186 177.023 305.175 177.023
C303.164 177.023 301.235 177.822 299.813 179.244
C298.391 180.666 297.592 182.595 297.592 184.606
C297.592 186.617 298.391 188.546 299.813 189.968
C301.235 191.39 303.164 192.189 305.175 192.189
z
" style="fill:#262626;fill-opacity:0.8;"/>
   </g>
   <g id="line2d_13">
    <path clip-path="url(#p9aa6d294ba)" d="
M72.0481 217.503
L74.5269 217.147
L77.0056 216.791
L79.4844 216.433
L81.9631 216.074
L84.4419 215.714
L86.9206 215.354
L89.3994 214.992
L91.8782 214.63
L94.3569 214.266
L96.8357 213.902
L99.3144 213.537
L101.793 213.171
L104.272 212.804
L106.751 212.437
L109.229 212.068
L111.708 211.699
L114.187 211.329
L116.666 210.957
L119.144 210.586
L121.623 210.213
L124.102 209.839
L126.581 209.465
L129.059 209.089
L131.538 208.713
L134.017 208.337
L136.496 207.959
L138.974 207.58
L141.453 207.201
L143.932 206.821
L146.411 206.44
L148.89 206.059
L151.368 205.676
L153.847 205.293
L156.326 204.909
L158.805 204.525
L161.283 204.139
L163.762 203.753
L166.241 203.367
L168.72 202.979
L171.198 202.591
L173.677 202.202
L176.156 201.812
L178.635 201.422
L181.113 201.031
L183.592 200.639
L186.071 200.247
L188.55 199.854
L191.028 199.46
L193.507 199.065
L195.986 198.67
L198.465 198.275
L200.943 197.878
L203.422 197.482
L205.901 197.084
L208.38 196.686
L210.858 196.287
L213.337 195.888
L215.816 195.488
L218.295 195.087
L220.773 194.686
L223.252 194.285
L225.731 193.882
L228.21 193.48
L230.688 193.076
L233.167 192.673
L235.646 192.268
L238.125 191.863
L240.603 191.458
L243.082 191.052
L245.561 190.646
L248.04 190.239
L250.518 189.832
L252.997 189.424
L255.476 189.016
L257.955 188.607
L260.433 188.198
L262.912 187.788
L265.391 187.378
L267.87 186.968
L270.349 186.557
L272.827 186.146
L275.306 185.734
L277.785 185.322
L280.264 184.91
L282.742 184.497
L285.221 184.084
L287.7 183.671
L290.179 183.257
L292.657 182.843
L295.136 182.429
L297.615 182.014
L300.094 181.599
L302.572 181.183
L305.051 180.768
L307.53 180.352
L310.009 179.936
L312.487 179.519
L314.966 179.103
L317.445 178.686" style="fill:none;stroke:#fa8e63;stroke-linecap:round;stroke-width:2.1;"/>
   </g>
   <g id="patch_3">
    <path d="
M47.5084 319.34
L341.985 319.34" style="fill:none;stroke:#262626;stroke-linecap:square;stroke-linejoin:miter;stroke-width:1.25;"/>
   </g>
   <g id="patch_4">
    <path d="
M47.5084 319.34
L47.5084 17.01" style="fill:none;stroke:#262626;stroke-linecap:square;stroke-linejoin:miter;stroke-width:1.25;"/>
   </g>
   <g id="text_15">
    <!-- CaffeNet -->
    <defs>
     <path d="
M13.4844 24.5625
Q13.4844 20.4062 14.3281 16.9062
Q15.1875 13.4219 16.9688 10.9062
Q18.75 8.40625 21.5312 7
Q24.3125 5.60938 28.2188 5.60938
Q33.9375 5.60938 37.375 7.90625
Q40.8281 10.2031 42.0469 13.7188
L49.75 11.5312
Q48.9219 9.32812 47.4375 7.10938
Q45.9531 4.89062 43.4531 3.09375
Q40.9688 1.3125 37.2344 0.15625
Q33.5 -0.984375 28.2188 -0.984375
Q16.5 -0.984375 10.375 6
Q4.25 12.9844 4.25 26.7656
Q4.25 34.1875 6.09375 39.3281
Q7.95312 44.4844 11.1719 47.7031
Q14.4062 50.9219 18.7031 52.3594
Q23 53.8125 27.875 53.8125
Q34.5156 53.8125 38.9844 51.6562
Q43.4531 49.5156 46.1562 45.7188
Q48.875 41.9375 50.0156 36.8125
Q51.1719 31.6875 51.1719 25.7344
L51.1719 24.5625
z

M42.0938 31.2969
Q41.3594 39.6562 37.8438 43.4844
Q34.3281 47.3125 27.7344 47.3125
Q25.5312 47.3125 23.1094 46.6094
Q20.7031 45.9062 18.6562 44.0938
Q16.6094 42.2812 15.1875 39.1719
Q13.7656 36.0781 13.5781 31.2969
z
" id="LiberationSans-65"/>
     <path d="
M17.625 46.4375
L17.625 0
L8.84375 0
L8.84375 46.4375
L1.42188 46.4375
L1.42188 52.8281
L8.84375 52.8281
L8.84375 58.7969
Q8.84375 61.6719 9.375 64.1406
Q9.90625 66.6094 11.3438 68.4375
Q12.7969 70.2656 15.2812 71.3125
Q17.7812 72.3594 21.7344 72.3594
Q23.2969 72.3594 24.9688 72.2188
Q26.6562 72.0781 27.9375 71.7812
L27.9375 65.0938
Q27.0938 65.2344 26 65.3594
Q24.9062 65.4844 24.0312 65.4844
Q22.0781 65.4844 20.8281 64.9375
Q19.5781 64.4062 18.875 63.4062
Q18.1719 62.4062 17.8906 60.9375
Q17.625 59.4688 17.625 57.5625
L17.625 52.8281
L27.9375 52.8281
L27.9375 46.4375
z
" id="LiberationSans-66"/>
     <path d="
M52.8281 0
L16.0156 58.5938
Q16.1094 56.2031 16.2656 53.8594
Q16.3594 51.8594 16.4219 49.625
Q16.5 47.4062 16.5 45.7031
L16.5 0
L8.20312 0
L8.20312 68.7969
L19.0469 68.7969
L56.25 9.8125
Q56.1094 12.2031 55.9531 14.5938
Q55.8594 16.6562 55.7656 19.0625
Q55.6719 21.4844 55.6719 23.6875
L55.6719 68.7969
L64.0625 68.7969
L64.0625 0
z
" id="LiberationSans-4e"/>
     <path d="
M38.6719 62.2031
Q32.8125 62.2031 28.2969 60.25
Q23.7812 58.2969 20.7188 54.6875
Q17.6719 51.0781 16.1094 46
Q14.5469 40.9219 14.5469 34.7188
Q14.5469 28.5156 16.2344 23.3594
Q17.9219 18.2188 21.0625 14.5
Q24.2188 10.7969 28.7812 8.73438
Q33.3438 6.6875 39.0625 6.6875
Q43.0625 6.6875 46.3594 7.73438
Q49.6562 8.79688 52.3125 10.6875
Q54.9844 12.5938 57.0781 15.2031
Q59.1875 17.8281 60.7969 21
L68.4062 17.1875
Q66.5469 13.3281 63.8125 10
Q61.0781 6.6875 57.3906 4.25
Q53.7188 1.8125 49.0469 0.40625
Q44.3906 -0.984375 38.625 -0.984375
Q30.2812 -0.984375 24 1.67188
Q17.7188 4.34375 13.5 9.10938
Q9.28125 13.875 7.17188 20.4062
Q5.07812 26.9531 5.07812 34.7188
Q5.07812 42.7812 7.29688 49.2656
Q9.51562 55.7656 13.7812 60.3281
Q18.0625 64.8906 24.3125 67.3594
Q30.5625 69.8281 38.5781 69.8281
Q49.5625 69.8281 56.9375 65.5312
Q64.3125 61.2344 67.7812 52.7812
L58.9375 49.8594
Q57.9531 52.2969 56.2969 54.5156
Q54.6406 56.7344 52.1406 58.4375
Q49.6562 60.1562 46.3125 61.1719
Q42.9688 62.2031 38.6719 62.2031" id="LiberationSans-43"/>
     <path d="
M27.0469 0.390625
Q25.0469 -0.140625 22.9688 -0.453125
Q20.9062 -0.78125 18.1719 -0.78125
Q7.625 -0.78125 7.625 11.1875
L7.625 46.4375
L1.51562 46.4375
L1.51562 52.8281
L7.95312 52.8281
L10.5469 64.6562
L16.4062 64.6562
L16.4062 52.8281
L26.1719 52.8281
L26.1719 46.4375
L16.4062 46.4375
L16.4062 13.0938
Q16.4062 9.28125 17.6406 7.73438
Q18.8906 6.20312 21.9688 6.20312
Q23.25 6.20312 24.4375 6.39062
Q25.6406 6.59375 27.0469 6.89062
z
" id="LiberationSans-74"/>
    </defs>
    <g style="fill:#262626;" transform="translate(176.168234375 12.01)scale(0.096 -0.096)">
     <use xlink:href="#LiberationSans-43"/>
     <use x="72.216796875" xlink:href="#LiberationSans-61"/>
     <use x="127.83203125" xlink:href="#LiberationSans-66"/>
     <use x="153.865234375" xlink:href="#LiberationSans-66"/>
     <use x="181.6484375" xlink:href="#LiberationSans-65"/>
     <use x="237.263671875" xlink:href="#LiberationSans-4e"/>
     <use x="309.48046875" xlink:href="#LiberationSans-65"/>
     <use x="365.095703125" xlink:href="#LiberationSans-74"/>
    </g>
   </g>
  </g>
 </g>
 <defs>
  <clipPath id="p9aa6d294ba">
   <rect height="302.33" width="294.47609375" x="47.5084375" y="17.01"/>
  </clipPath>
 </defs>
</svg>
