<?xml version="1.0" encoding="utf-8" standalone="no"?>
<!DOCTYPE svg PUBLIC "-//W3C//DTD SVG 1.1//EN"
  "http://www.w3.org/Graphics/SVG/1.1/DTD/svg11.dtd">
<!-- Created with matplotlib (http://matplotlib.org/) -->
<svg height="288pt" version="1.1" viewBox="0 0 347 288" width="347pt" xmlns="http://www.w3.org/2000/svg" xmlns:xlink="http://www.w3.org/1999/xlink">
 <defs>
  <style type="text/css">
*{stroke-linecap:butt;stroke-linejoin:round;}
  </style>
 </defs>
 <g id="figure_1">
  <g id="patch_1">
   <path d="
M0 288
L347.33 288
L347.33 0
L0 0
z
" style="fill:#ffffff;"/>
  </g>
  <g id="axes_1">
   <g id="patch_2">
    <path d="
M57.3124 247.34
L284.527 247.34
L284.527 17.01
L57.3124 17.01
z
" style="fill:#ffffff;"/>
   </g>
   <g id="matplotlib.axis_1">
    <g id="xtick_1">
     <g id="line2d_1">
      <defs>
       <path d="
M0 0
L0 0" id="m9ceacb34a3" style="stroke:#262626;stroke-width:0.8;"/>
      </defs>
      <g>
       <use style="fill:#262626;stroke:#262626;stroke-width:0.8;" x="63.2917368646" xlink:href="#m9ceacb34a3" y="247.34"/>
      </g>
     </g>
     <g id="text_1">
      <!-- conv1_1 -->
      <defs>
       <path d="
M29.9375 0
L19.5312 0
L0.34375 52.8281
L9.71875 52.8281
L21.3438 18.4531
Q21.6875 17.3906 22.1406 15.8438
Q22.6094 14.3125 23.0938 12.6406
Q23.5781 10.9844 24 9.4375
Q24.4219 7.90625 24.7031 6.89062
Q25 7.90625 25.4531 9.4375
Q25.9219 10.9844 26.4062 12.5938
Q26.9062 14.2031 27.4219 15.7344
Q27.9375 17.2812 28.3281 18.3594
L40.3281 52.8281
L49.6562 52.8281
z
" id="LiberationSans-76"/>
       <path d="
M13.4219 26.6562
Q13.4219 22.125 14.0781 18.3125
Q14.75 14.5 16.3125 11.7344
Q17.875 8.98438 20.4375 7.46875
Q23 5.95312 26.7656 5.95312
Q31.4531 5.95312 34.5938 8.48438
Q37.75 11.0312 38.4844 16.3125
L47.3594 15.7188
Q46.9219 12.4531 45.4531 9.42188
Q44 6.39062 41.4844 4.09375
Q38.9688 1.8125 35.3438 0.40625
Q31.7344 -0.984375 27 -0.984375
Q20.7969 -0.984375 16.4531 1.10938
Q12.1094 3.21875 9.39062 6.90625
Q6.6875 10.5938 5.46875 15.5938
Q4.25 20.6094 4.25 26.4688
Q4.25 31.7812 5.125 35.8594
Q6 39.9375 7.59375 42.9844
Q9.1875 46.0469 11.3281 48.125
Q13.4844 50.2031 15.9844 51.4375
Q18.5 52.6875 21.2812 53.25
Q24.0781 53.8125 26.9062 53.8125
Q31.3438 53.8125 34.8125 52.5938
Q38.2812 51.375 40.7969 49.25
Q43.3125 47.125 44.875 44.2344
Q46.4375 41.3594 47.0781 38.0312
L38.0312 37.3594
Q37.3594 41.75 34.5625 44.3281
Q31.7812 46.9219 26.6562 46.9219
Q22.9062 46.9219 20.3906 45.6719
Q17.875 44.4375 16.3125 41.9219
Q14.75 39.4062 14.0781 35.5938
Q13.4219 31.7812 13.4219 26.6562" id="LiberationSans-63"/>
       <path d="
M-1.51562 -19.875
L-1.51562 -13.5312
L56.7344 -13.5312
L56.7344 -19.875
z
" id="LiberationSans-5f"/>
       <path d="
M40.2812 0
L40.2812 33.5
Q40.2812 37.3594 39.7188 39.9375
Q39.1562 42.5312 37.8906 44.1094
Q36.625 45.7031 34.5469 46.3594
Q32.4688 47.0156 29.3906 47.0156
Q26.2656 47.0156 23.75 45.9219
Q21.2344 44.8281 19.4531 42.75
Q17.6719 40.6719 16.6875 37.625
Q15.7188 34.5781 15.7188 30.6094
L15.7188 0
L6.9375 0
L6.9375 41.5469
Q6.9375 43.2188 6.90625 45.0469
Q6.89062 46.875 6.82812 48.5
Q6.78125 50.1406 6.73438 51.3125
Q6.6875 52.4844 6.64062 52.8281
L14.9375 52.8281
Q14.9844 52.5938 15.0312 51.5156
Q15.0938 50.4375 15.1562 49.0469
Q15.2344 47.6562 15.2812 46.2188
Q15.3281 44.7812 15.3281 43.7969
L15.4844 43.7969
Q16.75 46.0938 18.2656 47.9531
Q19.7812 49.8125 21.7812 51.0938
Q23.7812 52.3906 26.3594 53.0938
Q28.9531 53.8125 32.375 53.8125
Q36.7656 53.8125 39.9375 52.7344
Q43.1094 51.6562 45.1562 49.4062
Q47.2188 47.1719 48.1719 43.625
Q49.125 40.0938 49.125 35.2031
L49.125 0
z
" id="LiberationSans-6e"/>
       <path d="
M51.4219 26.4688
Q51.4219 12.5938 45.3125 5.79688
Q39.2031 -0.984375 27.5938 -0.984375
Q22.0781 -0.984375 17.7188 0.671875
Q13.375 2.34375 10.375 5.76562
Q7.375 9.1875 5.78125 14.3281
Q4.20312 19.4844 4.20312 26.4688
Q4.20312 53.8125 27.875 53.8125
Q34.0312 53.8125 38.5 52.0938
Q42.9688 50.3906 45.8281 46.9688
Q48.6875 43.5625 50.0469 38.4219
Q51.4219 33.2969 51.4219 26.4688
M42.1875 26.4688
Q42.1875 32.625 41.2344 36.625
Q40.2812 40.625 38.4531 43.0156
Q36.625 45.4062 33.9844 46.3594
Q31.3438 47.3125 28.0312 47.3125
Q24.6562 47.3125 21.9375 46.3125
Q19.2344 45.3125 17.3281 42.8906
Q15.4375 40.4844 14.4219 36.4688
Q13.4219 32.4688 13.4219 26.4688
Q13.4219 20.3125 14.5 16.2812
Q15.5781 12.25 17.4531 9.85938
Q19.3438 7.46875 21.9062 6.48438
Q24.4688 5.51562 27.4844 5.51562
Q30.8594 5.51562 33.5938 6.46875
Q36.3281 7.42188 38.2344 9.8125
Q40.1406 12.2031 41.1562 16.25
Q42.1875 20.3125 42.1875 26.4688" id="LiberationSans-6f"/>
       <path d="
M7.625 0
L7.625 7.46875
L25.1406 7.46875
L25.1406 60.4062
L9.625 49.3125
L9.625 57.625
L25.875 68.7969
L33.9844 68.7969
L33.9844 7.46875
L50.7344 7.46875
L50.7344 0
z
" id="LiberationSans-31"/>
      </defs>
      <g style="fill:#262626;" transform="translate(36.9020796036 272.717657278)rotate(-30.0)scale(0.08 -0.08)">
       <use xlink:href="#LiberationSans-63"/>
       <use x="50.0" xlink:href="#LiberationSans-6f"/>
       <use x="105.615234375" xlink:href="#LiberationSans-6e"/>
       <use x="161.23046875" xlink:href="#LiberationSans-76"/>
       <use x="211.23046875" xlink:href="#LiberationSans-31"/>
       <use x="266.845703125" xlink:href="#LiberationSans-5f"/>
       <use x="322.4609375" xlink:href="#LiberationSans-31"/>
      </g>
     </g>
    </g>
    <g id="xtick_2">
     <g id="line2d_2">
      <g>
       <use style="fill:#262626;stroke:#262626;stroke-width:0.8;" x="75.2503836895" xlink:href="#m9ceacb34a3" y="247.34"/>
      </g>
     </g>
     <g id="text_2">
      <!-- conv1_2 -->
      <defs>
       <path d="
M5.03125 0
L5.03125 6.20312
Q7.51562 11.9219 11.1094 16.2812
Q14.7031 20.6562 18.6562 24.1875
Q22.6094 27.7344 26.4844 30.7656
Q30.375 33.7969 33.5 36.8125
Q36.625 39.8438 38.5469 43.1562
Q40.4844 46.4844 40.4844 50.6875
Q40.4844 53.6094 39.5938 55.8281
Q38.7188 58.0625 37.0625 59.5625
Q35.4062 61.0781 33.0781 61.8281
Q30.7656 62.5938 27.9375 62.5938
Q25.2969 62.5938 22.9688 61.8594
Q20.6562 61.1406 18.8438 59.6719
Q17.0469 58.2031 15.8906 56.0312
Q14.75 53.8594 14.4062 50.9844
L5.42188 51.8125
Q5.85938 55.5156 7.46875 58.7812
Q9.07812 62.0625 11.9062 64.5312
Q14.75 67 18.7188 68.4062
Q22.7031 69.8281 27.9375 69.8281
Q33.0625 69.8281 37.0625 68.6094
Q41.0625 67.3906 43.8125 64.9844
Q46.5781 62.5938 48.0469 59.0781
Q49.5156 55.5625 49.5156 50.9844
Q49.5156 47.5156 48.2656 44.3906
Q47.0156 41.2656 44.9375 38.4219
Q42.875 35.5938 40.1406 32.9531
Q37.4062 30.3281 34.4219 27.8125
Q31.4531 25.2969 28.4219 22.8281
Q25.3906 20.3594 22.7188 17.8594
Q20.0625 15.375 17.9688 12.8125
Q15.875 10.25 14.7031 7.46875
L50.5938 7.46875
L50.5938 0
z
" id="LiberationSans-32"/>
      </defs>
      <g style="fill:#262626;" transform="translate(48.8704692143 272.712032278)rotate(-30.0)scale(0.08 -0.08)">
       <use xlink:href="#LiberationSans-63"/>
       <use x="50.0" xlink:href="#LiberationSans-6f"/>
       <use x="105.615234375" xlink:href="#LiberationSans-6e"/>
       <use x="161.23046875" xlink:href="#LiberationSans-76"/>
       <use x="211.23046875" xlink:href="#LiberationSans-31"/>
       <use x="266.845703125" xlink:href="#LiberationSans-5f"/>
       <use x="322.4609375" xlink:href="#LiberationSans-32"/>
      </g>
     </g>
    </g>
    <g id="xtick_3">
     <g id="line2d_3">
      <g>
       <use style="fill:#262626;stroke:#262626;stroke-width:0.8;" x="87.2090305144" xlink:href="#m9ceacb34a3" y="247.34"/>
      </g>
     </g>
     <g id="text_3">
      <!-- conv2_1 -->
      <g style="fill:#262626;" transform="translate(60.8193732534 272.717657278)rotate(-30.0)scale(0.08 -0.08)">
       <use xlink:href="#LiberationSans-63"/>
       <use x="50.0" xlink:href="#LiberationSans-6f"/>
       <use x="105.615234375" xlink:href="#LiberationSans-6e"/>
       <use x="161.23046875" xlink:href="#LiberationSans-76"/>
       <use x="211.23046875" xlink:href="#LiberationSans-32"/>
       <use x="266.845703125" xlink:href="#LiberationSans-5f"/>
       <use x="322.4609375" xlink:href="#LiberationSans-31"/>
      </g>
     </g>
    </g>
    <g id="xtick_4">
     <g id="line2d_4">
      <g>
       <use style="fill:#262626;stroke:#262626;stroke-width:0.8;" x="99.1676773393" xlink:href="#m9ceacb34a3" y="247.34"/>
      </g>
     </g>
     <g id="text_4">
      <!-- conv2_2 -->
      <g style="fill:#262626;" transform="translate(72.7877628641 272.712032278)rotate(-30.0)scale(0.08 -0.08)">
       <use xlink:href="#LiberationSans-63"/>
       <use x="50.0" xlink:href="#LiberationSans-6f"/>
       <use x="105.615234375" xlink:href="#LiberationSans-6e"/>
       <use x="161.23046875" xlink:href="#LiberationSans-76"/>
       <use x="211.23046875" xlink:href="#LiberationSans-32"/>
       <use x="266.845703125" xlink:href="#LiberationSans-5f"/>
       <use x="322.4609375" xlink:href="#LiberationSans-32"/>
      </g>
     </g>
    </g>
    <g id="xtick_5">
     <g id="line2d_5">
      <g>
       <use style="fill:#262626;stroke:#262626;stroke-width:0.8;" x="111.126324164" xlink:href="#m9ceacb34a3" y="247.34"/>
      </g>
     </g>
     <g id="text_5">
      <!-- conv3_1 -->
      <defs>
       <path d="
M51.2188 19
Q51.2188 14.2656 49.6719 10.5469
Q48.1406 6.84375 45.1875 4.26562
Q42.2344 1.70312 37.8594 0.359375
Q33.5 -0.984375 27.875 -0.984375
Q21.4844 -0.984375 17.1094 0.609375
Q12.75 2.20312 9.90625 4.8125
Q7.07812 7.42188 5.65625 10.7656
Q4.25 14.1094 3.8125 17.6719
L12.8906 18.5
Q13.2812 15.7656 14.3281 13.5156
Q15.375 11.2812 17.1875 9.67188
Q19 8.0625 21.625 7.17188
Q24.2656 6.29688 27.875 6.29688
Q34.5156 6.29688 38.2969 9.5625
Q42.0938 12.8438 42.0938 19.2812
Q42.0938 23.0938 40.4062 25.4062
Q38.7188 27.7344 36.2031 29.0312
Q33.6875 30.3281 30.7344 30.7656
Q27.7812 31.2031 25.2969 31.2031
L20.3125 31.2031
L20.3125 38.8125
L25.0938 38.8125
Q27.5938 38.8125 30.2656 39.3281
Q32.9531 39.8438 35.1719 41.1875
Q37.4062 42.5312 38.8438 44.8281
Q40.2812 47.125 40.2812 50.6875
Q40.2812 56.2031 37.0312 59.3906
Q33.7969 62.5938 27.3906 62.5938
Q21.5781 62.5938 17.9844 59.6094
Q14.4062 56.6406 13.8125 51.2188
L4.98438 51.9062
Q5.51562 56.4531 7.46875 59.8125
Q9.42188 63.1875 12.4219 65.4062
Q15.4375 67.625 19.2812 68.7188
Q23.1406 69.8281 27.4844 69.8281
Q33.25 69.8281 37.3906 68.375
Q41.5469 66.9375 44.1875 64.4688
Q46.8281 62.0156 48.0625 58.6875
Q49.3125 55.375 49.3125 51.6094
Q49.3125 48.5781 48.4844 45.9375
Q47.6562 43.3125 45.8906 41.2031
Q44.1406 39.1094 41.4219 37.5938
Q38.7188 36.0781 34.9062 35.2969
L34.9062 35.1094
Q39.0625 34.6719 42.1406 33.2188
Q45.2188 31.7812 47.2188 29.625
Q49.2188 27.4844 50.2188 24.75
Q51.2188 22.0156 51.2188 19" id="LiberationSans-33"/>
      </defs>
      <g style="fill:#262626;" transform="translate(84.7366669032 272.717657278)rotate(-30.0)scale(0.08 -0.08)">
       <use xlink:href="#LiberationSans-63"/>
       <use x="50.0" xlink:href="#LiberationSans-6f"/>
       <use x="105.615234375" xlink:href="#LiberationSans-6e"/>
       <use x="161.23046875" xlink:href="#LiberationSans-76"/>
       <use x="211.23046875" xlink:href="#LiberationSans-33"/>
       <use x="266.845703125" xlink:href="#LiberationSans-5f"/>
       <use x="322.4609375" xlink:href="#LiberationSans-31"/>
      </g>
     </g>
    </g>
    <g id="xtick_6">
     <g id="line2d_6">
      <g>
       <use style="fill:#262626;stroke:#262626;stroke-width:0.8;" x="123.084970989" xlink:href="#m9ceacb34a3" y="247.34"/>
      </g>
     </g>
     <g id="text_6">
      <!-- conv3_2 -->
      <g style="fill:#262626;" transform="translate(96.7050565139 272.712032278)rotate(-30.0)scale(0.08 -0.08)">
       <use xlink:href="#LiberationSans-63"/>
       <use x="50.0" xlink:href="#LiberationSans-6f"/>
       <use x="105.615234375" xlink:href="#LiberationSans-6e"/>
       <use x="161.23046875" xlink:href="#LiberationSans-76"/>
       <use x="211.23046875" xlink:href="#LiberationSans-33"/>
       <use x="266.845703125" xlink:href="#LiberationSans-5f"/>
       <use x="322.4609375" xlink:href="#LiberationSans-32"/>
      </g>
     </g>
    </g>
    <g id="xtick_7">
     <g id="line2d_7">
      <g>
       <use style="fill:#262626;stroke:#262626;stroke-width:0.8;" x="135.043617814" xlink:href="#m9ceacb34a3" y="247.34"/>
      </g>
     </g>
     <g id="text_7">
      <!-- conv3_3 -->
      <g style="fill:#262626;" transform="translate(108.620402069 272.737032278)rotate(-30.0)scale(0.08 -0.08)">
       <use xlink:href="#LiberationSans-63"/>
       <use x="50.0" xlink:href="#LiberationSans-6f"/>
       <use x="105.615234375" xlink:href="#LiberationSans-6e"/>
       <use x="161.23046875" xlink:href="#LiberationSans-76"/>
       <use x="211.23046875" xlink:href="#LiberationSans-33"/>
       <use x="266.845703125" xlink:href="#LiberationSans-5f"/>
       <use x="322.4609375" xlink:href="#LiberationSans-33"/>
      </g>
     </g>
    </g>
    <g id="xtick_8">
     <g id="line2d_8">
      <g>
       <use style="fill:#262626;stroke:#262626;stroke-width:0.8;" x="147.002264639" xlink:href="#m9ceacb34a3" y="247.34"/>
      </g>
     </g>
     <g id="text_8">
      <!-- conv3_4 -->
      <defs>
       <path d="
M43.0156 15.5781
L43.0156 0
L34.7188 0
L34.7188 15.5781
L2.29688 15.5781
L2.29688 22.4062
L33.7969 68.7969
L43.0156 68.7969
L43.0156 22.5156
L52.6875 22.5156
L52.6875 15.5781
z

M34.7188 58.8906
Q34.625 58.6406 34.2344 57.9375
Q33.8438 57.2344 33.3438 56.3438
Q32.8594 55.4688 32.3438 54.5625
Q31.8438 53.6562 31.4531 53.0781
L13.8125 27.0938
Q13.5781 26.7031 13.1094 26.0625
Q12.6406 25.4375 12.1562 24.7812
Q11.6719 24.125 11.1719 23.4844
Q10.6875 22.8594 10.4062 22.5156
L34.7188 22.5156
z
" id="LiberationSans-34"/>
      </defs>
      <g style="fill:#262626;" transform="translate(120.477290909 272.795782278)rotate(-30.0)scale(0.08 -0.08)">
       <use xlink:href="#LiberationSans-63"/>
       <use x="50.0" xlink:href="#LiberationSans-6f"/>
       <use x="105.615234375" xlink:href="#LiberationSans-6e"/>
       <use x="161.23046875" xlink:href="#LiberationSans-76"/>
       <use x="211.23046875" xlink:href="#LiberationSans-33"/>
       <use x="266.845703125" xlink:href="#LiberationSans-5f"/>
       <use x="322.4609375" xlink:href="#LiberationSans-34"/>
      </g>
     </g>
    </g>
    <g id="xtick_9">
     <g id="line2d_9">
      <g>
       <use style="fill:#262626;stroke:#262626;stroke-width:0.8;" x="158.960911464" xlink:href="#m9ceacb34a3" y="247.34"/>
      </g>
     </g>
     <g id="text_9">
      <!-- conv4_1 -->
      <g style="fill:#262626;" transform="translate(132.571254203 272.717657278)rotate(-30.0)scale(0.08 -0.08)">
       <use xlink:href="#LiberationSans-63"/>
       <use x="50.0" xlink:href="#LiberationSans-6f"/>
       <use x="105.615234375" xlink:href="#LiberationSans-6e"/>
       <use x="161.23046875" xlink:href="#LiberationSans-76"/>
       <use x="211.23046875" xlink:href="#LiberationSans-34"/>
       <use x="266.845703125" xlink:href="#LiberationSans-5f"/>
       <use x="322.4609375" xlink:href="#LiberationSans-31"/>
      </g>
     </g>
    </g>
    <g id="xtick_10">
     <g id="line2d_10">
      <g>
       <use style="fill:#262626;stroke:#262626;stroke-width:0.8;" x="170.919558289" xlink:href="#m9ceacb34a3" y="247.34"/>
      </g>
     </g>
     <g id="text_10">
      <!-- conv4_2 -->
      <g style="fill:#262626;" transform="translate(144.539643813 272.712032278)rotate(-30.0)scale(0.08 -0.08)">
       <use xlink:href="#LiberationSans-63"/>
       <use x="50.0" xlink:href="#LiberationSans-6f"/>
       <use x="105.615234375" xlink:href="#LiberationSans-6e"/>
       <use x="161.23046875" xlink:href="#LiberationSans-76"/>
       <use x="211.23046875" xlink:href="#LiberationSans-34"/>
       <use x="266.845703125" xlink:href="#LiberationSans-5f"/>
       <use x="322.4609375" xlink:href="#LiberationSans-32"/>
      </g>
     </g>
    </g>
    <g id="xtick_11">
     <g id="line2d_11">
      <g>
       <use style="fill:#262626;stroke:#262626;stroke-width:0.8;" x="182.878205113" xlink:href="#m9ceacb34a3" y="247.34"/>
      </g>
     </g>
     <g id="text_11">
      <!-- conv4_3 -->
      <g style="fill:#262626;" transform="translate(156.454989368 272.737032278)rotate(-30.0)scale(0.08 -0.08)">
       <use xlink:href="#LiberationSans-63"/>
       <use x="50.0" xlink:href="#LiberationSans-6f"/>
       <use x="105.615234375" xlink:href="#LiberationSans-6e"/>
       <use x="161.23046875" xlink:href="#LiberationSans-76"/>
       <use x="211.23046875" xlink:href="#LiberationSans-34"/>
       <use x="266.845703125" xlink:href="#LiberationSans-5f"/>
       <use x="322.4609375" xlink:href="#LiberationSans-33"/>
      </g>
     </g>
    </g>
    <g id="xtick_12">
     <g id="line2d_12">
      <g>
       <use style="fill:#262626;stroke:#262626;stroke-width:0.8;" x="194.836851938" xlink:href="#m9ceacb34a3" y="247.34"/>
      </g>
     </g>
     <g id="text_12">
      <!-- conv4_4 -->
      <g style="fill:#262626;" transform="translate(168.311878208 272.795782278)rotate(-30.0)scale(0.08 -0.08)">
       <use xlink:href="#LiberationSans-63"/>
       <use x="50.0" xlink:href="#LiberationSans-6f"/>
       <use x="105.615234375" xlink:href="#LiberationSans-6e"/>
       <use x="161.23046875" xlink:href="#LiberationSans-76"/>
       <use x="211.23046875" xlink:href="#LiberationSans-34"/>
       <use x="266.845703125" xlink:href="#LiberationSans-5f"/>
       <use x="322.4609375" xlink:href="#LiberationSans-34"/>
      </g>
     </g>
    </g>
    <g id="xtick_13">
     <g id="line2d_13">
      <g>
       <use style="fill:#262626;stroke:#262626;stroke-width:0.8;" x="206.795498763" xlink:href="#m9ceacb34a3" y="247.34"/>
      </g>
     </g>
     <g id="text_13">
      <!-- conv5_1 -->
      <defs>
       <path d="
M51.4219 22.4062
Q51.4219 17.2344 49.8594 12.9375
Q48.2969 8.64062 45.2188 5.53125
Q42.1406 2.4375 37.5781 0.71875
Q33.0156 -0.984375 27 -0.984375
Q21.5781 -0.984375 17.5469 0.28125
Q13.5312 1.5625 10.7344 3.78125
Q7.95312 6 6.3125 8.98438
Q4.6875 11.9688 4 15.375
L12.8906 16.4062
Q13.4219 14.4531 14.3906 12.625
Q15.375 10.7969 17.0625 9.34375
Q18.75 7.90625 21.2188 7.04688
Q23.6875 6.20312 27.2031 6.20312
Q30.6094 6.20312 33.3906 7.25
Q36.1875 8.29688 38.1562 10.3438
Q40.1406 12.4062 41.2031 15.375
Q42.2812 18.3594 42.2812 22.2188
Q42.2812 25.3906 41.25 28.0469
Q40.2344 30.7188 38.3281 32.6406
Q36.4219 34.5781 33.6562 35.6406
Q30.9062 36.7188 27.3906 36.7188
Q25.2031 36.7188 23.3438 36.3281
Q21.4844 35.9375 19.8906 35.25
Q18.3125 34.5781 17.0156 33.6719
Q15.7188 32.7656 14.5938 31.7812
L6 31.7812
L8.29688 68.7969
L47.4062 68.7969
L47.4062 61.3281
L16.3125 61.3281
L14.9844 39.5
Q17.3281 41.3125 20.8438 42.5938
Q24.3594 43.8906 29.2031 43.8906
Q34.3281 43.8906 38.4219 42.3281
Q42.5312 40.7656 45.4062 37.9062
Q48.2969 35.0625 49.8594 31.1094
Q51.4219 27.1562 51.4219 22.4062" id="LiberationSans-35"/>
      </defs>
      <g style="fill:#262626;" transform="translate(180.405841502 272.717657278)rotate(-30.0)scale(0.08 -0.08)">
       <use xlink:href="#LiberationSans-63"/>
       <use x="50.0" xlink:href="#LiberationSans-6f"/>
       <use x="105.615234375" xlink:href="#LiberationSans-6e"/>
       <use x="161.23046875" xlink:href="#LiberationSans-76"/>
       <use x="211.23046875" xlink:href="#LiberationSans-35"/>
       <use x="266.845703125" xlink:href="#LiberationSans-5f"/>
       <use x="322.4609375" xlink:href="#LiberationSans-31"/>
      </g>
     </g>
    </g>
    <g id="xtick_14">
     <g id="line2d_14">
      <g>
       <use style="fill:#262626;stroke:#262626;stroke-width:0.8;" x="218.754145588" xlink:href="#m9ceacb34a3" y="247.34"/>
      </g>
     </g>
     <g id="text_14">
      <!-- conv5_2 -->
      <g style="fill:#262626;" transform="translate(192.374231113 272.712032278)rotate(-30.0)scale(0.08 -0.08)">
       <use xlink:href="#LiberationSans-63"/>
       <use x="50.0" xlink:href="#LiberationSans-6f"/>
       <use x="105.615234375" xlink:href="#LiberationSans-6e"/>
       <use x="161.23046875" xlink:href="#LiberationSans-76"/>
       <use x="211.23046875" xlink:href="#LiberationSans-35"/>
       <use x="266.845703125" xlink:href="#LiberationSans-5f"/>
       <use x="322.4609375" xlink:href="#LiberationSans-32"/>
      </g>
     </g>
    </g>
    <g id="xtick_15">
     <g id="line2d_15">
      <g>
       <use style="fill:#262626;stroke:#262626;stroke-width:0.8;" x="230.712792413" xlink:href="#m9ceacb34a3" y="247.34"/>
      </g>
     </g>
     <g id="text_15">
      <!-- conv5_3 -->
      <g style="fill:#262626;" transform="translate(204.289576668 272.737032278)rotate(-30.0)scale(0.08 -0.08)">
       <use xlink:href="#LiberationSans-63"/>
       <use x="50.0" xlink:href="#LiberationSans-6f"/>
       <use x="105.615234375" xlink:href="#LiberationSans-6e"/>
       <use x="161.23046875" xlink:href="#LiberationSans-76"/>
       <use x="211.23046875" xlink:href="#LiberationSans-35"/>
       <use x="266.845703125" xlink:href="#LiberationSans-5f"/>
       <use x="322.4609375" xlink:href="#LiberationSans-33"/>
      </g>
     </g>
    </g>
    <g id="xtick_16">
     <g id="line2d_16">
      <g>
       <use style="fill:#262626;stroke:#262626;stroke-width:0.8;" x="242.671439238" xlink:href="#m9ceacb34a3" y="247.34"/>
      </g>
     </g>
     <g id="text_16">
      <!-- conv5_4 -->
      <g style="fill:#262626;" transform="translate(216.146465508 272.795782278)rotate(-30.0)scale(0.08 -0.08)">
       <use xlink:href="#LiberationSans-63"/>
       <use x="50.0" xlink:href="#LiberationSans-6f"/>
       <use x="105.615234375" xlink:href="#LiberationSans-6e"/>
       <use x="161.23046875" xlink:href="#LiberationSans-76"/>
       <use x="211.23046875" xlink:href="#LiberationSans-35"/>
       <use x="266.845703125" xlink:href="#LiberationSans-5f"/>
       <use x="322.4609375" xlink:href="#LiberationSans-34"/>
      </g>
     </g>
    </g>
    <g id="xtick_17">
     <g id="line2d_17">
      <g>
       <use style="fill:#262626;stroke:#262626;stroke-width:0.8;" x="254.630086063" xlink:href="#m9ceacb34a3" y="247.34"/>
      </g>
     </g>
     <g id="text_17">
      <!-- fc6 -->
      <defs>
       <path d="
M51.2188 22.5156
Q51.2188 17.3281 49.7812 13
Q48.3438 8.6875 45.5312 5.57812
Q42.7188 2.48438 38.5625 0.75
Q34.4219 -0.984375 29 -0.984375
Q23 -0.984375 18.5 1.3125
Q14.0156 3.60938 11.0312 7.92188
Q8.0625 12.25 6.5625 18.5312
Q5.07812 24.8125 5.07812 32.8125
Q5.07812 42 6.76562 48.9219
Q8.45312 55.8594 11.625 60.5
Q14.7969 65.1406 19.3594 67.4844
Q23.9219 69.8281 29.6875 69.8281
Q33.2031 69.8281 36.2812 69.0938
Q39.3594 68.3594 41.875 66.7188
Q44.3906 65.0938 46.2812 62.4062
Q48.1875 59.7188 49.3125 55.8125
L40.9219 54.2969
Q39.5469 58.7344 36.5469 60.7188
Q33.5469 62.7031 29.5938 62.7031
Q25.9844 62.7031 23.0469 60.9844
Q20.125 59.2812 18.0625 55.875
Q16.0156 52.4844 14.9062 47.3594
Q13.8125 42.2344 13.8125 35.4062
Q16.2188 39.8438 20.5625 42.1562
Q24.9062 44.4844 30.5156 44.4844
Q35.2031 44.4844 39.0156 42.9688
Q42.8281 41.4531 45.5312 38.5938
Q48.25 35.75 49.7344 31.6719
Q51.2188 27.5938 51.2188 22.5156
M42.2812 22.125
Q42.2812 25.6875 41.4062 28.5625
Q40.5312 31.4531 38.7656 33.4688
Q37.0156 35.5 34.4219 36.5938
Q31.8438 37.7031 28.4219 37.7031
Q26.0312 37.7031 23.5781 36.9844
Q21.1406 36.2812 19.1562 34.6875
Q17.1875 33.1094 15.9375 30.5156
Q14.7031 27.9375 14.7031 24.2188
Q14.7031 20.4062 15.6719 17.1094
Q16.6562 13.8125 18.4844 11.375
Q20.3125 8.9375 22.8906 7.51562
Q25.4844 6.10938 28.7188 6.10938
Q31.8906 6.10938 34.4062 7.20312
Q36.9219 8.29688 38.6719 10.375
Q40.4375 12.4531 41.3594 15.4219
Q42.2812 18.4062 42.2812 22.125" id="LiberationSans-36"/>
       <path d="
M17.625 46.4375
L17.625 0
L8.84375 0
L8.84375 46.4375
L1.42188 46.4375
L1.42188 52.8281
L8.84375 52.8281
L8.84375 58.7969
Q8.84375 61.6719 9.375 64.1406
Q9.90625 66.6094 11.3438 68.4375
Q12.7969 70.2656 15.2812 71.3125
Q17.7812 72.3594 21.7344 72.3594
Q23.2969 72.3594 24.9688 72.2188
Q26.6562 72.0781 27.9375 71.7812
L27.9375 65.0938
Q27.0938 65.2344 26 65.3594
Q24.9062 65.4844 24.0312 65.4844
Q22.0781 65.4844 20.8281 64.9375
Q19.5781 64.4062 18.875 63.4062
Q18.1719 62.4062 17.8906 60.9375
Q17.625 59.4688 17.625 57.5625
L17.625 52.8281
L27.9375 52.8281
L27.9375 46.4375
z
" id="LiberationSans-66"/>
      </defs>
      <g style="fill:#262626;" transform="translate(249.526961063 258.7375)scale(0.08 -0.08)">
       <use xlink:href="#LiberationSans-66"/>
       <use x="27.783203125" xlink:href="#LiberationSans-63"/>
       <use x="77.783203125" xlink:href="#LiberationSans-36"/>
      </g>
     </g>
    </g>
    <g id="xtick_18">
     <g id="line2d_18">
      <g>
       <use style="fill:#262626;stroke:#262626;stroke-width:0.8;" x="266.588732888" xlink:href="#m9ceacb34a3" y="247.34"/>
      </g>
     </g>
     <g id="text_18">
      <!-- fc7 -->
      <defs>
       <path d="
M50.5938 61.6719
Q45.4062 53.7656 41.0625 46.4531
Q36.7188 39.1562 33.5938 31.75
Q30.4688 24.3594 28.7344 16.5781
Q27 8.79688 27 0
L17.8281 0
Q17.8281 8.25 19.7812 16.1875
Q21.7344 24.125 25.0469 31.7656
Q28.375 39.4062 32.7656 46.7812
Q37.1562 54.1562 42.0938 61.3281
L5.125 61.3281
L5.125 68.7969
L50.5938 68.7969
z
" id="LiberationSans-37"/>
      </defs>
      <g style="fill:#262626;" transform="translate(261.510607888 258.7375)scale(0.08 -0.08)">
       <use xlink:href="#LiberationSans-66"/>
       <use x="27.783203125" xlink:href="#LiberationSans-63"/>
       <use x="77.783203125" xlink:href="#LiberationSans-37"/>
      </g>
     </g>
    </g>
    <g id="xtick_19">
     <g id="line2d_19">
      <g>
       <use style="fill:#262626;stroke:#262626;stroke-width:0.8;" x="278.547379713" xlink:href="#m9ceacb34a3" y="247.34"/>
      </g>
     </g>
     <g id="text_19">
      <!-- fc8 -->
      <defs>
       <path d="
M51.2656 19.1875
Q51.2656 14.7969 49.875 11.1094
Q48.4844 7.42188 45.625 4.73438
Q42.7812 2.04688 38.3281 0.53125
Q33.8906 -0.984375 27.8281 -0.984375
Q21.7812 -0.984375 17.3594 0.53125
Q12.9375 2.04688 10.0312 4.70312
Q7.125 7.375 5.73438 11.0625
Q4.34375 14.75 4.34375 19.0938
Q4.34375 22.8594 5.48438 25.7812
Q6.64062 28.7188 8.5625 30.8281
Q10.5 32.9531 12.9688 34.25
Q15.4375 35.5469 18.0625 35.9844
L18.0625 36.1875
Q15.1875 36.8594 12.9062 38.375
Q10.6406 39.8906 9.09375 42.0156
Q7.5625 44.1406 6.75 46.7188
Q5.95312 49.3125 5.95312 52.2031
Q5.95312 55.8125 7.34375 59
Q8.73438 62.2031 11.4688 64.625
Q14.2031 67.0469 18.25 68.4375
Q22.3125 69.8281 27.6406 69.8281
Q33.25 69.8281 37.375 68.4062
Q41.5 67 44.2031 64.5781
Q46.9219 62.1562 48.2344 58.9375
Q49.5625 55.7188 49.5625 52.0938
Q49.5625 49.2656 48.75 46.6719
Q47.9531 44.0938 46.4062 41.9688
Q44.875 39.8438 42.5938 38.3438
Q40.3281 36.8594 37.3594 36.2812
L37.3594 36.0781
Q40.3281 35.5938 42.8594 34.2969
Q45.4062 33.0156 47.2656 30.8906
Q49.125 28.7656 50.1875 25.8281
Q51.2656 22.9062 51.2656 19.1875
M40.4375 51.6094
Q40.4375 54.2031 39.7656 56.3438
Q39.1094 58.5 37.5938 60.0312
Q36.0781 61.5781 33.6406 62.4219
Q31.2031 63.2812 27.6406 63.2812
Q24.1719 63.2812 21.7812 62.4219
Q19.3906 61.5781 17.8438 60.0312
Q16.3125 58.5 15.625 56.3438
Q14.9375 54.2031 14.9375 51.6094
Q14.9375 49.5625 15.4688 47.4062
Q16.0156 45.2656 17.4219 43.5
Q18.8438 41.75 21.3281 40.625
Q23.8281 39.5 27.7344 39.5
Q31.8906 39.5 34.4062 40.625
Q36.9219 41.75 38.25 43.5
Q39.5938 45.2656 40.0156 47.4062
Q40.4375 49.5625 40.4375 51.6094
M42.1406 20.0156
Q42.1406 22.5156 41.4531 24.8281
Q40.7656 27.1562 39.1094 28.9375
Q37.4531 30.7188 34.6406 31.8125
Q31.8438 32.9062 27.6406 32.9062
Q23.7812 32.9062 21.0625 31.8125
Q18.3594 30.7188 16.6719 28.9062
Q14.9844 27.0938 14.2031 24.7188
Q13.4219 22.3594 13.4219 19.8281
Q13.4219 16.6562 14.2031 14.0312
Q14.9844 11.4219 16.6875 9.54688
Q18.4062 7.67188 21.1875 6.64062
Q23.9688 5.60938 27.9375 5.60938
Q31.9375 5.60938 34.6719 6.64062
Q37.4062 7.67188 39.0625 9.54688
Q40.7188 11.4219 41.4219 14.0781
Q42.1406 16.75 42.1406 20.0156" id="LiberationSans-38"/>
      </defs>
      <g style="fill:#262626;" transform="translate(273.442379713 258.7375)scale(0.08 -0.08)">
       <use xlink:href="#LiberationSans-66"/>
       <use x="27.783203125" xlink:href="#LiberationSans-63"/>
       <use x="77.783203125" xlink:href="#LiberationSans-38"/>
      </g>
     </g>
    </g>
    <g id="text_20">
     <!-- layer -->
     <defs>
      <path d="
M13.4844 24.5625
Q13.4844 20.4062 14.3281 16.9062
Q15.1875 13.4219 16.9688 10.9062
Q18.75 8.40625 21.5312 7
Q24.3125 5.60938 28.2188 5.60938
Q33.9375 5.60938 37.375 7.90625
Q40.8281 10.2031 42.0469 13.7188
L49.75 11.5312
Q48.9219 9.32812 47.4375 7.10938
Q45.9531 4.89062 43.4531 3.09375
Q40.9688 1.3125 37.2344 0.15625
Q33.5 -0.984375 28.2188 -0.984375
Q16.5 -0.984375 10.375 6
Q4.25 12.9844 4.25 26.7656
Q4.25 34.1875 6.09375 39.3281
Q7.95312 44.4844 11.1719 47.7031
Q14.4062 50.9219 18.7031 52.3594
Q23 53.8125 27.875 53.8125
Q34.5156 53.8125 38.9844 51.6562
Q43.4531 49.5156 46.1562 45.7188
Q48.875 41.9375 50.0156 36.8125
Q51.1719 31.6875 51.1719 25.7344
L51.1719 24.5625
z

M42.0938 31.2969
Q41.3594 39.6562 37.8438 43.4844
Q34.3281 47.3125 27.7344 47.3125
Q25.5312 47.3125 23.1094 46.6094
Q20.7031 45.9062 18.6562 44.0938
Q16.6094 42.2812 15.1875 39.1719
Q13.7656 36.0781 13.5781 31.2969
z
" id="LiberationSans-65"/>
      <path d="
M29.5 0
Q27.6406 -4.78125 25.7031 -8.60938
Q23.7812 -12.4531 21.3906 -15.1562
Q19 -17.875 16.0625 -19.3125
Q13.1406 -20.75 9.32812 -20.75
Q7.67188 -20.75 6.25 -20.6562
Q4.82812 -20.5625 3.26562 -20.2188
L3.26562 -13.625
Q4.20312 -13.7656 5.375 -13.8438
Q6.54688 -13.9219 7.375 -13.9219
Q11.2344 -13.9219 14.5469 -11.0312
Q17.875 -8.15625 20.3594 -1.85938
L21.1875 0.25
L0.25 52.8281
L9.625 52.8281
L20.75 23.6406
Q21.2344 22.3125 21.9844 20.1094
Q22.75 17.9219 23.5 15.7188
Q24.2656 13.5312 24.8438 11.7656
Q25.4375 10.0156 25.5312 9.57812
Q25.6875 10.1094 26.25 11.6875
Q26.8125 13.2812 27.5156 15.2344
Q28.2188 17.1875 28.9531 19.1875
Q29.6875 21.1875 30.1719 22.6562
L40.5312 52.8281
L49.8125 52.8281
z
" id="LiberationSans-79"/>
      <path d="
M6.9375 0
L6.9375 40.5312
Q6.9375 42.1875 6.90625 43.9219
Q6.89062 45.6562 6.82812 47.2656
Q6.78125 48.875 6.73438 50.2812
Q6.6875 51.7031 6.64062 52.8281
L14.9375 52.8281
Q14.9844 51.7031 15.0625 50.2656
Q15.1406 48.8281 15.2031 47.3125
Q15.2812 45.7969 15.2969 44.4062
Q15.3281 43.0156 15.3281 42.0469
L15.5312 42.0469
Q16.4531 45.0625 17.5 47.2812
Q18.5625 49.5156 19.9688 50.9531
Q21.3906 52.3906 23.3438 53.0938
Q25.2969 53.8125 28.0781 53.8125
Q29.1562 53.8125 30.125 53.6406
Q31.1094 53.4688 31.6406 53.3281
L31.6406 45.2656
Q30.7656 45.5156 29.5938 45.625
Q28.4219 45.75 26.9531 45.75
Q23.9219 45.75 21.7969 44.375
Q19.6719 43.0156 18.3281 40.5938
Q17 38.1875 16.3594 34.8438
Q15.7188 31.5 15.7188 27.5469
L15.7188 0
z
" id="LiberationSans-72"/>
      <path d="
M20.2188 -0.984375
Q12.25 -0.984375 8.25 3.21875
Q4.25 7.42188 4.25 14.75
Q4.25 19.9688 6.21875 23.3125
Q8.20312 26.6562 11.3906 28.5625
Q14.5938 30.4688 18.6875 31.2031
Q22.7969 31.9375 27.0469 32.0312
L38.9219 32.2344
L38.9219 35.1094
Q38.9219 38.375 38.2344 40.6719
Q37.5469 42.9688 36.125 44.375
Q34.7188 45.7969 32.5938 46.4531
Q30.4688 47.125 27.5938 47.125
Q25.0469 47.125 23 46.75
Q20.9531 46.3906 19.4375 45.4375
Q17.9219 44.4844 16.9844 42.8438
Q16.0625 41.2188 15.7656 38.7188
L6.59375 39.5469
Q7.07812 42.6719 8.4375 45.2812
Q9.8125 47.9062 12.3281 49.7969
Q14.8438 51.7031 18.625 52.75
Q22.4062 53.8125 27.7812 53.8125
Q37.75 53.8125 42.7656 49.2344
Q47.7969 44.6719 47.7969 36.0312
L47.7969 13.2812
Q47.7969 9.375 48.8281 7.39062
Q49.8594 5.42188 52.7344 5.42188
Q53.4688 5.42188 54.2031 5.51562
Q54.9375 5.60938 55.6094 5.76562
L55.6094 0.296875
Q53.9531 -0.09375 52.3125 -0.28125
Q50.6875 -0.484375 48.8281 -0.484375
Q46.3438 -0.484375 44.5625 0.171875
Q42.7812 0.828125 41.6562 2.17188
Q40.5312 3.51562 39.9375 5.48438
Q39.3594 7.46875 39.2031 10.1094
L38.9219 10.1094
Q37.5 7.5625 35.8125 5.51562
Q34.125 3.46875 31.875 2.03125
Q29.6406 0.59375 26.7812 -0.1875
Q23.9219 -0.984375 20.2188 -0.984375
M22.2188 5.60938
Q26.4219 5.60938 29.5625 7.14062
Q32.7188 8.6875 34.7812 11.0781
Q36.8594 13.4844 37.8906 16.3125
Q38.9219 19.1406 38.9219 21.7344
L38.9219 26.0781
L29.2969 25.875
Q26.0781 25.8281 23.1719 25.4062
Q20.2656 25 18.0625 23.7812
Q15.875 22.5625 14.5781 20.3594
Q13.2812 18.1719 13.2812 14.5938
Q13.2812 10.2969 15.5938 7.95312
Q17.9219 5.60938 22.2188 5.60938" id="LiberationSans-61"/>
      <path d="
M6.73438 0
L6.73438 72.4688
L15.5312 72.4688
L15.5312 0
z
" id="LiberationSans-6c"/>
     </defs>
     <g style="fill:#262626;" transform="translate(161.752433289 285.610634449)scale(0.088 -0.088)">
      <use xlink:href="#LiberationSans-6c"/>
      <use x="22.216796875" xlink:href="#LiberationSans-61"/>
      <use x="77.83203125" xlink:href="#LiberationSans-79"/>
      <use x="127.83203125" xlink:href="#LiberationSans-65"/>
      <use x="183.447265625" xlink:href="#LiberationSans-72"/>
     </g>
    </g>
   </g>
   <g id="matplotlib.axis_2">
    <g id="ytick_1">
     <g id="line2d_20">
      <g>
       <use style="fill:#262626;stroke:#262626;stroke-width:0.8;" x="57.3124134521" xlink:href="#m9ceacb34a3" y="226.400909091"/>
      </g>
     </g>
     <g id="text_21">
      <!-- 0.0 -->
      <defs>
       <path d="
M9.125 0
L9.125 10.6875
L18.6562 10.6875
L18.6562 0
z
" id="LiberationSans-2e"/>
       <path d="
M51.7031 34.4219
Q51.7031 24.5156 49.8281 17.75
Q47.9531 10.9844 44.7031 6.8125
Q41.4531 2.64062 37.0625 0.828125
Q32.6719 -0.984375 27.6875 -0.984375
Q22.6562 -0.984375 18.3125 0.828125
Q13.9688 2.64062 10.7656 6.78125
Q7.5625 10.9375 5.73438 17.7031
Q3.90625 24.4688 3.90625 34.4219
Q3.90625 44.8281 5.73438 51.6406
Q7.5625 58.4531 10.7812 62.5
Q14.0156 66.5469 18.4062 68.1875
Q22.7969 69.8281 27.9844 69.8281
Q32.9062 69.8281 37.2188 68.1875
Q41.5469 66.5469 44.7656 62.5
Q48 58.4531 49.8438 51.6406
Q51.7031 44.8281 51.7031 34.4219
M42.7812 34.4219
Q42.7812 42.625 41.7969 48.0625
Q40.8281 53.5156 38.9219 56.7656
Q37.0156 60.0156 34.25 61.3594
Q31.5 62.7031 27.9844 62.7031
Q24.2656 62.7031 21.4375 61.3281
Q18.6094 59.9688 16.6719 56.7188
Q14.75 53.4688 13.7656 48.0156
Q12.7969 42.5781 12.7969 34.4219
Q12.7969 26.5156 13.7969 21.0938
Q14.7969 15.6719 16.7188 12.375
Q18.6562 9.07812 21.4375 7.64062
Q24.2188 6.20312 27.7812 6.20312
Q31.25 6.20312 34.0312 7.64062
Q36.8125 9.07812 38.7344 12.375
Q40.6719 15.6719 41.7188 21.0938
Q42.7812 26.5156 42.7812 34.4219" id="LiberationSans-30"/>
      </defs>
      <g style="fill:#262626;" transform="translate(41.2174134521 228.469659091)scale(0.08 -0.08)">
       <use xlink:href="#LiberationSans-30"/>
       <use x="55.615234375" xlink:href="#LiberationSans-2e"/>
       <use x="83.3984375" xlink:href="#LiberationSans-30"/>
      </g>
     </g>
    </g>
    <g id="ytick_2">
     <g id="line2d_21">
      <g>
       <use style="fill:#262626;stroke:#262626;stroke-width:0.8;" x="57.3124134521" xlink:href="#m9ceacb34a3" y="184.522727273"/>
      </g>
     </g>
     <g id="text_22">
      <!-- 0.2 -->
      <g style="fill:#262626;" transform="translate(41.3061634521 186.591477273)scale(0.08 -0.08)">
       <use xlink:href="#LiberationSans-30"/>
       <use x="55.615234375" xlink:href="#LiberationSans-2e"/>
       <use x="83.3984375" xlink:href="#LiberationSans-32"/>
      </g>
     </g>
    </g>
    <g id="ytick_3">
     <g id="line2d_22">
      <g>
       <use style="fill:#262626;stroke:#262626;stroke-width:0.8;" x="57.3124134521" xlink:href="#m9ceacb34a3" y="142.644545455"/>
      </g>
     </g>
     <g id="text_23">
      <!-- 0.4 -->
      <g style="fill:#262626;" transform="translate(41.1386634521 144.713295455)scale(0.08 -0.08)">
       <use xlink:href="#LiberationSans-30"/>
       <use x="55.615234375" xlink:href="#LiberationSans-2e"/>
       <use x="83.3984375" xlink:href="#LiberationSans-34"/>
      </g>
     </g>
    </g>
    <g id="ytick_4">
     <g id="line2d_23">
      <g>
       <use style="fill:#262626;stroke:#262626;stroke-width:0.8;" x="57.3124134521" xlink:href="#m9ceacb34a3" y="100.766363636"/>
      </g>
     </g>
     <g id="text_24">
      <!-- 0.6 -->
      <g style="fill:#262626;" transform="translate(41.2561634521 102.835113636)scale(0.08 -0.08)">
       <use xlink:href="#LiberationSans-30"/>
       <use x="55.615234375" xlink:href="#LiberationSans-2e"/>
       <use x="83.3984375" xlink:href="#LiberationSans-36"/>
      </g>
     </g>
    </g>
    <g id="ytick_5">
     <g id="line2d_24">
      <g>
       <use style="fill:#262626;stroke:#262626;stroke-width:0.8;" x="57.3124134521" xlink:href="#m9ceacb34a3" y="58.8881818182"/>
      </g>
     </g>
     <g id="text_25">
      <!-- 0.8 -->
      <g style="fill:#262626;" transform="translate(41.2524134521 60.9569318182)scale(0.08 -0.08)">
       <use xlink:href="#LiberationSans-30"/>
       <use x="55.615234375" xlink:href="#LiberationSans-2e"/>
       <use x="83.3984375" xlink:href="#LiberationSans-38"/>
      </g>
     </g>
    </g>
    <g id="ytick_6">
     <g id="text_26">
      <!-- 1.0 -->
      <g style="fill:#262626;" transform="translate(41.5149134521 19.07875)scale(0.08 -0.08)">
       <use xlink:href="#LiberationSans-31"/>
       <use x="55.615234375" xlink:href="#LiberationSans-2e"/>
       <use x="83.3984375" xlink:href="#LiberationSans-30"/>
      </g>
     </g>
    </g>
    <g id="text_27">
     <!-- correlation -->
     <defs>
      <path d="
M6.6875 64.0625
L6.6875 72.4688
L15.4844 72.4688
L15.4844 64.0625
z

M6.6875 0
L6.6875 52.8281
L15.4844 52.8281
L15.4844 0
z
" id="LiberationSans-69"/>
      <path d="
M27.0469 0.390625
Q25.0469 -0.140625 22.9688 -0.453125
Q20.9062 -0.78125 18.1719 -0.78125
Q7.625 -0.78125 7.625 11.1875
L7.625 46.4375
L1.51562 46.4375
L1.51562 52.8281
L7.95312 52.8281
L10.5469 64.6562
L16.4062 64.6562
L16.4062 52.8281
L26.1719 52.8281
L26.1719 46.4375
L16.4062 46.4375
L16.4062 13.0938
Q16.4062 9.28125 17.6406 7.73438
Q18.8906 6.20312 21.9688 6.20312
Q23.25 6.20312 24.4375 6.39062
Q25.6406 6.59375 27.0469 6.89062
z
" id="LiberationSans-74"/>
     </defs>
     <g style="fill:#262626;" transform="translate(34.3126634521 152.2445)rotate(-90.0)scale(0.088 -0.088)">
      <use xlink:href="#LiberationSans-63"/>
      <use x="50.0" xlink:href="#LiberationSans-6f"/>
      <use x="105.615234375" xlink:href="#LiberationSans-72"/>
      <use x="138.916015625" xlink:href="#LiberationSans-72"/>
      <use x="172.216796875" xlink:href="#LiberationSans-65"/>
      <use x="227.83203125" xlink:href="#LiberationSans-6c"/>
      <use x="250.048828125" xlink:href="#LiberationSans-61"/>
      <use x="305.6640625" xlink:href="#LiberationSans-74"/>
      <use x="333.447265625" xlink:href="#LiberationSans-69"/>
      <use x="355.6640625" xlink:href="#LiberationSans-6f"/>
      <use x="411.279296875" xlink:href="#LiberationSans-6e"/>
     </g>
    </g>
   </g>
   <g id="PathCollection_1">
    <defs>
     <path d="
M0 3.15835
C0.837605 3.15835 1.64102 2.82557 2.23329 2.23329
C2.82557 1.64102 3.15835 0.837605 3.15835 0
C3.15835 -0.837605 2.82557 -1.64102 2.23329 -2.23329
C1.64102 -2.82557 0.837605 -3.15835 0 -3.15835
C-0.837605 -3.15835 -1.64102 -2.82557 -2.23329 -2.23329
C-2.82557 -1.64102 -3.15835 -0.837605 -3.15835 0
C-3.15835 0.837605 -2.82557 1.64102 -2.23329 2.23329
C-1.64102 2.82557 -0.837605 3.15835 0 3.15835
z
" id="C0_0_34e0d5c410"/>
    </defs>
    <g clip-path="url(#p0ecfc48973)">
     <use style="fill:#66c2a5;stroke:#66c2a5;stroke-width:1.89;" x="63.2917368646" xlink:href="#C0_0_34e0d5c410" y="136.244667204"/>
    </g>
    <g clip-path="url(#p0ecfc48973)">
     <use style="fill:#66c2a5;stroke:#66c2a5;stroke-width:1.89;" x="75.2503836895" xlink:href="#C0_0_34e0d5c410" y="132.997002535"/>
    </g>
    <g clip-path="url(#p0ecfc48973)">
     <use style="fill:#66c2a5;stroke:#66c2a5;stroke-width:1.89;" x="87.2090305144" xlink:href="#C0_0_34e0d5c410" y="145.666297523"/>
    </g>
    <g clip-path="url(#p0ecfc48973)">
     <use style="fill:#66c2a5;stroke:#66c2a5;stroke-width:1.89;" x="99.1676773393" xlink:href="#C0_0_34e0d5c410" y="139.515570014"/>
    </g>
    <g clip-path="url(#p0ecfc48973)">
     <use style="fill:#66c2a5;stroke:#66c2a5;stroke-width:1.89;" x="111.126324164" xlink:href="#C0_0_34e0d5c410" y="122.336401444"/>
    </g>
    <g clip-path="url(#p0ecfc48973)">
     <use style="fill:#66c2a5;stroke:#66c2a5;stroke-width:1.89;" x="123.084970989" xlink:href="#C0_0_34e0d5c410" y="129.425715935"/>
    </g>
    <g clip-path="url(#p0ecfc48973)">
     <use style="fill:#66c2a5;stroke:#66c2a5;stroke-width:1.89;" x="135.043617814" xlink:href="#C0_0_34e0d5c410" y="123.855990365"/>
    </g>
    <g clip-path="url(#p0ecfc48973)">
     <use style="fill:#66c2a5;stroke:#66c2a5;stroke-width:1.89;" x="147.002264639" xlink:href="#C0_0_34e0d5c410" y="114.815831094"/>
    </g>
    <g clip-path="url(#p0ecfc48973)">
     <use style="fill:#66c2a5;stroke:#66c2a5;stroke-width:1.89;" x="158.960911464" xlink:href="#C0_0_34e0d5c410" y="101.264980559"/>
    </g>
    <g clip-path="url(#p0ecfc48973)">
     <use style="fill:#66c2a5;stroke:#66c2a5;stroke-width:1.89;" x="170.919558289" xlink:href="#C0_0_34e0d5c410" y="98.991463831"/>
    </g>
    <g clip-path="url(#p0ecfc48973)">
     <use style="fill:#66c2a5;stroke:#66c2a5;stroke-width:1.89;" x="182.878205113" xlink:href="#C0_0_34e0d5c410" y="100.322080458"/>
    </g>
    <g clip-path="url(#p0ecfc48973)">
     <use style="fill:#66c2a5;stroke:#66c2a5;stroke-width:1.89;" x="194.836851938" xlink:href="#C0_0_34e0d5c410" y="98.136865293"/>
    </g>
    <g clip-path="url(#p0ecfc48973)">
     <use style="fill:#66c2a5;stroke:#66c2a5;stroke-width:1.89;" x="206.795498763" xlink:href="#C0_0_34e0d5c410" y="114.34751908"/>
    </g>
    <g clip-path="url(#p0ecfc48973)">
     <use style="fill:#66c2a5;stroke:#66c2a5;stroke-width:1.89;" x="218.754145588" xlink:href="#C0_0_34e0d5c410" y="116.669727453"/>
    </g>
    <g clip-path="url(#p0ecfc48973)">
     <use style="fill:#66c2a5;stroke:#66c2a5;stroke-width:1.89;" x="230.712792413" xlink:href="#C0_0_34e0d5c410" y="110.23579748"/>
    </g>
    <g clip-path="url(#p0ecfc48973)">
     <use style="fill:#66c2a5;stroke:#66c2a5;stroke-width:1.89;" x="242.671439238" xlink:href="#C0_0_34e0d5c410" y="110.914652684"/>
    </g>
    <g clip-path="url(#p0ecfc48973)">
     <use style="fill:#66c2a5;stroke:#66c2a5;stroke-width:1.89;" x="254.630086063" xlink:href="#C0_0_34e0d5c410" y="120.055365955"/>
    </g>
    <g clip-path="url(#p0ecfc48973)">
     <use style="fill:#66c2a5;stroke:#66c2a5;stroke-width:1.89;" x="266.588732888" xlink:href="#C0_0_34e0d5c410" y="122.862173747"/>
    </g>
    <g clip-path="url(#p0ecfc48973)">
     <use style="fill:#66c2a5;stroke:#66c2a5;stroke-width:1.89;" x="278.547379713" xlink:href="#C0_0_34e0d5c410" y="163.733591067"/>
    </g>
   </g>
   <g id="line2d_25">
    <path clip-path="url(#p0ecfc48973)" d="
M63.2917 136.245
L75.2504 132.997
L87.209 145.666
L99.1677 139.516
L111.126 122.336
L123.085 129.426
L135.044 123.856
L147.002 114.816
L158.961 101.265
L170.92 98.9915
L182.878 100.322
L194.837 98.1369
L206.795 114.348
L218.754 116.67
L230.713 110.236
L242.671 110.915
L254.63 120.055
L266.589 122.862
L278.547 163.734" style="fill:none;stroke:#66c2a5;stroke-linecap:round;stroke-width:2.52;"/>
   </g>
   <g id="line2d_26">
    <path clip-path="url(#p0ecfc48973)" d="
M63.2917 136.245
L63.2917 136.245" style="fill:none;stroke:#66c2a5;stroke-linecap:round;stroke-width:2.52;"/>
   </g>
   <g id="line2d_27">
    <path clip-path="url(#p0ecfc48973)" d="
M75.2504 132.997
L75.2504 132.997" style="fill:none;stroke:#66c2a5;stroke-linecap:round;stroke-width:2.52;"/>
   </g>
   <g id="line2d_28">
    <path clip-path="url(#p0ecfc48973)" d="
M87.209 145.666
L87.209 145.666" style="fill:none;stroke:#66c2a5;stroke-linecap:round;stroke-width:2.52;"/>
   </g>
   <g id="line2d_29">
    <path clip-path="url(#p0ecfc48973)" d="
M99.1677 139.516
L99.1677 139.516" style="fill:none;stroke:#66c2a5;stroke-linecap:round;stroke-width:2.52;"/>
   </g>
   <g id="line2d_30">
    <path clip-path="url(#p0ecfc48973)" d="
M111.126 122.336
L111.126 122.336" style="fill:none;stroke:#66c2a5;stroke-linecap:round;stroke-width:2.52;"/>
   </g>
   <g id="line2d_31">
    <path clip-path="url(#p0ecfc48973)" d="
M123.085 129.426
L123.085 129.426" style="fill:none;stroke:#66c2a5;stroke-linecap:round;stroke-width:2.52;"/>
   </g>
   <g id="line2d_32">
    <path clip-path="url(#p0ecfc48973)" d="
M135.044 123.856
L135.044 123.856" style="fill:none;stroke:#66c2a5;stroke-linecap:round;stroke-width:2.52;"/>
   </g>
   <g id="line2d_33">
    <path clip-path="url(#p0ecfc48973)" d="
M147.002 114.816
L147.002 114.816" style="fill:none;stroke:#66c2a5;stroke-linecap:round;stroke-width:2.52;"/>
   </g>
   <g id="line2d_34">
    <path clip-path="url(#p0ecfc48973)" d="
M158.961 101.265
L158.961 101.265" style="fill:none;stroke:#66c2a5;stroke-linecap:round;stroke-width:2.52;"/>
   </g>
   <g id="line2d_35">
    <path clip-path="url(#p0ecfc48973)" d="
M170.92 98.9915
L170.92 98.9915" style="fill:none;stroke:#66c2a5;stroke-linecap:round;stroke-width:2.52;"/>
   </g>
   <g id="line2d_36">
    <path clip-path="url(#p0ecfc48973)" d="
M182.878 100.322
L182.878 100.322" style="fill:none;stroke:#66c2a5;stroke-linecap:round;stroke-width:2.52;"/>
   </g>
   <g id="line2d_37">
    <path clip-path="url(#p0ecfc48973)" d="
M194.837 98.1369
L194.837 98.1369" style="fill:none;stroke:#66c2a5;stroke-linecap:round;stroke-width:2.52;"/>
   </g>
   <g id="line2d_38">
    <path clip-path="url(#p0ecfc48973)" d="
M206.795 114.348
L206.795 114.348" style="fill:none;stroke:#66c2a5;stroke-linecap:round;stroke-width:2.52;"/>
   </g>
   <g id="line2d_39">
    <path clip-path="url(#p0ecfc48973)" d="
M218.754 116.67
L218.754 116.67" style="fill:none;stroke:#66c2a5;stroke-linecap:round;stroke-width:2.52;"/>
   </g>
   <g id="line2d_40">
    <path clip-path="url(#p0ecfc48973)" d="
M230.713 110.236
L230.713 110.236" style="fill:none;stroke:#66c2a5;stroke-linecap:round;stroke-width:2.52;"/>
   </g>
   <g id="line2d_41">
    <path clip-path="url(#p0ecfc48973)" d="
M242.671 110.915
L242.671 110.915" style="fill:none;stroke:#66c2a5;stroke-linecap:round;stroke-width:2.52;"/>
   </g>
   <g id="line2d_42">
    <path clip-path="url(#p0ecfc48973)" d="
M254.63 120.055
L254.63 120.055" style="fill:none;stroke:#66c2a5;stroke-linecap:round;stroke-width:2.52;"/>
   </g>
   <g id="line2d_43">
    <path clip-path="url(#p0ecfc48973)" d="
M266.589 122.862
L266.589 122.862" style="fill:none;stroke:#66c2a5;stroke-linecap:round;stroke-width:2.52;"/>
   </g>
   <g id="line2d_44">
    <path clip-path="url(#p0ecfc48973)" d="
M278.547 163.734
L278.547 163.734" style="fill:none;stroke:#66c2a5;stroke-linecap:round;stroke-width:2.52;"/>
   </g>
   <g id="PathCollection_2">
    <defs>
     <path d="
M0 3.15835
C0.837605 3.15835 1.64102 2.82557 2.23329 2.23329
C2.82557 1.64102 3.15835 0.837605 3.15835 0
C3.15835 -0.837605 2.82557 -1.64102 2.23329 -2.23329
C1.64102 -2.82557 0.837605 -3.15835 0 -3.15835
C-0.837605 -3.15835 -1.64102 -2.82557 -2.23329 -2.23329
C-2.82557 -1.64102 -3.15835 -0.837605 -3.15835 0
C-3.15835 0.837605 -2.82557 1.64102 -2.23329 2.23329
C-1.64102 2.82557 -0.837605 3.15835 0 3.15835
z
" id="C1_0_34e0d5c410"/>
    </defs>
    <g clip-path="url(#p0ecfc48973)">
     <use style="fill:#fa8e63;stroke:#fa8e63;stroke-width:1.89;" x="63.2917368646" xlink:href="#C1_0_34e0d5c410" y="229.370252923"/>
    </g>
    <g clip-path="url(#p0ecfc48973)">
     <use style="fill:#fa8e63;stroke:#fa8e63;stroke-width:1.89;" x="75.2503836895" xlink:href="#C1_0_34e0d5c410" y="230.73361303"/>
    </g>
    <g clip-path="url(#p0ecfc48973)">
     <use style="fill:#fa8e63;stroke:#fa8e63;stroke-width:1.89;" x="87.2090305144" xlink:href="#C1_0_34e0d5c410" y="231.521200935"/>
    </g>
    <g clip-path="url(#p0ecfc48973)">
     <use style="fill:#fa8e63;stroke:#fa8e63;stroke-width:1.89;" x="99.1676773393" xlink:href="#C1_0_34e0d5c410" y="230.394734008"/>
    </g>
    <g clip-path="url(#p0ecfc48973)">
     <use style="fill:#fa8e63;stroke:#fa8e63;stroke-width:1.89;" x="111.126324164" xlink:href="#C1_0_34e0d5c410" y="232.56821225"/>
    </g>
    <g clip-path="url(#p0ecfc48973)">
     <use style="fill:#fa8e63;stroke:#fa8e63;stroke-width:1.89;" x="123.084970989" xlink:href="#C1_0_34e0d5c410" y="232.158007934"/>
    </g>
    <g clip-path="url(#p0ecfc48973)">
     <use style="fill:#fa8e63;stroke:#fa8e63;stroke-width:1.89;" x="135.043617814" xlink:href="#C1_0_34e0d5c410" y="231.85644136"/>
    </g>
    <g clip-path="url(#p0ecfc48973)">
     <use style="fill:#fa8e63;stroke:#fa8e63;stroke-width:1.89;" x="147.002264639" xlink:href="#C1_0_34e0d5c410" y="230.872767212"/>
    </g>
    <g clip-path="url(#p0ecfc48973)">
     <use style="fill:#fa8e63;stroke:#fa8e63;stroke-width:1.89;" x="158.960911464" xlink:href="#C1_0_34e0d5c410" y="232.195015198"/>
    </g>
    <g clip-path="url(#p0ecfc48973)">
     <use style="fill:#fa8e63;stroke:#fa8e63;stroke-width:1.89;" x="170.919558289" xlink:href="#C1_0_34e0d5c410" y="233.816160847"/>
    </g>
    <g clip-path="url(#p0ecfc48973)">
     <use style="fill:#fa8e63;stroke:#fa8e63;stroke-width:1.89;" x="182.878205113" xlink:href="#C1_0_34e0d5c410" y="234.085378748"/>
    </g>
    <g clip-path="url(#p0ecfc48973)">
     <use style="fill:#fa8e63;stroke:#fa8e63;stroke-width:1.89;" x="194.836851938" xlink:href="#C1_0_34e0d5c410" y="232.110242332"/>
    </g>
    <g clip-path="url(#p0ecfc48973)">
     <use style="fill:#fa8e63;stroke:#fa8e63;stroke-width:1.89;" x="206.795498763" xlink:href="#C1_0_34e0d5c410" y="229.34868272"/>
    </g>
    <g clip-path="url(#p0ecfc48973)">
     <use style="fill:#fa8e63;stroke:#fa8e63;stroke-width:1.89;" x="218.754145588" xlink:href="#C1_0_34e0d5c410" y="225.683019676"/>
    </g>
    <g clip-path="url(#p0ecfc48973)">
     <use style="fill:#fa8e63;stroke:#fa8e63;stroke-width:1.89;" x="230.712792413" xlink:href="#C1_0_34e0d5c410" y="220.768418845"/>
    </g>
    <g clip-path="url(#p0ecfc48973)">
     <use style="fill:#fa8e63;stroke:#fa8e63;stroke-width:1.89;" x="242.671439238" xlink:href="#C1_0_34e0d5c410" y="203.575284767"/>
    </g>
    <g clip-path="url(#p0ecfc48973)">
     <use style="fill:#fa8e63;stroke:#fa8e63;stroke-width:1.89;" x="254.630086063" xlink:href="#C1_0_34e0d5c410" y="186.321052479"/>
    </g>
    <g clip-path="url(#p0ecfc48973)">
     <use style="fill:#fa8e63;stroke:#fa8e63;stroke-width:1.89;" x="266.588732888" xlink:href="#C1_0_34e0d5c410" y="183.515507906"/>
    </g>
    <g clip-path="url(#p0ecfc48973)">
     <use style="fill:#fa8e63;stroke:#fa8e63;stroke-width:1.89;" x="278.547379713" xlink:href="#C1_0_34e0d5c410" y="168.551538576"/>
    </g>
   </g>
   <g id="line2d_45">
    <path clip-path="url(#p0ecfc48973)" d="
M63.2917 229.37
L75.2504 230.734
L87.209 231.521
L99.1677 230.395
L111.126 232.568
L123.085 232.158
L135.044 231.856
L147.002 230.873
L158.961 232.195
L170.92 233.816
L182.878 234.085
L194.837 232.11
L206.795 229.349
L218.754 225.683
L230.713 220.768
L242.671 203.575
L254.63 186.321
L266.589 183.516
L278.547 168.552" style="fill:none;stroke:#fa8e63;stroke-linecap:round;stroke-width:2.52;"/>
   </g>
   <g id="line2d_46">
    <path clip-path="url(#p0ecfc48973)" d="
M63.2917 229.37
L63.2917 229.37" style="fill:none;stroke:#fa8e63;stroke-linecap:round;stroke-width:2.52;"/>
   </g>
   <g id="line2d_47">
    <path clip-path="url(#p0ecfc48973)" d="
M75.2504 230.734
L75.2504 230.734" style="fill:none;stroke:#fa8e63;stroke-linecap:round;stroke-width:2.52;"/>
   </g>
   <g id="line2d_48">
    <path clip-path="url(#p0ecfc48973)" d="
M87.209 231.521
L87.209 231.521" style="fill:none;stroke:#fa8e63;stroke-linecap:round;stroke-width:2.52;"/>
   </g>
   <g id="line2d_49">
    <path clip-path="url(#p0ecfc48973)" d="
M99.1677 230.395
L99.1677 230.395" style="fill:none;stroke:#fa8e63;stroke-linecap:round;stroke-width:2.52;"/>
   </g>
   <g id="line2d_50">
    <path clip-path="url(#p0ecfc48973)" d="
M111.126 232.568
L111.126 232.568" style="fill:none;stroke:#fa8e63;stroke-linecap:round;stroke-width:2.52;"/>
   </g>
   <g id="line2d_51">
    <path clip-path="url(#p0ecfc48973)" d="
M123.085 232.158
L123.085 232.158" style="fill:none;stroke:#fa8e63;stroke-linecap:round;stroke-width:2.52;"/>
   </g>
   <g id="line2d_52">
    <path clip-path="url(#p0ecfc48973)" d="
M135.044 231.856
L135.044 231.856" style="fill:none;stroke:#fa8e63;stroke-linecap:round;stroke-width:2.52;"/>
   </g>
   <g id="line2d_53">
    <path clip-path="url(#p0ecfc48973)" d="
M147.002 230.873
L147.002 230.873" style="fill:none;stroke:#fa8e63;stroke-linecap:round;stroke-width:2.52;"/>
   </g>
   <g id="line2d_54">
    <path clip-path="url(#p0ecfc48973)" d="
M158.961 232.195
L158.961 232.195" style="fill:none;stroke:#fa8e63;stroke-linecap:round;stroke-width:2.52;"/>
   </g>
   <g id="line2d_55">
    <path clip-path="url(#p0ecfc48973)" d="
M170.92 233.816
L170.92 233.816" style="fill:none;stroke:#fa8e63;stroke-linecap:round;stroke-width:2.52;"/>
   </g>
   <g id="line2d_56">
    <path clip-path="url(#p0ecfc48973)" d="
M182.878 234.085
L182.878 234.085" style="fill:none;stroke:#fa8e63;stroke-linecap:round;stroke-width:2.52;"/>
   </g>
   <g id="line2d_57">
    <path clip-path="url(#p0ecfc48973)" d="
M194.837 232.11
L194.837 232.11" style="fill:none;stroke:#fa8e63;stroke-linecap:round;stroke-width:2.52;"/>
   </g>
   <g id="line2d_58">
    <path clip-path="url(#p0ecfc48973)" d="
M206.795 229.349
L206.795 229.349" style="fill:none;stroke:#fa8e63;stroke-linecap:round;stroke-width:2.52;"/>
   </g>
   <g id="line2d_59">
    <path clip-path="url(#p0ecfc48973)" d="
M218.754 225.683
L218.754 225.683" style="fill:none;stroke:#fa8e63;stroke-linecap:round;stroke-width:2.52;"/>
   </g>
   <g id="line2d_60">
    <path clip-path="url(#p0ecfc48973)" d="
M230.713 220.768
L230.713 220.768" style="fill:none;stroke:#fa8e63;stroke-linecap:round;stroke-width:2.52;"/>
   </g>
   <g id="line2d_61">
    <path clip-path="url(#p0ecfc48973)" d="
M242.671 203.575
L242.671 203.575" style="fill:none;stroke:#fa8e63;stroke-linecap:round;stroke-width:2.52;"/>
   </g>
   <g id="line2d_62">
    <path clip-path="url(#p0ecfc48973)" d="
M254.63 186.321
L254.63 186.321" style="fill:none;stroke:#fa8e63;stroke-linecap:round;stroke-width:2.52;"/>
   </g>
   <g id="line2d_63">
    <path clip-path="url(#p0ecfc48973)" d="
M266.589 183.516
L266.589 183.516" style="fill:none;stroke:#fa8e63;stroke-linecap:round;stroke-width:2.52;"/>
   </g>
   <g id="line2d_64">
    <path clip-path="url(#p0ecfc48973)" d="
M278.547 168.552
L278.547 168.552" style="fill:none;stroke:#fa8e63;stroke-linecap:round;stroke-width:2.52;"/>
   </g>
   <g id="patch_3">
    <path d="
M57.3124 247.34
L284.527 247.34" style="fill:none;stroke:#262626;stroke-linecap:square;stroke-linejoin:miter;stroke-width:1.25;"/>
   </g>
   <g id="patch_4">
    <path d="
M57.3124 247.34
L57.3124 17.01" style="fill:none;stroke:#262626;stroke-linecap:square;stroke-linejoin:miter;stroke-width:1.25;"/>
   </g>
   <g id="text_28">
    <!-- VGG-19 -->
    <defs>
     <path d="
M5.03125 34.7188
Q5.03125 42.7812 7.20312 49.2656
Q9.375 55.7656 13.6875 60.3281
Q18.0156 64.8906 24.4062 67.3594
Q30.8125 69.8281 39.2656 69.8281
Q45.6094 69.8281 50.3906 68.7031
Q55.1719 67.5781 58.6875 65.4688
Q62.2031 63.375 64.6406 60.375
Q67.0938 57.375 68.7969 53.6094
L59.9062 50.9844
Q58.6406 53.5156 56.8594 55.5938
Q55.0781 57.6719 52.5312 59.125
Q50 60.5938 46.6562 61.3906
Q43.3125 62.2031 39.0156 62.2031
Q32.7656 62.2031 28.1406 60.25
Q23.5312 58.2969 20.5 54.6875
Q17.4844 51.0781 15.9844 46
Q14.5 40.9219 14.5 34.7188
Q14.5 28.5156 16.1094 23.3594
Q17.7188 18.2188 20.8906 14.4844
Q24.0781 10.75 28.7812 8.67188
Q33.5 6.59375 39.7031 6.59375
Q43.75 6.59375 47.1719 7.26562
Q50.5938 7.95312 53.3438 9.04688
Q56.1094 10.1562 58.2031 11.5
Q60.2969 12.8438 61.7188 14.2031
L61.7188 26.6094
L41.1562 26.6094
L41.1562 34.4219
L70.3125 34.4219
L70.3125 10.6875
Q68.0156 8.34375 64.9062 6.21875
Q61.8125 4.10938 57.9531 2.48438
Q54.1094 0.875 49.5156 -0.046875
Q44.9219 -0.984375 39.7031 -0.984375
Q31 -0.984375 24.5 1.67188
Q18.0156 4.34375 13.6875 9.10938
Q9.375 13.875 7.20312 20.4062
Q5.03125 26.9531 5.03125 34.7188" id="LiberationSans-47"/>
     <path d="
M38.1875 0
L28.5156 0
L0.4375 68.7969
L10.25 68.7969
L29.2969 20.3594
Q30.0312 18.1719 30.7656 15.9844
Q31.5 13.8125 32.0781 12.1094
Q32.7656 10.1094 33.4062 8.20312
Q33.9844 10.0156 34.6719 12.0156
Q35.25 13.7188 35.9531 15.8594
Q36.6719 18.0156 37.5 20.3594
L56.4531 68.7969
L66.2656 68.7969
z
" id="LiberationSans-56"/>
     <path d="
M4.4375 22.6562
L4.4375 30.4688
L28.8594 30.4688
L28.8594 22.6562
z
" id="LiberationSans-2d"/>
     <path d="
M50.875 35.7969
Q50.875 26.6094 49.1406 19.7031
Q47.4062 12.7969 44.1875 8.20312
Q40.9688 3.60938 36.3438 1.3125
Q31.7344 -0.984375 25.9844 -0.984375
Q22.0156 -0.984375 18.8438 -0.171875
Q15.6719 0.640625 13.1719 2.34375
Q10.6875 4.04688 8.92188 6.78125
Q7.17188 9.51562 6.10938 13.375
L14.5 14.7031
Q15.875 10.25 18.7812 8.17188
Q21.6875 6.10938 26.125 6.10938
Q29.6875 6.10938 32.6406 7.78125
Q35.5938 9.46875 37.6719 12.8438
Q39.75 16.2188 40.9219 21.2969
Q42.0938 26.375 42.1875 33.2031
Q41.1562 30.9062 39.375 29.0938
Q37.5938 27.2969 35.3281 26.0469
Q33.0625 24.8125 30.4219 24.1406
Q27.7812 23.4844 25.0938 23.4844
Q20.4062 23.4844 16.625 25.1719
Q12.8438 26.8594 10.2031 29.875
Q7.5625 32.9062 6.125 37.1719
Q4.6875 41.4531 4.6875 46.6875
Q4.6875 52 6.21875 56.2969
Q7.76562 60.5938 10.6875 63.5938
Q13.625 66.6094 17.8906 68.2188
Q22.1719 69.8281 27.5938 69.8281
Q39.0625 69.8281 44.9688 61.3281
Q50.875 52.8281 50.875 35.7969
M41.3125 44.2812
Q41.3125 48.0938 40.4062 51.4531
Q39.5 54.8281 37.7188 57.3125
Q35.9375 59.8125 33.3281 61.25
Q30.7188 62.7031 27.2969 62.7031
Q24.125 62.7031 21.5781 61.5781
Q19.0469 60.4531 17.2812 58.375
Q15.5312 56.2969 14.5781 53.3125
Q13.625 50.3438 13.625 46.6875
Q13.625 43.2188 14.4688 40.2344
Q15.3281 37.25 17.0312 35.0781
Q18.75 32.9062 21.2812 31.6562
Q23.8281 30.4219 27.2031 30.4219
Q29.6406 30.4219 32.1562 31.25
Q34.6719 32.0781 36.6875 33.7812
Q38.7188 35.5 40.0156 38.1094
Q41.3125 40.7188 41.3125 44.2812" id="LiberationSans-39"/>
    </defs>
    <g style="fill:#262626;" transform="translate(153.562308289 12.01)scale(0.096 -0.096)">
     <use xlink:href="#LiberationSans-56"/>
     <use x="66.69921875" xlink:href="#LiberationSans-47"/>
     <use x="144.482421875" xlink:href="#LiberationSans-47"/>
     <use x="222.265625" xlink:href="#LiberationSans-2d"/>
     <use x="255.56640625" xlink:href="#LiberationSans-31"/>
     <use x="311.181640625" xlink:href="#LiberationSans-39"/>
    </g>
   </g>
  </g>
  <g id="legend_1">
   <g id="text_29">
    <!-- kind -->
    <defs>
     <path d="
M40.0938 8.5
Q37.6406 3.42188 33.6094 1.21875
Q29.5938 -0.984375 23.6406 -0.984375
Q13.625 -0.984375 8.90625 5.75
Q4.20312 12.5 4.20312 26.1719
Q4.20312 53.8125 23.6406 53.8125
Q29.6406 53.8125 33.6406 51.6094
Q37.6406 49.4219 40.0938 44.625
L40.1875 44.625
Q40.1875 45.125 40.1562 46.1719
Q40.1406 47.2188 40.1094 48.3594
Q40.0938 49.5156 40.0938 50.5312
Q40.0938 51.5625 40.0938 52
L40.0938 72.4688
L48.875 72.4688
L48.875 10.8906
Q48.875 8.98438 48.8906 7.21875
Q48.9219 5.46875 48.9688 4
Q49.0312 2.54688 49.0781 1.48438
Q49.125 0.4375 49.1719 0
L40.7656 0
Q40.6719 0.484375 40.5938 1.39062
Q40.5312 2.29688 40.4531 3.46875
Q40.375 4.64062 40.3281 5.9375
Q40.2812 7.23438 40.2812 8.5
z

M13.4219 26.4688
Q13.4219 21 14.1094 17.0938
Q14.7969 13.1875 16.3125 10.6719
Q17.8281 8.15625 20.1719 6.98438
Q22.5156 5.8125 25.875 5.8125
Q29.3438 5.8125 32 6.9375
Q34.6719 8.0625 36.4531 10.5781
Q38.2344 13.0938 39.1562 17.1406
Q40.0938 21.1875 40.0938 27.0469
Q40.0938 32.6719 39.1562 36.5469
Q38.2344 40.4375 36.4219 42.8281
Q34.625 45.2188 32 46.2656
Q29.3906 47.3125 25.9844 47.3125
Q22.75 47.3125 20.4062 46.1875
Q18.0625 45.0625 16.5 42.5781
Q14.9375 40.0938 14.1719 36.1094
Q13.4219 32.125 13.4219 26.4688" id="LiberationSans-64"/>
     <path d="
M39.8438 0
L21.9688 24.125
L15.5312 18.7969
L15.5312 0
L6.73438 0
L6.73438 72.4688
L15.5312 72.4688
L15.5312 27.2031
L38.7188 52.8281
L49.0312 52.8281
L27.5938 30.125
L50.1406 0
z
" id="LiberationSans-6b"/>
    </defs>
    <g style="fill:#262626;" transform="translate(307.398628125 134.47678125)scale(0.0748 -0.0748)">
     <use xlink:href="#LiberationSans-6b"/>
     <use x="50.0" xlink:href="#LiberationSans-69"/>
     <use x="72.216796875" xlink:href="#LiberationSans-6e"/>
     <use x="127.83203125" xlink:href="#LiberationSans-64"/>
    </g>
   </g>
   <g id="PathCollection_3">
    <path d="
M295.403 146.885
C296.241 146.885 297.044 146.552 297.637 145.96
C298.229 145.367 298.562 144.564 298.562 143.726
C298.562 142.889 298.229 142.085 297.637 141.493
C297.044 140.901 296.241 140.568 295.403 140.568
C294.566 140.568 293.762 140.901 293.17 141.493
C292.578 142.085 292.245 142.889 292.245 143.726
C292.245 144.564 292.578 145.367 293.17 145.96
C293.762 146.552 294.566 146.885 295.403 146.885
z
" style="fill:#66c2a5;stroke:#66c2a5;stroke-width:1.89;"/>
    <path d="
M295.403 146.885
C296.241 146.885 297.044 146.552 297.637 145.96
C298.229 145.367 298.562 144.564 298.562 143.726
C298.562 142.889 298.229 142.085 297.637 141.493
C297.044 140.901 296.241 140.568 295.403 140.568
C294.566 140.568 293.762 140.901 293.17 141.493
C292.578 142.085 292.245 142.889 292.245 143.726
C292.245 144.564 292.578 145.367 293.17 145.96
C293.762 146.552 294.566 146.885 295.403 146.885
z
" style="fill:#66c2a5;stroke:#66c2a5;stroke-width:1.89;"/>
    <path d="
M295.403 146.885
C296.241 146.885 297.044 146.552 297.637 145.96
C298.229 145.367 298.562 144.564 298.562 143.726
C298.562 142.889 298.229 142.085 297.637 141.493
C297.044 140.901 296.241 140.568 295.403 140.568
C294.566 140.568 293.762 140.901 293.17 141.493
C292.578 142.085 292.245 142.889 292.245 143.726
C292.245 144.564 292.578 145.367 293.17 145.96
C293.762 146.552 294.566 146.885 295.403 146.885
z
" style="fill:#66c2a5;stroke:#66c2a5;stroke-width:1.89;"/>
   </g>
   <g id="text_30">
    <!-- shape -->
    <defs>
     <path d="
M46.3906 14.5938
Q46.3906 10.8906 44.9375 7.98438
Q43.5 5.07812 40.7656 3.09375
Q38.0312 1.125 34.0469 0.0625
Q30.0781 -0.984375 24.9531 -0.984375
Q20.3594 -0.984375 16.6719 -0.265625
Q12.9844 0.4375 10.2031 2
Q7.42188 3.5625 5.53125 6.125
Q3.65625 8.6875 2.78125 12.4062
L10.5469 13.9219
Q11.6719 9.67188 15.1875 7.6875
Q18.7031 5.71875 24.9531 5.71875
Q27.7812 5.71875 30.1406 6.10938
Q32.5156 6.5 34.2188 7.45312
Q35.9375 8.40625 36.8906 9.98438
Q37.8438 11.5781 37.8438 13.9219
Q37.8438 16.3125 36.7188 17.8438
Q35.5938 19.3906 33.5938 20.4062
Q31.5938 21.4375 28.7344 22.1875
Q25.875 22.9531 22.4688 23.875
Q19.2812 24.7031 16.1562 25.7344
Q13.0312 26.7656 10.5156 28.4375
Q8.01562 30.125 6.45312 32.6094
Q4.89062 35.1094 4.89062 38.875
Q4.89062 46.0938 10.0312 49.875
Q15.1875 53.6562 25.0469 53.6562
Q33.7969 53.6562 38.9375 50.5781
Q44.0938 47.5156 45.4531 40.7188
L37.5469 39.75
Q37.1094 41.7969 35.9375 43.1875
Q34.7656 44.5781 33.1094 45.4375
Q31.4531 46.2969 29.375 46.6562
Q27.2969 47.0156 25.0469 47.0156
Q19.0938 47.0156 16.25 45.2031
Q13.4219 43.4062 13.4219 39.75
Q13.4219 37.5938 14.4688 36.2031
Q15.5312 34.8125 17.4062 33.8594
Q19.2812 32.9062 21.9219 32.2031
Q24.5625 31.5 27.7344 30.7188
Q29.8281 30.1719 32.0312 29.5625
Q34.2344 28.9531 36.2969 28.0938
Q38.375 27.25 40.2031 26.0938
Q42.0469 24.9531 43.4062 23.3438
Q44.7812 21.7344 45.5781 19.5781
Q46.3906 17.4375 46.3906 14.5938" id="LiberationSans-73"/>
     <path d="
M51.4219 26.6562
Q51.4219 20.6562 50.4375 15.5781
Q49.4688 10.5 47.1875 6.82812
Q44.9219 3.17188 41.1875 1.09375
Q37.4531 -0.984375 31.9844 -0.984375
Q26.3125 -0.984375 22.0625 1.17188
Q17.8281 3.32812 15.5781 8.20312
L15.3281 8.20312
Q15.375 8.10938 15.4062 7.32812
Q15.4375 6.54688 15.4531 5.375
Q15.4844 4.20312 15.5 2.75
Q15.5312 1.3125 15.5312 -0.09375
L15.5312 -20.75
L6.73438 -20.75
L6.73438 42.0469
Q6.73438 43.9531 6.70312 45.7031
Q6.6875 47.4688 6.64062 48.9062
Q6.59375 50.3438 6.54688 51.3594
Q6.5 52.3906 6.45312 52.8281
L14.9375 52.8281
Q14.9844 52.6875 15.0625 51.7969
Q15.1406 50.9219 15.2031 49.6719
Q15.2812 48.4375 15.3594 47.0156
Q15.4375 45.6094 15.4375 44.3438
L15.625 44.3438
Q16.8438 46.875 18.4062 48.6562
Q19.9688 50.4375 21.9688 51.5781
Q23.9688 52.7344 26.4375 53.25
Q28.9062 53.7656 31.9844 53.7656
Q37.4531 53.7656 41.1875 51.8125
Q44.9219 49.8594 47.1875 46.3125
Q49.4688 42.7812 50.4375 37.7656
Q51.4219 32.7656 51.4219 26.6562
M42.1875 26.4688
Q42.1875 31.3438 41.5938 35.1562
Q41.0156 38.9688 39.5781 41.5938
Q38.1406 44.2344 35.7344 45.5938
Q33.3438 46.9688 29.7344 46.9688
Q26.8125 46.9688 24.2188 46.1406
Q21.625 45.3125 19.7031 42.9688
Q17.7812 40.625 16.6562 36.5
Q15.5312 32.375 15.5312 25.7812
Q15.5312 20.1719 16.4531 16.2812
Q17.3906 12.4062 19.1719 10.0156
Q20.9531 7.625 23.5781 6.5625
Q26.2188 5.51562 29.6406 5.51562
Q33.2969 5.51562 35.7188 6.92188
Q38.1406 8.34375 39.5781 11.0312
Q41.0156 13.7188 41.5938 17.5938
Q42.1875 21.4844 42.1875 26.4688" id="LiberationSans-70"/>
     <path d="
M15.4844 43.7969
Q16.9375 46.4844 18.6406 48.3594
Q20.3594 50.25 22.4062 51.4688
Q24.4688 52.6875 26.9062 53.25
Q29.3438 53.8125 32.375 53.8125
Q37.4531 53.8125 40.7031 52.4375
Q43.9531 51.0781 45.8281 48.6094
Q47.7031 46.1406 48.4062 42.7188
Q49.125 39.3125 49.125 35.2031
L49.125 0
L40.2812 0
L40.2812 33.5
Q40.2812 36.8594 39.8594 39.3906
Q39.4531 41.9375 38.2812 43.625
Q37.1094 45.3125 34.9531 46.1562
Q32.8125 47.0156 29.3906 47.0156
Q26.2656 47.0156 23.75 45.8906
Q21.2344 44.7812 19.4531 42.7188
Q17.6719 40.6719 16.6875 37.7344
Q15.7188 34.8125 15.7188 31.1562
L15.7188 0
L6.9375 0
L6.9375 72.4688
L15.7188 72.4688
L15.7188 53.6094
Q15.7188 52 15.6719 50.3906
Q15.625 48.7812 15.5469 47.4062
Q15.4844 46.0469 15.4219 45.0938
Q15.375 44.1406 15.3281 43.7969
z
" id="LiberationSans-68"/>
    </defs>
    <g style="fill:#262626;" transform="translate(309.8034375 145.82638125)scale(0.08 -0.08)">
     <use xlink:href="#LiberationSans-73"/>
     <use x="50.0" xlink:href="#LiberationSans-68"/>
     <use x="105.615234375" xlink:href="#LiberationSans-61"/>
     <use x="161.23046875" xlink:href="#LiberationSans-70"/>
     <use x="216.845703125" xlink:href="#LiberationSans-65"/>
    </g>
   </g>
   <g id="PathCollection_4">
    <path d="
M295.403 158.342
C296.241 158.342 297.044 158.009 297.637 157.417
C298.229 156.825 298.562 156.021 298.562 155.184
C298.562 154.346 298.229 153.543 297.637 152.951
C297.044 152.358 296.241 152.026 295.403 152.026
C294.566 152.026 293.762 152.358 293.17 152.951
C292.578 153.543 292.245 154.346 292.245 155.184
C292.245 156.021 292.578 156.825 293.17 157.417
C293.762 158.009 294.566 158.342 295.403 158.342
z
" style="fill:#fa8e63;stroke:#fa8e63;stroke-width:1.89;"/>
    <path d="
M295.403 158.342
C296.241 158.342 297.044 158.009 297.637 157.417
C298.229 156.825 298.562 156.021 298.562 155.184
C298.562 154.346 298.229 153.543 297.637 152.951
C297.044 152.358 296.241 152.026 295.403 152.026
C294.566 152.026 293.762 152.358 293.17 152.951
C292.578 153.543 292.245 154.346 292.245 155.184
C292.245 156.021 292.578 156.825 293.17 157.417
C293.762 158.009 294.566 158.342 295.403 158.342
z
" style="fill:#fa8e63;stroke:#fa8e63;stroke-width:1.89;"/>
    <path d="
M295.403 158.342
C296.241 158.342 297.044 158.009 297.637 157.417
C298.229 156.825 298.562 156.021 298.562 155.184
C298.562 154.346 298.229 153.543 297.637 152.951
C297.044 152.358 296.241 152.026 295.403 152.026
C294.566 152.026 293.762 152.358 293.17 152.951
C292.578 153.543 292.245 154.346 292.245 155.184
C292.245 156.021 292.578 156.825 293.17 157.417
C293.762 158.009 294.566 158.342 295.403 158.342
z
" style="fill:#fa8e63;stroke:#fa8e63;stroke-width:1.89;"/>
   </g>
   <g id="text_31">
    <!-- category -->
    <defs>
     <path d="
M26.7656 -20.75
Q22.2188 -20.75 18.7031 -19.8125
Q15.1875 -18.8906 12.6875 -17.1562
Q10.2031 -15.4375 8.64062 -13.0312
Q7.07812 -10.6406 6.39062 -7.71875
L15.2344 -6.45312
Q16.1094 -10.1094 19.1094 -12.0781
Q22.125 -14.0625 27 -14.0625
Q29.9844 -14.0625 32.4219 -13.2344
Q34.8594 -12.4062 36.5625 -10.5625
Q38.2812 -8.73438 39.2031 -5.79688
Q40.1406 -2.875 40.1406 1.3125
L40.1406 9.8125
L40.0469 9.8125
Q39.0625 7.8125 37.625 5.98438
Q36.1875 4.15625 34.1094 2.73438
Q32.0312 1.3125 29.2969 0.453125
Q26.5625 -0.390625 23.0469 -0.390625
Q18.0156 -0.390625 14.4219 1.29688
Q10.8438 2.98438 8.5625 6.34375
Q6.29688 9.71875 5.25 14.7188
Q4.20312 19.7344 4.20312 26.3125
Q4.20312 32.6719 5.25 37.75
Q6.29688 42.8281 8.65625 46.3594
Q11.0312 49.9062 14.8125 51.7812
Q18.6094 53.6562 24.0312 53.6562
Q29.6406 53.6562 33.7656 51.0938
Q37.8906 48.5312 40.1406 43.7969
L40.2344 43.7969
Q40.2344 45.0156 40.2969 46.5312
Q40.375 48.0469 40.4531 49.3906
Q40.5312 50.7344 40.625 51.7031
Q40.7188 52.6875 40.8281 52.8281
L49.1719 52.8281
Q49.125 52.3906 49.0781 51.3438
Q49.0312 50.2969 48.9688 48.8281
Q48.9219 47.3594 48.8906 45.5781
Q48.875 43.7969 48.875 41.8906
L48.875 1.51562
Q48.875 -9.57812 43.4219 -15.1562
Q37.9844 -20.75 26.7656 -20.75
M40.1406 26.4219
Q40.1406 31.9375 38.9375 35.8594
Q37.75 39.7969 35.7969 42.2812
Q33.8438 44.7812 31.3281 45.9531
Q28.8125 47.125 26.1719 47.125
Q22.7969 47.125 20.375 45.9531
Q17.9688 44.7812 16.375 42.2656
Q14.7969 39.75 14.0312 35.8125
Q13.2812 31.8906 13.2812 26.4219
Q13.2812 20.7031 14.0312 16.8125
Q14.7969 12.9375 16.3594 10.5469
Q17.9219 8.15625 20.3125 7.125
Q22.7031 6.10938 26.0312 6.10938
Q28.6562 6.10938 31.1719 7.21875
Q33.6875 8.34375 35.6875 10.7812
Q37.7031 13.2344 38.9219 17.0938
Q40.1406 20.9531 40.1406 26.4219" id="LiberationSans-67"/>
    </defs>
    <g style="fill:#262626;" transform="translate(309.8034375 157.28388125)scale(0.08 -0.08)">
     <use xlink:href="#LiberationSans-63"/>
     <use x="50.0" xlink:href="#LiberationSans-61"/>
     <use x="105.615234375" xlink:href="#LiberationSans-74"/>
     <use x="133.3984375" xlink:href="#LiberationSans-65"/>
     <use x="189.013671875" xlink:href="#LiberationSans-67"/>
     <use x="244.62890625" xlink:href="#LiberationSans-6f"/>
     <use x="300.244140625" xlink:href="#LiberationSans-72"/>
     <use x="333.544921875" xlink:href="#LiberationSans-79"/>
    </g>
   </g>
  </g>
 </g>
 <defs>
  <clipPath id="p0ecfc48973">
   <rect height="230.33" width="227.214289673" x="57.3124134521" y="17.01"/>
  </clipPath>
 </defs>
</svg>
