<?xml version="1.0" encoding="utf-8" standalone="no"?>
<!DOCTYPE svg PUBLIC "-//W3C//DTD SVG 1.1//EN"
  "http://www.w3.org/Graphics/SVG/1.1/DTD/svg11.dtd">
<!-- Created with matplotlib (http://matplotlib.org/) -->
<svg height="302pt" version="1.1" viewBox="0 0 625 302" width="625pt" xmlns="http://www.w3.org/2000/svg" xmlns:xlink="http://www.w3.org/1999/xlink">
 <defs>
  <style type="text/css">
*{stroke-linecap:butt;stroke-linejoin:round;stroke-miterlimit:100000;}
  </style>
 </defs>
 <g id="figure_1">
  <g id="patch_1">
   <path d="M 0 302.254509 
L 625.725461 302.254509 
L 625.725461 0 
L 0 0 
z
" style="fill:#ffffff;"/>
  </g>
  <g id="axes_1">
   <g id="patch_2">
    <path d="M 37.12325 254.671 
L 556.430586 254.671 
L 556.430586 19.157 
L 37.12325 19.157 
z
" style="fill:#ffffff;"/>
   </g>
   <g id="PolyCollection_1">
    <defs>
     <path d="M 50.789233 -170.865573 
L 50.789233 -151.356314 
L 78.121198 -154.87528 
L 105.453163 -142.198809 
L 132.785128 -150.067143 
L 160.117093 -166.623925 
L 187.449058 -159.246825 
L 214.781023 -165.730979 
L 242.112988 -176.237435 
L 269.444953 -191.04111 
L 296.776918 -194.010246 
L 324.108883 -192.764799 
L 351.440848 -194.407922 
L 378.772813 -177.56185 
L 406.104778 -175.150383 
L 433.436743 -182.015853 
L 460.768708 -180.232519 
L 488.100673 -170.639638 
L 515.432638 -167.762547 
L 542.764603 -126.020281 
L 542.764603 -140.695395 
L 542.764603 -140.695395 
L 515.432638 -182.23685 
L 488.100673 -184.872479 
L 460.768708 -192.847231 
L 433.436743 -192.847513 
L 406.104778 -186.265077 
L 378.772813 -188.866919 
L 351.440848 -205.060061 
L 324.108883 -202.360458 
L 296.776918 -203.933192 
L 269.444953 -201.957242 
L 242.112988 -189.153296 
L 214.781023 -180.969084 
L 187.449058 -175.892293 
L 160.117093 -183.208332 
L 132.785128 -165.574616 
L 105.453163 -160.503718 
L 78.121198 -173.865106 
L 50.789233 -170.865573 
z
" id="mb5df237e6e" style="stroke:#fa8e63;stroke-opacity:0.3;stroke-width:0.24;"/>
    </defs>
    <g clip-path="url(#pe4d8f4b8a6)">
     <use style="fill:#fa8e63;fill-opacity:0.3;stroke:#fa8e63;stroke-opacity:0.3;stroke-width:0.24;" x="0.0" xlink:href="#mb5df237e6e" y="302.254509449"/>
    </g>
   </g>
   <g id="PolyCollection_2">
    <defs>
     <path d="M 50.789233 -69.643699 
L 50.789233 -62.301098 
L 78.121198 -61.074164 
L 105.453163 -60.452501 
L 132.785128 -61.822833 
L 160.117093 -59.605839 
L 187.449058 -60.047708 
L 214.781023 -60.247823 
L 242.112988 -60.982382 
L 269.444953 -59.77632 
L 296.776918 -58.336859 
L 324.108883 -57.685986 
L 351.440848 -59.268293 
L 378.772813 -61.370562 
L 406.104778 -64.79502 
L 433.436743 -68.601618 
L 460.768708 -84.328399 
L 488.100673 -102.309612 
L 515.432638 -105.424456 
L 542.764603 -118.983438 
L 542.764603 -135.911311 
L 542.764603 -135.911311 
L 515.432638 -120.658969 
L 488.100673 -118.734597 
L 460.768708 -101.073301 
L 433.436743 -81.341367 
L 406.104778 -75.035158 
L 378.772813 -70.746616 
L 351.440848 -67.041299 
L 324.108883 -64.852007 
L 296.776918 -65.022512 
L 269.444953 -66.814512 
L 242.112988 -68.128344 
L 214.781023 -66.774103 
L 187.449058 -66.375597 
L 160.117093 -65.981963 
L 132.785128 -68.078174 
L 105.453163 -67.026784 
L 78.121198 -68.130371 
L 50.789233 -69.643699 
z
" id="m7f6cefb08d" style="stroke:#8da0cb;stroke-opacity:0.3;stroke-width:0.24;"/>
    </defs>
    <g clip-path="url(#pe4d8f4b8a6)">
     <use style="fill:#8da0cb;fill-opacity:0.3;stroke:#8da0cb;stroke-opacity:0.3;stroke-width:0.24;" x="0.0" xlink:href="#m7f6cefb08d" y="302.254509449"/>
    </g>
   </g>
   <g id="matplotlib.axis_1">
    <g id="xtick_1">
     <g id="line2d_1">
      <defs>
       <path d="M 0 0 
L 0 0 
" id="me9953edbc2" style="stroke:#262626;stroke-width:0.8;"/>
      </defs>
      <g>
       <use style="fill:#262626;stroke:#262626;stroke-width:0.8;" x="50.7892325221" xlink:href="#me9953edbc2" y="254.671"/>
      </g>
     </g>
     <g id="text_1">
      <!-- conv1_1 -->
      <defs>
       <path d="M 29.9375 0 
L 19.53125 0 
L 0.34375 52.828125 
L 9.71875 52.828125 
L 21.34375 18.453125 
Q 21.6875 17.390625 22.140625 15.84375 
Q 22.609375 14.3125 23.09375 12.640625 
Q 23.578125 10.984375 24 9.4375 
Q 24.421875 7.90625 24.703125 6.890625 
Q 25 7.90625 25.453125 9.4375 
Q 25.921875 10.984375 26.40625 12.59375 
Q 26.90625 14.203125 27.421875 15.734375 
Q 27.9375 17.28125 28.328125 18.359375 
L 40.328125 52.828125 
L 49.65625 52.828125 
z
" id="LiberationSans-76"/>
       <path d="M 13.421875 26.65625 
Q 13.421875 22.125 14.078125 18.3125 
Q 14.75 14.5 16.3125 11.734375 
Q 17.875 8.984375 20.4375 7.46875 
Q 23 5.953125 26.765625 5.953125 
Q 31.453125 5.953125 34.59375 8.484375 
Q 37.75 11.03125 38.484375 16.3125 
L 47.359375 15.71875 
Q 46.921875 12.453125 45.453125 9.421875 
Q 44 6.390625 41.484375 4.09375 
Q 38.96875 1.8125 35.34375 0.40625 
Q 31.734375 -0.984375 27 -0.984375 
Q 20.796875 -0.984375 16.453125 1.109375 
Q 12.109375 3.21875 9.390625 6.90625 
Q 6.6875 10.59375 5.46875 15.59375 
Q 4.25 20.609375 4.25 26.46875 
Q 4.25 31.78125 5.125 35.859375 
Q 6 39.9375 7.59375 42.984375 
Q 9.1875 46.046875 11.328125 48.125 
Q 13.484375 50.203125 15.984375 51.4375 
Q 18.5 52.6875 21.28125 53.25 
Q 24.078125 53.8125 26.90625 53.8125 
Q 31.34375 53.8125 34.8125 52.59375 
Q 38.28125 51.375 40.796875 49.25 
Q 43.3125 47.125 44.875 44.234375 
Q 46.4375 41.359375 47.078125 38.03125 
L 38.03125 37.359375 
Q 37.359375 41.75 34.5625 44.328125 
Q 31.78125 46.921875 26.65625 46.921875 
Q 22.90625 46.921875 20.390625 45.671875 
Q 17.875 44.4375 16.3125 41.921875 
Q 14.75 39.40625 14.078125 35.59375 
Q 13.421875 31.78125 13.421875 26.65625 
" id="LiberationSans-63"/>
       <path d="M -1.515625 -19.875 
L -1.515625 -13.53125 
L 56.734375 -13.53125 
L 56.734375 -19.875 
z
" id="LiberationSans-5f"/>
       <path d="M 40.28125 0 
L 40.28125 33.5 
Q 40.28125 37.359375 39.71875 39.9375 
Q 39.15625 42.53125 37.890625 44.109375 
Q 36.625 45.703125 34.546875 46.359375 
Q 32.46875 47.015625 29.390625 47.015625 
Q 26.265625 47.015625 23.75 45.921875 
Q 21.234375 44.828125 19.453125 42.75 
Q 17.671875 40.671875 16.6875 37.625 
Q 15.71875 34.578125 15.71875 30.609375 
L 15.71875 0 
L 6.9375 0 
L 6.9375 41.546875 
Q 6.9375 43.21875 6.90625 45.046875 
Q 6.890625 46.875 6.828125 48.5 
Q 6.78125 50.140625 6.734375 51.3125 
Q 6.6875 52.484375 6.640625 52.828125 
L 14.9375 52.828125 
Q 14.984375 52.59375 15.03125 51.515625 
Q 15.09375 50.4375 15.15625 49.046875 
Q 15.234375 47.65625 15.28125 46.21875 
Q 15.328125 44.78125 15.328125 43.796875 
L 15.484375 43.796875 
Q 16.75 46.09375 18.265625 47.953125 
Q 19.78125 49.8125 21.78125 51.09375 
Q 23.78125 52.390625 26.359375 53.09375 
Q 28.953125 53.8125 32.375 53.8125 
Q 36.765625 53.8125 39.9375 52.734375 
Q 43.109375 51.65625 45.15625 49.40625 
Q 47.21875 47.171875 48.171875 43.625 
Q 49.125 40.09375 49.125 35.203125 
L 49.125 0 
z
" id="LiberationSans-6e"/>
       <path d="M 51.421875 26.46875 
Q 51.421875 12.59375 45.3125 5.796875 
Q 39.203125 -0.984375 27.59375 -0.984375 
Q 22.078125 -0.984375 17.71875 0.671875 
Q 13.375 2.34375 10.375 5.765625 
Q 7.375 9.1875 5.78125 14.328125 
Q 4.203125 19.484375 4.203125 26.46875 
Q 4.203125 53.8125 27.875 53.8125 
Q 34.03125 53.8125 38.5 52.09375 
Q 42.96875 50.390625 45.828125 46.96875 
Q 48.6875 43.5625 50.046875 38.421875 
Q 51.421875 33.296875 51.421875 26.46875 
M 42.1875 26.46875 
Q 42.1875 32.625 41.234375 36.625 
Q 40.28125 40.625 38.453125 43.015625 
Q 36.625 45.40625 33.984375 46.359375 
Q 31.34375 47.3125 28.03125 47.3125 
Q 24.65625 47.3125 21.9375 46.3125 
Q 19.234375 45.3125 17.328125 42.890625 
Q 15.4375 40.484375 14.421875 36.46875 
Q 13.421875 32.46875 13.421875 26.46875 
Q 13.421875 20.3125 14.5 16.28125 
Q 15.578125 12.25 17.453125 9.859375 
Q 19.34375 7.46875 21.90625 6.484375 
Q 24.46875 5.515625 27.484375 5.515625 
Q 30.859375 5.515625 33.59375 6.46875 
Q 36.328125 7.421875 38.234375 9.8125 
Q 40.140625 12.203125 41.15625 16.25 
Q 42.1875 20.3125 42.1875 26.46875 
" id="LiberationSans-6f"/>
       <path d="M 7.625 0 
L 7.625 7.46875 
L 25.140625 7.46875 
L 25.140625 60.40625 
L 9.625 49.3125 
L 9.625 57.625 
L 25.875 68.796875 
L 33.984375 68.796875 
L 33.984375 7.46875 
L 50.734375 7.46875 
L 50.734375 0 
z
" id="LiberationSans-31"/>
      </defs>
      <g style="fill:#262626;" transform="translate(23.7673767164 280.413657278)rotate(-30.0)scale(0.08 -0.08)">
       <use xlink:href="#LiberationSans-63"/>
       <use x="50.0" xlink:href="#LiberationSans-6f"/>
       <use x="105.615234375" xlink:href="#LiberationSans-6e"/>
       <use x="161.23046875" xlink:href="#LiberationSans-76"/>
       <use x="211.23046875" xlink:href="#LiberationSans-31"/>
       <use x="266.845703125" xlink:href="#LiberationSans-5f"/>
       <use x="322.4609375" xlink:href="#LiberationSans-31"/>
      </g>
     </g>
    </g>
    <g id="xtick_2">
     <g id="line2d_2">
      <g>
       <use style="fill:#262626;stroke:#262626;stroke-width:0.8;" x="78.1211975663" xlink:href="#me9953edbc2" y="254.671"/>
      </g>
     </g>
     <g id="text_2">
      <!-- conv1_2 -->
      <defs>
       <path d="M 5.03125 0 
L 5.03125 6.203125 
Q 7.515625 11.921875 11.109375 16.28125 
Q 14.703125 20.65625 18.65625 24.1875 
Q 22.609375 27.734375 26.484375 30.765625 
Q 30.375 33.796875 33.5 36.8125 
Q 36.625 39.84375 38.546875 43.15625 
Q 40.484375 46.484375 40.484375 50.6875 
Q 40.484375 53.609375 39.59375 55.828125 
Q 38.71875 58.0625 37.0625 59.5625 
Q 35.40625 61.078125 33.078125 61.828125 
Q 30.765625 62.59375 27.9375 62.59375 
Q 25.296875 62.59375 22.96875 61.859375 
Q 20.65625 61.140625 18.84375 59.671875 
Q 17.046875 58.203125 15.890625 56.03125 
Q 14.75 53.859375 14.40625 50.984375 
L 5.421875 51.8125 
Q 5.859375 55.515625 7.46875 58.78125 
Q 9.078125 62.0625 11.90625 64.53125 
Q 14.75 67 18.71875 68.40625 
Q 22.703125 69.828125 27.9375 69.828125 
Q 33.0625 69.828125 37.0625 68.609375 
Q 41.0625 67.390625 43.8125 64.984375 
Q 46.578125 62.59375 48.046875 59.078125 
Q 49.515625 55.5625 49.515625 50.984375 
Q 49.515625 47.515625 48.265625 44.390625 
Q 47.015625 41.265625 44.9375 38.421875 
Q 42.875 35.59375 40.140625 32.953125 
Q 37.40625 30.328125 34.421875 27.8125 
Q 31.453125 25.296875 28.421875 22.828125 
Q 25.390625 20.359375 22.71875 17.859375 
Q 20.0625 15.375 17.96875 12.8125 
Q 15.875 10.25 14.703125 7.46875 
L 50.59375 7.46875 
L 50.59375 0 
z
" id="LiberationSans-32"/>
      </defs>
      <g style="fill:#262626;" transform="translate(51.0993417606 280.413657278)rotate(-30.0)scale(0.08 -0.08)">
       <use xlink:href="#LiberationSans-63"/>
       <use x="50.0" xlink:href="#LiberationSans-6f"/>
       <use x="105.615234375" xlink:href="#LiberationSans-6e"/>
       <use x="161.23046875" xlink:href="#LiberationSans-76"/>
       <use x="211.23046875" xlink:href="#LiberationSans-31"/>
       <use x="266.845703125" xlink:href="#LiberationSans-5f"/>
       <use x="322.4609375" xlink:href="#LiberationSans-32"/>
      </g>
     </g>
    </g>
    <g id="xtick_3">
     <g id="line2d_3">
      <g>
       <use style="fill:#262626;stroke:#262626;stroke-width:0.8;" x="105.453162611" xlink:href="#me9953edbc2" y="254.671"/>
      </g>
     </g>
     <g id="text_3">
      <!-- conv2_1 -->
      <g style="fill:#262626;" transform="translate(78.4313068048 280.413657278)rotate(-30.0)scale(0.08 -0.08)">
       <use xlink:href="#LiberationSans-63"/>
       <use x="50.0" xlink:href="#LiberationSans-6f"/>
       <use x="105.615234375" xlink:href="#LiberationSans-6e"/>
       <use x="161.23046875" xlink:href="#LiberationSans-76"/>
       <use x="211.23046875" xlink:href="#LiberationSans-32"/>
       <use x="266.845703125" xlink:href="#LiberationSans-5f"/>
       <use x="322.4609375" xlink:href="#LiberationSans-31"/>
      </g>
     </g>
    </g>
    <g id="xtick_4">
     <g id="line2d_4">
      <g>
       <use style="fill:#262626;stroke:#262626;stroke-width:0.8;" x="132.785127655" xlink:href="#me9953edbc2" y="254.671"/>
      </g>
     </g>
     <g id="text_4">
      <!-- conv2_2 -->
      <g style="fill:#262626;" transform="translate(105.763271849 280.413657278)rotate(-30.0)scale(0.08 -0.08)">
       <use xlink:href="#LiberationSans-63"/>
       <use x="50.0" xlink:href="#LiberationSans-6f"/>
       <use x="105.615234375" xlink:href="#LiberationSans-6e"/>
       <use x="161.23046875" xlink:href="#LiberationSans-76"/>
       <use x="211.23046875" xlink:href="#LiberationSans-32"/>
       <use x="266.845703125" xlink:href="#LiberationSans-5f"/>
       <use x="322.4609375" xlink:href="#LiberationSans-32"/>
      </g>
     </g>
    </g>
    <g id="xtick_5">
     <g id="line2d_5">
      <g>
       <use style="fill:#262626;stroke:#262626;stroke-width:0.8;" x="160.117092699" xlink:href="#me9953edbc2" y="254.671"/>
      </g>
     </g>
     <g id="text_5">
      <!-- conv3_1 -->
      <defs>
       <path d="M 51.21875 19 
Q 51.21875 14.265625 49.671875 10.546875 
Q 48.140625 6.84375 45.1875 4.265625 
Q 42.234375 1.703125 37.859375 0.359375 
Q 33.5 -0.984375 27.875 -0.984375 
Q 21.484375 -0.984375 17.109375 0.609375 
Q 12.75 2.203125 9.90625 4.8125 
Q 7.078125 7.421875 5.65625 10.765625 
Q 4.25 14.109375 3.8125 17.671875 
L 12.890625 18.5 
Q 13.28125 15.765625 14.328125 13.515625 
Q 15.375 11.28125 17.1875 9.671875 
Q 19 8.0625 21.625 7.171875 
Q 24.265625 6.296875 27.875 6.296875 
Q 34.515625 6.296875 38.296875 9.5625 
Q 42.09375 12.84375 42.09375 19.28125 
Q 42.09375 23.09375 40.40625 25.40625 
Q 38.71875 27.734375 36.203125 29.03125 
Q 33.6875 30.328125 30.734375 30.765625 
Q 27.78125 31.203125 25.296875 31.203125 
L 20.3125 31.203125 
L 20.3125 38.8125 
L 25.09375 38.8125 
Q 27.59375 38.8125 30.265625 39.328125 
Q 32.953125 39.84375 35.171875 41.1875 
Q 37.40625 42.53125 38.84375 44.828125 
Q 40.28125 47.125 40.28125 50.6875 
Q 40.28125 56.203125 37.03125 59.390625 
Q 33.796875 62.59375 27.390625 62.59375 
Q 21.578125 62.59375 17.984375 59.609375 
Q 14.40625 56.640625 13.8125 51.21875 
L 4.984375 51.90625 
Q 5.515625 56.453125 7.46875 59.8125 
Q 9.421875 63.1875 12.421875 65.40625 
Q 15.4375 67.625 19.28125 68.71875 
Q 23.140625 69.828125 27.484375 69.828125 
Q 33.25 69.828125 37.390625 68.375 
Q 41.546875 66.9375 44.1875 64.46875 
Q 46.828125 62.015625 48.0625 58.6875 
Q 49.3125 55.375 49.3125 51.609375 
Q 49.3125 48.578125 48.484375 45.9375 
Q 47.65625 43.3125 45.890625 41.203125 
Q 44.140625 39.109375 41.421875 37.59375 
Q 38.71875 36.078125 34.90625 35.296875 
L 34.90625 35.109375 
Q 39.0625 34.671875 42.140625 33.21875 
Q 45.21875 31.78125 47.21875 29.625 
Q 49.21875 27.484375 50.21875 24.75 
Q 51.21875 22.015625 51.21875 19 
" id="LiberationSans-33"/>
      </defs>
      <g style="fill:#262626;" transform="translate(133.095236893 280.413657278)rotate(-30.0)scale(0.08 -0.08)">
       <use xlink:href="#LiberationSans-63"/>
       <use x="50.0" xlink:href="#LiberationSans-6f"/>
       <use x="105.615234375" xlink:href="#LiberationSans-6e"/>
       <use x="161.23046875" xlink:href="#LiberationSans-76"/>
       <use x="211.23046875" xlink:href="#LiberationSans-33"/>
       <use x="266.845703125" xlink:href="#LiberationSans-5f"/>
       <use x="322.4609375" xlink:href="#LiberationSans-31"/>
      </g>
     </g>
    </g>
    <g id="xtick_6">
     <g id="line2d_6">
      <g>
       <use style="fill:#262626;stroke:#262626;stroke-width:0.8;" x="187.449057743" xlink:href="#me9953edbc2" y="254.671"/>
      </g>
     </g>
     <g id="text_6">
      <!-- conv3_2 -->
      <g style="fill:#262626;" transform="translate(160.427201937 280.413657278)rotate(-30.0)scale(0.08 -0.08)">
       <use xlink:href="#LiberationSans-63"/>
       <use x="50.0" xlink:href="#LiberationSans-6f"/>
       <use x="105.615234375" xlink:href="#LiberationSans-6e"/>
       <use x="161.23046875" xlink:href="#LiberationSans-76"/>
       <use x="211.23046875" xlink:href="#LiberationSans-33"/>
       <use x="266.845703125" xlink:href="#LiberationSans-5f"/>
       <use x="322.4609375" xlink:href="#LiberationSans-32"/>
      </g>
     </g>
    </g>
    <g id="xtick_7">
     <g id="line2d_7">
      <g>
       <use style="fill:#262626;stroke:#262626;stroke-width:0.8;" x="214.781022787" xlink:href="#me9953edbc2" y="254.671"/>
      </g>
     </g>
     <g id="text_7">
      <!-- conv3_3 -->
      <g style="fill:#262626;" transform="translate(187.759166982 280.413657278)rotate(-30.0)scale(0.08 -0.08)">
       <use xlink:href="#LiberationSans-63"/>
       <use x="50.0" xlink:href="#LiberationSans-6f"/>
       <use x="105.615234375" xlink:href="#LiberationSans-6e"/>
       <use x="161.23046875" xlink:href="#LiberationSans-76"/>
       <use x="211.23046875" xlink:href="#LiberationSans-33"/>
       <use x="266.845703125" xlink:href="#LiberationSans-5f"/>
       <use x="322.4609375" xlink:href="#LiberationSans-33"/>
      </g>
     </g>
    </g>
    <g id="xtick_8">
     <g id="line2d_8">
      <g>
       <use style="fill:#262626;stroke:#262626;stroke-width:0.8;" x="242.112987832" xlink:href="#me9953edbc2" y="254.671"/>
      </g>
     </g>
     <g id="text_8">
      <!-- conv3_4 -->
      <defs>
       <path d="M 43.015625 15.578125 
L 43.015625 0 
L 34.71875 0 
L 34.71875 15.578125 
L 2.296875 15.578125 
L 2.296875 22.40625 
L 33.796875 68.796875 
L 43.015625 68.796875 
L 43.015625 22.515625 
L 52.6875 22.515625 
L 52.6875 15.578125 
z
M 34.71875 58.890625 
Q 34.625 58.640625 34.234375 57.9375 
Q 33.84375 57.234375 33.34375 56.34375 
Q 32.859375 55.46875 32.34375 54.5625 
Q 31.84375 53.65625 31.453125 53.078125 
L 13.8125 27.09375 
Q 13.578125 26.703125 13.109375 26.0625 
Q 12.640625 25.4375 12.15625 24.78125 
Q 11.671875 24.125 11.171875 23.484375 
Q 10.6875 22.859375 10.40625 22.515625 
L 34.71875 22.515625 
z
" id="LiberationSans-34"/>
      </defs>
      <g style="fill:#262626;" transform="translate(215.091132026 280.413657278)rotate(-30.0)scale(0.08 -0.08)">
       <use xlink:href="#LiberationSans-63"/>
       <use x="50.0" xlink:href="#LiberationSans-6f"/>
       <use x="105.615234375" xlink:href="#LiberationSans-6e"/>
       <use x="161.23046875" xlink:href="#LiberationSans-76"/>
       <use x="211.23046875" xlink:href="#LiberationSans-33"/>
       <use x="266.845703125" xlink:href="#LiberationSans-5f"/>
       <use x="322.4609375" xlink:href="#LiberationSans-34"/>
      </g>
     </g>
    </g>
    <g id="xtick_9">
     <g id="line2d_9">
      <g>
       <use style="fill:#262626;stroke:#262626;stroke-width:0.8;" x="269.444952876" xlink:href="#me9953edbc2" y="254.671"/>
      </g>
     </g>
     <g id="text_9">
      <!-- conv4_1 -->
      <g style="fill:#262626;" transform="translate(242.42309707 280.413657278)rotate(-30.0)scale(0.08 -0.08)">
       <use xlink:href="#LiberationSans-63"/>
       <use x="50.0" xlink:href="#LiberationSans-6f"/>
       <use x="105.615234375" xlink:href="#LiberationSans-6e"/>
       <use x="161.23046875" xlink:href="#LiberationSans-76"/>
       <use x="211.23046875" xlink:href="#LiberationSans-34"/>
       <use x="266.845703125" xlink:href="#LiberationSans-5f"/>
       <use x="322.4609375" xlink:href="#LiberationSans-31"/>
      </g>
     </g>
    </g>
    <g id="xtick_10">
     <g id="line2d_10">
      <g>
       <use style="fill:#262626;stroke:#262626;stroke-width:0.8;" x="296.77691792" xlink:href="#me9953edbc2" y="254.671"/>
      </g>
     </g>
     <g id="text_10">
      <!-- conv4_2 -->
      <g style="fill:#262626;" transform="translate(269.755062114 280.413657278)rotate(-30.0)scale(0.08 -0.08)">
       <use xlink:href="#LiberationSans-63"/>
       <use x="50.0" xlink:href="#LiberationSans-6f"/>
       <use x="105.615234375" xlink:href="#LiberationSans-6e"/>
       <use x="161.23046875" xlink:href="#LiberationSans-76"/>
       <use x="211.23046875" xlink:href="#LiberationSans-34"/>
       <use x="266.845703125" xlink:href="#LiberationSans-5f"/>
       <use x="322.4609375" xlink:href="#LiberationSans-32"/>
      </g>
     </g>
    </g>
    <g id="xtick_11">
     <g id="line2d_11">
      <g>
       <use style="fill:#262626;stroke:#262626;stroke-width:0.8;" x="324.108882964" xlink:href="#me9953edbc2" y="254.671"/>
      </g>
     </g>
     <g id="text_11">
      <!-- conv4_3 -->
      <g style="fill:#262626;" transform="translate(297.087027158 280.413657278)rotate(-30.0)scale(0.08 -0.08)">
       <use xlink:href="#LiberationSans-63"/>
       <use x="50.0" xlink:href="#LiberationSans-6f"/>
       <use x="105.615234375" xlink:href="#LiberationSans-6e"/>
       <use x="161.23046875" xlink:href="#LiberationSans-76"/>
       <use x="211.23046875" xlink:href="#LiberationSans-34"/>
       <use x="266.845703125" xlink:href="#LiberationSans-5f"/>
       <use x="322.4609375" xlink:href="#LiberationSans-33"/>
      </g>
     </g>
    </g>
    <g id="xtick_12">
     <g id="line2d_12">
      <g>
       <use style="fill:#262626;stroke:#262626;stroke-width:0.8;" x="351.440848008" xlink:href="#me9953edbc2" y="254.671"/>
      </g>
     </g>
     <g id="text_12">
      <!-- conv4_4 -->
      <g style="fill:#262626;" transform="translate(324.418992203 280.413657278)rotate(-30.0)scale(0.08 -0.08)">
       <use xlink:href="#LiberationSans-63"/>
       <use x="50.0" xlink:href="#LiberationSans-6f"/>
       <use x="105.615234375" xlink:href="#LiberationSans-6e"/>
       <use x="161.23046875" xlink:href="#LiberationSans-76"/>
       <use x="211.23046875" xlink:href="#LiberationSans-34"/>
       <use x="266.845703125" xlink:href="#LiberationSans-5f"/>
       <use x="322.4609375" xlink:href="#LiberationSans-34"/>
      </g>
     </g>
    </g>
    <g id="xtick_13">
     <g id="line2d_13">
      <g>
       <use style="fill:#262626;stroke:#262626;stroke-width:0.8;" x="378.772813053" xlink:href="#me9953edbc2" y="254.671"/>
      </g>
     </g>
     <g id="text_13">
      <!-- conv5_1 -->
      <defs>
       <path d="M 51.421875 22.40625 
Q 51.421875 17.234375 49.859375 12.9375 
Q 48.296875 8.640625 45.21875 5.53125 
Q 42.140625 2.4375 37.578125 0.71875 
Q 33.015625 -0.984375 27 -0.984375 
Q 21.578125 -0.984375 17.546875 0.28125 
Q 13.53125 1.5625 10.734375 3.78125 
Q 7.953125 6 6.3125 8.984375 
Q 4.6875 11.96875 4 15.375 
L 12.890625 16.40625 
Q 13.421875 14.453125 14.390625 12.625 
Q 15.375 10.796875 17.0625 9.34375 
Q 18.75 7.90625 21.21875 7.046875 
Q 23.6875 6.203125 27.203125 6.203125 
Q 30.609375 6.203125 33.390625 7.25 
Q 36.1875 8.296875 38.15625 10.34375 
Q 40.140625 12.40625 41.203125 15.375 
Q 42.28125 18.359375 42.28125 22.21875 
Q 42.28125 25.390625 41.25 28.046875 
Q 40.234375 30.71875 38.328125 32.640625 
Q 36.421875 34.578125 33.65625 35.640625 
Q 30.90625 36.71875 27.390625 36.71875 
Q 25.203125 36.71875 23.34375 36.328125 
Q 21.484375 35.9375 19.890625 35.25 
Q 18.3125 34.578125 17.015625 33.671875 
Q 15.71875 32.765625 14.59375 31.78125 
L 6 31.78125 
L 8.296875 68.796875 
L 47.40625 68.796875 
L 47.40625 61.328125 
L 16.3125 61.328125 
L 14.984375 39.5 
Q 17.328125 41.3125 20.84375 42.59375 
Q 24.359375 43.890625 29.203125 43.890625 
Q 34.328125 43.890625 38.421875 42.328125 
Q 42.53125 40.765625 45.40625 37.90625 
Q 48.296875 35.0625 49.859375 31.109375 
Q 51.421875 27.15625 51.421875 22.40625 
" id="LiberationSans-35"/>
      </defs>
      <g style="fill:#262626;" transform="translate(351.750957247 280.413657278)rotate(-30.0)scale(0.08 -0.08)">
       <use xlink:href="#LiberationSans-63"/>
       <use x="50.0" xlink:href="#LiberationSans-6f"/>
       <use x="105.615234375" xlink:href="#LiberationSans-6e"/>
       <use x="161.23046875" xlink:href="#LiberationSans-76"/>
       <use x="211.23046875" xlink:href="#LiberationSans-35"/>
       <use x="266.845703125" xlink:href="#LiberationSans-5f"/>
       <use x="322.4609375" xlink:href="#LiberationSans-31"/>
      </g>
     </g>
    </g>
    <g id="xtick_14">
     <g id="line2d_14">
      <g>
       <use style="fill:#262626;stroke:#262626;stroke-width:0.8;" x="406.104778097" xlink:href="#me9953edbc2" y="254.671"/>
      </g>
     </g>
     <g id="text_14">
      <!-- conv5_2 -->
      <g style="fill:#262626;" transform="translate(379.082922291 280.413657278)rotate(-30.0)scale(0.08 -0.08)">
       <use xlink:href="#LiberationSans-63"/>
       <use x="50.0" xlink:href="#LiberationSans-6f"/>
       <use x="105.615234375" xlink:href="#LiberationSans-6e"/>
       <use x="161.23046875" xlink:href="#LiberationSans-76"/>
       <use x="211.23046875" xlink:href="#LiberationSans-35"/>
       <use x="266.845703125" xlink:href="#LiberationSans-5f"/>
       <use x="322.4609375" xlink:href="#LiberationSans-32"/>
      </g>
     </g>
    </g>
    <g id="xtick_15">
     <g id="line2d_15">
      <g>
       <use style="fill:#262626;stroke:#262626;stroke-width:0.8;" x="433.436743141" xlink:href="#me9953edbc2" y="254.671"/>
      </g>
     </g>
     <g id="text_15">
      <!-- conv5_3 -->
      <g style="fill:#262626;" transform="translate(406.414887335 280.413657278)rotate(-30.0)scale(0.08 -0.08)">
       <use xlink:href="#LiberationSans-63"/>
       <use x="50.0" xlink:href="#LiberationSans-6f"/>
       <use x="105.615234375" xlink:href="#LiberationSans-6e"/>
       <use x="161.23046875" xlink:href="#LiberationSans-76"/>
       <use x="211.23046875" xlink:href="#LiberationSans-35"/>
       <use x="266.845703125" xlink:href="#LiberationSans-5f"/>
       <use x="322.4609375" xlink:href="#LiberationSans-33"/>
      </g>
     </g>
    </g>
    <g id="xtick_16">
     <g id="line2d_16">
      <g>
       <use style="fill:#262626;stroke:#262626;stroke-width:0.8;" x="460.768708185" xlink:href="#me9953edbc2" y="254.671"/>
      </g>
     </g>
     <g id="text_16">
      <!-- conv5_4 -->
      <g style="fill:#262626;" transform="translate(433.746852379 280.413657278)rotate(-30.0)scale(0.08 -0.08)">
       <use xlink:href="#LiberationSans-63"/>
       <use x="50.0" xlink:href="#LiberationSans-6f"/>
       <use x="105.615234375" xlink:href="#LiberationSans-6e"/>
       <use x="161.23046875" xlink:href="#LiberationSans-76"/>
       <use x="211.23046875" xlink:href="#LiberationSans-35"/>
       <use x="266.845703125" xlink:href="#LiberationSans-5f"/>
       <use x="322.4609375" xlink:href="#LiberationSans-34"/>
      </g>
     </g>
    </g>
    <g id="xtick_17">
     <g id="line2d_17">
      <g>
       <use style="fill:#262626;stroke:#262626;stroke-width:0.8;" x="488.100673229" xlink:href="#me9953edbc2" y="254.671"/>
      </g>
     </g>
     <g id="text_17">
      <!-- fc6 -->
      <defs>
       <path d="M 51.21875 22.515625 
Q 51.21875 17.328125 49.78125 13 
Q 48.34375 8.6875 45.53125 5.578125 
Q 42.71875 2.484375 38.5625 0.75 
Q 34.421875 -0.984375 29 -0.984375 
Q 23 -0.984375 18.5 1.3125 
Q 14.015625 3.609375 11.03125 7.921875 
Q 8.0625 12.25 6.5625 18.53125 
Q 5.078125 24.8125 5.078125 32.8125 
Q 5.078125 42 6.765625 48.921875 
Q 8.453125 55.859375 11.625 60.5 
Q 14.796875 65.140625 19.359375 67.484375 
Q 23.921875 69.828125 29.6875 69.828125 
Q 33.203125 69.828125 36.28125 69.09375 
Q 39.359375 68.359375 41.875 66.71875 
Q 44.390625 65.09375 46.28125 62.40625 
Q 48.1875 59.71875 49.3125 55.8125 
L 40.921875 54.296875 
Q 39.546875 58.734375 36.546875 60.71875 
Q 33.546875 62.703125 29.59375 62.703125 
Q 25.984375 62.703125 23.046875 60.984375 
Q 20.125 59.28125 18.0625 55.875 
Q 16.015625 52.484375 14.90625 47.359375 
Q 13.8125 42.234375 13.8125 35.40625 
Q 16.21875 39.84375 20.5625 42.15625 
Q 24.90625 44.484375 30.515625 44.484375 
Q 35.203125 44.484375 39.015625 42.96875 
Q 42.828125 41.453125 45.53125 38.59375 
Q 48.25 35.75 49.734375 31.671875 
Q 51.21875 27.59375 51.21875 22.515625 
M 42.28125 22.125 
Q 42.28125 25.6875 41.40625 28.5625 
Q 40.53125 31.453125 38.765625 33.46875 
Q 37.015625 35.5 34.421875 36.59375 
Q 31.84375 37.703125 28.421875 37.703125 
Q 26.03125 37.703125 23.578125 36.984375 
Q 21.140625 36.28125 19.15625 34.6875 
Q 17.1875 33.109375 15.9375 30.515625 
Q 14.703125 27.9375 14.703125 24.21875 
Q 14.703125 20.40625 15.671875 17.109375 
Q 16.65625 13.8125 18.484375 11.375 
Q 20.3125 8.9375 22.890625 7.515625 
Q 25.484375 6.109375 28.71875 6.109375 
Q 31.890625 6.109375 34.40625 7.203125 
Q 36.921875 8.296875 38.671875 10.375 
Q 40.4375 12.453125 41.359375 15.421875 
Q 42.28125 18.40625 42.28125 22.125 
" id="LiberationSans-36"/>
       <path d="M 17.625 46.4375 
L 17.625 0 
L 8.84375 0 
L 8.84375 46.4375 
L 1.421875 46.4375 
L 1.421875 52.828125 
L 8.84375 52.828125 
L 8.84375 58.796875 
Q 8.84375 61.671875 9.375 64.140625 
Q 9.90625 66.609375 11.34375 68.4375 
Q 12.796875 70.265625 15.28125 71.3125 
Q 17.78125 72.359375 21.734375 72.359375 
Q 23.296875 72.359375 24.96875 72.21875 
Q 26.65625 72.078125 27.9375 71.78125 
L 27.9375 65.09375 
Q 27.09375 65.234375 26 65.359375 
Q 24.90625 65.484375 24.03125 65.484375 
Q 22.078125 65.484375 20.828125 64.9375 
Q 19.578125 64.40625 18.875 63.40625 
Q 18.171875 62.40625 17.890625 60.9375 
Q 17.625 59.46875 17.625 57.5625 
L 17.625 52.828125 
L 27.9375 52.828125 
L 27.9375 46.4375 
z
" id="LiberationSans-66"/>
      </defs>
      <g style="fill:#262626;" transform="translate(482.765048229 266.0685)scale(0.08 -0.08)">
       <use xlink:href="#LiberationSans-66"/>
       <use x="27.783203125" xlink:href="#LiberationSans-63"/>
       <use x="77.783203125" xlink:href="#LiberationSans-36"/>
      </g>
     </g>
    </g>
    <g id="xtick_18">
     <g id="line2d_18">
      <g>
       <use style="fill:#262626;stroke:#262626;stroke-width:0.8;" x="515.432638274" xlink:href="#me9953edbc2" y="254.671"/>
      </g>
     </g>
     <g id="text_18">
      <!-- fc7 -->
      <defs>
       <path d="M 50.59375 61.671875 
Q 45.40625 53.765625 41.0625 46.453125 
Q 36.71875 39.15625 33.59375 31.75 
Q 30.46875 24.359375 28.734375 16.578125 
Q 27 8.796875 27 0 
L 17.828125 0 
Q 17.828125 8.25 19.78125 16.1875 
Q 21.734375 24.125 25.046875 31.765625 
Q 28.375 39.40625 32.765625 46.78125 
Q 37.15625 54.15625 42.09375 61.328125 
L 5.125 61.328125 
L 5.125 68.796875 
L 50.59375 68.796875 
z
" id="LiberationSans-37"/>
      </defs>
      <g style="fill:#262626;" transform="translate(510.097013274 266.0685)scale(0.08 -0.08)">
       <use xlink:href="#LiberationSans-66"/>
       <use x="27.783203125" xlink:href="#LiberationSans-63"/>
       <use x="77.783203125" xlink:href="#LiberationSans-37"/>
      </g>
     </g>
    </g>
    <g id="xtick_19">
     <g id="line2d_19">
      <g>
       <use style="fill:#262626;stroke:#262626;stroke-width:0.8;" x="542.764603318" xlink:href="#me9953edbc2" y="254.671"/>
      </g>
     </g>
     <g id="text_19">
      <!-- fc8 -->
      <defs>
       <path d="M 51.265625 19.1875 
Q 51.265625 14.796875 49.875 11.109375 
Q 48.484375 7.421875 45.625 4.734375 
Q 42.78125 2.046875 38.328125 0.53125 
Q 33.890625 -0.984375 27.828125 -0.984375 
Q 21.78125 -0.984375 17.359375 0.53125 
Q 12.9375 2.046875 10.03125 4.703125 
Q 7.125 7.375 5.734375 11.0625 
Q 4.34375 14.75 4.34375 19.09375 
Q 4.34375 22.859375 5.484375 25.78125 
Q 6.640625 28.71875 8.5625 30.828125 
Q 10.5 32.953125 12.96875 34.25 
Q 15.4375 35.546875 18.0625 35.984375 
L 18.0625 36.1875 
Q 15.1875 36.859375 12.90625 38.375 
Q 10.640625 39.890625 9.09375 42.015625 
Q 7.5625 44.140625 6.75 46.71875 
Q 5.953125 49.3125 5.953125 52.203125 
Q 5.953125 55.8125 7.34375 59 
Q 8.734375 62.203125 11.46875 64.625 
Q 14.203125 67.046875 18.25 68.4375 
Q 22.3125 69.828125 27.640625 69.828125 
Q 33.25 69.828125 37.375 68.40625 
Q 41.5 67 44.203125 64.578125 
Q 46.921875 62.15625 48.234375 58.9375 
Q 49.5625 55.71875 49.5625 52.09375 
Q 49.5625 49.265625 48.75 46.671875 
Q 47.953125 44.09375 46.40625 41.96875 
Q 44.875 39.84375 42.59375 38.34375 
Q 40.328125 36.859375 37.359375 36.28125 
L 37.359375 36.078125 
Q 40.328125 35.59375 42.859375 34.296875 
Q 45.40625 33.015625 47.265625 30.890625 
Q 49.125 28.765625 50.1875 25.828125 
Q 51.265625 22.90625 51.265625 19.1875 
M 40.4375 51.609375 
Q 40.4375 54.203125 39.765625 56.34375 
Q 39.109375 58.5 37.59375 60.03125 
Q 36.078125 61.578125 33.640625 62.421875 
Q 31.203125 63.28125 27.640625 63.28125 
Q 24.171875 63.28125 21.78125 62.421875 
Q 19.390625 61.578125 17.84375 60.03125 
Q 16.3125 58.5 15.625 56.34375 
Q 14.9375 54.203125 14.9375 51.609375 
Q 14.9375 49.5625 15.46875 47.40625 
Q 16.015625 45.265625 17.421875 43.5 
Q 18.84375 41.75 21.328125 40.625 
Q 23.828125 39.5 27.734375 39.5 
Q 31.890625 39.5 34.40625 40.625 
Q 36.921875 41.75 38.25 43.5 
Q 39.59375 45.265625 40.015625 47.40625 
Q 40.4375 49.5625 40.4375 51.609375 
M 42.140625 20.015625 
Q 42.140625 22.515625 41.453125 24.828125 
Q 40.765625 27.15625 39.109375 28.9375 
Q 37.453125 30.71875 34.640625 31.8125 
Q 31.84375 32.90625 27.640625 32.90625 
Q 23.78125 32.90625 21.0625 31.8125 
Q 18.359375 30.71875 16.671875 28.90625 
Q 14.984375 27.09375 14.203125 24.71875 
Q 13.421875 22.359375 13.421875 19.828125 
Q 13.421875 16.65625 14.203125 14.03125 
Q 14.984375 11.421875 16.6875 9.546875 
Q 18.40625 7.671875 21.1875 6.640625 
Q 23.96875 5.609375 27.9375 5.609375 
Q 31.9375 5.609375 34.671875 6.640625 
Q 37.40625 7.671875 39.0625 9.546875 
Q 40.71875 11.421875 41.421875 14.078125 
Q 42.140625 16.75 42.140625 20.015625 
" id="LiberationSans-38"/>
      </defs>
      <g style="fill:#262626;" transform="translate(537.428978318 266.0685)scale(0.08 -0.08)">
       <use xlink:href="#LiberationSans-66"/>
       <use x="27.783203125" xlink:href="#LiberationSans-63"/>
       <use x="77.783203125" xlink:href="#LiberationSans-38"/>
      </g>
     </g>
    </g>
    <g id="text_20">
     <!-- layer -->
     <defs>
      <path d="M 13.484375 24.5625 
Q 13.484375 20.40625 14.328125 16.90625 
Q 15.1875 13.421875 16.96875 10.90625 
Q 18.75 8.40625 21.53125 7 
Q 24.3125 5.609375 28.21875 5.609375 
Q 33.9375 5.609375 37.375 7.90625 
Q 40.828125 10.203125 42.046875 13.71875 
L 49.75 11.53125 
Q 48.921875 9.328125 47.4375 7.109375 
Q 45.953125 4.890625 43.453125 3.09375 
Q 40.96875 1.3125 37.234375 0.15625 
Q 33.5 -0.984375 28.21875 -0.984375 
Q 16.5 -0.984375 10.375 6 
Q 4.25 12.984375 4.25 26.765625 
Q 4.25 34.1875 6.09375 39.328125 
Q 7.953125 44.484375 11.171875 47.703125 
Q 14.40625 50.921875 18.703125 52.359375 
Q 23 53.8125 27.875 53.8125 
Q 34.515625 53.8125 38.984375 51.65625 
Q 43.453125 49.515625 46.15625 45.71875 
Q 48.875 41.9375 50.015625 36.8125 
Q 51.171875 31.6875 51.171875 25.734375 
L 51.171875 24.5625 
z
M 42.09375 31.296875 
Q 41.359375 39.65625 37.84375 43.484375 
Q 34.328125 47.3125 27.734375 47.3125 
Q 25.53125 47.3125 23.109375 46.609375 
Q 20.703125 45.90625 18.65625 44.09375 
Q 16.609375 42.28125 15.1875 39.171875 
Q 13.765625 36.078125 13.578125 31.296875 
z
" id="LiberationSans-65"/>
      <path d="M 29.5 0 
Q 27.640625 -4.78125 25.703125 -8.609375 
Q 23.78125 -12.453125 21.390625 -15.15625 
Q 19 -17.875 16.0625 -19.3125 
Q 13.140625 -20.75 9.328125 -20.75 
Q 7.671875 -20.75 6.25 -20.65625 
Q 4.828125 -20.5625 3.265625 -20.21875 
L 3.265625 -13.625 
Q 4.203125 -13.765625 5.375 -13.84375 
Q 6.546875 -13.921875 7.375 -13.921875 
Q 11.234375 -13.921875 14.546875 -11.03125 
Q 17.875 -8.15625 20.359375 -1.859375 
L 21.1875 0.25 
L 0.25 52.828125 
L 9.625 52.828125 
L 20.75 23.640625 
Q 21.234375 22.3125 21.984375 20.109375 
Q 22.75 17.921875 23.5 15.71875 
Q 24.265625 13.53125 24.84375 11.765625 
Q 25.4375 10.015625 25.53125 9.578125 
Q 25.6875 10.109375 26.25 11.6875 
Q 26.8125 13.28125 27.515625 15.234375 
Q 28.21875 17.1875 28.953125 19.1875 
Q 29.6875 21.1875 30.171875 22.65625 
L 40.53125 52.828125 
L 49.8125 52.828125 
z
" id="LiberationSans-79"/>
      <path d="M 6.9375 0 
L 6.9375 40.53125 
Q 6.9375 42.1875 6.90625 43.921875 
Q 6.890625 45.65625 6.828125 47.265625 
Q 6.78125 48.875 6.734375 50.28125 
Q 6.6875 51.703125 6.640625 52.828125 
L 14.9375 52.828125 
Q 14.984375 51.703125 15.0625 50.265625 
Q 15.140625 48.828125 15.203125 47.3125 
Q 15.28125 45.796875 15.296875 44.40625 
Q 15.328125 43.015625 15.328125 42.046875 
L 15.53125 42.046875 
Q 16.453125 45.0625 17.5 47.28125 
Q 18.5625 49.515625 19.96875 50.953125 
Q 21.390625 52.390625 23.34375 53.09375 
Q 25.296875 53.8125 28.078125 53.8125 
Q 29.15625 53.8125 30.125 53.640625 
Q 31.109375 53.46875 31.640625 53.328125 
L 31.640625 45.265625 
Q 30.765625 45.515625 29.59375 45.625 
Q 28.421875 45.75 26.953125 45.75 
Q 23.921875 45.75 21.796875 44.375 
Q 19.671875 43.015625 18.328125 40.59375 
Q 17 38.1875 16.359375 34.84375 
Q 15.71875 31.5 15.71875 27.546875 
L 15.71875 0 
z
" id="LiberationSans-72"/>
      <path d="M 20.21875 -0.984375 
Q 12.25 -0.984375 8.25 3.21875 
Q 4.25 7.421875 4.25 14.75 
Q 4.25 19.96875 6.21875 23.3125 
Q 8.203125 26.65625 11.390625 28.5625 
Q 14.59375 30.46875 18.6875 31.203125 
Q 22.796875 31.9375 27.046875 32.03125 
L 38.921875 32.234375 
L 38.921875 35.109375 
Q 38.921875 38.375 38.234375 40.671875 
Q 37.546875 42.96875 36.125 44.375 
Q 34.71875 45.796875 32.59375 46.453125 
Q 30.46875 47.125 27.59375 47.125 
Q 25.046875 47.125 23 46.75 
Q 20.953125 46.390625 19.4375 45.4375 
Q 17.921875 44.484375 16.984375 42.84375 
Q 16.0625 41.21875 15.765625 38.71875 
L 6.59375 39.546875 
Q 7.078125 42.671875 8.4375 45.28125 
Q 9.8125 47.90625 12.328125 49.796875 
Q 14.84375 51.703125 18.625 52.75 
Q 22.40625 53.8125 27.78125 53.8125 
Q 37.75 53.8125 42.765625 49.234375 
Q 47.796875 44.671875 47.796875 36.03125 
L 47.796875 13.28125 
Q 47.796875 9.375 48.828125 7.390625 
Q 49.859375 5.421875 52.734375 5.421875 
Q 53.46875 5.421875 54.203125 5.515625 
Q 54.9375 5.609375 55.609375 5.765625 
L 55.609375 0.296875 
Q 53.953125 -0.09375 52.3125 -0.28125 
Q 50.6875 -0.484375 48.828125 -0.484375 
Q 46.34375 -0.484375 44.5625 0.171875 
Q 42.78125 0.828125 41.65625 2.171875 
Q 40.53125 3.515625 39.9375 5.484375 
Q 39.359375 7.46875 39.203125 10.109375 
L 38.921875 10.109375 
Q 37.5 7.5625 35.8125 5.515625 
Q 34.125 3.46875 31.875 2.03125 
Q 29.640625 0.59375 26.78125 -0.1875 
Q 23.921875 -0.984375 20.21875 -0.984375 
M 22.21875 5.609375 
Q 26.421875 5.609375 29.5625 7.140625 
Q 32.71875 8.6875 34.78125 11.078125 
Q 36.859375 13.484375 37.890625 16.3125 
Q 38.921875 19.140625 38.921875 21.734375 
L 38.921875 26.078125 
L 29.296875 25.875 
Q 26.078125 25.828125 23.171875 25.40625 
Q 20.265625 25 18.0625 23.78125 
Q 15.875 22.5625 14.578125 20.359375 
Q 13.28125 18.171875 13.28125 14.59375 
Q 13.28125 10.296875 15.59375 7.953125 
Q 17.921875 5.609375 22.21875 5.609375 
" id="LiberationSans-61"/>
      <path d="M 6.734375 0 
L 6.734375 72.46875 
L 15.53125 72.46875 
L 15.53125 0 
z
" id="LiberationSans-6c"/>
     </defs>
     <g style="fill:#262626;" transform="translate(287.24060542 293.228509449)scale(0.088 -0.088)">
      <use xlink:href="#LiberationSans-6c"/>
      <use x="22.216796875" xlink:href="#LiberationSans-61"/>
      <use x="77.83203125" xlink:href="#LiberationSans-79"/>
      <use x="127.83203125" xlink:href="#LiberationSans-65"/>
      <use x="183.447265625" xlink:href="#LiberationSans-72"/>
     </g>
    </g>
   </g>
   <g id="matplotlib.axis_2">
    <g id="ytick_1">
     <g id="line2d_20">
      <g>
       <use style="fill:#262626;stroke:#262626;stroke-width:0.8;" x="37.12325" xlink:href="#me9953edbc2" y="233.260636364"/>
      </g>
     </g>
     <g id="text_21">
      <!-- 0.0 -->
      <defs>
       <path d="M 9.125 0 
L 9.125 10.6875 
L 18.65625 10.6875 
L 18.65625 0 
z
" id="LiberationSans-2e"/>
       <path d="M 51.703125 34.421875 
Q 51.703125 24.515625 49.828125 17.75 
Q 47.953125 10.984375 44.703125 6.8125 
Q 41.453125 2.640625 37.0625 0.828125 
Q 32.671875 -0.984375 27.6875 -0.984375 
Q 22.65625 -0.984375 18.3125 0.828125 
Q 13.96875 2.640625 10.765625 6.78125 
Q 7.5625 10.9375 5.734375 17.703125 
Q 3.90625 24.46875 3.90625 34.421875 
Q 3.90625 44.828125 5.734375 51.640625 
Q 7.5625 58.453125 10.78125 62.5 
Q 14.015625 66.546875 18.40625 68.1875 
Q 22.796875 69.828125 27.984375 69.828125 
Q 32.90625 69.828125 37.21875 68.1875 
Q 41.546875 66.546875 44.765625 62.5 
Q 48 58.453125 49.84375 51.640625 
Q 51.703125 44.828125 51.703125 34.421875 
M 42.78125 34.421875 
Q 42.78125 42.625 41.796875 48.0625 
Q 40.828125 53.515625 38.921875 56.765625 
Q 37.015625 60.015625 34.25 61.359375 
Q 31.5 62.703125 27.984375 62.703125 
Q 24.265625 62.703125 21.4375 61.328125 
Q 18.609375 59.96875 16.671875 56.71875 
Q 14.75 53.46875 13.765625 48.015625 
Q 12.796875 42.578125 12.796875 34.421875 
Q 12.796875 26.515625 13.796875 21.09375 
Q 14.796875 15.671875 16.71875 12.375 
Q 18.65625 9.078125 21.4375 7.640625 
Q 24.21875 6.203125 27.78125 6.203125 
Q 31.25 6.203125 34.03125 7.640625 
Q 36.8125 9.078125 38.734375 12.375 
Q 40.671875 15.671875 41.71875 21.09375 
Q 42.78125 26.515625 42.78125 34.421875 
" id="LiberationSans-30"/>
      </defs>
      <g style="fill:#262626;" transform="translate(20.40325 235.329386364)scale(0.08 -0.08)">
       <use xlink:href="#LiberationSans-30"/>
       <use x="55.615234375" xlink:href="#LiberationSans-2e"/>
       <use x="83.3984375" xlink:href="#LiberationSans-30"/>
      </g>
     </g>
    </g>
    <g id="ytick_2">
     <g id="line2d_21">
      <g>
       <use style="fill:#262626;stroke:#262626;stroke-width:0.8;" x="37.12325" xlink:href="#me9953edbc2" y="190.439909091"/>
      </g>
     </g>
     <g id="text_22">
      <!-- 0.2 -->
      <g style="fill:#262626;" transform="translate(20.40325 192.508659091)scale(0.08 -0.08)">
       <use xlink:href="#LiberationSans-30"/>
       <use x="55.615234375" xlink:href="#LiberationSans-2e"/>
       <use x="83.3984375" xlink:href="#LiberationSans-32"/>
      </g>
     </g>
    </g>
    <g id="ytick_3">
     <g id="line2d_22">
      <g>
       <use style="fill:#262626;stroke:#262626;stroke-width:0.8;" x="37.12325" xlink:href="#me9953edbc2" y="147.619181818"/>
      </g>
     </g>
     <g id="text_23">
      <!-- 0.4 -->
      <g style="fill:#262626;" transform="translate(20.40325 149.687931818)scale(0.08 -0.08)">
       <use xlink:href="#LiberationSans-30"/>
       <use x="55.615234375" xlink:href="#LiberationSans-2e"/>
       <use x="83.3984375" xlink:href="#LiberationSans-34"/>
      </g>
     </g>
    </g>
    <g id="ytick_4">
     <g id="line2d_23">
      <g>
       <use style="fill:#262626;stroke:#262626;stroke-width:0.8;" x="37.12325" xlink:href="#me9953edbc2" y="104.798454545"/>
      </g>
     </g>
     <g id="text_24">
      <!-- 0.6 -->
      <g style="fill:#262626;" transform="translate(20.40325 106.867204545)scale(0.08 -0.08)">
       <use xlink:href="#LiberationSans-30"/>
       <use x="55.615234375" xlink:href="#LiberationSans-2e"/>
       <use x="83.3984375" xlink:href="#LiberationSans-36"/>
      </g>
     </g>
    </g>
    <g id="ytick_5">
     <g id="line2d_24">
      <g>
       <use style="fill:#262626;stroke:#262626;stroke-width:0.8;" x="37.12325" xlink:href="#me9953edbc2" y="61.9777272727"/>
      </g>
     </g>
     <g id="text_25">
      <!-- 0.8 -->
      <g style="fill:#262626;" transform="translate(20.40325 64.0464772727)scale(0.08 -0.08)">
       <use xlink:href="#LiberationSans-30"/>
       <use x="55.615234375" xlink:href="#LiberationSans-2e"/>
       <use x="83.3984375" xlink:href="#LiberationSans-38"/>
      </g>
     </g>
    </g>
    <g id="ytick_6">
     <g id="text_26">
      <!-- 1.0 -->
      <g style="fill:#262626;" transform="translate(20.40325 21.22575)scale(0.08 -0.08)">
       <use xlink:href="#LiberationSans-31"/>
       <use x="55.615234375" xlink:href="#LiberationSans-2e"/>
       <use x="83.3984375" xlink:href="#LiberationSans-30"/>
      </g>
     </g>
    </g>
    <g id="text_27">
     <!-- correlation -->
     <defs>
      <path d="M 6.6875 64.0625 
L 6.6875 72.46875 
L 15.484375 72.46875 
L 15.484375 64.0625 
z
M 6.6875 0 
L 6.6875 52.828125 
L 15.484375 52.828125 
L 15.484375 0 
z
" id="LiberationSans-69"/>
      <path d="M 27.046875 0.390625 
Q 25.046875 -0.140625 22.96875 -0.453125 
Q 20.90625 -0.78125 18.171875 -0.78125 
Q 7.625 -0.78125 7.625 11.1875 
L 7.625 46.4375 
L 1.515625 46.4375 
L 1.515625 52.828125 
L 7.953125 52.828125 
L 10.546875 64.65625 
L 16.40625 64.65625 
L 16.40625 52.828125 
L 26.171875 52.828125 
L 26.171875 46.4375 
L 16.40625 46.4375 
L 16.40625 13.09375 
Q 16.40625 9.28125 17.640625 7.734375 
Q 18.890625 6.203125 21.96875 6.203125 
Q 23.25 6.203125 24.4375 6.390625 
Q 25.640625 6.59375 27.046875 6.890625 
z
" id="LiberationSans-74"/>
     </defs>
     <g style="fill:#262626;" transform="translate(13.57725 157.4558125)rotate(-90.0)scale(0.088 -0.088)">
      <use xlink:href="#LiberationSans-63"/>
      <use x="50.0" xlink:href="#LiberationSans-6f"/>
      <use x="105.615234375" xlink:href="#LiberationSans-72"/>
      <use x="138.916015625" xlink:href="#LiberationSans-72"/>
      <use x="172.216796875" xlink:href="#LiberationSans-65"/>
      <use x="227.83203125" xlink:href="#LiberationSans-6c"/>
      <use x="250.048828125" xlink:href="#LiberationSans-61"/>
      <use x="305.6640625" xlink:href="#LiberationSans-74"/>
      <use x="333.447265625" xlink:href="#LiberationSans-69"/>
      <use x="355.6640625" xlink:href="#LiberationSans-6f"/>
      <use x="411.279296875" xlink:href="#LiberationSans-6e"/>
     </g>
    </g>
   </g>
   <g id="PathCollection_1">
    <defs>
     <path d="M 0 3.158352 
C 0.837605 3.158352 1.641016 2.825568 2.233292 2.233292 
C 2.825568 1.641016 3.158352 0.837605 3.158352 0 
C 3.158352 -0.837605 2.825568 -1.641016 2.233292 -2.233292 
C 1.641016 -2.825568 0.837605 -3.158352 0 -3.158352 
C -0.837605 -3.158352 -1.641016 -2.825568 -2.233292 -2.233292 
C -2.825568 -1.641016 -3.158352 -0.837605 -3.158352 0 
C -3.158352 0.837605 -2.825568 1.641016 -2.233292 2.233292 
C -1.641016 2.825568 -0.837605 3.158352 0 3.158352 
z
" id="C0_0_c929bc9d79"/>
    </defs>
    <g clip-path="url(#pe4d8f4b8a6)">
     <use style="fill:#fa8e63;stroke:#fa8e63;stroke-width:1.89;" x="50.7892325221" xlink:href="#C0_0_c929bc9d79" y="141.075262487"/>
    </g>
    <g clip-path="url(#pe4d8f4b8a6)">
     <use style="fill:#fa8e63;stroke:#fa8e63;stroke-width:1.89;" x="78.1211975663" xlink:href="#C0_0_c929bc9d79" y="137.754503222"/>
    </g>
    <g clip-path="url(#pe4d8f4b8a6)">
     <use style="fill:#fa8e63;stroke:#fa8e63;stroke-width:1.89;" x="105.453162611" xlink:href="#C0_0_c929bc9d79" y="150.708943405"/>
    </g>
    <g clip-path="url(#pe4d8f4b8a6)">
     <use style="fill:#fa8e63;stroke:#fa8e63;stroke-width:1.89;" x="132.785127655" xlink:href="#C0_0_c929bc9d79" y="144.41978254"/>
    </g>
    <g clip-path="url(#pe4d8f4b8a6)">
     <use style="fill:#fa8e63;stroke:#fa8e63;stroke-width:1.89;" x="160.117092699" xlink:href="#C0_0_c929bc9d79" y="126.853964824"/>
    </g>
    <g clip-path="url(#pe4d8f4b8a6)">
     <use style="fill:#fa8e63;stroke:#fa8e63;stroke-width:1.89;" x="187.449057743" xlink:href="#C0_0_c929bc9d79" y="134.10283734"/>
    </g>
    <g clip-path="url(#pe4d8f4b8a6)">
     <use style="fill:#fa8e63;stroke:#fa8e63;stroke-width:1.89;" x="214.781022787" xlink:href="#C0_0_c929bc9d79" y="128.407754923"/>
    </g>
    <g clip-path="url(#pe4d8f4b8a6)">
     <use style="fill:#fa8e63;stroke:#fa8e63;stroke-width:1.89;" x="242.112987832" xlink:href="#C0_0_c929bc9d79" y="119.164130331"/>
    </g>
    <g clip-path="url(#pe4d8f4b8a6)">
     <use style="fill:#fa8e63;stroke:#fa8e63;stroke-width:1.89;" x="269.444952876" xlink:href="#C0_0_c929bc9d79" y="105.308293082"/>
    </g>
    <g clip-path="url(#pe4d8f4b8a6)">
     <use style="fill:#fa8e63;stroke:#fa8e63;stroke-width:1.89;" x="296.77691792" xlink:href="#C0_0_c929bc9d79" y="102.983606816"/>
    </g>
    <g clip-path="url(#pe4d8f4b8a6)">
     <use style="fill:#fa8e63;stroke:#fa8e63;stroke-width:1.89;" x="324.108882964" xlink:href="#C0_0_c929bc9d79" y="104.344171856"/>
    </g>
    <g clip-path="url(#pe4d8f4b8a6)">
     <use style="fill:#fa8e63;stroke:#fa8e63;stroke-width:1.89;" x="351.440848008" xlink:href="#C0_0_c929bc9d79" y="102.109774436"/>
    </g>
    <g clip-path="url(#pe4d8f4b8a6)">
     <use style="fill:#fa8e63;stroke:#fa8e63;stroke-width:1.89;" x="378.772813053" xlink:href="#C0_0_c929bc9d79" y="118.685279081"/>
    </g>
    <g clip-path="url(#pe4d8f4b8a6)">
     <use style="fill:#fa8e63;stroke:#fa8e63;stroke-width:1.89;" x="406.104778097" xlink:href="#C0_0_c929bc9d79" y="121.059752135"/>
    </g>
    <g clip-path="url(#pe4d8f4b8a6)">
     <use style="fill:#fa8e63;stroke:#fa8e63;stroke-width:1.89;" x="433.436743141" xlink:href="#C0_0_c929bc9d79" y="114.481014747"/>
    </g>
    <g clip-path="url(#pe4d8f4b8a6)">
     <use style="fill:#fa8e63;stroke:#fa8e63;stroke-width:1.89;" x="460.768708185" xlink:href="#C0_0_c929bc9d79" y="115.175149808"/>
    </g>
    <g clip-path="url(#pe4d8f4b8a6)">
     <use style="fill:#fa8e63;stroke:#fa8e63;stroke-width:1.89;" x="488.100673229" xlink:href="#C0_0_c929bc9d79" y="124.521590678"/>
    </g>
    <g clip-path="url(#pe4d8f4b8a6)">
     <use style="fill:#fa8e63;stroke:#fa8e63;stroke-width:1.89;" x="515.432638274" xlink:href="#C0_0_c929bc9d79" y="127.391570444"/>
    </g>
    <g clip-path="url(#pe4d8f4b8a6)">
     <use style="fill:#fa8e63;stroke:#fa8e63;stroke-width:1.89;" x="542.764603318" xlink:href="#C0_0_c929bc9d79" y="169.18287122"/>
    </g>
   </g>
   <g id="line2d_25">
    <path clip-path="url(#pe4d8f4b8a6)" d="M 50.789233 141.075262 
L 78.121198 137.754503 
L 105.453163 150.708943 
L 132.785128 144.419783 
L 160.117093 126.853965 
L 187.449058 134.102837 
L 214.781023 128.407755 
L 242.112988 119.16413 
L 269.444953 105.308293 
L 296.776918 102.983607 
L 324.108883 104.344172 
L 351.440848 102.109774 
L 378.772813 118.685279 
L 406.104778 121.059752 
L 433.436743 114.481015 
L 460.768708 115.17515 
L 488.100673 124.521591 
L 515.432638 127.39157 
L 542.764603 169.182871 
" style="fill:none;stroke:#fa8e63;stroke-linecap:round;stroke-width:2.52;"/>
   </g>
   <g id="line2d_26">
    <path clip-path="url(#pe4d8f4b8a6)" d="M 50.789233 141.075262 
L 50.789233 141.075262 
" style="fill:none;stroke:#fa8e63;stroke-linecap:round;stroke-width:2.52;"/>
   </g>
   <g id="line2d_27">
    <path clip-path="url(#pe4d8f4b8a6)" d="M 78.121198 137.754503 
L 78.121198 137.754503 
" style="fill:none;stroke:#fa8e63;stroke-linecap:round;stroke-width:2.52;"/>
   </g>
   <g id="line2d_28">
    <path clip-path="url(#pe4d8f4b8a6)" d="M 105.453163 150.708943 
L 105.453163 150.708943 
" style="fill:none;stroke:#fa8e63;stroke-linecap:round;stroke-width:2.52;"/>
   </g>
   <g id="line2d_29">
    <path clip-path="url(#pe4d8f4b8a6)" d="M 132.785128 144.419783 
L 132.785128 144.419783 
" style="fill:none;stroke:#fa8e63;stroke-linecap:round;stroke-width:2.52;"/>
   </g>
   <g id="line2d_30">
    <path clip-path="url(#pe4d8f4b8a6)" d="M 160.117093 126.853965 
L 160.117093 126.853965 
" style="fill:none;stroke:#fa8e63;stroke-linecap:round;stroke-width:2.52;"/>
   </g>
   <g id="line2d_31">
    <path clip-path="url(#pe4d8f4b8a6)" d="M 187.449058 134.102837 
L 187.449058 134.102837 
" style="fill:none;stroke:#fa8e63;stroke-linecap:round;stroke-width:2.52;"/>
   </g>
   <g id="line2d_32">
    <path clip-path="url(#pe4d8f4b8a6)" d="M 214.781023 128.407755 
L 214.781023 128.407755 
" style="fill:none;stroke:#fa8e63;stroke-linecap:round;stroke-width:2.52;"/>
   </g>
   <g id="line2d_33">
    <path clip-path="url(#pe4d8f4b8a6)" d="M 242.112988 119.16413 
L 242.112988 119.16413 
" style="fill:none;stroke:#fa8e63;stroke-linecap:round;stroke-width:2.52;"/>
   </g>
   <g id="line2d_34">
    <path clip-path="url(#pe4d8f4b8a6)" d="M 269.444953 105.308293 
L 269.444953 105.308293 
" style="fill:none;stroke:#fa8e63;stroke-linecap:round;stroke-width:2.52;"/>
   </g>
   <g id="line2d_35">
    <path clip-path="url(#pe4d8f4b8a6)" d="M 296.776918 102.983607 
L 296.776918 102.983607 
" style="fill:none;stroke:#fa8e63;stroke-linecap:round;stroke-width:2.52;"/>
   </g>
   <g id="line2d_36">
    <path clip-path="url(#pe4d8f4b8a6)" d="M 324.108883 104.344172 
L 324.108883 104.344172 
" style="fill:none;stroke:#fa8e63;stroke-linecap:round;stroke-width:2.52;"/>
   </g>
   <g id="line2d_37">
    <path clip-path="url(#pe4d8f4b8a6)" d="M 351.440848 102.109774 
L 351.440848 102.109774 
" style="fill:none;stroke:#fa8e63;stroke-linecap:round;stroke-width:2.52;"/>
   </g>
   <g id="line2d_38">
    <path clip-path="url(#pe4d8f4b8a6)" d="M 378.772813 118.685279 
L 378.772813 118.685279 
" style="fill:none;stroke:#fa8e63;stroke-linecap:round;stroke-width:2.52;"/>
   </g>
   <g id="line2d_39">
    <path clip-path="url(#pe4d8f4b8a6)" d="M 406.104778 121.059752 
L 406.104778 121.059752 
" style="fill:none;stroke:#fa8e63;stroke-linecap:round;stroke-width:2.52;"/>
   </g>
   <g id="line2d_40">
    <path clip-path="url(#pe4d8f4b8a6)" d="M 433.436743 114.481015 
L 433.436743 114.481015 
" style="fill:none;stroke:#fa8e63;stroke-linecap:round;stroke-width:2.52;"/>
   </g>
   <g id="line2d_41">
    <path clip-path="url(#pe4d8f4b8a6)" d="M 460.768708 115.17515 
L 460.768708 115.17515 
" style="fill:none;stroke:#fa8e63;stroke-linecap:round;stroke-width:2.52;"/>
   </g>
   <g id="line2d_42">
    <path clip-path="url(#pe4d8f4b8a6)" d="M 488.100673 124.521591 
L 488.100673 124.521591 
" style="fill:none;stroke:#fa8e63;stroke-linecap:round;stroke-width:2.52;"/>
   </g>
   <g id="line2d_43">
    <path clip-path="url(#pe4d8f4b8a6)" d="M 515.432638 127.39157 
L 515.432638 127.39157 
" style="fill:none;stroke:#fa8e63;stroke-linecap:round;stroke-width:2.52;"/>
   </g>
   <g id="line2d_44">
    <path clip-path="url(#pe4d8f4b8a6)" d="M 542.764603 169.182871 
L 542.764603 169.182871 
" style="fill:none;stroke:#fa8e63;stroke-linecap:round;stroke-width:2.52;"/>
   </g>
   <g id="PathCollection_2">
    <defs>
     <path d="M 0 3.158352 
C 0.837605 3.158352 1.641016 2.825568 2.233292 2.233292 
C 2.825568 1.641016 3.158352 0.837605 3.158352 0 
C 3.158352 -0.837605 2.825568 -1.641016 2.233292 -2.233292 
C 1.641016 -2.825568 0.837605 -3.158352 0 -3.158352 
C -0.837605 -3.158352 -1.641016 -2.825568 -2.233292 -2.233292 
C -2.825568 -1.641016 -3.158352 -0.837605 -3.158352 0 
C -3.158352 0.837605 -2.825568 1.641016 -2.233292 2.233292 
C -1.641016 2.825568 -0.837605 3.158352 0 3.158352 
z
" id="C1_0_4445d8511b"/>
    </defs>
    <g clip-path="url(#pe4d8f4b8a6)">
     <use style="fill:#8da0cb;stroke:#8da0cb;stroke-width:1.89;" x="50.7892325221" xlink:href="#C1_0_4445d8511b" y="236.296810908"/>
    </g>
    <g clip-path="url(#pe4d8f4b8a6)">
     <use style="fill:#8da0cb;stroke:#8da0cb;stroke-width:1.89;" x="78.1211975663" xlink:href="#C1_0_4445d8511b" y="237.690855892"/>
    </g>
    <g clip-path="url(#pe4d8f4b8a6)">
     <use style="fill:#8da0cb;stroke:#8da0cb;stroke-width:1.89;" x="105.453162611" xlink:href="#C1_0_4445d8511b" y="238.496170071"/>
    </g>
    <g clip-path="url(#pe4d8f4b8a6)">
     <use style="fill:#8da0cb;stroke:#8da0cb;stroke-width:1.89;" x="132.785127655" xlink:href="#C1_0_4445d8511b" y="237.344349892"/>
    </g>
    <g clip-path="url(#pe4d8f4b8a6)">
     <use style="fill:#8da0cb;stroke:#8da0cb;stroke-width:1.89;" x="160.117092699" xlink:href="#C1_0_4445d8511b" y="239.566746233"/>
    </g>
    <g clip-path="url(#pe4d8f4b8a6)">
     <use style="fill:#8da0cb;stroke:#8da0cb;stroke-width:1.89;" x="187.449057743" xlink:href="#C1_0_4445d8511b" y="239.147309543"/>
    </g>
    <g clip-path="url(#pe4d8f4b8a6)">
     <use style="fill:#8da0cb;stroke:#8da0cb;stroke-width:1.89;" x="214.781022787" xlink:href="#C1_0_4445d8511b" y="238.838955655"/>
    </g>
    <g clip-path="url(#pe4d8f4b8a6)">
     <use style="fill:#8da0cb;stroke:#8da0cb;stroke-width:1.89;" x="242.112987832" xlink:href="#C1_0_4445d8511b" y="237.833142164"/>
    </g>
    <g clip-path="url(#pe4d8f4b8a6)">
     <use style="fill:#8da0cb;stroke:#8da0cb;stroke-width:1.89;" x="269.444952876" xlink:href="#C1_0_4445d8511b" y="239.185149788"/>
    </g>
    <g clip-path="url(#pe4d8f4b8a6)">
     <use style="fill:#8da0cb;stroke:#8da0cb;stroke-width:1.89;" x="296.77691792" xlink:href="#C1_0_4445d8511b" y="240.842782277"/>
    </g>
    <g clip-path="url(#pe4d8f4b8a6)">
     <use style="fill:#8da0cb;stroke:#8da0cb;stroke-width:1.89;" x="324.108882964" xlink:href="#C1_0_4445d8511b" y="241.11805955"/>
    </g>
    <g clip-path="url(#pe4d8f4b8a6)">
     <use style="fill:#8da0cb;stroke:#8da0cb;stroke-width:1.89;" x="351.440848008" xlink:href="#C1_0_4445d8511b" y="239.098469417"/>
    </g>
    <g clip-path="url(#pe4d8f4b8a6)">
     <use style="fill:#8da0cb;stroke:#8da0cb;stroke-width:1.89;" x="378.772813053" xlink:href="#C1_0_4445d8511b" y="236.274755745"/>
    </g>
    <g clip-path="url(#pe4d8f4b8a6)">
     <use style="fill:#8da0cb;stroke:#8da0cb;stroke-width:1.89;" x="406.104778097" xlink:href="#C1_0_4445d8511b" y="232.526589973"/>
    </g>
    <g clip-path="url(#pe4d8f4b8a6)">
     <use style="fill:#8da0cb;stroke:#8da0cb;stroke-width:1.89;" x="433.436743141" xlink:href="#C1_0_4445d8511b" y="227.501376571"/>
    </g>
    <g clip-path="url(#pe4d8f4b8a6)">
     <use style="fill:#8da0cb;stroke:#8da0cb;stroke-width:1.89;" x="460.768708185" xlink:href="#C1_0_4445d8511b" y="209.921278224"/>
    </g>
    <g clip-path="url(#pe4d8f4b8a6)">
     <use style="fill:#8da0cb;stroke:#8da0cb;stroke-width:1.89;" x="488.100673229" xlink:href="#C1_0_4445d8511b" y="192.278707455"/>
    </g>
    <g clip-path="url(#pe4d8f4b8a6)">
     <use style="fill:#8da0cb;stroke:#8da0cb;stroke-width:1.89;" x="515.432638274" xlink:href="#C1_0_4445d8511b" y="189.410018558"/>
    </g>
    <g clip-path="url(#pe4d8f4b8a6)">
     <use style="fill:#8da0cb;stroke:#8da0cb;stroke-width:1.89;" x="542.764603318" xlink:href="#C1_0_4445d8511b" y="174.109261514"/>
    </g>
   </g>
   <g id="line2d_45">
    <path clip-path="url(#pe4d8f4b8a6)" d="M 50.789233 236.296811 
L 78.121198 237.690856 
L 105.453163 238.49617 
L 132.785128 237.34435 
L 160.117093 239.566746 
L 187.449058 239.14731 
L 214.781023 238.838956 
L 242.112988 237.833142 
L 269.444953 239.18515 
L 296.776918 240.842782 
L 324.108883 241.11806 
L 351.440848 239.098469 
L 378.772813 236.274756 
L 406.104778 232.52659 
L 433.436743 227.501377 
L 460.768708 209.921278 
L 488.100673 192.278707 
L 515.432638 189.410019 
L 542.764603 174.109262 
" style="fill:none;stroke:#8da0cb;stroke-linecap:round;stroke-width:2.52;"/>
   </g>
   <g id="line2d_46">
    <path clip-path="url(#pe4d8f4b8a6)" d="M 50.789233 236.296811 
L 50.789233 236.296811 
" style="fill:none;stroke:#8da0cb;stroke-linecap:round;stroke-width:2.52;"/>
   </g>
   <g id="line2d_47">
    <path clip-path="url(#pe4d8f4b8a6)" d="M 78.121198 237.690856 
L 78.121198 237.690856 
" style="fill:none;stroke:#8da0cb;stroke-linecap:round;stroke-width:2.52;"/>
   </g>
   <g id="line2d_48">
    <path clip-path="url(#pe4d8f4b8a6)" d="M 105.453163 238.49617 
L 105.453163 238.49617 
" style="fill:none;stroke:#8da0cb;stroke-linecap:round;stroke-width:2.52;"/>
   </g>
   <g id="line2d_49">
    <path clip-path="url(#pe4d8f4b8a6)" d="M 132.785128 237.34435 
L 132.785128 237.34435 
" style="fill:none;stroke:#8da0cb;stroke-linecap:round;stroke-width:2.52;"/>
   </g>
   <g id="line2d_50">
    <path clip-path="url(#pe4d8f4b8a6)" d="M 160.117093 239.566746 
L 160.117093 239.566746 
" style="fill:none;stroke:#8da0cb;stroke-linecap:round;stroke-width:2.52;"/>
   </g>
   <g id="line2d_51">
    <path clip-path="url(#pe4d8f4b8a6)" d="M 187.449058 239.14731 
L 187.449058 239.14731 
" style="fill:none;stroke:#8da0cb;stroke-linecap:round;stroke-width:2.52;"/>
   </g>
   <g id="line2d_52">
    <path clip-path="url(#pe4d8f4b8a6)" d="M 214.781023 238.838956 
L 214.781023 238.838956 
" style="fill:none;stroke:#8da0cb;stroke-linecap:round;stroke-width:2.52;"/>
   </g>
   <g id="line2d_53">
    <path clip-path="url(#pe4d8f4b8a6)" d="M 242.112988 237.833142 
L 242.112988 237.833142 
" style="fill:none;stroke:#8da0cb;stroke-linecap:round;stroke-width:2.52;"/>
   </g>
   <g id="line2d_54">
    <path clip-path="url(#pe4d8f4b8a6)" d="M 269.444953 239.18515 
L 269.444953 239.18515 
" style="fill:none;stroke:#8da0cb;stroke-linecap:round;stroke-width:2.52;"/>
   </g>
   <g id="line2d_55">
    <path clip-path="url(#pe4d8f4b8a6)" d="M 296.776918 240.842782 
L 296.776918 240.842782 
" style="fill:none;stroke:#8da0cb;stroke-linecap:round;stroke-width:2.52;"/>
   </g>
   <g id="line2d_56">
    <path clip-path="url(#pe4d8f4b8a6)" d="M 324.108883 241.11806 
L 324.108883 241.11806 
" style="fill:none;stroke:#8da0cb;stroke-linecap:round;stroke-width:2.52;"/>
   </g>
   <g id="line2d_57">
    <path clip-path="url(#pe4d8f4b8a6)" d="M 351.440848 239.098469 
L 351.440848 239.098469 
" style="fill:none;stroke:#8da0cb;stroke-linecap:round;stroke-width:2.52;"/>
   </g>
   <g id="line2d_58">
    <path clip-path="url(#pe4d8f4b8a6)" d="M 378.772813 236.274756 
L 378.772813 236.274756 
" style="fill:none;stroke:#8da0cb;stroke-linecap:round;stroke-width:2.52;"/>
   </g>
   <g id="line2d_59">
    <path clip-path="url(#pe4d8f4b8a6)" d="M 406.104778 232.52659 
L 406.104778 232.52659 
" style="fill:none;stroke:#8da0cb;stroke-linecap:round;stroke-width:2.52;"/>
   </g>
   <g id="line2d_60">
    <path clip-path="url(#pe4d8f4b8a6)" d="M 433.436743 227.501377 
L 433.436743 227.501377 
" style="fill:none;stroke:#8da0cb;stroke-linecap:round;stroke-width:2.52;"/>
   </g>
   <g id="line2d_61">
    <path clip-path="url(#pe4d8f4b8a6)" d="M 460.768708 209.921278 
L 460.768708 209.921278 
" style="fill:none;stroke:#8da0cb;stroke-linecap:round;stroke-width:2.52;"/>
   </g>
   <g id="line2d_62">
    <path clip-path="url(#pe4d8f4b8a6)" d="M 488.100673 192.278707 
L 488.100673 192.278707 
" style="fill:none;stroke:#8da0cb;stroke-linecap:round;stroke-width:2.52;"/>
   </g>
   <g id="line2d_63">
    <path clip-path="url(#pe4d8f4b8a6)" d="M 515.432638 189.410019 
L 515.432638 189.410019 
" style="fill:none;stroke:#8da0cb;stroke-linecap:round;stroke-width:2.52;"/>
   </g>
   <g id="line2d_64">
    <path clip-path="url(#pe4d8f4b8a6)" d="M 542.764603 174.109262 
L 542.764603 174.109262 
" style="fill:none;stroke:#8da0cb;stroke-linecap:round;stroke-width:2.52;"/>
   </g>
   <g id="patch_3">
    <path d="M 37.12325 254.671 
L 556.430586 254.671 
" style="fill:none;stroke:#262626;stroke-linecap:square;stroke-linejoin:miter;stroke-width:1.25;"/>
   </g>
   <g id="patch_4">
    <path d="M 37.12325 254.671 
L 37.12325 19.157 
" style="fill:none;stroke:#262626;stroke-linecap:square;stroke-linejoin:miter;stroke-width:1.25;"/>
   </g>
   <g id="text_28">
    <!-- VGG-19 -->
    <defs>
     <path d="M 5.03125 34.71875 
Q 5.03125 42.78125 7.203125 49.265625 
Q 9.375 55.765625 13.6875 60.328125 
Q 18.015625 64.890625 24.40625 67.359375 
Q 30.8125 69.828125 39.265625 69.828125 
Q 45.609375 69.828125 50.390625 68.703125 
Q 55.171875 67.578125 58.6875 65.46875 
Q 62.203125 63.375 64.640625 60.375 
Q 67.09375 57.375 68.796875 53.609375 
L 59.90625 50.984375 
Q 58.640625 53.515625 56.859375 55.59375 
Q 55.078125 57.671875 52.53125 59.125 
Q 50 60.59375 46.65625 61.390625 
Q 43.3125 62.203125 39.015625 62.203125 
Q 32.765625 62.203125 28.140625 60.25 
Q 23.53125 58.296875 20.5 54.6875 
Q 17.484375 51.078125 15.984375 46 
Q 14.5 40.921875 14.5 34.71875 
Q 14.5 28.515625 16.109375 23.359375 
Q 17.71875 18.21875 20.890625 14.484375 
Q 24.078125 10.75 28.78125 8.671875 
Q 33.5 6.59375 39.703125 6.59375 
Q 43.75 6.59375 47.171875 7.265625 
Q 50.59375 7.953125 53.34375 9.046875 
Q 56.109375 10.15625 58.203125 11.5 
Q 60.296875 12.84375 61.71875 14.203125 
L 61.71875 26.609375 
L 41.15625 26.609375 
L 41.15625 34.421875 
L 70.3125 34.421875 
L 70.3125 10.6875 
Q 68.015625 8.34375 64.90625 6.21875 
Q 61.8125 4.109375 57.953125 2.484375 
Q 54.109375 0.875 49.515625 -0.046875 
Q 44.921875 -0.984375 39.703125 -0.984375 
Q 31 -0.984375 24.5 1.671875 
Q 18.015625 4.34375 13.6875 9.109375 
Q 9.375 13.875 7.203125 20.40625 
Q 5.03125 26.953125 5.03125 34.71875 
" id="LiberationSans-47"/>
     <path d="M 38.1875 0 
L 28.515625 0 
L 0.4375 68.796875 
L 10.25 68.796875 
L 29.296875 20.359375 
Q 30.03125 18.171875 30.765625 15.984375 
Q 31.5 13.8125 32.078125 12.109375 
Q 32.765625 10.109375 33.40625 8.203125 
Q 33.984375 10.015625 34.671875 12.015625 
Q 35.25 13.71875 35.953125 15.859375 
Q 36.671875 18.015625 37.5 20.359375 
L 56.453125 68.796875 
L 66.265625 68.796875 
z
" id="LiberationSans-56"/>
     <path d="M 4.4375 22.65625 
L 4.4375 30.46875 
L 28.859375 30.46875 
L 28.859375 22.65625 
z
" id="LiberationSans-2d"/>
     <path d="M 50.875 35.796875 
Q 50.875 26.609375 49.140625 19.703125 
Q 47.40625 12.796875 44.1875 8.203125 
Q 40.96875 3.609375 36.34375 1.3125 
Q 31.734375 -0.984375 25.984375 -0.984375 
Q 22.015625 -0.984375 18.84375 -0.171875 
Q 15.671875 0.640625 13.171875 2.34375 
Q 10.6875 4.046875 8.921875 6.78125 
Q 7.171875 9.515625 6.109375 13.375 
L 14.5 14.703125 
Q 15.875 10.25 18.78125 8.171875 
Q 21.6875 6.109375 26.125 6.109375 
Q 29.6875 6.109375 32.640625 7.78125 
Q 35.59375 9.46875 37.671875 12.84375 
Q 39.75 16.21875 40.921875 21.296875 
Q 42.09375 26.375 42.1875 33.203125 
Q 41.15625 30.90625 39.375 29.09375 
Q 37.59375 27.296875 35.328125 26.046875 
Q 33.0625 24.8125 30.421875 24.140625 
Q 27.78125 23.484375 25.09375 23.484375 
Q 20.40625 23.484375 16.625 25.171875 
Q 12.84375 26.859375 10.203125 29.875 
Q 7.5625 32.90625 6.125 37.171875 
Q 4.6875 41.453125 4.6875 46.6875 
Q 4.6875 52 6.21875 56.296875 
Q 7.765625 60.59375 10.6875 63.59375 
Q 13.625 66.609375 17.890625 68.21875 
Q 22.171875 69.828125 27.59375 69.828125 
Q 39.0625 69.828125 44.96875 61.328125 
Q 50.875 52.828125 50.875 35.796875 
M 41.3125 44.28125 
Q 41.3125 48.09375 40.40625 51.453125 
Q 39.5 54.828125 37.71875 57.3125 
Q 35.9375 59.8125 33.328125 61.25 
Q 30.71875 62.703125 27.296875 62.703125 
Q 24.125 62.703125 21.578125 61.578125 
Q 19.046875 60.453125 17.28125 58.375 
Q 15.53125 56.296875 14.578125 53.3125 
Q 13.625 50.34375 13.625 46.6875 
Q 13.625 43.21875 14.46875 40.234375 
Q 15.328125 37.25 17.03125 35.078125 
Q 18.75 32.90625 21.28125 31.65625 
Q 23.828125 30.421875 27.203125 30.421875 
Q 29.640625 30.421875 32.15625 31.25 
Q 34.671875 32.078125 36.6875 33.78125 
Q 38.71875 35.5 40.015625 38.109375 
Q 41.3125 40.71875 41.3125 44.28125 
" id="LiberationSans-39"/>
    </defs>
    <g style="fill:#262626;" transform="translate(279.17141792 14.157)scale(0.096 -0.096)">
     <use xlink:href="#LiberationSans-56"/>
     <use x="66.69921875" xlink:href="#LiberationSans-47"/>
     <use x="144.482421875" xlink:href="#LiberationSans-47"/>
     <use x="222.265625" xlink:href="#LiberationSans-2d"/>
     <use x="255.56640625" xlink:href="#LiberationSans-31"/>
     <use x="311.181640625" xlink:href="#LiberationSans-39"/>
    </g>
   </g>
  </g>
  <g id="legend_1">
   <g id="text_29">
    <!-- kind -->
    <defs>
     <path d="M 40.09375 8.5 
Q 37.640625 3.421875 33.609375 1.21875 
Q 29.59375 -0.984375 23.640625 -0.984375 
Q 13.625 -0.984375 8.90625 5.75 
Q 4.203125 12.5 4.203125 26.171875 
Q 4.203125 53.8125 23.640625 53.8125 
Q 29.640625 53.8125 33.640625 51.609375 
Q 37.640625 49.421875 40.09375 44.625 
L 40.1875 44.625 
Q 40.1875 45.125 40.15625 46.171875 
Q 40.140625 47.21875 40.109375 48.359375 
Q 40.09375 49.515625 40.09375 50.53125 
Q 40.09375 51.5625 40.09375 52 
L 40.09375 72.46875 
L 48.875 72.46875 
L 48.875 10.890625 
Q 48.875 8.984375 48.890625 7.21875 
Q 48.921875 5.46875 48.96875 4 
Q 49.03125 2.546875 49.078125 1.484375 
Q 49.125 0.4375 49.171875 0 
L 40.765625 0 
Q 40.671875 0.484375 40.59375 1.390625 
Q 40.53125 2.296875 40.453125 3.46875 
Q 40.375 4.640625 40.328125 5.9375 
Q 40.28125 7.234375 40.28125 8.5 
z
M 13.421875 26.46875 
Q 13.421875 21 14.109375 17.09375 
Q 14.796875 13.1875 16.3125 10.671875 
Q 17.828125 8.15625 20.171875 6.984375 
Q 22.515625 5.8125 25.875 5.8125 
Q 29.34375 5.8125 32 6.9375 
Q 34.671875 8.0625 36.453125 10.578125 
Q 38.234375 13.09375 39.15625 17.140625 
Q 40.09375 21.1875 40.09375 27.046875 
Q 40.09375 32.671875 39.15625 36.546875 
Q 38.234375 40.4375 36.421875 42.828125 
Q 34.625 45.21875 32 46.265625 
Q 29.390625 47.3125 25.984375 47.3125 
Q 22.75 47.3125 20.40625 46.1875 
Q 18.0625 45.0625 16.5 42.578125 
Q 14.9375 40.09375 14.171875 36.109375 
Q 13.421875 32.125 13.421875 26.46875 
" id="LiberationSans-64"/>
     <path d="M 39.84375 0 
L 21.96875 24.125 
L 15.53125 18.796875 
L 15.53125 0 
L 6.734375 0 
L 6.734375 72.46875 
L 15.53125 72.46875 
L 15.53125 27.203125 
L 38.71875 52.828125 
L 49.03125 52.828125 
L 27.59375 30.125 
L 50.140625 0 
z
" id="LiberationSans-6b"/>
    </defs>
    <g style="fill:#262626;" transform="translate(585.12427334 141.604035974)scale(0.0748 -0.0748)">
     <use xlink:href="#LiberationSans-6b"/>
     <use x="50.0" xlink:href="#LiberationSans-69"/>
     <use x="72.216796875" xlink:href="#LiberationSans-6e"/>
     <use x="127.83203125" xlink:href="#LiberationSans-64"/>
    </g>
   </g>
   <g id="PathCollection_3">
    <path d="M 573.444211 154.011988 
C 574.281815 154.011988 575.085227 153.679204 575.677503 153.086928 
C 576.269779 152.494652 576.602562 151.691241 576.602562 150.853636 
C 576.602562 150.016031 576.269779 149.21262 575.677503 148.620344 
C 575.085227 148.028068 574.281815 147.695284 573.444211 147.695284 
C 572.606606 147.695284 571.803195 148.028068 571.210919 148.620344 
C 570.618643 149.21262 570.285859 150.016031 570.285859 150.853636 
C 570.285859 151.691241 570.618643 152.494652 571.210919 153.086928 
C 571.803195 153.679204 572.606606 154.011988 573.444211 154.011988 
z
" style="fill:#fa8e63;stroke:#fa8e63;stroke-width:1.89;"/>
    <path d="M 573.444211 154.011988 
C 574.281815 154.011988 575.085227 153.679204 575.677503 153.086928 
C 576.269779 152.494652 576.602562 151.691241 576.602562 150.853636 
C 576.602562 150.016031 576.269779 149.21262 575.677503 148.620344 
C 575.085227 148.028068 574.281815 147.695284 573.444211 147.695284 
C 572.606606 147.695284 571.803195 148.028068 571.210919 148.620344 
C 570.618643 149.21262 570.285859 150.016031 570.285859 150.853636 
C 570.285859 151.691241 570.618643 152.494652 571.210919 153.086928 
C 571.803195 153.679204 572.606606 154.011988 573.444211 154.011988 
z
" style="fill:#fa8e63;stroke:#fa8e63;stroke-width:1.89;"/>
    <path d="M 573.444211 154.011988 
C 574.281815 154.011988 575.085227 153.679204 575.677503 153.086928 
C 576.269779 152.494652 576.602562 151.691241 576.602562 150.853636 
C 576.602562 150.016031 576.269779 149.21262 575.677503 148.620344 
C 575.085227 148.028068 574.281815 147.695284 573.444211 147.695284 
C 572.606606 147.695284 571.803195 148.028068 571.210919 148.620344 
C 570.618643 149.21262 570.285859 150.016031 570.285859 150.853636 
C 570.285859 151.691241 570.618643 152.494652 571.210919 153.086928 
C 571.803195 153.679204 572.606606 154.011988 573.444211 154.011988 
z
" style="fill:#fa8e63;stroke:#fa8e63;stroke-width:1.89;"/>
   </g>
   <g id="text_30">
    <!-- shape -->
    <defs>
     <path d="M 46.390625 14.59375 
Q 46.390625 10.890625 44.9375 7.984375 
Q 43.5 5.078125 40.765625 3.09375 
Q 38.03125 1.125 34.046875 0.0625 
Q 30.078125 -0.984375 24.953125 -0.984375 
Q 20.359375 -0.984375 16.671875 -0.265625 
Q 12.984375 0.4375 10.203125 2 
Q 7.421875 3.5625 5.53125 6.125 
Q 3.65625 8.6875 2.78125 12.40625 
L 10.546875 13.921875 
Q 11.671875 9.671875 15.1875 7.6875 
Q 18.703125 5.71875 24.953125 5.71875 
Q 27.78125 5.71875 30.140625 6.109375 
Q 32.515625 6.5 34.21875 7.453125 
Q 35.9375 8.40625 36.890625 9.984375 
Q 37.84375 11.578125 37.84375 13.921875 
Q 37.84375 16.3125 36.71875 17.84375 
Q 35.59375 19.390625 33.59375 20.40625 
Q 31.59375 21.4375 28.734375 22.1875 
Q 25.875 22.953125 22.46875 23.875 
Q 19.28125 24.703125 16.15625 25.734375 
Q 13.03125 26.765625 10.515625 28.4375 
Q 8.015625 30.125 6.453125 32.609375 
Q 4.890625 35.109375 4.890625 38.875 
Q 4.890625 46.09375 10.03125 49.875 
Q 15.1875 53.65625 25.046875 53.65625 
Q 33.796875 53.65625 38.9375 50.578125 
Q 44.09375 47.515625 45.453125 40.71875 
L 37.546875 39.75 
Q 37.109375 41.796875 35.9375 43.1875 
Q 34.765625 44.578125 33.109375 45.4375 
Q 31.453125 46.296875 29.375 46.65625 
Q 27.296875 47.015625 25.046875 47.015625 
Q 19.09375 47.015625 16.25 45.203125 
Q 13.421875 43.40625 13.421875 39.75 
Q 13.421875 37.59375 14.46875 36.203125 
Q 15.53125 34.8125 17.40625 33.859375 
Q 19.28125 32.90625 21.921875 32.203125 
Q 24.5625 31.5 27.734375 30.71875 
Q 29.828125 30.171875 32.03125 29.5625 
Q 34.234375 28.953125 36.296875 28.09375 
Q 38.375 27.25 40.203125 26.09375 
Q 42.046875 24.953125 43.40625 23.34375 
Q 44.78125 21.734375 45.578125 19.578125 
Q 46.390625 17.4375 46.390625 14.59375 
" id="LiberationSans-73"/>
     <path d="M 51.421875 26.65625 
Q 51.421875 20.65625 50.4375 15.578125 
Q 49.46875 10.5 47.1875 6.828125 
Q 44.921875 3.171875 41.1875 1.09375 
Q 37.453125 -0.984375 31.984375 -0.984375 
Q 26.3125 -0.984375 22.0625 1.171875 
Q 17.828125 3.328125 15.578125 8.203125 
L 15.328125 8.203125 
Q 15.375 8.109375 15.40625 7.328125 
Q 15.4375 6.546875 15.453125 5.375 
Q 15.484375 4.203125 15.5 2.75 
Q 15.53125 1.3125 15.53125 -0.09375 
L 15.53125 -20.75 
L 6.734375 -20.75 
L 6.734375 42.046875 
Q 6.734375 43.953125 6.703125 45.703125 
Q 6.6875 47.46875 6.640625 48.90625 
Q 6.59375 50.34375 6.546875 51.359375 
Q 6.5 52.390625 6.453125 52.828125 
L 14.9375 52.828125 
Q 14.984375 52.6875 15.0625 51.796875 
Q 15.140625 50.921875 15.203125 49.671875 
Q 15.28125 48.4375 15.359375 47.015625 
Q 15.4375 45.609375 15.4375 44.34375 
L 15.625 44.34375 
Q 16.84375 46.875 18.40625 48.65625 
Q 19.96875 50.4375 21.96875 51.578125 
Q 23.96875 52.734375 26.4375 53.25 
Q 28.90625 53.765625 31.984375 53.765625 
Q 37.453125 53.765625 41.1875 51.8125 
Q 44.921875 49.859375 47.1875 46.3125 
Q 49.46875 42.78125 50.4375 37.765625 
Q 51.421875 32.765625 51.421875 26.65625 
M 42.1875 26.46875 
Q 42.1875 31.34375 41.59375 35.15625 
Q 41.015625 38.96875 39.578125 41.59375 
Q 38.140625 44.234375 35.734375 45.59375 
Q 33.34375 46.96875 29.734375 46.96875 
Q 26.8125 46.96875 24.21875 46.140625 
Q 21.625 45.3125 19.703125 42.96875 
Q 17.78125 40.625 16.65625 36.5 
Q 15.53125 32.375 15.53125 25.78125 
Q 15.53125 20.171875 16.453125 16.28125 
Q 17.390625 12.40625 19.171875 10.015625 
Q 20.953125 7.625 23.578125 6.5625 
Q 26.21875 5.515625 29.640625 5.515625 
Q 33.296875 5.515625 35.71875 6.921875 
Q 38.140625 8.34375 39.578125 11.03125 
Q 41.015625 13.71875 41.59375 17.59375 
Q 42.1875 21.484375 42.1875 26.46875 
" id="LiberationSans-70"/>
     <path d="M 15.484375 43.796875 
Q 16.9375 46.484375 18.640625 48.359375 
Q 20.359375 50.25 22.40625 51.46875 
Q 24.46875 52.6875 26.90625 53.25 
Q 29.34375 53.8125 32.375 53.8125 
Q 37.453125 53.8125 40.703125 52.4375 
Q 43.953125 51.078125 45.828125 48.609375 
Q 47.703125 46.140625 48.40625 42.71875 
Q 49.125 39.3125 49.125 35.203125 
L 49.125 0 
L 40.28125 0 
L 40.28125 33.5 
Q 40.28125 36.859375 39.859375 39.390625 
Q 39.453125 41.9375 38.28125 43.625 
Q 37.109375 45.3125 34.953125 46.15625 
Q 32.8125 47.015625 29.390625 47.015625 
Q 26.265625 47.015625 23.75 45.890625 
Q 21.234375 44.78125 19.453125 42.71875 
Q 17.671875 40.671875 16.6875 37.734375 
Q 15.71875 34.8125 15.71875 31.15625 
L 15.71875 0 
L 6.9375 0 
L 6.9375 72.46875 
L 15.71875 72.46875 
L 15.71875 53.609375 
Q 15.71875 52 15.671875 50.390625 
Q 15.625 48.78125 15.546875 47.40625 
Q 15.484375 46.046875 15.421875 45.09375 
Q 15.375 44.140625 15.328125 43.796875 
z
" id="LiberationSans-68"/>
    </defs>
    <g style="fill:#262626;" transform="translate(587.84421084 152.953635974)scale(0.08 -0.08)">
     <use xlink:href="#LiberationSans-73"/>
     <use x="50.0" xlink:href="#LiberationSans-68"/>
     <use x="105.615234375" xlink:href="#LiberationSans-61"/>
     <use x="161.23046875" xlink:href="#LiberationSans-70"/>
     <use x="216.845703125" xlink:href="#LiberationSans-65"/>
    </g>
   </g>
   <g id="PathCollection_4">
    <path d="M 573.444211 165.469488 
C 574.281815 165.469488 575.085227 165.136704 575.677503 164.544428 
C 576.269779 163.952152 576.602562 163.148741 576.602562 162.311136 
C 576.602562 161.473531 576.269779 160.67012 575.677503 160.077844 
C 575.085227 159.485568 574.281815 159.152784 573.444211 159.152784 
C 572.606606 159.152784 571.803195 159.485568 571.210919 160.077844 
C 570.618643 160.67012 570.285859 161.473531 570.285859 162.311136 
C 570.285859 163.148741 570.618643 163.952152 571.210919 164.544428 
C 571.803195 165.136704 572.606606 165.469488 573.444211 165.469488 
z
" style="fill:#8da0cb;stroke:#8da0cb;stroke-width:1.89;"/>
    <path d="M 573.444211 165.469488 
C 574.281815 165.469488 575.085227 165.136704 575.677503 164.544428 
C 576.269779 163.952152 576.602562 163.148741 576.602562 162.311136 
C 576.602562 161.473531 576.269779 160.67012 575.677503 160.077844 
C 575.085227 159.485568 574.281815 159.152784 573.444211 159.152784 
C 572.606606 159.152784 571.803195 159.485568 571.210919 160.077844 
C 570.618643 160.67012 570.285859 161.473531 570.285859 162.311136 
C 570.285859 163.148741 570.618643 163.952152 571.210919 164.544428 
C 571.803195 165.136704 572.606606 165.469488 573.444211 165.469488 
z
" style="fill:#8da0cb;stroke:#8da0cb;stroke-width:1.89;"/>
    <path d="M 573.444211 165.469488 
C 574.281815 165.469488 575.085227 165.136704 575.677503 164.544428 
C 576.269779 163.952152 576.602562 163.148741 576.602562 162.311136 
C 576.602562 161.473531 576.269779 160.67012 575.677503 160.077844 
C 575.085227 159.485568 574.281815 159.152784 573.444211 159.152784 
C 572.606606 159.152784 571.803195 159.485568 571.210919 160.077844 
C 570.618643 160.67012 570.285859 161.473531 570.285859 162.311136 
C 570.285859 163.148741 570.618643 163.952152 571.210919 164.544428 
C 571.803195 165.136704 572.606606 165.469488 573.444211 165.469488 
z
" style="fill:#8da0cb;stroke:#8da0cb;stroke-width:1.89;"/>
   </g>
   <g id="text_31">
    <!-- category -->
    <defs>
     <path d="M 26.765625 -20.75 
Q 22.21875 -20.75 18.703125 -19.8125 
Q 15.1875 -18.890625 12.6875 -17.15625 
Q 10.203125 -15.4375 8.640625 -13.03125 
Q 7.078125 -10.640625 6.390625 -7.71875 
L 15.234375 -6.453125 
Q 16.109375 -10.109375 19.109375 -12.078125 
Q 22.125 -14.0625 27 -14.0625 
Q 29.984375 -14.0625 32.421875 -13.234375 
Q 34.859375 -12.40625 36.5625 -10.5625 
Q 38.28125 -8.734375 39.203125 -5.796875 
Q 40.140625 -2.875 40.140625 1.3125 
L 40.140625 9.8125 
L 40.046875 9.8125 
Q 39.0625 7.8125 37.625 5.984375 
Q 36.1875 4.15625 34.109375 2.734375 
Q 32.03125 1.3125 29.296875 0.453125 
Q 26.5625 -0.390625 23.046875 -0.390625 
Q 18.015625 -0.390625 14.421875 1.296875 
Q 10.84375 2.984375 8.5625 6.34375 
Q 6.296875 9.71875 5.25 14.71875 
Q 4.203125 19.734375 4.203125 26.3125 
Q 4.203125 32.671875 5.25 37.75 
Q 6.296875 42.828125 8.65625 46.359375 
Q 11.03125 49.90625 14.8125 51.78125 
Q 18.609375 53.65625 24.03125 53.65625 
Q 29.640625 53.65625 33.765625 51.09375 
Q 37.890625 48.53125 40.140625 43.796875 
L 40.234375 43.796875 
Q 40.234375 45.015625 40.296875 46.53125 
Q 40.375 48.046875 40.453125 49.390625 
Q 40.53125 50.734375 40.625 51.703125 
Q 40.71875 52.6875 40.828125 52.828125 
L 49.171875 52.828125 
Q 49.125 52.390625 49.078125 51.34375 
Q 49.03125 50.296875 48.96875 48.828125 
Q 48.921875 47.359375 48.890625 45.578125 
Q 48.875 43.796875 48.875 41.890625 
L 48.875 1.515625 
Q 48.875 -9.578125 43.421875 -15.15625 
Q 37.984375 -20.75 26.765625 -20.75 
M 40.140625 26.421875 
Q 40.140625 31.9375 38.9375 35.859375 
Q 37.75 39.796875 35.796875 42.28125 
Q 33.84375 44.78125 31.328125 45.953125 
Q 28.8125 47.125 26.171875 47.125 
Q 22.796875 47.125 20.375 45.953125 
Q 17.96875 44.78125 16.375 42.265625 
Q 14.796875 39.75 14.03125 35.8125 
Q 13.28125 31.890625 13.28125 26.421875 
Q 13.28125 20.703125 14.03125 16.8125 
Q 14.796875 12.9375 16.359375 10.546875 
Q 17.921875 8.15625 20.3125 7.125 
Q 22.703125 6.109375 26.03125 6.109375 
Q 28.65625 6.109375 31.171875 7.21875 
Q 33.6875 8.34375 35.6875 10.78125 
Q 37.703125 13.234375 38.921875 17.09375 
Q 40.140625 20.953125 40.140625 26.421875 
" id="LiberationSans-67"/>
    </defs>
    <g style="fill:#262626;" transform="translate(587.84421084 164.411135974)scale(0.08 -0.08)">
     <use xlink:href="#LiberationSans-63"/>
     <use x="50.0" xlink:href="#LiberationSans-61"/>
     <use x="105.615234375" xlink:href="#LiberationSans-74"/>
     <use x="133.3984375" xlink:href="#LiberationSans-65"/>
     <use x="189.013671875" xlink:href="#LiberationSans-67"/>
     <use x="244.62890625" xlink:href="#LiberationSans-6f"/>
     <use x="300.244140625" xlink:href="#LiberationSans-72"/>
     <use x="333.544921875" xlink:href="#LiberationSans-79"/>
    </g>
   </g>
  </g>
 </g>
 <defs>
  <clipPath id="pe4d8f4b8a6">
   <rect height="235.514" width="519.30733584" x="37.12325" y="19.157"/>
  </clipPath>
 </defs>
</svg>
